<svg width="239" height="225" viewBox="0 0 239 225" fill="none" xmlns="http://www.w3.org/2000/svg">
<mask id="mask0_62_24" style="mask-type:alpha" maskUnits="userSpaceOnUse" x="0" y="0" width="239" height="225">
<rect width="239" height="225" fill="#D9D9D9"/>
</mask>
<g mask="url(#mask0_62_24)">
<path d="M226.802 18.2902C223.961 18.2902 221.671 16.0001 221.671 13.1593C221.671 10.3185 223.961 8.02836 226.802 8.02836C229.642 8.02836 231.932 10.3185 231.932 13.1593C231.932 16.0001 229.613 18.2902 226.802 18.2902Z" fill="#3764F8" fill-opacity="0.4"/>
<path d="M183.551 18.2902C180.71 18.2902 178.42 16.0001 178.42 13.1593C178.42 10.3185 180.71 8.02836 183.551 8.02836C186.392 8.02836 188.682 10.3185 188.682 13.1593C188.682 16.0001 186.392 18.2902 183.551 18.2902Z" fill="#3764F8" fill-opacity="0.4"/>
<path d="M140.33 18.2902C137.489 18.2902 135.199 16.0001 135.199 13.1593C135.199 10.3185 137.489 8.02836 140.33 8.02836C143.171 8.02836 145.461 10.3185 145.461 13.1593C145.461 15.9711 143.171 18.2902 140.33 18.2902Z" fill="#3764F8" fill-opacity="0.4"/>
<path d="M97.0802 18.2617C94.2394 18.2617 91.9494 15.9716 91.9494 13.1308C91.9494 10.29 94.2394 8.00002 97.0802 8.00002C99.9211 8.00002 102.211 10.29 102.211 13.1308C102.211 15.9716 99.9211 18.2617 97.0802 18.2617Z" fill="#3764F8" fill-opacity="0.4"/>
<path d="M53.8591 18.2617C51.0183 18.2617 48.7283 15.9716 48.7283 13.1308C48.7283 10.29 51.0183 8.00002 53.8591 8.00002C56.7 8.00002 58.99 10.29 58.99 13.1308C58.99 15.9716 56.7 18.2617 53.8591 18.2617Z" fill="#3764F8" fill-opacity="0.4"/>
<path d="M10.6086 18.2617C7.76776 18.2617 5.47771 15.9716 5.47771 13.1308C5.47771 10.29 7.76776 8.00002 10.6086 8.00002C13.4494 8.00002 15.7395 10.29 15.7395 13.1308C15.7395 15.9426 13.4494 18.2617 10.6086 18.2617Z" fill="#3764F8" fill-opacity="0.4"/>
<path d="M226.771 58.8135C223.93 58.8135 221.64 56.5234 221.64 53.6825C221.64 50.8417 223.93 48.5518 226.771 48.5518C229.612 48.5518 231.902 50.8417 231.902 53.6825C231.902 56.5234 229.612 58.8135 226.771 58.8135Z" fill="#3764F8" fill-opacity="0.4"/>
<path d="M183.551 58.8135C180.71 58.8135 178.42 56.5234 178.42 53.6825C178.42 50.8417 180.71 48.5518 183.551 48.5518C186.392 48.5518 188.682 50.8417 188.682 53.6825C188.682 56.5234 186.392 58.8135 183.551 58.8135Z" fill="#3764F8" fill-opacity="0.4"/>
<path d="M140.301 58.8135C137.461 58.8135 135.171 56.5234 135.171 53.6825C135.171 50.8417 137.461 48.5518 140.301 48.5518C143.142 48.5518 145.432 50.8417 145.432 53.6825C145.432 56.5234 143.142 58.8135 140.301 58.8135Z" fill="#3764F8" fill-opacity="0.4"/>
<path d="M97.0802 58.7859C94.2394 58.7859 91.9494 56.496 91.9494 53.6551C91.9494 50.8143 94.2394 48.5242 97.0802 48.5242C99.9211 48.5242 102.211 50.8143 102.211 53.6551C102.211 56.496 99.9211 58.7859 97.0802 58.7859Z" fill="#3764F8" fill-opacity="0.4"/>
<path d="M53.8297 58.7859C50.9889 58.7859 48.6988 56.496 48.6988 53.6551C48.6988 50.8143 50.9889 48.5242 53.8297 48.5242C56.6705 48.5242 58.9606 50.8143 58.9606 53.6551C58.9895 56.496 56.6705 58.7859 53.8297 58.7859Z" fill="#3764F8" fill-opacity="0.4"/>
<path d="M10.6086 58.7859C7.76776 58.7859 5.47771 56.496 5.47771 53.6551C5.47771 50.8143 7.76776 48.5242 10.6086 48.5242C13.4494 48.5242 15.7395 50.8143 15.7395 53.6551C15.7395 56.467 13.4494 58.7859 10.6086 58.7859Z" fill="#3764F8" fill-opacity="0.4"/>
<path d="M226.771 99.3398C223.93 99.3398 221.64 97.0499 221.64 94.209C221.64 91.3682 223.93 89.0781 226.771 89.0781C229.612 89.0781 231.902 91.3682 231.902 94.209C231.902 97.0499 229.612 99.3398 226.771 99.3398Z" fill="#3764F8" fill-opacity="0.4"/>
<path d="M183.521 99.3398C180.68 99.3398 178.39 97.0499 178.39 94.209C178.39 91.3682 180.68 89.0781 183.521 89.0781C186.361 89.0781 188.651 91.3682 188.651 94.209C188.68 97.0499 186.361 99.3398 183.521 99.3398Z" fill="#3764F8" fill-opacity="0.4"/>
<path d="M140.301 99.3398C137.461 99.3398 135.171 97.0499 135.171 94.209C135.171 91.3682 137.461 89.0781 140.301 89.0781C143.142 89.0781 145.432 91.3682 145.432 94.209C145.432 97.0209 143.142 99.3398 140.301 99.3398Z" fill="#3764F8" fill-opacity="0.4"/>
<path d="M97.0802 99.3113C94.2394 99.3113 91.9494 97.0212 91.9494 94.1803C91.9494 91.3395 94.2394 89.0494 97.0802 89.0494C99.9211 89.0494 102.211 91.3395 102.211 94.1803C102.211 97.0212 99.8921 99.3113 97.0802 99.3113Z" fill="#3764F8" fill-opacity="0.4"/>
<path d="M53.8297 99.3113C50.9889 99.3113 48.6988 97.0212 48.6988 94.1803C48.6988 91.3395 50.9889 89.0494 53.8297 89.0494C56.6705 89.0494 58.9606 91.3395 58.9606 94.1803C58.9606 97.0212 56.6705 99.3113 53.8297 99.3113Z" fill="#3764F8" fill-opacity="0.4"/>
<path d="M10.6086 99.3113C7.76776 99.3113 5.47771 97.0212 5.47771 94.1803C5.47771 91.3395 7.76776 89.0494 10.6086 89.0494C13.4494 89.0494 15.7395 91.3395 15.7395 94.1803C15.7395 96.9922 13.4204 99.3113 10.6086 99.3113Z" fill="#3764F8" fill-opacity="0.4"/>
<path d="M226.773 139.864C223.932 139.864 221.642 137.574 221.642 134.733C221.642 131.892 223.932 129.602 226.773 129.602C229.614 129.602 231.904 131.892 231.904 134.733C231.904 137.574 229.585 139.864 226.773 139.864Z" fill="#3764F8" fill-opacity="0.4"/>
<path d="M183.524 139.864C180.683 139.864 178.393 137.574 178.393 134.733C178.393 131.892 180.683 129.602 183.524 129.602C186.365 129.602 188.655 131.892 188.655 134.733C188.655 137.574 186.365 139.864 183.524 139.864Z" fill="#3764F8" fill-opacity="0.4"/>
<path d="M140.301 139.864C137.46 139.864 135.17 137.574 135.17 134.733C135.17 131.892 137.46 129.602 140.301 129.602C143.142 129.602 145.432 131.892 145.432 134.733C145.432 137.545 143.142 139.864 140.301 139.864Z" fill="#3764F8" fill-opacity="0.4"/>
<path d="M97.0525 139.836C94.2117 139.836 91.9216 137.545 91.9216 134.705C91.9216 131.864 94.2117 129.574 97.0525 129.574C99.8933 129.574 102.183 131.864 102.183 134.705C102.183 137.545 99.8933 139.836 97.0525 139.836Z" fill="#3764F8" fill-opacity="0.4"/>
<path d="M53.8314 139.836C50.9906 139.836 48.7005 137.545 48.7005 134.705C48.7005 131.864 50.9906 129.574 53.8314 129.574C56.6722 129.574 58.9623 131.864 58.9623 134.705C58.9623 137.545 56.6722 139.836 53.8314 139.836Z" fill="#3764F8" fill-opacity="0.4"/>
<path d="M10.5808 139.807C7.74002 139.807 5.44997 137.517 5.44997 134.677C5.44997 131.836 7.74002 129.546 10.5808 129.546C13.4217 129.546 15.7117 131.836 15.7117 134.677C15.7117 137.517 13.4217 139.807 10.5808 139.807Z" fill="#3764F8" fill-opacity="0.4"/>
<path d="M226.743 180.389C223.903 180.389 221.613 178.099 221.613 175.258C221.613 172.418 223.903 170.128 226.743 170.128C229.584 170.128 231.874 172.418 231.874 175.258C231.903 178.099 229.584 180.389 226.743 180.389Z" fill="#3764F8" fill-opacity="0.4"/>
<path d="M183.524 180.389C180.683 180.389 178.393 178.099 178.393 175.258C178.393 172.418 180.683 170.128 183.524 170.128C186.365 170.128 188.655 172.418 188.655 175.258C188.655 178.099 186.365 180.389 183.524 180.389Z" fill="#3764F8" fill-opacity="0.4"/>
<path d="M140.274 180.361C137.433 180.361 135.143 178.071 135.143 175.23C135.143 172.389 137.433 170.099 140.274 170.099C143.114 170.099 145.404 172.389 145.404 175.23C145.433 178.071 143.114 180.361 140.274 180.361Z" fill="#3764F8" fill-opacity="0.4"/>
<path d="M97.0525 180.361C94.2117 180.361 91.9216 178.071 91.9216 175.23C91.9216 172.389 94.2117 170.099 97.0525 170.099C99.8933 170.099 102.183 172.389 102.183 175.23C102.183 178.071 99.8933 180.361 97.0525 180.361Z" fill="#3764F8" fill-opacity="0.4"/>
<path d="M53.802 180.361C50.9611 180.361 48.6711 178.071 48.6711 175.23C48.6711 172.389 50.9611 170.099 53.802 170.099C56.6428 170.099 58.9328 172.389 58.9328 175.23C58.9618 178.042 56.6428 180.361 53.802 180.361Z" fill="#3764F8" fill-opacity="0.4"/>
<path d="M15.7117 175.202C15.7117 172.368 13.4145 170.071 10.5808 170.071C7.74714 170.071 5.44997 172.368 5.44997 175.202C5.44997 178.036 7.74714 180.333 10.5808 180.333C13.4145 180.333 15.7117 178.036 15.7117 175.202Z" fill="#3764F8" fill-opacity="0.4"/>
<path d="M226.743 220.914C223.903 220.914 221.613 218.624 221.613 215.783C221.613 212.942 223.903 210.652 226.743 210.652C229.584 210.652 231.874 212.942 231.874 215.783C231.874 218.624 229.584 220.914 226.743 220.914Z" fill="#3764F8" fill-opacity="0.4"/>
<path d="M183.494 220.914C180.653 220.914 178.363 218.624 178.363 215.783C178.363 212.942 180.653 210.652 183.494 210.652C186.335 210.652 188.625 212.942 188.625 215.783C188.654 218.595 186.335 220.914 183.494 220.914Z" fill="#3764F8" fill-opacity="0.4"/>
<path d="M140.274 220.885C137.433 220.885 135.143 218.595 135.143 215.754C135.143 212.913 137.433 210.623 140.274 210.623C143.114 210.623 145.404 212.913 145.404 215.754C145.404 218.595 143.114 220.885 140.274 220.885Z" fill="#3764F8" fill-opacity="0.4"/>
<path d="M97.0525 220.885C94.2117 220.885 91.9216 218.595 91.9216 215.754C91.9216 212.913 94.2117 210.623 97.0525 210.623C99.8933 210.623 102.183 212.913 102.183 215.754C102.183 218.595 99.8643 220.885 97.0525 220.885Z" fill="#3764F8" fill-opacity="0.4"/>
<path d="M53.802 220.885C50.9611 220.885 48.6711 218.595 48.6711 215.754C48.6711 212.913 50.9611 210.623 53.802 210.623C56.6428 210.623 58.9328 212.913 58.9328 215.754C58.9328 218.566 56.6428 220.885 53.802 220.885Z" fill="#3764F8" fill-opacity="0.4"/>
<path d="M10.5808 220.857C7.74002 220.857 5.44997 218.567 5.44997 215.726C5.44997 212.885 7.74002 210.595 10.5808 210.595C13.4217 210.595 15.7117 212.885 15.7117 215.726C15.7117 218.567 13.3927 220.857 10.5808 220.857Z" fill="#3764F8" fill-opacity="0.4"/>
</g>
</svg>
