<svg width="26" height="14" viewBox="0 0 26 14" fill="none" xmlns="http://www.w3.org/2000/svg">
<path d="M25.8281 7.88444L19.9192 13.7934C19.7069 14.0413 19.3339 14.0702 19.086 13.8579C18.8382 13.6456 18.8093 13.2726 19.0216 13.0247C19.0414 13.0016 19.0629 12.98 19.086 12.9603L23.9846 8.05583H0.59088C0.264565 8.05583 0 7.79126 0 7.4649C0 7.13853 0.264565 6.87402 0.59088 6.87402H23.9846L19.086 1.97549C18.8382 1.76323 18.8093 1.3902 19.0216 1.14234C19.2339 0.894483 19.6069 0.865589 19.8547 1.0779C19.8779 1.09771 19.8994 1.11924 19.9192 1.14234L25.8282 7.05134C26.0573 7.28173 26.0573 7.65395 25.8281 7.88444Z" fill="white"/>
</svg>
