<svg width="90" height="91" viewBox="0 0 90 91" fill="none" xmlns="http://www.w3.org/2000/svg">
<path d="M71.4904 17.4289C73.1671 16.6691 74.7914 15.9617 76.4157 15.202C77.6732 14.5994 78.6425 14.6518 79.5857 15.9355C83.1748 20.756 83.3582 19.1579 79.6643 23.9523C78.4853 25.498 78.6949 26.4935 79.2451 28.1964C80.3192 31.4188 82.2841 32.2309 85.3231 31.9428C86.371 31.838 88.1525 32.0737 88.4145 32.6763C89.2005 34.484 89.6458 36.5537 89.7244 38.5185C89.7506 39.0949 88.1787 39.8547 87.2618 40.3524C83.2272 42.5531 82.7819 43.3914 83.4368 47.9238C83.5154 48.3691 83.8822 48.8407 84.249 49.1551C84.6681 49.4957 85.2183 49.6005 85.7161 49.8624C91.1653 52.8229 90.0912 51.4605 89.0433 56.9884C88.7551 58.5603 88.0739 59.3725 86.4234 59.1367C86.1876 59.1105 85.9519 59.1367 85.7161 59.1629C80.5812 59.3463 80.2406 59.582 78.6163 64.4811C78.4853 64.9003 78.6163 65.4767 78.8259 65.8959C79.1141 66.446 79.6119 66.8652 79.9786 67.363C83.2272 72.0001 83.1748 70.402 79.8214 74.8819C78.8521 76.1918 77.8566 76.7682 76.3371 75.825C76.0751 75.6678 75.7345 75.6416 75.4987 75.4583C72.7479 73.3886 70.4686 73.8602 68.1108 76.2966C67.0104 77.4231 66.1983 78.2091 66.9318 79.7548C67.0628 80.0168 67.0366 80.3574 67.0628 80.6717C67.9536 85.9638 68.3727 84.5229 64.0238 86.907C62.1375 87.9549 60.88 87.6667 59.7273 85.9638C59.6487 85.8328 59.5177 85.728 59.4391 85.597C56.4263 82.1912 55.4832 81.9293 51.1866 83.5536C50.7674 83.7107 50.3745 84.2085 50.1911 84.6539C49.9291 85.2827 49.8505 86.0162 49.6671 86.6974C48.6454 90.9677 48.6192 91.0463 45.3968 90.9677C40.9431 90.8629 41.8076 91.9894 40.2357 86.6188C39.9213 85.5184 40.4453 83.5798 38.4542 83.5274C36.1226 83.5012 33.7123 81.0385 31.433 84.3919C28.7084 88.3741 26.6911 88.3479 22.9448 85.3351C22.6042 85.0469 22.4732 84.4705 22.3422 83.9989C22.2636 83.7108 22.3422 83.3702 22.4732 83.082C24.2809 78.7069 22.6566 75.7464 18.1767 73.7816C16.7358 74.4103 14.8757 75.1177 13.068 75.9822C11.9415 76.5324 11.2341 76.2442 10.5005 75.3011C6.62318 70.2448 6.59699 71.9215 10.2386 67.101C11.4175 65.5553 11.2079 64.5597 10.6577 62.8568C9.5836 59.6344 7.61872 58.8223 4.57971 59.0843C3.53178 59.1891 1.75029 58.9533 1.4883 58.3507C0.702352 56.543 0.25698 54.4734 0.204583 52.5085C0.178385 51.9321 1.75029 51.1724 2.69343 50.6746C6.70178 48.5001 7.17335 47.6356 6.51839 43.1295C6.4398 42.6841 6.07302 42.2125 5.70624 41.8981C5.28707 41.5576 4.7369 41.4266 4.23913 41.1908C-0.502773 38.8591 -0.843352 37.9946 1.14772 33.1479C1.35731 32.6501 2.03847 32.2571 2.58864 31.969C2.98161 31.7856 3.53178 31.7856 3.97715 31.8904C8.35228 32.9121 10.029 30.1351 11.2341 26.7293C11.3913 26.2577 11.3127 25.5766 11.1031 25.105C10.8673 24.5548 10.3172 24.1356 9.95038 23.6379C6.78038 19.1317 6.80657 20.5989 9.97658 16.3023C11.0769 14.809 12.1772 14.2065 13.8277 15.3068C13.9587 15.3854 14.1421 15.4116 14.2469 15.4902C17.6789 18.3458 20.2463 16.3023 22.7352 13.9707C23.102 13.6301 23.2854 12.9227 23.2854 12.3726C23.2854 11.6914 22.9972 11.0103 22.8924 10.3291C22.0016 5.01082 21.5825 6.50413 25.9314 4.09388C27.8177 3.04594 29.1014 3.30793 30.2017 5.03702C30.2803 5.16801 30.4113 5.27281 30.5161 5.3776C33.5289 8.73099 34.5769 9.01917 38.7686 7.39488C39.1878 7.23769 39.5545 6.71372 39.7641 6.29454C40.0261 5.74438 40.0523 5.08942 40.2357 4.48686C41.729 -0.805217 40.6025 0.242718 45.9469 0.00693292C47.8594 -0.0716622 48.9074 0.504702 49.1432 2.41718C49.1693 2.73156 49.3003 3.01975 49.3789 3.30793C49.7719 4.61785 49.7981 6.55653 50.6889 7.13289C52.1822 8.07603 54.2256 8.18083 56.0333 8.49521C56.4263 8.5738 57.0027 8.15463 57.3694 7.81405C57.8672 7.34248 58.234 6.71372 58.7056 6.18975C62.0589 2.52198 60.8276 2.94115 64.9408 4.53925C67.4558 5.53479 67.9798 7.0019 67.2986 9.35975C67.0628 10.1719 66.7223 11.0365 66.8008 11.8486C66.8532 12.6869 67.1414 13.7087 67.6916 14.285C68.7657 15.4378 70.1018 16.3023 71.4904 17.4289ZM29.704 38.0732C31.0401 36.1345 32.5072 34.353 35.2318 34.091C35.4938 37.2086 34.6292 39.8547 32.2452 42.2649C33.4765 41.9243 34.3149 41.6624 35.1532 41.4266C35.3628 41.5576 35.5986 41.7147 35.8082 41.8457C34.865 44.4656 33.9219 47.0854 33.0835 49.4433C33.4765 49.3123 34.2887 49.0241 35.127 48.7621C35.3366 48.9193 35.5462 49.1027 35.7558 49.2599C34.9174 51.7487 34.1053 54.2638 33.2931 56.674C33.6861 56.6216 34.4459 56.4906 35.3628 56.3596C35.2056 60.3418 34.4197 63.6428 30.4375 65.2933C28.9704 65.9221 28.8918 73.8864 30.3589 74.6199C34.7078 76.8468 39.2926 78.0257 44.4536 78.0257C44.4536 73.965 44.4012 70.0876 44.4798 66.2102C44.506 64.9003 44.1917 64.1668 42.8555 63.5904C39.5807 62.1233 37.9302 58.3507 38.821 54.8663C39.7117 55.1545 40.6025 55.4427 42.0434 55.9405C39.1616 53.3992 38.4018 50.6222 38.4804 47.295C39.6855 47.688 40.5763 47.9762 41.9648 48.4215C39.1616 45.9065 38.3494 43.1819 38.4804 39.8285C39.6331 40.1952 40.4977 40.4834 40.7335 40.562C39.8689 38.2042 38.8996 35.5581 37.904 32.9121C38.1398 32.7549 38.4018 32.5977 38.6376 32.4405C39.7117 32.8597 40.7859 33.2789 41.86 33.698C39.1616 31.4712 38.4018 28.5632 38.428 25.2098C42.646 25.7075 43.9559 28.7728 44.9252 32.5977C46.2875 27.3842 47.938 25.6027 51.3962 25.3932C51.4224 28.6418 50.5841 31.4974 47.9642 33.7242C49.0384 33.3051 50.1125 32.8859 51.2128 32.4667C51.4486 32.6501 51.7106 32.8335 51.9464 32.9907C50.9508 35.6105 49.9553 38.2304 49.0907 40.562C49.4575 40.4572 50.3745 40.1952 51.2652 39.9333C51.501 40.1166 51.7368 40.2738 51.9726 40.4572C50.9508 43.1033 49.9291 45.7493 49.0122 48.1072C49.3527 48.0024 50.2697 47.688 51.4486 47.295C51.4748 50.7008 50.715 53.4778 47.8856 55.9667C49.3265 55.4951 50.2959 55.2069 51.4486 54.8401C51.3962 59.5296 50.0339 62.9878 45.5802 64.324C45.5802 69.0135 45.5802 73.4934 45.5802 78.1567C47.1259 78.0257 48.5144 78.0519 49.8767 77.7899C51.7106 77.4493 53.5445 77.004 55.2998 76.4276C60.4608 74.7509 60.4346 74.7247 60.4346 69.4064C60.4346 68.7777 60.3822 68.1489 60.4346 67.5463C60.5394 66.3412 60.2251 65.6601 58.9413 65.0837C55.6665 63.5904 54.0684 60.0012 54.9854 55.7833C56.9503 57.3552 58.6794 58.7437 60.4346 60.1322C60.2775 59.3201 59.9893 58.1673 59.3081 57.853C55.4308 56.0715 54.5924 52.8229 54.5662 48.7883C55.6141 49.1027 56.5049 49.3647 57.8148 49.7576C55.1164 47.295 54.4352 44.5704 54.671 41.4004C55.7189 41.7147 56.5573 41.9767 56.7669 42.0291C55.9285 39.6451 55.0116 37.0514 54.0946 34.484C54.409 34.2744 54.6972 34.0386 55.0116 33.829C56.5835 34.8246 58.1554 35.8201 59.7535 36.8157C60.1203 37.392 60.5132 37.9684 60.88 38.5447C61.3254 38.1256 61.7708 37.7064 62.2161 37.2872C63.7094 35.9249 64.967 34.1696 68.0846 34.2482C67.0366 37.1562 66.0935 39.7237 65.229 42.0815C65.6743 41.9505 66.4865 41.7147 67.613 41.3742C67.3772 42.9199 67.3248 44.256 66.9318 45.4873C66.5389 46.771 65.8053 47.9762 65.1766 49.3385C65.9101 49.1813 66.5651 49.0503 67.2462 48.9193C67.744 53.1372 66.2769 55.8881 62.9497 57.7744C62.1899 58.2197 61.7708 59.2939 61.2206 60.0798C61.3254 60.106 61.4302 60.1322 61.535 60.1584C63.3165 58.7699 65.098 57.3814 67.22 55.7047C67.7178 60.761 66.3817 63.3022 62.6877 65.2933C62.2161 65.5553 61.5874 66.1054 61.5612 66.5246C61.4564 68.7253 61.5088 70.9521 61.5088 73.3624C72.5645 67.4678 80.3716 52.6919 76.5467 37.5492C72.6693 22.2232 57.7362 11.246 41.1002 13.1847C27.2413 14.7566 13.461 26.1267 12.3606 43.9678C11.6009 56.3596 19.3294 69.1706 28.394 73.1004C28.394 71.3189 28.3154 69.616 28.4202 67.9131C28.525 66.4198 28.1321 65.5815 26.6125 64.9003C23.3901 63.4594 21.8968 59.8178 22.9448 55.7571C24.9097 57.3814 26.6387 58.8485 28.394 60.2894C28.1845 59.2153 27.7129 58.1673 26.9269 57.722C23.5997 55.8619 22.1326 53.0848 22.6042 48.8931C23.2854 48.9979 23.9665 49.0765 24.2547 49.1289C23.4949 46.6662 22.7614 44.2036 21.8444 41.2694C23.4425 41.6886 24.2809 41.9243 25.4336 42.2387C23.102 39.8285 22.185 37.2348 22.578 33.4885C24.5953 34.9294 26.2458 36.1083 27.8963 37.3134C28.525 37.523 28.1321 39.9333 29.704 38.0732Z" fill="black"/>
<path d="M71.4904 17.4289C73.1671 16.6691 74.7914 15.9617 76.4157 15.202C77.6732 14.5994 78.6425 14.6518 79.5857 15.9355C83.1748 20.756 83.3582 19.1579 79.6643 23.9523C78.4853 25.498 78.6949 26.4935 79.2451 28.1964C80.3192 31.4188 82.2841 32.2309 85.3231 31.9428C86.371 31.838 88.1525 32.0737 88.4145 32.6763C89.2005 34.484 89.6458 36.5537 89.7244 38.5185C89.7506 39.0949 88.1787 39.8547 87.2618 40.3524C83.2272 42.5531 82.7819 43.3914 83.4368 47.9238C83.5154 48.3691 83.8822 48.8407 84.249 49.1551C84.6681 49.4957 85.2183 49.6005 85.7161 49.8624C91.1653 52.8229 90.0912 51.4605 89.0433 56.9884C88.7551 58.5603 88.0739 59.3725 86.4234 59.1367C86.1876 59.1105 85.9519 59.1367 85.7161 59.1629C80.5812 59.3463 80.2406 59.582 78.6163 64.4811C78.4853 64.9003 78.6163 65.4767 78.8259 65.8959C79.1141 66.446 79.6119 66.8652 79.9786 67.363C83.2272 72.0001 83.1748 70.402 79.8214 74.8819C78.8521 76.1918 77.8566 76.7682 76.3371 75.825C76.0751 75.6678 75.7345 75.6416 75.4987 75.4583C72.7479 73.3886 70.4686 73.8602 68.1108 76.2966C67.0104 77.4231 66.1983 78.2091 66.9318 79.7548C67.0628 80.0168 67.0366 80.3574 67.0628 80.6717C67.9536 85.9638 68.3727 84.5229 64.0238 86.907C62.1375 87.9549 60.88 87.6667 59.7273 85.9638C59.6487 85.8328 59.5177 85.728 59.4391 85.597C56.4263 82.1912 55.4832 81.9293 51.1866 83.5536C50.7674 83.7107 50.3745 84.2085 50.1911 84.6539C49.9291 85.2827 49.8505 86.0162 49.6671 86.6974C48.6454 90.9677 48.6192 91.0463 45.3968 90.9677C40.9431 90.8629 41.8076 91.9894 40.2357 86.6188C39.9213 85.5184 40.4453 83.5798 38.4542 83.5274C36.1226 83.5012 33.7123 81.0385 31.433 84.3919C28.7084 88.3741 26.6911 88.3479 22.9448 85.3351C22.6042 85.0469 22.4732 84.4705 22.3422 83.9989C22.2636 83.7108 22.3422 83.3702 22.4732 83.082C24.2809 78.7069 22.6566 75.7464 18.1767 73.7816C16.7358 74.4103 14.8757 75.1177 13.068 75.9822C11.9415 76.5324 11.2341 76.2442 10.5005 75.3011C6.62318 70.2448 6.59699 71.9215 10.2386 67.101C11.4175 65.5553 11.2079 64.5597 10.6577 62.8568C9.5836 59.6344 7.61872 58.8223 4.57971 59.0843C3.53178 59.1891 1.75029 58.9533 1.4883 58.3507C0.702352 56.543 0.25698 54.4734 0.204583 52.5085C0.178385 51.9321 1.75029 51.1724 2.69343 50.6746C6.70178 48.5001 7.17335 47.6356 6.51839 43.1295C6.4398 42.6841 6.07302 42.2125 5.70624 41.8981C5.28707 41.5576 4.7369 41.4266 4.23913 41.1908C-0.502773 38.8591 -0.843352 37.9946 1.14772 33.1479C1.35731 32.6501 2.03847 32.2571 2.58864 31.969C2.98161 31.7856 3.53178 31.7856 3.97715 31.8904C8.35228 32.9121 10.029 30.1351 11.2341 26.7293C11.3913 26.2577 11.3127 25.5766 11.1031 25.105C10.8673 24.5548 10.3172 24.1356 9.95038 23.6379C6.78038 19.1317 6.80657 20.5989 9.97658 16.3023C11.0769 14.809 12.1772 14.2065 13.8277 15.3068C13.9587 15.3854 14.1421 15.4116 14.2469 15.4902C17.6789 18.3458 20.2463 16.3023 22.7352 13.9707C23.102 13.6301 23.2854 12.9227 23.2854 12.3726C23.2854 11.6914 22.9972 11.0103 22.8924 10.3291C22.0016 5.01082 21.5825 6.50413 25.9314 4.09388C27.8177 3.04594 29.1014 3.30793 30.2017 5.03702C30.2803 5.16801 30.4113 5.27281 30.5161 5.3776C33.5289 8.73099 34.5769 9.01917 38.7686 7.39488C39.1878 7.23769 39.5545 6.71372 39.7641 6.29454C40.0261 5.74438 40.0523 5.08942 40.2357 4.48686C41.729 -0.805217 40.6025 0.242718 45.9469 0.00693292C47.8594 -0.0716622 48.9074 0.504702 49.1432 2.41718C49.1693 2.73156 49.3003 3.01975 49.3789 3.30793C49.7719 4.61785 49.7981 6.55653 50.6889 7.13289C52.1822 8.07603 54.2256 8.18083 56.0333 8.49521C56.4263 8.5738 57.0027 8.15463 57.3694 7.81405C57.8672 7.34248 58.234 6.71372 58.7056 6.18975C62.0589 2.52198 60.8276 2.94115 64.9408 4.53925C67.4558 5.53479 67.9798 7.0019 67.2986 9.35975C67.0628 10.1719 66.7223 11.0365 66.8008 11.8486C66.8532 12.6869 67.1414 13.7087 67.6916 14.285C68.7657 15.4378 70.1018 16.3023 71.4904 17.4289ZM29.704 38.0732C31.0401 36.1345 32.5072 34.353 35.2318 34.091C35.4938 37.2086 34.6292 39.8547 32.2452 42.2649C33.4765 41.9243 34.3149 41.6624 35.1532 41.4266C35.3628 41.5576 35.5986 41.7147 35.8082 41.8457C34.865 44.4656 33.9219 47.0854 33.0835 49.4433C33.4765 49.3123 34.2887 49.0241 35.127 48.7621C35.3366 48.9193 35.5462 49.1027 35.7558 49.2599C34.9174 51.7487 34.1053 54.2638 33.2931 56.674C33.6861 56.6216 34.4459 56.4906 35.3628 56.3596C35.2056 60.3418 34.4197 63.6428 30.4375 65.2933C28.9704 65.9221 28.8918 73.8864 30.3589 74.6199C34.7078 76.8468 39.2926 78.0257 44.4536 78.0257C44.4536 73.965 44.4012 70.0876 44.4798 66.2102C44.506 64.9003 44.1917 64.1668 42.8555 63.5904C39.5807 62.1233 37.9302 58.3507 38.821 54.8663C39.7117 55.1545 40.6025 55.4427 42.0434 55.9405C39.1616 53.3992 38.4018 50.6222 38.4804 47.295C39.6855 47.688 40.5763 47.9762 41.9648 48.4215C39.1616 45.9065 38.3494 43.1819 38.4804 39.8285C39.6331 40.1952 40.4977 40.4834 40.7335 40.562C39.8689 38.2042 38.8996 35.5581 37.904 32.9121C38.1398 32.7549 38.4018 32.5977 38.6376 32.4405C39.7117 32.8597 40.7859 33.2789 41.86 33.698C39.1616 31.4712 38.4018 28.5632 38.428 25.2098C42.646 25.7075 43.9559 28.7728 44.9252 32.5977C46.2875 27.3842 47.938 25.6027 51.3962 25.3932C51.4224 28.6418 50.5841 31.4974 47.9642 33.7242C49.0384 33.3051 50.1125 32.8859 51.2128 32.4667C51.4486 32.6501 51.7106 32.8335 51.9464 32.9907C50.9508 35.6105 49.9553 38.2304 49.0907 40.562C49.4575 40.4572 50.3745 40.1952 51.2652 39.9333C51.501 40.1166 51.7368 40.2738 51.9726 40.4572C50.9508 43.1033 49.9291 45.7493 49.0122 48.1072C49.3527 48.0024 50.2697 47.688 51.4486 47.295C51.4748 50.7008 50.715 53.4778 47.8856 55.9667C49.3265 55.4951 50.2959 55.2069 51.4486 54.8401C51.3962 59.5296 50.0339 62.9878 45.5802 64.324C45.5802 69.0135 45.5802 73.4934 45.5802 78.1567C47.1259 78.0257 48.5144 78.0519 49.8767 77.7899C51.7106 77.4493 53.5445 77.004 55.2998 76.4276C60.4608 74.7509 60.4346 74.7247 60.4346 69.4064C60.4346 68.7777 60.3822 68.1489 60.4346 67.5463C60.5394 66.3412 60.2251 65.6601 58.9413 65.0837C55.6665 63.5904 54.0684 60.0012 54.9854 55.7833C56.9503 57.3552 58.6794 58.7437 60.4346 60.1322C60.2775 59.3201 59.9893 58.1673 59.3081 57.853C55.4308 56.0715 54.5924 52.8229 54.5662 48.7883C55.6141 49.1027 56.5049 49.3647 57.8148 49.7576C55.1164 47.295 54.4352 44.5704 54.671 41.4004C55.7189 41.7147 56.5573 41.9767 56.7669 42.0291C55.9285 39.6451 55.0116 37.0514 54.0946 34.484C54.409 34.2744 54.6972 34.0386 55.0116 33.829C56.5835 34.8246 58.1554 35.8201 59.7535 36.8157C60.1203 37.392 60.5132 37.9684 60.88 38.5447C61.3254 38.1256 61.7708 37.7064 62.2161 37.2872C63.7094 35.9249 64.967 34.1696 68.0846 34.2482C67.0366 37.1562 66.0935 39.7237 65.229 42.0815C65.6743 41.9505 66.4865 41.7147 67.613 41.3742C67.3772 42.9199 67.3248 44.256 66.9318 45.4873C66.5389 46.771 65.8053 47.9762 65.1766 49.3385C65.9101 49.1813 66.5651 49.0503 67.2462 48.9193C67.744 53.1372 66.2769 55.8881 62.9497 57.7744C62.1899 58.2197 61.7708 59.2939 61.2206 60.0798C61.3254 60.106 61.4302 60.1322 61.535 60.1584C63.3165 58.7699 65.098 57.3814 67.22 55.7047C67.7178 60.761 66.3817 63.3022 62.6877 65.2933C62.2161 65.5553 61.5874 66.1054 61.5612 66.5246C61.4564 68.7253 61.5088 70.9521 61.5088 73.3624C72.5645 67.4678 80.3716 52.6919 76.5467 37.5492C72.6693 22.2232 57.7362 11.246 41.1002 13.1847C27.2413 14.7566 13.461 26.1267 12.3606 43.9678C11.6009 56.3596 19.3294 69.1706 28.394 73.1004C28.394 71.3189 28.3154 69.616 28.4202 67.9131C28.525 66.4198 28.1321 65.5815 26.6125 64.9003C23.3901 63.4594 21.8968 59.8178 22.9448 55.7571C24.9097 57.3814 26.6387 58.8485 28.394 60.2894C28.1845 59.2153 27.7129 58.1673 26.9269 57.722C23.5997 55.8619 22.1326 53.0848 22.6042 48.8931C23.2854 48.9979 23.9665 49.0765 24.2547 49.1289C23.4949 46.6662 22.7614 44.2036 21.8444 41.2694C23.4425 41.6886 24.2809 41.9243 25.4336 42.2387C23.102 39.8285 22.185 37.2348 22.578 33.4885C24.5953 34.9294 26.2458 36.1083 27.8963 37.3134C28.525 37.523 28.1321 39.9333 29.704 38.0732Z" fill="url(#paint0_linear_24_1057)"/>
<path d="M59.7534 36.7632C58.4173 33.2265 58.6007 29.8469 60.88 26.4673C63.6308 29.9779 63.4474 33.5408 62.2161 37.2086C61.7707 37.6278 61.3253 38.047 60.88 38.4661C60.5132 37.916 60.1202 37.3396 59.7534 36.7632Z" fill="black"/>
<path d="M59.7534 36.7632C58.4173 33.2265 58.6007 29.8469 60.88 26.4673C63.6308 29.9779 63.4474 33.5408 62.2161 37.2086C61.7707 37.6278 61.3253 38.047 60.88 38.4661C60.5132 37.916 60.1202 37.3396 59.7534 36.7632Z" fill="url(#paint1_linear_24_1057)"/>
<path d="M27.9224 37.2871C26.0623 32.7286 26.3243 29.7158 28.8918 26.5981C30.8566 29.4014 31.5116 32.3618 30.4375 35.6366C30.1755 36.4487 29.9397 37.2609 29.6777 38.073C28.132 39.9331 28.525 37.5229 27.9224 37.2871Z" fill="black"/>
<path d="M27.9224 37.2871C26.0623 32.7286 26.3243 29.7158 28.8918 26.5981C30.8566 29.4014 31.5116 32.3618 30.4375 35.6366C30.1755 36.4487 29.9397 37.2609 29.6777 38.073C28.132 39.9331 28.525 37.5229 27.9224 37.2871Z" fill="url(#paint2_linear_24_1057)"/>
<path d="M44.7944 17.6646C47.6762 21.5157 47.7024 25.917 44.9778 29.5062C42.1222 26.0742 42.0174 21.9873 44.7944 17.6646Z" fill="black"/>
<path d="M44.7944 17.6646C47.6762 21.5157 47.7024 25.917 44.9778 29.5062C42.1222 26.0742 42.0174 21.9873 44.7944 17.6646Z" fill="url(#paint3_linear_24_1057)"/>
<defs>
<linearGradient id="paint0_linear_24_1057" x1="-16.5981" y1="-3.5168e-05" x2="76.1707" y2="2.23662" gradientUnits="userSpaceOnUse">
<stop stop-color="#37DADA"/>
<stop offset="1" stop-color="#254DB5"/>
</linearGradient>
<linearGradient id="paint1_linear_24_1057" x1="58.1484" y1="26.4673" x2="62.4409" y2="26.5036" gradientUnits="userSpaceOnUse">
<stop stop-color="#37DADA"/>
<stop offset="1" stop-color="#254DB5"/>
</linearGradient>
<linearGradient id="paint2_linear_24_1057" x1="25.9323" y1="26.5981" x2="30.3067" y2="26.6353" gradientUnits="userSpaceOnUse">
<stop stop-color="#37DADA"/>
<stop offset="1" stop-color="#254DB5"/>
</linearGradient>
<linearGradient id="paint3_linear_24_1057" x1="41.9939" y1="17.6645" x2="46.3477" y2="17.7024" gradientUnits="userSpaceOnUse">
<stop stop-color="#37DADA"/>
<stop offset="1" stop-color="#254DB5"/>
</linearGradient>
</defs>
</svg>
