<svg width="69" height="91" viewBox="0 0 69 91" fill="none" xmlns="http://www.w3.org/2000/svg">
<path d="M9.06599 90.9763C6.5503 89.7898 7.19109 87.4644 7.11989 85.2813C6.21804 85.2813 5.33992 85.2813 4.4618 85.2813C2.56316 85.2813 1.44771 84.1424 1.44771 82.2441C1.44771 71.1152 1.44771 59.9864 1.44771 48.8576C1.44771 48.3118 1.40024 47.8847 0.901853 47.4813C0.213597 46.9355 0.023733 46.1288 0.023733 45.2508C0.023733 37.5626 0.023733 29.8508 0.023733 22.1626C0 17.7253 0 13.288 0 8.85075C0 6.8338 1.09172 5.71855 3.10902 5.71855C3.98714 5.71855 4.88899 5.71855 5.79084 5.71855C6.43163 3.15583 7.90308 1.32871 10.3713 0.427015C14.1448 -0.949257 18.2507 1.11515 19.461 4.98295C19.6509 5.5999 19.912 5.74228 20.5053 5.74228C26.842 5.71855 33.1787 5.74228 39.5154 5.71855C40.5359 5.71855 41.3428 6.05075 42.0311 6.78634C42.2447 7.02363 42.6956 7.14228 43.0279 7.14228C48.4865 7.16601 53.9213 7.16601 59.3799 7.16601C61.4446 7.16601 62.5364 8.25753 62.5601 10.3457C62.5601 11.1525 62.5601 11.9355 62.5601 12.8609C63.462 12.8609 64.2926 12.8609 65.147 12.8609C67.1168 12.8609 68.256 13.9762 68.256 15.9219C68.256 39.9355 68.256 63.9254 68.2797 87.939C68.2797 89.4576 67.4966 90.3356 66.3099 91C47.1811 90.9763 28.1236 90.9763 9.06599 90.9763ZM59.8308 69.7864C59.8308 69.2881 59.8308 68.9084 59.8308 68.5288C59.8308 53.5559 59.8308 38.583 59.8308 23.5864C59.8308 23.2542 59.8308 22.9457 59.8545 22.6135C59.902 21.8304 60.3767 21.427 61.1124 21.3559C61.8006 21.2847 62.4177 21.8304 62.5126 22.566C62.5364 22.8033 62.5364 23.0406 62.5364 23.2779C62.5364 38.6779 62.5364 54.0542 62.5601 69.4542C62.5601 70.9729 62.038 72.183 60.97 73.2508C57.4812 76.7152 53.9925 80.1796 50.5512 83.6678C49.4595 84.7593 48.2254 85.2813 46.6827 85.2576C34.7925 85.2339 22.8786 85.2339 10.9884 85.2339C10.6324 85.2339 10.3001 85.2339 9.92038 85.2339C9.92038 86.3017 9.92038 87.2508 9.92038 88.1763C28.5033 88.1763 47.015 88.1763 65.503 88.1763C65.503 63.9017 65.503 39.6982 65.503 15.5186C64.4825 15.5186 63.5569 15.5186 62.5601 15.5186C62.5601 15.9694 62.5601 16.3491 62.5601 16.7287C62.5364 17.7253 62.0617 18.2711 61.2548 18.2948C60.3767 18.3186 59.902 17.7728 59.8783 16.7287C59.8545 14.8542 59.8783 13.0033 59.8783 11.1287C59.8783 10.7016 59.8783 10.2745 59.8783 9.82364C54.0637 9.82364 48.3915 9.82364 42.6481 9.82364C42.6481 10.2508 42.6481 10.6304 42.6481 11.0101C42.6481 22.2338 42.6481 33.4576 42.6481 44.6576C42.6481 47.244 41.6514 48.2644 39.0407 48.2644C27.815 48.2644 16.5893 48.2644 5.38738 48.2644C5.00766 48.2644 4.62793 48.2644 4.22447 48.2644C4.22447 59.7491 4.22447 71.1152 4.22447 82.5288C18.5117 82.5288 32.7278 82.5288 47.0625 82.5288C47.0625 82.1729 47.0625 81.8407 47.0625 81.5322C47.0625 78.661 47.0625 75.7898 47.0625 72.9186C47.0625 72.0644 47.2049 71.2813 47.8219 70.6407C48.4627 69.9762 49.2459 69.7627 50.1478 69.7627C53.2805 69.8101 56.4845 69.7864 59.8308 69.7864ZM16.8029 5.71855C16.1384 3.63041 14.0736 2.37278 12.0563 2.75244C9.77798 3.20329 8.37774 4.86431 8.37774 7.28465C8.354 11.8643 8.37774 16.4677 8.37774 21.0474C8.37774 21.3796 8.4252 21.6881 8.47267 22.0203C8.8524 24.2508 10.7985 25.7457 13.1243 25.6033C15.2603 25.4609 17.0165 23.6101 17.0403 21.4033C17.064 19.5287 17.064 17.6779 17.0403 15.8033C17.0403 14.7592 16.4232 14.0711 15.5451 14.0711C14.6907 14.0711 14.0974 14.7355 14.0499 15.7321C14.0262 16.5864 14.0499 17.4406 14.0262 18.2948C14.0024 19.2203 13.5041 19.7423 12.6971 19.7186C11.9139 19.7186 11.3918 19.1728 11.3444 18.2711C11.3206 17.4643 11.3444 16.6813 11.3444 15.8745C11.3444 13.3118 13.1006 11.3897 15.4739 11.366C17.9184 11.3423 19.6984 13.1694 19.7458 15.827C19.7696 17.583 19.7696 19.3152 19.7458 21.0711C19.7458 21.6643 19.6984 22.2575 19.556 22.827C18.7016 26.5287 15.4739 28.7118 11.6766 28.2372C8.354 27.8338 5.71965 24.7491 5.71965 21.2372C5.69591 17.2745 5.71965 13.3118 5.71965 9.34906C5.71965 9.04058 5.71965 8.73211 5.71965 8.44736C4.62793 8.44736 3.70234 8.44736 2.77676 8.44736C2.77676 20.8338 2.77676 33.1728 2.77676 45.4644C15.1654 45.4644 27.5065 45.4644 39.8002 45.4644C39.8002 33.0779 39.8002 20.7389 39.8002 8.37618C39.373 8.37618 39.017 8.37618 38.661 8.37618C30.1409 8.37618 21.6207 8.37618 13.0769 8.37618C12.0326 8.37618 11.4156 7.87787 11.3918 7.07109C11.3681 6.24058 12.0089 5.71855 13.1006 5.69482C14.311 5.71855 15.5214 5.71855 16.8029 5.71855ZM49.768 72.5152C49.768 75.1729 49.768 77.783 49.768 80.2508C52.3312 77.6881 54.9418 75.0779 57.505 72.5152C55.0368 72.5152 52.4499 72.5152 49.768 72.5152Z" fill="black"/>
<path d="M9.06599 90.9763C6.5503 89.7898 7.19109 87.4644 7.11989 85.2813C6.21804 85.2813 5.33992 85.2813 4.4618 85.2813C2.56316 85.2813 1.44771 84.1424 1.44771 82.2441C1.44771 71.1152 1.44771 59.9864 1.44771 48.8576C1.44771 48.3118 1.40024 47.8847 0.901853 47.4813C0.213597 46.9355 0.023733 46.1288 0.023733 45.2508C0.023733 37.5626 0.023733 29.8508 0.023733 22.1626C0 17.7253 0 13.288 0 8.85075C0 6.8338 1.09172 5.71855 3.10902 5.71855C3.98714 5.71855 4.88899 5.71855 5.79084 5.71855C6.43163 3.15583 7.90308 1.32871 10.3713 0.427015C14.1448 -0.949257 18.2507 1.11515 19.461 4.98295C19.6509 5.5999 19.912 5.74228 20.5053 5.74228C26.842 5.71855 33.1787 5.74228 39.5154 5.71855C40.5359 5.71855 41.3428 6.05075 42.0311 6.78634C42.2447 7.02363 42.6956 7.14228 43.0279 7.14228C48.4865 7.16601 53.9213 7.16601 59.3799 7.16601C61.4446 7.16601 62.5364 8.25753 62.5601 10.3457C62.5601 11.1525 62.5601 11.9355 62.5601 12.8609C63.462 12.8609 64.2926 12.8609 65.147 12.8609C67.1168 12.8609 68.256 13.9762 68.256 15.9219C68.256 39.9355 68.256 63.9254 68.2797 87.939C68.2797 89.4576 67.4966 90.3356 66.3099 91C47.1811 90.9763 28.1236 90.9763 9.06599 90.9763ZM59.8308 69.7864C59.8308 69.2881 59.8308 68.9084 59.8308 68.5288C59.8308 53.5559 59.8308 38.583 59.8308 23.5864C59.8308 23.2542 59.8308 22.9457 59.8545 22.6135C59.902 21.8304 60.3767 21.427 61.1124 21.3559C61.8006 21.2847 62.4177 21.8304 62.5126 22.566C62.5364 22.8033 62.5364 23.0406 62.5364 23.2779C62.5364 38.6779 62.5364 54.0542 62.5601 69.4542C62.5601 70.9729 62.038 72.183 60.97 73.2508C57.4812 76.7152 53.9925 80.1796 50.5512 83.6678C49.4595 84.7593 48.2254 85.2813 46.6827 85.2576C34.7925 85.2339 22.8786 85.2339 10.9884 85.2339C10.6324 85.2339 10.3001 85.2339 9.92038 85.2339C9.92038 86.3017 9.92038 87.2508 9.92038 88.1763C28.5033 88.1763 47.015 88.1763 65.503 88.1763C65.503 63.9017 65.503 39.6982 65.503 15.5186C64.4825 15.5186 63.5569 15.5186 62.5601 15.5186C62.5601 15.9694 62.5601 16.3491 62.5601 16.7287C62.5364 17.7253 62.0617 18.2711 61.2548 18.2948C60.3767 18.3186 59.902 17.7728 59.8783 16.7287C59.8545 14.8542 59.8783 13.0033 59.8783 11.1287C59.8783 10.7016 59.8783 10.2745 59.8783 9.82364C54.0637 9.82364 48.3915 9.82364 42.6481 9.82364C42.6481 10.2508 42.6481 10.6304 42.6481 11.0101C42.6481 22.2338 42.6481 33.4576 42.6481 44.6576C42.6481 47.244 41.6514 48.2644 39.0407 48.2644C27.815 48.2644 16.5893 48.2644 5.38738 48.2644C5.00766 48.2644 4.62793 48.2644 4.22447 48.2644C4.22447 59.7491 4.22447 71.1152 4.22447 82.5288C18.5117 82.5288 32.7278 82.5288 47.0625 82.5288C47.0625 82.1729 47.0625 81.8407 47.0625 81.5322C47.0625 78.661 47.0625 75.7898 47.0625 72.9186C47.0625 72.0644 47.2049 71.2813 47.8219 70.6407C48.4627 69.9762 49.2459 69.7627 50.1478 69.7627C53.2805 69.8101 56.4845 69.7864 59.8308 69.7864ZM16.8029 5.71855C16.1384 3.63041 14.0736 2.37278 12.0563 2.75244C9.77798 3.20329 8.37774 4.86431 8.37774 7.28465C8.354 11.8643 8.37774 16.4677 8.37774 21.0474C8.37774 21.3796 8.4252 21.6881 8.47267 22.0203C8.8524 24.2508 10.7985 25.7457 13.1243 25.6033C15.2603 25.4609 17.0165 23.6101 17.0403 21.4033C17.064 19.5287 17.064 17.6779 17.0403 15.8033C17.0403 14.7592 16.4232 14.0711 15.5451 14.0711C14.6907 14.0711 14.0974 14.7355 14.0499 15.7321C14.0262 16.5864 14.0499 17.4406 14.0262 18.2948C14.0024 19.2203 13.5041 19.7423 12.6971 19.7186C11.9139 19.7186 11.3918 19.1728 11.3444 18.2711C11.3206 17.4643 11.3444 16.6813 11.3444 15.8745C11.3444 13.3118 13.1006 11.3897 15.4739 11.366C17.9184 11.3423 19.6984 13.1694 19.7458 15.827C19.7696 17.583 19.7696 19.3152 19.7458 21.0711C19.7458 21.6643 19.6984 22.2575 19.556 22.827C18.7016 26.5287 15.4739 28.7118 11.6766 28.2372C8.354 27.8338 5.71965 24.7491 5.71965 21.2372C5.69591 17.2745 5.71965 13.3118 5.71965 9.34906C5.71965 9.04058 5.71965 8.73211 5.71965 8.44736C4.62793 8.44736 3.70234 8.44736 2.77676 8.44736C2.77676 20.8338 2.77676 33.1728 2.77676 45.4644C15.1654 45.4644 27.5065 45.4644 39.8002 45.4644C39.8002 33.0779 39.8002 20.7389 39.8002 8.37618C39.373 8.37618 39.017 8.37618 38.661 8.37618C30.1409 8.37618 21.6207 8.37618 13.0769 8.37618C12.0326 8.37618 11.4156 7.87787 11.3918 7.07109C11.3681 6.24058 12.0089 5.71855 13.1006 5.69482C14.311 5.71855 15.5214 5.71855 16.8029 5.71855ZM49.768 72.5152C49.768 75.1729 49.768 77.783 49.768 80.2508C52.3312 77.6881 54.9418 75.0779 57.505 72.5152C55.0368 72.5152 52.4499 72.5152 49.768 72.5152Z" fill="url(#paint0_linear_28_1082)"/>
<path d="M36.9523 55.4066C32.0159 55.4066 27.0794 55.4066 22.1429 55.4066C21.8819 55.4066 21.5971 55.4303 21.336 55.4066C20.5291 55.3354 19.9595 54.7659 19.9358 54.054C19.912 53.3421 20.4816 52.7727 21.2886 52.7015C21.5496 52.6777 21.8107 52.6777 22.0955 52.6777C32.0159 52.6777 41.9125 52.6777 51.8329 52.6777C52.0702 52.6777 52.3075 52.6777 52.5449 52.6777C53.423 52.7489 53.9926 53.3184 53.9926 54.054C53.9688 54.7896 53.3755 55.3828 52.4974 55.3828C50.4089 55.4065 48.2967 55.3828 46.2082 55.3828C43.0991 55.4065 40.0139 55.4066 36.9523 55.4066Z" fill="black"/>
<path d="M36.9523 55.4066C32.0159 55.4066 27.0794 55.4066 22.1429 55.4066C21.8819 55.4066 21.5971 55.4303 21.336 55.4066C20.5291 55.3354 19.9595 54.7659 19.9358 54.054C19.912 53.3421 20.4816 52.7727 21.2886 52.7015C21.5496 52.6777 21.8107 52.6777 22.0955 52.6777C32.0159 52.6777 41.9125 52.6777 51.8329 52.6777C52.0702 52.6777 52.3075 52.6777 52.5449 52.6777C53.423 52.7489 53.9926 53.3184 53.9926 54.054C53.9688 54.7896 53.3755 55.3828 52.4974 55.3828C50.4089 55.4065 48.2967 55.3828 46.2082 55.3828C43.0991 55.4065 40.0139 55.4066 36.9523 55.4066Z" fill="url(#paint1_linear_28_1082)"/>
<path d="M36.9284 62.5254C31.897 62.5254 26.8656 62.5254 21.8342 62.5254C21.4782 62.5254 21.0273 62.5729 20.8137 62.383C20.4339 62.0508 20.0067 61.5525 19.9593 61.0779C19.8881 60.461 20.339 59.9864 21.0273 59.8678C21.3358 59.8203 21.6681 59.8203 22.0003 59.8203C31.9682 59.8203 41.936 59.8203 51.9038 59.8203C53.2804 59.8203 53.9924 60.2949 53.9449 61.2203C53.9212 62.0983 53.2329 62.5491 51.9038 62.5491C46.9437 62.5254 41.936 62.5254 36.9284 62.5254Z" fill="black"/>
<path d="M36.9284 62.5254C31.897 62.5254 26.8656 62.5254 21.8342 62.5254C21.4782 62.5254 21.0273 62.5729 20.8137 62.383C20.4339 62.0508 20.0067 61.5525 19.9593 61.0779C19.8881 60.461 20.339 59.9864 21.0273 59.8678C21.3358 59.8203 21.6681 59.8203 22.0003 59.8203C31.9682 59.8203 41.936 59.8203 51.9038 59.8203C53.2804 59.8203 53.9924 60.2949 53.9449 61.2203C53.9212 62.0983 53.2329 62.5491 51.9038 62.5491C46.9437 62.5254 41.936 62.5254 36.9284 62.5254Z" fill="url(#paint2_linear_28_1082)"/>
<path d="M31.2565 69.6444C28.1 69.6444 24.9198 69.6444 21.7633 69.6444C21.3835 69.6444 20.8852 69.6444 20.6716 69.4308C20.3393 69.0986 19.9358 68.5291 20.007 68.1495C20.102 67.7224 20.6241 67.319 21.0513 67.0342C21.2886 66.8681 21.6921 66.963 22.0006 66.963C28.1474 66.963 34.318 66.963 40.4649 66.963C41.8888 66.963 42.5534 67.3901 42.5771 68.2918C42.5771 69.1935 41.8888 69.6444 40.4886 69.6444C37.427 69.6444 34.3417 69.6444 31.2565 69.6444Z" fill="black"/>
<path d="M31.2565 69.6444C28.1 69.6444 24.9198 69.6444 21.7633 69.6444C21.3835 69.6444 20.8852 69.6444 20.6716 69.4308C20.3393 69.0986 19.9358 68.5291 20.007 68.1495C20.102 67.7224 20.6241 67.319 21.0513 67.0342C21.2886 66.8681 21.6921 66.963 22.0006 66.963C28.1474 66.963 34.318 66.963 40.4649 66.963C41.8888 66.963 42.5534 67.3901 42.5771 68.2918C42.5771 69.1935 41.8888 69.6444 40.4886 69.6444C37.427 69.6444 34.3417 69.6444 31.2565 69.6444Z" fill="url(#paint3_linear_28_1082)"/>
<path d="M51.2633 39.8644C51.7142 39.8644 52.1414 39.8406 52.5923 39.8644C53.3993 39.9355 53.9926 40.505 53.9689 41.2169C53.9214 41.9999 53.4705 42.4983 52.6873 42.5457C51.6905 42.6169 50.67 42.6169 49.6732 42.5457C48.89 42.4983 48.4391 41.9999 48.4628 41.1694C48.4865 40.3389 49.0087 39.9355 49.7681 39.8644C50.2428 39.8169 50.7649 39.8644 51.2633 39.8644Z" fill="black"/>
<path d="M51.2633 39.8644C51.7142 39.8644 52.1414 39.8406 52.5923 39.8644C53.3993 39.9355 53.9926 40.505 53.9689 41.2169C53.9214 41.9999 53.4705 42.4983 52.6873 42.5457C51.6905 42.6169 50.67 42.6169 49.6732 42.5457C48.89 42.4983 48.4391 41.9999 48.4628 41.1694C48.4865 40.3389 49.0087 39.9355 49.7681 39.8644C50.2428 39.8169 50.7649 39.8644 51.2633 39.8644Z" fill="url(#paint4_linear_28_1082)"/>
<path d="M12.6973 55.4069C12.2464 55.4069 11.8192 55.4306 11.3683 55.4069C10.5376 55.3357 9.99176 54.7899 9.96803 54.0781C9.9443 53.3662 10.4902 52.773 11.3208 52.7255C12.2701 52.6781 13.2194 52.6781 14.1688 52.7255C15.0232 52.773 15.4978 53.3188 15.4978 54.0781C15.4978 54.8374 14.9757 55.3594 14.1213 55.4069C13.6466 55.4306 13.172 55.4069 12.6973 55.4069Z" fill="black"/>
<path d="M12.6973 55.4069C12.2464 55.4069 11.8192 55.4306 11.3683 55.4069C10.5376 55.3357 9.99176 54.7899 9.96803 54.0781C9.9443 53.3662 10.4902 52.773 11.3208 52.7255C12.2701 52.6781 13.2194 52.6781 14.1688 52.7255C15.0232 52.773 15.4978 53.3188 15.4978 54.0781C15.4978 54.8374 14.9757 55.3594 14.1213 55.4069C13.6466 55.4306 13.172 55.4069 12.6973 55.4069Z" fill="url(#paint5_linear_28_1082)"/>
<path d="M51.2158 32.7457C51.6904 32.7457 52.1651 32.6982 52.6397 32.7457C53.4229 32.8169 53.8976 33.2677 53.9688 34.0508C54.04 34.7152 53.4941 35.3559 52.7347 35.4033C51.7142 35.4745 50.6699 35.4508 49.6257 35.4033C48.8662 35.3559 48.4627 34.8576 48.439 34.0982C48.4153 33.3864 48.9374 32.8169 49.6969 32.7457C50.219 32.722 50.7174 32.7457 51.2158 32.7457Z" fill="black"/>
<path d="M51.2158 32.7457C51.6904 32.7457 52.1651 32.6982 52.6397 32.7457C53.4229 32.8169 53.8976 33.2677 53.9688 34.0508C54.04 34.7152 53.4941 35.3559 52.7347 35.4033C51.7142 35.4745 50.6699 35.4508 49.6257 35.4033C48.8662 35.3559 48.4627 34.8576 48.439 34.0982C48.4153 33.3864 48.9374 32.8169 49.6969 32.7457C50.219 32.722 50.7174 32.7457 51.2158 32.7457Z" fill="url(#paint6_linear_28_1082)"/>
<path d="M12.7445 69.62C12.2461 69.62 11.7477 69.6437 11.2494 69.62C10.5136 69.5488 9.96777 68.9556 9.96777 68.2674C9.96777 67.5793 10.4899 66.9861 11.2494 66.9624C12.2461 66.9149 13.2667 66.9149 14.2634 66.9624C15.0229 67.0098 15.4264 67.4844 15.4738 68.22C15.4976 68.9318 14.9992 69.5251 14.2634 69.5962C13.765 69.6674 13.2667 69.62 12.7445 69.62Z" fill="black"/>
<path d="M12.7445 69.62C12.2461 69.62 11.7477 69.6437 11.2494 69.62C10.5136 69.5488 9.96777 68.9556 9.96777 68.2674C9.96777 67.5793 10.4899 66.9861 11.2494 66.9624C12.2461 66.9149 13.2667 66.9149 14.2634 66.9624C15.0229 67.0098 15.4264 67.4844 15.4738 68.22C15.4976 68.9318 14.9992 69.5251 14.2634 69.5962C13.765 69.6674 13.2667 69.62 12.7445 69.62Z" fill="url(#paint7_linear_28_1082)"/>
<path d="M51.1448 21.1897C50.6701 21.1897 50.1954 21.2134 49.7208 21.1897C48.9139 21.1422 48.4392 20.6439 48.4392 19.8846C48.4392 19.1253 48.8664 18.6032 49.6021 18.5558C50.6701 18.4609 51.7381 18.4846 52.7823 18.5558C53.5181 18.6032 53.9215 19.149 53.9453 19.8846C53.969 20.5727 53.3994 21.1185 52.6399 21.1897C52.5925 21.1897 52.5213 21.1897 52.4738 21.1897C52.0466 21.1897 51.5957 21.1897 51.1448 21.1897Z" fill="black"/>
<path d="M51.1448 21.1897C50.6701 21.1897 50.1954 21.2134 49.7208 21.1897C48.9139 21.1422 48.4392 20.6439 48.4392 19.8846C48.4392 19.1253 48.8664 18.6032 49.6021 18.5558C50.6701 18.4609 51.7381 18.4846 52.7823 18.5558C53.5181 18.6032 53.9215 19.149 53.9453 19.8846C53.969 20.5727 53.3994 21.1185 52.6399 21.1897C52.5925 21.1897 52.5213 21.1897 52.4738 21.1897C52.0466 21.1897 51.5957 21.1897 51.1448 21.1897Z" fill="url(#paint8_linear_28_1082)"/>
<path d="M51.1209 28.3089C50.6462 28.3089 50.1716 28.3326 49.6969 28.3089C48.9374 28.2614 48.5102 27.8343 48.439 27.075C48.3916 26.3631 48.8662 25.7224 49.6257 25.675C50.6462 25.6038 51.6905 25.6038 52.7347 25.675C53.4704 25.7224 53.9926 26.3868 53.9688 27.0512C53.9451 27.7394 53.3992 28.2614 52.616 28.3089C52.1177 28.3326 51.6193 28.3089 51.1209 28.3089Z" fill="black"/>
<path d="M51.1209 28.3089C50.6462 28.3089 50.1716 28.3326 49.6969 28.3089C48.9374 28.2614 48.5102 27.8343 48.439 27.075C48.3916 26.3631 48.8662 25.7224 49.6257 25.675C50.6462 25.6038 51.6905 25.6038 52.7347 25.675C53.4704 25.7224 53.9926 26.3868 53.9688 27.0512C53.9451 27.7394 53.3992 28.2614 52.616 28.3089C52.1177 28.3326 51.6193 28.3089 51.1209 28.3089Z" fill="url(#paint9_linear_28_1082)"/>
<path d="M12.7207 62.5253C12.2461 62.5253 11.7714 62.549 11.2968 62.5253C10.4898 62.4541 9.89651 61.8608 9.96771 61.149C10.0389 60.3659 10.4898 59.8914 11.273 59.8676C12.2461 59.8202 13.2191 59.8202 14.1922 59.8676C14.9754 59.9151 15.45 60.3659 15.4738 61.1727C15.4975 61.932 14.9754 62.4778 14.1447 62.5253C13.67 62.549 13.1954 62.5253 12.7207 62.5253Z" fill="black"/>
<path d="M12.7207 62.5253C12.2461 62.5253 11.7714 62.549 11.2968 62.5253C10.4898 62.4541 9.89651 61.8608 9.96771 61.149C10.0389 60.3659 10.4898 59.8914 11.273 59.8676C12.2461 59.8202 13.2191 59.8202 14.1922 59.8676C14.9754 59.9151 15.45 60.3659 15.4738 61.1727C15.4975 61.932 14.9754 62.4778 14.1447 62.5253C13.67 62.549 13.1954 62.5253 12.7207 62.5253Z" fill="url(#paint10_linear_28_1082)"/>
<path d="M21.4071 32.7457C24.9908 32.7457 28.5745 32.7457 32.1582 32.7457C32.4667 32.7457 32.8939 32.6982 33.1075 32.8643C33.4872 33.2203 33.9144 33.6711 34.0093 34.122C34.1043 34.7389 33.6771 35.2372 32.9888 35.3796C32.6328 35.4508 32.2768 35.4508 31.9208 35.4508C24.8484 35.4508 17.776 35.4508 10.7036 35.4508C10.4662 35.4508 10.2289 35.4508 9.99159 35.4271C9.11347 35.3321 8.54388 34.7864 8.56761 34.0508C8.59134 33.2915 9.18467 32.7457 10.0628 32.722C11.819 32.6982 13.5515 32.722 15.3078 32.722C17.3251 32.7457 19.3661 32.7457 21.4071 32.7457Z" fill="black"/>
<path d="M21.4071 32.7457C24.9908 32.7457 28.5745 32.7457 32.1582 32.7457C32.4667 32.7457 32.8939 32.6982 33.1075 32.8643C33.4872 33.2203 33.9144 33.6711 34.0093 34.122C34.1043 34.7389 33.6771 35.2372 32.9888 35.3796C32.6328 35.4508 32.2768 35.4508 31.9208 35.4508C24.8484 35.4508 17.776 35.4508 10.7036 35.4508C10.4662 35.4508 10.2289 35.4508 9.99159 35.4271C9.11347 35.3321 8.54388 34.7864 8.56761 34.0508C8.59134 33.2915 9.18467 32.7457 10.0628 32.722C11.819 32.6982 13.5515 32.722 15.3078 32.722C17.3251 32.7457 19.3661 32.7457 21.4071 32.7457Z" fill="url(#paint11_linear_28_1082)"/>
<path d="M29.0967 28.3085C28.0049 28.3085 26.9132 28.3323 25.8215 28.3085C24.8247 28.2848 24.1839 27.739 24.2077 26.956C24.2314 26.1967 24.8485 25.6272 25.7978 25.6272C28.0287 25.6034 30.2833 25.6034 32.5142 25.6272C33.4398 25.6272 34.0568 26.2441 34.0331 27.0034C34.0094 27.7628 33.4635 28.2848 32.5379 28.3085C31.3988 28.3323 30.2358 28.3085 29.0967 28.3085Z" fill="black"/>
<path d="M29.0967 28.3085C28.0049 28.3085 26.9132 28.3323 25.8215 28.3085C24.8247 28.2848 24.1839 27.739 24.2077 26.956C24.2314 26.1967 24.8485 25.6272 25.7978 25.6272C28.0287 25.6034 30.2833 25.6034 32.5142 25.6272C33.4398 25.6272 34.0568 26.2441 34.0331 27.0034C34.0094 27.7628 33.4635 28.2848 32.5379 28.3085C31.3988 28.3323 30.2358 28.3085 29.0967 28.3085Z" fill="url(#paint12_linear_28_1082)"/>
<path d="M29.1204 21.1896C27.9812 21.1896 26.8183 21.2133 25.6791 21.1896C24.801 21.1659 24.2077 20.5964 24.2314 19.8608C24.2314 19.1252 24.8485 18.532 25.7028 18.532C28.0049 18.5082 30.307 18.5082 32.6091 18.532C33.4635 18.532 34.0568 19.1252 34.0568 19.8845C34.0568 20.6438 33.4873 21.1896 32.5854 21.1896C31.4225 21.2133 30.2596 21.1896 29.1204 21.1896Z" fill="black"/>
<path d="M29.1204 21.1896C27.9812 21.1896 26.8183 21.2133 25.6791 21.1896C24.801 21.1659 24.2077 20.5964 24.2314 19.8608C24.2314 19.1252 24.8485 18.532 25.7028 18.532C28.0049 18.5082 30.307 18.5082 32.6091 18.532C33.4635 18.532 34.0568 19.1252 34.0568 19.8845C34.0568 20.6438 33.4873 21.1896 32.5854 21.1896C31.4225 21.2133 30.2596 21.1896 29.1204 21.1896Z" fill="url(#paint13_linear_28_1082)"/>
<defs>
<linearGradient id="paint0_linear_28_1082" x1="-12.6072" y1="-3.5168e-05" x2="57.8732" y2="1.29066" gradientUnits="userSpaceOnUse">
<stop stop-color="#37DADA"/>
<stop offset="1" stop-color="#254DB5"/>
</linearGradient>
<linearGradient id="paint1_linear_28_1082" x1="13.6467" y1="52.6777" x2="45.8487" y2="62.449" gradientUnits="userSpaceOnUse">
<stop stop-color="#37DADA"/>
<stop offset="1" stop-color="#254DB5"/>
</linearGradient>
<linearGradient id="paint2_linear_28_1082" x1="13.675" y1="59.8203" x2="45.8071" y2="69.5902" gradientUnits="userSpaceOnUse">
<stop stop-color="#37DADA"/>
<stop offset="1" stop-color="#254DB5"/>
</linearGradient>
<linearGradient id="paint3_linear_28_1082" x1="15.8299" y1="66.936" x2="38.2169" y2="71.491" gradientUnits="userSpaceOnUse">
<stop stop-color="#37DADA"/>
<stop offset="1" stop-color="#254DB5"/>
</linearGradient>
<linearGradient id="paint4_linear_28_1082" x1="47.445" y1="39.8433" x2="53.1185" y2="40.12" gradientUnits="userSpaceOnUse">
<stop stop-color="#37DADA"/>
<stop offset="1" stop-color="#254DB5"/>
</linearGradient>
<linearGradient id="paint5_linear_28_1082" x1="8.94613" y1="52.6899" x2="14.6429" y2="52.9719" gradientUnits="userSpaceOnUse">
<stop stop-color="#37DADA"/>
<stop offset="1" stop-color="#254DB5"/>
</linearGradient>
<linearGradient id="paint6_linear_28_1082" x1="47.4159" y1="32.7246" x2="53.119" y2="33.0076" gradientUnits="userSpaceOnUse">
<stop stop-color="#37DADA"/>
<stop offset="1" stop-color="#254DB5"/>
</linearGradient>
<linearGradient id="paint7_linear_28_1082" x1="8.95098" y1="66.9268" x2="14.6233" y2="67.2082" gradientUnits="userSpaceOnUse">
<stop stop-color="#37DADA"/>
<stop offset="1" stop-color="#254DB5"/>
</linearGradient>
<linearGradient id="paint8_linear_28_1082" x1="47.4224" y1="18.4932" x2="53.0946" y2="18.7748" gradientUnits="userSpaceOnUse">
<stop stop-color="#37DADA"/>
<stop offset="1" stop-color="#254DB5"/>
</linearGradient>
<linearGradient id="paint9_linear_28_1082" x1="47.414" y1="25.6216" x2="53.1138" y2="25.9069" gradientUnits="userSpaceOnUse">
<stop stop-color="#37DADA"/>
<stop offset="1" stop-color="#254DB5"/>
</linearGradient>
<linearGradient id="paint10_linear_28_1082" x1="8.94406" y1="59.832" x2="14.6222" y2="60.1146" gradientUnits="userSpaceOnUse">
<stop stop-color="#37DADA"/>
<stop offset="1" stop-color="#254DB5"/>
</linearGradient>
<linearGradient id="paint11_linear_28_1082" x1="3.86676" y1="32.7114" x2="28.8657" y2="38.3811" gradientUnits="userSpaceOnUse">
<stop stop-color="#37DADA"/>
<stop offset="1" stop-color="#254DB5"/>
</linearGradient>
<linearGradient id="paint12_linear_28_1082" x1="22.3926" y1="25.6094" x2="32.4606" y2="26.5005" gradientUnits="userSpaceOnUse">
<stop stop-color="#37DADA"/>
<stop offset="1" stop-color="#254DB5"/>
</linearGradient>
<linearGradient id="paint13_linear_28_1082" x1="22.4164" y1="18.5142" x2="32.4824" y2="19.4129" gradientUnits="userSpaceOnUse">
<stop stop-color="#37DADA"/>
<stop offset="1" stop-color="#254DB5"/>
</linearGradient>
</defs>
</svg>
