<svg width="90" height="91" viewBox="0 0 90 91" fill="none" xmlns="http://www.w3.org/2000/svg">
<path d="M33.1041 11.8697C37.422 18.0409 41.6806 24.1134 46.0379 30.3634C50.3754 24.1725 54.6341 18.0803 58.9913 11.8697C58.1633 11.2782 57.3746 10.7262 56.586 10.1544C55.5607 9.42493 55.2847 8.79402 55.6396 7.63077C56.2311 5.61973 56.862 3.6087 57.4929 1.61737C58.0252 -0.0387757 59.1885 -0.452813 60.5883 0.513274C64.4132 3.17494 68.2382 5.83661 72.0631 8.51799C73.4038 9.46437 73.4432 10.7656 72.1617 11.7514C70.5252 13.0133 68.8691 14.2554 67.2129 15.4975C66.0891 16.3453 65.5173 16.3453 64.3541 15.5763C63.5655 15.044 62.7965 14.5117 61.9487 13.9202C60.3715 16.1678 58.8139 18.376 57.276 20.5645C54.4369 24.626 51.5978 28.6875 48.739 32.749C48.4038 33.2419 48.2855 33.5574 48.6798 34.1094C52.1893 39.0779 55.6593 44.0661 59.1688 49.0148C59.3462 49.2711 59.8588 49.488 60.1743 49.4288C63.3289 48.7979 65.6948 49.9414 67.489 52.5045C68.1593 53.4706 68.8494 54.417 69.5591 55.4619C70.9984 54.4367 72.3785 53.4903 73.739 52.5242C75.1979 51.4793 76.0654 51.637 77.1104 53.1157C80.4227 57.8476 83.6758 62.6386 87.0867 67.2916C92.1932 74.2908 90.1624 83.7545 83.1829 88.0131C76.7752 91.9169 68.5339 90.2016 64.1372 83.9714C60.6869 79.0818 57.276 74.1922 53.8454 69.2829C52.8991 67.9225 53.0371 67.0353 54.4172 66.0495C55.7973 65.0637 57.1972 64.0976 58.6759 63.0526C57.9464 62.0077 57.276 61.0021 56.586 60.0361C54.7721 57.473 54.5947 54.8507 56.2705 52.1299C56.4085 51.913 56.448 51.4793 56.31 51.2821C52.9385 46.432 49.5473 41.5818 46.0576 36.5937C42.5087 41.6607 39.0387 46.6291 35.7264 51.3413C36.1799 52.8594 36.6925 54.1212 36.9093 55.4422C37.1657 57.0195 36.6333 58.4785 35.687 59.7995C34.9377 60.8444 34.228 61.8894 33.5773 62.816C34.4843 63.9793 35.5095 64.9848 36.1404 66.2072C37.2051 68.2577 37.2051 70.4659 35.9433 72.4177C33.6562 75.9469 31.2114 79.3578 28.806 82.8081C27.1499 85.174 25.5135 87.5597 23.7982 89.8862C23.4236 90.3988 22.7729 90.8917 22.1814 90.9903C21.7083 91.0691 20.8802 90.6551 20.6633 90.2214C20.3873 89.7087 20.3873 88.8412 20.6436 88.3286C21.1562 87.2837 21.9449 86.357 22.6152 85.3909C25.8684 80.7379 29.1412 76.0849 32.3944 71.4319C33.7745 69.4603 33.4788 67.5676 31.5269 66.1283C31.0734 65.7931 30.6002 65.4974 30.1665 65.1622C29.0426 64.3539 28.8455 63.4272 29.5947 62.2837C30.5411 60.8641 31.586 59.5037 32.5127 58.0645C32.8873 57.473 33.2224 56.7829 33.321 56.1126C33.5182 54.7127 32.769 53.5692 31.5071 53.0566C30.3045 52.5637 28.9046 52.9383 28.0371 53.9635C27.8991 54.141 27.7611 54.3381 27.6231 54.5156C26.9527 55.4816 26.2627 56.4477 25.5923 57.3941C25.6712 57.5321 25.7106 57.6307 25.7698 57.6898C26.657 58.7545 26.7556 59.622 26.0458 60.3909C25.3952 61.1204 24.4488 61.1204 23.3841 60.3909C22.3195 59.6615 21.2942 58.9122 20.2296 58.1828C18.3368 56.8815 16.4046 57.1969 15.0837 59.07C11.2982 64.5116 7.5127 69.9138 3.72721 75.316C3.51034 75.6315 3.27375 75.9666 2.99772 76.2427C2.32737 76.913 1.47958 76.9919 0.769805 76.5187C0.040311 76.0258 -0.215998 75.0991 0.19804 74.2513C0.3952 73.8373 0.671225 73.4627 0.927534 73.0881C4.59472 67.8436 8.28162 62.5991 11.9488 57.3547C13.7627 54.7522 16.1878 53.4312 19.3818 54.0227C20.4859 54.2198 21.5111 54.831 22.7138 55.3042C23.3447 54.417 24.0545 53.4115 24.7643 52.4059C26.243 50.2963 28.2737 48.9753 30.8565 49.3697C32.4535 49.6063 33.0844 48.9951 33.8534 47.8713C37.0079 43.2577 40.2414 38.7033 43.4551 34.1489C43.7508 33.7348 43.8691 33.4194 43.5339 32.9265C39.157 26.6962 34.78 20.4462 30.403 14.2159C30.3439 14.1371 30.265 14.0779 30.1467 13.9596C29.3384 14.5117 28.5497 15.0637 27.7414 15.6158C26.657 16.3453 26.0852 16.3453 25.0403 15.5763C23.3447 14.3342 21.6688 13.0724 20.0127 11.7711C18.672 10.7262 18.7311 9.46437 20.131 8.47856C23.8573 5.85633 27.6034 3.23409 31.3494 0.63157C32.9859 -0.511961 34.1688 -0.078208 34.7406 1.85397C35.2926 3.74671 35.9038 5.61973 36.4559 7.49276C36.8502 8.83345 36.6333 9.3855 35.4898 10.1741C34.7011 10.7262 33.9717 11.2585 33.1041 11.8697ZM74.9022 56.2703C74.7839 56.29 74.705 56.29 74.6459 56.3294C72.7334 57.6504 70.821 58.9911 68.9085 60.3121C67.7058 61.1402 66.7792 61.1993 66.0694 60.4501C65.3596 59.7009 65.4582 58.7742 66.3651 57.6701C66.4046 57.6307 66.4243 57.5518 66.4834 57.3941C65.6554 56.2309 64.8667 54.9888 63.9203 53.8649C63.1514 52.958 62.0868 52.6228 60.8841 52.9974C58.7745 53.6481 58.045 55.8563 59.3265 57.7687C60.2532 59.1488 61.2587 60.5092 62.2051 61.8894C63.3486 63.5455 63.1711 64.3539 61.5347 65.4777C60.194 66.4044 58.873 67.3507 57.4732 68.3365C60.9038 73.2064 64.1569 78.0565 67.6861 82.7095C69.9929 85.7458 73.3446 86.9682 77.1301 86.4556C85.0757 85.3909 88.9203 76.6173 84.425 69.8744C82.9266 67.6465 81.3691 65.4383 79.8115 63.2498C78.1948 60.9036 76.5386 58.5771 74.9022 56.2703ZM23.877 10.2333C24.646 10.8248 25.2374 11.3374 25.9078 11.7317C26.1838 11.8894 26.7359 11.8894 26.9922 11.7317C28.7666 10.5487 30.5016 9.32635 32.2366 8.06453C32.4338 7.92651 32.631 7.53219 32.5915 7.2956C32.3944 6.44781 32.0986 5.63945 31.7832 4.69308C29.1018 6.5661 26.5781 8.34055 23.877 10.2333ZM60.332 4.71279C60.0363 5.65917 59.7405 6.48724 59.5237 7.31531C59.4645 7.51248 59.6222 7.88708 59.7997 8.02509C61.5741 9.30664 63.3683 10.5685 65.1822 11.7909C65.3596 11.9092 65.7342 12.0275 65.8722 11.9486C66.6412 11.436 67.3707 10.8642 68.2185 10.2333C65.5173 8.34055 62.9937 6.5661 60.332 4.71279Z" fill="black"/>
<path d="M33.1041 11.8697C37.422 18.0409 41.6806 24.1134 46.0379 30.3634C50.3754 24.1725 54.6341 18.0803 58.9913 11.8697C58.1633 11.2782 57.3746 10.7262 56.586 10.1544C55.5607 9.42493 55.2847 8.79402 55.6396 7.63077C56.2311 5.61973 56.862 3.6087 57.4929 1.61737C58.0252 -0.0387757 59.1885 -0.452813 60.5883 0.513274C64.4132 3.17494 68.2382 5.83661 72.0631 8.51799C73.4038 9.46437 73.4432 10.7656 72.1617 11.7514C70.5252 13.0133 68.8691 14.2554 67.2129 15.4975C66.0891 16.3453 65.5173 16.3453 64.3541 15.5763C63.5655 15.044 62.7965 14.5117 61.9487 13.9202C60.3715 16.1678 58.8139 18.376 57.276 20.5645C54.4369 24.626 51.5978 28.6875 48.739 32.749C48.4038 33.2419 48.2855 33.5574 48.6798 34.1094C52.1893 39.0779 55.6593 44.0661 59.1688 49.0148C59.3462 49.2711 59.8588 49.488 60.1743 49.4288C63.3289 48.7979 65.6948 49.9414 67.489 52.5045C68.1593 53.4706 68.8494 54.417 69.5591 55.4619C70.9984 54.4367 72.3785 53.4903 73.739 52.5242C75.1979 51.4793 76.0654 51.637 77.1104 53.1157C80.4227 57.8476 83.6758 62.6386 87.0867 67.2916C92.1932 74.2908 90.1624 83.7545 83.1829 88.0131C76.7752 91.9169 68.5339 90.2016 64.1372 83.9714C60.6869 79.0818 57.276 74.1922 53.8454 69.2829C52.8991 67.9225 53.0371 67.0353 54.4172 66.0495C55.7973 65.0637 57.1972 64.0976 58.6759 63.0526C57.9464 62.0077 57.276 61.0021 56.586 60.0361C54.7721 57.473 54.5947 54.8507 56.2705 52.1299C56.4085 51.913 56.448 51.4793 56.31 51.2821C52.9385 46.432 49.5473 41.5818 46.0576 36.5937C42.5087 41.6607 39.0387 46.6291 35.7264 51.3413C36.1799 52.8594 36.6925 54.1212 36.9093 55.4422C37.1657 57.0195 36.6333 58.4785 35.687 59.7995C34.9377 60.8444 34.228 61.8894 33.5773 62.816C34.4843 63.9793 35.5095 64.9848 36.1404 66.2072C37.2051 68.2577 37.2051 70.4659 35.9433 72.4177C33.6562 75.9469 31.2114 79.3578 28.806 82.8081C27.1499 85.174 25.5135 87.5597 23.7982 89.8862C23.4236 90.3988 22.7729 90.8917 22.1814 90.9903C21.7083 91.0691 20.8802 90.6551 20.6633 90.2214C20.3873 89.7087 20.3873 88.8412 20.6436 88.3286C21.1562 87.2837 21.9449 86.357 22.6152 85.3909C25.8684 80.7379 29.1412 76.0849 32.3944 71.4319C33.7745 69.4603 33.4788 67.5676 31.5269 66.1283C31.0734 65.7931 30.6002 65.4974 30.1665 65.1622C29.0426 64.3539 28.8455 63.4272 29.5947 62.2837C30.5411 60.8641 31.586 59.5037 32.5127 58.0645C32.8873 57.473 33.2224 56.7829 33.321 56.1126C33.5182 54.7127 32.769 53.5692 31.5071 53.0566C30.3045 52.5637 28.9046 52.9383 28.0371 53.9635C27.8991 54.141 27.7611 54.3381 27.6231 54.5156C26.9527 55.4816 26.2627 56.4477 25.5923 57.3941C25.6712 57.5321 25.7106 57.6307 25.7698 57.6898C26.657 58.7545 26.7556 59.622 26.0458 60.3909C25.3952 61.1204 24.4488 61.1204 23.3841 60.3909C22.3195 59.6615 21.2942 58.9122 20.2296 58.1828C18.3368 56.8815 16.4046 57.1969 15.0837 59.07C11.2982 64.5116 7.5127 69.9138 3.72721 75.316C3.51034 75.6315 3.27375 75.9666 2.99772 76.2427C2.32737 76.913 1.47958 76.9919 0.769805 76.5187C0.040311 76.0258 -0.215998 75.0991 0.19804 74.2513C0.3952 73.8373 0.671225 73.4627 0.927534 73.0881C4.59472 67.8436 8.28162 62.5991 11.9488 57.3547C13.7627 54.7522 16.1878 53.4312 19.3818 54.0227C20.4859 54.2198 21.5111 54.831 22.7138 55.3042C23.3447 54.417 24.0545 53.4115 24.7643 52.4059C26.243 50.2963 28.2737 48.9753 30.8565 49.3697C32.4535 49.6063 33.0844 48.9951 33.8534 47.8713C37.0079 43.2577 40.2414 38.7033 43.4551 34.1489C43.7508 33.7348 43.8691 33.4194 43.5339 32.9265C39.157 26.6962 34.78 20.4462 30.403 14.2159C30.3439 14.1371 30.265 14.0779 30.1467 13.9596C29.3384 14.5117 28.5497 15.0637 27.7414 15.6158C26.657 16.3453 26.0852 16.3453 25.0403 15.5763C23.3447 14.3342 21.6688 13.0724 20.0127 11.7711C18.672 10.7262 18.7311 9.46437 20.131 8.47856C23.8573 5.85633 27.6034 3.23409 31.3494 0.63157C32.9859 -0.511961 34.1688 -0.078208 34.7406 1.85397C35.2926 3.74671 35.9038 5.61973 36.4559 7.49276C36.8502 8.83345 36.6333 9.3855 35.4898 10.1741C34.7011 10.7262 33.9717 11.2585 33.1041 11.8697ZM74.9022 56.2703C74.7839 56.29 74.705 56.29 74.6459 56.3294C72.7334 57.6504 70.821 58.9911 68.9085 60.3121C67.7058 61.1402 66.7792 61.1993 66.0694 60.4501C65.3596 59.7009 65.4582 58.7742 66.3651 57.6701C66.4046 57.6307 66.4243 57.5518 66.4834 57.3941C65.6554 56.2309 64.8667 54.9888 63.9203 53.8649C63.1514 52.958 62.0868 52.6228 60.8841 52.9974C58.7745 53.6481 58.045 55.8563 59.3265 57.7687C60.2532 59.1488 61.2587 60.5092 62.2051 61.8894C63.3486 63.5455 63.1711 64.3539 61.5347 65.4777C60.194 66.4044 58.873 67.3507 57.4732 68.3365C60.9038 73.2064 64.1569 78.0565 67.6861 82.7095C69.9929 85.7458 73.3446 86.9682 77.1301 86.4556C85.0757 85.3909 88.9203 76.6173 84.425 69.8744C82.9266 67.6465 81.3691 65.4383 79.8115 63.2498C78.1948 60.9036 76.5386 58.5771 74.9022 56.2703ZM23.877 10.2333C24.646 10.8248 25.2374 11.3374 25.9078 11.7317C26.1838 11.8894 26.7359 11.8894 26.9922 11.7317C28.7666 10.5487 30.5016 9.32635 32.2366 8.06453C32.4338 7.92651 32.631 7.53219 32.5915 7.2956C32.3944 6.44781 32.0986 5.63945 31.7832 4.69308C29.1018 6.5661 26.5781 8.34055 23.877 10.2333ZM60.332 4.71279C60.0363 5.65917 59.7405 6.48724 59.5237 7.31531C59.4645 7.51248 59.6222 7.88708 59.7997 8.02509C61.5741 9.30664 63.3683 10.5685 65.1822 11.7909C65.3596 11.9092 65.7342 12.0275 65.8722 11.9486C66.6412 11.436 67.3707 10.8642 68.2185 10.2333C65.5173 8.34055 62.9937 6.5661 60.332 4.71279Z" fill="url(#paint0_linear_24_1040)"/>
<path d="M28.6087 68.1986C28.3129 68.8295 28.1749 69.283 27.9186 69.6379C24.2514 74.9021 20.5645 80.186 16.8776 85.4305C16.1876 86.3966 15.1426 86.6134 14.3145 86.0022C13.4273 85.3516 13.2893 84.3264 13.9991 83.3011C17.0354 78.9439 20.0913 74.5866 23.1276 70.2491C23.8374 69.2239 24.5472 68.1986 25.3161 67.2325C25.8287 66.5622 26.6371 66.3453 27.3469 66.7594C27.8595 67.0748 28.1946 67.7057 28.6087 68.1986Z" fill="black"/>
<path d="M28.6087 68.1986C28.3129 68.8295 28.1749 69.283 27.9186 69.6379C24.2514 74.9021 20.5645 80.186 16.8776 85.4305C16.1876 86.3966 15.1426 86.6134 14.3145 86.0022C13.4273 85.3516 13.2893 84.3264 13.9991 83.3011C17.0354 78.9439 20.0913 74.5866 23.1276 70.2491C23.8374 69.2239 24.5472 68.1986 25.3161 67.2325C25.8287 66.5622 26.6371 66.3453 27.3469 66.7594C27.8595 67.0748 28.1946 67.7057 28.6087 68.1986Z" fill="url(#paint1_linear_24_1040)"/>
<path d="M8.55767 81.8815C7.92676 81.3886 7.35499 81.0929 7.00011 80.6394C6.52692 80.0282 6.68465 79.3185 7.1184 78.7073C8.04506 77.3468 8.97171 76.0062 9.91808 74.6457C12.6389 70.7814 15.3597 66.8973 18.0608 63.033C18.1791 62.8753 18.2777 62.6978 18.4157 62.5598C19.0861 61.7909 20.131 61.6134 20.8802 62.1655C21.6886 62.757 21.9054 63.7033 21.314 64.5906C20.3282 66.089 19.2635 67.5677 18.2383 69.0464C15.5766 72.8319 12.9544 76.6371 10.2533 80.4225C9.85893 80.9746 9.2083 81.3295 8.55767 81.8815Z" fill="black"/>
<path d="M8.55767 81.8815C7.92676 81.3886 7.35499 81.0929 7.00011 80.6394C6.52692 80.0282 6.68465 79.3185 7.1184 78.7073C8.04506 77.3468 8.97171 76.0062 9.91808 74.6457C12.6389 70.7814 15.3597 66.8973 18.0608 63.033C18.1791 62.8753 18.2777 62.6978 18.4157 62.5598C19.0861 61.7909 20.131 61.6134 20.8802 62.1655C21.6886 62.757 21.9054 63.7033 21.314 64.5906C20.3282 66.089 19.2635 67.5677 18.2383 69.0464C15.5766 72.8319 12.9544 76.6371 10.2533 80.4225C9.85893 80.9746 9.2083 81.3295 8.55767 81.8815Z" fill="url(#paint2_linear_24_1040)"/>
<path d="M82.4929 76.1045C82.4337 77.9775 81.5071 79.7125 79.8312 81.0532C78.8848 81.8025 77.8793 81.7827 77.1892 81.0138C76.4992 80.2449 76.5978 79.2394 77.4456 78.3916C79.2989 76.5383 79.4566 75.0596 77.9582 72.9105C76.6569 71.0178 75.3162 69.1447 74.015 67.2717C73.2657 66.1873 73.3249 65.1029 74.1727 64.472C75.0599 63.8017 76.1443 64.0974 76.9329 65.2212C78.3131 67.1731 79.6735 69.1447 81.0536 71.0966C82.0591 72.5162 82.6112 74.0738 82.4929 76.1045Z" fill="black"/>
<path d="M82.4929 76.1045C82.4337 77.9775 81.5071 79.7125 79.8312 81.0532C78.8848 81.8025 77.8793 81.7827 77.1892 81.0138C76.4992 80.2449 76.5978 79.2394 77.4456 78.3916C79.2989 76.5383 79.4566 75.0596 77.9582 72.9105C76.6569 71.0178 75.3162 69.1447 74.015 67.2717C73.2657 66.1873 73.3249 65.1029 74.1727 64.472C75.0599 63.8017 76.1443 64.0974 76.9329 65.2212C78.3131 67.1731 79.6735 69.1447 81.0536 71.0966C82.0591 72.5162 82.6112 74.0738 82.4929 76.1045Z" fill="url(#paint3_linear_24_1040)"/>
<defs>
<linearGradient id="paint0_linear_24_1040" x1="-16.6059" y1="-3.5168e-05" x2="76.2063" y2="2.23871" gradientUnits="userSpaceOnUse">
<stop stop-color="#37DADA"/>
<stop offset="1" stop-color="#254DB5"/>
</linearGradient>
<linearGradient id="paint1_linear_24_1040" x1="10.7647" y1="66.5488" x2="26.3128" y2="66.8376" gradientUnits="userSpaceOnUse">
<stop stop-color="#37DADA"/>
<stop offset="1" stop-color="#254DB5"/>
</linearGradient>
<linearGradient id="paint2_linear_24_1040" x1="3.95315" y1="61.8442" x2="19.3733" y2="62.1248" gradientUnits="userSpaceOnUse">
<stop stop-color="#37DADA"/>
<stop offset="1" stop-color="#254DB5"/>
</linearGradient>
<linearGradient id="paint3_linear_24_1040" x1="71.8274" y1="64.1172" x2="81.1361" y2="64.2343" gradientUnits="userSpaceOnUse">
<stop stop-color="#37DADA"/>
<stop offset="1" stop-color="#254DB5"/>
</linearGradient>
</defs>
</svg>
