<svg width="105" height="91" viewBox="0 0 105 91" fill="none" xmlns="http://www.w3.org/2000/svg">
<path fill-rule="evenodd" clip-rule="evenodd" d="M64.2879 40.7739C67.4226 46.2551 71.5011 51.156 75.2974 54.7375L75.3128 54.7517C76.7344 56.0311 77.9666 57.0482 78.983 57.7504C79.491 58.1014 79.9638 58.3869 80.3936 58.5877C80.8091 58.7817 81.2572 58.9317 81.6953 58.9317H81.8363C82.2927 58.9317 82.7578 58.7925 83.2035 58.595C83.6571 58.3939 84.1463 58.1072 84.6659 57.7547C85.7041 57.0501 86.9392 56.0306 88.3601 54.7518L88.3753 54.7375C92.1716 51.156 96.2501 46.2551 99.3848 40.7739C102.515 35.3 104.741 29.1831 104.741 23.1869C104.741 12.2572 98.597 3.53948 88.9887 0.878719L88.9669 0.873266C86.6363 0.290617 84.1647 0 81.8363 0C79.508 0 77.0364 0.290342 74.7058 0.872991L74.6841 0.878991C65.0758 3.53975 58.9317 12.2572 58.9317 23.1869C58.9317 29.1831 61.1574 35.3 64.2879 40.7739ZM75.7281 4.99791L75.7321 4.99678C77.6281 4.45507 79.521 4.18453 81.5541 4.18453H81.6953C83.878 4.18453 85.9113 4.45729 87.7995 4.99679L87.8035 4.9979C95.4049 7.13165 100.415 14.2131 100.415 23.1869C100.415 30.9375 96.2523 38.7161 91.7081 44.6935C89.4468 47.668 87.1171 50.1622 85.2203 51.9421C84.2713 52.8325 83.4386 53.5368 82.7838 54.0302C82.4559 54.2774 82.1817 54.4647 81.9663 54.5945C81.9186 54.6232 81.8751 54.6483 81.8359 54.67C81.796 54.6481 81.7519 54.6227 81.7034 54.5937C81.4868 54.4637 81.2109 54.2761 80.8809 54.0288C80.2221 53.5351 79.3837 52.8305 78.4282 51.94C76.5181 50.1599 74.1708 47.6655 71.892 44.6909C67.3124 38.7128 63.1162 30.9352 63.1162 23.1869C63.1162 14.0759 68.1232 7.13261 75.7281 4.99791ZM62.2703 21.6464C62.2391 22.1533 62.2232 22.6672 62.2232 23.1874C62.2232 39.273 79.5787 55.0763 81.8363 55.6407C83.4451 55.2385 92.6493 47.0975 97.8066 36.6304C92.6492 47.0972 83.4452 55.2379 81.8363 55.6401C79.5787 55.0757 62.2233 39.2724 62.2233 23.1869C62.2233 22.6668 62.2391 22.1531 62.2703 21.6464ZM75.6949 29.7516L75.6823 29.739L75.6691 29.7269C74.0306 28.2144 73.1344 26.0596 73.1344 23.7513C73.1344 21.6072 74.1561 19.2897 75.6949 17.7509C77.057 16.3888 79.3583 15.4726 81.6953 15.4726C84.3376 15.4726 86.4709 16.2606 87.9531 17.8663L87.9773 17.8925L88.0036 17.9167C89.6421 19.4292 90.5383 21.584 90.5383 23.8924C90.5383 26.1706 89.522 28.3486 87.9778 29.8927C86.4582 31.4123 84.2893 32.3121 81.9775 32.3121H81.6953C79.5511 32.3121 77.2337 31.2904 75.6949 29.7516ZM72.2489 23.411C72.2439 23.5249 72.2414 23.6385 72.2414 23.7519C72.2414 26.2917 73.2291 28.6904 75.0634 30.3836C76.7566 32.0768 79.2964 33.2056 81.6952 33.2056H81.9774C84.5172 33.2056 86.9159 32.2179 88.6091 30.5247C89.336 29.7978 89.9587 28.941 90.4329 27.9987C89.9587 28.9407 89.3359 29.7974 88.6092 30.5241C86.916 32.2173 84.5173 33.205 81.9775 33.205H81.6953C79.2965 33.205 76.7567 32.0762 75.0635 30.383C73.2292 28.6898 72.2415 26.2911 72.2415 23.7513C72.2415 23.6381 72.2439 23.5247 72.2489 23.411ZM81.6953 36.4966H81.9775C85.3143 36.4966 88.6408 35.1362 91.0647 32.7178C93.5064 30.4228 94.8639 27.0825 94.8639 23.7513C94.8639 20.4032 93.4953 17.2204 91.085 14.8051C88.7688 12.3412 85.415 11.147 81.9775 11.147C78.3783 11.147 75.0455 12.4942 72.7491 14.7848C70.3074 17.0798 68.9499 20.42 68.9499 23.7513C68.9499 27.0993 70.3185 30.2821 72.7288 32.6975C75.0238 35.1391 78.364 36.4966 81.6953 36.4966ZM81.9775 12.0399C78.591 12.0399 75.4868 13.3098 73.3703 15.4263C72.4009 16.3351 71.6137 17.4261 71.0309 18.621C71.6137 17.4263 72.4009 16.3356 73.3702 15.4269C75.4867 13.3104 78.5909 12.0405 81.9774 12.0405C85.2227 12.0405 88.3269 13.1693 90.4434 15.4269C92.701 17.6845 93.9709 20.6476 93.9709 23.7519C93.9709 23.9818 93.964 24.2118 93.9501 24.4414C93.964 24.2116 93.971 23.9814 93.971 23.7513C93.971 20.647 92.7011 17.6839 90.4435 15.4263C88.327 13.1687 85.2228 12.0399 81.9775 12.0399ZM103.838 23.866C103.845 23.6396 103.848 23.4134 103.848 23.1874C103.848 12.6049 97.9218 4.27992 88.7502 1.7401C86.4926 1.1757 84.0939 0.893496 81.8363 0.893496C79.5787 0.893496 77.1799 1.1757 74.9223 1.7401C67.7567 3.72443 62.572 9.24007 60.6469 16.6047C62.5719 9.23978 67.7566 3.72389 74.9224 1.73951C77.18 1.17511 79.5787 0.892905 81.8363 0.892905C84.094 0.892905 86.4927 1.17511 88.7503 1.73951C97.9219 4.27933 103.848 12.6043 103.848 23.1869C103.848 23.413 103.845 23.6394 103.838 23.866ZM37.2357 80.657H38.9182C40.5731 80.6846 42.1453 80.6846 43.745 80.6019H43.9933C45.4551 80.6019 45.9792 81.319 46.3929 82.5602C48.0202 87.4973 51.5231 90.3659 56.5706 90.8899C61.4526 91.3864 65.3692 89.4557 67.9619 85.2356C70.665 80.8225 70.5546 76.3267 67.7137 72.5204C66.114 70.369 65.5071 68.2452 65.6451 65.2111C65.6726 64.3837 65.6726 63.5562 65.6451 62.7564V62.3426C65.5899 58.0398 62.1697 54.6473 57.867 54.5921H55.0536H53.6469H53.2332V52.9648V50.5651C53.2332 50.1958 53.2324 49.8234 53.2317 49.4488V49.448V49.4472V49.4464V49.4459C53.2278 47.556 53.2239 45.6116 53.3159 43.7248C53.3435 43.1456 53.7848 42.6491 54.2261 42.1802C54.3916 42.0148 54.5295 41.8493 54.6399 41.7113C54.7502 41.5734 54.8881 41.4355 55.026 41.3252C55.0611 41.2901 55.1061 41.255 55.1484 41.2221C55.2059 41.1773 55.2584 41.1363 55.2743 41.1045C55.3294 40.3047 55.3294 39.5048 55.3018 38.6773V38.1257H54.8329C51.9368 38.6498 49.9509 40.9666 49.9234 43.8903C49.8958 46.2348 49.8958 48.5241 49.9234 50.9789V54.1784V54.5921H49.5096H47.5513C45.2896 54.5921 43.1382 54.5921 40.9868 54.5369C40.4076 54.5094 39.8835 53.6819 39.7732 53.2682C38.339 48.662 36.9323 43.9731 35.5808 39.4221L35.3877 38.7877C35.3049 38.5394 35.2774 38.2912 35.2498 38.043C35.2353 37.9851 35.2285 37.9197 35.2212 37.8506L35.2212 37.8505L35.2212 37.8505L35.2212 37.8504V37.8504C35.2146 37.7878 35.2077 37.7223 35.1946 37.6568L35.1119 37.1879H38.4217V33.9608H6.28877V37.2431H10.3433V37.6568V40.9391C10.3433 43.9179 10.3433 46.7313 10.3709 49.5998C10.3985 50.8685 9.79167 51.3099 8.85389 51.6133C5.90262 52.4683 3.30992 53.8474 0.937878 55.7781L3.0341 58.2881L3.14443 58.2053C3.39267 58.0398 3.58574 57.9019 3.77882 57.764C9.01938 54.0956 14.7288 52.9372 20.6865 54.2887C25.4582 55.3644 29.5679 57.9019 32.5743 61.6255C35.5808 65.3491 37.1805 69.9001 37.2357 74.8097C37.254 75.724 37.248 76.6263 37.2419 77.5486V77.5486V77.5487V77.5488C37.2388 78.0174 37.2357 78.4913 37.2357 78.9745V80.657ZM48.4064 70.9482L48.4062 70.9485C48.2132 71.3897 48.0202 71.8309 47.8271 72.2997C47.2479 73.7064 46.6411 75.1406 46.0067 76.5473C45.8412 76.9335 45.2896 77.292 44.8483 77.3196C44.2691 77.3472 43.6899 77.3472 43.083 77.3472H42.0901H41.042H40.6558L40.2973 70.3965H48.6546L48.4064 70.9482ZM63.9074 72.8513C65.5623 74.5062 66.4725 76.6852 66.4725 79.0297C66.4725 83.8014 62.5835 87.6628 57.8118 87.6904H57.7842C55.4673 87.6904 53.2884 86.7802 51.6334 85.1253C49.9785 83.4704 49.0683 81.2914 49.0683 78.9469C49.0683 74.1753 52.9574 70.3138 57.729 70.2862C60.0735 70.2862 62.2525 71.1964 63.9074 72.8513ZM30.0644 54.5645C29.7058 54.5645 29.3748 54.3714 29.099 54.206C24.8238 51.5305 19.997 50.2617 14.784 50.4548C14.6461 50.4548 14.5082 50.4548 14.3427 50.4272C14.3013 50.4272 14.2599 50.4203 14.2186 50.4134C14.1772 50.4065 14.1358 50.3997 14.0945 50.3997L13.7359 50.3721V37.2155H20.9348H30.0368C30.6988 37.2155 31.4986 37.2155 31.8296 38.4015C32.4959 40.6809 33.1845 42.9827 33.867 45.2641C34.2582 46.5716 34.6473 47.8723 35.0291 49.1585C35.4704 50.6203 35.9118 52.0821 36.3531 53.5164C36.394 53.6187 36.3894 53.721 36.3843 53.8345L36.3843 53.8347C36.3825 53.8742 36.3806 53.915 36.3806 53.9577V54.206V54.6197H34.5602H33.1811L33.1807 54.6197C32.1327 54.5921 31.0848 54.5645 30.0644 54.5645ZM35.8842 60.5774L35.8841 60.5773C35.498 59.9154 35.1119 59.2534 34.7533 58.5639L34.4499 58.0123L35.0843 57.9571H35.1946C35.3601 57.9295 35.6359 57.9019 35.9118 57.9019H57.2602C60.4872 57.9019 62.3628 59.7499 62.3904 62.977V65.7904V67.528L61.9215 67.4729C57.2602 66.8661 52.5436 66.9488 47.9926 67.0315C47.5479 67.0368 47.0991 67.0432 46.6475 67.0495C44.746 67.0762 42.7932 67.1037 40.8765 67.0591C39.7732 67.0315 39.194 66.673 38.6975 65.6525C37.8977 64.1255 37.0553 62.6412 36.2265 61.1808L36.2264 61.1807L36.2263 61.1805L36.2262 61.1803L36.2222 61.1733L35.8842 60.5774ZM16.1631 58.7295H16.1907C25.072 58.7571 32.2709 66.0111 32.2709 74.9201C32.2433 83.8014 24.9893 91.0003 16.1079 91.0003H16.0803C7.19896 90.9727 -0.0275032 83.7187 7.86942e-05 74.8097C0.0276606 65.9284 7.2817 58.7295 16.1631 58.7295ZM16.1079 87.6905C19.5005 87.6905 22.7276 86.3666 25.1548 83.9394C27.582 81.5397 28.9335 78.3126 28.9611 74.9201C28.9887 71.4999 27.6372 68.2728 25.2099 65.818C22.7827 63.3908 19.5557 62.0393 16.1631 62.0393H16.1355C9.12969 62.0393 3.36507 67.7212 3.30991 74.727C3.28233 78.1747 4.60626 81.4294 7.03347 83.8842C9.43309 86.3114 12.6326 87.6629 16.0252 87.6905H16.1079ZM56.1844 79.085C56.2396 79.9952 56.9015 80.6295 57.8393 80.602C58.7495 80.5744 59.4115 79.94 59.4115 79.0022C59.4115 78.5333 59.246 78.1196 58.9702 77.8162C58.6668 77.5404 58.2806 77.3749 57.8117 77.3749H57.7842C57.3153 77.3749 56.9015 77.5679 56.6257 77.8713C56.2947 78.1747 56.1568 78.6161 56.1844 79.085ZM16.0804 69.1276H16.301C17.9008 69.1828 19.335 69.8171 20.3556 70.9204C21.3761 72.0237 21.9002 73.5131 21.845 75.0577C21.7622 76.6575 21.1279 78.0917 19.997 79.1122C18.8937 80.1604 17.4043 80.6844 15.8597 80.6017C12.6878 80.4638 10.2882 77.8711 10.3709 74.7267C10.3985 73.1545 11.0605 71.7203 12.1637 70.6722C13.2119 69.6792 14.6185 69.1276 16.0804 69.1276ZM16.1907 77.2918C16.8803 77.2918 17.4871 77.016 17.9284 76.5471C18.3697 76.0507 18.5903 75.4163 18.5352 74.7267C18.48 73.4304 17.4319 72.4374 16.108 72.4374H16.0528C14.7013 72.465 13.6807 73.4579 13.6807 74.837C13.6807 75.5266 13.929 76.1334 14.3979 76.6023C14.8392 77.0436 15.4736 77.2918 16.1355 77.2918H16.1907Z" fill="black"/>
<path fill-rule="evenodd" clip-rule="evenodd" d="M64.2879 40.7739C67.4226 46.2551 71.5011 51.156 75.2974 54.7375L75.3128 54.7517C76.7344 56.0311 77.9666 57.0482 78.983 57.7504C79.491 58.1014 79.9638 58.3869 80.3936 58.5877C80.8091 58.7817 81.2572 58.9317 81.6953 58.9317H81.8363C82.2927 58.9317 82.7578 58.7925 83.2035 58.595C83.6571 58.3939 84.1463 58.1072 84.6659 57.7547C85.7041 57.0501 86.9392 56.0306 88.3601 54.7518L88.3753 54.7375C92.1716 51.156 96.2501 46.2551 99.3848 40.7739C102.515 35.3 104.741 29.1831 104.741 23.1869C104.741 12.2572 98.597 3.53948 88.9887 0.878719L88.9669 0.873266C86.6363 0.290617 84.1647 0 81.8363 0C79.508 0 77.0364 0.290342 74.7058 0.872991L74.6841 0.878991C65.0758 3.53975 58.9317 12.2572 58.9317 23.1869C58.9317 29.1831 61.1574 35.3 64.2879 40.7739ZM75.7281 4.99791L75.7321 4.99678C77.6281 4.45507 79.521 4.18453 81.5541 4.18453H81.6953C83.878 4.18453 85.9113 4.45729 87.7995 4.99679L87.8035 4.9979C95.4049 7.13165 100.415 14.2131 100.415 23.1869C100.415 30.9375 96.2523 38.7161 91.7081 44.6935C89.4468 47.668 87.1171 50.1622 85.2203 51.9421C84.2713 52.8325 83.4386 53.5368 82.7838 54.0302C82.4559 54.2774 82.1817 54.4647 81.9663 54.5945C81.9186 54.6232 81.8751 54.6483 81.8359 54.67C81.796 54.6481 81.7519 54.6227 81.7034 54.5937C81.4868 54.4637 81.2109 54.2761 80.8809 54.0288C80.2221 53.5351 79.3837 52.8305 78.4282 51.94C76.5181 50.1599 74.1708 47.6655 71.892 44.6909C67.3124 38.7128 63.1162 30.9352 63.1162 23.1869C63.1162 14.0759 68.1232 7.13261 75.7281 4.99791ZM62.2703 21.6464C62.2391 22.1533 62.2232 22.6672 62.2232 23.1874C62.2232 39.273 79.5787 55.0763 81.8363 55.6407C83.4451 55.2385 92.6493 47.0975 97.8066 36.6304C92.6492 47.0972 83.4452 55.2379 81.8363 55.6401C79.5787 55.0757 62.2233 39.2724 62.2233 23.1869C62.2233 22.6668 62.2391 22.1531 62.2703 21.6464ZM75.6949 29.7516L75.6823 29.739L75.6691 29.7269C74.0306 28.2144 73.1344 26.0596 73.1344 23.7513C73.1344 21.6072 74.1561 19.2897 75.6949 17.7509C77.057 16.3888 79.3583 15.4726 81.6953 15.4726C84.3376 15.4726 86.4709 16.2606 87.9531 17.8663L87.9773 17.8925L88.0036 17.9167C89.6421 19.4292 90.5383 21.584 90.5383 23.8924C90.5383 26.1706 89.522 28.3486 87.9778 29.8927C86.4582 31.4123 84.2893 32.3121 81.9775 32.3121H81.6953C79.5511 32.3121 77.2337 31.2904 75.6949 29.7516ZM72.2489 23.411C72.2439 23.5249 72.2414 23.6385 72.2414 23.7519C72.2414 26.2917 73.2291 28.6904 75.0634 30.3836C76.7566 32.0768 79.2964 33.2056 81.6952 33.2056H81.9774C84.5172 33.2056 86.9159 32.2179 88.6091 30.5247C89.336 29.7978 89.9587 28.941 90.4329 27.9987C89.9587 28.9407 89.3359 29.7974 88.6092 30.5241C86.916 32.2173 84.5173 33.205 81.9775 33.205H81.6953C79.2965 33.205 76.7567 32.0762 75.0635 30.383C73.2292 28.6898 72.2415 26.2911 72.2415 23.7513C72.2415 23.6381 72.2439 23.5247 72.2489 23.411ZM81.6953 36.4966H81.9775C85.3143 36.4966 88.6408 35.1362 91.0647 32.7178C93.5064 30.4228 94.8639 27.0825 94.8639 23.7513C94.8639 20.4032 93.4953 17.2204 91.085 14.8051C88.7688 12.3412 85.415 11.147 81.9775 11.147C78.3783 11.147 75.0455 12.4942 72.7491 14.7848C70.3074 17.0798 68.9499 20.42 68.9499 23.7513C68.9499 27.0993 70.3185 30.2821 72.7288 32.6975C75.0238 35.1391 78.364 36.4966 81.6953 36.4966ZM81.9775 12.0399C78.591 12.0399 75.4868 13.3098 73.3703 15.4263C72.4009 16.3351 71.6137 17.4261 71.0309 18.621C71.6137 17.4263 72.4009 16.3356 73.3702 15.4269C75.4867 13.3104 78.5909 12.0405 81.9774 12.0405C85.2227 12.0405 88.3269 13.1693 90.4434 15.4269C92.701 17.6845 93.9709 20.6476 93.9709 23.7519C93.9709 23.9818 93.964 24.2118 93.9501 24.4414C93.964 24.2116 93.971 23.9814 93.971 23.7513C93.971 20.647 92.7011 17.6839 90.4435 15.4263C88.327 13.1687 85.2228 12.0399 81.9775 12.0399ZM103.838 23.866C103.845 23.6396 103.848 23.4134 103.848 23.1874C103.848 12.6049 97.9218 4.27992 88.7502 1.7401C86.4926 1.1757 84.0939 0.893496 81.8363 0.893496C79.5787 0.893496 77.1799 1.1757 74.9223 1.7401C67.7567 3.72443 62.572 9.24007 60.6469 16.6047C62.5719 9.23978 67.7566 3.72389 74.9224 1.73951C77.18 1.17511 79.5787 0.892905 81.8363 0.892905C84.094 0.892905 86.4927 1.17511 88.7503 1.73951C97.9219 4.27933 103.848 12.6043 103.848 23.1869C103.848 23.413 103.845 23.6394 103.838 23.866ZM37.2357 80.657H38.9182C40.5731 80.6846 42.1453 80.6846 43.745 80.6019H43.9933C45.4551 80.6019 45.9792 81.319 46.3929 82.5602C48.0202 87.4973 51.5231 90.3659 56.5706 90.8899C61.4526 91.3864 65.3692 89.4557 67.9619 85.2356C70.665 80.8225 70.5546 76.3267 67.7137 72.5204C66.114 70.369 65.5071 68.2452 65.6451 65.2111C65.6726 64.3837 65.6726 63.5562 65.6451 62.7564V62.3426C65.5899 58.0398 62.1697 54.6473 57.867 54.5921H55.0536H53.6469H53.2332V52.9648V50.5651C53.2332 50.1958 53.2324 49.8234 53.2317 49.4488V49.448V49.4472V49.4464V49.4459C53.2278 47.556 53.2239 45.6116 53.3159 43.7248C53.3435 43.1456 53.7848 42.6491 54.2261 42.1802C54.3916 42.0148 54.5295 41.8493 54.6399 41.7113C54.7502 41.5734 54.8881 41.4355 55.026 41.3252C55.0611 41.2901 55.1061 41.255 55.1484 41.2221C55.2059 41.1773 55.2584 41.1363 55.2743 41.1045C55.3294 40.3047 55.3294 39.5048 55.3018 38.6773V38.1257H54.8329C51.9368 38.6498 49.9509 40.9666 49.9234 43.8903C49.8958 46.2348 49.8958 48.5241 49.9234 50.9789V54.1784V54.5921H49.5096H47.5513C45.2896 54.5921 43.1382 54.5921 40.9868 54.5369C40.4076 54.5094 39.8835 53.6819 39.7732 53.2682C38.339 48.662 36.9323 43.9731 35.5808 39.4221L35.3877 38.7877C35.3049 38.5394 35.2774 38.2912 35.2498 38.043C35.2353 37.9851 35.2285 37.9197 35.2212 37.8506L35.2212 37.8505L35.2212 37.8505L35.2212 37.8504V37.8504C35.2146 37.7878 35.2077 37.7223 35.1946 37.6568L35.1119 37.1879H38.4217V33.9608H6.28877V37.2431H10.3433V37.6568V40.9391C10.3433 43.9179 10.3433 46.7313 10.3709 49.5998C10.3985 50.8685 9.79167 51.3099 8.85389 51.6133C5.90262 52.4683 3.30992 53.8474 0.937878 55.7781L3.0341 58.2881L3.14443 58.2053C3.39267 58.0398 3.58574 57.9019 3.77882 57.764C9.01938 54.0956 14.7288 52.9372 20.6865 54.2887C25.4582 55.3644 29.5679 57.9019 32.5743 61.6255C35.5808 65.3491 37.1805 69.9001 37.2357 74.8097C37.254 75.724 37.248 76.6263 37.2419 77.5486V77.5486V77.5487V77.5488C37.2388 78.0174 37.2357 78.4913 37.2357 78.9745V80.657ZM48.4064 70.9482L48.4062 70.9485C48.2132 71.3897 48.0202 71.8309 47.8271 72.2997C47.2479 73.7064 46.6411 75.1406 46.0067 76.5473C45.8412 76.9335 45.2896 77.292 44.8483 77.3196C44.2691 77.3472 43.6899 77.3472 43.083 77.3472H42.0901H41.042H40.6558L40.2973 70.3965H48.6546L48.4064 70.9482ZM63.9074 72.8513C65.5623 74.5062 66.4725 76.6852 66.4725 79.0297C66.4725 83.8014 62.5835 87.6628 57.8118 87.6904H57.7842C55.4673 87.6904 53.2884 86.7802 51.6334 85.1253C49.9785 83.4704 49.0683 81.2914 49.0683 78.9469C49.0683 74.1753 52.9574 70.3138 57.729 70.2862C60.0735 70.2862 62.2525 71.1964 63.9074 72.8513ZM30.0644 54.5645C29.7058 54.5645 29.3748 54.3714 29.099 54.206C24.8238 51.5305 19.997 50.2617 14.784 50.4548C14.6461 50.4548 14.5082 50.4548 14.3427 50.4272C14.3013 50.4272 14.2599 50.4203 14.2186 50.4134C14.1772 50.4065 14.1358 50.3997 14.0945 50.3997L13.7359 50.3721V37.2155H20.9348H30.0368C30.6988 37.2155 31.4986 37.2155 31.8296 38.4015C32.4959 40.6809 33.1845 42.9827 33.867 45.2641C34.2582 46.5716 34.6473 47.8723 35.0291 49.1585C35.4704 50.6203 35.9118 52.0821 36.3531 53.5164C36.394 53.6187 36.3894 53.721 36.3843 53.8345L36.3843 53.8347C36.3825 53.8742 36.3806 53.915 36.3806 53.9577V54.206V54.6197H34.5602H33.1811L33.1807 54.6197C32.1327 54.5921 31.0848 54.5645 30.0644 54.5645ZM35.8842 60.5774L35.8841 60.5773C35.498 59.9154 35.1119 59.2534 34.7533 58.5639L34.4499 58.0123L35.0843 57.9571H35.1946C35.3601 57.9295 35.6359 57.9019 35.9118 57.9019H57.2602C60.4872 57.9019 62.3628 59.7499 62.3904 62.977V65.7904V67.528L61.9215 67.4729C57.2602 66.8661 52.5436 66.9488 47.9926 67.0315C47.5479 67.0368 47.0991 67.0432 46.6475 67.0495C44.746 67.0762 42.7932 67.1037 40.8765 67.0591C39.7732 67.0315 39.194 66.673 38.6975 65.6525C37.8977 64.1255 37.0553 62.6412 36.2265 61.1808L36.2264 61.1807L36.2263 61.1805L36.2262 61.1803L36.2222 61.1733L35.8842 60.5774ZM16.1631 58.7295H16.1907C25.072 58.7571 32.2709 66.0111 32.2709 74.9201C32.2433 83.8014 24.9893 91.0003 16.1079 91.0003H16.0803C7.19896 90.9727 -0.0275032 83.7187 7.86942e-05 74.8097C0.0276606 65.9284 7.2817 58.7295 16.1631 58.7295ZM16.1079 87.6905C19.5005 87.6905 22.7276 86.3666 25.1548 83.9394C27.582 81.5397 28.9335 78.3126 28.9611 74.9201C28.9887 71.4999 27.6372 68.2728 25.2099 65.818C22.7827 63.3908 19.5557 62.0393 16.1631 62.0393H16.1355C9.12969 62.0393 3.36507 67.7212 3.30991 74.727C3.28233 78.1747 4.60626 81.4294 7.03347 83.8842C9.43309 86.3114 12.6326 87.6629 16.0252 87.6905H16.1079ZM56.1844 79.085C56.2396 79.9952 56.9015 80.6295 57.8393 80.602C58.7495 80.5744 59.4115 79.94 59.4115 79.0022C59.4115 78.5333 59.246 78.1196 58.9702 77.8162C58.6668 77.5404 58.2806 77.3749 57.8117 77.3749H57.7842C57.3153 77.3749 56.9015 77.5679 56.6257 77.8713C56.2947 78.1747 56.1568 78.6161 56.1844 79.085ZM16.0804 69.1276H16.301C17.9008 69.1828 19.335 69.8171 20.3556 70.9204C21.3761 72.0237 21.9002 73.5131 21.845 75.0577C21.7622 76.6575 21.1279 78.0917 19.997 79.1122C18.8937 80.1604 17.4043 80.6844 15.8597 80.6017C12.6878 80.4638 10.2882 77.8711 10.3709 74.7267C10.3985 73.1545 11.0605 71.7203 12.1637 70.6722C13.2119 69.6792 14.6185 69.1276 16.0804 69.1276ZM16.1907 77.2918C16.8803 77.2918 17.4871 77.016 17.9284 76.5471C18.3697 76.0507 18.5903 75.4163 18.5352 74.7267C18.48 73.4304 17.4319 72.4374 16.108 72.4374H16.0528C14.7013 72.465 13.6807 73.4579 13.6807 74.837C13.6807 75.5266 13.929 76.1334 14.3979 76.6023C14.8392 77.0436 15.4736 77.2918 16.1355 77.2918H16.1907Z" fill="url(#paint0_linear_28_1079)"/>
<defs>
<linearGradient id="paint0_linear_28_1079" x1="-19.3394" y1="-3.51682e-05" x2="88.7284" y2="3.03579" gradientUnits="userSpaceOnUse">
<stop stop-color="#37DADA"/>
<stop offset="1" stop-color="#254DB5"/>
</linearGradient>
</defs>
</svg>
