<svg width="124" height="91" viewBox="0 0 124 91" fill="none" xmlns="http://www.w3.org/2000/svg">
<path fill-rule="evenodd" clip-rule="evenodd" d="M119.073 79.3548C121.154 78.6206 122.726 77.4735 123.374 75.3169V75.3166C123.374 74.6284 123.374 73.9403 123.328 73.298C123.272 73.1765 123.216 73.0577 123.161 72.9403L123.161 72.9399C122.988 72.5695 122.821 72.2128 122.68 71.8297C118.425 61.4138 114.124 51.0438 109.823 40.6738C109.5 39.8938 109.546 39.389 110.147 38.7466C112.459 36.1312 112.182 33.1487 109.546 30.8544C104.602 26.6375 99.7054 22.4206 94.8083 18.2037L94.8076 18.2031L94.8069 18.2025L94.8062 18.2019L94.8054 18.2012L94.7926 18.1902C91.9715 15.7583 88.9654 15.9877 86.5605 18.7867C85.8669 19.6125 85.1733 20.3923 84.4798 21.1722L84.4793 21.1727C84.4263 21.1377 84.3801 21.1093 84.3406 21.0851C84.2766 21.0459 84.2304 21.0176 84.2018 20.9892C82.9125 19.9426 81.6195 18.8996 80.326 17.8562L80.3254 17.8557L80.3253 17.8556L80.3249 17.8553C77.0252 15.1937 73.7218 12.529 70.4661 9.79327C68.5699 8.1873 66.5813 6.9943 64.1764 6.44368C62.7805 6.10452 61.4022 5.67831 60.0198 5.25085C59.158 4.98433 58.2945 4.71733 57.4242 4.47063C56.5219 4.20633 55.6212 3.94204 54.7216 3.67804C50.7792 2.52119 46.8561 1.36999 42.9023 0.249215C39.8962 -0.622598 37.1213 0.845719 36.1963 3.82824C36.1348 4.02889 36.0732 4.22789 36.012 4.42586L36.0119 4.42618L36.0117 4.42676L36.0116 4.42718L36.0114 4.42779C35.7508 5.27037 35.4959 6.09437 35.2714 6.94841C34.3464 10.2062 35.8264 12.8676 39.11 13.8311C40.3894 14.2035 41.6703 14.5758 42.9523 14.9485L42.9579 14.9501C48.6252 16.5974 54.3119 18.2504 59.9678 19.9338C60.7078 20.1633 61.4478 20.5303 62.049 21.0351C64.6851 23.1458 67.275 25.3024 69.8187 27.459C70.2349 27.7802 70.5586 28.3308 70.6511 28.8355C71.5453 33.2712 72.3983 37.7069 73.2514 42.1425C73.6779 44.3602 74.1043 46.5778 74.536 48.7954L80.3632 78.8042C80.7794 80.8231 81.2882 82.7503 82.6756 84.3562C85.4042 87.4305 89.4741 88.2565 93.4977 86.5128C95.6715 85.5721 97.8338 84.6199 99.996 83.6677C102.158 82.7157 104.32 81.7637 106.493 80.8231C106.817 80.6855 107.326 80.6855 107.557 80.869C109.268 82.3373 111.164 82.5667 113.246 81.6949C113.893 81.4349 114.535 81.1647 115.178 80.8945C116.462 80.3541 117.747 79.8137 119.073 79.3548ZM72.9505 26.1063C72.8322 25.9141 72.7072 25.7113 72.5936 25.4859L72.9781 25.0736C74.5803 23.3559 76.2924 21.5203 78.0046 19.5668C79.0735 20.4098 80.11 21.2689 81.1429 22.1251L81.1432 22.1253L81.1433 22.1254L81.1434 22.1255L81.1435 22.1256L81.1436 22.1257C81.8533 22.7139 82.5612 23.3007 83.2769 23.8799C84.4793 24.8894 85.0805 24.8435 86.098 23.6964C86.7932 22.9439 87.4668 22.1701 88.1336 21.404L88.1339 21.4037L88.1346 21.4028C88.4434 21.0482 88.7506 20.6952 89.0579 20.3468C90.1216 19.1079 91.324 19.0161 92.5727 20.0715C97.6137 24.3847 102.655 28.6979 107.65 33.011C108.991 34.204 109.037 35.3512 107.881 36.7277C107.779 36.8429 107.678 36.9626 107.575 37.0839C107.349 37.3494 107.117 37.6229 106.863 37.8748C106.17 38.5631 106.123 39.2973 106.493 40.215C108.116 44.1056 109.723 48.0119 111.332 51.9247L111.333 51.9253L111.333 51.926L111.333 51.9267L111.333 51.9274C112.476 54.7049 113.62 57.4858 114.772 60.2667C115.8 62.7088 116.812 65.1667 117.826 67.631L117.827 67.6313L117.827 67.6316C118.547 69.3806 119.268 71.1328 119.998 72.885C120.692 74.6286 120.368 75.4546 118.61 76.1887C116.394 77.1052 114.131 78.0216 111.868 78.938L111.858 78.9418C110.702 79.4007 109.869 79.1254 109.222 78.07C108.575 77.0147 108.02 76.8311 106.863 77.3359C105.71 77.8432 104.559 78.3505 103.41 78.8572L103.41 78.8573L103.41 78.8574L103.409 78.8576L103.409 78.8577C99.6731 80.5048 95.9514 82.1457 92.2027 83.7597C89.7053 84.861 87.3467 84.5857 85.3118 82.7503C84.2943 81.8326 83.7856 80.5937 83.5081 79.263C82.6755 74.9264 81.8314 70.5783 80.9873 66.2302L80.9869 66.2282C80.1431 61.8818 79.2993 57.5353 78.467 53.2004C78.2379 52.0066 78.0087 50.812 77.7794 49.6167L77.778 49.6093C76.3419 42.1239 74.9011 34.6138 73.426 27.1378C73.366 26.7804 73.1695 26.4616 72.9505 26.1063ZM75.5362 17.6252C75.5997 17.6697 75.6763 17.7235 75.7846 17.7772C73.8896 19.7492 72.1331 21.6294 70.3767 23.5096L70.3736 23.5129C70.3274 23.5587 70.2812 23.5932 70.2349 23.6276C70.1887 23.662 70.1424 23.6964 70.0962 23.7423C69.7136 23.4217 69.3325 23.1012 68.9522 22.7812L68.9513 22.7805L68.9505 22.7798L68.9405 22.7714L68.935 22.7667L68.9348 22.7666L68.9348 22.7666L68.9347 22.7665L68.9347 22.7665C67.2521 21.3509 65.583 19.9467 63.8527 18.6032C63.0202 17.9608 62.049 17.4102 61.0778 17.1349C56.5832 15.7853 52.0697 14.4733 47.5614 13.1628L47.5614 13.1628L47.5613 13.1628L47.5609 13.1627L47.5606 13.1626C45.0181 12.4235 42.4772 11.6849 39.9424 10.9404C38.3237 10.4357 37.7225 9.38031 38.185 7.72845C38.2347 7.55606 38.2843 7.38219 38.3342 7.20738L38.3353 7.20381L38.3357 7.20207L38.3359 7.20162L38.3361 7.20098C38.5645 6.40075 38.7986 5.5809 39.0638 4.79182C39.5725 3.13996 40.5899 2.58935 42.3011 3.09408C44.5036 3.74013 46.6981 4.37832 48.888 5.01515C51.9863 5.91614 55.0752 6.81442 58.1642 7.72845C60.569 8.41673 62.9277 9.105 65.3326 9.83916C65.8413 9.97681 66.3501 10.2062 66.72 10.5274C68.177 11.6976 69.6224 12.8678 71.0678 14.038C72.5129 15.2079 73.958 16.3779 75.4147 17.5478C75.453 17.5668 75.4913 17.5937 75.5362 17.6252ZM69.2655 56.1716C69.3691 56.3069 69.4758 56.4461 69.5994 56.5686C69.5994 56.6678 69.6995 56.767 70 56.8662V57.1639C69.9499 57.2135 69.8998 57.288 69.8498 57.3624C69.7997 57.4368 69.7496 57.5112 69.6995 57.5608L68.7981 58.7515C67.496 60.1407 66.219 61.5298 64.942 62.919L64.9415 62.9195L64.9381 62.9231C63.6623 64.3109 62.3865 65.6987 61.0857 67.0865C58.8461 69.4398 56.6524 71.8386 54.4736 74.2212L54.4723 74.2226L54.4719 74.223L54.4716 74.2234L54.4702 74.2249L54.4688 74.2264L54.4674 74.2279C53.4328 75.3593 52.4015 76.4871 51.3702 77.6045C48.3654 80.7797 44.7596 82.3674 40.4527 82.3674H33.3414H24.1266C23.0249 82.2681 22.1234 82.665 21.3222 83.4588C19.1186 85.6418 16.8149 87.8248 14.6114 89.9085C14.4111 90.0574 14.2358 90.2062 14.0605 90.3551C13.8853 90.5039 13.71 90.6527 13.5097 90.8016L13.2092 91H12.8085C12.7585 90.9504 12.7084 90.9256 12.6583 90.9008C12.6082 90.876 12.5581 90.8512 12.5081 90.8016C12.2076 90.6031 11.9071 90.3055 11.6066 90.0078C10.21 88.476 8.78864 86.9196 7.36712 85.3631L7.36223 85.3577L7.36008 85.3554L7.35931 85.3545L7.35142 85.3459L7.34683 85.3409L7.34101 85.3345C5.91666 83.7749 4.49236 82.2154 3.093 80.6805L0.588994 77.9022C-0.212288 76.9099 -0.212288 76.513 0.689154 75.62L4.69556 71.6509C5.72689 70.6292 6.76927 69.6075 7.81535 68.5822C9.91867 66.5206 12.037 64.4443 14.1106 62.3237C16.1138 60.3392 18.5177 59.3469 21.4223 59.3469H36.246H42.8566C43.5577 59.3469 43.9584 59.4461 44.1587 59.6446C44.359 59.843 44.4592 60.2399 44.4592 60.8353C44.359 62.3237 43.9584 64.209 42.8566 65.6974C41.7548 67.1858 40.0521 67.9796 40.0521 67.9796C40.0521 67.9796 43.8582 67.9796 46.6627 65.3997L53.1731 58.95C53.5107 58.6155 53.8369 58.2811 54.1595 57.9504L54.1596 57.9502L54.1598 57.95L54.1601 57.9497C54.7942 57.2996 55.414 56.6642 56.0777 56.0724C59.5833 52.6987 65.0922 52.5003 68.7981 55.6755C68.975 55.7924 69.1172 55.978 69.2655 56.1716ZM2.5922 77.0091L13.0089 88.4201L18.3173 82.5658L8.20117 71.4525L2.5922 77.0091ZM65.9435 58.2554L65.9436 58.2553C65.9936 58.1809 66.0437 58.1065 66.0938 58.057L66.7949 56.9655L65.4928 56.3701C65.3926 56.3205 65.3175 56.2957 65.2424 56.2709C65.1673 56.2461 65.0921 56.2213 64.992 56.1717C62.0873 55.1794 59.383 55.7748 57.1795 57.9577L52.3718 62.7206L47.9648 67.0865C46.0617 68.9718 43.758 69.8649 41.0537 69.8649H26.5305C25.9295 69.8649 25.0281 69.7656 25.0281 68.7734C25.0281 68.4757 25.1282 68.2773 25.3286 68.0788C25.629 67.7811 26.0297 67.6819 26.5305 67.6819H29.0345H34.4431C35.1443 67.6819 35.6451 67.5827 36.1459 67.4834C38.6499 66.8881 40.4527 65.3997 41.4543 62.919L41.7548 61.7283L40.4527 61.6291H40.1523H35.7452H20.7212C18.8181 61.6291 17.2156 62.3237 15.8133 63.6136L11.9071 67.4834L10.3045 69.0711L9.90389 69.6664L10.2044 70.2618L10.7052 70.8571L19.4191 80.3828C19.8197 80.6805 20.3205 80.7797 20.621 80.7797H21.0217L22.2236 80.4821C22.4239 80.449 22.6242 80.4049 22.8245 80.3608C23.2252 80.2726 23.6258 80.1844 24.0265 80.1844H40.2524H40.3526C43.9584 80.1844 47.0633 78.8944 49.4672 76.2153C51.3188 74.1827 53.1704 72.1748 55.022 70.1669L55.0229 70.1659L55.0239 70.1649L55.0248 70.1639L55.0257 70.1629C56.8788 68.1535 58.7319 66.144 60.5849 64.1097L65.7933 58.4539C65.8434 58.4042 65.8934 58.3298 65.9435 58.2554ZM45.3533 50.2632C39.2486 50.2173 34.6237 45.4911 35.0862 39.4343C35.2249 37.8283 35.8725 36.1765 36.5199 34.6164C38.0461 31.0374 40.1735 27.8254 42.5784 24.797C44.3358 22.5946 46.3708 22.5946 48.1282 24.8429C50.9493 28.4678 53.4467 32.2763 54.9729 36.6353C57.1465 42.738 53.7704 48.6572 47.4345 50.0337C47.0025 50.1141 46.5862 50.1475 46.1858 50.1797H46.1857H46.1857H46.1857C45.9002 50.2027 45.6227 50.225 45.3533 50.2632ZM45.3995 26.0359C42.8559 28.8349 39.6648 34.2034 38.5086 37.4154C37.9536 38.9296 37.7686 40.4438 38.1849 42.0039C39.1098 45.3994 41.9309 47.2806 45.8158 47.2348C50.1168 47.143 53.4467 42.9675 52.4755 38.7919C51.8743 36.2224 50.6256 33.8822 49.2381 31.6798C48.1857 30.0332 47.0624 28.4218 45.8993 26.7533C45.7335 26.5154 45.5669 26.2764 45.3995 26.0359ZM99.5562 50.4932C98.5388 47.5566 95.9027 45.6753 92.2491 45.6753C91.9268 45.7464 91.5213 45.8174 91.0702 45.8965L91.0699 45.8965L91.0697 45.8966C90.3558 46.0217 89.5276 46.1668 88.7342 46.3636C85.3118 47.2813 83.1844 50.6309 83.6932 54.1181L84.2481 57.8348C85.1731 64.0752 86.098 70.2696 87.0692 76.51C87.4855 79.0795 89.6592 80.2725 92.0641 79.2172C94.2829 78.2311 96.5134 77.2565 98.7438 76.2819L98.7469 76.2806L98.75 76.2792C100.98 75.3046 103.211 74.33 105.43 73.3439C106.725 72.7474 106.956 72.1968 106.493 70.8203C106.07 69.5326 105.631 68.2601 105.194 66.9939L105.193 66.9921L105.193 66.9918L105.193 66.9898C104.867 66.0465 104.543 65.1067 104.227 64.1669C103.441 61.8956 102.666 59.6128 101.892 57.33C101.117 55.0473 100.342 52.7645 99.5562 50.4932ZM95.4333 69.0672L95.4342 69.0697L95.4359 69.0746C95.9758 70.6378 96.5195 72.2116 97.0588 73.8028C94.8852 74.7205 92.7578 75.6382 90.6304 76.6018C89.997 76.895 89.9419 76.3849 89.9019 76.0146C89.8981 75.9794 89.8944 75.9454 89.8904 75.9135C89.6129 74.3078 89.3817 72.7021 89.1505 71.0964L89.1504 71.0956C88.3197 65.5554 87.489 60.0609 86.6584 54.5665L86.6583 54.5659L86.653 54.5311C86.5883 54.082 86.5689 53.6104 86.5472 53.0851V53.0849V53.0849C86.5379 52.8589 86.5282 52.6229 86.5143 52.3745C89.0117 54.0723 91.0466 55.7241 91.9253 58.569C93.0144 62.065 94.2145 65.539 95.4333 69.0672ZM89.6553 50.9542C89.215 50.5938 88.7613 50.2223 88.2717 49.8509C89.1855 49.1019 90.2701 48.9963 91.32 48.8942C91.4922 48.8774 91.6634 48.8608 91.8328 48.8414C94.3765 48.4284 96.0414 49.4379 96.8739 51.8698C97.9144 54.9441 98.9666 58.0298 100.019 61.1156C101.071 64.2014 102.123 67.2871 103.164 70.3614C103.21 70.5908 103.256 70.7744 103.349 71.0497L103.338 71.0542C102.185 71.5574 101.032 72.0608 99.7875 72.6098C99.4178 71.5094 99.048 70.4548 98.6783 69.4003L98.6782 69.3998L98.678 69.3993L98.6775 69.3978C97.2901 65.4058 95.9026 61.4138 94.6077 57.4219C93.8215 55.0358 92.4803 53.1087 90.4454 51.5945C90.1837 51.3868 89.9219 51.1725 89.6553 50.9542ZM80.0849 34.8466C80.6861 34.8466 81.1949 35.3054 81.3798 36.0396L81.3814 36.0463L81.3815 36.0465C82.0747 38.935 82.7678 41.8234 83.461 44.7577C83.646 45.5378 83.1372 46.2719 82.4435 46.5013C81.6573 46.7308 80.8248 46.3178 80.6398 45.4919C79.8999 42.5552 79.2061 39.6186 78.5587 36.682C78.2812 35.6266 78.9287 34.8925 80.0849 34.8466ZM76.8948 31.8637C77.0798 32.5519 77.5886 32.8731 78.1898 32.9649C79.161 33.0108 79.9472 32.1849 79.7622 31.313C79.5772 30.2577 79.2997 29.2023 78.976 28.1929C78.6985 27.4128 77.9123 27.0457 77.1723 27.2293C76.4323 27.4128 75.9236 28.1929 76.1086 28.927C76.3399 29.8906 76.6173 30.9001 76.8948 31.8637Z" fill="black"/>
<path fill-rule="evenodd" clip-rule="evenodd" d="M119.073 79.3548C121.154 78.6206 122.726 77.4735 123.374 75.3169V75.3166C123.374 74.6284 123.374 73.9403 123.328 73.298C123.272 73.1765 123.216 73.0577 123.161 72.9403L123.161 72.9399C122.988 72.5695 122.821 72.2128 122.68 71.8297C118.425 61.4138 114.124 51.0438 109.823 40.6738C109.5 39.8938 109.546 39.389 110.147 38.7466C112.459 36.1312 112.182 33.1487 109.546 30.8544C104.602 26.6375 99.7054 22.4206 94.8083 18.2037L94.8076 18.2031L94.8069 18.2025L94.8062 18.2019L94.8054 18.2012L94.7926 18.1902C91.9715 15.7583 88.9654 15.9877 86.5605 18.7867C85.8669 19.6125 85.1733 20.3923 84.4798 21.1722L84.4793 21.1727C84.4263 21.1377 84.3801 21.1093 84.3406 21.0851C84.2766 21.0459 84.2304 21.0176 84.2018 20.9892C82.9125 19.9426 81.6195 18.8996 80.326 17.8562L80.3254 17.8557L80.3253 17.8556L80.3249 17.8553C77.0252 15.1937 73.7218 12.529 70.4661 9.79327C68.5699 8.1873 66.5813 6.9943 64.1764 6.44368C62.7805 6.10452 61.4022 5.67831 60.0198 5.25085C59.158 4.98433 58.2945 4.71733 57.4242 4.47063C56.5219 4.20633 55.6212 3.94204 54.7216 3.67804C50.7792 2.52119 46.8561 1.36999 42.9023 0.249215C39.8962 -0.622598 37.1213 0.845719 36.1963 3.82824C36.1348 4.02889 36.0732 4.22789 36.012 4.42586L36.0119 4.42618L36.0117 4.42676L36.0116 4.42718L36.0114 4.42779C35.7508 5.27037 35.4959 6.09437 35.2714 6.94841C34.3464 10.2062 35.8264 12.8676 39.11 13.8311C40.3894 14.2035 41.6703 14.5758 42.9523 14.9485L42.9579 14.9501C48.6252 16.5974 54.3119 18.2504 59.9678 19.9338C60.7078 20.1633 61.4478 20.5303 62.049 21.0351C64.6851 23.1458 67.275 25.3024 69.8187 27.459C70.2349 27.7802 70.5586 28.3308 70.6511 28.8355C71.5453 33.2712 72.3983 37.7069 73.2514 42.1425C73.6779 44.3602 74.1043 46.5778 74.536 48.7954L80.3632 78.8042C80.7794 80.8231 81.2882 82.7503 82.6756 84.3562C85.4042 87.4305 89.4741 88.2565 93.4977 86.5128C95.6715 85.5721 97.8338 84.6199 99.996 83.6677C102.158 82.7157 104.32 81.7637 106.493 80.8231C106.817 80.6855 107.326 80.6855 107.557 80.869C109.268 82.3373 111.164 82.5667 113.246 81.6949C113.893 81.4349 114.535 81.1647 115.178 80.8945C116.462 80.3541 117.747 79.8137 119.073 79.3548ZM72.9505 26.1063C72.8322 25.9141 72.7072 25.7113 72.5936 25.4859L72.9781 25.0736C74.5803 23.3559 76.2924 21.5203 78.0046 19.5668C79.0735 20.4098 80.11 21.2689 81.1429 22.1251L81.1432 22.1253L81.1433 22.1254L81.1434 22.1255L81.1435 22.1256L81.1436 22.1257C81.8533 22.7139 82.5612 23.3007 83.2769 23.8799C84.4793 24.8894 85.0805 24.8435 86.098 23.6964C86.7932 22.9439 87.4668 22.1701 88.1336 21.404L88.1339 21.4037L88.1346 21.4028C88.4434 21.0482 88.7506 20.6952 89.0579 20.3468C90.1216 19.1079 91.324 19.0161 92.5727 20.0715C97.6137 24.3847 102.655 28.6979 107.65 33.011C108.991 34.204 109.037 35.3512 107.881 36.7277C107.779 36.8429 107.678 36.9626 107.575 37.0839C107.349 37.3494 107.117 37.6229 106.863 37.8748C106.17 38.5631 106.123 39.2973 106.493 40.215C108.116 44.1056 109.723 48.0119 111.332 51.9247L111.333 51.9253L111.333 51.926L111.333 51.9267L111.333 51.9274C112.476 54.7049 113.62 57.4858 114.772 60.2667C115.8 62.7088 116.812 65.1667 117.826 67.631L117.827 67.6313L117.827 67.6316C118.547 69.3806 119.268 71.1328 119.998 72.885C120.692 74.6286 120.368 75.4546 118.61 76.1887C116.394 77.1052 114.131 78.0216 111.868 78.938L111.858 78.9418C110.702 79.4007 109.869 79.1254 109.222 78.07C108.575 77.0147 108.02 76.8311 106.863 77.3359C105.71 77.8432 104.559 78.3505 103.41 78.8572L103.41 78.8573L103.41 78.8574L103.409 78.8576L103.409 78.8577C99.6731 80.5048 95.9514 82.1457 92.2027 83.7597C89.7053 84.861 87.3467 84.5857 85.3118 82.7503C84.2943 81.8326 83.7856 80.5937 83.5081 79.263C82.6755 74.9264 81.8314 70.5783 80.9873 66.2302L80.9869 66.2282C80.1431 61.8818 79.2993 57.5353 78.467 53.2004C78.2379 52.0066 78.0087 50.812 77.7794 49.6167L77.778 49.6093C76.3419 42.1239 74.9011 34.6138 73.426 27.1378C73.366 26.7804 73.1695 26.4616 72.9505 26.1063ZM75.5362 17.6252C75.5997 17.6697 75.6763 17.7235 75.7846 17.7772C73.8896 19.7492 72.1331 21.6294 70.3767 23.5096L70.3736 23.5129C70.3274 23.5587 70.2812 23.5932 70.2349 23.6276C70.1887 23.662 70.1424 23.6964 70.0962 23.7423C69.7136 23.4217 69.3325 23.1012 68.9522 22.7812L68.9513 22.7805L68.9505 22.7798L68.9405 22.7714L68.935 22.7667L68.9348 22.7666L68.9348 22.7666L68.9347 22.7665L68.9347 22.7665C67.2521 21.3509 65.583 19.9467 63.8527 18.6032C63.0202 17.9608 62.049 17.4102 61.0778 17.1349C56.5832 15.7853 52.0697 14.4733 47.5614 13.1628L47.5614 13.1628L47.5613 13.1628L47.5609 13.1627L47.5606 13.1626C45.0181 12.4235 42.4772 11.6849 39.9424 10.9404C38.3237 10.4357 37.7225 9.38031 38.185 7.72845C38.2347 7.55606 38.2843 7.38219 38.3342 7.20738L38.3353 7.20381L38.3357 7.20207L38.3359 7.20162L38.3361 7.20098C38.5645 6.40075 38.7986 5.5809 39.0638 4.79182C39.5725 3.13996 40.5899 2.58935 42.3011 3.09408C44.5036 3.74013 46.6981 4.37832 48.888 5.01515C51.9863 5.91614 55.0752 6.81442 58.1642 7.72845C60.569 8.41673 62.9277 9.105 65.3326 9.83916C65.8413 9.97681 66.3501 10.2062 66.72 10.5274C68.177 11.6976 69.6224 12.8678 71.0678 14.038C72.5129 15.2079 73.958 16.3779 75.4147 17.5478C75.453 17.5668 75.4913 17.5937 75.5362 17.6252ZM69.2655 56.1716C69.3691 56.3069 69.4758 56.4461 69.5994 56.5686C69.5994 56.6678 69.6995 56.767 70 56.8662V57.1639C69.9499 57.2135 69.8998 57.288 69.8498 57.3624C69.7997 57.4368 69.7496 57.5112 69.6995 57.5608L68.7981 58.7515C67.496 60.1407 66.219 61.5298 64.942 62.919L64.9415 62.9195L64.9381 62.9231C63.6623 64.3109 62.3865 65.6987 61.0857 67.0865C58.8461 69.4398 56.6524 71.8386 54.4736 74.2212L54.4723 74.2226L54.4719 74.223L54.4716 74.2234L54.4702 74.2249L54.4688 74.2264L54.4674 74.2279C53.4328 75.3593 52.4015 76.4871 51.3702 77.6045C48.3654 80.7797 44.7596 82.3674 40.4527 82.3674H33.3414H24.1266C23.0249 82.2681 22.1234 82.665 21.3222 83.4588C19.1186 85.6418 16.8149 87.8248 14.6114 89.9085C14.4111 90.0574 14.2358 90.2062 14.0605 90.3551C13.8853 90.5039 13.71 90.6527 13.5097 90.8016L13.2092 91H12.8085C12.7585 90.9504 12.7084 90.9256 12.6583 90.9008C12.6082 90.876 12.5581 90.8512 12.5081 90.8016C12.2076 90.6031 11.9071 90.3055 11.6066 90.0078C10.21 88.476 8.78864 86.9196 7.36712 85.3631L7.36223 85.3577L7.36008 85.3554L7.35931 85.3545L7.35142 85.3459L7.34683 85.3409L7.34101 85.3345C5.91666 83.7749 4.49236 82.2154 3.093 80.6805L0.588994 77.9022C-0.212288 76.9099 -0.212288 76.513 0.689154 75.62L4.69556 71.6509C5.72689 70.6292 6.76927 69.6075 7.81535 68.5822C9.91867 66.5206 12.037 64.4443 14.1106 62.3237C16.1138 60.3392 18.5177 59.3469 21.4223 59.3469H36.246H42.8566C43.5577 59.3469 43.9584 59.4461 44.1587 59.6446C44.359 59.843 44.4592 60.2399 44.4592 60.8353C44.359 62.3237 43.9584 64.209 42.8566 65.6974C41.7548 67.1858 40.0521 67.9796 40.0521 67.9796C40.0521 67.9796 43.8582 67.9796 46.6627 65.3997L53.1731 58.95C53.5107 58.6155 53.8369 58.2811 54.1595 57.9504L54.1596 57.9502L54.1598 57.95L54.1601 57.9497C54.7942 57.2996 55.414 56.6642 56.0777 56.0724C59.5833 52.6987 65.0922 52.5003 68.7981 55.6755C68.975 55.7924 69.1172 55.978 69.2655 56.1716ZM2.5922 77.0091L13.0089 88.4201L18.3173 82.5658L8.20117 71.4525L2.5922 77.0091ZM65.9435 58.2554L65.9436 58.2553C65.9936 58.1809 66.0437 58.1065 66.0938 58.057L66.7949 56.9655L65.4928 56.3701C65.3926 56.3205 65.3175 56.2957 65.2424 56.2709C65.1673 56.2461 65.0921 56.2213 64.992 56.1717C62.0873 55.1794 59.383 55.7748 57.1795 57.9577L52.3718 62.7206L47.9648 67.0865C46.0617 68.9718 43.758 69.8649 41.0537 69.8649H26.5305C25.9295 69.8649 25.0281 69.7656 25.0281 68.7734C25.0281 68.4757 25.1282 68.2773 25.3286 68.0788C25.629 67.7811 26.0297 67.6819 26.5305 67.6819H29.0345H34.4431C35.1443 67.6819 35.6451 67.5827 36.1459 67.4834C38.6499 66.8881 40.4527 65.3997 41.4543 62.919L41.7548 61.7283L40.4527 61.6291H40.1523H35.7452H20.7212C18.8181 61.6291 17.2156 62.3237 15.8133 63.6136L11.9071 67.4834L10.3045 69.0711L9.90389 69.6664L10.2044 70.2618L10.7052 70.8571L19.4191 80.3828C19.8197 80.6805 20.3205 80.7797 20.621 80.7797H21.0217L22.2236 80.4821C22.4239 80.449 22.6242 80.4049 22.8245 80.3608C23.2252 80.2726 23.6258 80.1844 24.0265 80.1844H40.2524H40.3526C43.9584 80.1844 47.0633 78.8944 49.4672 76.2153C51.3188 74.1827 53.1704 72.1748 55.022 70.1669L55.0229 70.1659L55.0239 70.1649L55.0248 70.1639L55.0257 70.1629C56.8788 68.1535 58.7319 66.144 60.5849 64.1097L65.7933 58.4539C65.8434 58.4042 65.8934 58.3298 65.9435 58.2554ZM45.3533 50.2632C39.2486 50.2173 34.6237 45.4911 35.0862 39.4343C35.2249 37.8283 35.8725 36.1765 36.5199 34.6164C38.0461 31.0374 40.1735 27.8254 42.5784 24.797C44.3358 22.5946 46.3708 22.5946 48.1282 24.8429C50.9493 28.4678 53.4467 32.2763 54.9729 36.6353C57.1465 42.738 53.7704 48.6572 47.4345 50.0337C47.0025 50.1141 46.5862 50.1475 46.1858 50.1797H46.1857H46.1857H46.1857C45.9002 50.2027 45.6227 50.225 45.3533 50.2632ZM45.3995 26.0359C42.8559 28.8349 39.6648 34.2034 38.5086 37.4154C37.9536 38.9296 37.7686 40.4438 38.1849 42.0039C39.1098 45.3994 41.9309 47.2806 45.8158 47.2348C50.1168 47.143 53.4467 42.9675 52.4755 38.7919C51.8743 36.2224 50.6256 33.8822 49.2381 31.6798C48.1857 30.0332 47.0624 28.4218 45.8993 26.7533C45.7335 26.5154 45.5669 26.2764 45.3995 26.0359ZM99.5562 50.4932C98.5388 47.5566 95.9027 45.6753 92.2491 45.6753C91.9268 45.7464 91.5213 45.8174 91.0702 45.8965L91.0699 45.8965L91.0697 45.8966C90.3558 46.0217 89.5276 46.1668 88.7342 46.3636C85.3118 47.2813 83.1844 50.6309 83.6932 54.1181L84.2481 57.8348C85.1731 64.0752 86.098 70.2696 87.0692 76.51C87.4855 79.0795 89.6592 80.2725 92.0641 79.2172C94.2829 78.2311 96.5134 77.2565 98.7438 76.2819L98.7469 76.2806L98.75 76.2792C100.98 75.3046 103.211 74.33 105.43 73.3439C106.725 72.7474 106.956 72.1968 106.493 70.8203C106.07 69.5326 105.631 68.2601 105.194 66.9939L105.193 66.9921L105.193 66.9918L105.193 66.9898C104.867 66.0465 104.543 65.1067 104.227 64.1669C103.441 61.8956 102.666 59.6128 101.892 57.33C101.117 55.0473 100.342 52.7645 99.5562 50.4932ZM95.4333 69.0672L95.4342 69.0697L95.4359 69.0746C95.9758 70.6378 96.5195 72.2116 97.0588 73.8028C94.8852 74.7205 92.7578 75.6382 90.6304 76.6018C89.997 76.895 89.9419 76.3849 89.9019 76.0146C89.8981 75.9794 89.8944 75.9454 89.8904 75.9135C89.6129 74.3078 89.3817 72.7021 89.1505 71.0964L89.1504 71.0956C88.3197 65.5554 87.489 60.0609 86.6584 54.5665L86.6583 54.5659L86.653 54.5311C86.5883 54.082 86.5689 53.6104 86.5472 53.0851V53.0849V53.0849C86.5379 52.8589 86.5282 52.6229 86.5143 52.3745C89.0117 54.0723 91.0466 55.7241 91.9253 58.569C93.0144 62.065 94.2145 65.539 95.4333 69.0672ZM89.6553 50.9542C89.215 50.5938 88.7613 50.2223 88.2717 49.8509C89.1855 49.1019 90.2701 48.9963 91.32 48.8942C91.4922 48.8774 91.6634 48.8608 91.8328 48.8414C94.3765 48.4284 96.0414 49.4379 96.8739 51.8698C97.9144 54.9441 98.9666 58.0298 100.019 61.1156C101.071 64.2014 102.123 67.2871 103.164 70.3614C103.21 70.5908 103.256 70.7744 103.349 71.0497L103.338 71.0542C102.185 71.5574 101.032 72.0608 99.7875 72.6098C99.4178 71.5094 99.048 70.4548 98.6783 69.4003L98.6782 69.3998L98.678 69.3993L98.6775 69.3978C97.2901 65.4058 95.9026 61.4138 94.6077 57.4219C93.8215 55.0358 92.4803 53.1087 90.4454 51.5945C90.1837 51.3868 89.9219 51.1725 89.6553 50.9542ZM80.0849 34.8466C80.6861 34.8466 81.1949 35.3054 81.3798 36.0396L81.3814 36.0463L81.3815 36.0465C82.0747 38.935 82.7678 41.8234 83.461 44.7577C83.646 45.5378 83.1372 46.2719 82.4435 46.5013C81.6573 46.7308 80.8248 46.3178 80.6398 45.4919C79.8999 42.5552 79.2061 39.6186 78.5587 36.682C78.2812 35.6266 78.9287 34.8925 80.0849 34.8466ZM76.8948 31.8637C77.0798 32.5519 77.5886 32.8731 78.1898 32.9649C79.161 33.0108 79.9472 32.1849 79.7622 31.313C79.5772 30.2577 79.2997 29.2023 78.976 28.1929C78.6985 27.4128 77.9123 27.0457 77.1723 27.2293C76.4323 27.4128 75.9236 28.1929 76.1086 28.927C76.3399 29.8906 76.6173 30.9001 76.8948 31.8637Z" fill="url(#paint0_linear_27_1069)"/>
<path fill-rule="evenodd" clip-rule="evenodd" d="M119.073 79.3548C121.154 78.6206 122.726 77.4735 123.374 75.3169V75.3166C123.374 74.6284 123.374 73.9403 123.328 73.298C123.272 73.1765 123.216 73.0577 123.161 72.9403L123.161 72.9399C122.988 72.5695 122.821 72.2128 122.68 71.8297C118.425 61.4138 114.124 51.0438 109.823 40.6738C109.5 39.8938 109.546 39.389 110.147 38.7466C112.459 36.1312 112.182 33.1487 109.546 30.8544C104.602 26.6375 99.7054 22.4206 94.8083 18.2037L94.8076 18.2031L94.8069 18.2025L94.8062 18.2019L94.8054 18.2012L94.7926 18.1902C91.9715 15.7583 88.9654 15.9877 86.5605 18.7867C85.8669 19.6125 85.1733 20.3923 84.4798 21.1722L84.4793 21.1727C84.4263 21.1377 84.3801 21.1093 84.3406 21.0851C84.2766 21.0459 84.2304 21.0176 84.2018 20.9892C82.9125 19.9426 81.6195 18.8996 80.326 17.8562L80.3254 17.8557L80.3253 17.8556L80.3249 17.8553C77.0252 15.1937 73.7218 12.529 70.4661 9.79327C68.5699 8.1873 66.5813 6.9943 64.1764 6.44368C62.7805 6.10452 61.4022 5.67831 60.0198 5.25085C59.158 4.98433 58.2945 4.71733 57.4242 4.47063C56.5219 4.20633 55.6212 3.94204 54.7216 3.67804C50.7792 2.52119 46.8561 1.36999 42.9023 0.249215C39.8962 -0.622598 37.1213 0.845719 36.1963 3.82824C36.1348 4.02889 36.0732 4.22789 36.012 4.42586L36.0119 4.42618L36.0117 4.42676L36.0116 4.42718L36.0114 4.42779C35.7508 5.27037 35.4959 6.09437 35.2714 6.94841C34.3464 10.2062 35.8264 12.8676 39.11 13.8311C40.3894 14.2035 41.6703 14.5758 42.9523 14.9485L42.9579 14.9501C48.6252 16.5974 54.3119 18.2504 59.9678 19.9338C60.7078 20.1633 61.4478 20.5303 62.049 21.0351C64.6851 23.1458 67.275 25.3024 69.8187 27.459C70.2349 27.7802 70.5586 28.3308 70.6511 28.8355C71.5453 33.2712 72.3983 37.7069 73.2514 42.1425C73.6779 44.3602 74.1043 46.5778 74.536 48.7954L80.3632 78.8042C80.7794 80.8231 81.2882 82.7503 82.6756 84.3562C85.4042 87.4305 89.4741 88.2565 93.4977 86.5128C95.6715 85.5721 97.8338 84.6199 99.996 83.6677C102.158 82.7157 104.32 81.7637 106.493 80.8231C106.817 80.6855 107.326 80.6855 107.557 80.869C109.268 82.3373 111.164 82.5667 113.246 81.6949C113.893 81.4349 114.535 81.1647 115.178 80.8945C116.462 80.3541 117.747 79.8137 119.073 79.3548ZM72.9505 26.1063C72.8322 25.9141 72.7072 25.7113 72.5936 25.4859L72.9781 25.0736C74.5803 23.3559 76.2924 21.5203 78.0046 19.5668C79.0735 20.4098 80.11 21.2689 81.1429 22.1251L81.1432 22.1253L81.1433 22.1254L81.1434 22.1255L81.1435 22.1256L81.1436 22.1257C81.8533 22.7139 82.5612 23.3007 83.2769 23.8799C84.4793 24.8894 85.0805 24.8435 86.098 23.6964C86.7932 22.9439 87.4668 22.1701 88.1336 21.404L88.1339 21.4037L88.1346 21.4028C88.4434 21.0482 88.7506 20.6952 89.0579 20.3468C90.1216 19.1079 91.324 19.0161 92.5727 20.0715C97.6137 24.3847 102.655 28.6979 107.65 33.011C108.991 34.204 109.037 35.3512 107.881 36.7277C107.779 36.8429 107.678 36.9626 107.575 37.0839C107.349 37.3494 107.117 37.6229 106.863 37.8748C106.17 38.5631 106.123 39.2973 106.493 40.215C108.116 44.1056 109.723 48.0119 111.332 51.9247L111.333 51.9253L111.333 51.926L111.333 51.9267L111.333 51.9274C112.476 54.7049 113.62 57.4858 114.772 60.2667C115.8 62.7088 116.812 65.1667 117.826 67.631L117.827 67.6313L117.827 67.6316C118.547 69.3806 119.268 71.1328 119.998 72.885C120.692 74.6286 120.368 75.4546 118.61 76.1887C116.394 77.1052 114.131 78.0216 111.868 78.938L111.858 78.9418C110.702 79.4007 109.869 79.1254 109.222 78.07C108.575 77.0147 108.02 76.8311 106.863 77.3359C105.71 77.8432 104.559 78.3505 103.41 78.8572L103.41 78.8573L103.41 78.8574L103.409 78.8576L103.409 78.8577C99.6731 80.5048 95.9514 82.1457 92.2027 83.7597C89.7053 84.861 87.3467 84.5857 85.3118 82.7503C84.2943 81.8326 83.7856 80.5937 83.5081 79.263C82.6755 74.9264 81.8314 70.5783 80.9873 66.2302L80.9869 66.2282C80.1431 61.8818 79.2993 57.5353 78.467 53.2004C78.2379 52.0066 78.0087 50.812 77.7794 49.6167L77.778 49.6093C76.3419 42.1239 74.9011 34.6138 73.426 27.1378C73.366 26.7804 73.1695 26.4616 72.9505 26.1063ZM75.5362 17.6252C75.5997 17.6697 75.6763 17.7235 75.7846 17.7772C73.8896 19.7492 72.1331 21.6294 70.3767 23.5096L70.3736 23.5129C70.3274 23.5587 70.2812 23.5932 70.2349 23.6276C70.1887 23.662 70.1424 23.6964 70.0962 23.7423C69.7136 23.4217 69.3325 23.1012 68.9522 22.7812L68.9513 22.7805L68.9505 22.7798L68.9405 22.7714L68.935 22.7667L68.9348 22.7666L68.9348 22.7666L68.9347 22.7665L68.9347 22.7665C67.2521 21.3509 65.583 19.9467 63.8527 18.6032C63.0202 17.9608 62.049 17.4102 61.0778 17.1349C56.5832 15.7853 52.0697 14.4733 47.5614 13.1628L47.5614 13.1628L47.5613 13.1628L47.5609 13.1627L47.5606 13.1626C45.0181 12.4235 42.4772 11.6849 39.9424 10.9404C38.3237 10.4357 37.7225 9.38031 38.185 7.72845C38.2347 7.55606 38.2843 7.38219 38.3342 7.20738L38.3353 7.20381L38.3357 7.20207L38.3359 7.20162L38.3361 7.20098C38.5645 6.40075 38.7986 5.5809 39.0638 4.79182C39.5725 3.13996 40.5899 2.58935 42.3011 3.09408C44.5036 3.74013 46.6981 4.37832 48.888 5.01515C51.9863 5.91614 55.0752 6.81442 58.1642 7.72845C60.569 8.41673 62.9277 9.105 65.3326 9.83916C65.8413 9.97681 66.3501 10.2062 66.72 10.5274C68.177 11.6976 69.6224 12.8678 71.0678 14.038C72.5129 15.2079 73.958 16.3779 75.4147 17.5478C75.453 17.5668 75.4913 17.5937 75.5362 17.6252ZM69.2655 56.1716C69.3691 56.3069 69.4758 56.4461 69.5994 56.5686C69.5994 56.6678 69.6995 56.767 70 56.8662V57.1639C69.9499 57.2135 69.8998 57.288 69.8498 57.3624C69.7997 57.4368 69.7496 57.5112 69.6995 57.5608L68.7981 58.7515C67.496 60.1407 66.219 61.5298 64.942 62.919L64.9415 62.9195L64.9381 62.9231C63.6623 64.3109 62.3865 65.6987 61.0857 67.0865C58.8461 69.4398 56.6524 71.8386 54.4736 74.2212L54.4723 74.2226L54.4719 74.223L54.4716 74.2234L54.4702 74.2249L54.4688 74.2264L54.4674 74.2279C53.4328 75.3593 52.4015 76.4871 51.3702 77.6045C48.3654 80.7797 44.7596 82.3674 40.4527 82.3674H33.3414H24.1266C23.0249 82.2681 22.1234 82.665 21.3222 83.4588C19.1186 85.6418 16.8149 87.8248 14.6114 89.9085C14.4111 90.0574 14.2358 90.2062 14.0605 90.3551C13.8853 90.5039 13.71 90.6527 13.5097 90.8016L13.2092 91H12.8085C12.7585 90.9504 12.7084 90.9256 12.6583 90.9008C12.6082 90.876 12.5581 90.8512 12.5081 90.8016C12.2076 90.6031 11.9071 90.3055 11.6066 90.0078C10.21 88.476 8.78864 86.9196 7.36712 85.3631L7.36223 85.3577L7.36008 85.3554L7.35931 85.3545L7.35142 85.3459L7.34683 85.3409L7.34101 85.3345C5.91666 83.7749 4.49236 82.2154 3.093 80.6805L0.588994 77.9022C-0.212288 76.9099 -0.212288 76.513 0.689154 75.62L4.69556 71.6509C5.72689 70.6292 6.76927 69.6075 7.81535 68.5822C9.91867 66.5206 12.037 64.4443 14.1106 62.3237C16.1138 60.3392 18.5177 59.3469 21.4223 59.3469H36.246H42.8566C43.5577 59.3469 43.9584 59.4461 44.1587 59.6446C44.359 59.843 44.4592 60.2399 44.4592 60.8353C44.359 62.3237 43.9584 64.209 42.8566 65.6974C41.7548 67.1858 40.0521 67.9796 40.0521 67.9796C40.0521 67.9796 43.8582 67.9796 46.6627 65.3997L53.1731 58.95C53.5107 58.6155 53.8369 58.2811 54.1595 57.9504L54.1596 57.9502L54.1598 57.95L54.1601 57.9497C54.7942 57.2996 55.414 56.6642 56.0777 56.0724C59.5833 52.6987 65.0922 52.5003 68.7981 55.6755C68.975 55.7924 69.1172 55.978 69.2655 56.1716ZM2.5922 77.0091L13.0089 88.4201L18.3173 82.5658L8.20117 71.4525L2.5922 77.0091ZM65.9435 58.2554L65.9436 58.2553C65.9936 58.1809 66.0437 58.1065 66.0938 58.057L66.7949 56.9655L65.4928 56.3701C65.3926 56.3205 65.3175 56.2957 65.2424 56.2709C65.1673 56.2461 65.0921 56.2213 64.992 56.1717C62.0873 55.1794 59.383 55.7748 57.1795 57.9577L52.3718 62.7206L47.9648 67.0865C46.0617 68.9718 43.758 69.8649 41.0537 69.8649H26.5305C25.9295 69.8649 25.0281 69.7656 25.0281 68.7734C25.0281 68.4757 25.1282 68.2773 25.3286 68.0788C25.629 67.7811 26.0297 67.6819 26.5305 67.6819H29.0345H34.4431C35.1443 67.6819 35.6451 67.5827 36.1459 67.4834C38.6499 66.8881 40.4527 65.3997 41.4543 62.919L41.7548 61.7283L40.4527 61.6291H40.1523H35.7452H20.7212C18.8181 61.6291 17.2156 62.3237 15.8133 63.6136L11.9071 67.4834L10.3045 69.0711L9.90389 69.6664L10.2044 70.2618L10.7052 70.8571L19.4191 80.3828C19.8197 80.6805 20.3205 80.7797 20.621 80.7797H21.0217L22.2236 80.4821C22.4239 80.449 22.6242 80.4049 22.8245 80.3608C23.2252 80.2726 23.6258 80.1844 24.0265 80.1844H40.2524H40.3526C43.9584 80.1844 47.0633 78.8944 49.4672 76.2153C51.3188 74.1827 53.1704 72.1748 55.022 70.1669L55.0229 70.1659L55.0239 70.1649L55.0248 70.1639L55.0257 70.1629C56.8788 68.1535 58.7319 66.144 60.5849 64.1097L65.7933 58.4539C65.8434 58.4042 65.8934 58.3298 65.9435 58.2554ZM45.3533 50.2632C39.2486 50.2173 34.6237 45.4911 35.0862 39.4343C35.2249 37.8283 35.8725 36.1765 36.5199 34.6164C38.0461 31.0374 40.1735 27.8254 42.5784 24.797C44.3358 22.5946 46.3708 22.5946 48.1282 24.8429C50.9493 28.4678 53.4467 32.2763 54.9729 36.6353C57.1465 42.738 53.7704 48.6572 47.4345 50.0337C47.0025 50.1141 46.5862 50.1475 46.1858 50.1797H46.1857H46.1857H46.1857C45.9002 50.2027 45.6227 50.225 45.3533 50.2632ZM45.3995 26.0359C42.8559 28.8349 39.6648 34.2034 38.5086 37.4154C37.9536 38.9296 37.7686 40.4438 38.1849 42.0039C39.1098 45.3994 41.9309 47.2806 45.8158 47.2348C50.1168 47.143 53.4467 42.9675 52.4755 38.7919C51.8743 36.2224 50.6256 33.8822 49.2381 31.6798C48.1857 30.0332 47.0624 28.4218 45.8993 26.7533C45.7335 26.5154 45.5669 26.2764 45.3995 26.0359ZM99.5562 50.4932C98.5388 47.5566 95.9027 45.6753 92.2491 45.6753C91.9268 45.7464 91.5213 45.8174 91.0702 45.8965L91.0699 45.8965L91.0697 45.8966C90.3558 46.0217 89.5276 46.1668 88.7342 46.3636C85.3118 47.2813 83.1844 50.6309 83.6932 54.1181L84.2481 57.8348C85.1731 64.0752 86.098 70.2696 87.0692 76.51C87.4855 79.0795 89.6592 80.2725 92.0641 79.2172C94.2829 78.2311 96.5134 77.2565 98.7438 76.2819L98.7469 76.2806L98.75 76.2792C100.98 75.3046 103.211 74.33 105.43 73.3439C106.725 72.7474 106.956 72.1968 106.493 70.8203C106.07 69.5326 105.631 68.2601 105.194 66.9939L105.193 66.9921L105.193 66.9918L105.193 66.9898C104.867 66.0465 104.543 65.1067 104.227 64.1669C103.441 61.8956 102.666 59.6128 101.892 57.33C101.117 55.0473 100.342 52.7645 99.5562 50.4932ZM95.4333 69.0672L95.4342 69.0697L95.4359 69.0746C95.9758 70.6378 96.5195 72.2116 97.0588 73.8028C94.8852 74.7205 92.7578 75.6382 90.6304 76.6018C89.997 76.895 89.9419 76.3849 89.9019 76.0146C89.8981 75.9794 89.8944 75.9454 89.8904 75.9135C89.6129 74.3078 89.3817 72.7021 89.1505 71.0964L89.1504 71.0956C88.3197 65.5554 87.489 60.0609 86.6584 54.5665L86.6583 54.5659L86.653 54.5311C86.5883 54.082 86.5689 53.6104 86.5472 53.0851V53.0849V53.0849C86.5379 52.8589 86.5282 52.6229 86.5143 52.3745C89.0117 54.0723 91.0466 55.7241 91.9253 58.569C93.0144 62.065 94.2145 65.539 95.4333 69.0672ZM89.6553 50.9542C89.215 50.5938 88.7613 50.2223 88.2717 49.8509C89.1855 49.1019 90.2701 48.9963 91.32 48.8942C91.4922 48.8774 91.6634 48.8608 91.8328 48.8414C94.3765 48.4284 96.0414 49.4379 96.8739 51.8698C97.9144 54.9441 98.9666 58.0298 100.019 61.1156C101.071 64.2014 102.123 67.2871 103.164 70.3614C103.21 70.5908 103.256 70.7744 103.349 71.0497L103.338 71.0542C102.185 71.5574 101.032 72.0608 99.7875 72.6098C99.4178 71.5094 99.048 70.4548 98.6783 69.4003L98.6782 69.3998L98.678 69.3993L98.6775 69.3978C97.2901 65.4058 95.9026 61.4138 94.6077 57.4219C93.8215 55.0358 92.4803 53.1087 90.4454 51.5945C90.1837 51.3868 89.9219 51.1725 89.6553 50.9542ZM80.0849 34.8466C80.6861 34.8466 81.1949 35.3054 81.3798 36.0396L81.3814 36.0463L81.3815 36.0465C82.0747 38.935 82.7678 41.8234 83.461 44.7577C83.646 45.5378 83.1372 46.2719 82.4435 46.5013C81.6573 46.7308 80.8248 46.3178 80.6398 45.4919C79.8999 42.5552 79.2061 39.6186 78.5587 36.682C78.2812 35.6266 78.9287 34.8925 80.0849 34.8466ZM76.8948 31.8637C77.0798 32.5519 77.5886 32.8731 78.1898 32.9649C79.161 33.0108 79.9472 32.1849 79.7622 31.313C79.5772 30.2577 79.2997 29.2023 78.976 28.1929C78.6985 27.4128 77.9123 27.0457 77.1723 27.2293C76.4323 27.4128 75.9236 28.1929 76.1086 28.927C76.3399 29.8906 76.6173 30.9001 76.8948 31.8637Z" fill="url(#paint1_linear_27_1069)"/>
<defs>
<linearGradient id="paint0_linear_27_1069" x1="75.3836" y1="27.1827" x2="79.2228" y2="27.243" gradientUnits="userSpaceOnUse">
<stop stop-color="#37DADA"/>
<stop offset="1" stop-color="#254DB5"/>
</linearGradient>
<linearGradient id="paint1_linear_27_1069" x1="-22.7798" y1="-3.5168e-05" x2="104.474" y2="4.21069" gradientUnits="userSpaceOnUse">
<stop stop-color="#37DADA"/>
<stop offset="1" stop-color="#254DB5"/>
</linearGradient>
</defs>
</svg>
