<svg width="91" height="91" viewBox="0 0 91 91" fill="none" xmlns="http://www.w3.org/2000/svg">
<path fill-rule="evenodd" clip-rule="evenodd" d="M0.314065 65.222C0.213561 65.7077 0.113166 66.1929 0 66.6716V71.1101C0.0395584 71.3 0.0817539 71.4898 0.123949 71.6797C0.208341 72.0595 0.292732 72.4392 0.356025 72.819C2.27856 84.2355 14.1698 92.2105 25.5389 89.5759C32.3271 88.0569 37.2165 84.1406 40.3732 77.9695C40.5157 77.7084 40.753 77.3999 41.0141 77.3049C44.788 75.9283 46.1883 73.9345 46.1883 69.9233V37.8573V36.6231C46.4522 36.7412 46.708 36.847 46.9545 36.9491L46.9552 36.9494L46.9555 36.9495C47.5509 37.1959 48.092 37.4198 48.5618 37.7387C50.603 39.0916 51.6711 41.0141 51.766 43.4588C51.7898 44.1234 52.0271 44.7642 52.7155 44.8829C53.1664 44.9778 53.7835 44.8354 54.1395 44.5506C54.4244 44.2895 54.5193 43.7199 54.5668 43.2689C54.8516 40.3258 56.2994 38.1896 59.0527 37.0978C61.8534 36.006 64.4168 36.5756 66.5767 38.6643C67.9296 39.9698 68.5942 41.6075 68.6654 43.5063C68.6891 44.4319 69.3062 45.049 70.0657 45.049C70.849 45.0728 71.3712 44.4557 71.4661 43.53C71.5136 42.9604 71.5848 42.367 71.7509 41.7973C72.6528 38.5457 75.7859 36.3146 79.0138 36.6231C82.669 36.9791 85.2799 39.6375 85.541 43.2927C85.6122 44.4319 86.1581 45.0728 87.0125 45.049C87.867 45.0253 88.3417 44.3845 88.3417 43.2214C88.318 37.7149 87.3686 32.3745 85.2087 27.319C78.9901 12.7457 68.0483 3.89254 52.5493 0.71205C51.5105 0.491702 50.4613 0.354849 49.4155 0.218441C48.8842 0.149142 48.3538 0.0799583 47.826 0H41.6075C41.3464 0.0395584 41.0853 0.0817539 40.8242 0.123949C40.302 0.208341 39.7799 0.292732 39.2577 0.356025C31.4726 1.32916 24.4945 4.22483 18.2522 8.9481C17.0655 9.85003 15.9499 10.8232 14.8581 11.82C14.1223 12.4846 14.0749 13.2204 14.6208 13.8612C15.1667 14.4784 15.9025 14.5021 16.662 13.9087C16.8044 13.79 16.9468 13.6714 17.0655 13.5527C20.3172 10.5383 23.9961 8.14111 28.0548 6.33725C29.0089 5.90357 30.001 5.53329 31.0219 5.15226C31.3978 5.01195 31.7777 4.87019 32.1609 4.72327C31.6809 5.26779 31.1987 5.79501 30.7222 6.31603L30.722 6.31618L30.722 6.31621L30.722 6.31624L30.7219 6.31627C29.6199 7.52116 28.5483 8.69288 27.6038 9.9687C22.216 17.2554 19.7001 25.6575 18.4421 34.5344C18.3767 34.9792 18.3257 35.4168 18.2732 35.867L18.2732 35.8672C18.2305 36.2338 18.1868 36.6088 18.1335 37.0029C13.2679 33.0629 10.7994 32.8967 4.55712 35.9823C4.56651 35.8884 4.56847 35.7982 4.57035 35.7117C4.57322 35.5796 4.5759 35.4562 4.60459 35.3414C5.83881 29.4314 8.25978 24.0673 11.8675 19.2254C11.9023 19.1818 11.9371 19.1391 11.9717 19.0968C12.1254 18.9081 12.2734 18.7265 12.3897 18.5133C12.7694 17.8725 12.627 17.1129 12.0574 16.6857C11.4877 16.2347 10.7757 16.2822 10.2298 16.8519C9.98667 17.095 9.77814 17.39 9.57468 17.6778C9.53977 17.7272 9.50502 17.7763 9.47027 17.825C3.91628 25.4677 1.04434 34.0123 1.02061 43.4825C1.02061 44.4082 1.56651 45.0253 2.34977 45.049C3.10929 45.0728 3.67893 44.5269 3.7976 43.6487C3.8332 43.4469 3.84507 43.2392 3.85694 43.0316C3.86881 42.8239 3.88067 42.6162 3.91628 42.4145C4.60459 38.9491 7.78508 36.4095 11.1792 36.6231C14.8581 36.8367 17.7063 39.6849 17.9199 43.3876C17.9911 44.4557 18.5133 45.0965 19.344 45.0728C20.1748 45.049 20.6732 44.3845 20.7444 43.3401C20.9343 40.3732 22.4296 38.2371 25.1591 37.1453C27.9124 36.0297 30.452 36.5756 32.6356 38.5931C34.0597 39.8985 34.7718 41.56 34.8193 43.4825C34.843 44.2183 35.1278 44.8592 35.8636 44.9304C36.3383 44.9778 36.9317 44.7168 37.3114 44.4082C37.5488 44.2183 37.5962 43.6724 37.62 43.2689C37.8099 40.0884 40.3258 37.169 43.2926 36.8605V37.9285V58.8153V70.4455C43.2926 71.7747 42.9604 72.9851 41.7499 73.9108C41.7973 73.5548 41.8448 73.2937 41.8923 73.0327L41.8923 73.0326C43.0078 67.5973 42.0584 62.518 39.234 57.771C37.9997 55.7298 36.4332 53.9497 34.5819 52.4544C33.8936 51.9085 33.1341 51.9797 32.6119 52.573C32.0897 53.1427 32.1609 53.9734 32.7543 54.5668C32.8374 54.6498 32.9323 54.727 33.0272 54.8041L33.0273 54.8041L33.0273 54.8042C33.1222 54.8813 33.2172 54.9584 33.3002 55.0415C38.1896 59.5274 40.3495 65.1051 39.3526 71.656C37.7387 82.2181 27.8649 89.0063 17.469 86.9413C7.69014 84.9951 1.09181 75.145 3.06182 65.4612C5.41158 53.8785 17.1841 47.4937 28.1972 51.861C29.289 52.2882 30.0248 52.0746 30.3808 51.2439C30.7368 50.4132 30.3571 49.7011 29.289 49.2739C25.9424 47.921 22.4771 47.4225 18.8693 47.8023C10.5146 48.7042 3.27543 54.6855 0.90193 62.7316C0.661451 63.5432 0.487595 64.3834 0.314065 65.222ZM51.6583 35.9384C51.6529 36.1833 51.6474 36.4347 51.6474 36.6943C47.8735 33.229 42.2008 32.6831 37.6437 36.7181C37.6644 36.2023 37.679 35.6966 37.6935 35.1979V35.1977C37.7289 33.9751 37.7631 32.7951 37.8811 31.615C37.9372 31.0317 37.993 30.448 38.0487 29.8641L38.0497 29.8539L38.0497 29.8535C38.4179 25.9975 38.7871 22.1307 39.2814 18.2997C39.8036 14.2885 40.6343 10.3247 42.1059 6.52713C42.154 6.41333 42.2014 6.29791 42.249 6.18192C42.4594 5.66894 42.6744 5.14477 42.9841 4.69953C43.3006 4.25648 43.6909 3.86616 44.0847 3.47234C44.2816 3.27543 44.4794 3.07764 44.6693 2.87194C44.849 3.05913 45.0476 3.23688 45.2465 3.41487C45.678 3.80106 46.1108 4.18838 46.3545 4.6758C47.0665 6.07616 47.6599 7.524 48.1109 9.0193C49.5824 13.9324 50.3657 18.9643 50.8404 24.0673C51.0787 26.5695 51.256 29.0839 51.4335 31.6018C51.5035 32.5948 51.5735 33.5884 51.6474 34.5819C51.6786 35.0193 51.6687 35.467 51.6583 35.9384ZM39.245 3.90506C39.56 3.7685 39.8741 3.63237 40.1834 3.48905C38.1184 8.30725 37.0741 13.2679 36.4807 18.2997C35.9952 22.5016 35.6514 26.7271 35.3078 30.9513L35.3078 30.9514L35.3077 30.9515C35.1642 32.7163 35.0206 34.4809 34.8667 36.2434C34.862 36.2718 34.8572 36.2993 34.8525 36.3269C34.8335 36.437 34.8145 36.5471 34.7955 36.7181C30.3096 33.0154 25.8 32.8967 20.9817 36.4807C21.0893 35.8023 21.1853 35.1498 21.2788 34.5143C21.4536 33.3265 21.6197 32.1978 21.8362 31.0691C22.9992 24.993 24.9692 19.2016 28.2684 13.9087C30.5707 10.2061 33.3952 7.02556 37.2402 4.86568C37.8879 4.49328 38.5687 4.19819 39.2449 3.90508L39.245 3.90506ZM68.3364 36.1223L68.3806 36.457C63.0164 32.8967 60.1445 32.9679 54.5905 36.6943C54.5463 35.9968 54.503 35.2993 54.4598 34.6019C53.8073 24.0742 53.1562 13.5686 49.0603 3.41784C49.4568 3.60851 49.8461 3.78447 50.2272 3.95675C51.0321 4.32063 51.8007 4.6681 52.5256 5.10303C56.157 7.23918 58.8628 10.301 61.0702 13.8375C64.7491 19.7238 66.7903 26.1797 67.8821 32.9917C68.0549 33.9853 68.1884 34.9987 68.3363 36.1211L68.3364 36.1223ZM74.9551 16.1873C80.0819 21.8125 83.3336 28.4108 84.8052 35.9823C78.9664 32.873 75.9283 33.0866 71.205 36.9791C71.159 36.6199 71.1165 36.2713 71.0748 35.9293C71.0091 35.3902 70.9453 34.8674 70.8727 34.3446C69.686 25.8474 67.2887 17.7775 62.2569 10.6808C61.2188 9.20724 60.0152 7.85185 58.813 6.49792L58.8129 6.49787L58.8129 6.49782C58.311 5.93261 57.8093 5.36766 57.32 4.79447C64.132 7.02556 70.0657 10.7994 74.9551 16.1873ZM79.3225 78.0168H72.914C72.914 77.6608 72.914 77.3522 72.8428 77.0437V69.496C72.8428 68.8314 72.653 68.238 71.9884 68.0956C71.5374 68.0006 71.039 68.1431 70.588 68.2855C70.4219 68.3329 70.3032 68.6178 70.3269 68.594C70.0853 68.5054 69.8628 68.4032 69.653 68.3067C69.2444 68.1189 68.8837 67.9532 68.5231 67.9532C63.9422 67.9057 59.3376 67.9057 54.7568 67.9294C53.1665 67.9294 52.0272 69.0687 52.0035 70.659C51.9877 72.0664 51.993 73.4843 51.9982 74.9058V74.9062V74.9067C52.0009 75.6184 52.0035 76.3311 52.0035 77.0437V78.0643H50.7456C49.0841 78.1118 47.9211 79.1561 47.8736 80.8176C47.8024 83.3335 47.8024 85.8494 47.8736 88.3653C47.9211 90.003 49.0841 90.9999 50.7218 90.9999H84.022C85.7072 90.9999 86.8228 89.8843 86.8465 88.1754V83.5471V80.865H88.0332C89.8846 80.8413 90.9527 79.7732 90.9527 77.9456V70.7539C90.9527 69.0687 89.8608 67.9294 88.1282 67.9294H76.0471C75.0027 67.9294 74.3381 68.4753 74.3144 69.3061C74.3144 70.1605 75.0027 70.7302 76.0945 70.7302H79.3225V78.0168ZM63.7286 78.0406V70.8488C64.5901 70.6746 65.4595 70.7096 66.3271 70.7445H66.3271C67.587 70.7952 68.843 70.8458 70.0658 70.2555V78.0406H63.7286ZM59.5987 88.2229V80.9125H65.9122V88.2229H59.5987ZM75.1451 88.2229H68.8079V80.9125H75.1451V88.2229ZM60.8329 70.8014V78.0406H54.828V70.8014H60.8329ZM88.1994 70.7302V78.0168H82.2182V70.7302H88.1994ZM56.6556 80.9362V88.2703H50.6981V80.9362H56.6556ZM84.022 88.1517H78.0171V80.9362H84.022V88.1517ZM21.1717 53.2613C29.9299 53.3325 37.0029 60.5717 36.7418 69.2587C36.6706 71.9645 35.9348 74.5041 34.5345 76.8301C33.9174 77.827 33.2053 78.1356 32.4458 77.7083C31.6625 77.2811 31.5439 76.4267 32.1372 75.4061C36.4807 67.8583 32.6119 58.6017 24.2572 56.4418C16.8281 54.543 9.28042 59.7409 8.49716 67.3836C7.95126 72.8427 10.0874 77.115 14.7632 79.8682C19.4865 82.6452 24.2572 82.218 28.7906 79.1087C28.8518 79.0659 28.913 79.0199 28.9746 78.9735L28.9747 78.9735C29.152 78.8402 29.3327 78.7045 29.5264 78.634C30.2147 78.3729 30.8081 78.5153 31.2353 79.1324C31.6625 79.7258 31.5201 80.4853 30.8793 81.0312C29.0279 82.5503 26.8918 83.5709 24.542 84.0693C15.5939 85.9681 7.21547 80.2005 5.72017 71.11C4.39101 62.9214 10.4672 54.6379 18.6795 53.5224C19.1779 53.4512 19.6763 53.4056 20.1748 53.36C20.5071 53.3296 20.8394 53.2993 21.1717 53.2613ZM27.4365 61.1532C27.4365 61.6585 27.0771 62.0195 26.5741 62.0195H23.1243C23.4837 62.5248 23.7712 63.1023 23.9149 63.752H26.5741C27.0771 63.752 27.4365 64.113 27.4365 64.6183C27.4365 65.1237 27.0771 65.4846 26.5741 65.4846H23.9149C23.4837 67.4338 21.7588 68.9498 19.6746 68.9498H17.9498L23.9149 75.9523C24.2742 76.3133 24.2024 76.8908 23.843 77.1796C23.6993 77.3239 23.4837 77.3961 23.2681 77.3961C23.0525 77.3961 22.765 77.3239 22.6213 77.1074L15.4343 68.661C15.2187 68.3723 15.1469 68.0113 15.2906 67.7225C15.4343 67.4338 15.7218 67.2172 16.0812 67.2172H19.6746C20.8245 67.2172 21.7588 66.4953 22.1182 65.4846H16.5124C16.0093 65.4846 15.65 65.1237 15.65 64.6183C15.65 64.113 16.0093 63.752 16.5124 63.752H22.1182C21.7588 62.7414 20.8245 62.0195 19.6746 62.0195H15.5781C15.075 62.0195 14.7157 61.6585 14.7157 61.1532C14.7157 60.6478 15.075 60.2869 15.5781 60.2869H26.5741C27.0771 60.2869 27.4365 60.6478 27.4365 61.1532Z" fill="#5EC3EA"/>
<path fill-rule="evenodd" clip-rule="evenodd" d="M0.314065 65.222C0.213561 65.7077 0.113166 66.1929 0 66.6716V71.1101C0.0395584 71.3 0.0817539 71.4898 0.123949 71.6797C0.208341 72.0595 0.292732 72.4392 0.356025 72.819C2.27856 84.2355 14.1698 92.2105 25.5389 89.5759C32.3271 88.0569 37.2165 84.1406 40.3732 77.9695C40.5157 77.7084 40.753 77.3999 41.0141 77.3049C44.788 75.9283 46.1883 73.9345 46.1883 69.9233V37.8573V36.6231C46.4522 36.7412 46.708 36.847 46.9545 36.9491L46.9552 36.9494L46.9555 36.9495C47.5509 37.1959 48.092 37.4198 48.5618 37.7387C50.603 39.0916 51.6711 41.0141 51.766 43.4588C51.7898 44.1234 52.0271 44.7642 52.7155 44.8829C53.1664 44.9778 53.7835 44.8354 54.1395 44.5506C54.4244 44.2895 54.5193 43.7199 54.5668 43.2689C54.8516 40.3258 56.2994 38.1896 59.0527 37.0978C61.8534 36.006 64.4168 36.5756 66.5767 38.6643C67.9296 39.9698 68.5942 41.6075 68.6654 43.5063C68.6891 44.4319 69.3062 45.049 70.0657 45.049C70.849 45.0728 71.3712 44.4557 71.4661 43.53C71.5136 42.9604 71.5848 42.367 71.7509 41.7973C72.6528 38.5457 75.7859 36.3146 79.0138 36.6231C82.669 36.9791 85.2799 39.6375 85.541 43.2927C85.6122 44.4319 86.1581 45.0728 87.0125 45.049C87.867 45.0253 88.3417 44.3845 88.3417 43.2214C88.318 37.7149 87.3686 32.3745 85.2087 27.319C78.9901 12.7457 68.0483 3.89254 52.5493 0.71205C51.5105 0.491702 50.4613 0.354849 49.4155 0.218441C48.8842 0.149142 48.3538 0.0799583 47.826 0H41.6075C41.3464 0.0395584 41.0853 0.0817539 40.8242 0.123949C40.302 0.208341 39.7799 0.292732 39.2577 0.356025C31.4726 1.32916 24.4945 4.22483 18.2522 8.9481C17.0655 9.85003 15.9499 10.8232 14.8581 11.82C14.1223 12.4846 14.0749 13.2204 14.6208 13.8612C15.1667 14.4784 15.9025 14.5021 16.662 13.9087C16.8044 13.79 16.9468 13.6714 17.0655 13.5527C20.3172 10.5383 23.9961 8.14111 28.0548 6.33725C29.0089 5.90357 30.001 5.53329 31.0219 5.15226C31.3978 5.01195 31.7777 4.87019 32.1609 4.72327C31.6809 5.26779 31.1987 5.79501 30.7222 6.31603L30.722 6.31618L30.722 6.31621L30.722 6.31624L30.7219 6.31627C29.6199 7.52116 28.5483 8.69288 27.6038 9.9687C22.216 17.2554 19.7001 25.6575 18.4421 34.5344C18.3767 34.9792 18.3257 35.4168 18.2732 35.867L18.2732 35.8672C18.2305 36.2338 18.1868 36.6088 18.1335 37.0029C13.2679 33.0629 10.7994 32.8967 4.55712 35.9823C4.56651 35.8884 4.56847 35.7982 4.57035 35.7117C4.57322 35.5796 4.5759 35.4562 4.60459 35.3414C5.83881 29.4314 8.25978 24.0673 11.8675 19.2254C11.9023 19.1818 11.9371 19.1391 11.9717 19.0968C12.1254 18.9081 12.2734 18.7265 12.3897 18.5133C12.7694 17.8725 12.627 17.1129 12.0574 16.6857C11.4877 16.2347 10.7757 16.2822 10.2298 16.8519C9.98667 17.095 9.77814 17.39 9.57468 17.6778C9.53977 17.7272 9.50502 17.7763 9.47027 17.825C3.91628 25.4677 1.04434 34.0123 1.02061 43.4825C1.02061 44.4082 1.56651 45.0253 2.34977 45.049C3.10929 45.0728 3.67893 44.5269 3.7976 43.6487C3.8332 43.4469 3.84507 43.2392 3.85694 43.0316C3.86881 42.8239 3.88067 42.6162 3.91628 42.4145C4.60459 38.9491 7.78508 36.4095 11.1792 36.6231C14.8581 36.8367 17.7063 39.6849 17.9199 43.3876C17.9911 44.4557 18.5133 45.0965 19.344 45.0728C20.1748 45.049 20.6732 44.3845 20.7444 43.3401C20.9343 40.3732 22.4296 38.2371 25.1591 37.1453C27.9124 36.0297 30.452 36.5756 32.6356 38.5931C34.0597 39.8985 34.7718 41.56 34.8193 43.4825C34.843 44.2183 35.1278 44.8592 35.8636 44.9304C36.3383 44.9778 36.9317 44.7168 37.3114 44.4082C37.5488 44.2183 37.5962 43.6724 37.62 43.2689C37.8099 40.0884 40.3258 37.169 43.2926 36.8605V37.9285V58.8153V70.4455C43.2926 71.7747 42.9604 72.9851 41.7499 73.9108C41.7973 73.5548 41.8448 73.2937 41.8923 73.0327L41.8923 73.0326C43.0078 67.5973 42.0584 62.518 39.234 57.771C37.9997 55.7298 36.4332 53.9497 34.5819 52.4544C33.8936 51.9085 33.1341 51.9797 32.6119 52.573C32.0897 53.1427 32.1609 53.9734 32.7543 54.5668C32.8374 54.6498 32.9323 54.727 33.0272 54.8041L33.0273 54.8041L33.0273 54.8042C33.1222 54.8813 33.2172 54.9584 33.3002 55.0415C38.1896 59.5274 40.3495 65.1051 39.3526 71.656C37.7387 82.2181 27.8649 89.0063 17.469 86.9413C7.69014 84.9951 1.09181 75.145 3.06182 65.4612C5.41158 53.8785 17.1841 47.4937 28.1972 51.861C29.289 52.2882 30.0248 52.0746 30.3808 51.2439C30.7368 50.4132 30.3571 49.7011 29.289 49.2739C25.9424 47.921 22.4771 47.4225 18.8693 47.8023C10.5146 48.7042 3.27543 54.6855 0.90193 62.7316C0.661451 63.5432 0.487595 64.3834 0.314065 65.222ZM51.6583 35.9384C51.6529 36.1833 51.6474 36.4347 51.6474 36.6943C47.8735 33.229 42.2008 32.6831 37.6437 36.7181C37.6644 36.2023 37.679 35.6966 37.6935 35.1979V35.1977C37.7289 33.9751 37.7631 32.7951 37.8811 31.615C37.9372 31.0317 37.993 30.448 38.0487 29.8641L38.0497 29.8539L38.0497 29.8535C38.4179 25.9975 38.7871 22.1307 39.2814 18.2997C39.8036 14.2885 40.6343 10.3247 42.1059 6.52713C42.154 6.41333 42.2014 6.29791 42.249 6.18192C42.4594 5.66894 42.6744 5.14477 42.9841 4.69953C43.3006 4.25648 43.6909 3.86616 44.0847 3.47234C44.2816 3.27543 44.4794 3.07764 44.6693 2.87194C44.849 3.05913 45.0476 3.23688 45.2465 3.41487C45.678 3.80106 46.1108 4.18838 46.3545 4.6758C47.0665 6.07616 47.6599 7.524 48.1109 9.0193C49.5824 13.9324 50.3657 18.9643 50.8404 24.0673C51.0787 26.5695 51.256 29.0839 51.4335 31.6018C51.5035 32.5948 51.5735 33.5884 51.6474 34.5819C51.6786 35.0193 51.6687 35.467 51.6583 35.9384ZM39.245 3.90506C39.56 3.7685 39.8741 3.63237 40.1834 3.48905C38.1184 8.30725 37.0741 13.2679 36.4807 18.2997C35.9952 22.5016 35.6514 26.7271 35.3078 30.9513L35.3078 30.9514L35.3077 30.9515C35.1642 32.7163 35.0206 34.4809 34.8667 36.2434C34.862 36.2718 34.8572 36.2993 34.8525 36.3269C34.8335 36.437 34.8145 36.5471 34.7955 36.7181C30.3096 33.0154 25.8 32.8967 20.9817 36.4807C21.0893 35.8023 21.1853 35.1498 21.2788 34.5143C21.4536 33.3265 21.6197 32.1978 21.8362 31.0691C22.9992 24.993 24.9692 19.2016 28.2684 13.9087C30.5707 10.2061 33.3952 7.02556 37.2402 4.86568C37.8879 4.49328 38.5687 4.19819 39.2449 3.90508L39.245 3.90506ZM68.3364 36.1223L68.3806 36.457C63.0164 32.8967 60.1445 32.9679 54.5905 36.6943C54.5463 35.9968 54.503 35.2993 54.4598 34.6019C53.8073 24.0742 53.1562 13.5686 49.0603 3.41784C49.4568 3.60851 49.8461 3.78447 50.2272 3.95675C51.0321 4.32063 51.8007 4.6681 52.5256 5.10303C56.157 7.23918 58.8628 10.301 61.0702 13.8375C64.7491 19.7238 66.7903 26.1797 67.8821 32.9917C68.0549 33.9853 68.1884 34.9987 68.3363 36.1211L68.3364 36.1223ZM74.9551 16.1873C80.0819 21.8125 83.3336 28.4108 84.8052 35.9823C78.9664 32.873 75.9283 33.0866 71.205 36.9791C71.159 36.6199 71.1165 36.2713 71.0748 35.9293C71.0091 35.3902 70.9453 34.8674 70.8727 34.3446C69.686 25.8474 67.2887 17.7775 62.2569 10.6808C61.2188 9.20724 60.0152 7.85185 58.813 6.49792L58.8129 6.49787L58.8129 6.49782C58.311 5.93261 57.8093 5.36766 57.32 4.79447C64.132 7.02556 70.0657 10.7994 74.9551 16.1873ZM79.3225 78.0168H72.914C72.914 77.6608 72.914 77.3522 72.8428 77.0437V69.496C72.8428 68.8314 72.653 68.238 71.9884 68.0956C71.5374 68.0006 71.039 68.1431 70.588 68.2855C70.4219 68.3329 70.3032 68.6178 70.3269 68.594C70.0853 68.5054 69.8628 68.4032 69.653 68.3067C69.2444 68.1189 68.8837 67.9532 68.5231 67.9532C63.9422 67.9057 59.3376 67.9057 54.7568 67.9294C53.1665 67.9294 52.0272 69.0687 52.0035 70.659C51.9877 72.0664 51.993 73.4843 51.9982 74.9058V74.9062V74.9067C52.0009 75.6184 52.0035 76.3311 52.0035 77.0437V78.0643H50.7456C49.0841 78.1118 47.9211 79.1561 47.8736 80.8176C47.8024 83.3335 47.8024 85.8494 47.8736 88.3653C47.9211 90.003 49.0841 90.9999 50.7218 90.9999H84.022C85.7072 90.9999 86.8228 89.8843 86.8465 88.1754V83.5471V80.865H88.0332C89.8846 80.8413 90.9527 79.7732 90.9527 77.9456V70.7539C90.9527 69.0687 89.8608 67.9294 88.1282 67.9294H76.0471C75.0027 67.9294 74.3381 68.4753 74.3144 69.3061C74.3144 70.1605 75.0027 70.7302 76.0945 70.7302H79.3225V78.0168ZM63.7286 78.0406V70.8488C64.5901 70.6746 65.4595 70.7096 66.3271 70.7445H66.3271C67.587 70.7952 68.843 70.8458 70.0658 70.2555V78.0406H63.7286ZM59.5987 88.2229V80.9125H65.9122V88.2229H59.5987ZM75.1451 88.2229H68.8079V80.9125H75.1451V88.2229ZM60.8329 70.8014V78.0406H54.828V70.8014H60.8329ZM88.1994 70.7302V78.0168H82.2182V70.7302H88.1994ZM56.6556 80.9362V88.2703H50.6981V80.9362H56.6556ZM84.022 88.1517H78.0171V80.9362H84.022V88.1517ZM21.1717 53.2613C29.9299 53.3325 37.0029 60.5717 36.7418 69.2587C36.6706 71.9645 35.9348 74.5041 34.5345 76.8301C33.9174 77.827 33.2053 78.1356 32.4458 77.7083C31.6625 77.2811 31.5439 76.4267 32.1372 75.4061C36.4807 67.8583 32.6119 58.6017 24.2572 56.4418C16.8281 54.543 9.28042 59.7409 8.49716 67.3836C7.95126 72.8427 10.0874 77.115 14.7632 79.8682C19.4865 82.6452 24.2572 82.218 28.7906 79.1087C28.8518 79.0659 28.913 79.0199 28.9746 78.9735L28.9747 78.9735C29.152 78.8402 29.3327 78.7045 29.5264 78.634C30.2147 78.3729 30.8081 78.5153 31.2353 79.1324C31.6625 79.7258 31.5201 80.4853 30.8793 81.0312C29.0279 82.5503 26.8918 83.5709 24.542 84.0693C15.5939 85.9681 7.21547 80.2005 5.72017 71.11C4.39101 62.9214 10.4672 54.6379 18.6795 53.5224C19.1779 53.4512 19.6763 53.4056 20.1748 53.36C20.5071 53.3296 20.8394 53.2993 21.1717 53.2613ZM27.4365 61.1532C27.4365 61.6585 27.0771 62.0195 26.5741 62.0195H23.1243C23.4837 62.5248 23.7712 63.1023 23.9149 63.752H26.5741C27.0771 63.752 27.4365 64.113 27.4365 64.6183C27.4365 65.1237 27.0771 65.4846 26.5741 65.4846H23.9149C23.4837 67.4338 21.7588 68.9498 19.6746 68.9498H17.9498L23.9149 75.9523C24.2742 76.3133 24.2024 76.8908 23.843 77.1796C23.6993 77.3239 23.4837 77.3961 23.2681 77.3961C23.0525 77.3961 22.765 77.3239 22.6213 77.1074L15.4343 68.661C15.2187 68.3723 15.1469 68.0113 15.2906 67.7225C15.4343 67.4338 15.7218 67.2172 16.0812 67.2172H19.6746C20.8245 67.2172 21.7588 66.4953 22.1182 65.4846H16.5124C16.0093 65.4846 15.65 65.1237 15.65 64.6183C15.65 64.113 16.0093 63.752 16.5124 63.752H22.1182C21.7588 62.7414 20.8245 62.0195 19.6746 62.0195H15.5781C15.075 62.0195 14.7157 61.6585 14.7157 61.1532C14.7157 60.6478 15.075 60.2869 15.5781 60.2869H26.5741C27.0771 60.2869 27.4365 60.6478 27.4365 61.1532Z" fill="url(#paint0_linear_27_1066)"/>
<defs>
<linearGradient id="paint0_linear_27_1066" x1="-16.7935" y1="-3.5168e-05" x2="77.0661" y2="2.28956" gradientUnits="userSpaceOnUse">
<stop stop-color="#37DADA"/>
<stop offset="1" stop-color="#254DB5"/>
</linearGradient>
</defs>
</svg>
