<svg width="90" height="91" viewBox="0 0 90 91" fill="none" xmlns="http://www.w3.org/2000/svg">
<path d="M46.3516 0C47.7494 0.355376 49.1709 0.592294 50.545 1.06613C51.7296 1.49258 52.8431 2.10857 53.9566 2.72455C54.928 3.26946 55.1412 4.05129 54.6674 4.76204C54.2172 5.4491 53.4828 5.52018 52.5588 4.97527C47.9626 2.17964 43.2006 1.84796 38.3675 4.19344C31.6864 7.43921 28.7723 14.9021 31.2126 22.365C32.563 26.5348 34.9322 30.1359 37.6093 33.5475C39.7179 36.2484 41.9686 38.8308 44.1719 41.4842C44.5036 41.9107 44.8116 42.1713 45.2855 41.6027C49.1235 37.1487 53.009 32.7183 55.9704 27.5772C57.9369 24.1419 59.3584 20.5407 59.1688 16.4895C59.0741 14.0018 58.3633 11.7274 57.0839 9.59516C56.8944 9.26347 56.6575 8.93179 56.5627 8.57641C56.3969 7.88935 56.7049 7.34444 57.3446 7.08383C58.0553 6.77584 58.6002 7.08383 59.003 7.67613C60.3534 9.68993 61.2063 11.9169 61.6091 14.3098C61.6801 14.7363 61.7512 15.1864 61.8223 15.6839C63.3623 15.6839 64.8548 15.6839 66.3474 15.6839C67.7926 15.6839 69.2378 15.6602 70.683 15.6839C73.6682 15.7313 76.0373 17.4371 76.985 20.2564C77.1509 20.7777 77.3878 20.9435 77.909 20.9198C81.1548 20.8961 84.4005 20.8961 87.67 20.9198C89.0441 20.9198 89.4469 21.3226 89.4469 22.7204C89.4469 27.1034 89.4469 31.4863 89.4469 35.8693C89.4469 37.812 88.3807 38.8782 86.4143 38.8782C85.2297 38.8782 84.0452 38.8782 82.8606 38.8782C80.8941 38.8545 79.8517 37.812 79.8517 35.8456C79.8517 32.126 79.8517 28.3827 79.8517 24.6631C79.8517 24.3314 79.8517 24.0234 79.8517 23.6444C78.9988 23.6444 78.217 23.6444 77.3167 23.6444C77.3167 23.9997 77.3167 24.3314 77.3167 24.6868C77.3167 31.5811 77.3167 38.4754 77.3167 45.3934C77.3167 46.8149 76.8666 47.4783 75.9426 47.4546C75.0423 47.4309 74.6632 46.8149 74.6632 45.4171C74.6632 37.9542 74.6632 30.4913 74.6632 23.0284C74.6632 19.83 73.1943 18.3611 69.9959 18.3611C67.6031 18.3611 65.2102 18.3611 62.8173 18.3611C62.5094 18.3611 62.1777 18.3611 61.8223 18.3611C61.7038 19.214 61.5854 19.9958 61.4432 20.8961C61.7512 20.9198 62.0355 20.9435 62.3198 20.9435C64.2152 20.9435 66.1105 20.9435 68.0058 20.9435C70.4461 20.9672 72.0808 22.5545 72.0808 24.9948C72.1045 33.6897 72.1045 42.4082 72.0808 51.1031C72.0808 53.5907 70.4224 55.2255 67.8637 55.2255C62.533 55.2492 57.2261 55.2255 51.8955 55.2255C41.9686 55.2255 32.0418 55.2255 22.0912 55.2255C21.5937 55.2255 21.0725 55.2018 20.5987 55.1307C18.7507 54.799 17.4003 53.2827 17.4003 51.4111C17.3766 42.5267 17.3766 33.6423 17.4003 24.7579C17.4003 22.6019 19.0824 20.9672 21.262 20.9435C23.4654 20.9198 25.6924 20.9435 28.0142 20.9435C27.8957 20.0669 27.7773 19.2614 27.6825 18.4085C27.4219 18.3848 27.2087 18.3611 26.9717 18.3611C24.342 18.3611 21.7122 18.3374 19.0824 18.3611C16.4763 18.3848 14.8416 19.9721 14.8416 22.5545C14.8179 35.3718 14.8416 48.189 14.8416 61.0299C14.8416 61.1958 14.8653 61.3853 14.8653 61.6459C15.1732 61.6696 15.4339 61.6933 15.7182 61.6933C17.6372 61.6933 19.5562 61.6933 21.4753 61.6933C24.1761 61.717 26.1899 63.6123 26.3558 66.3132C26.4031 67.0239 26.4031 67.7347 26.3558 68.4455C26.1899 71.0989 24.2235 73.018 21.5463 73.0416C19.6273 73.0653 17.7083 73.0416 15.7892 73.0416C15.5049 73.0416 15.2206 73.0416 14.7705 73.0416C14.8416 74.4158 14.7705 75.7188 14.9837 76.9982C15.2443 78.6092 16.7369 79.7464 18.4664 79.9123C18.7981 79.936 19.1061 79.936 19.4378 79.936C36.2826 79.936 53.1274 79.936 69.9723 79.936C73.1706 79.936 74.6395 78.4671 74.6395 75.2687C74.6395 74.5579 74.6395 73.8472 74.6395 73.0416C74.1894 73.0416 73.8103 73.0416 73.4549 73.0416C71.5833 73.0416 69.7353 73.0653 67.8637 73.0416C65.2576 72.9943 63.2912 71.0989 63.1017 68.4928C63.0543 67.7584 63.0543 67.0003 63.1017 66.2658C63.2675 63.6123 65.2813 61.717 67.9348 61.6933C70.1144 61.6696 72.294 61.6933 74.6395 61.6933C74.6395 61.3379 74.6395 61.0299 74.6395 60.7219C74.6395 57.9737 74.6395 55.2255 74.6395 52.4535C74.6395 51.8138 74.7817 51.2689 75.3977 50.9846C76.1084 50.653 76.9376 50.9846 77.1745 51.7665C77.2693 52.0745 77.293 52.4061 77.293 52.7378C77.293 60.3666 77.3167 68.019 77.293 75.6477C77.293 79.0357 75.374 81.6655 72.3651 82.3762C71.7728 82.5184 71.1331 82.5657 70.375 82.6842C70.375 83.774 70.375 84.8638 70.375 85.9773C70.375 87.8964 69.5932 89.4127 67.8874 90.384C67.4609 90.6209 66.9871 90.7868 66.537 91C64.1204 91 61.6801 91 59.2636 91C56.3258 90.0523 55.1649 87.9438 55.3781 84.9349C55.4255 84.1768 55.3781 83.4186 55.3781 82.6605C48.1995 82.6605 41.1631 82.6605 34.0319 82.6605C34.0319 83.8451 34.0556 84.9586 34.0319 86.0721C34.0082 87.7779 33.3448 89.1757 31.8996 90.1471C31.3784 90.5025 30.7387 90.7157 30.1701 90.9763C27.7536 90.9763 25.3133 90.9763 22.8968 90.9763C19.959 89.9813 18.8218 87.8727 19.0587 84.8875C19.1061 84.1531 19.0587 83.4186 19.0587 82.8027C17.8504 82.4473 16.6658 82.3051 15.6708 81.8076C13.1358 80.4809 12.117 78.2538 12.117 75.4345C12.1407 58.566 12.117 41.6738 12.117 24.8053C12.117 24.4262 12.117 24.0471 12.117 23.6444C11.2167 23.6444 10.4349 23.6444 9.582 23.6444C9.582 24.0234 9.582 24.3314 9.582 24.6631C9.582 28.4538 9.582 32.2445 9.582 36.0351C9.582 37.6936 8.53956 38.8308 6.92852 38.8782C5.48332 38.9255 4.03813 38.9255 2.59293 38.8782C1.07666 38.8071 0.0342214 37.6936 0.0105297 36.1536C-0.0131621 34.969 0.0105297 33.7844 0.0105297 32.5998C0.0105297 31.5337 0.484365 30.9414 1.28988 30.9177C2.14279 30.894 2.64031 31.51 2.66401 32.6235C2.66401 33.8081 2.66401 34.969 2.66401 36.1773C4.13289 36.1773 5.50701 36.1773 6.85744 36.1773C6.85744 31.9602 6.85744 27.7904 6.85744 23.6444C5.43594 23.6444 4.08551 23.6444 2.66401 23.6444C2.66401 24.0708 2.66401 24.4499 2.66401 24.829C2.66401 25.2317 2.6877 25.6582 2.66401 26.0609C2.61662 26.9612 2.0954 27.5298 1.33727 27.5298C0.579132 27.5298 0.0342214 26.9375 0.0105297 26.0609C-0.0131621 24.9711 0.0105297 23.8813 0.0105297 22.7678C0.0105297 21.2989 0.389598 20.9198 1.83479 20.9198C5.05687 20.9198 8.27895 20.9198 11.501 20.9198C11.9749 20.9198 12.2829 20.8724 12.4724 20.3038C13.4437 17.3897 15.8129 15.6839 18.8929 15.6839C21.4989 15.6602 24.105 15.6839 26.6874 15.6839C26.9954 15.6839 27.3271 15.6839 27.6351 15.6839C27.7062 15.2575 27.7773 14.9258 27.8246 14.6178C28.9382 7.55767 33.9371 2.10857 40.8788 0.450143C41.5658 0.284301 42.2529 0.165842 42.94 0.0236917C44.1009 0 45.2144 0 46.3516 0ZM20.1011 46.8386C36.5906 46.8386 52.9616 46.8386 69.38 46.8386C69.38 40.963 69.38 35.1349 69.38 29.283C69.1667 29.2593 69.0009 29.2119 68.8114 29.2119C65.4234 29.2119 62.0118 29.1882 58.6239 29.2356C58.2922 29.2356 57.8421 29.591 57.6525 29.9227C54.5963 34.8506 50.853 39.2335 47.015 43.5454C45.6882 45.038 43.7455 45.038 42.4424 43.5454C38.6044 39.1861 34.8137 34.8032 31.8049 29.8279C31.5206 29.3541 31.2126 29.2119 30.6677 29.2119C27.6825 29.2356 24.6973 29.2119 21.7122 29.2119C21.191 29.2119 20.6697 29.2119 20.1011 29.2119C20.1011 35.1349 20.1011 40.963 20.1011 46.8386ZM69.3326 49.6105C52.9142 49.6105 36.5195 49.6105 20.1485 49.6105C19.8405 52.1929 20.1959 52.572 22.5888 52.572C37.3487 52.5483 52.1324 52.5483 66.8923 52.5483C69.3089 52.5483 69.5932 52.264 69.4036 49.8237C69.4036 49.7764 69.38 49.7053 69.3326 49.6105ZM82.5763 23.6444C82.5763 27.8378 82.5763 32.0075 82.5763 36.1773C83.9978 36.1773 85.3719 36.1773 86.7223 36.1773C86.7223 31.9602 86.7223 27.8141 86.7223 23.6444C85.3245 23.6444 83.9741 23.6444 82.5763 23.6444ZM21.7596 82.6368C21.7596 83.6556 21.7596 84.5558 21.7596 85.4798C21.7596 85.7641 21.7596 86.0721 21.7832 86.3564C21.9254 87.4936 22.6835 88.2755 23.8207 88.2991C25.645 88.3465 27.4693 88.3465 29.2935 88.2991C30.3834 88.2755 31.2599 87.541 31.331 86.4512C31.4258 85.1955 31.3547 83.9399 31.3547 82.6368C28.1563 82.6368 25.029 82.6368 21.7596 82.6368ZM67.6979 82.6368C64.4758 82.6368 61.3248 82.6368 58.1264 82.6368C58.1264 83.9399 58.0553 85.2192 58.1501 86.4749C58.2211 87.5647 59.0977 88.2755 60.1876 88.2991C62.0118 88.3228 63.8361 88.3465 65.6604 88.2991C66.7502 88.2755 67.5794 87.541 67.6742 86.4275C67.7452 85.1955 67.6979 83.9635 67.6979 82.6368ZM74.5921 70.3645C74.5921 68.3033 74.5921 66.3369 74.5921 64.3468C72.2704 64.3468 70.0433 64.3231 67.7926 64.3705C66.6791 64.3942 65.8736 65.2234 65.8025 66.3606C65.7551 67.024 65.7551 67.711 65.8025 68.3981C65.8973 69.5353 66.6791 70.3408 67.8163 70.3645C70.0433 70.3882 72.2941 70.3645 74.5921 70.3645ZM14.8653 70.3645C17.187 70.3645 19.3904 70.3882 21.5937 70.3645C22.7783 70.3408 23.5838 69.559 23.6786 68.3744C23.726 67.7347 23.726 67.0713 23.6786 66.4317C23.5838 65.176 22.7546 64.3942 21.4753 64.3705C20.0537 64.3468 18.6559 64.3705 17.2344 64.3705C16.4526 64.3705 15.6708 64.3705 14.8416 64.3705C14.8653 66.3843 14.8653 68.327 14.8653 70.3645ZM69.4273 26.5111C69.4273 25.9188 69.451 25.3976 69.4273 24.8763C69.4037 24.0708 68.9535 23.6207 68.148 23.597C65.8499 23.5733 63.5518 23.5733 61.23 23.597C61.0168 23.597 60.6614 23.7391 60.5903 23.905C60.2113 24.7342 59.9033 25.5871 59.5479 26.4874C62.8647 26.5111 66.0631 26.5111 69.4273 26.5111ZM20.1485 26.4637C23.4417 26.4637 26.6637 26.4637 29.9569 26.4637C29.6252 25.6582 29.3172 24.9711 29.0803 24.2367C28.9145 23.7391 28.6539 23.5496 28.1326 23.5733C26.2847 23.597 24.413 23.597 22.5414 23.597C20.1959 23.597 19.959 23.8339 20.0774 26.2031C20.0774 26.2741 20.1011 26.3452 20.1485 26.4637Z" fill="black"/>
<path d="M46.3516 0C47.7494 0.355376 49.1709 0.592294 50.545 1.06613C51.7296 1.49258 52.8431 2.10857 53.9566 2.72455C54.928 3.26946 55.1412 4.05129 54.6674 4.76204C54.2172 5.4491 53.4828 5.52018 52.5588 4.97527C47.9626 2.17964 43.2006 1.84796 38.3675 4.19344C31.6864 7.43921 28.7723 14.9021 31.2126 22.365C32.563 26.5348 34.9322 30.1359 37.6093 33.5475C39.7179 36.2484 41.9686 38.8308 44.1719 41.4842C44.5036 41.9107 44.8116 42.1713 45.2855 41.6027C49.1235 37.1487 53.009 32.7183 55.9704 27.5772C57.9369 24.1419 59.3584 20.5407 59.1688 16.4895C59.0741 14.0018 58.3633 11.7274 57.0839 9.59516C56.8944 9.26347 56.6575 8.93179 56.5627 8.57641C56.3969 7.88935 56.7049 7.34444 57.3446 7.08383C58.0553 6.77584 58.6002 7.08383 59.003 7.67613C60.3534 9.68993 61.2063 11.9169 61.6091 14.3098C61.6801 14.7363 61.7512 15.1864 61.8223 15.6839C63.3623 15.6839 64.8548 15.6839 66.3474 15.6839C67.7926 15.6839 69.2378 15.6602 70.683 15.6839C73.6682 15.7313 76.0373 17.4371 76.985 20.2564C77.1509 20.7777 77.3878 20.9435 77.909 20.9198C81.1548 20.8961 84.4005 20.8961 87.67 20.9198C89.0441 20.9198 89.4469 21.3226 89.4469 22.7204C89.4469 27.1034 89.4469 31.4863 89.4469 35.8693C89.4469 37.812 88.3807 38.8782 86.4143 38.8782C85.2297 38.8782 84.0452 38.8782 82.8606 38.8782C80.8941 38.8545 79.8517 37.812 79.8517 35.8456C79.8517 32.126 79.8517 28.3827 79.8517 24.6631C79.8517 24.3314 79.8517 24.0234 79.8517 23.6444C78.9988 23.6444 78.217 23.6444 77.3167 23.6444C77.3167 23.9997 77.3167 24.3314 77.3167 24.6868C77.3167 31.5811 77.3167 38.4754 77.3167 45.3934C77.3167 46.8149 76.8666 47.4783 75.9426 47.4546C75.0423 47.4309 74.6632 46.8149 74.6632 45.4171C74.6632 37.9542 74.6632 30.4913 74.6632 23.0284C74.6632 19.83 73.1943 18.3611 69.9959 18.3611C67.6031 18.3611 65.2102 18.3611 62.8173 18.3611C62.5094 18.3611 62.1777 18.3611 61.8223 18.3611C61.7038 19.214 61.5854 19.9958 61.4432 20.8961C61.7512 20.9198 62.0355 20.9435 62.3198 20.9435C64.2152 20.9435 66.1105 20.9435 68.0058 20.9435C70.4461 20.9672 72.0808 22.5545 72.0808 24.9948C72.1045 33.6897 72.1045 42.4082 72.0808 51.1031C72.0808 53.5907 70.4224 55.2255 67.8637 55.2255C62.533 55.2492 57.2261 55.2255 51.8955 55.2255C41.9686 55.2255 32.0418 55.2255 22.0912 55.2255C21.5937 55.2255 21.0725 55.2018 20.5987 55.1307C18.7507 54.799 17.4003 53.2827 17.4003 51.4111C17.3766 42.5267 17.3766 33.6423 17.4003 24.7579C17.4003 22.6019 19.0824 20.9672 21.262 20.9435C23.4654 20.9198 25.6924 20.9435 28.0142 20.9435C27.8957 20.0669 27.7773 19.2614 27.6825 18.4085C27.4219 18.3848 27.2087 18.3611 26.9717 18.3611C24.342 18.3611 21.7122 18.3374 19.0824 18.3611C16.4763 18.3848 14.8416 19.9721 14.8416 22.5545C14.8179 35.3718 14.8416 48.189 14.8416 61.0299C14.8416 61.1958 14.8653 61.3853 14.8653 61.6459C15.1732 61.6696 15.4339 61.6933 15.7182 61.6933C17.6372 61.6933 19.5562 61.6933 21.4753 61.6933C24.1761 61.717 26.1899 63.6123 26.3558 66.3132C26.4031 67.0239 26.4031 67.7347 26.3558 68.4455C26.1899 71.0989 24.2235 73.018 21.5463 73.0416C19.6273 73.0653 17.7083 73.0416 15.7892 73.0416C15.5049 73.0416 15.2206 73.0416 14.7705 73.0416C14.8416 74.4158 14.7705 75.7188 14.9837 76.9982C15.2443 78.6092 16.7369 79.7464 18.4664 79.9123C18.7981 79.936 19.1061 79.936 19.4378 79.936C36.2826 79.936 53.1274 79.936 69.9723 79.936C73.1706 79.936 74.6395 78.4671 74.6395 75.2687C74.6395 74.5579 74.6395 73.8472 74.6395 73.0416C74.1894 73.0416 73.8103 73.0416 73.4549 73.0416C71.5833 73.0416 69.7353 73.0653 67.8637 73.0416C65.2576 72.9943 63.2912 71.0989 63.1017 68.4928C63.0543 67.7584 63.0543 67.0003 63.1017 66.2658C63.2675 63.6123 65.2813 61.717 67.9348 61.6933C70.1144 61.6696 72.294 61.6933 74.6395 61.6933C74.6395 61.3379 74.6395 61.0299 74.6395 60.7219C74.6395 57.9737 74.6395 55.2255 74.6395 52.4535C74.6395 51.8138 74.7817 51.2689 75.3977 50.9846C76.1084 50.653 76.9376 50.9846 77.1745 51.7665C77.2693 52.0745 77.293 52.4061 77.293 52.7378C77.293 60.3666 77.3167 68.019 77.293 75.6477C77.293 79.0357 75.374 81.6655 72.3651 82.3762C71.7728 82.5184 71.1331 82.5657 70.375 82.6842C70.375 83.774 70.375 84.8638 70.375 85.9773C70.375 87.8964 69.5932 89.4127 67.8874 90.384C67.4609 90.6209 66.9871 90.7868 66.537 91C64.1204 91 61.6801 91 59.2636 91C56.3258 90.0523 55.1649 87.9438 55.3781 84.9349C55.4255 84.1768 55.3781 83.4186 55.3781 82.6605C48.1995 82.6605 41.1631 82.6605 34.0319 82.6605C34.0319 83.8451 34.0556 84.9586 34.0319 86.0721C34.0082 87.7779 33.3448 89.1757 31.8996 90.1471C31.3784 90.5025 30.7387 90.7157 30.1701 90.9763C27.7536 90.9763 25.3133 90.9763 22.8968 90.9763C19.959 89.9813 18.8218 87.8727 19.0587 84.8875C19.1061 84.1531 19.0587 83.4186 19.0587 82.8027C17.8504 82.4473 16.6658 82.3051 15.6708 81.8076C13.1358 80.4809 12.117 78.2538 12.117 75.4345C12.1407 58.566 12.117 41.6738 12.117 24.8053C12.117 24.4262 12.117 24.0471 12.117 23.6444C11.2167 23.6444 10.4349 23.6444 9.582 23.6444C9.582 24.0234 9.582 24.3314 9.582 24.6631C9.582 28.4538 9.582 32.2445 9.582 36.0351C9.582 37.6936 8.53956 38.8308 6.92852 38.8782C5.48332 38.9255 4.03813 38.9255 2.59293 38.8782C1.07666 38.8071 0.0342214 37.6936 0.0105297 36.1536C-0.0131621 34.969 0.0105297 33.7844 0.0105297 32.5998C0.0105297 31.5337 0.484365 30.9414 1.28988 30.9177C2.14279 30.894 2.64031 31.51 2.66401 32.6235C2.66401 33.8081 2.66401 34.969 2.66401 36.1773C4.13289 36.1773 5.50701 36.1773 6.85744 36.1773C6.85744 31.9602 6.85744 27.7904 6.85744 23.6444C5.43594 23.6444 4.08551 23.6444 2.66401 23.6444C2.66401 24.0708 2.66401 24.4499 2.66401 24.829C2.66401 25.2317 2.6877 25.6582 2.66401 26.0609C2.61662 26.9612 2.0954 27.5298 1.33727 27.5298C0.579132 27.5298 0.0342214 26.9375 0.0105297 26.0609C-0.0131621 24.9711 0.0105297 23.8813 0.0105297 22.7678C0.0105297 21.2989 0.389598 20.9198 1.83479 20.9198C5.05687 20.9198 8.27895 20.9198 11.501 20.9198C11.9749 20.9198 12.2829 20.8724 12.4724 20.3038C13.4437 17.3897 15.8129 15.6839 18.8929 15.6839C21.4989 15.6602 24.105 15.6839 26.6874 15.6839C26.9954 15.6839 27.3271 15.6839 27.6351 15.6839C27.7062 15.2575 27.7773 14.9258 27.8246 14.6178C28.9382 7.55767 33.9371 2.10857 40.8788 0.450143C41.5658 0.284301 42.2529 0.165842 42.94 0.0236917C44.1009 0 45.2144 0 46.3516 0ZM20.1011 46.8386C36.5906 46.8386 52.9616 46.8386 69.38 46.8386C69.38 40.963 69.38 35.1349 69.38 29.283C69.1667 29.2593 69.0009 29.2119 68.8114 29.2119C65.4234 29.2119 62.0118 29.1882 58.6239 29.2356C58.2922 29.2356 57.8421 29.591 57.6525 29.9227C54.5963 34.8506 50.853 39.2335 47.015 43.5454C45.6882 45.038 43.7455 45.038 42.4424 43.5454C38.6044 39.1861 34.8137 34.8032 31.8049 29.8279C31.5206 29.3541 31.2126 29.2119 30.6677 29.2119C27.6825 29.2356 24.6973 29.2119 21.7122 29.2119C21.191 29.2119 20.6697 29.2119 20.1011 29.2119C20.1011 35.1349 20.1011 40.963 20.1011 46.8386ZM69.3326 49.6105C52.9142 49.6105 36.5195 49.6105 20.1485 49.6105C19.8405 52.1929 20.1959 52.572 22.5888 52.572C37.3487 52.5483 52.1324 52.5483 66.8923 52.5483C69.3089 52.5483 69.5932 52.264 69.4036 49.8237C69.4036 49.7764 69.38 49.7053 69.3326 49.6105ZM82.5763 23.6444C82.5763 27.8378 82.5763 32.0075 82.5763 36.1773C83.9978 36.1773 85.3719 36.1773 86.7223 36.1773C86.7223 31.9602 86.7223 27.8141 86.7223 23.6444C85.3245 23.6444 83.9741 23.6444 82.5763 23.6444ZM21.7596 82.6368C21.7596 83.6556 21.7596 84.5558 21.7596 85.4798C21.7596 85.7641 21.7596 86.0721 21.7832 86.3564C21.9254 87.4936 22.6835 88.2755 23.8207 88.2991C25.645 88.3465 27.4693 88.3465 29.2935 88.2991C30.3834 88.2755 31.2599 87.541 31.331 86.4512C31.4258 85.1955 31.3547 83.9399 31.3547 82.6368C28.1563 82.6368 25.029 82.6368 21.7596 82.6368ZM67.6979 82.6368C64.4758 82.6368 61.3248 82.6368 58.1264 82.6368C58.1264 83.9399 58.0553 85.2192 58.1501 86.4749C58.2211 87.5647 59.0977 88.2755 60.1876 88.2991C62.0118 88.3228 63.8361 88.3465 65.6604 88.2991C66.7502 88.2755 67.5794 87.541 67.6742 86.4275C67.7452 85.1955 67.6979 83.9635 67.6979 82.6368ZM74.5921 70.3645C74.5921 68.3033 74.5921 66.3369 74.5921 64.3468C72.2704 64.3468 70.0433 64.3231 67.7926 64.3705C66.6791 64.3942 65.8736 65.2234 65.8025 66.3606C65.7551 67.024 65.7551 67.711 65.8025 68.3981C65.8973 69.5353 66.6791 70.3408 67.8163 70.3645C70.0433 70.3882 72.2941 70.3645 74.5921 70.3645ZM14.8653 70.3645C17.187 70.3645 19.3904 70.3882 21.5937 70.3645C22.7783 70.3408 23.5838 69.559 23.6786 68.3744C23.726 67.7347 23.726 67.0713 23.6786 66.4317C23.5838 65.176 22.7546 64.3942 21.4753 64.3705C20.0537 64.3468 18.6559 64.3705 17.2344 64.3705C16.4526 64.3705 15.6708 64.3705 14.8416 64.3705C14.8653 66.3843 14.8653 68.327 14.8653 70.3645ZM69.4273 26.5111C69.4273 25.9188 69.451 25.3976 69.4273 24.8763C69.4037 24.0708 68.9535 23.6207 68.148 23.597C65.8499 23.5733 63.5518 23.5733 61.23 23.597C61.0168 23.597 60.6614 23.7391 60.5903 23.905C60.2113 24.7342 59.9033 25.5871 59.5479 26.4874C62.8647 26.5111 66.0631 26.5111 69.4273 26.5111ZM20.1485 26.4637C23.4417 26.4637 26.6637 26.4637 29.9569 26.4637C29.6252 25.6582 29.3172 24.9711 29.0803 24.2367C28.9145 23.7391 28.6539 23.5496 28.1326 23.5733C26.2847 23.597 24.413 23.597 22.5414 23.597C20.1959 23.597 19.959 23.8339 20.0774 26.2031C20.0774 26.2741 20.1011 26.3452 20.1485 26.4637Z" fill="url(#paint0_linear_88_100)"/>
<path d="M45.0484 57.9027C47.4176 57.9027 49.7867 57.6895 52.1322 57.9501C56.681 58.4713 60.1637 62.7121 60.1637 67.3557C60.14 71.9756 56.7047 76.098 52.2033 76.7613C50.8766 76.9509 49.5024 76.9272 48.152 76.9272C47.2754 76.9272 46.7068 76.3349 46.7305 75.5531C46.7542 74.8186 47.3228 74.2974 48.152 74.2737C49.384 74.2263 50.6396 74.2974 51.8479 74.1079C55.2832 73.5156 57.7709 70.2698 57.4866 66.9056C57.1549 63.257 54.2882 60.4851 50.7107 60.4377C46.92 60.3903 43.1531 60.3903 39.3624 60.4377C35.6191 60.4851 32.5628 63.6124 32.5628 67.332C32.5628 71.0279 35.548 74.1316 39.2676 74.25C40.2153 74.2737 41.163 74.2263 42.1106 74.2737C42.8688 74.3211 43.3189 74.7949 43.3426 75.5294C43.3663 76.2875 42.9398 76.8324 42.2054 76.8798C39.4808 77.022 36.78 76.9983 34.3397 75.4109C30.8333 73.1365 29.1512 68.8957 30.2411 64.8207C31.3072 60.8405 35.0031 57.879 39.1255 57.7606C41.0919 57.7132 43.082 57.7606 45.0721 57.7606C45.0484 57.8079 45.0484 57.8553 45.0484 57.9027Z" fill="black"/>
<path d="M45.0484 57.9027C47.4176 57.9027 49.7867 57.6895 52.1322 57.9501C56.681 58.4713 60.1637 62.7121 60.1637 67.3557C60.14 71.9756 56.7047 76.098 52.2033 76.7613C50.8766 76.9509 49.5024 76.9272 48.152 76.9272C47.2754 76.9272 46.7068 76.3349 46.7305 75.5531C46.7542 74.8186 47.3228 74.2974 48.152 74.2737C49.384 74.2263 50.6396 74.2974 51.8479 74.1079C55.2832 73.5156 57.7709 70.2698 57.4866 66.9056C57.1549 63.257 54.2882 60.4851 50.7107 60.4377C46.92 60.3903 43.1531 60.3903 39.3624 60.4377C35.6191 60.4851 32.5628 63.6124 32.5628 67.332C32.5628 71.0279 35.548 74.1316 39.2676 74.25C40.2153 74.2737 41.163 74.2263 42.1106 74.2737C42.8688 74.3211 43.3189 74.7949 43.3426 75.5294C43.3663 76.2875 42.9398 76.8324 42.2054 76.8798C39.4808 77.022 36.78 76.9983 34.3397 75.4109C30.8333 73.1365 29.1512 68.8957 30.2411 64.8207C31.3072 60.8405 35.0031 57.879 39.1255 57.7606C41.0919 57.7132 43.082 57.7606 45.0721 57.7606C45.0484 57.8079 45.0484 57.8553 45.0484 57.9027Z" fill="url(#paint1_linear_88_100)"/>
<path d="M53.8852 17.1291C53.8852 22.1755 49.7866 26.2979 44.7639 26.2979C39.7413 26.2979 35.6426 22.1755 35.6426 17.1291C35.6426 12.0591 39.7176 7.98413 44.7639 7.98413C49.8102 7.98413 53.8852 12.0591 53.8852 17.1291ZM51.2081 17.2476C51.3028 13.7649 48.5072 10.7561 45.0482 10.6376C41.3286 10.5191 38.3671 13.2911 38.2724 16.9633C38.1776 20.5171 41.0443 23.5022 44.5981 23.597C48.1755 23.6918 51.1133 20.8488 51.2081 17.2476Z" fill="black"/>
<path d="M53.8852 17.1291C53.8852 22.1755 49.7866 26.2979 44.7639 26.2979C39.7413 26.2979 35.6426 22.1755 35.6426 17.1291C35.6426 12.0591 39.7176 7.98413 44.7639 7.98413C49.8102 7.98413 53.8852 12.0591 53.8852 17.1291ZM51.2081 17.2476C51.3028 13.7649 48.5072 10.7561 45.0482 10.6376C41.3286 10.5191 38.3671 13.2911 38.2724 16.9633C38.1776 20.5171 41.0443 23.5022 44.5981 23.597C48.1755 23.6918 51.1133 20.8488 51.2081 17.2476Z" fill="url(#paint2_linear_88_100)"/>
<path d="M45.0014 63.4229C47.0626 63.4229 49.1238 63.4229 51.1849 63.4229C52.2274 63.4229 52.8197 63.9441 52.8197 64.7496C52.8197 65.5551 52.18 66.1 51.1613 66.1C47.0389 66.1 42.8928 66.1 38.7705 66.1C37.7517 66.1 37.1357 65.5551 37.1357 64.7496C37.1357 63.9441 37.7517 63.4229 38.7705 63.4229C40.879 63.3992 42.9402 63.4229 45.0014 63.4229Z" fill="black"/>
<path d="M45.0014 63.4229C47.0626 63.4229 49.1238 63.4229 51.1849 63.4229C52.2274 63.4229 52.8197 63.9441 52.8197 64.7496C52.8197 65.5551 52.18 66.1 51.1613 66.1C47.0389 66.1 42.8928 66.1 38.7705 66.1C37.7517 66.1 37.1357 65.5551 37.1357 64.7496C37.1357 63.9441 37.7517 63.4229 38.7705 63.4229C40.879 63.3992 42.9402 63.4229 45.0014 63.4229Z" fill="url(#paint3_linear_88_100)"/>
<path d="M45.0009 71.2648C42.9397 71.2648 40.8785 71.2648 38.8173 71.2648C37.7986 71.2648 37.1826 70.7436 37.1826 69.9381C37.1826 69.1325 37.8223 68.6113 38.841 68.6113C42.9634 68.6113 47.1095 68.6113 51.2318 68.6113C52.2506 68.6113 52.8666 69.1562 52.8666 69.9618C52.8666 70.7673 52.2506 71.2648 51.2081 71.2648C49.1233 71.2885 47.0621 71.2648 45.0009 71.2648Z" fill="black"/>
<path d="M45.0009 71.2648C42.9397 71.2648 40.8785 71.2648 38.8173 71.2648C37.7986 71.2648 37.1826 70.7436 37.1826 69.9381C37.1826 69.1325 37.8223 68.6113 38.841 68.6113C42.9634 68.6113 47.1095 68.6113 51.2318 68.6113C52.2506 68.6113 52.8666 69.1562 52.8666 69.9618C52.8666 70.7673 52.2506 71.2648 51.2081 71.2648C49.1233 71.2885 47.0621 71.2648 45.0009 71.2648Z" fill="url(#paint4_linear_88_100)"/>
<defs>
<linearGradient id="paint0_linear_88_100" x1="-16.5155" y1="-3.5168e-05" x2="75.7921" y2="2.21442" gradientUnits="userSpaceOnUse">
<stop stop-color="#37DADA"/>
<stop offset="1" stop-color="#254DB5"/>
</linearGradient>
<linearGradient id="paint1_linear_88_100" x1="24.3264" y1="57.7395" x2="55.5174" y2="58.9392" gradientUnits="userSpaceOnUse">
<stop stop-color="#37DADA"/>
<stop offset="1" stop-color="#254DB5"/>
</linearGradient>
<linearGradient id="paint2_linear_88_100" x1="32.2742" y1="7.98412" x2="51.1" y2="8.44181" gradientUnits="userSpaceOnUse">
<stop stop-color="#37DADA"/>
<stop offset="1" stop-color="#254DB5"/>
</linearGradient>
<linearGradient id="paint3_linear_88_100" x1="34.2399" y1="63.4124" x2="50.1127" y2="65.673" gradientUnits="userSpaceOnUse">
<stop stop-color="#37DADA"/>
<stop offset="1" stop-color="#254DB5"/>
</linearGradient>
<linearGradient id="paint4_linear_88_100" x1="34.2867" y1="68.6113" x2="50.154" y2="70.8913" gradientUnits="userSpaceOnUse">
<stop stop-color="#37DADA"/>
<stop offset="1" stop-color="#254DB5"/>
</linearGradient>
</defs>
</svg>
