<svg width="92" height="91" viewBox="0 0 92 91" fill="none" xmlns="http://www.w3.org/2000/svg">
<path fill-rule="evenodd" clip-rule="evenodd" d="M63.6728 66.5718C62.8621 65.8159 62.1596 65.1409 61.4571 64.466C61.4057 64.4147 61.3326 64.3633 61.2791 64.3258C61.2482 64.3041 61.2238 64.2869 61.2139 64.277C60.5346 64.7414 59.8701 65.2147 59.2096 65.685L59.2093 65.6852C57.8732 66.6367 56.5535 67.5765 55.1613 68.4075C42.4075 75.9126 26.3302 74.9137 14.5762 65.9508C13.7386 65.3029 13.1981 64.574 13.4683 63.4671C13.8737 61.9013 15.4949 61.4154 16.927 62.3333C17.4516 62.6662 17.9707 63.0084 18.489 63.3502L18.4892 63.3503C19.9464 64.311 21.398 65.2681 22.9526 66.0048C42.1913 75.1297 64.7536 63.5211 68.5905 42.5718C71.8871 24.835 60.052 7.88109 42.2994 4.83047C24.3847 1.75285 7.49678 13.7933 4.71365 31.7731C3.36262 40.466 5.36215 48.484 10.4691 55.6921C10.5411 55.7911 10.6162 55.8901 10.6912 55.9891C10.8413 56.1871 10.9915 56.385 11.1175 56.583C11.9011 57.7169 11.739 58.9857 10.7122 59.7146C9.76652 60.4165 8.49654 60.2006 7.68592 59.1747C5.47023 56.34 3.71388 53.2354 2.44391 49.8878C-5.12188 30.0453 5.49725 8.12406 25.7628 1.69886C46.4336 -4.83433 68.5095 8.12406 72.7517 29.4514C75.0215 40.844 72.2924 51.1567 64.9427 60.2006C64.8482 60.322 64.7536 60.4367 64.6591 60.5514L64.6589 60.5516C64.5644 60.6663 64.4698 60.781 64.3753 60.9025C64.3641 60.9248 64.3576 60.9518 64.3499 60.9835C64.339 61.0282 64.3259 61.0822 64.2942 61.1454C64.351 61.2163 64.4152 61.2872 64.4829 61.3619C64.5442 61.4296 64.6084 61.5004 64.6725 61.5774C65.0044 61.9378 65.3363 62.2905 65.6764 62.652C65.9732 62.9674 66.2762 63.2895 66.591 63.6291L70.8332 59.3907C72.2383 57.9868 73.3191 57.9868 74.7242 59.3907C75.5997 60.2599 76.4762 61.1282 77.3528 61.9964C80.859 65.4692 84.3652 68.9421 87.8022 72.484C93.8008 78.6393 91.0717 88.439 82.7494 90.6258C78.8854 91.6516 75.5078 90.5178 72.6977 87.8451C68.9391 84.2224 65.271 80.5274 61.6045 76.8341C60.79 76.0136 59.9756 75.1933 59.1603 74.3738C58.1335 73.3209 58.1335 72.1331 59.1603 71.0802C60.1056 70.1001 61.0744 69.1436 62.0822 68.1485L62.0827 68.1481C62.6017 67.6357 63.131 67.1131 63.6728 66.5718ZM75.1208 75.1922L75.1163 75.1967L75.1133 75.1996C73.6209 76.684 72.1121 78.1848 70.5901 79.6921L75.2376 84.3355C75.5078 84.6055 75.778 84.8485 76.0482 85.0914C78.7773 87.3322 82.2089 87.1702 84.6948 84.6865C87.2078 82.1758 87.478 78.6932 85.1272 76.0746C83.8816 74.6326 82.4769 73.3351 81.1142 72.0764L81.1138 72.0761C80.6142 71.6146 80.1203 71.1584 79.642 70.7022C78.1544 72.1748 76.6462 73.675 75.1208 75.1922ZM67.4016 76.2635C68.8911 74.7754 70.3874 73.2736 71.8803 71.7753C73.3664 70.2838 74.8491 68.7956 76.3184 67.3277C75.7375 66.7472 75.1363 66.1533 74.5351 65.5594C73.9339 64.9655 73.3327 64.3715 72.7517 63.7911C69.8065 66.7337 66.8072 69.7304 63.8619 72.7C64.9968 73.8608 66.1857 75.0757 67.4016 76.2635ZM57.2859 38.3716C56.8739 38.1373 54.5279 36.7889 51.6207 35.1179L51.6191 35.1169C46.1193 31.9557 38.6122 27.6408 38.3895 27.5299C38.1341 17.1965 36.9424 11.0981 33.6228 11.0981C29.7073 11.0981 28.9412 17.62 28.6858 27.5299C28.5509 27.6105 26.7293 28.6623 24.2691 30.0828L24.2641 30.0857L24.263 30.0864C18.9658 33.145 10.7149 37.9091 9.9596 38.3716C9.78936 38.4563 9.61912 38.7104 9.61912 38.9645V40.235C9.61912 40.4891 9.70424 40.6585 9.87448 40.7432C9.9596 40.8279 10.1298 40.9126 10.3001 40.9126H10.4703L26.4727 37.3552V35.9153H26.3876L11.1513 39.3033C18.2317 35.2468 22.6418 32.7038 25.3826 31.1234C26.9911 30.1959 28.0248 29.5998 28.6858 29.224L28.771 33.2896L28.6858 37.3552C28.771 42.2678 29.3668 46.7569 30.1329 50.5685L23.2382 53.4483C22.9829 53.533 22.8126 53.7871 22.8126 54.1259V57.0904C22.8126 57.3445 22.8977 57.5139 23.068 57.6833C23.1531 57.768 23.3233 57.8527 23.4936 57.8527H23.6638L31.3245 55.8199C31.9715 58.2662 32.5693 59.9297 32.8189 60.6243L32.8189 60.6243L32.819 60.6244C32.8977 60.8436 32.9418 60.9663 32.9418 60.9866C33.0269 61.2407 33.2823 61.4101 33.6228 61.4101C33.8781 61.4101 34.2186 61.2407 34.3037 60.9866C34.3037 60.9663 34.3478 60.8436 34.4266 60.6244L34.4266 60.6243L34.4266 60.6243C34.6763 59.9296 35.274 58.2662 35.921 55.8199L36.2615 54.4647L36.8573 52.0084L37.1127 50.5685C37.8787 46.8416 38.4746 42.2678 38.5597 37.3552H40.6877L56.7752 40.9126H56.9455C57.1157 40.9126 57.2859 40.8279 57.3711 40.7432C57.5413 40.5738 57.6264 40.4044 57.6264 40.235V38.9645C57.7115 38.7104 57.5413 38.4563 57.2859 38.3716ZM24.2596 56.1587V54.5494L30.4734 51.839C30.571 52.325 30.6968 52.8111 30.8183 53.2811C30.9086 53.6302 30.9966 53.9704 31.0692 54.2953L24.2596 56.1587ZM33.6228 58.5303C33.5311 58.196 33.4176 57.829 33.2939 57.4292C33.0729 56.7149 32.8196 55.8961 32.6013 54.9729V54.8035L31.665 50.8226V50.7379C30.8138 46.6722 30.1329 41.6749 30.1329 36.3388C30.1329 24.1419 30.1329 12.6227 33.6228 12.6227C37.1127 12.6227 37.1127 29.9016 37.1127 36.3388C37.1978 46.164 34.8144 54.8035 33.6228 58.5303ZM40.943 35.9153H40.7728H38.7299L38.6448 29.224C38.929 29.4125 39.2923 29.6272 39.7493 29.8974L39.7495 29.8976C40.1137 30.1129 40.5375 30.3634 41.0281 30.6639L41.1984 30.7486C41.8683 31.1345 42.655 31.5931 43.5767 32.1303C44.8802 32.8901 46.4537 33.8073 48.3484 34.8989C48.3973 34.9475 48.4181 34.9682 48.4431 34.9771C48.4616 34.9836 48.4824 34.9836 48.5187 34.9836L52.349 37.1858H52.4341C53.023 37.5464 53.6601 37.907 54.3198 38.2804L54.3198 38.2804C54.8997 38.6086 55.497 38.9467 56.0943 39.3033L40.943 35.9153ZM42.541 41.8731C41.0082 43.3062 40.49 46.0107 42.5302 48.1118C42.5194 48.1334 42.514 48.1495 42.51 48.1617C42.506 48.1738 42.5033 48.1819 42.4979 48.1873C42.4601 48.2034 42.425 48.2223 42.3899 48.2411C42.3548 48.26 42.3197 48.2788 42.282 48.295C39.4213 49.7065 37.8884 51.9908 37.7373 55.1802C37.7049 55.7836 38.0503 56.193 38.5685 56.2038C39.0867 56.2254 39.4321 55.8267 39.4645 55.2233L39.4649 55.2127C39.4756 54.9573 39.4867 54.6916 39.5293 54.4259C39.9503 51.5921 42.228 49.5341 45.1966 49.3186C47.8629 49.1247 50.4645 50.9025 51.2525 53.5209C51.3907 53.9863 51.446 54.4794 51.5012 54.9724C51.5151 55.0957 51.5289 55.219 51.544 55.3418C51.6088 55.8267 51.8355 56.1392 52.2457 56.2146C52.8286 56.3223 53.3036 55.8806 53.2712 55.2233C53.1201 52.0986 51.6519 49.8035 48.8669 48.3597C48.7703 48.3034 48.6677 48.2532 48.5592 48.2C48.5221 48.1819 48.4843 48.1634 48.4459 48.1442C50.4537 46.1077 50.0651 43.4139 48.4998 41.9055C46.8374 40.3 44.225 40.2892 42.541 41.8731ZM42.9296 44.9871C42.9296 43.5432 44.0739 42.4227 45.5204 42.4227C46.9562 42.4227 48.1112 43.5863 48.1112 45.0086C48.1004 46.4309 46.9346 47.5839 45.4988 47.5839C44.0631 47.5731 42.9189 46.4309 42.9296 44.9871Z" fill="black"/>
<path fill-rule="evenodd" clip-rule="evenodd" d="M63.6728 66.5718C62.8621 65.8159 62.1596 65.1409 61.4571 64.466C61.4057 64.4147 61.3326 64.3633 61.2791 64.3258C61.2482 64.3041 61.2238 64.2869 61.2139 64.277C60.5346 64.7414 59.8701 65.2147 59.2096 65.685L59.2093 65.6852C57.8732 66.6367 56.5535 67.5765 55.1613 68.4075C42.4075 75.9126 26.3302 74.9137 14.5762 65.9508C13.7386 65.3029 13.1981 64.574 13.4683 63.4671C13.8737 61.9013 15.4949 61.4154 16.927 62.3333C17.4516 62.6662 17.9707 63.0084 18.489 63.3502L18.4892 63.3503C19.9464 64.311 21.398 65.2681 22.9526 66.0048C42.1913 75.1297 64.7536 63.5211 68.5905 42.5718C71.8871 24.835 60.052 7.88109 42.2994 4.83047C24.3847 1.75285 7.49678 13.7933 4.71365 31.7731C3.36262 40.466 5.36215 48.484 10.4691 55.6921C10.5411 55.7911 10.6162 55.8901 10.6912 55.9891C10.8413 56.1871 10.9915 56.385 11.1175 56.583C11.9011 57.7169 11.739 58.9857 10.7122 59.7146C9.76652 60.4165 8.49654 60.2006 7.68592 59.1747C5.47023 56.34 3.71388 53.2354 2.44391 49.8878C-5.12188 30.0453 5.49725 8.12406 25.7628 1.69886C46.4336 -4.83433 68.5095 8.12406 72.7517 29.4514C75.0215 40.844 72.2924 51.1567 64.9427 60.2006C64.8482 60.322 64.7536 60.4367 64.6591 60.5514L64.6589 60.5516C64.5644 60.6663 64.4698 60.781 64.3753 60.9025C64.3641 60.9248 64.3576 60.9518 64.3499 60.9835C64.339 61.0282 64.3259 61.0822 64.2942 61.1454C64.351 61.2163 64.4152 61.2872 64.4829 61.3619C64.5442 61.4296 64.6084 61.5004 64.6725 61.5774C65.0044 61.9378 65.3363 62.2905 65.6764 62.652C65.9732 62.9674 66.2762 63.2895 66.591 63.6291L70.8332 59.3907C72.2383 57.9868 73.3191 57.9868 74.7242 59.3907C75.5997 60.2599 76.4762 61.1282 77.3528 61.9964C80.859 65.4692 84.3652 68.9421 87.8022 72.484C93.8008 78.6393 91.0717 88.439 82.7494 90.6258C78.8854 91.6516 75.5078 90.5178 72.6977 87.8451C68.9391 84.2224 65.271 80.5274 61.6045 76.8341C60.79 76.0136 59.9756 75.1933 59.1603 74.3738C58.1335 73.3209 58.1335 72.1331 59.1603 71.0802C60.1056 70.1001 61.0744 69.1436 62.0822 68.1485L62.0827 68.1481C62.6017 67.6357 63.131 67.1131 63.6728 66.5718ZM75.1208 75.1922L75.1163 75.1967L75.1133 75.1996C73.6209 76.684 72.1121 78.1848 70.5901 79.6921L75.2376 84.3355C75.5078 84.6055 75.778 84.8485 76.0482 85.0914C78.7773 87.3322 82.2089 87.1702 84.6948 84.6865C87.2078 82.1758 87.478 78.6932 85.1272 76.0746C83.8816 74.6326 82.4769 73.3351 81.1142 72.0764L81.1138 72.0761C80.6142 71.6146 80.1203 71.1584 79.642 70.7022C78.1544 72.1748 76.6462 73.675 75.1208 75.1922ZM67.4016 76.2635C68.8911 74.7754 70.3874 73.2736 71.8803 71.7753C73.3664 70.2838 74.8491 68.7956 76.3184 67.3277C75.7375 66.7472 75.1363 66.1533 74.5351 65.5594C73.9339 64.9655 73.3327 64.3715 72.7517 63.7911C69.8065 66.7337 66.8072 69.7304 63.8619 72.7C64.9968 73.8608 66.1857 75.0757 67.4016 76.2635ZM57.2859 38.3716C56.8739 38.1373 54.5279 36.7889 51.6207 35.1179L51.6191 35.1169C46.1193 31.9557 38.6122 27.6408 38.3895 27.5299C38.1341 17.1965 36.9424 11.0981 33.6228 11.0981C29.7073 11.0981 28.9412 17.62 28.6858 27.5299C28.5509 27.6105 26.7293 28.6623 24.2691 30.0828L24.2641 30.0857L24.263 30.0864C18.9658 33.145 10.7149 37.9091 9.9596 38.3716C9.78936 38.4563 9.61912 38.7104 9.61912 38.9645V40.235C9.61912 40.4891 9.70424 40.6585 9.87448 40.7432C9.9596 40.8279 10.1298 40.9126 10.3001 40.9126H10.4703L26.4727 37.3552V35.9153H26.3876L11.1513 39.3033C18.2317 35.2468 22.6418 32.7038 25.3826 31.1234C26.9911 30.1959 28.0248 29.5998 28.6858 29.224L28.771 33.2896L28.6858 37.3552C28.771 42.2678 29.3668 46.7569 30.1329 50.5685L23.2382 53.4483C22.9829 53.533 22.8126 53.7871 22.8126 54.1259V57.0904C22.8126 57.3445 22.8977 57.5139 23.068 57.6833C23.1531 57.768 23.3233 57.8527 23.4936 57.8527H23.6638L31.3245 55.8199C31.9715 58.2662 32.5693 59.9297 32.8189 60.6243L32.8189 60.6243L32.819 60.6244C32.8977 60.8436 32.9418 60.9663 32.9418 60.9866C33.0269 61.2407 33.2823 61.4101 33.6228 61.4101C33.8781 61.4101 34.2186 61.2407 34.3037 60.9866C34.3037 60.9663 34.3478 60.8436 34.4266 60.6244L34.4266 60.6243L34.4266 60.6243C34.6763 59.9296 35.274 58.2662 35.921 55.8199L36.2615 54.4647L36.8573 52.0084L37.1127 50.5685C37.8787 46.8416 38.4746 42.2678 38.5597 37.3552H40.6877L56.7752 40.9126H56.9455C57.1157 40.9126 57.2859 40.8279 57.3711 40.7432C57.5413 40.5738 57.6264 40.4044 57.6264 40.235V38.9645C57.7115 38.7104 57.5413 38.4563 57.2859 38.3716ZM24.2596 56.1587V54.5494L30.4734 51.839C30.571 52.325 30.6968 52.8111 30.8183 53.2811C30.9086 53.6302 30.9966 53.9704 31.0692 54.2953L24.2596 56.1587ZM33.6228 58.5303C33.5311 58.196 33.4176 57.829 33.2939 57.4292C33.0729 56.7149 32.8196 55.8961 32.6013 54.9729V54.8035L31.665 50.8226V50.7379C30.8138 46.6722 30.1329 41.6749 30.1329 36.3388C30.1329 24.1419 30.1329 12.6227 33.6228 12.6227C37.1127 12.6227 37.1127 29.9016 37.1127 36.3388C37.1978 46.164 34.8144 54.8035 33.6228 58.5303ZM40.943 35.9153H40.7728H38.7299L38.6448 29.224C38.929 29.4125 39.2923 29.6272 39.7493 29.8974L39.7495 29.8976C40.1137 30.1129 40.5375 30.3634 41.0281 30.6639L41.1984 30.7486C41.8683 31.1345 42.655 31.5931 43.5767 32.1303C44.8802 32.8901 46.4537 33.8073 48.3484 34.8989C48.3973 34.9475 48.4181 34.9682 48.4431 34.9771C48.4616 34.9836 48.4824 34.9836 48.5187 34.9836L52.349 37.1858H52.4341C53.023 37.5464 53.6601 37.907 54.3198 38.2804L54.3198 38.2804C54.8997 38.6086 55.497 38.9467 56.0943 39.3033L40.943 35.9153ZM42.541 41.8731C41.0082 43.3062 40.49 46.0107 42.5302 48.1118C42.5194 48.1334 42.514 48.1495 42.51 48.1617C42.506 48.1738 42.5033 48.1819 42.4979 48.1873C42.4601 48.2034 42.425 48.2223 42.3899 48.2411C42.3548 48.26 42.3197 48.2788 42.282 48.295C39.4213 49.7065 37.8884 51.9908 37.7373 55.1802C37.7049 55.7836 38.0503 56.193 38.5685 56.2038C39.0867 56.2254 39.4321 55.8267 39.4645 55.2233L39.4649 55.2127C39.4756 54.9573 39.4867 54.6916 39.5293 54.4259C39.9503 51.5921 42.228 49.5341 45.1966 49.3186C47.8629 49.1247 50.4645 50.9025 51.2525 53.5209C51.3907 53.9863 51.446 54.4794 51.5012 54.9724C51.5151 55.0957 51.5289 55.219 51.544 55.3418C51.6088 55.8267 51.8355 56.1392 52.2457 56.2146C52.8286 56.3223 53.3036 55.8806 53.2712 55.2233C53.1201 52.0986 51.6519 49.8035 48.8669 48.3597C48.7703 48.3034 48.6677 48.2532 48.5592 48.2C48.5221 48.1819 48.4843 48.1634 48.4459 48.1442C50.4537 46.1077 50.0651 43.4139 48.4998 41.9055C46.8374 40.3 44.225 40.2892 42.541 41.8731ZM42.9296 44.9871C42.9296 43.5432 44.0739 42.4227 45.5204 42.4227C46.9562 42.4227 48.1112 43.5863 48.1112 45.0086C48.1004 46.4309 46.9346 47.5839 45.4988 47.5839C44.0631 47.5731 42.9189 46.4309 42.9296 44.9871Z" fill="url(#paint0_linear_89_119)"/>
<defs>
<linearGradient id="paint0_linear_89_119" x1="-16.8088" y1="-3.5168e-05" x2="77.1359" y2="2.29371" gradientUnits="userSpaceOnUse">
<stop stop-color="#37DADA"/>
<stop offset="1" stop-color="#254DB5"/>
</linearGradient>
</defs>
</svg>
