<svg width="91" height="91" viewBox="0 0 91 91" fill="none" xmlns="http://www.w3.org/2000/svg">
<path d="M0.0237288 38.3943C0.261017 36.7837 0.427119 35.1731 0.711865 33.5862C2.08814 26.0778 5.33899 19.4695 10.3932 13.7613C11.0814 12.9797 11.8644 12.8613 12.4814 13.4297C13.0983 13.9982 13.0983 14.7324 12.3865 15.5377C8.09153 20.3933 5.19662 25.9594 3.7017 32.2834C-1.09153 52.5346 11.5085 73.1884 31.7017 78.1387C36.0678 79.2046 40.5289 79.5362 45.0136 79.0388C45.3695 78.9914 45.7729 78.7546 46.0102 78.4703C46.5085 77.9256 46.8645 77.2624 47.3628 76.7176C47.7187 76.2913 47.6238 75.9833 47.4339 75.5333C47.078 74.728 46.6272 74.6569 45.7729 74.7517C33.8373 76.1728 23.6576 72.5726 15.5661 63.6432C8.99323 56.3954 6.24068 47.7028 7.02374 37.9443C8.13899 24.1119 18.0339 11.9375 31.4882 8.26627C44.5865 4.68974 56.0475 7.8873 65.6814 17.4563C66.4407 18.1905 66.4882 18.9721 65.9187 19.5643C65.3255 20.1801 64.5187 20.0854 63.7594 19.3037C59.0848 14.4482 53.4373 11.3454 46.817 10.0901C45.3695 9.80583 43.8983 9.71109 42.3797 9.49792C42.3797 18.2616 42.3797 26.8594 42.3797 35.481C44.3967 36.1205 45.8441 37.3758 46.3899 39.4839C46.9831 41.7577 46.3899 43.7236 44.6102 45.2395C42.8543 46.7316 40.8373 46.9685 38.7255 46.0921C38.3221 45.9263 38.0611 45.7605 37.6577 46.1632C31.7255 52.132 25.7695 58.0534 19.7187 64.1169C27.1932 70.7015 35.8068 73.3306 45.7729 72.0752C45.5831 71.412 45.4645 70.8199 45.2509 70.2514C45.2034 70.133 44.9187 70.0383 44.7526 69.9909C43.9695 69.8488 43.1865 69.7303 42.3797 69.6356C40.6 69.3751 39.6746 68.3329 39.6509 66.5091C39.6509 65.6801 39.6509 64.8511 39.6509 64.0221C39.6746 62.2694 40.6 61.2272 42.3322 60.9667C43.0916 60.8483 43.8746 60.7772 44.6102 60.5877C44.895 60.5167 45.2272 60.2324 45.3458 59.9482C46.0814 58.3139 46.7695 56.6322 47.4102 54.9742C47.5289 54.69 47.5051 54.24 47.339 53.9794C46.8882 53.2452 46.3187 52.6057 45.8441 51.8951C44.9661 50.6398 45.0848 49.2897 46.1289 48.1765C46.7933 47.4659 47.4814 46.779 48.1933 46.1158C49.2848 45.0973 50.6136 45.0026 51.8475 45.8316C52.5831 46.329 53.2712 46.9211 54.0068 47.3948C54.2441 47.537 54.6712 47.5606 54.9323 47.4422C56.6407 46.779 58.3255 46.0685 59.9865 45.3342C60.2475 45.2158 60.5085 44.9079 60.5797 44.6473C60.7696 43.9131 60.8407 43.1314 60.9594 42.3735C61.2204 40.5734 62.2645 39.6497 64.0916 39.6497C64.9221 39.6497 65.7526 39.6497 66.5831 39.6497C68.3391 39.6733 69.3831 40.5971 69.6441 42.3498C69.739 43.013 69.9052 43.6999 69.9289 44.3631C69.9526 45.0973 70.3085 45.4053 70.9967 45.5C71.3052 45.5474 71.6136 45.6658 72.0645 45.7842C72.1594 45.0263 72.2543 44.3394 72.3018 43.6525C72.8238 36.5232 71.234 29.9149 67.3424 23.8751C66.7492 22.9513 66.8441 22.1697 67.5797 21.7197C68.2916 21.2696 69.0035 21.5065 69.573 22.4302C74.2001 29.678 75.8848 37.5653 74.6984 46.0921C74.6509 46.4237 74.7933 46.9448 75.0306 47.0869C75.5052 47.4185 75.956 47.9396 76.7391 47.3475C79.0882 45.5711 79.1119 45.6184 79.2306 42.6577C79.9424 24.3961 68.078 8.28995 50.3526 3.88443C38.2034 0.876366 27.0746 3.41072 17.1322 11.0375C16.8712 11.227 16.6339 11.4638 16.3729 11.6533C15.6848 12.1507 14.9492 12.1033 14.4509 11.5349C13.9288 10.9191 13.9763 10.1374 14.6881 9.59266C16.6576 8.17153 18.5797 6.67933 20.6678 5.44768C25.9593 2.34487 31.678 0.615825 37.8 0.142113C37.9899 0.118428 38.2034 0.0473712 38.3933 0C40.1017 0 41.8339 0 43.5424 0C44.3967 0.118428 45.2272 0.236856 46.0814 0.331598C54.0068 1.30271 61.1018 4.31078 67.1526 9.49792C77.8306 18.6642 82.695 30.3649 81.7458 44.4341C81.6984 45.121 81.7458 45.6184 82.3865 46.0921C83.1696 46.6843 83.8102 47.4422 84.4747 48.1528C85.5187 49.266 85.6374 50.6161 84.7594 51.8714C84.2848 52.582 83.7153 53.2215 83.2645 53.9557C83.0984 54.2163 83.0747 54.6663 83.1933 54.9505C83.834 56.6322 84.5458 58.2902 85.2577 59.9245C85.3764 60.2087 85.7085 60.493 85.9933 60.564C86.8001 60.7535 87.6306 60.8246 88.4374 60.9667C90.0509 61.2509 90.9289 62.2931 90.9526 63.9037C90.9764 64.7564 90.9526 65.6091 90.9526 66.4854C90.9289 68.3092 90.0272 69.3277 88.2238 69.6119C87.4645 69.7303 86.7052 69.8014 85.9458 69.9909C85.6848 70.0619 85.3526 70.3225 85.2577 70.583C84.5221 72.2647 83.8102 73.9464 83.1458 75.6517C83.0509 75.9123 83.0509 76.3386 83.1933 76.5755C83.6679 77.3334 84.2374 77.9966 84.7357 78.7309C85.5662 79.9625 85.4713 81.2889 84.4747 82.3784C83.8102 83.089 83.1221 83.7759 82.4102 84.4628C81.2713 85.5523 79.9187 85.6234 78.6136 84.7233C77.973 84.2733 77.356 83.8469 76.7628 83.3495C76.3119 82.9706 75.9797 82.9706 75.434 83.2548C74.2238 83.8706 73.0136 84.5575 71.7085 84.8891C70.3323 85.2207 69.7628 85.8365 69.739 87.2577C69.7153 88.892 69.217 90.3368 67.4848 91C66.0136 91 64.5187 91 63.0475 91C61.6238 90.3842 60.9356 89.3183 60.8645 87.7788C60.8407 87.1866 60.7458 86.5945 60.556 86.026C60.4611 85.7418 60.1763 85.4102 59.9153 85.2918C58.278 84.5575 56.617 83.8706 54.9323 83.2311C54.6475 83.1127 54.1967 83.1601 53.9356 83.3022C53.1763 83.7759 52.5119 84.3444 51.7763 84.8417C50.6136 85.6234 49.2848 85.5523 48.2645 84.6049C47.4102 83.8233 46.6509 82.9469 45.8204 82.1653C45.6068 81.9521 45.2509 81.7863 44.9424 81.7863C43.9695 81.7863 42.9967 81.9284 42.0238 81.9521C32.7695 82.1179 24.2983 79.6309 16.8475 74.1122C8.11526 67.6697 2.68136 59.0955 0.688136 48.4133C0.379661 46.8264 0.21356 45.2158 0 43.6052C0.0237288 41.8287 0.0237288 40.0997 0.0237288 38.3943ZM17.8204 62.2457C23.8475 56.2059 29.7797 50.2608 35.7356 44.3394C36.0678 44.0078 36.0678 43.7473 35.878 43.3446C35.2848 42.1366 35.1661 40.8576 35.5221 39.5549C36.0916 37.4232 37.539 36.1442 39.556 35.5047C39.556 26.8594 39.556 18.2616 39.556 9.59266C31.9153 10.019 25.3424 12.7665 19.6475 17.8826C20.7865 19.0195 21.878 20.0617 22.9458 21.1275C23.4678 21.6486 23.6576 22.2171 23.278 22.8803C22.8271 23.6856 21.8305 23.7566 21.0949 23.0224C20.0034 21.9565 18.9593 20.8433 17.8441 19.6827C12.6949 25.4383 9.94238 31.9992 9.53899 39.6497C9.98984 39.6497 10.2983 39.6497 10.6305 39.6497C11.8644 39.6497 13.122 39.626 14.3559 39.6733C15.1865 39.697 15.6848 40.2892 15.6848 41.0471C15.661 41.7577 15.1627 42.2788 14.3797 42.3261C14.0237 42.3498 13.6678 42.3261 13.3119 42.3261C12.078 42.3261 10.8441 42.3261 9.53899 42.3261C9.98984 50.0003 12.7187 56.5375 17.8204 62.2457ZM82.6238 80.3178C81.8645 79.2993 81.0814 78.2098 80.2984 77.1439C79.8475 76.5518 79.7763 75.9597 80.1797 75.3438C81.5323 73.3306 82.434 71.1278 82.9323 68.7592C83.0747 68.025 83.5255 67.6223 84.2374 67.5276C85.1153 67.4092 85.9933 67.267 86.8713 67.1486C88.295 66.9591 88.295 66.9591 88.295 65.4906C88.295 65.088 88.2713 64.6616 88.295 64.259C88.3187 63.809 88.1526 63.6432 87.7018 63.5721C86.6577 63.4537 85.6136 63.1931 84.5458 63.0984C83.5255 63.0036 83.0272 62.5062 82.8374 61.5351C82.434 59.3561 81.5797 57.3428 80.3458 55.519C79.8001 54.7137 79.8001 54.0268 80.417 53.2689C81.2001 52.2741 81.9357 51.2319 82.6238 50.3082C81.8408 49.4792 81.1526 48.7212 80.3933 47.9159C79.3255 48.6976 78.2814 49.4555 77.2374 50.2371C76.573 50.7582 75.9323 50.8056 75.1967 50.3319C73.2509 49.0291 71.1391 48.1528 68.8611 47.7028C68.0068 47.537 67.6035 47.0632 67.4848 46.2106C67.3187 44.9315 67.1051 43.6525 66.8916 42.3024C65.9662 42.3024 65.1119 42.3261 64.2577 42.3024C63.7594 42.2788 63.617 42.4919 63.5458 42.9656C63.4272 43.9841 63.1899 45.0026 63.095 46.0448C63.0001 47.0632 62.5255 47.5843 61.5289 47.7738C59.3221 48.2002 57.2814 49.0528 55.4306 50.3082C54.6475 50.8293 53.9831 50.7819 53.2475 50.2134C52.2509 49.4318 51.2068 48.6976 50.3289 48.0344C49.4984 48.8397 48.7628 49.5739 47.9797 50.3319C48.7153 51.3266 49.4746 52.3688 50.2577 53.411C50.7323 54.0268 50.8034 54.6426 50.3526 55.2821C49.0238 57.2717 48.1221 59.4508 47.6475 61.7957C47.4814 62.6247 46.9831 62.98 46.1763 63.0984C45.0611 63.2405 43.9458 63.4063 42.8543 63.6195C42.6407 63.6668 42.3085 63.9037 42.2848 64.0932C42.2373 65.0169 42.2611 65.9643 42.2611 66.9118C43.6373 67.1249 44.8712 67.3381 46.1289 67.5039C47.0306 67.6223 47.5051 68.0724 47.6712 68.9487C48.1221 71.1989 49 73.3069 50.2814 75.2017C50.756 75.9123 50.7323 76.5518 50.2102 77.2387C49.4272 78.2808 48.6678 79.323 47.9322 80.2941C48.7153 81.0994 49.4746 81.8337 50.2577 82.639C51.3017 81.881 52.3695 81.0994 53.4373 80.2941C54.0306 79.8441 54.6238 79.7967 55.2407 80.2231C57.2577 81.5731 59.4645 82.4732 61.8373 82.9469C62.5729 83.089 62.9526 83.5627 63.0475 84.2733C63.2136 85.4102 63.4035 86.5471 63.5458 87.684C63.5933 88.1104 63.7357 88.3235 64.1865 88.2998C64.8984 88.2762 65.6102 88.2762 66.3221 88.2998C66.7967 88.3235 66.9153 88.1104 66.9628 87.684C67.1051 86.6182 67.3424 85.576 67.4374 84.5338C67.5323 83.5154 68.0543 83.018 69.0272 82.8285C71.2102 82.4021 73.2035 81.5731 75.0543 80.3178C75.8611 79.773 76.5492 79.8204 77.3085 80.4125C78.3052 81.1942 79.3255 81.9047 80.2747 82.6153C81.1289 81.8337 81.8645 81.0994 82.6238 80.3178ZM41.0034 43.9131C42.617 43.8894 43.8983 42.6104 43.9221 40.9761C43.9221 39.3181 42.617 38.0154 40.9322 38.0154C39.3187 38.039 38.0373 39.3181 38.0136 40.9524C38.0136 42.634 39.3424 43.9368 41.0034 43.9131Z" fill="black"/>
<path d="M0.0237288 38.3943C0.261017 36.7837 0.427119 35.1731 0.711865 33.5862C2.08814 26.0778 5.33899 19.4695 10.3932 13.7613C11.0814 12.9797 11.8644 12.8613 12.4814 13.4297C13.0983 13.9982 13.0983 14.7324 12.3865 15.5377C8.09153 20.3933 5.19662 25.9594 3.7017 32.2834C-1.09153 52.5346 11.5085 73.1884 31.7017 78.1387C36.0678 79.2046 40.5289 79.5362 45.0136 79.0388C45.3695 78.9914 45.7729 78.7546 46.0102 78.4703C46.5085 77.9256 46.8645 77.2624 47.3628 76.7176C47.7187 76.2913 47.6238 75.9833 47.4339 75.5333C47.078 74.728 46.6272 74.6569 45.7729 74.7517C33.8373 76.1728 23.6576 72.5726 15.5661 63.6432C8.99323 56.3954 6.24068 47.7028 7.02374 37.9443C8.13899 24.1119 18.0339 11.9375 31.4882 8.26627C44.5865 4.68974 56.0475 7.8873 65.6814 17.4563C66.4407 18.1905 66.4882 18.9721 65.9187 19.5643C65.3255 20.1801 64.5187 20.0854 63.7594 19.3037C59.0848 14.4482 53.4373 11.3454 46.817 10.0901C45.3695 9.80583 43.8983 9.71109 42.3797 9.49792C42.3797 18.2616 42.3797 26.8594 42.3797 35.481C44.3967 36.1205 45.8441 37.3758 46.3899 39.4839C46.9831 41.7577 46.3899 43.7236 44.6102 45.2395C42.8543 46.7316 40.8373 46.9685 38.7255 46.0921C38.3221 45.9263 38.0611 45.7605 37.6577 46.1632C31.7255 52.132 25.7695 58.0534 19.7187 64.1169C27.1932 70.7015 35.8068 73.3306 45.7729 72.0752C45.5831 71.412 45.4645 70.8199 45.2509 70.2514C45.2034 70.133 44.9187 70.0383 44.7526 69.9909C43.9695 69.8488 43.1865 69.7303 42.3797 69.6356C40.6 69.3751 39.6746 68.3329 39.6509 66.5091C39.6509 65.6801 39.6509 64.8511 39.6509 64.0221C39.6746 62.2694 40.6 61.2272 42.3322 60.9667C43.0916 60.8483 43.8746 60.7772 44.6102 60.5877C44.895 60.5167 45.2272 60.2324 45.3458 59.9482C46.0814 58.3139 46.7695 56.6322 47.4102 54.9742C47.5289 54.69 47.5051 54.24 47.339 53.9794C46.8882 53.2452 46.3187 52.6057 45.8441 51.8951C44.9661 50.6398 45.0848 49.2897 46.1289 48.1765C46.7933 47.4659 47.4814 46.779 48.1933 46.1158C49.2848 45.0973 50.6136 45.0026 51.8475 45.8316C52.5831 46.329 53.2712 46.9211 54.0068 47.3948C54.2441 47.537 54.6712 47.5606 54.9323 47.4422C56.6407 46.779 58.3255 46.0685 59.9865 45.3342C60.2475 45.2158 60.5085 44.9079 60.5797 44.6473C60.7696 43.9131 60.8407 43.1314 60.9594 42.3735C61.2204 40.5734 62.2645 39.6497 64.0916 39.6497C64.9221 39.6497 65.7526 39.6497 66.5831 39.6497C68.3391 39.6733 69.3831 40.5971 69.6441 42.3498C69.739 43.013 69.9052 43.6999 69.9289 44.3631C69.9526 45.0973 70.3085 45.4053 70.9967 45.5C71.3052 45.5474 71.6136 45.6658 72.0645 45.7842C72.1594 45.0263 72.2543 44.3394 72.3018 43.6525C72.8238 36.5232 71.234 29.9149 67.3424 23.8751C66.7492 22.9513 66.8441 22.1697 67.5797 21.7197C68.2916 21.2696 69.0035 21.5065 69.573 22.4302C74.2001 29.678 75.8848 37.5653 74.6984 46.0921C74.6509 46.4237 74.7933 46.9448 75.0306 47.0869C75.5052 47.4185 75.956 47.9396 76.7391 47.3475C79.0882 45.5711 79.1119 45.6184 79.2306 42.6577C79.9424 24.3961 68.078 8.28995 50.3526 3.88443C38.2034 0.876366 27.0746 3.41072 17.1322 11.0375C16.8712 11.227 16.6339 11.4638 16.3729 11.6533C15.6848 12.1507 14.9492 12.1033 14.4509 11.5349C13.9288 10.9191 13.9763 10.1374 14.6881 9.59266C16.6576 8.17153 18.5797 6.67933 20.6678 5.44768C25.9593 2.34487 31.678 0.615825 37.8 0.142113C37.9899 0.118428 38.2034 0.0473712 38.3933 0C40.1017 0 41.8339 0 43.5424 0C44.3967 0.118428 45.2272 0.236856 46.0814 0.331598C54.0068 1.30271 61.1018 4.31078 67.1526 9.49792C77.8306 18.6642 82.695 30.3649 81.7458 44.4341C81.6984 45.121 81.7458 45.6184 82.3865 46.0921C83.1696 46.6843 83.8102 47.4422 84.4747 48.1528C85.5187 49.266 85.6374 50.6161 84.7594 51.8714C84.2848 52.582 83.7153 53.2215 83.2645 53.9557C83.0984 54.2163 83.0747 54.6663 83.1933 54.9505C83.834 56.6322 84.5458 58.2902 85.2577 59.9245C85.3764 60.2087 85.7085 60.493 85.9933 60.564C86.8001 60.7535 87.6306 60.8246 88.4374 60.9667C90.0509 61.2509 90.9289 62.2931 90.9526 63.9037C90.9764 64.7564 90.9526 65.6091 90.9526 66.4854C90.9289 68.3092 90.0272 69.3277 88.2238 69.6119C87.4645 69.7303 86.7052 69.8014 85.9458 69.9909C85.6848 70.0619 85.3526 70.3225 85.2577 70.583C84.5221 72.2647 83.8102 73.9464 83.1458 75.6517C83.0509 75.9123 83.0509 76.3386 83.1933 76.5755C83.6679 77.3334 84.2374 77.9966 84.7357 78.7309C85.5662 79.9625 85.4713 81.2889 84.4747 82.3784C83.8102 83.089 83.1221 83.7759 82.4102 84.4628C81.2713 85.5523 79.9187 85.6234 78.6136 84.7233C77.973 84.2733 77.356 83.8469 76.7628 83.3495C76.3119 82.9706 75.9797 82.9706 75.434 83.2548C74.2238 83.8706 73.0136 84.5575 71.7085 84.8891C70.3323 85.2207 69.7628 85.8365 69.739 87.2577C69.7153 88.892 69.217 90.3368 67.4848 91C66.0136 91 64.5187 91 63.0475 91C61.6238 90.3842 60.9356 89.3183 60.8645 87.7788C60.8407 87.1866 60.7458 86.5945 60.556 86.026C60.4611 85.7418 60.1763 85.4102 59.9153 85.2918C58.278 84.5575 56.617 83.8706 54.9323 83.2311C54.6475 83.1127 54.1967 83.1601 53.9356 83.3022C53.1763 83.7759 52.5119 84.3444 51.7763 84.8417C50.6136 85.6234 49.2848 85.5523 48.2645 84.6049C47.4102 83.8233 46.6509 82.9469 45.8204 82.1653C45.6068 81.9521 45.2509 81.7863 44.9424 81.7863C43.9695 81.7863 42.9967 81.9284 42.0238 81.9521C32.7695 82.1179 24.2983 79.6309 16.8475 74.1122C8.11526 67.6697 2.68136 59.0955 0.688136 48.4133C0.379661 46.8264 0.21356 45.2158 0 43.6052C0.0237288 41.8287 0.0237288 40.0997 0.0237288 38.3943ZM17.8204 62.2457C23.8475 56.2059 29.7797 50.2608 35.7356 44.3394C36.0678 44.0078 36.0678 43.7473 35.878 43.3446C35.2848 42.1366 35.1661 40.8576 35.5221 39.5549C36.0916 37.4232 37.539 36.1442 39.556 35.5047C39.556 26.8594 39.556 18.2616 39.556 9.59266C31.9153 10.019 25.3424 12.7665 19.6475 17.8826C20.7865 19.0195 21.878 20.0617 22.9458 21.1275C23.4678 21.6486 23.6576 22.2171 23.278 22.8803C22.8271 23.6856 21.8305 23.7566 21.0949 23.0224C20.0034 21.9565 18.9593 20.8433 17.8441 19.6827C12.6949 25.4383 9.94238 31.9992 9.53899 39.6497C9.98984 39.6497 10.2983 39.6497 10.6305 39.6497C11.8644 39.6497 13.122 39.626 14.3559 39.6733C15.1865 39.697 15.6848 40.2892 15.6848 41.0471C15.661 41.7577 15.1627 42.2788 14.3797 42.3261C14.0237 42.3498 13.6678 42.3261 13.3119 42.3261C12.078 42.3261 10.8441 42.3261 9.53899 42.3261C9.98984 50.0003 12.7187 56.5375 17.8204 62.2457ZM82.6238 80.3178C81.8645 79.2993 81.0814 78.2098 80.2984 77.1439C79.8475 76.5518 79.7763 75.9597 80.1797 75.3438C81.5323 73.3306 82.434 71.1278 82.9323 68.7592C83.0747 68.025 83.5255 67.6223 84.2374 67.5276C85.1153 67.4092 85.9933 67.267 86.8713 67.1486C88.295 66.9591 88.295 66.9591 88.295 65.4906C88.295 65.088 88.2713 64.6616 88.295 64.259C88.3187 63.809 88.1526 63.6432 87.7018 63.5721C86.6577 63.4537 85.6136 63.1931 84.5458 63.0984C83.5255 63.0036 83.0272 62.5062 82.8374 61.5351C82.434 59.3561 81.5797 57.3428 80.3458 55.519C79.8001 54.7137 79.8001 54.0268 80.417 53.2689C81.2001 52.2741 81.9357 51.2319 82.6238 50.3082C81.8408 49.4792 81.1526 48.7212 80.3933 47.9159C79.3255 48.6976 78.2814 49.4555 77.2374 50.2371C76.573 50.7582 75.9323 50.8056 75.1967 50.3319C73.2509 49.0291 71.1391 48.1528 68.8611 47.7028C68.0068 47.537 67.6035 47.0632 67.4848 46.2106C67.3187 44.9315 67.1051 43.6525 66.8916 42.3024C65.9662 42.3024 65.1119 42.3261 64.2577 42.3024C63.7594 42.2788 63.617 42.4919 63.5458 42.9656C63.4272 43.9841 63.1899 45.0026 63.095 46.0448C63.0001 47.0632 62.5255 47.5843 61.5289 47.7738C59.3221 48.2002 57.2814 49.0528 55.4306 50.3082C54.6475 50.8293 53.9831 50.7819 53.2475 50.2134C52.2509 49.4318 51.2068 48.6976 50.3289 48.0344C49.4984 48.8397 48.7628 49.5739 47.9797 50.3319C48.7153 51.3266 49.4746 52.3688 50.2577 53.411C50.7323 54.0268 50.8034 54.6426 50.3526 55.2821C49.0238 57.2717 48.1221 59.4508 47.6475 61.7957C47.4814 62.6247 46.9831 62.98 46.1763 63.0984C45.0611 63.2405 43.9458 63.4063 42.8543 63.6195C42.6407 63.6668 42.3085 63.9037 42.2848 64.0932C42.2373 65.0169 42.2611 65.9643 42.2611 66.9118C43.6373 67.1249 44.8712 67.3381 46.1289 67.5039C47.0306 67.6223 47.5051 68.0724 47.6712 68.9487C48.1221 71.1989 49 73.3069 50.2814 75.2017C50.756 75.9123 50.7323 76.5518 50.2102 77.2387C49.4272 78.2808 48.6678 79.323 47.9322 80.2941C48.7153 81.0994 49.4746 81.8337 50.2577 82.639C51.3017 81.881 52.3695 81.0994 53.4373 80.2941C54.0306 79.8441 54.6238 79.7967 55.2407 80.2231C57.2577 81.5731 59.4645 82.4732 61.8373 82.9469C62.5729 83.089 62.9526 83.5627 63.0475 84.2733C63.2136 85.4102 63.4035 86.5471 63.5458 87.684C63.5933 88.1104 63.7357 88.3235 64.1865 88.2998C64.8984 88.2762 65.6102 88.2762 66.3221 88.2998C66.7967 88.3235 66.9153 88.1104 66.9628 87.684C67.1051 86.6182 67.3424 85.576 67.4374 84.5338C67.5323 83.5154 68.0543 83.018 69.0272 82.8285C71.2102 82.4021 73.2035 81.5731 75.0543 80.3178C75.8611 79.773 76.5492 79.8204 77.3085 80.4125C78.3052 81.1942 79.3255 81.9047 80.2747 82.6153C81.1289 81.8337 81.8645 81.0994 82.6238 80.3178ZM41.0034 43.9131C42.617 43.8894 43.8983 42.6104 43.9221 40.9761C43.9221 39.3181 42.617 38.0154 40.9322 38.0154C39.3187 38.039 38.0373 39.3181 38.0136 40.9524C38.0136 42.634 39.3424 43.9368 41.0034 43.9131Z" fill="url(#paint0_linear_89_107)"/>
<path d="M78.9456 66.1539C78.9218 68.8541 77.7354 71.9095 75.3862 74.4912C74.5795 75.3676 73.4879 75.2965 73.0371 74.3491C72.7049 73.6385 73.0371 73.1175 73.4879 72.5964C75.4574 70.3462 76.3591 67.7408 76.2405 64.7564C76.0269 59.8772 72.4439 55.5901 67.6981 54.5716C62.7862 53.5058 57.7794 55.8507 55.5252 60.2562C53.4845 64.2827 54.0303 69.0909 56.9489 72.4543C59.915 75.865 64.4947 77.1203 68.7896 75.6992C69.0506 75.6044 69.2879 75.5097 69.549 75.486C70.2371 75.3913 70.8066 75.6518 71.0201 76.3387C71.2337 77.0493 71.0439 77.7125 70.332 77.9493C69.2879 78.3283 68.1964 78.6599 67.0812 78.8257C59.6778 79.9152 52.6303 74.4912 51.7049 67.0066C50.7794 59.5219 56.1184 52.6294 63.5456 51.7294C71.7795 50.7346 78.9693 57.1297 78.9456 66.1539Z" fill="black"/>
<path d="M78.9456 66.1539C78.9218 68.8541 77.7354 71.9095 75.3862 74.4912C74.5795 75.3676 73.4879 75.2965 73.0371 74.3491C72.7049 73.6385 73.0371 73.1175 73.4879 72.5964C75.4574 70.3462 76.3591 67.7408 76.2405 64.7564C76.0269 59.8772 72.4439 55.5901 67.6981 54.5716C62.7862 53.5058 57.7794 55.8507 55.5252 60.2562C53.4845 64.2827 54.0303 69.0909 56.9489 72.4543C59.915 75.865 64.4947 77.1203 68.7896 75.6992C69.0506 75.6044 69.2879 75.5097 69.549 75.486C70.2371 75.3913 70.8066 75.6518 71.0201 76.3387C71.2337 77.0493 71.0439 77.7125 70.332 77.9493C69.2879 78.3283 68.1964 78.6599 67.0812 78.8257C59.6778 79.9152 52.6303 74.4912 51.7049 67.0066C50.7794 59.5219 56.1184 52.6294 63.5456 51.7294C71.7795 50.7346 78.9693 57.1297 78.9456 66.1539Z" fill="url(#paint1_linear_89_107)"/>
<path d="M63.4979 66.3908C65.2064 64.8038 66.725 63.3827 68.2437 61.9616C68.4572 61.7484 68.6471 61.5352 68.8844 61.3457C69.4776 60.8246 70.1894 60.8246 70.7352 61.322C71.281 61.8194 71.3284 62.6247 70.7589 63.2169C69.9284 64.1406 69.0267 65.017 68.1725 65.8934C67.1284 66.9829 66.0843 68.0724 64.9928 69.1383C64.2335 69.8962 63.5928 69.8725 62.8335 69.162C61.8843 68.2619 60.9589 67.3619 60.0335 66.4381C59.3691 65.7749 59.2979 64.9696 59.8437 64.4012C60.4132 63.809 61.1962 63.8327 61.8843 64.5196C62.5013 65.1591 63.0708 65.8934 63.4979 66.3908Z" fill="black"/>
<path d="M63.4979 66.3908C65.2064 64.8038 66.725 63.3827 68.2437 61.9616C68.4572 61.7484 68.6471 61.5352 68.8844 61.3457C69.4776 60.8246 70.1894 60.8246 70.7352 61.322C71.281 61.8194 71.3284 62.6247 70.7589 63.2169C69.9284 64.1406 69.0267 65.017 68.1725 65.8934C67.1284 66.9829 66.0843 68.0724 64.9928 69.1383C64.2335 69.8962 63.5928 69.8725 62.8335 69.162C61.8843 68.2619 60.9589 67.3619 60.0335 66.4381C59.3691 65.7749 59.2979 64.9696 59.8437 64.4012C60.4132 63.809 61.1962 63.8327 61.8843 64.5196C62.5013 65.1591 63.0708 65.8934 63.4979 66.3908Z" fill="url(#paint2_linear_89_107)"/>
<defs>
<linearGradient id="paint0_linear_89_107" x1="-16.7955" y1="-3.5168e-05" x2="77.0751" y2="2.29009" gradientUnits="userSpaceOnUse">
<stop stop-color="#37DADA"/>
<stop offset="1" stop-color="#254DB5"/>
</linearGradient>
<linearGradient id="paint1_linear_89_107" x1="46.5516" y1="51.6274" x2="74.7706" y2="52.3163" gradientUnits="userSpaceOnUse">
<stop stop-color="#37DADA"/>
<stop offset="1" stop-color="#254DB5"/>
</linearGradient>
<linearGradient id="paint2_linear_89_107" x1="57.3217" y1="60.9519" x2="69.3758" y2="61.3449" gradientUnits="userSpaceOnUse">
<stop stop-color="#37DADA"/>
<stop offset="1" stop-color="#254DB5"/>
</linearGradient>
</defs>
</svg>
