<svg width="108" height="91" viewBox="0 0 108 91" fill="none" xmlns="http://www.w3.org/2000/svg">
<path d="M4.94339 59.1437C3.00272 58.5612 1.60786 57.4574 1.12269 55.4032C0.63752 53.3183 1.54721 51.1107 3.48789 50.1909C4.33693 49.7923 4.48855 49.2711 4.48855 48.4433C4.45822 44.1202 4.45822 39.7971 4.48855 35.474C4.48855 33.3584 4.8221 33.0212 6.94471 33.0212C9.27959 33.0212 11.6145 33.0212 14.0706 33.0212C14.101 32.5306 14.1313 32.132 14.1313 31.7028C14.1313 27.4103 14.1313 23.1179 14.1313 18.8561C14.1313 16.9552 14.5861 16.5259 16.4965 16.4952C18.9223 16.4952 21.3178 16.4952 23.8347 16.4952C23.8347 15.9434 23.8347 15.5448 23.8347 15.1462C23.8347 10.8231 23.8347 6.49999 23.8347 2.17688C23.8347 0.490565 24.3198 0 25.9876 0C32.0825 0 38.1775 0 44.2724 0C45.8795 0 46.3647 0.490565 46.3647 2.11556C46.3647 6.43867 46.3647 10.7618 46.3647 15.0849C46.3647 15.4835 46.3647 15.9127 46.3647 16.4952C48.0021 16.4952 49.5486 16.4952 51.0648 16.4952C52.0351 16.4952 53.0357 16.4952 54.0061 16.4952C55.5222 16.5259 56.0377 17.0471 56.0377 18.5801C56.0377 22.9339 56.0377 27.3183 56.0377 31.6721C56.0377 32.0707 56.0377 32.4999 56.0377 33.0212C58.0997 33.0212 60.01 33.0518 61.9204 32.9905C62.1327 32.9905 62.4662 32.5613 62.5269 32.2853C62.6178 31.7334 62.5572 31.1509 62.5875 30.5683C62.7694 27.3797 65.2559 24.8349 68.4095 24.8042C74.6561 24.7429 80.9026 24.7429 87.1492 24.8042C89.9086 24.8349 91.9705 26.6132 92.8499 29.5565C94.7603 35.9032 96.6403 42.2806 98.5203 48.6579C98.7023 49.3018 98.9752 49.639 99.6726 49.7923C104.13 50.8961 107.011 54.4527 107.102 59.1437C107.193 64.2947 107.162 69.4763 107.102 74.6272C107.071 78.3678 104.494 80.9126 100.764 80.9739C98.49 81.0045 96.2158 81.0045 93.9415 80.9739C93.2744 80.9739 92.9712 81.1272 92.7893 81.863C91.3034 87.2593 86.7247 90.7545 81.3271 90.7239C76.0206 90.6932 71.4722 87.1673 69.9863 81.8324C69.7741 81.0965 69.4405 80.9739 68.8037 80.9739C58.9184 80.9739 49.0634 80.9739 39.1781 80.9739C38.4807 80.9739 38.2381 81.1885 38.0562 81.8937C36.6916 87.3206 32.0825 90.9691 26.6547 90.9998C21.1662 91.0305 16.5571 87.4126 15.1623 81.9244C14.9803 81.1885 14.6468 80.9432 13.919 81.0046C13.0396 81.0659 12.1906 81.0352 11.3112 81.0046C7.49053 80.9126 4.94339 78.3064 4.91307 74.4432C4.88275 69.7829 4.91307 65.1225 4.91307 60.4315C4.94339 60.0022 4.94339 59.573 4.94339 59.1437ZM62.5269 59.2051C44.333 59.2051 26.2908 59.2051 8.18796 59.2051C8.18796 64.5706 8.15764 69.8442 8.21828 75.1178C8.2486 76.4975 9.40088 77.5706 10.8261 77.6932C11.8267 77.7852 12.8577 77.7239 13.8887 77.7546C14.6164 77.7852 14.8894 77.6012 15.0713 76.8041C16.0416 72.1437 18.801 68.955 23.2888 67.606C27.8373 66.2263 31.8703 67.422 35.2361 70.856C37.0858 72.7263 38.0258 75.0871 38.42 77.6932C46.486 77.6932 54.4913 77.6932 62.5572 77.6932C62.5269 71.4998 62.5269 65.3985 62.5269 59.2051ZM69.5618 77.6932C70.987 70.856 75.3535 66.8701 81.3575 66.8395C87.3918 66.8088 91.7583 70.764 93.2441 77.6319C93.3351 77.6626 93.4564 77.7546 93.5473 77.7546C95.7913 77.7546 98.0048 77.7852 100.249 77.7852C102.887 77.7852 103.948 76.7121 103.948 74.014C103.948 69.323 103.948 64.6013 103.948 59.9103C103.948 55.3419 101.401 52.7357 96.8222 52.7357C86.9066 52.7357 76.991 52.7357 67.0753 52.7357C66.6811 52.7357 66.2869 52.7357 65.8321 52.7357C65.8321 61.1673 65.8321 69.4149 65.8321 77.7239C67.0753 77.6932 68.2882 77.6932 69.5618 77.6932ZM78.8407 28.0235C78.8407 35.2287 78.8407 42.3112 78.8407 49.4244C84.3595 49.4244 89.8176 49.4244 95.2758 49.4244C95.3061 49.2711 95.3364 49.2098 95.3364 49.1485C93.4261 42.7405 91.546 36.3325 89.6357 29.9551C89.3021 28.8514 88.4834 28.0848 87.3008 28.0542C84.5111 27.9622 81.7214 28.0235 78.8407 28.0235ZM75.5355 49.4244C75.5355 42.2499 75.5355 35.1674 75.5355 27.9622C73.4432 27.9622 71.4115 27.9622 69.3799 27.9622C66.7418 27.9622 65.7714 28.974 65.7714 31.6414C65.7714 37.191 65.7714 42.7098 65.7714 48.2593C65.7714 48.6273 65.8018 48.9952 65.8321 49.4244C69.0766 49.4244 72.2606 49.4244 75.5355 49.4244ZM62.5269 52.7051C61.981 52.7051 61.5868 52.7051 61.1623 52.7051C43.0595 52.7051 24.9263 52.7051 6.82342 52.7051C6.48987 52.7051 6.15631 52.7051 5.79244 52.7357C4.8221 52.8277 4.18532 53.3796 4.18532 54.3301C4.18532 55.2805 4.8221 55.8324 5.79244 55.8938C6.06535 55.9244 6.30793 55.8938 6.58084 55.8938C24.805 55.8938 43.0291 55.8938 61.2836 55.8938C61.6778 55.8938 62.072 55.8631 62.5269 55.8324C62.5269 54.79 62.5269 53.8395 62.5269 52.7051ZM33.538 19.8066C32.3554 19.8066 31.3244 19.8066 30.2025 19.8066C30.2025 21.2476 30.2025 22.6273 30.2025 24.007C30.1722 25.3561 29.6264 25.9386 28.2618 25.9693C26.4424 25.9999 24.6231 25.9693 22.834 25.9693C21.1965 25.9693 20.7114 25.4481 20.7114 23.7617C20.7114 22.4433 20.7114 21.125 20.7114 19.8066C19.4985 19.8066 18.4978 19.8066 17.4365 19.8066C17.4365 24.191 17.4365 28.5448 17.4365 32.9292C17.6791 32.9598 17.8913 33.0518 18.1036 33.0518C22.9856 33.0518 27.8676 33.0518 32.7193 33.0825C33.5987 33.0825 33.5987 32.6226 33.5684 32.0094C33.5684 28.5448 33.5684 25.0495 33.5684 21.5849C33.538 20.941 33.538 20.3891 33.538 19.8066ZM39.9968 19.7759C38.8142 19.7759 37.8136 19.7759 36.7523 19.7759C36.7523 24.191 36.7523 28.5141 36.7523 32.9292C42.1194 32.9292 47.426 32.9292 52.7932 32.9292C52.7932 28.4834 52.7932 24.1297 52.7932 19.8066C51.6712 19.8066 50.6402 19.8066 49.5183 19.8066C49.5183 21.2476 49.5183 22.566 49.5183 23.915C49.488 25.3561 48.9725 25.908 47.517 25.9386C45.6976 25.9386 43.8782 25.9386 42.0588 25.9386C40.5123 25.9386 39.9665 25.3867 39.9665 23.7617C39.9968 22.474 39.9968 21.1863 39.9968 19.7759ZM43.1201 3.31131C42.0588 3.31131 40.9975 3.31131 39.8755 3.31131C39.8755 4.72169 39.9059 6.04008 39.8755 7.38914C39.8452 8.86083 39.2994 9.41272 37.8742 9.44338C36.0245 9.47404 34.1748 9.44338 32.3251 9.44338C30.8999 9.44338 30.3541 8.89149 30.3541 7.4198C30.3238 6.04008 30.3541 4.69103 30.3541 3.31131C29.1715 3.31131 28.1405 3.31131 27.0792 3.31131C27.0792 7.7264 27.0792 12.0802 27.0792 16.4339C32.4464 16.4339 37.7529 16.4339 43.1201 16.4339C43.1201 12.0495 43.1201 7.7264 43.1201 3.31131ZM46.4253 36.3018C46.4253 40.7476 46.4253 45.0707 46.4253 49.3938C51.8228 49.3938 57.1597 49.3938 62.5269 49.3938C62.5269 44.9787 62.5269 40.6862 62.5269 36.3018C61.4352 36.3018 60.4043 36.3018 59.252 36.3018C59.252 37.6815 59.252 39.0306 59.252 40.349C59.252 41.8513 58.7062 42.4339 57.2203 42.4645C55.4009 42.4952 53.5816 42.4952 51.7925 42.4645C50.2764 42.4339 49.7609 41.882 49.7305 40.3796C49.7305 39.0306 49.7305 37.6509 49.7305 36.3018C48.5176 36.3018 47.517 36.3018 46.4253 36.3018ZM43.1201 49.4244C43.1201 45.0093 43.1201 40.6862 43.1201 36.3325C42.0285 36.3325 40.9975 36.3325 39.8755 36.3325C39.8755 37.7735 39.9059 39.0919 39.8755 40.441C39.8452 41.882 39.2994 42.4645 37.8742 42.4645C36.1458 42.4952 34.3871 42.4645 32.6587 42.4645C30.8393 42.4645 30.3844 41.974 30.3541 40.165C30.3541 38.8773 30.3541 37.5895 30.3541 36.3018C29.1412 36.3018 28.1405 36.3018 27.0792 36.3018C27.0792 40.6862 27.0792 45.04 27.0792 49.4244C32.4464 49.4244 37.7529 49.4244 43.1201 49.4244ZM7.70279 49.4244C13.1306 49.4244 18.4068 49.4244 23.774 49.4244C23.774 45.04 23.774 40.6862 23.774 36.3018C22.6824 36.3018 21.6514 36.3018 20.4991 36.3018C20.4991 37.7428 20.4991 39.1226 20.4991 40.4716C20.4688 41.8513 19.9533 42.4339 18.5888 42.4645C16.7391 42.4952 14.8894 42.4952 13.0396 42.4645C11.5538 42.4339 11.008 41.882 11.008 40.349C11.008 39.0306 11.008 37.6815 11.008 36.3325C9.85573 36.3325 8.82474 36.3325 7.76344 36.3325C7.70279 40.7169 7.70279 45.04 7.70279 49.4244ZM35.2361 79.1343C35.2968 74.3206 31.5064 70.3654 26.8063 70.2734C21.9849 70.2121 17.9823 74.1366 17.9823 78.981C17.952 83.764 21.803 87.6885 26.5031 87.7498C31.3548 87.8111 35.1755 84.0093 35.2361 79.1343ZM81.3878 70.0588C76.6271 70.0588 72.7154 74.014 72.7457 78.8277C72.7761 83.6413 76.6271 87.5045 81.3271 87.5352C86.1182 87.5352 89.9692 83.7027 90.0299 78.8277C90.0602 74.014 86.1788 70.0588 81.3878 70.0588ZM33.629 3.24999C33.629 4.29244 33.629 5.21225 33.629 6.13206C34.6903 6.13206 35.6303 6.13206 36.631 6.13206C36.631 5.12027 36.631 4.20046 36.631 3.24999C35.6 3.24999 34.66 3.24999 33.629 3.24999ZM23.9256 19.7759C23.9256 20.7877 23.9256 21.7382 23.9256 22.6273C24.9869 22.6273 25.9876 22.6273 26.9579 22.6273C26.9579 21.6155 26.9579 20.7264 26.9579 19.7759C25.9269 19.7759 24.9566 19.7759 23.9256 19.7759ZM46.304 22.658C46.304 21.6155 46.304 20.7264 46.304 19.8066C45.2427 19.8066 44.2724 19.8066 43.2717 19.8066C43.2717 20.8184 43.2717 21.7075 43.2717 22.658C44.2724 22.658 45.2427 22.658 46.304 22.658ZM14.1616 39.1532C15.2532 39.1532 16.2539 39.1532 17.2242 39.1532C17.2242 38.1414 17.2242 37.2523 17.2242 36.3325C16.1629 36.3325 15.1926 36.3325 14.1616 36.3325C14.1616 37.3136 14.1616 38.1721 14.1616 39.1532ZM52.9448 39.1839C54.0061 39.1839 54.9764 39.1839 55.9771 39.1839C55.9771 38.1721 55.9771 37.2523 55.9771 36.3325C54.9158 36.3325 53.9151 36.3325 52.9448 36.3325C52.9448 37.3136 52.9448 38.2334 52.9448 39.1839ZM33.629 36.2712C33.629 37.2216 33.629 38.1721 33.629 39.1839C34.6297 39.1839 35.6 39.1839 36.631 39.1839C36.631 38.2028 36.631 37.2523 36.631 36.2712C35.6 36.2712 34.6903 36.2712 33.629 36.2712Z" fill="black"/>
<path d="M4.94339 59.1437C3.00272 58.5612 1.60786 57.4574 1.12269 55.4032C0.63752 53.3183 1.54721 51.1107 3.48789 50.1909C4.33693 49.7923 4.48855 49.2711 4.48855 48.4433C4.45822 44.1202 4.45822 39.7971 4.48855 35.474C4.48855 33.3584 4.8221 33.0212 6.94471 33.0212C9.27959 33.0212 11.6145 33.0212 14.0706 33.0212C14.101 32.5306 14.1313 32.132 14.1313 31.7028C14.1313 27.4103 14.1313 23.1179 14.1313 18.8561C14.1313 16.9552 14.5861 16.5259 16.4965 16.4952C18.9223 16.4952 21.3178 16.4952 23.8347 16.4952C23.8347 15.9434 23.8347 15.5448 23.8347 15.1462C23.8347 10.8231 23.8347 6.49999 23.8347 2.17688C23.8347 0.490565 24.3198 0 25.9876 0C32.0825 0 38.1775 0 44.2724 0C45.8795 0 46.3647 0.490565 46.3647 2.11556C46.3647 6.43867 46.3647 10.7618 46.3647 15.0849C46.3647 15.4835 46.3647 15.9127 46.3647 16.4952C48.0021 16.4952 49.5486 16.4952 51.0648 16.4952C52.0351 16.4952 53.0357 16.4952 54.0061 16.4952C55.5222 16.5259 56.0377 17.0471 56.0377 18.5801C56.0377 22.9339 56.0377 27.3183 56.0377 31.6721C56.0377 32.0707 56.0377 32.4999 56.0377 33.0212C58.0997 33.0212 60.01 33.0518 61.9204 32.9905C62.1327 32.9905 62.4662 32.5613 62.5269 32.2853C62.6178 31.7334 62.5572 31.1509 62.5875 30.5683C62.7694 27.3797 65.2559 24.8349 68.4095 24.8042C74.6561 24.7429 80.9026 24.7429 87.1492 24.8042C89.9086 24.8349 91.9705 26.6132 92.8499 29.5565C94.7603 35.9032 96.6403 42.2806 98.5203 48.6579C98.7023 49.3018 98.9752 49.639 99.6726 49.7923C104.13 50.8961 107.011 54.4527 107.102 59.1437C107.193 64.2947 107.162 69.4763 107.102 74.6272C107.071 78.3678 104.494 80.9126 100.764 80.9739C98.49 81.0045 96.2158 81.0045 93.9415 80.9739C93.2744 80.9739 92.9712 81.1272 92.7893 81.863C91.3034 87.2593 86.7247 90.7545 81.3271 90.7239C76.0206 90.6932 71.4722 87.1673 69.9863 81.8324C69.7741 81.0965 69.4405 80.9739 68.8037 80.9739C58.9184 80.9739 49.0634 80.9739 39.1781 80.9739C38.4807 80.9739 38.2381 81.1885 38.0562 81.8937C36.6916 87.3206 32.0825 90.9691 26.6547 90.9998C21.1662 91.0305 16.5571 87.4126 15.1623 81.9244C14.9803 81.1885 14.6468 80.9432 13.919 81.0046C13.0396 81.0659 12.1906 81.0352 11.3112 81.0046C7.49053 80.9126 4.94339 78.3064 4.91307 74.4432C4.88275 69.7829 4.91307 65.1225 4.91307 60.4315C4.94339 60.0022 4.94339 59.573 4.94339 59.1437ZM62.5269 59.2051C44.333 59.2051 26.2908 59.2051 8.18796 59.2051C8.18796 64.5706 8.15764 69.8442 8.21828 75.1178C8.2486 76.4975 9.40088 77.5706 10.8261 77.6932C11.8267 77.7852 12.8577 77.7239 13.8887 77.7546C14.6164 77.7852 14.8894 77.6012 15.0713 76.8041C16.0416 72.1437 18.801 68.955 23.2888 67.606C27.8373 66.2263 31.8703 67.422 35.2361 70.856C37.0858 72.7263 38.0258 75.0871 38.42 77.6932C46.486 77.6932 54.4913 77.6932 62.5572 77.6932C62.5269 71.4998 62.5269 65.3985 62.5269 59.2051ZM69.5618 77.6932C70.987 70.856 75.3535 66.8701 81.3575 66.8395C87.3918 66.8088 91.7583 70.764 93.2441 77.6319C93.3351 77.6626 93.4564 77.7546 93.5473 77.7546C95.7913 77.7546 98.0048 77.7852 100.249 77.7852C102.887 77.7852 103.948 76.7121 103.948 74.014C103.948 69.323 103.948 64.6013 103.948 59.9103C103.948 55.3419 101.401 52.7357 96.8222 52.7357C86.9066 52.7357 76.991 52.7357 67.0753 52.7357C66.6811 52.7357 66.2869 52.7357 65.8321 52.7357C65.8321 61.1673 65.8321 69.4149 65.8321 77.7239C67.0753 77.6932 68.2882 77.6932 69.5618 77.6932ZM78.8407 28.0235C78.8407 35.2287 78.8407 42.3112 78.8407 49.4244C84.3595 49.4244 89.8176 49.4244 95.2758 49.4244C95.3061 49.2711 95.3364 49.2098 95.3364 49.1485C93.4261 42.7405 91.546 36.3325 89.6357 29.9551C89.3021 28.8514 88.4834 28.0848 87.3008 28.0542C84.5111 27.9622 81.7214 28.0235 78.8407 28.0235ZM75.5355 49.4244C75.5355 42.2499 75.5355 35.1674 75.5355 27.9622C73.4432 27.9622 71.4115 27.9622 69.3799 27.9622C66.7418 27.9622 65.7714 28.974 65.7714 31.6414C65.7714 37.191 65.7714 42.7098 65.7714 48.2593C65.7714 48.6273 65.8018 48.9952 65.8321 49.4244C69.0766 49.4244 72.2606 49.4244 75.5355 49.4244ZM62.5269 52.7051C61.981 52.7051 61.5868 52.7051 61.1623 52.7051C43.0595 52.7051 24.9263 52.7051 6.82342 52.7051C6.48987 52.7051 6.15631 52.7051 5.79244 52.7357C4.8221 52.8277 4.18532 53.3796 4.18532 54.3301C4.18532 55.2805 4.8221 55.8324 5.79244 55.8938C6.06535 55.9244 6.30793 55.8938 6.58084 55.8938C24.805 55.8938 43.0291 55.8938 61.2836 55.8938C61.6778 55.8938 62.072 55.8631 62.5269 55.8324C62.5269 54.79 62.5269 53.8395 62.5269 52.7051ZM33.538 19.8066C32.3554 19.8066 31.3244 19.8066 30.2025 19.8066C30.2025 21.2476 30.2025 22.6273 30.2025 24.007C30.1722 25.3561 29.6264 25.9386 28.2618 25.9693C26.4424 25.9999 24.6231 25.9693 22.834 25.9693C21.1965 25.9693 20.7114 25.4481 20.7114 23.7617C20.7114 22.4433 20.7114 21.125 20.7114 19.8066C19.4985 19.8066 18.4978 19.8066 17.4365 19.8066C17.4365 24.191 17.4365 28.5448 17.4365 32.9292C17.6791 32.9598 17.8913 33.0518 18.1036 33.0518C22.9856 33.0518 27.8676 33.0518 32.7193 33.0825C33.5987 33.0825 33.5987 32.6226 33.5684 32.0094C33.5684 28.5448 33.5684 25.0495 33.5684 21.5849C33.538 20.941 33.538 20.3891 33.538 19.8066ZM39.9968 19.7759C38.8142 19.7759 37.8136 19.7759 36.7523 19.7759C36.7523 24.191 36.7523 28.5141 36.7523 32.9292C42.1194 32.9292 47.426 32.9292 52.7932 32.9292C52.7932 28.4834 52.7932 24.1297 52.7932 19.8066C51.6712 19.8066 50.6402 19.8066 49.5183 19.8066C49.5183 21.2476 49.5183 22.566 49.5183 23.915C49.488 25.3561 48.9725 25.908 47.517 25.9386C45.6976 25.9386 43.8782 25.9386 42.0588 25.9386C40.5123 25.9386 39.9665 25.3867 39.9665 23.7617C39.9968 22.474 39.9968 21.1863 39.9968 19.7759ZM43.1201 3.31131C42.0588 3.31131 40.9975 3.31131 39.8755 3.31131C39.8755 4.72169 39.9059 6.04008 39.8755 7.38914C39.8452 8.86083 39.2994 9.41272 37.8742 9.44338C36.0245 9.47404 34.1748 9.44338 32.3251 9.44338C30.8999 9.44338 30.3541 8.89149 30.3541 7.4198C30.3238 6.04008 30.3541 4.69103 30.3541 3.31131C29.1715 3.31131 28.1405 3.31131 27.0792 3.31131C27.0792 7.7264 27.0792 12.0802 27.0792 16.4339C32.4464 16.4339 37.7529 16.4339 43.1201 16.4339C43.1201 12.0495 43.1201 7.7264 43.1201 3.31131ZM46.4253 36.3018C46.4253 40.7476 46.4253 45.0707 46.4253 49.3938C51.8228 49.3938 57.1597 49.3938 62.5269 49.3938C62.5269 44.9787 62.5269 40.6862 62.5269 36.3018C61.4352 36.3018 60.4043 36.3018 59.252 36.3018C59.252 37.6815 59.252 39.0306 59.252 40.349C59.252 41.8513 58.7062 42.4339 57.2203 42.4645C55.4009 42.4952 53.5816 42.4952 51.7925 42.4645C50.2764 42.4339 49.7609 41.882 49.7305 40.3796C49.7305 39.0306 49.7305 37.6509 49.7305 36.3018C48.5176 36.3018 47.517 36.3018 46.4253 36.3018ZM43.1201 49.4244C43.1201 45.0093 43.1201 40.6862 43.1201 36.3325C42.0285 36.3325 40.9975 36.3325 39.8755 36.3325C39.8755 37.7735 39.9059 39.0919 39.8755 40.441C39.8452 41.882 39.2994 42.4645 37.8742 42.4645C36.1458 42.4952 34.3871 42.4645 32.6587 42.4645C30.8393 42.4645 30.3844 41.974 30.3541 40.165C30.3541 38.8773 30.3541 37.5895 30.3541 36.3018C29.1412 36.3018 28.1405 36.3018 27.0792 36.3018C27.0792 40.6862 27.0792 45.04 27.0792 49.4244C32.4464 49.4244 37.7529 49.4244 43.1201 49.4244ZM7.70279 49.4244C13.1306 49.4244 18.4068 49.4244 23.774 49.4244C23.774 45.04 23.774 40.6862 23.774 36.3018C22.6824 36.3018 21.6514 36.3018 20.4991 36.3018C20.4991 37.7428 20.4991 39.1226 20.4991 40.4716C20.4688 41.8513 19.9533 42.4339 18.5888 42.4645C16.7391 42.4952 14.8894 42.4952 13.0396 42.4645C11.5538 42.4339 11.008 41.882 11.008 40.349C11.008 39.0306 11.008 37.6815 11.008 36.3325C9.85573 36.3325 8.82474 36.3325 7.76344 36.3325C7.70279 40.7169 7.70279 45.04 7.70279 49.4244ZM35.2361 79.1343C35.2968 74.3206 31.5064 70.3654 26.8063 70.2734C21.9849 70.2121 17.9823 74.1366 17.9823 78.981C17.952 83.764 21.803 87.6885 26.5031 87.7498C31.3548 87.8111 35.1755 84.0093 35.2361 79.1343ZM81.3878 70.0588C76.6271 70.0588 72.7154 74.014 72.7457 78.8277C72.7761 83.6413 76.6271 87.5045 81.3271 87.5352C86.1182 87.5352 89.9692 83.7027 90.0299 78.8277C90.0602 74.014 86.1788 70.0588 81.3878 70.0588ZM33.629 3.24999C33.629 4.29244 33.629 5.21225 33.629 6.13206C34.6903 6.13206 35.6303 6.13206 36.631 6.13206C36.631 5.12027 36.631 4.20046 36.631 3.24999C35.6 3.24999 34.66 3.24999 33.629 3.24999ZM23.9256 19.7759C23.9256 20.7877 23.9256 21.7382 23.9256 22.6273C24.9869 22.6273 25.9876 22.6273 26.9579 22.6273C26.9579 21.6155 26.9579 20.7264 26.9579 19.7759C25.9269 19.7759 24.9566 19.7759 23.9256 19.7759ZM46.304 22.658C46.304 21.6155 46.304 20.7264 46.304 19.8066C45.2427 19.8066 44.2724 19.8066 43.2717 19.8066C43.2717 20.8184 43.2717 21.7075 43.2717 22.658C44.2724 22.658 45.2427 22.658 46.304 22.658ZM14.1616 39.1532C15.2532 39.1532 16.2539 39.1532 17.2242 39.1532C17.2242 38.1414 17.2242 37.2523 17.2242 36.3325C16.1629 36.3325 15.1926 36.3325 14.1616 36.3325C14.1616 37.3136 14.1616 38.1721 14.1616 39.1532ZM52.9448 39.1839C54.0061 39.1839 54.9764 39.1839 55.9771 39.1839C55.9771 38.1721 55.9771 37.2523 55.9771 36.3325C54.9158 36.3325 53.9151 36.3325 52.9448 36.3325C52.9448 37.3136 52.9448 38.2334 52.9448 39.1839ZM33.629 36.2712C33.629 37.2216 33.629 38.1721 33.629 39.1839C34.6297 39.1839 35.6 39.1839 36.631 39.1839C36.631 38.2028 36.631 37.2523 36.631 36.2712C35.6 36.2712 34.6903 36.2712 33.629 36.2712Z" fill="url(#paint0_linear_89_126)"/>
<path d="M74.9586 59.113C74.2005 59.113 73.4424 59.1437 72.6843 59.113C71.7443 59.0517 71.1985 58.4998 71.1682 57.58C71.1379 56.6602 71.6837 56.0163 72.5934 55.9857C74.1702 55.9244 75.7773 55.9244 77.3541 55.9857C78.2638 56.047 78.7793 56.6909 78.749 57.6107C78.7186 58.4998 78.2031 59.0211 77.3238 59.0824C76.5354 59.1437 75.747 59.113 74.9586 59.113Z" fill="black"/>
<path d="M74.9586 59.113C74.2005 59.113 73.4424 59.1437 72.6843 59.113C71.7443 59.0517 71.1985 58.4998 71.1682 57.58C71.1379 56.6602 71.6837 56.0163 72.5934 55.9857C74.1702 55.9244 75.7773 55.9244 77.3541 55.9857C78.2638 56.047 78.7793 56.6909 78.749 57.6107C78.7186 58.4998 78.2031 59.0211 77.3238 59.0824C76.5354 59.1437 75.747 59.113 74.9586 59.113Z" fill="url(#paint1_linear_89_126)"/>
<path d="M32.0523 78.9504C32.0826 82.047 29.7174 84.5305 26.6851 84.5305C23.6528 84.5612 21.1663 82.1084 21.1663 79.073C21.136 76.0683 23.6225 73.5235 26.6244 73.5235C29.5961 73.4928 32.0219 75.9456 32.0523 78.9504ZM28.8683 79.0423C28.8683 77.7546 27.8374 76.7121 26.5638 76.7428C25.3509 76.7735 24.3502 77.8466 24.3502 79.0423C24.3502 80.2994 25.4115 81.3419 26.6851 81.3419C27.9283 81.2805 28.8683 80.2994 28.8683 79.0423Z" fill="black"/>
<path d="M32.0523 78.9504C32.0826 82.047 29.7174 84.5305 26.6851 84.5305C23.6528 84.5612 21.1663 82.1084 21.1663 79.073C21.136 76.0683 23.6225 73.5235 26.6244 73.5235C29.5961 73.4928 32.0219 75.9456 32.0523 78.9504ZM28.8683 79.0423C28.8683 77.7546 27.8374 76.7121 26.5638 76.7428C25.3509 76.7735 24.3502 77.8466 24.3502 79.0423C24.3502 80.2994 25.4115 81.3419 26.6851 81.3419C27.9283 81.2805 28.8683 80.2994 28.8683 79.0423Z" fill="url(#paint2_linear_89_126)"/>
<path d="M81.4184 84.2852C78.3861 84.2852 75.9299 81.771 75.9602 78.7356C75.9906 75.7003 78.4164 73.2781 81.4184 73.2781C84.4507 73.2474 86.9069 75.7616 86.8765 78.8276C86.8159 81.863 84.3901 84.2852 81.4184 84.2852ZM83.6623 78.7356C83.632 77.5092 82.6313 76.4974 81.4184 76.4668C80.1448 76.4668 79.1138 77.5092 79.1442 78.797C79.1745 80.054 80.1448 81.0658 81.3881 81.0658C82.6313 81.0965 83.6623 80.0234 83.6623 78.7356Z" fill="black"/>
<path d="M81.4184 84.2852C78.3861 84.2852 75.9299 81.771 75.9602 78.7356C75.9906 75.7003 78.4164 73.2781 81.4184 73.2781C84.4507 73.2474 86.9069 75.7616 86.8765 78.8276C86.8159 81.863 84.3901 84.2852 81.4184 84.2852ZM83.6623 78.7356C83.632 77.5092 82.6313 76.4974 81.4184 76.4668C80.1448 76.4668 79.1138 77.5092 79.1442 78.797C79.1745 80.054 80.1448 81.0658 81.3881 81.0658C82.6313 81.0965 83.6623 80.0234 83.6623 78.7356Z" fill="url(#paint3_linear_89_126)"/>
<defs>
<linearGradient id="paint0_linear_89_126" x1="-18.6082" y1="-3.5168e-05" x2="90.9265" y2="3.11884" gradientUnits="userSpaceOnUse">
<stop stop-color="#37DADA"/>
<stop offset="1" stop-color="#254DB5"/>
</linearGradient>
<linearGradient id="paint1_linear_89_126" x1="69.7668" y1="55.9397" x2="77.5708" y2="56.3929" gradientUnits="userSpaceOnUse">
<stop stop-color="#37DADA"/>
<stop offset="1" stop-color="#254DB5"/>
</linearGradient>
<linearGradient id="paint2_linear_89_126" x1="19.1559" y1="73.5232" x2="30.3906" y2="73.7944" gradientUnits="userSpaceOnUse">
<stop stop-color="#37DADA"/>
<stop offset="1" stop-color="#254DB5"/>
</linearGradient>
<linearGradient id="paint3_linear_89_126" x1="73.9443" y1="73.2778" x2="85.2102" y2="73.5505" gradientUnits="userSpaceOnUse">
<stop stop-color="#37DADA"/>
<stop offset="1" stop-color="#254DB5"/>
</linearGradient>
</defs>
</svg>
