<svg width="82" height="91" viewBox="0 0 82 91" fill="none" xmlns="http://www.w3.org/2000/svg">
<path d="M0 31.5656C0 27.9555 0 22.0694 0 16.1572C0 13.7766 1.17465 12.5733 3.52395 12.5471C14.7745 12.4948 25.007 8.96317 34.5608 3.26025C35.9182 2.44928 37.3016 1.61216 38.6068 0.69655C39.9903 -0.245217 41.2954 -0.219057 42.6789 0.69655C46.7249 3.39105 50.9015 5.74547 55.339 7.68132C62.3869 10.7421 69.722 12.4425 77.3963 12.5471C80.2677 12.5994 81.3379 13.672 81.2857 16.5496C81.1552 26.7783 81.1291 37.0331 80.842 47.2617C80.7114 51.6828 80.1633 56.13 79.6934 60.5511C79.093 66.2017 76.3 70.8582 72.6716 75.0438C67.2682 81.2961 60.3509 85.2463 52.6504 87.8623C48.9698 89.118 45.1587 90.0074 41.3476 90.923C40.4601 91.1323 39.416 90.8707 38.4763 90.6614C31.0107 89.0657 23.8584 86.6589 17.3587 82.5518C12.6601 79.5957 8.74461 75.8286 5.61221 71.2244C3.21071 67.5882 1.90554 63.5857 1.35737 59.2692C0.261033 50.8195 0.23493 42.3174 0 31.5656ZM6.317 18.7994C6.2909 18.9564 6.2648 19.061 6.2648 19.1395C6.317 31.9841 6.13428 44.8288 7.43944 57.6473C7.8832 62.0684 9.37109 65.9924 12.138 69.4717C14.1741 72.0092 16.4712 74.2328 19.1337 76.1164C24.9548 80.2235 31.5067 82.5518 38.3719 84.1476C39.3377 84.383 40.4079 84.7231 41.3215 84.4876C44.9499 83.572 48.5783 82.6303 52.0761 81.3746C57.8972 79.2818 63.1439 76.1687 67.3988 71.5383C70.6617 67.9806 73.1937 64.0565 73.6636 59.0861C74.029 55.1621 74.525 51.2119 74.6294 47.2617C74.8904 38.1841 74.9426 29.0804 75.0731 20.0028C75.0731 19.6104 75.0731 19.218 75.0731 18.7732C74.7077 18.7209 74.3683 18.6686 74.0551 18.6424C68.3385 18.2762 62.8046 17.0467 57.4012 15.1631C51.8151 13.2011 46.5683 10.5589 41.5826 7.39356C40.9039 6.94884 40.434 6.975 39.7814 7.39356C38.398 8.30917 36.9623 9.14629 35.5005 9.9311C27.8522 14.1429 19.7863 17.1513 11.0939 18.25C9.4755 18.4855 7.8832 18.6424 6.317 18.7994Z" fill="black"/>
<path d="M0 31.5656C0 27.9555 0 22.0694 0 16.1572C0 13.7766 1.17465 12.5733 3.52395 12.5471C14.7745 12.4948 25.007 8.96317 34.5608 3.26025C35.9182 2.44928 37.3016 1.61216 38.6068 0.69655C39.9903 -0.245217 41.2954 -0.219057 42.6789 0.69655C46.7249 3.39105 50.9015 5.74547 55.339 7.68132C62.3869 10.7421 69.722 12.4425 77.3963 12.5471C80.2677 12.5994 81.3379 13.672 81.2857 16.5496C81.1552 26.7783 81.1291 37.0331 80.842 47.2617C80.7114 51.6828 80.1633 56.13 79.6934 60.5511C79.093 66.2017 76.3 70.8582 72.6716 75.0438C67.2682 81.2961 60.3509 85.2463 52.6504 87.8623C48.9698 89.118 45.1587 90.0074 41.3476 90.923C40.4601 91.1323 39.416 90.8707 38.4763 90.6614C31.0107 89.0657 23.8584 86.6589 17.3587 82.5518C12.6601 79.5957 8.74461 75.8286 5.61221 71.2244C3.21071 67.5882 1.90554 63.5857 1.35737 59.2692C0.261033 50.8195 0.23493 42.3174 0 31.5656ZM6.317 18.7994C6.2909 18.9564 6.2648 19.061 6.2648 19.1395C6.317 31.9841 6.13428 44.8288 7.43944 57.6473C7.8832 62.0684 9.37109 65.9924 12.138 69.4717C14.1741 72.0092 16.4712 74.2328 19.1337 76.1164C24.9548 80.2235 31.5067 82.5518 38.3719 84.1476C39.3377 84.383 40.4079 84.7231 41.3215 84.4876C44.9499 83.572 48.5783 82.6303 52.0761 81.3746C57.8972 79.2818 63.1439 76.1687 67.3988 71.5383C70.6617 67.9806 73.1937 64.0565 73.6636 59.0861C74.029 55.1621 74.525 51.2119 74.6294 47.2617C74.8904 38.1841 74.9426 29.0804 75.0731 20.0028C75.0731 19.6104 75.0731 19.218 75.0731 18.7732C74.7077 18.7209 74.3683 18.6686 74.0551 18.6424C68.3385 18.2762 62.8046 17.0467 57.4012 15.1631C51.8151 13.2011 46.5683 10.5589 41.5826 7.39356C40.9039 6.94884 40.434 6.975 39.7814 7.39356C38.398 8.30917 36.9623 9.14629 35.5005 9.9311C27.8522 14.1429 19.7863 17.1513 11.0939 18.25C9.4755 18.4855 7.8832 18.6424 6.317 18.7994Z" fill="url(#paint0_linear_89_138)"/>
<path d="M40.6691 65.9137C33.3862 65.9137 26.0773 65.9399 18.7945 65.9137C15.1139 65.9137 12.3209 62.9838 12.5558 59.3737C12.6341 58.3273 12.9734 57.2285 13.4955 56.3391C20.7261 43.8607 27.9567 31.4084 35.2657 18.9562C37.8238 14.5874 43.4621 14.5613 46.0463 18.93C53.3553 31.3823 60.6381 43.8868 67.8687 56.3914C70.479 60.9171 67.4772 65.9399 62.2826 65.9399C55.0781 65.9399 47.8736 65.9137 40.6691 65.9137ZM40.5646 21.9384C33.2818 34.5215 26.0773 47.0261 18.7945 59.583C33.4123 59.583 47.8475 59.583 62.4653 59.583C55.1303 46.9999 47.8736 34.5215 40.5646 21.9384Z" fill="black"/>
<path d="M40.6691 65.9137C33.3862 65.9137 26.0773 65.9399 18.7945 65.9137C15.1139 65.9137 12.3209 62.9838 12.5558 59.3737C12.6341 58.3273 12.9734 57.2285 13.4955 56.3391C20.7261 43.8607 27.9567 31.4084 35.2657 18.9562C37.8238 14.5874 43.4621 14.5613 46.0463 18.93C53.3553 31.3823 60.6381 43.8868 67.8687 56.3914C70.479 60.9171 67.4772 65.9399 62.2826 65.9399C55.0781 65.9399 47.8736 65.9137 40.6691 65.9137ZM40.5646 21.9384C33.2818 34.5215 26.0773 47.0261 18.7945 59.583C33.4123 59.583 47.8475 59.583 62.4653 59.583C55.1303 46.9999 47.8736 34.5215 40.5646 21.9384Z" fill="url(#paint1_linear_89_138)"/>
<path d="M43.7749 39.2304C43.7749 40.7738 43.801 42.2911 43.7749 43.8346C43.7488 45.6658 42.4175 47.0523 40.6686 47.0784C38.9197 47.0784 37.5362 45.7181 37.5362 43.8869C37.5101 40.7738 37.5101 37.6869 37.5362 34.5739C37.5623 32.7427 38.9458 31.3823 40.6686 31.3823C42.3653 31.4085 43.7227 32.7427 43.7488 34.5215C43.801 36.0912 43.7749 37.6608 43.7749 39.2304Z" fill="black"/>
<path d="M43.7749 39.2304C43.7749 40.7738 43.801 42.2911 43.7749 43.8346C43.7488 45.6658 42.4175 47.0523 40.6686 47.0784C38.9197 47.0784 37.5362 45.7181 37.5362 43.8869C37.5101 40.7738 37.5101 37.6869 37.5362 34.5739C37.5623 32.7427 38.9458 31.3823 40.6686 31.3823C42.3653 31.4085 43.7227 32.7427 43.7488 34.5215C43.801 36.0912 43.7749 37.6608 43.7749 39.2304Z" fill="url(#paint2_linear_89_138)"/>
<path d="M40.6686 50.2178C42.3653 50.2178 43.7749 51.6566 43.7749 53.357C43.7749 55.0574 42.3653 56.4701 40.6686 56.4962C38.9458 56.4962 37.484 55.0574 37.5101 53.3047C37.5623 51.6043 38.9719 50.2178 40.6686 50.2178Z" fill="black"/>
<path d="M40.6686 50.2178C42.3653 50.2178 43.7749 51.6566 43.7749 53.357C43.7749 55.0574 42.3653 56.4701 40.6686 56.4962C38.9458 56.4962 37.484 55.0574 37.5101 53.3047C37.5623 51.6043 38.9719 50.2178 40.6686 50.2178Z" fill="url(#paint3_linear_89_138)"/>
<defs>
<linearGradient id="paint0_linear_89_138" x1="-15.009" y1="-3.5168e-05" x2="68.8867" y2="1.82903" gradientUnits="userSpaceOnUse">
<stop stop-color="#37DADA"/>
<stop offset="1" stop-color="#254DB5"/>
</linearGradient>
<linearGradient id="paint1_linear_89_138" x1="2.14938" y1="15.6665" x2="60.2253" y2="17.2534" gradientUnits="userSpaceOnUse">
<stop stop-color="#37DADA"/>
<stop offset="1" stop-color="#254DB5"/>
</linearGradient>
<linearGradient id="paint2_linear_89_138" x1="36.3589" y1="31.3823" x2="42.8324" y2="31.4454" gradientUnits="userSpaceOnUse">
<stop stop-color="#37DADA"/>
<stop offset="1" stop-color="#254DB5"/>
</linearGradient>
<linearGradient id="paint3_linear_89_138" x1="36.353" y1="50.2178" x2="42.8184" y2="50.3752" gradientUnits="userSpaceOnUse">
<stop stop-color="#37DADA"/>
<stop offset="1" stop-color="#254DB5"/>
</linearGradient>
</defs>
</svg>
