<svg width="84" height="91" viewBox="0 0 84 91" fill="none" xmlns="http://www.w3.org/2000/svg">
<path d="M40.2957 91C39.6206 90.8578 38.981 90.7512 38.3058 90.5379C33.0112 89.0449 29.5999 85.6324 28.0719 80.3359C27.8942 79.7316 27.681 79.625 27.1125 79.625C21.6402 79.625 16.1679 79.6605 10.6956 79.625C7.07107 79.625 4.29938 77.1012 3.97957 73.5109C3.76637 71.307 4.58366 69.423 6.25378 67.9656C8.84779 65.7262 10.9443 63.1312 12.5078 60.0742C14.4267 56.3063 15.3151 52.325 15.3151 48.0949C15.3151 44.0426 15.1374 39.9547 15.4572 35.9379C16.2034 26.3758 21.0006 19.2664 29.3156 14.5387C32.3005 12.868 35.5341 11.9438 39.0165 11.5172C39.0165 11.1617 39.0165 10.8062 39.0165 10.4508C39.0165 8.14023 39.0876 5.82969 38.981 3.51914C38.9099 1.77734 39.5495 0.604297 41.1841 0C41.6461 0 42.1435 0 42.6055 0C44.2401 0.746484 44.7731 2.06172 44.702 3.80352C44.6309 6.32734 44.6665 8.88672 44.6665 11.4105C46.23 11.766 47.7224 12.0148 49.2149 12.4414C59.662 15.4629 67.3019 24.5984 68.1903 35.4047C68.5456 39.6348 68.3679 43.9359 68.3679 48.2016C68.4035 54.3512 70.2513 59.8609 74.16 64.5887C75.2261 65.8684 76.5053 67.0059 77.7135 68.2145C79.7389 70.2406 80.3786 73.191 79.1704 75.7148C77.9622 78.2387 75.9012 79.5895 73.094 79.5895C67.6928 79.625 62.256 79.5895 56.8548 79.5895C56.535 79.5895 56.2152 79.5895 55.8243 79.5895C55.7177 79.9449 55.6466 80.2293 55.5755 80.5492C53.7633 86.2367 49.9256 89.6848 44.0269 90.7867C43.8492 90.8223 43.7071 90.8934 43.5294 90.9645C42.4278 91 41.3618 91 40.2957 91ZM41.7527 73.9375C52.0221 73.9375 62.2915 73.9375 72.561 73.9375C73.1651 73.9375 73.8402 73.9375 73.9113 73.2621C73.9468 72.8355 73.627 72.2668 73.3072 71.9469C66.1648 65.4773 62.6469 57.4082 62.6469 47.8105C62.6469 44.5758 62.6824 41.341 62.6114 38.1418C62.5758 36.6488 62.4692 35.1203 62.1494 33.6629C59.6975 22.3945 49.1794 15.4273 37.8439 17.4535C28.8892 19.0531 21.6046 27.0512 21.0716 36.1512C20.8229 40.1324 20.9295 44.1492 20.9295 48.1305C20.9295 55.0977 18.9751 61.4605 14.782 67.0059C13.3962 68.8543 11.655 70.3828 10.127 72.1246C9.84275 72.4445 9.59401 73.0133 9.70061 73.2977C9.80722 73.6176 10.4113 73.7598 10.8022 73.9375C10.9799 74.0086 11.2286 73.9375 11.4063 73.9375C21.5691 73.9375 31.6609 73.9375 41.7527 73.9375ZM33.9351 79.6605C34.5747 82.8598 38.5546 85.4902 42.3567 85.277C45.7325 85.0992 49.4636 82.2555 49.7124 79.6605C44.4533 79.6605 39.1942 79.6605 33.9351 79.6605Z" fill="black"/>
<path d="M40.2957 91C39.6206 90.8578 38.981 90.7512 38.3058 90.5379C33.0112 89.0449 29.5999 85.6324 28.0719 80.3359C27.8942 79.7316 27.681 79.625 27.1125 79.625C21.6402 79.625 16.1679 79.6605 10.6956 79.625C7.07107 79.625 4.29938 77.1012 3.97957 73.5109C3.76637 71.307 4.58366 69.423 6.25378 67.9656C8.84779 65.7262 10.9443 63.1312 12.5078 60.0742C14.4267 56.3063 15.3151 52.325 15.3151 48.0949C15.3151 44.0426 15.1374 39.9547 15.4572 35.9379C16.2034 26.3758 21.0006 19.2664 29.3156 14.5387C32.3005 12.868 35.5341 11.9438 39.0165 11.5172C39.0165 11.1617 39.0165 10.8062 39.0165 10.4508C39.0165 8.14023 39.0876 5.82969 38.981 3.51914C38.9099 1.77734 39.5495 0.604297 41.1841 0C41.6461 0 42.1435 0 42.6055 0C44.2401 0.746484 44.7731 2.06172 44.702 3.80352C44.6309 6.32734 44.6665 8.88672 44.6665 11.4105C46.23 11.766 47.7224 12.0148 49.2149 12.4414C59.662 15.4629 67.3019 24.5984 68.1903 35.4047C68.5456 39.6348 68.3679 43.9359 68.3679 48.2016C68.4035 54.3512 70.2513 59.8609 74.16 64.5887C75.2261 65.8684 76.5053 67.0059 77.7135 68.2145C79.7389 70.2406 80.3786 73.191 79.1704 75.7148C77.9622 78.2387 75.9012 79.5895 73.094 79.5895C67.6928 79.625 62.256 79.5895 56.8548 79.5895C56.535 79.5895 56.2152 79.5895 55.8243 79.5895C55.7177 79.9449 55.6466 80.2293 55.5755 80.5492C53.7633 86.2367 49.9256 89.6848 44.0269 90.7867C43.8492 90.8223 43.7071 90.8934 43.5294 90.9645C42.4278 91 41.3618 91 40.2957 91ZM41.7527 73.9375C52.0221 73.9375 62.2915 73.9375 72.561 73.9375C73.1651 73.9375 73.8402 73.9375 73.9113 73.2621C73.9468 72.8355 73.627 72.2668 73.3072 71.9469C66.1648 65.4773 62.6469 57.4082 62.6469 47.8105C62.6469 44.5758 62.6824 41.341 62.6114 38.1418C62.5758 36.6488 62.4692 35.1203 62.1494 33.6629C59.6975 22.3945 49.1794 15.4273 37.8439 17.4535C28.8892 19.0531 21.6046 27.0512 21.0716 36.1512C20.8229 40.1324 20.9295 44.1492 20.9295 48.1305C20.9295 55.0977 18.9751 61.4605 14.782 67.0059C13.3962 68.8543 11.655 70.3828 10.127 72.1246C9.84275 72.4445 9.59401 73.0133 9.70061 73.2977C9.80722 73.6176 10.4113 73.7598 10.8022 73.9375C10.9799 74.0086 11.2286 73.9375 11.4063 73.9375C21.5691 73.9375 31.6609 73.9375 41.7527 73.9375ZM33.9351 79.6605C34.5747 82.8598 38.5546 85.4902 42.3567 85.277C45.7325 85.0992 49.4636 82.2555 49.7124 79.6605C44.4533 79.6605 39.1942 79.6605 33.9351 79.6605Z" fill="url(#paint0_linear_89_121)"/>
<path d="M83.5063 36.3288C83.5063 36.8976 83.5419 37.4663 83.5063 38.0351C83.4353 39.4925 82.3337 40.63 80.9479 40.7366C79.4554 40.8433 78.1406 39.919 77.9274 38.4616C77.7142 36.9686 77.7853 35.4401 77.6076 33.9472C76.7193 24.8827 73.1658 17.0269 67.0539 10.3085C66.7696 9.98857 66.4498 9.66865 66.13 9.34873C64.8152 7.92685 64.7442 6.18505 65.9523 5.01201C67.1605 3.87451 68.8662 4.0167 70.2165 5.36748C72.7749 7.9624 74.9781 10.8061 76.8614 13.8987C81.0189 20.7948 83.2221 28.2952 83.5063 36.3288Z" fill="black"/>
<path d="M83.5063 36.3288C83.5063 36.8976 83.5419 37.4663 83.5063 38.0351C83.4353 39.4925 82.3337 40.63 80.9479 40.7366C79.4554 40.8433 78.1406 39.919 77.9274 38.4616C77.7142 36.9686 77.7853 35.4401 77.6076 33.9472C76.7193 24.8827 73.1658 17.0269 67.0539 10.3085C66.7696 9.98857 66.4498 9.66865 66.13 9.34873C64.8152 7.92685 64.7442 6.18505 65.9523 5.01201C67.1605 3.87451 68.8662 4.0167 70.2165 5.36748C72.7749 7.9624 74.9781 10.8061 76.8614 13.8987C81.0189 20.7948 83.2221 28.2952 83.5063 36.3288Z" fill="url(#paint1_linear_89_121)"/>
<path d="M0 36.6136C0.63962 24.4921 5.01035 14.0413 13.4675 5.33234C14.7823 3.98156 16.5235 3.87492 17.6961 5.01242C18.9043 6.18547 18.8688 7.89172 17.554 9.27805C12.3304 14.6101 8.777 20.9019 7.00028 28.1534C6.21852 31.3171 5.86318 34.5519 5.82764 37.8222C5.82764 39.2085 4.90375 40.346 3.69558 40.6304C2.45187 40.9148 1.0305 40.3816 0.533016 39.2085C0.177672 38.462 0.177672 37.5023 0 36.6136Z" fill="black"/>
<path d="M0 36.6136C0.63962 24.4921 5.01035 14.0413 13.4675 5.33234C14.7823 3.98156 16.5235 3.87492 17.6961 5.01242C18.9043 6.18547 18.8688 7.89172 17.554 9.27805C12.3304 14.6101 8.777 20.9019 7.00028 28.1534C6.21852 31.3171 5.86318 34.5519 5.82764 37.8222C5.82764 39.2085 4.90375 40.346 3.69558 40.6304C2.45187 40.9148 1.0305 40.3816 0.533016 39.2085C0.177672 38.462 0.177672 37.5023 0 36.6136Z" fill="url(#paint2_linear_89_121)"/>
<defs>
<linearGradient id="paint0_linear_89_121" x1="-10.0557" y1="-3.5168e-05" x2="68.2161" y2="1.59193" gradientUnits="userSpaceOnUse">
<stop stop-color="#37DADA"/>
<stop offset="1" stop-color="#254DB5"/>
</linearGradient>
<linearGradient id="paint1_linear_89_121" x1="61.69" y1="4.2473" x2="80.7168" y2="4.48179" gradientUnits="userSpaceOnUse">
<stop stop-color="#37DADA"/>
<stop offset="1" stop-color="#254DB5"/>
</linearGradient>
<linearGradient id="paint2_linear_89_121" x1="-3.42921" y1="4.23241" x2="15.7452" y2="4.47071" gradientUnits="userSpaceOnUse">
<stop stop-color="#37DADA"/>
<stop offset="1" stop-color="#254DB5"/>
</linearGradient>
</defs>
</svg>
