<?xml version="1.0" standalone="no"?>
<!DOCTYPE svg PUBLIC "-//W3C//DTD SVG 20010904//EN"
 "http://www.w3.org/TR/2001/REC-SVG-20010904/DTD/svg10.dtd">
<svg version="1.0" xmlns="http://www.w3.org/2000/svg"
 width="1600.000000pt" height="1600.000000pt" viewBox="0 0 1600.000000 1600.000000"
 preserveAspectRatio="xMidYMid meet">
<metadata>
Created by potrace 1.14, written by Peter Selinger 2001-2017
</metadata>
<g transform="translate(0.000000,1600.000000) scale(0.100000,-0.100000)"
fill="#000000" stroke="none">
<path d="M10818 12836 c-1 -2 -47 -7 -100 -10 -53 -4 -107 -9 -120 -12 -13 -2
-52 -6 -88 -9 -36 -2 -67 -5 -70 -6 -3 -1 -9 -3 -15 -4 -5 -2 -13 -4 -17 -5
-5 -1 -21 -4 -38 -5 -16 -1 -31 -4 -32 -5 -2 -1 -12 -4 -23 -5 -23 -3 -78 -13
-115 -20 -14 -3 -36 -7 -50 -10 -21 -4 -50 -10 -92 -21 -5 -1 -9 -2 -10 -3 -2
-2 -14 -4 -28 -6 -14 -2 -54 -11 -90 -20 -36 -9 -72 -18 -80 -20 -8 -2 -43
-12 -77 -23 -35 -11 -63 -18 -63 -15 0 3 -7 0 -15 -7 -8 -7 -15 -10 -15 -7 0
3 -16 -1 -35 -9 -19 -8 -38 -15 -42 -15 -5 -1 -18 -5 -31 -10 -12 -5 -26 -8
-30 -7 -4 1 -20 -4 -37 -11 -16 -7 -38 -14 -47 -16 -19 -4 -312 -96 -403 -127
-33 -11 -67 -21 -75 -23 -8 -2 -26 -8 -40 -13 -14 -5 -29 -10 -35 -11 -12 -2
-225 -67 -280 -86 -33 -11 -137 -43 -167 -51 -5 -1 -9 -2 -10 -4 -2 -1 -12 -4
-23 -6 -33 -8 -50 -12 -52 -14 -2 -2 -7 -4 -13 -5 -5 -1 -11 -3 -12 -5 -2 -1
-10 -3 -18 -5 -8 -1 -71 -20 -140 -40 -69 -21 -132 -39 -140 -40 -8 -1 -22 -5
-30 -8 -27 -12 -225 -70 -237 -70 -7 0 -13 -3 -13 -7 0 -4 -6 -7 -12 -7 -7 0
-74 -19 -148 -43 -74 -24 -139 -44 -145 -45 -5 -1 -23 -6 -38 -13 -16 -7 -31
-12 -35 -12 -4 0 -88 -26 -187 -59 -184 -60 -356 -115 -365 -117 -3 0 -12 -3
-20 -7 -22 -8 -123 -41 -135 -43 -5 -1 -47 -14 -93 -29 -46 -15 -89 -28 -95
-29 -7 -2 -19 -6 -27 -9 -8 -3 -36 -13 -62 -22 -50 -18 -62 -40 -44 -82 10
-26 33 -30 261 -48 46 -4 128 -11 230 -21 22 -2 74 -6 115 -9 41 -3 86 -7 100
-9 14 -2 59 -7 100 -10 132 -11 204 -18 240 -21 59 -7 183 -17 217 -19 18 -1
35 -5 39 -9 4 -4 15 -7 24 -7 47 0 72 -89 37 -128 -15 -16 -88 -46 -139 -56
-7 -2 -20 -6 -28 -9 -8 -3 -55 -18 -105 -32 -49 -15 -123 -38 -163 -51 -40
-14 -78 -22 -83 -19 -5 4 -9 2 -9 -3 0 -8 -27 -17 -65 -22 -2 -1 -20 -7 -40
-16 -19 -8 -35 -11 -35 -8 0 4 -7 1 -15 -6 -8 -7 -15 -9 -15 -5 0 4 -7 2 -15
-5 -8 -6 -19 -9 -25 -5 -5 3 -10 2 -10 -3 0 -5 -6 -9 -12 -9 -7 0 -101 -28
-208 -61 -107 -33 -215 -66 -240 -73 -55 -15 -52 -14 -70 -22 -12 -5 -218 -68
-265 -81 -50 -14 -138 -41 -175 -53 -45 -15 -62 -19 -110 -29 -13 -3 -27 -8
-30 -12 -3 -4 -10 -8 -16 -9 -45 -8 -67 -14 -124 -32 -127 -41 -155 -49 -185
-57 -40 -10 -44 -11 -50 -14 -3 -1 -8 -3 -12 -4 -5 -1 -24 -7 -43 -14 -19 -6
-46 -14 -60 -16 -14 -3 -26 -5 -27 -7 -2 -1 -7 -3 -13 -4 -5 -1 -12 -4 -15 -5
-3 -1 -9 -4 -15 -5 -5 -1 -11 -3 -12 -5 -2 -1 -10 -3 -18 -5 -8 -1 -125 -35
-260 -74 -135 -40 -254 -74 -265 -77 -24 -6 -29 -7 -85 -23 -25 -7 -45 -12
-45 -11 0 1 -13 -4 -30 -10 -16 -7 -37 -13 -46 -15 -9 -2 -84 -22 -165 -45
-82 -23 -157 -43 -167 -45 -9 -2 -21 -6 -25 -9 -5 -3 -19 -7 -33 -10 -81 -18
-195 -51 -197 -58 -2 -4 -7 -6 -10 -4 -6 3 -129 -27 -242 -59 -8 -3 -35 -9
-60 -15 -25 -6 -52 -13 -60 -17 -8 -3 -24 -8 -35 -10 -11 -2 -58 -14 -105 -28
-47 -13 -96 -26 -110 -29 -14 -3 -68 -17 -120 -31 -109 -29 -139 -37 -160 -39
-9 -1 -20 -4 -25 -8 -9 -5 -58 -20 -80 -24 -5 -1 -13 -3 -17 -4 -5 -1 -11 -3
-15 -5 -11 -2 -87 -19 -93 -20 -3 0 -11 -4 -18 -9 -7 -4 -16 -5 -19 -2 -4 3
-15 -2 -26 -11 -10 -10 -22 -17 -26 -16 -11 2 -60 -31 -55 -38 2 -4 0 -10 -6
-14 -16 -10 -12 -45 9 -71 11 -14 21 -24 23 -24 2 1 17 -4 33 -10 17 -7 66
-14 110 -15 44 -2 80 -4 80 -5 0 -1 145 -5 575 -15 113 -2 205 -5 205 -5 0 -1
266 -4 590 -7 623 -6 621 -5 666 -52 29 -30 49 -124 29 -136 -5 -3 -10 -14
-10 -23 0 -22 -56 -59 -100 -66 -48 -8 -68 -12 -195 -36 -27 -5 -63 -12 -80
-15 -32 -6 -50 -10 -130 -25 -27 -5 -65 -12 -82 -15 -77 -12 -99 -16 -113 -20
-8 -2 -31 -7 -50 -10 -19 -3 -57 -10 -85 -15 -27 -5 -66 -12 -85 -15 -19 -3
-44 -9 -55 -12 -11 -4 -29 -7 -40 -8 -18 -1 -70 -10 -130 -21 -11 -2 -31 -6
-45 -9 -14 -3 -36 -7 -50 -10 -14 -3 -47 -8 -75 -11 -27 -4 -54 -9 -58 -11 -5
-3 -23 -7 -40 -9 -28 -4 -92 -15 -107 -19 -3 0 -27 -4 -53 -9 -27 -4 -59 -10
-70 -12 -27 -6 -51 -10 -102 -18 -47 -7 -80 -14 -80 -16 0 -1 -16 -3 -35 -5
-30 -4 -63 -10 -117 -21 -6 -1 -29 -5 -50 -8 -21 -3 -49 -8 -63 -11 -13 -2
-42 -7 -65 -10 -22 -3 -47 -8 -55 -10 -8 -2 -28 -6 -45 -9 -32 -5 -117 -19
-125 -21 -3 -1 -30 -5 -60 -10 -30 -5 -57 -9 -60 -10 -51 -12 -71 -16 -105
-20 -51 -7 -84 -13 -115 -20 -26 -5 -85 -15 -130 -20 -14 -1 -36 -5 -50 -8
-24 -6 -87 -17 -120 -21 -9 -1 -20 -5 -25 -8 -6 -3 -19 -4 -29 -2 -11 1 -24 0
-30 -3 -6 -4 -24 -8 -41 -10 -29 -3 -53 -7 -105 -17 -14 -2 -56 -9 -95 -15
-38 -6 -81 -13 -95 -15 -14 -3 -95 -17 -180 -31 -203 -33 -205 -33 -205 -35 0
-2 -77 -11 -112 -13 -18 -1 -33 -4 -33 -7 0 -3 -10 -6 -22 -7 -13 -1 -45 -4
-73 -8 -27 -4 -56 -7 -62 -8 -7 0 -13 -3 -13 -6 0 -3 -15 -7 -32 -7 -30 -2
-72 -7 -138 -19 -29 -5 -72 -12 -133 -20 -23 -3 -49 -8 -57 -10 -8 -2 -35 -6
-60 -9 -25 -3 -54 -8 -65 -10 -23 -4 -105 -16 -150 -22 -16 -2 -43 -6 -60 -9
-16 -3 -40 -7 -52 -8 -104 -15 -138 -174 -50 -232 31 -20 156 -32 414 -38 35
-1 63 -4 63 -7 0 -3 37 -5 83 -6 45 0 141 -4 212 -8 160 -9 223 -12 630 -31
138 -6 299 -14 430 -21 61 -3 148 -7 195 -9 47 -2 141 -7 210 -10 69 -4 157
-8 196 -9 39 -2 76 -6 82 -10 7 -4 12 -2 12 4 0 6 5 8 10 5 10 -6 95 -12 286
-19 45 -2 87 -7 94 -11 9 -5 11 -4 6 3 -5 9 0 10 16 4 13 -4 56 -8 95 -7 40 0
73 -4 73 -9 0 -5 6 -3 13 3 8 6 16 8 19 5 3 -3 46 -7 94 -9 49 -3 143 -7 209
-10 66 -3 154 -8 195 -10 41 -2 134 -7 205 -9 72 -3 162 -8 200 -10 39 -3 140
-8 225 -11 383 -15 535 -25 673 -46 40 -6 86 -13 102 -15 17 -1 49 -10 73 -18
23 -8 42 -12 42 -9 0 4 5 2 12 -5 7 -7 18 -12 26 -12 7 0 41 -13 75 -30 146
-71 209 -192 170 -325 -28 -94 -102 -164 -243 -231 -59 -28 -202 -71 -240 -73
-8 0 -28 -3 -45 -5 -43 -8 -165 -20 -197 -20 -16 0 -28 -3 -28 -6 0 -3 -12 -6
-27 -6 -35 -1 -150 -13 -183 -19 -14 -3 -50 -7 -80 -10 -30 -3 -66 -7 -80 -10
-14 -2 -47 -6 -75 -10 -27 -3 -63 -8 -80 -10 -77 -11 -195 -26 -240 -30 -75
-8 -106 -12 -150 -18 -22 -3 -63 -9 -90 -12 -28 -3 -62 -8 -75 -9 -115 -15
-169 -21 -265 -31 -22 -2 -58 -7 -80 -10 -22 -3 -58 -8 -80 -10 -252 -23 -302
-31 -326 -54 -24 -22 -41 -69 -28 -76 5 -4 7 -11 4 -16 -9 -13 41 -59 65 -59
11 0 20 -3 20 -7 0 -5 12 -8 28 -9 29 0 112 -11 152 -19 14 -3 45 -7 70 -10
25 -3 56 -7 70 -10 14 -3 41 -7 60 -9 19 -2 51 -7 70 -10 63 -10 162 -24 220
-31 19 -3 51 -7 70 -9 19 -3 50 -6 68 -7 17 -2 32 -6 32 -9 0 -3 12 -5 26 -5
15 1 49 -2 78 -7 28 -5 69 -11 91 -14 57 -6 99 -12 105 -14 3 -2 8 -2 11 -2 4
1 33 -3 65 -8 33 -5 82 -11 109 -15 28 -3 82 -10 120 -16 39 -5 85 -12 104
-14 60 -8 115 -15 151 -20 42 -7 101 -15 155 -21 22 -3 51 -7 65 -9 14 -2 48
-6 75 -10 28 -3 61 -8 75 -11 14 -3 48 -7 75 -9 28 -2 62 -8 75 -13 14 -5 31
-7 38 -5 7 3 20 2 30 -2 16 -7 49 -13 82 -16 8 0 22 -3 30 -6 8 -3 24 -7 35
-9 11 -1 34 -5 50 -9 17 -3 44 -9 60 -12 39 -7 47 -9 65 -16 8 -3 44 -13 80
-22 250 -65 444 -161 552 -270 29 -30 84 -125 72 -125 -4 0 -2 -6 3 -12 10
-14 10 -55 0 -128 -10 -70 -14 -83 -36 -131 -20 -42 -101 -139 -101 -122 0 4
-6 1 -13 -7 -7 -8 -25 -22 -42 -30 -16 -8 -32 -18 -35 -21 -10 -12 -181 -66
-240 -75 -14 -2 -34 -6 -45 -9 -11 -2 -45 -7 -75 -10 -30 -3 -66 -8 -80 -10
-14 -2 -49 -7 -79 -10 -30 -4 -63 -9 -75 -11 -12 -2 -48 -7 -81 -10 -33 -3
-70 -7 -83 -9 -13 -2 -65 -7 -115 -10 -51 -3 -119 -8 -152 -11 -437 -31 -1704
-21 -2577 22 -64 3 -168 7 -230 9 -62 3 -125 6 -141 8 -15 3 -30 1 -32 -3 -2
-4 -15 -5 -28 -3 -18 4 -31 -4 -50 -27 -15 -17 -27 -37 -28 -43 0 -7 -2 -21
-4 -31 -5 -28 22 -75 49 -86 12 -4 40 -11 62 -14 21 -4 75 -13 119 -22 44 -8
94 -17 110 -19 17 -3 40 -7 52 -10 51 -11 60 -13 108 -20 65 -9 85 -13 115
-19 14 -3 39 -8 55 -11 52 -9 79 -14 105 -20 14 -3 39 -7 55 -9 17 -3 42 -7
55 -10 36 -8 112 -22 165 -30 11 -2 34 -6 50 -10 34 -7 55 -11 137 -26 32 -6
70 -13 85 -16 39 -8 74 -14 103 -19 14 -2 32 -6 40 -8 8 -2 38 -8 65 -12 57
-10 64 -12 68 -15 1 -1 11 -3 22 -5 41 -8 110 -19 120 -20 6 -1 24 -5 40 -8
17 -4 44 -10 60 -13 17 -3 46 -9 65 -14 19 -5 51 -11 70 -14 19 -3 53 -10 75
-15 22 -6 41 -8 44 -6 2 3 9 1 15 -4 10 -8 52 -17 116 -25 14 -2 32 -6 40 -9
8 -3 31 -8 50 -11 19 -3 46 -8 60 -12 14 -3 61 -13 105 -22 44 -8 82 -19 83
-24 2 -4 7 -6 10 -4 4 2 50 -5 102 -16 52 -11 100 -21 105 -22 50 -10 213 -49
225 -54 8 -3 23 -4 32 -3 10 1 18 -1 18 -6 0 -4 10 -9 23 -9 35 -3 90 -15 108
-25 9 -4 18 -6 21 -4 2 3 20 0 39 -6 19 -5 43 -12 54 -14 11 -3 112 -28 225
-56 219 -54 215 -53 275 -69 42 -11 82 -20 102 -24 7 -1 16 -5 19 -9 4 -4 16
-7 27 -7 12 0 34 -5 51 -10 25 -9 357 -100 416 -115 8 -2 30 -8 48 -14 17 -5
32 -7 32 -3 0 3 5 1 12 -6 7 -7 22 -12 35 -12 13 0 23 -5 23 -11 0 -5 4 -8 9
-4 5 3 29 -1 53 -9 54 -17 189 -57 288 -86 41 -12 98 -29 125 -38 28 -9 52
-17 55 -17 34 -9 67 -19 75 -24 6 -3 16 -6 23 -7 31 -5 500 -159 742 -244 80
-28 150 -53 155 -54 6 -2 17 -5 25 -8 8 -3 38 -13 65 -23 28 -9 57 -19 65 -22
8 -4 17 -7 20 -8 3 -1 12 -5 20 -8 63 -27 180 -64 184 -59 3 3 6 -1 6 -8 0 -7
3 -10 7 -7 3 4 11 3 17 -2 10 -8 135 -54 176 -65 8 -3 16 -5 18 -6 1 -2 7 -4
12 -5 6 -1 12 -4 15 -5 3 -1 8 -3 13 -5 4 -1 14 -5 22 -8 8 -3 53 -18 100 -32
47 -14 103 -32 125 -40 41 -14 102 -29 120 -30 6 0 12 -2 15 -6 4 -4 136 -39
205 -54 11 -3 47 -11 80 -19 33 -9 76 -18 95 -21 19 -3 51 -10 70 -15 34 -9
48 -12 120 -24 19 -3 49 -8 65 -12 30 -5 43 -7 150 -25 79 -13 99 -16 165 -24
30 -3 69 -8 85 -10 17 -2 59 -7 95 -10 81 -9 115 -13 115 -15 0 -1 25 -3 55
-4 30 -2 120 -7 200 -11 289 -17 725 -8 940 19 40 5 140 17 185 21 17 2 30 4
30 5 0 1 11 3 25 5 14 1 41 6 60 10 19 4 49 9 65 11 30 3 351 71 370 77 6 2
28 8 50 12 55 12 55 12 58 14 1 2 13 4 27 7 14 2 32 7 40 11 8 3 20 7 25 8 48
11 183 50 215 62 8 4 20 7 25 8 34 8 305 106 360 130 30 14 85 37 95 40 51 17
225 99 228 108 2 4 7 5 12 2 5 -3 16 2 24 11 9 8 16 13 16 10 0 -7 182 88 223
116 15 11 27 16 27 12 0 -4 8 0 18 8 9 9 27 19 40 22 12 4 22 12 22 17 0 5 7
9 15 9 8 0 15 3 15 8 0 4 15 14 33 22 17 7 37 18 42 23 6 4 62 42 125 84 63
41 117 79 118 84 2 5 8 9 13 9 5 0 32 18 60 40 28 22 55 40 60 40 6 0 8 4 4 9
-3 5 3 12 13 15 10 4 27 14 38 24 10 9 32 28 49 40 47 37 131 111 213 187 172
160 297 292 417 441 17 20 35 42 40 48 6 6 43 56 84 111 41 55 87 117 103 137
15 20 28 42 28 47 0 6 5 11 10 11 6 0 10 5 10 12 0 6 11 25 23 42 72 95 343
599 352 656 1 3 9 23 19 45 10 22 29 69 42 105 14 36 29 74 33 85 24 54 39
103 34 109 -4 3 0 6 7 6 7 0 11 3 7 6 -3 4 0 19 9 35 8 16 12 29 9 29 -3 0 1
17 9 38 34 92 107 372 100 384 -3 4 0 8 5 8 6 0 10 3 9 8 -1 4 2 27 6 52 5 25
10 53 11 63 1 9 3 18 5 20 2 3 9 36 16 87 3 25 8 54 9 65 2 11 7 40 10 65 4
25 9 56 11 70 3 14 7 48 10 75 2 28 6 68 9 90 27 231 27 790 0 1035 -2 19 -7
62 -11 95 -4 33 -8 71 -9 85 -1 14 -5 44 -9 66 -8 49 -17 111 -20 139 -2 11
-6 31 -9 45 -3 14 -13 66 -22 115 -17 90 -20 106 -31 148 -3 12 -7 33 -10 47
-3 14 -16 64 -30 112 -13 48 -25 95 -27 105 -2 10 -9 31 -16 47 -6 16 -13 36
-15 45 -2 9 -6 23 -9 31 -3 8 -7 24 -9 35 -2 11 -7 23 -11 26 -4 3 -10 18 -13
33 -4 23 -18 64 -64 181 -9 23 -17 43 -61 150 -47 110 -190 399 -200 403 -5 2
-9 12 -9 23 0 10 -4 19 -10 19 -5 0 -10 5 -10 10 0 6 -22 47 -50 91 -27 44
-50 85 -50 90 0 5 -4 9 -10 9 -5 0 -10 7 -10 15 0 8 -4 15 -10 15 -5 0 -10 7
-10 15 0 8 -4 15 -10 15 -5 0 -10 5 -10 10 0 12 -41 73 -52 78 -5 2 -8 9 -8
16 0 7 -8 21 -18 32 -10 10 -28 35 -42 54 -13 19 -27 37 -30 40 -3 3 -17 21
-30 40 -25 35 -38 52 -74 93 -10 12 -30 38 -45 57 -14 19 -33 42 -41 51 -8 8
-57 61 -107 116 -138 150 -306 311 -443 423 -69 57 -71 59 -150 119 -36 27
-73 57 -82 65 -10 9 -22 16 -26 16 -4 0 -23 13 -42 30 -19 16 -41 29 -47 30
-7 0 -13 5 -13 10 0 6 -7 10 -15 10 -8 0 -15 4 -15 9 0 5 -13 14 -30 21 -16 7
-30 16 -30 21 0 5 -7 9 -15 9 -8 0 -15 5 -15 10 0 6 -4 10 -9 10 -5 0 -47 23
-93 51 -85 52 -133 79 -292 160 -102 52 -266 130 -281 134 -5 1 -21 7 -35 12
-14 6 -56 23 -95 38 -38 15 -85 34 -104 42 -18 8 -41 17 -50 18 -9 2 -17 4
-18 5 -2 2 -6 3 -10 5 -5 1 -15 4 -23 8 -8 3 -46 15 -85 27 -38 12 -77 24 -85
27 -8 3 -24 8 -35 10 -11 2 -27 6 -35 10 -8 3 -19 7 -25 8 -5 2 -65 17 -133
35 -68 17 -135 34 -150 36 -35 6 -45 8 -117 24 -33 7 -71 14 -85 15 -14 2 -25
4 -25 5 0 2 -9 4 -20 5 -11 2 -38 6 -60 9 -22 3 -60 8 -85 11 -25 3 -61 7 -80
11 -55 9 -79 12 -170 19 -47 4 -98 9 -115 12 -35 5 -701 13 -707 9z m392
-1149 c36 -1 70 -5 75 -8 6 -2 29 -4 53 -4 23 0 42 -2 42 -5 0 -3 15 -6 33 -6
80 -3 127 -10 127 -17 0 -5 4 -6 9 -3 9 6 190 -26 251 -45 19 -6 42 -12 50
-13 61 -11 96 -19 105 -25 6 -3 19 -7 29 -8 11 -2 40 -11 65 -19 25 -9 53 -17
61 -19 8 -2 15 -4 15 -5 0 -1 7 -3 15 -5 17 -4 97 -32 120 -42 8 -3 17 -7 20
-8 3 -1 18 -7 33 -13 16 -7 30 -12 33 -12 8 0 161 -70 269 -123 89 -44 159
-80 165 -88 3 -3 22 -13 42 -22 20 -10 43 -23 50 -30 7 -7 26 -19 42 -27 57
-29 66 -35 66 -42 0 -5 6 -8 14 -8 8 0 16 -4 18 -8 2 -4 27 -23 56 -42 28 -18
52 -37 52 -42 0 -4 6 -8 13 -8 7 0 22 -8 33 -17 10 -10 37 -31 59 -48 98 -73
230 -190 353 -311 72 -73 132 -134 132 -137 0 -3 12 -18 28 -34 23 -24 46 -51
111 -129 45 -55 141 -186 141 -193 0 -5 4 -11 8 -13 14 -6 207 -308 196 -308
-3 0 3 -12 14 -27 31 -46 104 -193 95 -193 -4 0 -3 -4 3 -8 11 -6 81 -163 113
-252 7 -19 17 -44 21 -55 15 -34 58 -167 75 -230 9 -33 21 -73 26 -90 6 -16
12 -39 14 -50 1 -11 3 -20 4 -20 2 0 4 -11 7 -25 2 -14 11 -59 20 -100 9 -41
17 -86 19 -100 2 -14 9 -56 15 -95 7 -38 13 -97 15 -130 3 -33 5 -60 6 -60 15
0 26 -443 14 -580 -2 -27 -6 -81 -9 -120 -3 -38 -8 -87 -11 -107 -3 -21 -7
-55 -10 -75 -8 -60 -14 -94 -30 -180 -3 -16 -8 -39 -12 -53 -3 -14 -7 -32 -9
-40 -11 -62 -16 -84 -37 -157 -14 -46 -23 -83 -20 -83 2 0 -1 -9 -7 -21 -6
-11 -13 -29 -15 -40 -6 -28 -66 -202 -74 -214 -4 -5 -16 -36 -26 -67 -11 -32
-23 -58 -29 -58 -5 0 -6 -3 -3 -6 4 -4 0 -19 -7 -33 -37 -71 -86 -179 -86
-189 0 -5 -3 -12 -7 -14 -5 -1 -18 -24 -31 -50 -13 -26 -27 -50 -33 -53 -5 -4
-7 -10 -5 -14 3 -4 -2 -17 -12 -27 -9 -10 -23 -32 -30 -47 -7 -16 -47 -81 -89
-145 -74 -112 -85 -128 -109 -155 -6 -7 -15 -19 -20 -28 -17 -30 -149 -191
-219 -269 -136 -150 -368 -367 -459 -429 -12 -8 -23 -18 -26 -21 -13 -16 -130
-100 -138 -100 -6 0 -12 -3 -14 -7 -5 -11 -66 -53 -77 -53 -5 0 -11 -4 -13 -9
-4 -11 -168 -112 -243 -149 -16 -8 -41 -23 -55 -32 -14 -10 -28 -19 -32 -19
-4 -1 -58 -26 -120 -55 -101 -47 -142 -65 -158 -71 -3 -1 -16 -6 -30 -12 -14
-6 -54 -21 -90 -33 -36 -13 -69 -26 -75 -30 -5 -4 -23 -11 -40 -15 -16 -5 -32
-9 -35 -10 -3 -1 -32 -10 -65 -20 -33 -11 -62 -19 -65 -20 -3 -1 -57 -14 -120
-29 -112 -27 -129 -31 -180 -41 -14 -3 -36 -7 -50 -10 -36 -8 -68 -13 -130
-20 -30 -4 -64 -9 -75 -11 -85 -18 -505 -35 -505 -21 0 4 -5 5 -12 1 -14 -9
-78 -12 -78 -4 0 3 -33 6 -73 6 -68 2 -112 5 -232 18 -94 11 -176 24 -258 42
-37 8 -72 12 -77 9 -5 -3 -11 -1 -14 4 -3 5 -23 12 -43 16 -39 7 -216 53 -243
62 -8 4 -19 7 -25 8 -22 6 -191 66 -210 75 -35 17 -80 33 -87 32 -5 -1 -8 3
-8 9 0 5 -4 8 -8 5 -5 -3 -30 6 -56 19 -26 13 -50 24 -54 25 -20 3 -285 143
-309 162 -7 6 -13 7 -13 3 0 -4 -14 5 -31 19 -17 14 -37 26 -45 26 -8 0 -17 7
-20 15 -4 8 -11 15 -17 15 -26 0 -330 223 -456 335 -34 30 -83 75 -158 146
-53 51 -173 177 -173 182 0 3 -17 22 -37 44 -21 21 -49 54 -63 72 -14 19 -32
42 -40 51 -50 60 -130 167 -130 175 0 6 -11 20 -38 50 -6 7 -12 17 -12 20 0 4
-10 21 -22 38 -27 37 -30 41 -88 142 -84 144 -165 307 -227 455 -8 19 -19 43
-24 52 -5 10 -9 22 -9 27 0 5 -8 26 -17 47 -9 22 -17 44 -19 49 -1 6 -14 46
-29 90 -14 44 -33 105 -41 135 -23 83 -56 212 -59 235 -2 11 -6 34 -10 50 -4
17 -8 39 -9 50 -2 11 -6 36 -10 55 -4 19 -9 51 -11 70 -2 19 -4 35 -5 35 -1 0
-3 11 -5 25 -1 14 -5 52 -9 85 -13 126 -19 246 -19 395 1 129 9 345 13 345 1
0 4 27 7 60 6 71 10 110 13 110 1 0 3 16 5 35 3 19 7 51 11 70 3 19 8 45 10
58 4 21 8 43 20 100 3 15 10 45 15 67 5 22 11 48 14 57 25 107 129 432 145
453 4 6 11 21 15 35 14 48 156 343 205 425 16 28 39 66 50 85 30 52 40 67 98
153 28 43 52 81 52 83 0 3 13 19 30 37 16 18 30 37 30 42 0 6 9 17 20 25 11 8
20 18 20 23 0 5 24 37 53 71 28 33 57 67 62 73 14 18 106 116 180 193 96 99
246 233 355 316 36 27 67 51 70 54 3 3 16 13 30 22 14 10 44 31 68 48 23 16
47 30 52 30 6 0 10 4 10 8 0 4 30 26 66 47 36 22 78 47 92 57 89 55 406 215
442 223 3 0 52 19 110 42 144 56 264 96 295 97 6 1 12 4 15 7 19 21 452 106
633 123 26 3 52 8 57 11 5 3 11 1 15 -5 4 -6 12 -7 18 -3 7 4 43 9 82 11 38 2
70 4 71 5 3 2 287 -2 374 -6z"/>
<path d="M10957 10294 c-1 -1 -38 -4 -83 -8 -45 -3 -87 -8 -95 -10 -8 -3 -34
-7 -59 -10 -69 -9 -108 -16 -195 -37 -44 -11 -84 -21 -90 -22 -5 -2 -14 -5
-20 -8 -8 -5 -39 -15 -75 -24 -94 -23 -439 -182 -448 -206 -2 -5 -10 -9 -18
-9 -8 0 -20 -4 -27 -10 -7 -5 -64 -47 -129 -92 -64 -46 -144 -108 -178 -138
-71 -62 -221 -210 -214 -210 3 0 -5 -11 -18 -23 -43 -44 -79 -87 -97 -117 -10
-17 -21 -27 -24 -23 -4 3 -7 2 -7 -3 0 -5 -33 -59 -72 -120 -82 -124 -195
-344 -233 -454 -1 -3 -5 -13 -8 -22 -4 -10 -10 -26 -14 -35 -3 -10 -7 -20 -7
-23 -1 -3 -5 -11 -9 -17 -5 -7 -6 -13 -3 -13 3 0 -1 -17 -9 -37 -8 -21 -17
-49 -19 -63 -3 -14 -12 -52 -21 -85 -8 -33 -20 -89 -25 -125 -6 -36 -13 -76
-16 -90 -24 -123 -24 -536 1 -653 2 -12 6 -40 9 -62 15 -111 103 -431 133
-479 4 -6 8 -16 9 -23 4 -26 169 -350 185 -363 4 -3 22 -30 42 -60 19 -30 49
-73 66 -95 17 -22 34 -45 38 -50 72 -95 273 -305 292 -305 6 0 11 -4 11 -9 0
-4 27 -29 60 -55 33 -26 65 -52 73 -59 7 -7 20 -16 28 -22 9 -5 54 -35 101
-67 47 -31 111 -70 143 -87 32 -17 64 -36 72 -42 7 -6 13 -8 13 -5 0 4 14 -2
30 -14 17 -12 30 -18 30 -15 0 4 10 1 23 -7 40 -27 228 -98 265 -100 6 -1 12
-6 12 -11 0 -5 7 -7 15 -3 8 3 15 1 15 -4 0 -6 3 -9 8 -8 4 1 39 -6 78 -16 38
-9 77 -18 85 -20 7 -2 30 -6 49 -10 51 -10 69 -13 130 -21 30 -4 66 -9 80 -12
44 -8 373 -11 450 -3 153 16 156 17 340 55 8 2 15 4 15 5 0 1 9 3 20 4 11 1
67 18 125 36 58 19 107 34 110 35 3 1 16 6 30 12 14 6 45 19 70 29 134 54 394
201 484 274 6 6 30 25 52 42 95 75 120 96 188 163 88 86 172 178 211 230 16
22 33 42 37 43 4 2 8 8 8 14 0 5 6 16 13 23 29 34 107 150 107 162 0 3 6 14
14 22 7 9 26 41 42 71 16 30 33 58 39 62 5 4 7 8 2 8 -4 0 -1 10 7 23 14 21
96 211 101 232 1 5 7 23 14 39 6 16 13 36 15 45 2 9 5 23 9 31 17 47 20 57 23
77 1 13 5 32 9 42 18 58 55 273 62 361 8 103 7 361 -1 440 -6 59 -29 212 -40
268 -3 12 -15 57 -26 100 -12 42 -23 84 -25 92 -15 72 -140 375 -165 400 -3 3
-6 11 -8 18 -6 30 -111 193 -206 322 -119 160 -284 326 -446 450 -84 63 -198
138 -204 133 -3 -4 -6 -2 -6 3 0 5 -17 18 -37 29 -21 11 -40 22 -43 25 -5 6
-181 94 -190 96 -5 1 -35 13 -90 37 -14 6 -27 11 -30 11 -3 1 -18 6 -35 13
-31 12 -60 21 -73 24 -4 1 -31 10 -59 20 -29 10 -53 16 -53 14 0 -3 -11 0 -25
5 -27 10 -31 11 -145 34 -71 13 -93 17 -215 32 -46 6 -353 13 -358 8z m85
-1317 c26 -17 48 -34 48 -37 0 -4 8 -15 18 -26 46 -53 63 -122 35 -142 -30
-20 -160 -103 -311 -198 -78 -49 -155 -97 -170 -107 -15 -9 -35 -20 -44 -23
-10 -4 -18 -10 -18 -14 0 -5 -9 -11 -20 -15 -27 -9 -94 -75 -114 -112 -9 -18
-19 -49 -22 -70 -3 -21 -8 -40 -10 -42 -2 -2 1 -10 8 -18 6 -7 8 -16 5 -20 -3
-3 1 -20 10 -37 46 -92 116 -146 197 -153 46 -3 58 1 121 38 39 23 72 45 75
49 4 5 85 55 180 111 13 7 30 20 38 27 7 6 19 12 27 12 7 0 15 3 17 8 11 26
173 110 201 104 4 -1 7 3 7 9 0 5 4 8 9 5 5 -4 31 -8 57 -11 79 -8 156 -54
199 -120 29 -44 45 -75 38 -75 -3 0 0 -7 7 -15 10 -12 7 -20 -17 -42 -16 -16
-41 -37 -57 -47 -15 -11 -37 -28 -48 -38 -11 -9 -29 -20 -39 -23 -11 -4 -19
-11 -19 -16 0 -5 -8 -13 -18 -17 -24 -9 -377 -262 -418 -299 -108 -98 -101
-244 17 -346 55 -48 96 -65 154 -66 47 -1 109 15 127 32 7 7 39 29 70 50 31
21 67 47 79 58 12 10 28 19 35 19 7 0 14 4 16 8 2 5 48 41 103 80 55 38 108
77 118 86 9 9 17 13 17 9 0 -5 4 -3 8 3 14 20 97 53 142 56 106 6 206 -57 254
-162 14 -30 26 -60 26 -67 0 -7 -28 -31 -62 -54 -94 -64 -293 -211 -296 -221
-2 -4 -10 -8 -17 -8 -7 0 -15 -4 -17 -8 -1 -5 -30 -28 -63 -52 -33 -24 -64
-48 -70 -53 -5 -4 -57 -42 -115 -83 -58 -41 -116 -82 -129 -92 -13 -9 -27 -17
-30 -18 -3 0 -19 -6 -34 -12 -56 -23 -130 -31 -194 -20 -54 10 -131 38 -143
54 -7 7 -18 14 -25 14 -21 0 -90 75 -171 185 -41 55 -77 105 -81 110 -5 6 -21
30 -38 55 -33 49 -36 54 -65 89 -11 13 -22 32 -25 42 -4 11 -11 19 -16 19 -5
0 -9 5 -9 11 0 5 -16 31 -35 57 -47 64 -49 66 -60 85 -5 9 -110 165 -233 347
-123 182 -230 350 -238 373 -32 87 -20 190 30 262 27 40 30 43 106 95 36 24
67 48 68 52 2 4 10 8 18 8 8 0 14 5 14 10 0 6 6 10 14 10 8 0 16 3 18 8 2 4
23 21 48 37 25 17 54 38 64 48 11 9 23 17 27 17 4 0 14 6 21 13 7 6 36 28 63
47 28 19 52 38 53 42 2 4 8 8 14 8 6 0 30 16 54 35 23 19 47 35 52 35 6 0 12
3 14 8 4 9 53 42 88 60 75 38 185 29 262 -21z"/>
</g>
</svg>
