<svg width="95" height="95" viewBox="0 0 95 95" fill="none" xmlns="http://www.w3.org/2000/svg">
<path d="M67.8504 45.8202C65.1222 45.8202 62.3939 45.8202 59.5891 45.8202C59.5891 44.8258 59.5891 43.8569 59.5891 42.8114C62.0624 42.8114 64.5357 42.8114 67.111 42.8114C67.111 40.2616 67.111 37.7628 67.111 35.1875C68.1819 35.1875 69.1509 35.1875 70.2218 35.1875C70.2218 37.3038 70.2218 39.3947 70.2218 41.4855C70.2218 42.225 70.2218 42.9389 70.2218 43.6784C70.2218 44.9533 70.2218 44.9788 69.2783 45.8712C69.6353 46.0497 69.9413 46.2282 70.2728 46.4067C77.8967 50.2314 85.5461 54.0561 93.1956 57.8553C94.292 58.3908 94.7 59.0792 94.7 60.3031C94.649 67.0601 94.649 73.7916 94.7 80.5486C94.7 81.543 94.343 82.1295 93.476 82.563C85.5971 86.4897 77.7437 90.4164 69.8903 94.3686C69.0744 94.7766 68.3604 94.7511 67.5445 94.3431C61.119 91.1048 54.6424 87.8921 48.2169 84.6283C47.5795 84.2968 47.095 84.3223 46.4575 84.6538C40.083 87.8666 33.683 91.0538 27.3085 94.2666C26.365 94.7511 25.5746 94.7511 24.6312 94.2666C16.8542 90.3399 9.07732 86.4642 1.3004 82.5885C0.382472 82.1295 0 81.543 0 80.5231C0.0254981 73.6896 0.0254981 66.8306 0 59.9972C0 59.0027 0.382471 58.4418 1.24941 57.9828C8.97533 54.1326 16.7013 50.2569 24.4272 46.4067C24.7332 46.2537 25.0391 46.0752 25.5491 45.8202C24.3507 45.3102 24.4527 44.3413 24.4527 43.3724C24.4782 40.6696 24.4527 37.9668 24.4527 35.1875C25.4726 35.1875 26.416 35.1875 27.4615 35.1875C27.4615 37.6608 27.4615 40.1341 27.4615 42.7094C30.0113 42.7094 32.5101 42.7094 35.0599 42.7094C35.0599 43.7804 35.0599 44.7493 35.0599 45.7692C32.2806 45.7692 29.5268 45.7692 26.773 45.7692C26.7475 45.8202 26.7475 45.8712 26.722 45.9222C26.9515 46.0497 27.181 46.2027 27.4105 46.3302C33.785 49.5174 40.185 52.7047 46.5595 55.9175C47.1205 56.1979 47.5795 56.1979 48.1404 55.9175C54.4894 52.7047 60.864 49.5429 67.213 46.3557C67.468 46.2282 67.6975 46.1007 67.9524 45.9477C67.8759 45.9222 67.8504 45.8712 67.8504 45.8202ZM46.84 59.5892C46.483 59.3852 46.2791 59.2577 46.0751 59.1557C39.5731 55.892 33.071 52.6537 26.5945 49.3644C26.0081 49.0585 25.6001 49.2115 25.1156 49.4664C18.7666 52.6537 12.3921 55.8155 6.04305 59.0027C5.73707 59.1557 5.45659 59.3342 5.04862 59.5382C5.30361 59.6912 5.45659 59.7932 5.60958 59.8697C12.1881 63.1589 18.7666 66.4482 25.3706 69.7119C25.7021 69.8904 26.2885 69.8139 26.6455 69.6354C31.7451 67.1111 36.8193 64.5613 41.8934 62.037C43.4743 61.2721 45.0806 60.4816 46.84 59.5892ZM50.7922 58.0338C52.0926 58.6968 51.8886 59.7677 51.8631 60.7621C51.8376 61.3995 52.0161 61.7565 52.6281 62.0625C57.7022 64.5613 62.7508 67.0856 67.774 69.6354C68.4369 69.9669 68.9469 69.9414 69.6098 69.6099C75.9078 66.4227 82.2059 63.2864 88.5039 60.1501C88.8354 59.9972 89.1414 59.7932 89.5748 59.5892C89.3199 59.4362 89.2179 59.3597 89.0649 59.2832C82.4609 55.9685 75.8569 52.6537 69.2273 49.3899C68.9214 49.237 68.3604 49.2879 68.0289 49.4409C63.1843 51.8123 58.3652 54.2346 53.546 56.6569C52.6791 57.0904 51.8121 57.5238 50.7922 58.0338ZM3.03427 62.139C3.00878 62.343 2.98328 62.4705 2.98328 62.598C2.98328 68.182 2.98328 73.7916 2.95778 79.3757C2.95778 80.0132 3.31475 80.1661 3.74822 80.3956C10.3012 83.6594 16.8542 86.9486 23.4073 90.2124C23.6877 90.3399 23.9682 90.4674 24.3507 90.6459C24.3507 90.2379 24.3507 89.9574 24.3507 89.7024C24.3507 84.3733 24.3252 79.0187 24.3762 73.6896C24.3762 72.9757 24.1212 72.6442 23.5092 72.3382C16.9817 69.1 10.4542 65.8107 3.92671 62.5725C3.67173 62.394 3.36575 62.2665 3.03427 62.139ZM27.436 90.6204C27.6909 90.5439 27.7929 90.5184 27.9204 90.4674C34.7029 87.0761 41.4854 83.6594 48.2679 80.2936C48.8289 80.0132 48.8289 79.6307 48.8289 79.1462C48.8289 73.7661 48.8289 68.4115 48.8289 63.0314C48.8289 62.7509 48.8034 62.496 48.7779 62.241C48.6759 62.2155 48.6249 62.2155 48.5994 62.2155C41.6639 65.6577 34.7539 69.1255 27.8184 72.5932C27.6144 72.6952 27.436 73.0267 27.436 73.2562C27.4105 78.9932 27.436 84.7303 27.436 90.6204ZM70.1963 90.6204C70.4513 90.5439 70.5532 90.5184 70.6807 90.4674C77.4632 87.0761 84.2457 83.6594 91.0282 80.2936C91.5892 80.0132 91.5892 79.6307 91.5892 79.1462C91.5892 73.7661 91.5892 68.4115 91.5892 63.0314C91.5892 62.7509 91.5637 62.496 91.5382 62.241C91.4362 62.2155 91.3852 62.2155 91.3597 62.2155C84.4242 65.6577 77.5142 69.1255 70.5787 72.5932C70.3748 72.6952 70.1963 73.0267 70.1963 73.2562C70.1708 78.9932 70.1963 84.7303 70.1963 90.6204ZM51.8631 65.1733C51.8631 65.6067 51.8631 65.9382 51.8631 66.2952C51.8631 70.8338 51.8631 75.398 51.8631 79.9367C51.8631 80.9056 52.0161 81.9255 50.7412 82.4865C56.3253 85.2658 61.6544 87.9431 67.0855 90.6459C67.111 90.3399 67.1365 90.1869 67.1365 90.0339C67.1365 84.5008 67.1365 78.9677 67.162 73.4347C67.162 72.8482 66.907 72.5932 66.4481 72.3637C61.8329 70.0689 57.2432 67.7741 52.6536 65.4792C52.4241 65.4027 52.1946 65.3263 51.8631 65.1733Z" fill="black"/>
<path d="M67.8504 45.8202C65.1222 45.8202 62.3939 45.8202 59.5891 45.8202C59.5891 44.8258 59.5891 43.8569 59.5891 42.8114C62.0624 42.8114 64.5357 42.8114 67.111 42.8114C67.111 40.2616 67.111 37.7628 67.111 35.1875C68.1819 35.1875 69.1509 35.1875 70.2218 35.1875C70.2218 37.3038 70.2218 39.3947 70.2218 41.4855C70.2218 42.225 70.2218 42.9389 70.2218 43.6784C70.2218 44.9533 70.2218 44.9788 69.2783 45.8712C69.6353 46.0497 69.9413 46.2282 70.2728 46.4067C77.8967 50.2314 85.5461 54.0561 93.1956 57.8553C94.292 58.3908 94.7 59.0792 94.7 60.3031C94.649 67.0601 94.649 73.7916 94.7 80.5486C94.7 81.543 94.343 82.1295 93.476 82.563C85.5971 86.4897 77.7437 90.4164 69.8903 94.3686C69.0744 94.7766 68.3604 94.7511 67.5445 94.3431C61.119 91.1048 54.6424 87.8921 48.2169 84.6283C47.5795 84.2968 47.095 84.3223 46.4575 84.6538C40.083 87.8666 33.683 91.0538 27.3085 94.2666C26.365 94.7511 25.5746 94.7511 24.6312 94.2666C16.8542 90.3399 9.07732 86.4642 1.3004 82.5885C0.382472 82.1295 0 81.543 0 80.5231C0.0254981 73.6896 0.0254981 66.8306 0 59.9972C0 59.0027 0.382471 58.4418 1.24941 57.9828C8.97533 54.1326 16.7013 50.2569 24.4272 46.4067C24.7332 46.2537 25.0391 46.0752 25.5491 45.8202C24.3507 45.3102 24.4527 44.3413 24.4527 43.3724C24.4782 40.6696 24.4527 37.9668 24.4527 35.1875C25.4726 35.1875 26.416 35.1875 27.4615 35.1875C27.4615 37.6608 27.4615 40.1341 27.4615 42.7094C30.0113 42.7094 32.5101 42.7094 35.0599 42.7094C35.0599 43.7804 35.0599 44.7493 35.0599 45.7692C32.2806 45.7692 29.5268 45.7692 26.773 45.7692C26.7475 45.8202 26.7475 45.8712 26.722 45.9222C26.9515 46.0497 27.181 46.2027 27.4105 46.3302C33.785 49.5174 40.185 52.7047 46.5595 55.9175C47.1205 56.1979 47.5795 56.1979 48.1404 55.9175C54.4894 52.7047 60.864 49.5429 67.213 46.3557C67.468 46.2282 67.6975 46.1007 67.9524 45.9477C67.8759 45.9222 67.8504 45.8712 67.8504 45.8202ZM46.84 59.5892C46.483 59.3852 46.2791 59.2577 46.0751 59.1557C39.5731 55.892 33.071 52.6537 26.5945 49.3644C26.0081 49.0585 25.6001 49.2115 25.1156 49.4664C18.7666 52.6537 12.3921 55.8155 6.04305 59.0027C5.73707 59.1557 5.45659 59.3342 5.04862 59.5382C5.30361 59.6912 5.45659 59.7932 5.60958 59.8697C12.1881 63.1589 18.7666 66.4482 25.3706 69.7119C25.7021 69.8904 26.2885 69.8139 26.6455 69.6354C31.7451 67.1111 36.8193 64.5613 41.8934 62.037C43.4743 61.2721 45.0806 60.4816 46.84 59.5892ZM50.7922 58.0338C52.0926 58.6968 51.8886 59.7677 51.8631 60.7621C51.8376 61.3995 52.0161 61.7565 52.6281 62.0625C57.7022 64.5613 62.7508 67.0856 67.774 69.6354C68.4369 69.9669 68.9469 69.9414 69.6098 69.6099C75.9078 66.4227 82.2059 63.2864 88.5039 60.1501C88.8354 59.9972 89.1414 59.7932 89.5748 59.5892C89.3199 59.4362 89.2179 59.3597 89.0649 59.2832C82.4609 55.9685 75.8569 52.6537 69.2273 49.3899C68.9214 49.237 68.3604 49.2879 68.0289 49.4409C63.1843 51.8123 58.3652 54.2346 53.546 56.6569C52.6791 57.0904 51.8121 57.5238 50.7922 58.0338ZM3.03427 62.139C3.00878 62.343 2.98328 62.4705 2.98328 62.598C2.98328 68.182 2.98328 73.7916 2.95778 79.3757C2.95778 80.0132 3.31475 80.1661 3.74822 80.3956C10.3012 83.6594 16.8542 86.9486 23.4073 90.2124C23.6877 90.3399 23.9682 90.4674 24.3507 90.6459C24.3507 90.2379 24.3507 89.9574 24.3507 89.7024C24.3507 84.3733 24.3252 79.0187 24.3762 73.6896C24.3762 72.9757 24.1212 72.6442 23.5092 72.3382C16.9817 69.1 10.4542 65.8107 3.92671 62.5725C3.67173 62.394 3.36575 62.2665 3.03427 62.139ZM27.436 90.6204C27.6909 90.5439 27.7929 90.5184 27.9204 90.4674C34.7029 87.0761 41.4854 83.6594 48.2679 80.2936C48.8289 80.0132 48.8289 79.6307 48.8289 79.1462C48.8289 73.7661 48.8289 68.4115 48.8289 63.0314C48.8289 62.7509 48.8034 62.496 48.7779 62.241C48.6759 62.2155 48.6249 62.2155 48.5994 62.2155C41.6639 65.6577 34.7539 69.1255 27.8184 72.5932C27.6144 72.6952 27.436 73.0267 27.436 73.2562C27.4105 78.9932 27.436 84.7303 27.436 90.6204ZM70.1963 90.6204C70.4513 90.5439 70.5532 90.5184 70.6807 90.4674C77.4632 87.0761 84.2457 83.6594 91.0282 80.2936C91.5892 80.0132 91.5892 79.6307 91.5892 79.1462C91.5892 73.7661 91.5892 68.4115 91.5892 63.0314C91.5892 62.7509 91.5637 62.496 91.5382 62.241C91.4362 62.2155 91.3852 62.2155 91.3597 62.2155C84.4242 65.6577 77.5142 69.1255 70.5787 72.5932C70.3748 72.6952 70.1963 73.0267 70.1963 73.2562C70.1708 78.9932 70.1963 84.7303 70.1963 90.6204ZM51.8631 65.1733C51.8631 65.6067 51.8631 65.9382 51.8631 66.2952C51.8631 70.8338 51.8631 75.398 51.8631 79.9367C51.8631 80.9056 52.0161 81.9255 50.7412 82.4865C56.3253 85.2658 61.6544 87.9431 67.0855 90.6459C67.111 90.3399 67.1365 90.1869 67.1365 90.0339C67.1365 84.5008 67.1365 78.9677 67.162 73.4347C67.162 72.8482 66.907 72.5932 66.4481 72.3637C61.8329 70.0689 57.2432 67.7741 52.6536 65.4792C52.4241 65.4027 52.1946 65.3263 51.8631 65.1733Z" fill="url(#paint0_linear_18_653)"/>
<path d="M47.248 41.2305C41.8424 41.2305 36.4368 41.2305 31.0312 41.2305C29.4248 41.2305 28.9658 40.7715 28.9658 39.2161C28.9658 28.3284 28.9658 17.4662 28.9658 6.57856C28.9658 4.99768 29.4248 4.56421 31.0312 4.56421C41.8679 4.56421 52.7046 4.56421 63.5667 4.56421C65.1986 4.56421 65.6321 4.99768 65.6321 6.65505C65.6321 17.4662 65.6321 28.2774 65.6321 39.0886C65.6321 40.7715 65.1986 41.205 63.4902 41.205C58.0337 41.2305 52.6281 41.2305 47.248 41.2305ZM62.4958 38.1452C62.4958 27.946 62.4958 17.8232 62.4958 7.70048C57.3962 7.70048 52.3476 7.70048 47.3499 7.70048C47.3499 8.7204 47.3499 9.66383 47.3499 10.6838C47.7324 10.6838 48.0894 10.6838 48.4209 10.6838C51.5316 10.6838 54.6679 10.6838 57.7787 10.6838C58.7731 10.6838 59.4615 11.1427 59.487 11.9842C59.538 13.565 59.5125 15.1459 59.5125 16.7268C58.4416 16.7268 57.4727 16.7268 56.4528 16.7268C56.4528 15.7069 56.4528 14.7634 56.4528 13.7945C53.3675 13.7945 50.3842 13.7945 47.299 13.7945C47.299 14.3555 47.3245 14.8654 47.299 15.3754C47.248 16.1403 46.8145 16.7268 46.1005 16.7523C44.4942 16.8288 42.8878 16.7778 41.2814 16.7778C41.2814 15.7069 41.2814 14.738 41.2814 13.718C42.3013 13.718 43.2448 13.718 44.1882 13.718C44.1882 11.6527 44.1882 9.68933 44.1882 7.72597C40.1085 7.72597 36.0798 7.72597 32.0766 7.72597C32.0766 17.8997 32.0766 28.0225 32.0766 38.1707C42.1993 38.1452 52.3221 38.1452 62.4958 38.1452Z" fill="black"/>
<path d="M47.248 41.2305C41.8424 41.2305 36.4368 41.2305 31.0312 41.2305C29.4248 41.2305 28.9658 40.7715 28.9658 39.2161C28.9658 28.3284 28.9658 17.4662 28.9658 6.57856C28.9658 4.99768 29.4248 4.56421 31.0312 4.56421C41.8679 4.56421 52.7046 4.56421 63.5667 4.56421C65.1986 4.56421 65.6321 4.99768 65.6321 6.65505C65.6321 17.4662 65.6321 28.2774 65.6321 39.0886C65.6321 40.7715 65.1986 41.205 63.4902 41.205C58.0337 41.2305 52.6281 41.2305 47.248 41.2305ZM62.4958 38.1452C62.4958 27.946 62.4958 17.8232 62.4958 7.70048C57.3962 7.70048 52.3476 7.70048 47.3499 7.70048C47.3499 8.7204 47.3499 9.66383 47.3499 10.6838C47.7324 10.6838 48.0894 10.6838 48.4209 10.6838C51.5316 10.6838 54.6679 10.6838 57.7787 10.6838C58.7731 10.6838 59.4615 11.1427 59.487 11.9842C59.538 13.565 59.5125 15.1459 59.5125 16.7268C58.4416 16.7268 57.4727 16.7268 56.4528 16.7268C56.4528 15.7069 56.4528 14.7634 56.4528 13.7945C53.3675 13.7945 50.3842 13.7945 47.299 13.7945C47.299 14.3555 47.3245 14.8654 47.299 15.3754C47.248 16.1403 46.8145 16.7268 46.1005 16.7523C44.4942 16.8288 42.8878 16.7778 41.2814 16.7778C41.2814 15.7069 41.2814 14.738 41.2814 13.718C42.3013 13.718 43.2448 13.718 44.1882 13.718C44.1882 11.6527 44.1882 9.68933 44.1882 7.72597C40.1085 7.72597 36.0798 7.72597 32.0766 7.72597C32.0766 17.8997 32.0766 28.0225 32.0766 38.1707C42.1993 38.1452 52.3221 38.1452 62.4958 38.1452Z" fill="url(#paint1_linear_18_653)"/>
<path d="M35.0089 0.0254981C35.0089 1.01992 35.0089 1.96335 35.0089 3.00878C32.5101 3.00878 30.0368 3.00878 27.436 3.00878C27.436 5.60958 27.436 8.0829 27.436 10.6327C26.3906 10.6327 25.4471 10.6327 24.4527 10.6327C24.4272 10.4287 24.3762 10.2247 24.3762 10.0208C24.3762 7.26696 24.3762 4.48767 24.3762 1.73387C24.3762 0.53546 24.9372 0 26.1356 0C28.8894 0 31.6687 0 34.4225 0C34.601 0 34.7794 0.0254981 35.0089 0.0254981Z" fill="black"/>
<path d="M35.0089 0.0254981C35.0089 1.01992 35.0089 1.96335 35.0089 3.00878C32.5101 3.00878 30.0368 3.00878 27.436 3.00878C27.436 5.60958 27.436 8.0829 27.436 10.6327C26.3906 10.6327 25.4471 10.6327 24.4527 10.6327C24.4272 10.4287 24.3762 10.2247 24.3762 10.0208C24.3762 7.26696 24.3762 4.48767 24.3762 1.73387C24.3762 0.53546 24.9372 0 26.1356 0C28.8894 0 31.6687 0 34.4225 0C34.601 0 34.7794 0.0254981 35.0089 0.0254981Z" fill="url(#paint2_linear_18_653)"/>
<path d="M59.5381 3.08527C59.5381 1.96335 59.5381 1.04542 59.5381 0C61.5014 0 63.4393 0 65.3772 0C66.3206 0 67.2895 0 68.2329 0C69.6863 0 70.1708 0.484464 70.1708 1.93786C70.1708 4.81914 70.1708 7.70043 70.1708 10.6327C69.1509 10.6327 68.2074 10.6327 67.162 10.6327C67.162 8.15939 67.162 5.66058 67.162 3.08527C64.5867 3.08527 62.1134 3.08527 59.5381 3.08527Z" fill="black"/>
<path d="M59.5381 3.08527C59.5381 1.96335 59.5381 1.04542 59.5381 0C61.5014 0 63.4393 0 65.3772 0C66.3206 0 67.2895 0 68.2329 0C69.6863 0 70.1708 0.484464 70.1708 1.93786C70.1708 4.81914 70.1708 7.70043 70.1708 10.6327C69.1509 10.6327 68.2074 10.6327 67.162 10.6327C67.162 8.15939 67.162 5.66058 67.162 3.08527C64.5867 3.08527 62.1134 3.08527 59.5381 3.08527Z" fill="url(#paint3_linear_18_653)"/>
<path d="M36.5643 18.3332C36.5643 17.7723 36.5643 17.3643 36.5643 16.8543C35.5954 16.8543 34.6265 16.8543 33.5811 16.8543C33.5811 15.7834 33.5811 14.8145 33.5811 13.7691C35.1619 13.7691 36.6918 13.7436 38.2472 13.7946C39.0631 13.8201 39.5986 14.4575 39.6241 15.3245C39.6496 16.2934 39.6241 17.2878 39.6241 18.3332C40.644 18.3332 41.5875 18.3332 42.6074 18.3332C42.6074 19.3787 42.6074 20.3221 42.6074 21.3675C40.644 21.3675 38.6807 21.3675 36.6153 21.3675C36.6153 23.4074 36.6153 25.3962 36.6153 27.4615C35.5444 27.4615 34.5755 27.4615 33.5301 27.4615C33.5301 24.8607 33.5046 22.2599 33.5556 19.6591C33.5811 18.8687 34.1675 18.4352 34.9834 18.3842C35.4934 18.3077 36.0034 18.3332 36.5643 18.3332Z" fill="black"/>
<path d="M36.5643 18.3332C36.5643 17.7723 36.5643 17.3643 36.5643 16.8543C35.5954 16.8543 34.6265 16.8543 33.5811 16.8543C33.5811 15.7834 33.5811 14.8145 33.5811 13.7691C35.1619 13.7691 36.6918 13.7436 38.2472 13.7946C39.0631 13.8201 39.5986 14.4575 39.6241 15.3245C39.6496 16.2934 39.6241 17.2878 39.6241 18.3332C40.644 18.3332 41.5875 18.3332 42.6074 18.3332C42.6074 19.3787 42.6074 20.3221 42.6074 21.3675C40.644 21.3675 38.6807 21.3675 36.6153 21.3675C36.6153 23.4074 36.6153 25.3962 36.6153 27.4615C35.5444 27.4615 34.5755 27.4615 33.5301 27.4615C33.5301 24.8607 33.5046 22.2599 33.5556 19.6591C33.5811 18.8687 34.1675 18.4352 34.9834 18.3842C35.4934 18.3077 36.0034 18.3332 36.5643 18.3332Z" fill="url(#paint4_linear_18_653)"/>
<path d="M42.7603 36.6408C42.7603 35.5699 42.7603 34.6264 42.7603 33.632C45.2846 33.632 47.7324 33.632 50.3077 33.632C50.3077 31.5922 50.3077 29.6033 50.3077 27.5635C51.3786 27.5635 52.322 27.5635 53.393 27.5635C53.393 30.1643 53.4185 32.7651 53.3675 35.3659C53.342 36.1563 52.7555 36.6408 51.9651 36.6408C48.9053 36.6663 45.871 36.6408 42.7603 36.6408Z" fill="black"/>
<path d="M42.7603 36.6408C42.7603 35.5699 42.7603 34.6264 42.7603 33.632C45.2846 33.632 47.7324 33.632 50.3077 33.632C50.3077 31.5922 50.3077 29.6033 50.3077 27.5635C51.3786 27.5635 52.322 27.5635 53.393 27.5635C53.393 30.1643 53.4185 32.7651 53.3675 35.3659C53.342 36.1563 52.7555 36.6408 51.9651 36.6408C48.9053 36.6663 45.871 36.6408 42.7603 36.6408Z" fill="url(#paint5_linear_18_653)"/>
<path d="M54.8718 22.9227C54.8718 23.9681 54.8718 24.9116 54.8718 25.957C52.8575 25.957 50.8686 25.957 48.8288 25.957C48.8288 28.0223 48.8288 29.9602 48.8288 32C47.8089 32 46.8399 32 45.7435 32C45.7435 31.0056 45.7435 30.0112 45.7435 29.0168C45.7435 27.5124 45.718 26.0335 45.7435 24.5291C45.7435 23.5347 46.3045 22.9482 47.2479 22.9227C49.7722 22.8972 52.271 22.9227 54.8718 22.9227Z" fill="black"/>
<path d="M54.8718 22.9227C54.8718 23.9681 54.8718 24.9116 54.8718 25.957C52.8575 25.957 50.8686 25.957 48.8288 25.957C48.8288 28.0223 48.8288 29.9602 48.8288 32C47.8089 32 46.8399 32 45.7435 32C45.7435 31.0056 45.7435 30.0112 45.7435 29.0168C45.7435 27.5124 45.718 26.0335 45.7435 24.5291C45.7435 23.5347 46.3045 22.9482 47.2479 22.9227C49.7722 22.8972 52.271 22.9227 54.8718 22.9227Z" fill="url(#paint6_linear_18_653)"/>
<path d="M57.9828 33.6319C57.9828 31.5156 57.9828 29.6032 57.9828 27.5889C58.9772 27.5889 59.9461 27.5889 61.0426 27.5889C61.0426 28.4813 61.0426 29.3737 61.0426 30.2917C61.0426 31.8471 61.0426 33.4024 61.0426 34.9578C61.0426 36.1052 60.4816 36.6662 59.3597 36.6662C57.9318 36.6917 56.5039 36.6662 54.9995 36.6662C54.9995 35.6718 54.9995 34.7028 54.9995 33.6319C55.9429 33.6319 56.9119 33.6319 57.9828 33.6319Z" fill="black"/>
<path d="M57.9828 33.6319C57.9828 31.5156 57.9828 29.6032 57.9828 27.5889C58.9772 27.5889 59.9461 27.5889 61.0426 27.5889C61.0426 28.4813 61.0426 29.3737 61.0426 30.2917C61.0426 31.8471 61.0426 33.4024 61.0426 34.9578C61.0426 36.1052 60.4816 36.6662 59.3597 36.6662C57.9318 36.6917 56.5039 36.6662 54.9995 36.6662C54.9995 35.6718 54.9995 34.7028 54.9995 33.6319C55.9429 33.6319 56.9119 33.6319 57.9828 33.6319Z" fill="url(#paint7_linear_18_653)"/>
<path d="M41.1539 36.6152C40.083 36.6152 39.1395 36.6152 38.1451 36.6152C38.1451 35.1108 38.1451 33.6829 38.1451 32.1276C36.6152 32.1276 35.1363 32.1276 33.6064 32.1276C33.6064 31.0566 33.6064 30.1132 33.6064 29.0423C35.6973 29.0423 37.7881 28.9913 39.879 29.0678C40.6694 29.0933 41.1539 29.6797 41.1539 30.4702C41.1794 32.4845 41.1539 34.5244 41.1539 36.6152Z" fill="black"/>
<path d="M41.1539 36.6152C40.083 36.6152 39.1395 36.6152 38.1451 36.6152C38.1451 35.1108 38.1451 33.6829 38.1451 32.1276C36.6152 32.1276 35.1363 32.1276 33.6064 32.1276C33.6064 31.0566 33.6064 30.1132 33.6064 29.0423C35.6973 29.0423 37.7881 28.9913 39.879 29.0678C40.6694 29.0933 41.1539 29.6797 41.1539 30.4702C41.1794 32.4845 41.1539 34.5244 41.1539 36.6152Z" fill="url(#paint8_linear_18_653)"/>
<path d="M54.8718 18.384C56.4272 18.3585 57.9826 18.333 59.538 18.333C60.3794 18.333 60.9659 18.843 60.9914 19.6844C61.0679 21.2398 61.0169 22.7952 61.0169 24.3761C59.9969 24.3761 59.0535 24.3761 58.0081 24.3761C58.0081 23.4071 58.0081 22.4382 58.0081 21.4183C56.9627 21.4183 56.0192 21.4183 54.8973 21.4183C54.8973 20.3474 54.8973 19.3529 54.8973 18.3585L54.8718 18.384Z" fill="black"/>
<path d="M54.8718 18.384C56.4272 18.3585 57.9826 18.333 59.538 18.333C60.3794 18.333 60.9659 18.843 60.9914 19.6844C61.0679 21.2398 61.0169 22.7952 61.0169 24.3761C59.9969 24.3761 59.0535 24.3761 58.0081 24.3761C58.0081 23.4071 58.0081 22.4382 58.0081 21.4183C56.9627 21.4183 56.0192 21.4183 54.8973 21.4183C54.8973 20.3474 54.8973 19.3529 54.8973 18.3585L54.8718 18.384Z" fill="url(#paint9_linear_18_653)"/>
<path d="M33.6064 9.20483C34.6264 9.20483 35.5698 9.20483 36.5387 9.20483C36.5387 10.1993 36.5387 11.1172 36.5387 12.1371C35.5953 12.1371 34.6264 12.1371 33.6064 12.1371C33.6064 11.1937 33.6064 10.2503 33.6064 9.20483Z" fill="black"/>
<path d="M33.6064 9.20483C34.6264 9.20483 35.5698 9.20483 36.5387 9.20483C36.5387 10.1993 36.5387 11.1172 36.5387 12.1371C35.5953 12.1371 34.6264 12.1371 33.6064 12.1371C33.6064 11.1937 33.6064 10.2503 33.6064 9.20483Z" fill="url(#paint10_linear_18_653)"/>
<path d="M41.0774 12.188C40.083 12.188 39.1651 12.188 38.1707 12.188C38.1707 11.2191 38.1707 10.2501 38.1707 9.23022C39.1141 9.23022 40.083 9.23022 41.0774 9.23022C41.0774 10.2247 41.0774 11.1936 41.0774 12.188Z" fill="black"/>
<path d="M41.0774 12.188C40.083 12.188 39.1651 12.188 38.1707 12.188C38.1707 11.2191 38.1707 10.2501 38.1707 9.23022C39.1141 9.23022 40.083 9.23022 41.0774 9.23022C41.0774 10.2247 41.0774 11.1936 41.0774 12.188Z" fill="url(#paint11_linear_18_653)"/>
<path d="M51.8886 18.3332C51.8886 17.3643 51.8886 16.3699 51.8886 15.3245C52.9086 15.3245 53.852 15.3245 54.8719 15.3245C54.8719 16.3444 54.8719 17.3643 54.8719 18.3587L54.8974 18.3332C53.8775 18.3077 52.8576 18.3077 51.8376 18.2822L51.8886 18.3332Z" fill="black"/>
<path d="M51.8886 18.3332C51.8886 17.3643 51.8886 16.3699 51.8886 15.3245C52.9086 15.3245 53.852 15.3245 54.8719 15.3245C54.8719 16.3444 54.8719 17.3643 54.8719 18.3587L54.8974 18.3332C53.8775 18.3077 52.8576 18.3077 51.8376 18.2822L51.8886 18.3332Z" fill="url(#paint12_linear_18_653)"/>
<path d="M47.2481 18.4097C47.2481 19.4041 47.2481 20.3475 47.2481 21.3419C46.2536 21.3419 45.2847 21.3419 44.2903 21.3419C44.2903 20.373 44.2903 19.4296 44.2903 18.4097C45.2337 18.4097 46.2026 18.4097 47.2481 18.4097Z" fill="black"/>
<path d="M47.2481 18.4097C47.2481 19.4041 47.2481 20.3475 47.2481 21.3419C46.2536 21.3419 45.2847 21.3419 44.2903 21.3419C44.2903 20.373 44.2903 19.4296 44.2903 18.4097C45.2337 18.4097 46.2026 18.4097 47.2481 18.4097Z" fill="url(#paint13_linear_18_653)"/>
<path d="M51.8632 18.3076C51.8632 19.2765 51.8632 20.271 51.8632 21.3164C50.8687 21.3164 49.8998 21.3164 48.8799 21.3164C48.8799 20.373 48.8799 19.404 48.8799 18.3331C49.8743 18.3331 50.8942 18.3331 51.8887 18.3331C51.8887 18.3331 51.8632 18.3076 51.8632 18.3076Z" fill="black"/>
<path d="M51.8632 18.3076C51.8632 19.2765 51.8632 20.271 51.8632 21.3164C50.8687 21.3164 49.8998 21.3164 48.8799 21.3164C48.8799 20.373 48.8799 19.404 48.8799 18.3331C49.8743 18.3331 50.8942 18.3331 51.8887 18.3331C51.8887 18.3331 51.8632 18.3076 51.8632 18.3076Z" fill="url(#paint14_linear_18_653)"/>
<path d="M41.1794 25.9572C40.2105 25.9572 39.2161 25.9572 38.1707 25.9572C38.1707 24.9372 38.1707 23.9683 38.1707 22.9739C39.1396 22.9739 40.083 22.9739 41.1539 22.9739C41.1539 23.9938 41.1539 24.9882 41.1539 25.9827L41.1794 25.9572Z" fill="black"/>
<path d="M41.1794 25.9572C40.2105 25.9572 39.2161 25.9572 38.1707 25.9572C38.1707 24.9372 38.1707 23.9683 38.1707 22.9739C39.1396 22.9739 40.083 22.9739 41.1539 22.9739C41.1539 23.9938 41.1539 24.9882 41.1539 25.9827L41.1794 25.9572Z" fill="url(#paint15_linear_18_653)"/>
<path d="M41.1538 25.9825C42.1227 25.9825 43.1172 25.9825 44.1626 25.9825C44.1626 26.977 44.1626 27.9459 44.1626 28.9658C43.2192 28.9658 42.2502 28.9658 41.2048 28.9658C41.2048 27.9714 41.2048 26.9515 41.2048 25.957C41.1793 25.957 41.1538 25.9825 41.1538 25.9825Z" fill="black"/>
<path d="M41.1538 25.9825C42.1227 25.9825 43.1172 25.9825 44.1626 25.9825C44.1626 26.977 44.1626 27.9459 44.1626 28.9658C43.2192 28.9658 42.2502 28.9658 41.2048 28.9658C41.2048 27.9714 41.2048 26.9515 41.2048 25.957C41.1793 25.957 41.1538 25.9825 41.1538 25.9825Z" fill="url(#paint16_linear_18_653)"/>
<path d="M36.5133 36.6154C35.4934 36.6154 34.55 36.6154 33.5811 36.6154C33.5811 35.621 33.5811 34.703 33.5811 33.6831C34.5245 33.6831 35.4934 33.6831 36.5133 33.6831C36.5133 34.6265 36.5133 35.5955 36.5133 36.6154Z" fill="black"/>
<path d="M36.5133 36.6154C35.4934 36.6154 34.55 36.6154 33.5811 36.6154C33.5811 35.621 33.5811 34.703 33.5811 33.6831C34.5245 33.6831 35.4934 33.6831 36.5133 33.6831C36.5133 34.6265 36.5133 35.5955 36.5133 36.6154Z" fill="url(#paint17_linear_18_653)"/>
<defs>
<linearGradient id="paint0_linear_18_653" x1="-17.4854" y1="35.1875" x2="80.152" y2="38.9819" gradientUnits="userSpaceOnUse">
<stop stop-color="#37DADA"/>
<stop offset="1" stop-color="#254DB5"/>
</linearGradient>
<linearGradient id="paint1_linear_18_653" x1="22.1957" y1="4.56419" x2="60.0339" y2="5.48769" gradientUnits="userSpaceOnUse">
<stop stop-color="#37DADA"/>
<stop offset="1" stop-color="#254DB5"/>
</linearGradient>
<linearGradient id="paint2_linear_18_653" x1="22.413" y1="-4.10914e-06" x2="33.3855" y2="0.267798" gradientUnits="userSpaceOnUse">
<stop stop-color="#37DADA"/>
<stop offset="1" stop-color="#254DB5"/>
</linearGradient>
<linearGradient id="paint3_linear_18_653" x1="57.5749" y1="-4.10914e-06" x2="68.5474" y2="0.267798" gradientUnits="userSpaceOnUse">
<stop stop-color="#37DADA"/>
<stop offset="1" stop-color="#254DB5"/>
</linearGradient>
<linearGradient id="paint4_linear_18_653" x1="31.8465" y1="13.7627" x2="41.2236" y2="13.9144" gradientUnits="userSpaceOnUse">
<stop stop-color="#37DADA"/>
<stop offset="1" stop-color="#254DB5"/>
</linearGradient>
<linearGradient id="paint5_linear_18_653" x1="40.7958" y1="27.5635" x2="51.7726" y2="27.8771" gradientUnits="userSpaceOnUse">
<stop stop-color="#37DADA"/>
<stop offset="1" stop-color="#254DB5"/>
</linearGradient>
<linearGradient id="paint6_linear_18_653" x1="44.0446" y1="22.9114" x2="53.4763" y2="23.1429" gradientUnits="userSpaceOnUse">
<stop stop-color="#37DADA"/>
<stop offset="1" stop-color="#254DB5"/>
</linearGradient>
<linearGradient id="paint7_linear_18_653" x1="53.8837" y1="27.5889" x2="60.122" y2="27.6901" gradientUnits="userSpaceOnUse">
<stop stop-color="#37DADA"/>
<stop offset="1" stop-color="#254DB5"/>
</linearGradient>
<linearGradient id="paint8_linear_18_653" x1="32.2108" y1="29.0256" x2="40.0112" y2="29.2152" gradientUnits="userSpaceOnUse">
<stop stop-color="#37DADA"/>
<stop offset="1" stop-color="#254DB5"/>
</linearGradient>
<linearGradient id="paint9_linear_18_653" x1="53.7341" y1="18.333" x2="60.0926" y2="18.4912" gradientUnits="userSpaceOnUse">
<stop stop-color="#37DADA"/>
<stop offset="1" stop-color="#254DB5"/>
</linearGradient>
<linearGradient id="paint10_linear_18_653" x1="33.065" y1="9.20483" x2="36.091" y2="9.27869" gradientUnits="userSpaceOnUse">
<stop stop-color="#37DADA"/>
<stop offset="1" stop-color="#254DB5"/>
</linearGradient>
<linearGradient id="paint11_linear_18_653" x1="37.6339" y1="9.23022" x2="40.6337" y2="9.30217" gradientUnits="userSpaceOnUse">
<stop stop-color="#37DADA"/>
<stop offset="1" stop-color="#254DB5"/>
</linearGradient>
<linearGradient id="paint12_linear_18_653" x1="51.2727" y1="15.3245" x2="54.4302" y2="15.4022" gradientUnits="userSpaceOnUse">
<stop stop-color="#37DADA"/>
<stop offset="1" stop-color="#254DB5"/>
</linearGradient>
<linearGradient id="paint13_linear_18_653" x1="43.7442" y1="18.4097" x2="46.7964" y2="18.4848" gradientUnits="userSpaceOnUse">
<stop stop-color="#37DADA"/>
<stop offset="1" stop-color="#254DB5"/>
</linearGradient>
<linearGradient id="paint14_linear_18_653" x1="48.3243" y1="18.3076" x2="51.4293" y2="18.3834" gradientUnits="userSpaceOnUse">
<stop stop-color="#37DADA"/>
<stop offset="1" stop-color="#254DB5"/>
</linearGradient>
<linearGradient id="paint15_linear_18_653" x1="37.6151" y1="22.9739" x2="40.7201" y2="23.0497" gradientUnits="userSpaceOnUse">
<stop stop-color="#37DADA"/>
<stop offset="1" stop-color="#254DB5"/>
</linearGradient>
<linearGradient id="paint16_linear_18_653" x1="40.5983" y1="25.957" x2="43.7032" y2="26.0328" gradientUnits="userSpaceOnUse">
<stop stop-color="#37DADA"/>
<stop offset="1" stop-color="#254DB5"/>
</linearGradient>
<linearGradient id="paint17_linear_18_653" x1="33.0396" y1="33.6831" x2="36.0656" y2="33.757" gradientUnits="userSpaceOnUse">
<stop stop-color="#37DADA"/>
<stop offset="1" stop-color="#254DB5"/>
</linearGradient>
</defs>
</svg>
