<svg width="76" height="91" viewBox="0 0 76 91" fill="none" xmlns="http://www.w3.org/2000/svg">
<path d="M47.8699 19.6906C51.4733 20.6858 53.1501 22.8894 53.0431 26.337C57.1459 27.5099 58.3946 28.8961 58.7871 32.2371C60.5353 33.3034 62.2478 33.9432 63.3895 35.1161C65.2803 36.9998 65.209 39.7011 63.5678 41.9403C60.8564 45.6367 58.1092 49.262 55.3621 52.9229C54.8983 53.5271 54.5058 54.1314 53.8993 54.9844C54.6842 55.0199 55.1837 55.0555 55.6832 55.0555C60.0358 55.0555 64.3527 55.0199 68.7054 55.0555C72.166 55.091 74.8062 57.4724 75.2343 60.8845C75.3056 61.5242 75.3413 62.1995 75.3413 62.8393C75.3413 69.5924 75.3413 76.3455 75.3413 83.0986C75.3413 88.43 72.7726 90.9535 67.4923 90.9535C66.6718 90.9535 65.8155 90.918 64.9949 90.9535C63.996 90.9891 63.104 90.7403 63.104 89.6029C63.104 88.43 64.103 88.2878 65.0663 88.2878C66.1366 88.2878 67.2069 88.3234 68.2772 88.2878C71.1671 88.1812 72.6655 86.6884 72.6655 83.8095C72.6655 76.5943 72.6655 69.3436 72.6655 62.1285C72.6655 59.3917 71.1671 57.7212 68.4199 57.6856C62.997 57.6145 57.6097 57.6501 52.1868 57.6856C51.5446 57.6856 50.8311 58.0411 50.2959 58.432C42.0545 64.4387 32.2789 64.4387 23.9662 58.432C23.3596 57.97 22.4677 57.6856 21.7185 57.6856C17.0091 57.6145 12.3354 57.6501 7.626 57.6501C4.20099 57.6501 2.70255 59.1429 2.70255 62.5194C2.70255 69.4502 2.70255 76.381 2.70255 83.3119C2.70255 86.8661 4.09396 88.2878 7.66168 88.2878C23.8948 88.2878 40.1279 88.2878 56.3967 88.2878C57.0389 88.2878 57.7525 88.1812 58.3233 88.3945C58.7871 88.5722 59.4293 89.1764 59.3936 89.4963C59.3223 89.9939 58.8228 90.5626 58.359 90.8824C58.0379 91.0957 57.4314 90.9535 56.9676 90.9535C40.4847 90.9535 24.0018 90.9535 7.51897 90.9535C2.7739 90.9535 0.0624351 88.3589 0.0267579 83.6317C-0.0089193 76.5232 -0.0089193 69.4147 0.0267579 62.3062C0.0624351 57.6145 2.7739 55.0555 7.55465 55.0555C11.7289 55.0555 15.8674 55.0555 20.006 55.0555C20.0773 54.8778 20.1844 54.7356 20.1487 54.6645C16.0101 49.0843 15.475 42.2601 13.5127 35.898C12.4781 32.557 11.6932 29.1804 10.8369 25.8039C10.0877 22.8894 12.0143 19.193 14.8328 18.0912C16.6523 17.3803 18.3292 17.8779 19.6849 19.655C21.6828 22.3207 23.6451 24.9864 25.6073 27.6521C25.8927 28.0075 26.1781 28.363 26.6063 28.8606C28.9253 25.8039 31.2086 22.8539 33.4563 19.8683C33.5633 19.7261 33.6347 19.5839 33.7774 19.4418C34.4909 18.6598 35.0974 17.2026 36.4175 18.1978C37.8089 19.2285 36.5245 20.1882 35.918 21.0412C33.7774 23.9557 31.5654 26.8346 29.3891 29.678C27.5339 32.1305 25.643 32.1305 23.8234 29.678C21.8612 27.0834 19.9703 24.4177 18.0081 21.8231C16.7237 20.1171 15.6534 20.1171 14.369 21.8231C13.4414 23.0316 13.1916 24.3467 13.5841 25.8394C15.4393 32.7347 17.2232 39.6655 19.1854 46.5252C21.2904 53.9181 26.3209 58.5031 33.8131 59.9248C41.2696 61.311 47.5131 58.7164 52.2225 52.7452C55.2907 48.8355 58.2163 44.7837 61.1775 40.8029C62.4975 39.0258 62.3548 37.2842 60.785 36.1823C59.2152 35.0805 57.7525 35.436 56.3967 37.2486C55.2551 38.777 54.1491 40.3053 52.9717 41.7981C52.4009 42.5445 51.7587 43.5041 50.6527 42.7222C49.5824 41.9403 50.1889 41.0517 50.7597 40.2697C52.2582 38.2794 53.7566 36.289 55.2194 34.2986C56.3967 32.6636 56.254 30.9931 54.8983 29.9268C53.3642 28.7539 51.7944 29.0383 50.4743 30.7799C49.297 32.3437 48.191 33.9787 46.9066 35.436C46.5141 35.898 45.5509 35.8625 44.8373 36.0402C44.8373 35.2938 44.5519 34.4052 44.9087 33.8721C46.3358 31.704 47.9769 29.678 49.5467 27.581C50.7241 25.9816 50.617 24.24 49.2613 23.1737C47.7628 22.0008 46.086 22.2852 44.8016 23.9912C44.0524 24.9864 43.3032 25.9816 42.554 26.9768C42.0188 27.6877 41.4123 28.5407 40.3777 27.7943C39.3074 27.0124 39.8068 26.1238 40.4133 25.3418C44.766 19.5484 49.1186 13.7905 53.4355 7.99705C54.7912 6.18437 54.7199 4.65604 53.2928 3.44759C51.8657 2.27468 50.0819 2.52348 48.7975 4.19399C46.3714 7.35728 44.0167 10.5206 41.5907 13.6839C41.2696 14.1104 41.0199 14.6791 40.5917 14.8923C40.0209 15.1767 39.2717 15.1767 38.5938 15.2833C38.5938 14.608 38.3084 13.7905 38.5938 13.2574C39.129 12.2266 39.9852 11.3381 40.6988 10.3784C42.6967 7.74825 44.6946 5.08255 46.7282 2.4524C48.7975 -0.248841 52.1155 -0.781981 54.7199 1.17286C57.3243 3.09217 57.7881 6.50426 55.8259 9.2055C53.1858 12.6176 50.5813 16.0652 47.8699 19.6906Z" fill="black"/>
<path d="M47.8699 19.6906C51.4733 20.6858 53.1501 22.8894 53.0431 26.337C57.1459 27.5099 58.3946 28.8961 58.7871 32.2371C60.5353 33.3034 62.2478 33.9432 63.3895 35.1161C65.2803 36.9998 65.209 39.7011 63.5678 41.9403C60.8564 45.6367 58.1092 49.262 55.3621 52.9229C54.8983 53.5271 54.5058 54.1314 53.8993 54.9844C54.6842 55.0199 55.1837 55.0555 55.6832 55.0555C60.0358 55.0555 64.3527 55.0199 68.7054 55.0555C72.166 55.091 74.8062 57.4724 75.2343 60.8845C75.3056 61.5242 75.3413 62.1995 75.3413 62.8393C75.3413 69.5924 75.3413 76.3455 75.3413 83.0986C75.3413 88.43 72.7726 90.9535 67.4923 90.9535C66.6718 90.9535 65.8155 90.918 64.9949 90.9535C63.996 90.9891 63.104 90.7403 63.104 89.6029C63.104 88.43 64.103 88.2878 65.0663 88.2878C66.1366 88.2878 67.2069 88.3234 68.2772 88.2878C71.1671 88.1812 72.6655 86.6884 72.6655 83.8095C72.6655 76.5943 72.6655 69.3436 72.6655 62.1285C72.6655 59.3917 71.1671 57.7212 68.4199 57.6856C62.997 57.6145 57.6097 57.6501 52.1868 57.6856C51.5446 57.6856 50.8311 58.0411 50.2959 58.432C42.0545 64.4387 32.2789 64.4387 23.9662 58.432C23.3596 57.97 22.4677 57.6856 21.7185 57.6856C17.0091 57.6145 12.3354 57.6501 7.626 57.6501C4.20099 57.6501 2.70255 59.1429 2.70255 62.5194C2.70255 69.4502 2.70255 76.381 2.70255 83.3119C2.70255 86.8661 4.09396 88.2878 7.66168 88.2878C23.8948 88.2878 40.1279 88.2878 56.3967 88.2878C57.0389 88.2878 57.7525 88.1812 58.3233 88.3945C58.7871 88.5722 59.4293 89.1764 59.3936 89.4963C59.3223 89.9939 58.8228 90.5626 58.359 90.8824C58.0379 91.0957 57.4314 90.9535 56.9676 90.9535C40.4847 90.9535 24.0018 90.9535 7.51897 90.9535C2.7739 90.9535 0.0624351 88.3589 0.0267579 83.6317C-0.0089193 76.5232 -0.0089193 69.4147 0.0267579 62.3062C0.0624351 57.6145 2.7739 55.0555 7.55465 55.0555C11.7289 55.0555 15.8674 55.0555 20.006 55.0555C20.0773 54.8778 20.1844 54.7356 20.1487 54.6645C16.0101 49.0843 15.475 42.2601 13.5127 35.898C12.4781 32.557 11.6932 29.1804 10.8369 25.8039C10.0877 22.8894 12.0143 19.193 14.8328 18.0912C16.6523 17.3803 18.3292 17.8779 19.6849 19.655C21.6828 22.3207 23.6451 24.9864 25.6073 27.6521C25.8927 28.0075 26.1781 28.363 26.6063 28.8606C28.9253 25.8039 31.2086 22.8539 33.4563 19.8683C33.5633 19.7261 33.6347 19.5839 33.7774 19.4418C34.4909 18.6598 35.0974 17.2026 36.4175 18.1978C37.8089 19.2285 36.5245 20.1882 35.918 21.0412C33.7774 23.9557 31.5654 26.8346 29.3891 29.678C27.5339 32.1305 25.643 32.1305 23.8234 29.678C21.8612 27.0834 19.9703 24.4177 18.0081 21.8231C16.7237 20.1171 15.6534 20.1171 14.369 21.8231C13.4414 23.0316 13.1916 24.3467 13.5841 25.8394C15.4393 32.7347 17.2232 39.6655 19.1854 46.5252C21.2904 53.9181 26.3209 58.5031 33.8131 59.9248C41.2696 61.311 47.5131 58.7164 52.2225 52.7452C55.2907 48.8355 58.2163 44.7837 61.1775 40.8029C62.4975 39.0258 62.3548 37.2842 60.785 36.1823C59.2152 35.0805 57.7525 35.436 56.3967 37.2486C55.2551 38.777 54.1491 40.3053 52.9717 41.7981C52.4009 42.5445 51.7587 43.5041 50.6527 42.7222C49.5824 41.9403 50.1889 41.0517 50.7597 40.2697C52.2582 38.2794 53.7566 36.289 55.2194 34.2986C56.3967 32.6636 56.254 30.9931 54.8983 29.9268C53.3642 28.7539 51.7944 29.0383 50.4743 30.7799C49.297 32.3437 48.191 33.9787 46.9066 35.436C46.5141 35.898 45.5509 35.8625 44.8373 36.0402C44.8373 35.2938 44.5519 34.4052 44.9087 33.8721C46.3358 31.704 47.9769 29.678 49.5467 27.581C50.7241 25.9816 50.617 24.24 49.2613 23.1737C47.7628 22.0008 46.086 22.2852 44.8016 23.9912C44.0524 24.9864 43.3032 25.9816 42.554 26.9768C42.0188 27.6877 41.4123 28.5407 40.3777 27.7943C39.3074 27.0124 39.8068 26.1238 40.4133 25.3418C44.766 19.5484 49.1186 13.7905 53.4355 7.99705C54.7912 6.18437 54.7199 4.65604 53.2928 3.44759C51.8657 2.27468 50.0819 2.52348 48.7975 4.19399C46.3714 7.35728 44.0167 10.5206 41.5907 13.6839C41.2696 14.1104 41.0199 14.6791 40.5917 14.8923C40.0209 15.1767 39.2717 15.1767 38.5938 15.2833C38.5938 14.608 38.3084 13.7905 38.5938 13.2574C39.129 12.2266 39.9852 11.3381 40.6988 10.3784C42.6967 7.74825 44.6946 5.08255 46.7282 2.4524C48.7975 -0.248841 52.1155 -0.781981 54.7199 1.17286C57.3243 3.09217 57.7881 6.50426 55.8259 9.2055C53.1858 12.6176 50.5813 16.0652 47.8699 19.6906Z" fill="url(#paint0_linear_18_632)"/>
<path d="M35.8823 79.7932C35.5612 80.113 35.1688 80.7173 34.7406 80.7528C34.3125 80.8239 33.6346 80.4329 33.3136 80.0419C32.7784 79.3666 32.6 77.9805 32.0648 77.8738C30.4594 77.554 28.7469 77.5895 27.1057 77.8028C26.6419 77.8738 26.2138 78.869 25.8927 79.5088C25.4289 80.4685 24.8937 81.2859 23.7877 80.5751C23.3953 80.3263 23.1812 79.2956 23.3596 78.798C24.7867 74.675 26.2851 70.5521 27.8906 66.5002C28.1047 65.9315 28.9253 65.3273 29.5318 65.1851C29.9242 65.114 30.7448 65.7538 30.9589 66.2514C32.6 70.481 34.1341 74.7816 35.7039 79.0468C35.7396 79.2245 35.7753 79.4022 35.8823 79.7932ZM27.5695 74.9238C28.9253 74.9238 30.0313 74.9238 31.3156 74.9238C30.7091 73.3244 30.174 71.8316 29.4604 69.8768C28.7469 71.8316 28.2117 73.2533 27.5695 74.9238Z" fill="black"/>
<path d="M35.8823 79.7932C35.5612 80.113 35.1688 80.7173 34.7406 80.7528C34.3125 80.8239 33.6346 80.4329 33.3136 80.0419C32.7784 79.3666 32.6 77.9805 32.0648 77.8738C30.4594 77.554 28.7469 77.5895 27.1057 77.8028C26.6419 77.8738 26.2138 78.869 25.8927 79.5088C25.4289 80.4685 24.8937 81.2859 23.7877 80.5751C23.3953 80.3263 23.1812 79.2956 23.3596 78.798C24.7867 74.675 26.2851 70.5521 27.8906 66.5002C28.1047 65.9315 28.9253 65.3273 29.5318 65.1851C29.9242 65.114 30.7448 65.7538 30.9589 66.2514C32.6 70.481 34.1341 74.7816 35.7039 79.0468C35.7396 79.2245 35.7753 79.4022 35.8823 79.7932ZM27.5695 74.9238C28.9253 74.9238 30.0313 74.9238 31.3156 74.9238C30.7091 73.3244 30.174 71.8316 29.4604 69.8768C28.7469 71.8316 28.2117 73.2533 27.5695 74.9238Z" fill="url(#paint1_linear_18_632)"/>
<path d="M49.8321 76.9854C49.7965 78.336 48.3694 80.1131 46.3715 80.6463C43.8741 81.3216 41.6264 80.6463 39.8069 78.9402C39.3787 78.5137 39.4501 77.5185 39.3074 76.8077C40.0566 76.8432 40.8058 76.7721 41.5194 76.9499C42.8037 77.2697 44.0168 77.9806 45.2655 78.0872C45.872 78.1228 46.8709 77.1986 47.085 76.5233C47.2277 76.0613 46.4785 75.0661 45.872 74.6751C44.9087 74.0354 43.7313 73.7155 42.6254 73.2534C40.235 72.2227 39.3074 70.6588 39.8425 68.4196C40.2707 66.5003 42.5183 64.8654 44.766 65.1852C46.086 65.363 47.4061 65.8961 48.5478 66.5714C49.0116 66.8557 49.0116 67.8865 49.2256 68.5973C48.5478 68.6329 47.8342 68.8461 47.1564 68.7395C46.086 68.5618 45.0514 68.0287 43.9811 67.9931C43.4816 67.9931 42.6254 68.6684 42.5183 69.2016C42.4113 69.6281 43.0535 70.4456 43.553 70.7299C44.6946 71.3697 45.979 71.7251 47.1207 72.2938C48.7975 73.1113 49.9035 74.3908 49.8321 76.9854Z" fill="black"/>
<path d="M49.8321 76.9854C49.7965 78.336 48.3694 80.1131 46.3715 80.6463C43.8741 81.3216 41.6264 80.6463 39.8069 78.9402C39.3787 78.5137 39.4501 77.5185 39.3074 76.8077C40.0566 76.8432 40.8058 76.7721 41.5194 76.9499C42.8037 77.2697 44.0168 77.9806 45.2655 78.0872C45.872 78.1228 46.8709 77.1986 47.085 76.5233C47.2277 76.0613 46.4785 75.0661 45.872 74.6751C44.9087 74.0354 43.7313 73.7155 42.6254 73.2534C40.235 72.2227 39.3074 70.6588 39.8425 68.4196C40.2707 66.5003 42.5183 64.8654 44.766 65.1852C46.086 65.363 47.4061 65.8961 48.5478 66.5714C49.0116 66.8557 49.0116 67.8865 49.2256 68.5973C48.5478 68.6329 47.8342 68.8461 47.1564 68.7395C46.086 68.5618 45.0514 68.0287 43.9811 67.9931C43.4816 67.9931 42.6254 68.6684 42.5183 69.2016C42.4113 69.6281 43.0535 70.4456 43.553 70.7299C44.6946 71.3697 45.979 71.7251 47.1207 72.2938C48.7975 73.1113 49.9035 74.3908 49.8321 76.9854Z" fill="url(#paint2_linear_18_632)"/>
<path d="M14.4404 78.2294C15.6177 78.2294 16.9021 78.0873 18.0794 78.3005C18.7216 78.4072 19.2211 79.1891 19.7919 79.6511C19.2568 80.0777 18.7573 80.8596 18.1865 80.9307C16.5453 81.1084 14.8685 81.0373 13.1917 80.9662C12.157 80.9307 11.5862 80.3975 11.5862 79.2957C11.6219 75.1372 11.5505 71.0143 11.6575 66.8558C11.6575 66.2871 12.5138 65.363 13.0846 65.2919C14.7971 65.0787 16.5453 65.1142 18.2578 65.2564C18.8287 65.3275 19.2925 66.1094 19.8276 66.5715C19.2925 66.998 18.8287 67.7444 18.2221 67.8154C17.0091 68.0287 15.7604 67.8865 14.369 67.8865C14.369 69.2016 14.369 70.4101 14.369 71.7962C15.582 71.7962 16.7237 71.6541 17.794 71.8673C18.4005 71.9739 18.9 72.6492 19.4352 73.0758C18.9 73.5023 18.4005 73.9643 17.8297 74.3553C17.7227 74.4264 17.4729 74.3553 17.2945 74.3908C13.8338 74.4619 13.7982 74.4619 14.4404 78.2294Z" fill="black"/>
<path d="M14.4404 78.2294C15.6177 78.2294 16.9021 78.0873 18.0794 78.3005C18.7216 78.4072 19.2211 79.1891 19.7919 79.6511C19.2568 80.0777 18.7573 80.8596 18.1865 80.9307C16.5453 81.1084 14.8685 81.0373 13.1917 80.9662C12.157 80.9307 11.5862 80.3975 11.5862 79.2957C11.6219 75.1372 11.5505 71.0143 11.6575 66.8558C11.6575 66.2871 12.5138 65.363 13.0846 65.2919C14.7971 65.0787 16.5453 65.1142 18.2578 65.2564C18.8287 65.3275 19.2925 66.1094 19.8276 66.5715C19.2925 66.998 18.8287 67.7444 18.2221 67.8154C17.0091 68.0287 15.7604 67.8865 14.369 67.8865C14.369 69.2016 14.369 70.4101 14.369 71.7962C15.582 71.7962 16.7237 71.6541 17.794 71.8673C18.4005 71.9739 18.9 72.6492 19.4352 73.0758C18.9 73.5023 18.4005 73.9643 17.8297 74.3553C17.7227 74.4264 17.4729 74.3553 17.2945 74.3908C13.8338 74.4619 13.7982 74.4619 14.4404 78.2294Z" fill="url(#paint3_linear_18_632)"/>
<path d="M58.252 70.4457C59.2509 68.9529 60.1072 67.6378 60.9634 66.2872C61.5343 65.4342 62.3549 64.901 63.1398 65.6119C63.4965 65.9673 63.2825 67.0336 63.2111 67.7444C63.1754 68.0998 62.8187 68.4553 62.5689 68.7752C60.1429 71.583 59.0369 74.8174 59.572 78.5494C59.6434 78.9403 59.6791 79.4735 59.465 79.7578C59.1796 80.1843 58.6087 80.8241 58.252 80.753C57.7525 80.6464 57.3244 80.0422 56.9676 79.5801C56.8249 79.4024 56.8962 79.0114 56.9319 78.7271C57.5384 74.7819 56.3254 71.4409 53.7923 68.4553C53.4712 68.0998 53.0788 67.6733 53.0788 67.2468C53.0431 66.6426 53.2572 66.0028 53.3999 65.3986C54.0421 65.5408 54.8983 65.5052 55.2194 65.8962C56.2897 67.3179 57.146 68.7752 58.252 70.4457Z" fill="black"/>
<path d="M58.252 70.4457C59.2509 68.9529 60.1072 67.6378 60.9634 66.2872C61.5343 65.4342 62.3549 64.901 63.1398 65.6119C63.4965 65.9673 63.2825 67.0336 63.2111 67.7444C63.1754 68.0998 62.8187 68.4553 62.5689 68.7752C60.1429 71.583 59.0369 74.8174 59.572 78.5494C59.6434 78.9403 59.6791 79.4735 59.465 79.7578C59.1796 80.1843 58.6087 80.8241 58.252 80.753C57.7525 80.6464 57.3244 80.0422 56.9676 79.5801C56.8249 79.4024 56.8962 79.0114 56.9319 78.7271C57.5384 74.7819 56.3254 71.4409 53.7923 68.4553C53.4712 68.0998 53.0788 67.6733 53.0788 67.2468C53.0431 66.6426 53.2572 66.0028 53.3999 65.3986C54.0421 65.5408 54.8983 65.5052 55.2194 65.8962C56.2897 67.3179 57.146 68.7752 58.252 70.4457Z" fill="url(#paint4_linear_18_632)"/>
<path d="M29.7459 10.094C29.2821 9.88078 28.9253 9.77415 28.6756 9.5609C27.3198 8.42353 25.8928 7.32171 24.6797 6.07772C24.323 5.7223 24.5013 4.86927 24.4657 4.22951C25.1079 4.19396 25.9284 3.90962 26.3566 4.22951C27.8193 5.2247 29.1751 6.39761 30.4238 7.6416C30.7805 7.99702 30.8519 8.8145 30.7805 9.38319C30.7092 9.59644 30.067 9.84524 29.7459 10.094Z" fill="black"/>
<path d="M29.7459 10.094C29.2821 9.88078 28.9253 9.77415 28.6756 9.5609C27.3198 8.42353 25.8928 7.32171 24.6797 6.07772C24.323 5.7223 24.5013 4.86927 24.4657 4.22951C25.1079 4.19396 25.9284 3.90962 26.3566 4.22951C27.8193 5.2247 29.1751 6.39761 30.4238 7.6416C30.7805 7.99702 30.8519 8.8145 30.7805 9.38319C30.7092 9.59644 30.067 9.84524 29.7459 10.094Z" fill="url(#paint5_linear_18_632)"/>
<path d="M23.4667 14.8924C22.8602 14.3593 22.218 13.8261 21.6115 13.293C22.218 12.7954 22.7888 12.0135 23.4667 11.8713C24.7867 11.587 26.1781 11.5159 27.4982 11.6225C27.9977 11.658 28.4615 12.4044 28.961 12.7954C28.5328 13.2575 28.1404 14.0039 27.6052 14.1105C26.3565 14.3948 25.0365 14.3948 23.7521 14.5015C23.6807 14.6436 23.5737 14.7503 23.4667 14.8924Z" fill="black"/>
<path d="M23.4667 14.8924C22.8602 14.3593 22.218 13.8261 21.6115 13.293C22.218 12.7954 22.7888 12.0135 23.4667 11.8713C24.7867 11.587 26.1781 11.5159 27.4982 11.6225C27.9977 11.658 28.4615 12.4044 28.961 12.7954C28.5328 13.2575 28.1404 14.0039 27.6052 14.1105C26.3565 14.3948 25.0365 14.3948 23.7521 14.5015C23.6807 14.6436 23.5737 14.7503 23.4667 14.8924Z" fill="url(#paint6_linear_18_632)"/>
<path d="M34.8477 5.90008C34.6336 6.14887 34.0985 6.71756 33.599 7.28624C33.0995 6.68201 32.3146 6.11333 32.1362 5.43802C31.8508 4.19403 31.7794 2.84341 31.8865 1.56388C31.9222 1.03074 32.5643 0.497597 32.9211 0C33.4206 0.462054 34.2412 0.853023 34.3839 1.38616C34.705 2.6657 34.6693 3.98077 34.8477 5.90008Z" fill="black"/>
<path d="M34.8477 5.90008C34.6336 6.14887 34.0985 6.71756 33.599 7.28624C33.0995 6.68201 32.3146 6.11333 32.1362 5.43802C31.8508 4.19403 31.7794 2.84341 31.8865 1.56388C31.9222 1.03074 32.5643 0.497597 32.9211 0C33.4206 0.462054 34.2412 0.853023 34.3839 1.38616C34.705 2.6657 34.6693 3.98077 34.8477 5.90008Z" fill="url(#paint7_linear_18_632)"/>
<defs>
<linearGradient id="paint0_linear_18_632" x1="-13.9111" y1="0.000697254" x2="63.8529" y2="1.57207" gradientUnits="userSpaceOnUse">
<stop stop-color="#37DADA"/>
<stop offset="1" stop-color="#254DB5"/>
</linearGradient>
<linearGradient id="paint1_linear_18_632" x1="20.9721" y1="65.1797" x2="33.9634" y2="65.4344" gradientUnits="userSpaceOnUse">
<stop stop-color="#37DADA"/>
<stop offset="1" stop-color="#254DB5"/>
</linearGradient>
<linearGradient id="paint2_linear_18_632" x1="37.3635" y1="65.145" x2="48.2316" y2="65.3222" gradientUnits="userSpaceOnUse">
<stop stop-color="#37DADA"/>
<stop offset="1" stop-color="#254DB5"/>
</linearGradient>
<linearGradient id="paint3_linear_18_632" x1="10.0645" y1="65.1409" x2="18.573" y2="65.2485" gradientUnits="userSpaceOnUse">
<stop stop-color="#37DADA"/>
<stop offset="1" stop-color="#254DB5"/>
</linearGradient>
<linearGradient id="paint4_linear_18_632" x1="51.1794" y1="65.2812" x2="61.7763" y2="65.4528" gradientUnits="userSpaceOnUse">
<stop stop-color="#37DADA"/>
<stop offset="1" stop-color="#254DB5"/>
</linearGradient>
<linearGradient id="paint5_linear_18_632" x1="23.2788" y1="4.0791" x2="29.8349" y2="4.24812" gradientUnits="userSpaceOnUse">
<stop stop-color="#37DADA"/>
<stop offset="1" stop-color="#254DB5"/>
</linearGradient>
<linearGradient id="paint6_linear_18_632" x1="20.2544" y1="11.5754" x2="27.8212" y2="11.9846" gradientUnits="userSpaceOnUse">
<stop stop-color="#37DADA"/>
<stop offset="1" stop-color="#254DB5"/>
</linearGradient>
<linearGradient id="paint7_linear_18_632" x1="31.2838" y1="-2.81585e-06" x2="34.3899" y2="0.0312988" gradientUnits="userSpaceOnUse">
<stop stop-color="#37DADA"/>
<stop offset="1" stop-color="#254DB5"/>
</linearGradient>
</defs>
</svg>
