<svg width="102" height="91" viewBox="0 0 102 91" fill="none" xmlns="http://www.w3.org/2000/svg">
<path d="M19.3167 3.35114C19.3666 3.10157 19.3666 3.00174 19.3666 2.90191C19.2169 0.106732 20.1153 -0.0430101 22.2616 0.00690383C24.7074 0.0568178 27.1532 0.00690383 29.599 0.00690383C31.4458 0.00690383 31.895 0.456129 31.9449 2.30294C31.9449 2.60243 31.9449 2.90191 31.9449 3.25131C32.2943 3.25131 32.5439 3.30122 32.8434 3.30122C34.2909 3.35114 35.3391 4.04993 35.8382 5.39761C36.0379 5.99658 36.3373 6.0964 36.8864 6.0964C38.833 6.0964 40.8296 6.0964 42.7762 6.0964C44.4733 6.0964 45.0224 6.59554 45.0224 8.29262C45.0224 15.2307 45.0224 22.1687 45.0224 29.1067C45.0224 29.506 45.0224 29.9053 45.0224 30.4544C45.5215 30.4544 45.9208 30.4544 46.3201 30.4544C52.0602 30.4544 57.7504 30.4045 63.4905 30.4045C69.9793 30.4045 76.5181 30.4544 83.0069 30.4544C84.8038 30.4544 85.253 30.9535 85.253 32.7504C85.253 41.0362 85.253 49.3718 85.253 57.6575C85.253 58.1067 85.253 58.5559 85.253 59.1549C86.6007 59.1549 87.8485 59.1549 89.1463 59.1549C92.6403 59.1549 96.0843 59.1549 99.5783 59.1549C101.126 59.1549 101.675 59.704 101.675 61.3012C101.675 70.4854 101.675 79.7195 101.675 88.9036C101.675 90.5009 101.176 91 99.5783 91C67.0843 91 34.5904 91 2.09639 91C0.499139 91 0 90.5009 0 88.9036C0 79.7195 0 70.4854 0 61.3012C0 59.704 0.549053 59.1549 2.09639 59.1549C6.4389 59.1549 10.7814 59.1549 15.1239 59.1549C15.5232 59.1549 15.8726 59.1549 16.3219 59.1549C16.3219 57.3081 16.3219 55.5611 16.3219 53.7143C13.8262 53.7143 11.3804 53.7143 8.93459 53.7143C6.78829 53.7143 6.38898 53.315 6.38898 51.1687C6.38898 36.9432 6.38898 22.7677 6.38898 8.54219C6.38898 6.49572 6.78829 6.0964 8.88468 6.0964C10.7315 6.0964 12.5284 6.0964 14.3752 6.0964C14.9742 6.0964 15.3236 5.99658 15.5731 5.29778C16.0224 4.00002 17.0706 3.30122 18.5181 3.25131C18.7177 3.35114 19.0172 3.35114 19.3167 3.35114ZM41.6282 50.5198C41.6282 36.7436 41.6282 23.0671 41.6282 9.44064C39.7315 9.44064 37.9346 9.44064 35.9879 9.44064C35.9879 10.2393 35.9879 10.988 35.9879 11.7866C35.9879 13.3838 35.4389 13.9329 33.8916 13.9329C28.401 13.9329 22.8606 13.9329 17.3701 13.9329C15.8227 13.9329 15.2737 13.3339 15.2737 11.7866C15.2737 11.0379 15.2737 10.2393 15.2737 9.49055C13.2771 9.49055 11.4802 9.49055 9.6833 9.49055C9.6833 23.2169 9.6833 36.8933 9.6833 50.5697C20.3649 50.5198 30.9966 50.5198 41.6282 50.5198ZM12.1291 62.5491C9.08434 62.5491 6.18933 62.5491 3.24441 62.5491C3.24441 71.0344 3.24441 79.4699 3.24441 87.9053C13.1274 87.9053 22.9105 87.9053 32.7435 87.9053C32.7435 79.42 32.7435 71.0344 32.7435 62.599C29.7986 62.599 26.8537 62.599 23.8589 62.599C23.8589 63.8967 23.8589 65.0947 23.8589 66.3425C23.9088 71.3838 24.0585 71.0344 19.2169 71.0344C17.6196 71.0344 15.9725 71.0344 14.3752 71.0344C12.5783 71.0344 12.1291 70.5852 12.1291 68.7883C12.1291 66.6919 12.1291 64.6454 12.1291 62.5491ZM68.8313 87.9053C78.7143 87.9053 88.5473 87.9053 98.3305 87.9053C98.3305 79.42 98.3305 70.9845 98.3305 62.5491C95.3356 62.5491 92.4406 62.5491 89.4458 62.5491C89.4458 64.5456 89.4458 66.4923 89.4458 68.389C89.4458 70.6351 89.0964 70.9845 86.9002 70.9845C85.0034 70.9845 83.1067 70.9845 81.21 70.9845C77.716 70.9845 77.716 70.9346 77.716 67.4905C77.716 65.8434 77.716 64.1962 77.716 62.599C74.6712 62.599 71.7263 62.599 68.8313 62.599C68.8313 71.0344 68.8313 79.42 68.8313 87.9053ZM52.5095 33.7986C52.5095 42.3339 52.5095 50.7694 52.5095 59.1549C62.3924 59.1549 72.1755 59.1549 81.9587 59.1549C81.9587 50.6695 81.9587 42.2341 81.9587 33.8486C78.9638 33.8486 76.0688 33.8486 73.074 33.8486C73.074 36.0947 73.074 38.241 73.074 40.4372C73.074 41.6351 72.5249 42.284 71.4768 42.3339C68.6317 42.3838 65.7366 42.3838 62.8916 42.3339C61.9432 42.3339 61.3941 41.7349 61.3442 40.7866C61.3442 40.3873 61.3442 40.0379 61.3442 39.6386C61.3442 37.7418 61.3442 35.7952 61.3442 33.8486C58.3494 33.7986 55.4544 33.7986 52.5095 33.7986ZM65.4871 87.9053C65.4871 79.42 65.4871 71.0344 65.4871 62.5491C62.5422 62.5491 59.6472 62.5491 56.6523 62.5491C56.6523 62.9484 56.6523 63.3477 56.6523 63.6971C56.6523 65.4441 56.6523 67.191 56.6523 68.988C56.6523 70.4355 56.1033 70.9845 54.6558 70.9845C52.5095 70.9845 50.3632 70.9845 48.2668 70.9845C45.0224 70.9845 44.9725 70.9346 44.9725 67.6902C44.9725 65.9931 44.9725 64.2461 44.9725 62.5491C41.9277 62.5491 39.0826 62.5491 36.1377 62.5491C36.1377 71.0344 36.1377 79.42 36.1377 87.8554C45.9208 87.9053 55.654 87.9053 65.4871 87.9053ZM19.6162 59.1549C29.4991 59.1549 39.3322 59.1549 49.1153 59.1549C49.1153 50.6695 49.1153 42.2341 49.1153 33.7986C47.7177 33.7986 46.37 33.7986 44.9725 33.7986C44.9725 34.2978 44.9725 34.6971 44.9725 35.0964C44.9725 40.4871 44.9725 45.9277 44.9725 51.3184C44.9725 53.2651 44.5232 53.7143 42.5267 53.7143C35.2892 53.7143 28.0516 53.7143 20.8141 53.7143C20.4148 53.7143 20.0155 53.7143 19.6162 53.7143C19.6162 55.6609 19.6162 57.358 19.6162 59.1549ZM32.3442 6.4458C32.2444 6.49571 32.1446 6.59554 32.0447 6.64546C31.7453 8.49227 31.4458 8.74184 29.549 8.74184C26.9535 8.74184 24.4079 8.74184 21.8124 8.74184C19.9157 8.74184 19.5663 8.44236 19.2668 6.34597C18.9174 6.64546 18.568 6.7952 18.5181 6.99485C18.4682 8.19279 18.4682 9.39072 18.4682 10.5387C23.3098 10.5387 28.0017 10.5387 32.7935 10.5387C32.7935 9.34081 32.8434 8.19279 32.7935 7.09468C32.7935 6.89503 32.494 6.69537 32.3442 6.4458ZM64.6385 33.7986C64.6385 35.6455 64.6385 37.3425 64.6385 39.0895C66.4354 39.0895 68.0826 39.0895 69.8296 39.0895C69.8296 37.2926 69.8296 35.5955 69.8296 33.7986C68.0327 33.7986 66.3855 33.7986 64.6385 33.7986ZM20.5645 62.599C18.7177 62.599 17.0207 62.599 15.3236 62.599C15.3236 64.346 15.3236 66.043 15.3236 67.7401C17.1205 67.7401 18.8176 67.7401 20.5645 67.7401C20.5645 65.9931 20.5645 64.2961 20.5645 62.599ZM48.1669 67.6902C49.9638 67.6902 51.7108 67.6902 53.4578 67.6902C53.4578 65.9432 53.4578 64.2961 53.4578 62.5491C51.6609 62.5491 49.9638 62.5491 48.1669 62.5491C48.1669 64.2961 48.1669 65.9432 48.1669 67.6902ZM81.0103 62.5491C81.0103 64.346 81.0103 65.9931 81.0103 67.7401C82.7573 67.7401 84.4544 67.7401 86.2513 67.7401C86.2513 65.9931 86.2513 64.2961 86.2513 62.5491C84.5043 62.5491 82.8072 62.5491 81.0103 62.5491ZM28.6506 3.25131C26.6041 3.25131 24.6575 3.25131 22.6609 3.25131C22.6609 4.04993 22.6609 4.79864 22.6609 5.54735C24.7074 5.54735 26.654 5.54735 28.6506 5.54735C28.6506 4.74873 28.6506 4.00002 28.6506 3.25131Z" fill="black"/>
<path d="M19.3167 3.35114C19.3666 3.10157 19.3666 3.00174 19.3666 2.90191C19.2169 0.106732 20.1153 -0.0430101 22.2616 0.00690383C24.7074 0.0568178 27.1532 0.00690383 29.599 0.00690383C31.4458 0.00690383 31.895 0.456129 31.9449 2.30294C31.9449 2.60243 31.9449 2.90191 31.9449 3.25131C32.2943 3.25131 32.5439 3.30122 32.8434 3.30122C34.2909 3.35114 35.3391 4.04993 35.8382 5.39761C36.0379 5.99658 36.3373 6.0964 36.8864 6.0964C38.833 6.0964 40.8296 6.0964 42.7762 6.0964C44.4733 6.0964 45.0224 6.59554 45.0224 8.29262C45.0224 15.2307 45.0224 22.1687 45.0224 29.1067C45.0224 29.506 45.0224 29.9053 45.0224 30.4544C45.5215 30.4544 45.9208 30.4544 46.3201 30.4544C52.0602 30.4544 57.7504 30.4045 63.4905 30.4045C69.9793 30.4045 76.5181 30.4544 83.0069 30.4544C84.8038 30.4544 85.253 30.9535 85.253 32.7504C85.253 41.0362 85.253 49.3718 85.253 57.6575C85.253 58.1067 85.253 58.5559 85.253 59.1549C86.6007 59.1549 87.8485 59.1549 89.1463 59.1549C92.6403 59.1549 96.0843 59.1549 99.5783 59.1549C101.126 59.1549 101.675 59.704 101.675 61.3012C101.675 70.4854 101.675 79.7195 101.675 88.9036C101.675 90.5009 101.176 91 99.5783 91C67.0843 91 34.5904 91 2.09639 91C0.499139 91 0 90.5009 0 88.9036C0 79.7195 0 70.4854 0 61.3012C0 59.704 0.549053 59.1549 2.09639 59.1549C6.4389 59.1549 10.7814 59.1549 15.1239 59.1549C15.5232 59.1549 15.8726 59.1549 16.3219 59.1549C16.3219 57.3081 16.3219 55.5611 16.3219 53.7143C13.8262 53.7143 11.3804 53.7143 8.93459 53.7143C6.78829 53.7143 6.38898 53.315 6.38898 51.1687C6.38898 36.9432 6.38898 22.7677 6.38898 8.54219C6.38898 6.49572 6.78829 6.0964 8.88468 6.0964C10.7315 6.0964 12.5284 6.0964 14.3752 6.0964C14.9742 6.0964 15.3236 5.99658 15.5731 5.29778C16.0224 4.00002 17.0706 3.30122 18.5181 3.25131C18.7177 3.35114 19.0172 3.35114 19.3167 3.35114ZM41.6282 50.5198C41.6282 36.7436 41.6282 23.0671 41.6282 9.44064C39.7315 9.44064 37.9346 9.44064 35.9879 9.44064C35.9879 10.2393 35.9879 10.988 35.9879 11.7866C35.9879 13.3838 35.4389 13.9329 33.8916 13.9329C28.401 13.9329 22.8606 13.9329 17.3701 13.9329C15.8227 13.9329 15.2737 13.3339 15.2737 11.7866C15.2737 11.0379 15.2737 10.2393 15.2737 9.49055C13.2771 9.49055 11.4802 9.49055 9.6833 9.49055C9.6833 23.2169 9.6833 36.8933 9.6833 50.5697C20.3649 50.5198 30.9966 50.5198 41.6282 50.5198ZM12.1291 62.5491C9.08434 62.5491 6.18933 62.5491 3.24441 62.5491C3.24441 71.0344 3.24441 79.4699 3.24441 87.9053C13.1274 87.9053 22.9105 87.9053 32.7435 87.9053C32.7435 79.42 32.7435 71.0344 32.7435 62.599C29.7986 62.599 26.8537 62.599 23.8589 62.599C23.8589 63.8967 23.8589 65.0947 23.8589 66.3425C23.9088 71.3838 24.0585 71.0344 19.2169 71.0344C17.6196 71.0344 15.9725 71.0344 14.3752 71.0344C12.5783 71.0344 12.1291 70.5852 12.1291 68.7883C12.1291 66.6919 12.1291 64.6454 12.1291 62.5491ZM68.8313 87.9053C78.7143 87.9053 88.5473 87.9053 98.3305 87.9053C98.3305 79.42 98.3305 70.9845 98.3305 62.5491C95.3356 62.5491 92.4406 62.5491 89.4458 62.5491C89.4458 64.5456 89.4458 66.4923 89.4458 68.389C89.4458 70.6351 89.0964 70.9845 86.9002 70.9845C85.0034 70.9845 83.1067 70.9845 81.21 70.9845C77.716 70.9845 77.716 70.9346 77.716 67.4905C77.716 65.8434 77.716 64.1962 77.716 62.599C74.6712 62.599 71.7263 62.599 68.8313 62.599C68.8313 71.0344 68.8313 79.42 68.8313 87.9053ZM52.5095 33.7986C52.5095 42.3339 52.5095 50.7694 52.5095 59.1549C62.3924 59.1549 72.1755 59.1549 81.9587 59.1549C81.9587 50.6695 81.9587 42.2341 81.9587 33.8486C78.9638 33.8486 76.0688 33.8486 73.074 33.8486C73.074 36.0947 73.074 38.241 73.074 40.4372C73.074 41.6351 72.5249 42.284 71.4768 42.3339C68.6317 42.3838 65.7366 42.3838 62.8916 42.3339C61.9432 42.3339 61.3941 41.7349 61.3442 40.7866C61.3442 40.3873 61.3442 40.0379 61.3442 39.6386C61.3442 37.7418 61.3442 35.7952 61.3442 33.8486C58.3494 33.7986 55.4544 33.7986 52.5095 33.7986ZM65.4871 87.9053C65.4871 79.42 65.4871 71.0344 65.4871 62.5491C62.5422 62.5491 59.6472 62.5491 56.6523 62.5491C56.6523 62.9484 56.6523 63.3477 56.6523 63.6971C56.6523 65.4441 56.6523 67.191 56.6523 68.988C56.6523 70.4355 56.1033 70.9845 54.6558 70.9845C52.5095 70.9845 50.3632 70.9845 48.2668 70.9845C45.0224 70.9845 44.9725 70.9346 44.9725 67.6902C44.9725 65.9931 44.9725 64.2461 44.9725 62.5491C41.9277 62.5491 39.0826 62.5491 36.1377 62.5491C36.1377 71.0344 36.1377 79.42 36.1377 87.8554C45.9208 87.9053 55.654 87.9053 65.4871 87.9053ZM19.6162 59.1549C29.4991 59.1549 39.3322 59.1549 49.1153 59.1549C49.1153 50.6695 49.1153 42.2341 49.1153 33.7986C47.7177 33.7986 46.37 33.7986 44.9725 33.7986C44.9725 34.2978 44.9725 34.6971 44.9725 35.0964C44.9725 40.4871 44.9725 45.9277 44.9725 51.3184C44.9725 53.2651 44.5232 53.7143 42.5267 53.7143C35.2892 53.7143 28.0516 53.7143 20.8141 53.7143C20.4148 53.7143 20.0155 53.7143 19.6162 53.7143C19.6162 55.6609 19.6162 57.358 19.6162 59.1549ZM32.3442 6.4458C32.2444 6.49571 32.1446 6.59554 32.0447 6.64546C31.7453 8.49227 31.4458 8.74184 29.549 8.74184C26.9535 8.74184 24.4079 8.74184 21.8124 8.74184C19.9157 8.74184 19.5663 8.44236 19.2668 6.34597C18.9174 6.64546 18.568 6.7952 18.5181 6.99485C18.4682 8.19279 18.4682 9.39072 18.4682 10.5387C23.3098 10.5387 28.0017 10.5387 32.7935 10.5387C32.7935 9.34081 32.8434 8.19279 32.7935 7.09468C32.7935 6.89503 32.494 6.69537 32.3442 6.4458ZM64.6385 33.7986C64.6385 35.6455 64.6385 37.3425 64.6385 39.0895C66.4354 39.0895 68.0826 39.0895 69.8296 39.0895C69.8296 37.2926 69.8296 35.5955 69.8296 33.7986C68.0327 33.7986 66.3855 33.7986 64.6385 33.7986ZM20.5645 62.599C18.7177 62.599 17.0207 62.599 15.3236 62.599C15.3236 64.346 15.3236 66.043 15.3236 67.7401C17.1205 67.7401 18.8176 67.7401 20.5645 67.7401C20.5645 65.9931 20.5645 64.2961 20.5645 62.599ZM48.1669 67.6902C49.9638 67.6902 51.7108 67.6902 53.4578 67.6902C53.4578 65.9432 53.4578 64.2961 53.4578 62.5491C51.6609 62.5491 49.9638 62.5491 48.1669 62.5491C48.1669 64.2961 48.1669 65.9432 48.1669 67.6902ZM81.0103 62.5491C81.0103 64.346 81.0103 65.9931 81.0103 67.7401C82.7573 67.7401 84.4544 67.7401 86.2513 67.7401C86.2513 65.9931 86.2513 64.2961 86.2513 62.5491C84.5043 62.5491 82.8072 62.5491 81.0103 62.5491ZM28.6506 3.25131C26.6041 3.25131 24.6575 3.25131 22.6609 3.25131C22.6609 4.04993 22.6609 4.79864 22.6609 5.54735C24.7074 5.54735 26.654 5.54735 28.6506 5.54735C28.6506 4.74873 28.6506 4.00002 28.6506 3.25131Z" fill="url(#paint0_linear_6_602)"/>
<path d="M29.8983 38.7401C27.8019 38.7401 25.7055 38.7401 23.6091 38.7401C22.4611 38.7401 21.7124 38.0913 21.7124 37.1429C21.7124 36.1945 22.4611 35.5457 23.6091 35.5457C27.8518 35.5457 32.0945 35.5457 36.2873 35.5457C37.4353 35.5457 38.184 36.2445 38.1341 37.1928C38.0842 38.1412 37.3854 38.7401 36.1874 38.7401C34.0911 38.7401 31.9947 38.7401 29.8983 38.7401Z" fill="black"/>
<path d="M29.8983 38.7401C27.8019 38.7401 25.7055 38.7401 23.6091 38.7401C22.4611 38.7401 21.7124 38.0913 21.7124 37.1429C21.7124 36.1945 22.4611 35.5457 23.6091 35.5457C27.8518 35.5457 32.0945 35.5457 36.2873 35.5457C37.4353 35.5457 38.184 36.2445 38.1341 37.1928C38.0842 38.1412 37.3854 38.7401 36.1874 38.7401C34.0911 38.7401 31.9947 38.7401 29.8983 38.7401Z" fill="url(#paint1_linear_6_602)"/>
<path d="M29.8983 26.9604C31.9947 26.9604 34.0911 26.9604 36.1874 26.9604C37.3854 26.9604 38.0842 27.5594 38.1341 28.5078C38.184 29.4561 37.3854 30.1549 36.1874 30.1549C31.9947 30.1549 27.8019 30.1549 23.6091 30.1549C22.4611 30.1549 21.7124 29.5061 21.7124 28.5577C21.7124 27.6093 22.4611 26.9604 23.6091 26.9604C25.7055 26.9604 27.8019 26.9604 29.8983 26.9604Z" fill="black"/>
<path d="M29.8983 26.9604C31.9947 26.9604 34.0911 26.9604 36.1874 26.9604C37.3854 26.9604 38.0842 27.5594 38.1341 28.5078C38.184 29.4561 37.3854 30.1549 36.1874 30.1549C31.9947 30.1549 27.8019 30.1549 23.6091 30.1549C22.4611 30.1549 21.7124 29.5061 21.7124 28.5577C21.7124 27.6093 22.4611 26.9604 23.6091 26.9604C25.7055 26.9604 27.8019 26.9604 29.8983 26.9604Z" fill="url(#paint2_linear_6_602)"/>
<path d="M29.8983 44.0809C31.9947 44.0809 34.0911 44.0809 36.1874 44.0809C37.4353 44.0809 38.184 44.7298 38.1341 45.6782C38.0842 46.6265 37.3854 47.2255 36.1874 47.2255C31.9947 47.2255 27.8019 47.2255 23.6091 47.2255C22.4112 47.2255 21.7124 46.5766 21.7124 45.6283C21.7124 44.6799 22.4112 44.0809 23.6091 44.031C25.7055 44.0809 27.8019 44.0809 29.8983 44.0809Z" fill="black"/>
<path d="M29.8983 44.0809C31.9947 44.0809 34.0911 44.0809 36.1874 44.0809C37.4353 44.0809 38.184 44.7298 38.1341 45.6782C38.0842 46.6265 37.3854 47.2255 36.1874 47.2255C31.9947 47.2255 27.8019 47.2255 23.6091 47.2255C22.4112 47.2255 21.7124 46.5766 21.7124 45.6283C21.7124 44.6799 22.4112 44.0809 23.6091 44.031C25.7055 44.0809 27.8019 44.0809 29.8983 44.0809Z" fill="url(#paint3_linear_6_602)"/>
<path d="M29.8983 21.5696C27.8019 21.5696 25.7055 21.5696 23.6091 21.5696C22.4112 21.5696 21.7124 20.9707 21.7124 20.0223C21.7124 19.0739 22.4112 18.425 23.6091 18.425C27.8518 18.425 32.0945 18.425 36.2873 18.425C37.4353 18.425 38.184 19.0739 38.1341 20.0223C38.0842 20.9207 37.3854 21.5197 36.2873 21.5696C34.1909 21.6195 32.0446 21.5696 29.8983 21.5696Z" fill="black"/>
<path d="M29.8983 21.5696C27.8019 21.5696 25.7055 21.5696 23.6091 21.5696C22.4112 21.5696 21.7124 20.9707 21.7124 20.0223C21.7124 19.0739 22.4112 18.425 23.6091 18.425C27.8518 18.425 32.0945 18.425 36.2873 18.425C37.4353 18.425 38.184 19.0739 38.1341 20.0223C38.0842 20.9207 37.3854 21.5197 36.2873 21.5696C34.1909 21.6195 32.0446 21.5696 29.8983 21.5696Z" fill="url(#paint4_linear_6_602)"/>
<path d="M16.122 35.4457C16.4714 34.9965 16.8707 34.4973 17.3699 34.0481C18.0687 33.3992 18.9671 33.4492 19.5661 34.098C20.1151 34.697 20.215 35.5954 19.616 36.2443C18.7675 37.1927 17.8191 38.0412 16.9206 38.9397C16.9206 38.9397 16.8707 38.9896 16.8208 38.9896C16.0222 39.4887 15.2735 39.4388 14.6745 38.7899C13.9258 37.9913 12.7279 37.3923 13.3768 35.9448C13.7761 35.0963 14.5747 34.8967 16.122 35.4457Z" fill="black"/>
<path d="M16.122 35.4457C16.4714 34.9965 16.8707 34.4973 17.3699 34.0481C18.0687 33.3992 18.9671 33.4492 19.5661 34.098C20.1151 34.697 20.215 35.5954 19.616 36.2443C18.7675 37.1927 17.8191 38.0412 16.9206 38.9397C16.9206 38.9397 16.8707 38.9896 16.8208 38.9896C16.0222 39.4887 15.2735 39.4388 14.6745 38.7899C13.9258 37.9913 12.7279 37.3923 13.3768 35.9448C13.7761 35.0963 14.5747 34.8967 16.122 35.4457Z" fill="url(#paint5_linear_6_602)"/>
<path d="M16.072 26.9606C16.4214 26.5113 16.8208 26.0122 17.27 25.563C18.0187 24.8642 18.9171 24.8642 19.566 25.5131C20.165 26.112 20.2149 27.0604 19.566 27.7592C18.7674 28.6576 17.8689 29.5062 17.0204 30.3048C16.3216 30.9537 15.523 30.9537 14.8242 30.3048C14.4249 29.9554 14.0755 29.606 13.7261 29.2067C13.177 28.6077 13.0273 27.9089 13.5264 27.2101C14.0256 26.5113 14.6745 26.3117 15.523 26.6112C15.5729 26.7609 15.7226 26.8108 16.072 26.9606Z" fill="black"/>
<path d="M16.072 26.9606C16.4214 26.5113 16.8208 26.0122 17.27 25.563C18.0187 24.8642 18.9171 24.8642 19.566 25.5131C20.165 26.112 20.2149 27.0604 19.566 27.7592C18.7674 28.6576 17.8689 29.5062 17.0204 30.3048C16.3216 30.9537 15.523 30.9537 14.8242 30.3048C14.4249 29.9554 14.0755 29.606 13.7261 29.2067C13.177 28.6077 13.0273 27.9089 13.5264 27.2101C14.0256 26.5113 14.6745 26.3117 15.523 26.6112C15.5729 26.7609 15.7226 26.8108 16.072 26.9606Z" fill="url(#paint6_linear_6_602)"/>
<path d="M14.6247 17.7763C16.0223 18.8245 16.5714 17.6265 17.2701 16.9776C18.0189 16.3787 18.9173 16.3288 19.5163 16.9277C20.1652 17.5267 20.1652 18.525 19.4664 19.2238C18.6677 20.0723 17.8192 20.9208 16.9707 21.7195C16.2719 22.3684 15.4233 22.3684 14.7245 21.7694C14.2753 21.3701 13.7762 21.0207 13.5266 20.5215C13.277 20.0723 13.1772 19.3735 13.3269 18.9243C13.5765 18.4751 14.1755 18.1756 14.6247 17.7763Z" fill="black"/>
<path d="M14.6247 17.7763C16.0223 18.8245 16.5714 17.6265 17.2701 16.9776C18.0189 16.3787 18.9173 16.3288 19.5163 16.9277C20.1652 17.5267 20.1652 18.525 19.4664 19.2238C18.6677 20.0723 17.8192 20.9208 16.9707 21.7195C16.2719 22.3684 15.4233 22.3684 14.7245 21.7694C14.2753 21.3701 13.7762 21.0207 13.5266 20.5215C13.277 20.0723 13.1772 19.3735 13.3269 18.9243C13.5765 18.4751 14.1755 18.1756 14.6247 17.7763Z" fill="url(#paint7_linear_6_602)"/>
<path d="M19.9654 43.4321C19.9654 44.7798 16.8208 47.9244 15.8225 47.8744C14.8243 47.8744 13.1272 46.1774 13.1272 45.229C13.1272 44.1808 14.0756 43.3822 15.1238 43.7316C15.8225 43.9812 16.1719 43.7316 16.6212 43.2824C16.9207 42.9829 17.1702 42.5836 17.5196 42.4837C18.0188 42.334 18.6676 42.2342 19.1668 42.4338C19.616 42.6335 19.8157 43.2325 19.9654 43.4321Z" fill="black"/>
<path d="M19.9654 43.4321C19.9654 44.7798 16.8208 47.9244 15.8225 47.8744C14.8243 47.8744 13.1272 46.1774 13.1272 45.229C13.1272 44.1808 14.0756 43.3822 15.1238 43.7316C15.8225 43.9812 16.1719 43.7316 16.6212 43.2824C16.9207 42.9829 17.1702 42.5836 17.5196 42.4837C18.0188 42.334 18.6676 42.2342 19.1668 42.4338C19.616 42.6335 19.8157 43.2325 19.9654 43.4321Z" fill="url(#paint8_linear_6_602)"/>
<defs>
<linearGradient id="paint0_linear_6_602" x1="-18.7733" y1="-3.5168e-05" x2="86.1356" y2="2.86078" gradientUnits="userSpaceOnUse">
<stop stop-color="#37DADA"/>
<stop offset="1" stop-color="#254DB5"/>
</linearGradient>
<linearGradient id="paint1_linear_6_602" x1="18.6799" y1="35.5457" x2="35.376" y2="37.6407" gradientUnits="userSpaceOnUse">
<stop stop-color="#37DADA"/>
<stop offset="1" stop-color="#254DB5"/>
</linearGradient>
<linearGradient id="paint2_linear_6_602" x1="18.6799" y1="26.9604" x2="35.3759" y2="29.0555" gradientUnits="userSpaceOnUse">
<stop stop-color="#37DADA"/>
<stop offset="1" stop-color="#254DB5"/>
</linearGradient>
<linearGradient id="paint3_linear_6_602" x1="18.6799" y1="44.031" x2="35.376" y2="46.1261" gradientUnits="userSpaceOnUse">
<stop stop-color="#37DADA"/>
<stop offset="1" stop-color="#254DB5"/>
</linearGradient>
<linearGradient id="paint4_linear_6_602" x1="18.6799" y1="18.425" x2="35.3715" y2="20.5379" gradientUnits="userSpaceOnUse">
<stop stop-color="#37DADA"/>
<stop offset="1" stop-color="#254DB5"/>
</linearGradient>
<linearGradient id="paint5_linear_6_602" x1="11.9291" y1="33.5857" x2="18.9784" y2="33.7905" gradientUnits="userSpaceOnUse">
<stop stop-color="#37DADA"/>
<stop offset="1" stop-color="#254DB5"/>
</linearGradient>
<linearGradient id="paint6_linear_6_602" x1="11.9647" y1="25.0325" x2="18.9925" y2="25.2353" gradientUnits="userSpaceOnUse">
<stop stop-color="#37DADA"/>
<stop offset="1" stop-color="#254DB5"/>
</linearGradient>
<linearGradient id="paint7_linear_6_602" x1="12.0121" y1="16.5027" x2="18.9661" y2="16.703" gradientUnits="userSpaceOnUse">
<stop stop-color="#37DADA"/>
<stop offset="1" stop-color="#254DB5"/>
</linearGradient>
<linearGradient id="paint8_linear_6_602" x1="11.8646" y1="42.322" x2="18.9192" y2="42.534" gradientUnits="userSpaceOnUse">
<stop stop-color="#37DADA"/>
<stop offset="1" stop-color="#254DB5"/>
</linearGradient>
</defs>
</svg>
