<svg width="110" height="68" viewBox="0 0 110 68" fill="none" xmlns="http://www.w3.org/2000/svg">
<path d="M0.0860439 38.5191C5.90835 38.5191 11.7307 38.5191 17.6964 38.5191C17.6964 34.8192 17.6964 31.1767 17.6964 27.4194C18.8723 27.4194 19.9048 27.4194 21.0234 27.4194C21.0234 31.0906 21.0234 34.7332 21.0234 38.4617C30.7464 38.4617 40.3833 38.4617 50.1349 38.4617C50.1349 34.7905 50.1349 31.148 50.1349 27.3907C51.2822 27.3907 52.286 27.3907 53.4333 27.3907C53.4333 31.0619 53.4333 34.7332 53.4333 38.4617C63.1849 38.4617 72.8218 38.4617 82.5735 38.4617C82.5735 34.7618 82.5735 31.0906 82.5735 27.3621C83.7207 27.3621 84.7246 27.3621 85.8718 27.3621C85.8718 31.0906 85.8718 34.7332 85.8718 38.5191C86.3881 38.5191 86.761 38.5191 87.1338 38.5191C90.2888 38.5191 93.4437 38.4904 96.57 38.5478C97.0576 38.5478 97.6885 38.8059 98.0327 39.1501C101.474 42.5345 104.888 45.9476 108.301 49.3893C110.566 51.6838 110.566 54.4946 108.301 56.7891C104.916 60.2022 101.532 63.5866 98.1188 66.9423C97.7746 67.2864 97.1436 67.5446 96.6273 67.5446C82.7743 67.5733 68.9499 67.5733 55.0968 67.5733C54.7813 67.5733 54.4658 67.5446 54.1216 67.5159C54.1216 66.426 54.1216 65.4222 54.1216 64.3036C56.7603 64.3036 59.3416 64.3323 61.923 64.2749C62.4679 64.2749 63.0989 63.9881 63.4717 63.6439C66.512 60.6611 69.5235 57.6495 72.535 54.638C73.6823 53.4621 73.711 52.7163 72.535 51.5691C69.4948 48.5289 66.4833 45.4887 63.4144 42.4771C63.0702 42.1329 62.4966 41.8748 62.0377 41.8461C53.6054 41.8174 45.1444 41.8174 36.7121 41.8174C36.4826 41.8174 36.2532 41.8461 35.823 41.9035C36.1671 42.2763 36.3966 42.5345 36.626 42.7926C38.7485 44.915 40.8709 47.0374 42.9933 49.1599C45.5746 51.7699 45.6033 54.4372 43.022 57.0185C40.8995 59.141 38.7771 61.2634 36.6547 63.3858C36.3966 63.6439 36.1958 63.9021 35.7656 64.3323C37.3431 64.3323 38.7198 64.3323 40.0965 64.3323C41.4732 64.3323 42.8786 64.3323 44.3413 64.3323C44.3413 65.4222 44.3413 66.426 44.3413 67.5159C43.9971 67.5446 43.6816 67.5733 43.3661 67.5733C29.1689 67.5733 14.9716 67.5733 0.745714 67.5733C0.487582 67.5733 0.258132 67.5446 0 67.5159C0 61.6362 0 55.7852 0 49.9056C1.06121 49.9056 2.09374 49.9056 3.26967 49.9056C3.26967 54.7814 3.26967 59.5138 3.26967 64.2749C3.49912 64.3036 3.64253 64.3323 3.78593 64.3323C12.6485 64.3323 21.5397 64.3323 30.4022 64.3036C30.8324 64.3036 31.3487 64.0168 31.6642 63.7013C34.7044 60.7184 37.7159 57.7069 40.6988 54.6954C41.9608 53.4334 41.9608 52.7737 40.6701 51.483C37.6872 48.5002 34.7331 45.4886 31.6928 42.5632C31.2913 42.1616 30.603 41.9035 30.0293 41.9035C21.4823 41.8748 12.9353 41.8748 4.38824 41.8748C4.04406 41.8748 3.69989 41.9035 3.21231 41.9322C3.21231 43.5383 3.21231 45.0871 3.21231 46.7506C2.06505 46.7506 1.03253 46.7506 0 46.7506C0.0860439 43.9399 0.0860439 41.2438 0.0860439 38.5191ZM67.5158 41.7888C67.946 42.2477 68.1755 42.5058 68.4049 42.7639C70.6134 44.9724 72.8218 47.1522 75.0016 49.3606C77.2675 51.6551 77.2961 54.4372 75.0303 56.7604C72.8792 58.9402 70.6708 61.12 68.5197 63.2997C68.2615 63.5579 68.0034 63.8447 67.6305 64.2749C68.0608 64.3036 68.2902 64.3036 68.5197 64.3036C77.4969 64.3036 86.4741 64.3036 95.4514 64.2749C95.9103 64.2749 96.4839 63.9881 96.7994 63.6726C99.8396 60.6897 102.851 57.6782 105.863 54.6667C107.125 53.4047 107.125 52.745 105.891 51.5117C102.937 48.5576 99.9544 45.6034 97.0289 42.6205C96.4552 42.0469 95.8816 41.7888 95.0785 41.7888C86.7323 41.8174 78.4147 41.8174 70.0684 41.8174C69.294 41.7888 68.5197 41.7888 67.5158 41.7888Z" fill="black"/>
<path d="M0.0860439 38.5191C5.90835 38.5191 11.7307 38.5191 17.6964 38.5191C17.6964 34.8192 17.6964 31.1767 17.6964 27.4194C18.8723 27.4194 19.9048 27.4194 21.0234 27.4194C21.0234 31.0906 21.0234 34.7332 21.0234 38.4617C30.7464 38.4617 40.3833 38.4617 50.1349 38.4617C50.1349 34.7905 50.1349 31.148 50.1349 27.3907C51.2822 27.3907 52.286 27.3907 53.4333 27.3907C53.4333 31.0619 53.4333 34.7332 53.4333 38.4617C63.1849 38.4617 72.8218 38.4617 82.5735 38.4617C82.5735 34.7618 82.5735 31.0906 82.5735 27.3621C83.7207 27.3621 84.7246 27.3621 85.8718 27.3621C85.8718 31.0906 85.8718 34.7332 85.8718 38.5191C86.3881 38.5191 86.761 38.5191 87.1338 38.5191C90.2888 38.5191 93.4437 38.4904 96.57 38.5478C97.0576 38.5478 97.6885 38.8059 98.0327 39.1501C101.474 42.5345 104.888 45.9476 108.301 49.3893C110.566 51.6838 110.566 54.4946 108.301 56.7891C104.916 60.2022 101.532 63.5866 98.1188 66.9423C97.7746 67.2864 97.1436 67.5446 96.6273 67.5446C82.7743 67.5733 68.9499 67.5733 55.0968 67.5733C54.7813 67.5733 54.4658 67.5446 54.1216 67.5159C54.1216 66.426 54.1216 65.4222 54.1216 64.3036C56.7603 64.3036 59.3416 64.3323 61.923 64.2749C62.4679 64.2749 63.0989 63.9881 63.4717 63.6439C66.512 60.6611 69.5235 57.6495 72.535 54.638C73.6823 53.4621 73.711 52.7163 72.535 51.5691C69.4948 48.5289 66.4833 45.4887 63.4144 42.4771C63.0702 42.1329 62.4966 41.8748 62.0377 41.8461C53.6054 41.8174 45.1444 41.8174 36.7121 41.8174C36.4826 41.8174 36.2532 41.8461 35.823 41.9035C36.1671 42.2763 36.3966 42.5345 36.626 42.7926C38.7485 44.915 40.8709 47.0374 42.9933 49.1599C45.5746 51.7699 45.6033 54.4372 43.022 57.0185C40.8995 59.141 38.7771 61.2634 36.6547 63.3858C36.3966 63.6439 36.1958 63.9021 35.7656 64.3323C37.3431 64.3323 38.7198 64.3323 40.0965 64.3323C41.4732 64.3323 42.8786 64.3323 44.3413 64.3323C44.3413 65.4222 44.3413 66.426 44.3413 67.5159C43.9971 67.5446 43.6816 67.5733 43.3661 67.5733C29.1689 67.5733 14.9716 67.5733 0.745714 67.5733C0.487582 67.5733 0.258132 67.5446 0 67.5159C0 61.6362 0 55.7852 0 49.9056C1.06121 49.9056 2.09374 49.9056 3.26967 49.9056C3.26967 54.7814 3.26967 59.5138 3.26967 64.2749C3.49912 64.3036 3.64253 64.3323 3.78593 64.3323C12.6485 64.3323 21.5397 64.3323 30.4022 64.3036C30.8324 64.3036 31.3487 64.0168 31.6642 63.7013C34.7044 60.7184 37.7159 57.7069 40.6988 54.6954C41.9608 53.4334 41.9608 52.7737 40.6701 51.483C37.6872 48.5002 34.7331 45.4886 31.6928 42.5632C31.2913 42.1616 30.603 41.9035 30.0293 41.9035C21.4823 41.8748 12.9353 41.8748 4.38824 41.8748C4.04406 41.8748 3.69989 41.9035 3.21231 41.9322C3.21231 43.5383 3.21231 45.0871 3.21231 46.7506C2.06505 46.7506 1.03253 46.7506 0 46.7506C0.0860439 43.9399 0.0860439 41.2438 0.0860439 38.5191ZM67.5158 41.7888C67.946 42.2477 68.1755 42.5058 68.4049 42.7639C70.6134 44.9724 72.8218 47.1522 75.0016 49.3606C77.2675 51.6551 77.2961 54.4372 75.0303 56.7604C72.8792 58.9402 70.6708 61.12 68.5197 63.2997C68.2615 63.5579 68.0034 63.8447 67.6305 64.2749C68.0608 64.3036 68.2902 64.3036 68.5197 64.3036C77.4969 64.3036 86.4741 64.3036 95.4514 64.2749C95.9103 64.2749 96.4839 63.9881 96.7994 63.6726C99.8396 60.6897 102.851 57.6782 105.863 54.6667C107.125 53.4047 107.125 52.745 105.891 51.5117C102.937 48.5576 99.9544 45.6034 97.0289 42.6205C96.4552 42.0469 95.8816 41.7888 95.0785 41.7888C86.7323 41.8174 78.4147 41.8174 70.0684 41.8174C69.294 41.7888 68.5197 41.7888 67.5158 41.7888Z" fill="url(#paint0_linear_18_643)"/>
<path d="M19.3312 22.9163C15.5739 19.159 11.7593 15.3444 7.97339 11.5585C10.44 9.09187 12.9353 6.62528 15.5166 4.04396C16.7212 5.33462 17.9545 6.62528 19.2451 8.00198C21.9986 5.24857 24.6085 2.63857 27.1325 0.0859375C29.7712 2.72462 32.2378 5.21989 34.647 7.62912C29.6278 12.6484 24.4651 17.7823 19.3312 22.9163ZM30.1154 7.60044C29.2262 6.71132 28.2798 5.76484 27.2472 4.70363C24.6946 7.28495 22.0846 9.92363 19.3599 12.6484C18.0118 11.243 16.7786 9.92363 15.66 8.74769C14.5988 9.78022 13.6236 10.7554 12.7345 11.6158C14.9429 13.8243 17.2088 16.0901 19.4172 18.3273C22.9737 14.7708 26.5589 11.1569 30.1154 7.60044Z" fill="black"/>
<path d="M19.3312 22.9163C15.5739 19.159 11.7593 15.3444 7.97339 11.5585C10.44 9.09187 12.9353 6.62528 15.5166 4.04396C16.7212 5.33462 17.9545 6.62528 19.2451 8.00198C21.9986 5.24857 24.6085 2.63857 27.1325 0.0859375C29.7712 2.72462 32.2378 5.21989 34.647 7.62912C29.6278 12.6484 24.4651 17.7823 19.3312 22.9163ZM30.1154 7.60044C29.2262 6.71132 28.2798 5.76484 27.2472 4.70363C24.6946 7.28495 22.0846 9.92363 19.3599 12.6484C18.0118 11.243 16.7786 9.92363 15.66 8.74769C14.5988 9.78022 13.6236 10.7554 12.7345 11.6158C14.9429 13.8243 17.2088 16.0901 19.4172 18.3273C22.9737 14.7708 26.5589 11.1569 30.1154 7.60044Z" fill="url(#paint1_linear_18_643)"/>
<path d="M91.9236 0C94.6196 2.69604 97.1149 5.19132 99.5241 7.60055C94.4475 12.6771 89.3135 17.8111 84.2083 22.9164C80.4797 19.1591 76.6651 15.3732 72.9365 11.6159C75.3458 9.2067 77.8697 6.71143 80.5084 4.07275C81.627 5.27736 82.8603 6.5967 84.0649 7.88736C86.7896 5.19132 89.3709 2.58132 91.9236 0ZM84.1509 18.27C87.7648 14.6562 91.3499 11.071 94.8204 7.60055C93.9886 6.71143 93.0995 5.73626 92.0096 4.56033C89.3996 7.19901 86.7896 9.80901 84.0075 12.6198C82.7455 11.3004 81.4836 10.0098 80.365 8.80516C79.3898 9.72297 78.4147 10.6694 77.4682 11.5586C79.7053 13.8531 81.9711 16.1189 84.1509 18.27Z" fill="black"/>
<path d="M91.9236 0C94.6196 2.69604 97.1149 5.19132 99.5241 7.60055C94.4475 12.6771 89.3135 17.8111 84.2083 22.9164C80.4797 19.1591 76.6651 15.3732 72.9365 11.6159C75.3458 9.2067 77.8697 6.71143 80.5084 4.07275C81.627 5.27736 82.8603 6.5967 84.0649 7.88736C86.7896 5.19132 89.3709 2.58132 91.9236 0ZM84.1509 18.27C87.7648 14.6562 91.3499 11.071 94.8204 7.60055C93.9886 6.71143 93.0995 5.73626 92.0096 4.56033C89.3996 7.19901 86.7896 9.80901 84.0075 12.6198C82.7455 11.3004 81.4836 10.0098 80.365 8.80516C79.3898 9.72297 78.4147 10.6694 77.4682 11.5586C79.7053 13.8531 81.9711 16.1189 84.1509 18.27Z" fill="url(#paint2_linear_18_643)"/>
<path d="M67.1431 7.62936C62.0665 12.7059 56.9326 17.8399 51.8846 22.8878C48.0987 19.1019 44.2841 15.2586 40.4695 11.4727C42.85 9.0921 45.374 6.59683 47.9266 4.04419C49.1312 5.30617 50.3932 6.62551 51.6839 7.94485C54.4086 5.19144 57.0186 2.58145 59.5712 0.0288086C62.1812 2.69617 64.6765 5.16276 67.1431 7.62936ZM51.7986 18.2988C55.3838 14.7423 58.9689 11.1285 62.5254 7.60067C61.665 6.71155 60.7185 5.76507 59.686 4.67518C57.1046 7.28518 54.4946 9.89518 51.7699 12.6773C50.4506 11.2719 49.1886 9.95254 47.9553 8.66188C46.9228 9.69441 45.9763 10.6409 45.0872 11.5587C47.2956 13.7672 49.5615 16.0617 51.7986 18.2988Z" fill="black"/>
<path d="M67.1431 7.62936C62.0665 12.7059 56.9326 17.8399 51.8846 22.8878C48.0987 19.1019 44.2841 15.2586 40.4695 11.4727C42.85 9.0921 45.374 6.59683 47.9266 4.04419C49.1312 5.30617 50.3932 6.62551 51.6839 7.94485C54.4086 5.19144 57.0186 2.58145 59.5712 0.0288086C62.1812 2.69617 64.6765 5.16276 67.1431 7.62936ZM51.7986 18.2988C55.3838 14.7423 58.9689 11.1285 62.5254 7.60067C61.665 6.71155 60.7185 5.76507 59.686 4.67518C57.1046 7.28518 54.4946 9.89518 51.7699 12.6773C50.4506 11.2719 49.1886 9.95254 47.9553 8.66188C46.9228 9.69441 45.9763 10.6409 45.0872 11.5587C47.2956 13.7672 49.5615 16.0617 51.7986 18.2988Z" fill="url(#paint3_linear_18_643)"/>
<path d="M50.8518 67.5157C49.7333 67.5157 48.7868 67.5157 47.7256 67.5157C47.7256 66.4545 47.7256 65.4506 47.7256 64.3894C48.7294 64.3894 49.762 64.3894 50.8518 64.3894C50.8518 65.3933 50.8518 66.4258 50.8518 67.5157Z" fill="black"/>
<path d="M50.8518 67.5157C49.7333 67.5157 48.7868 67.5157 47.7256 67.5157C47.7256 66.4545 47.7256 65.4506 47.7256 64.3894C48.7294 64.3894 49.762 64.3894 50.8518 64.3894C50.8518 65.3933 50.8518 66.4258 50.8518 67.5157Z" fill="url(#paint4_linear_18_643)"/>
<path d="M87.1624 45.0583C87.1624 46.0909 87.1624 47.0947 87.1624 48.1559C86.1299 48.1559 85.126 48.1559 84.0361 48.1559C84.0361 47.1521 84.0361 46.1482 84.0361 45.0583C85.0687 45.0583 86.0438 45.0583 87.1624 45.0583Z" fill="black"/>
<path d="M87.1624 45.0583C87.1624 46.0909 87.1624 47.0947 87.1624 48.1559C86.1299 48.1559 85.126 48.1559 84.0361 48.1559C84.0361 47.1521 84.0361 46.1482 84.0361 45.0583C85.0687 45.0583 86.0438 45.0583 87.1624 45.0583Z" fill="url(#paint5_linear_18_643)"/>
<path d="M93.6159 45.0298C93.6159 46.091 93.6159 47.0948 93.6159 48.156C92.5547 48.156 91.5508 48.156 90.4609 48.156C90.4609 47.1235 90.4609 46.091 90.4609 45.0298C91.5221 45.0298 92.4973 45.0298 93.6159 45.0298Z" fill="black"/>
<path d="M93.6159 45.0298C93.6159 46.091 93.6159 47.0948 93.6159 48.156C92.5547 48.156 91.5508 48.156 90.4609 48.156C90.4609 47.1235 90.4609 46.091 90.4609 45.0298C91.5221 45.0298 92.4973 45.0298 93.6159 45.0298Z" fill="url(#paint6_linear_18_643)"/>
<defs>
<linearGradient id="paint0_linear_18_643" x1="-20.3105" y1="27.362" x2="92.7689" y2="34.9118" gradientUnits="userSpaceOnUse">
<stop stop-color="#37DADA"/>
<stop offset="1" stop-color="#254DB5"/>
</linearGradient>
<linearGradient id="paint1_linear_18_643" x1="3.04836" y1="0.0859287" x2="30.5685" y2="0.870671" gradientUnits="userSpaceOnUse">
<stop stop-color="#37DADA"/>
<stop offset="1" stop-color="#254DB5"/>
</linearGradient>
<linearGradient id="paint2_linear_18_643" x1="68.0274" y1="-8.8563e-06" x2="95.4591" y2="0.77676" gradientUnits="userSpaceOnUse">
<stop stop-color="#37DADA"/>
<stop offset="1" stop-color="#254DB5"/>
</linearGradient>
<linearGradient id="paint3_linear_18_643" x1="35.5445" y1="0.0287998" x2="63.0647" y2="0.812559" gradientUnits="userSpaceOnUse">
<stop stop-color="#37DADA"/>
<stop offset="1" stop-color="#254DB5"/>
</linearGradient>
<linearGradient id="paint4_linear_18_643" x1="47.1484" y1="64.3894" x2="50.3745" y2="64.4681" gradientUnits="userSpaceOnUse">
<stop stop-color="#37DADA"/>
<stop offset="1" stop-color="#254DB5"/>
</linearGradient>
<linearGradient id="paint5_linear_18_643" x1="83.4589" y1="45.0583" x2="86.685" y2="45.1378" gradientUnits="userSpaceOnUse">
<stop stop-color="#37DADA"/>
<stop offset="1" stop-color="#254DB5"/>
</linearGradient>
<linearGradient id="paint6_linear_18_643" x1="89.8784" y1="45.0298" x2="93.1342" y2="45.11" gradientUnits="userSpaceOnUse">
<stop stop-color="#37DADA"/>
<stop offset="1" stop-color="#254DB5"/>
</linearGradient>
</defs>
</svg>
