<svg width="95" height="91" viewBox="0 0 95 91" fill="none" xmlns="http://www.w3.org/2000/svg">
<path d="M35.6722 31.2228C32.377 29.3692 29.0818 27.4642 25.7866 25.6106C19.0417 21.8005 12.3483 17.939 5.60341 14.1289C3.80134 13.0991 3.64687 12.5328 4.62514 10.7307C5.70638 8.77415 6.78763 6.81762 7.92036 4.86109C8.74416 3.41943 9.20755 3.21348 10.7522 3.62538C15.1801 4.8096 19.6081 5.94233 23.9845 7.17803C24.6024 7.3325 25.0658 7.28101 25.4777 6.81762C25.8896 6.35423 26.353 5.94233 26.7649 5.58191C27.6402 4.8096 28.6184 4.75811 29.3392 5.47894C30.0086 6.14828 30.0086 7.07506 29.2363 7.95035C29.1333 8.10481 29.0303 8.20779 28.7729 8.46523C31.2443 9.13457 33.6127 9.80391 35.9812 10.4218C36.1356 10.4732 36.4445 10.3188 36.599 10.1643C36.9594 9.85539 37.3198 9.44349 37.6803 9.13457C38.2981 8.5682 39.0704 8.41374 39.8427 8.82564C40.6151 9.28903 40.821 10.0099 40.5636 10.8337C40.5121 11.0396 40.4091 11.2456 40.3576 11.503C43.5499 12.3783 46.6906 13.2536 49.8314 14.0774C50.0888 14.1289 50.6037 13.8199 50.8611 13.5625C53.0236 11.3485 54.8772 8.82564 57.2456 6.86911C63.4756 1.77182 70.7868 -0.442146 78.8704 0.0727308C79.9517 0.124218 80.518 0.742071 80.5695 1.97778C80.8784 7.28101 79.8487 12.2753 77.6347 17.0637C75.4208 21.9035 72.2285 25.9196 67.9035 29.0088C66.6164 29.9356 66.3074 30.8624 66.8738 32.2525C67.2857 33.3338 67.5431 34.518 67.8006 35.6507C68.1095 36.835 67.6461 37.8132 66.6164 38.0192C65.5866 38.2766 64.8143 37.7617 64.4539 36.526C64.0935 35.3418 63.7845 34.1576 63.4241 32.8189C59.5625 36.1141 55.8039 39.3064 51.9938 42.6016C52.1998 43.0135 52.4057 43.3739 52.6117 43.7343C55.4435 48.7286 58.3268 53.7229 61.1586 58.7172C61.3646 59.1291 61.5706 59.541 61.6735 60.0044C61.7765 60.7767 61.4161 61.3946 60.6953 61.7035C59.9744 62.0639 59.3051 61.858 58.7387 61.2916C58.4813 61.0342 58.2753 60.6738 58.0694 60.3133C55.3405 55.525 52.6117 50.7366 49.8828 45.9483C49.6769 45.6394 49.4709 45.2789 49.2135 44.867C48.8531 45.3304 48.2867 45.7938 47.7718 46.2057C41.9022 51.2 36.0326 56.1943 30.2145 61.2401C29.8541 61.549 29.5967 62.2184 29.6482 62.6818C30.0601 66.9553 30.5235 71.2287 31.0383 75.5022C31.1928 76.7894 30.9354 77.7162 29.8026 78.3855C28.8759 78.9004 28.0521 79.5697 27.1768 80.1876C25.7351 81.1144 24.8083 80.8569 24.139 79.3123C22.4914 75.6567 20.8953 72.0011 19.1962 68.3454C18.7843 67.4186 18.1149 66.6463 17.4971 65.8225C15.2316 63.0422 12.3483 61.1886 8.95011 59.9014C6.37572 58.9232 3.9558 57.6875 1.48439 56.5547C-0.111728 55.8339 -0.420655 54.8042 0.557612 53.3625C1.17546 52.4872 1.79332 51.6119 2.35968 50.7366C2.87456 49.9128 3.59539 49.5524 4.62514 49.6554C9.10457 50.1703 13.584 50.6337 18.0634 51.0456C18.4238 51.097 18.9387 50.9426 19.1447 50.6851C24.6539 44.2492 30.163 37.8132 35.6207 31.3773C35.6207 31.4287 35.6207 31.3258 35.6722 31.2228ZM77.1713 3.57389C76.9654 3.52241 76.9139 3.47092 76.8624 3.47092C76.5535 3.47092 76.296 3.41943 75.9871 3.47092C67.6976 3.83133 60.8497 7.07506 55.4435 13.408C44.0647 26.7948 32.6345 40.1817 21.2042 53.6199C20.4319 54.4952 19.6081 54.8042 18.4753 54.6497C14.2019 54.1348 9.92838 53.7229 5.6549 53.208C4.88258 53.1051 4.41919 53.3625 4.26473 54.1863C5.96382 54.9586 7.55994 55.7824 9.31052 56.4003C13.7385 57.9964 17.4971 60.4678 20.4319 64.0719C20.9467 64.6898 21.4616 65.3591 21.822 66.08C23.3152 69.2207 24.7054 72.4129 26.147 75.5537C26.25 75.8111 26.4559 76.0686 26.5589 76.326C26.6619 76.326 26.8163 76.3775 26.9193 76.3775C27.0738 75.8626 27.4342 75.3477 27.3827 74.8844C26.9708 70.6624 26.5589 66.3889 26.044 62.1669C25.8896 60.9827 26.147 60.1589 27.0738 59.3866C39.5338 48.7801 51.9938 38.1221 64.4539 27.4642C67.5946 24.7868 70.8383 22.161 72.9493 18.4538C75.6782 13.8714 77.0684 8.92862 77.1713 3.57389ZM47.7718 17.1152C47.5144 17.0122 47.4114 16.9092 47.257 16.9092C41.0784 15.2616 34.8484 13.614 28.6699 11.9664C23.0063 10.4732 17.2911 8.92862 11.6275 7.43547C11.2671 7.3325 10.5977 7.38398 10.4433 7.58994C9.61945 8.82564 8.89862 10.1128 8.12631 11.503C18.1149 17.2181 28.052 22.8818 38.0407 28.5454C41.3359 24.6839 44.5281 20.9252 47.7718 17.1152Z" fill="#31A9CD"/>
<path d="M35.6722 31.2228C32.377 29.3692 29.0818 27.4642 25.7866 25.6106C19.0417 21.8005 12.3483 17.939 5.60341 14.1289C3.80134 13.0991 3.64687 12.5328 4.62514 10.7307C5.70638 8.77415 6.78763 6.81762 7.92036 4.86109C8.74416 3.41943 9.20755 3.21348 10.7522 3.62538C15.1801 4.8096 19.6081 5.94233 23.9845 7.17803C24.6024 7.3325 25.0658 7.28101 25.4777 6.81762C25.8896 6.35423 26.353 5.94233 26.7649 5.58191C27.6402 4.8096 28.6184 4.75811 29.3392 5.47894C30.0086 6.14828 30.0086 7.07506 29.2363 7.95035C29.1333 8.10481 29.0303 8.20779 28.7729 8.46523C31.2443 9.13457 33.6127 9.80391 35.9812 10.4218C36.1356 10.4732 36.4445 10.3188 36.599 10.1643C36.9594 9.85539 37.3198 9.44349 37.6803 9.13457C38.2981 8.5682 39.0704 8.41374 39.8427 8.82564C40.6151 9.28903 40.821 10.0099 40.5636 10.8337C40.5121 11.0396 40.4091 11.2456 40.3576 11.503C43.5499 12.3783 46.6906 13.2536 49.8314 14.0774C50.0888 14.1289 50.6037 13.8199 50.8611 13.5625C53.0236 11.3485 54.8772 8.82564 57.2456 6.86911C63.4756 1.77182 70.7868 -0.442146 78.8704 0.0727308C79.9517 0.124218 80.518 0.742071 80.5695 1.97778C80.8784 7.28101 79.8487 12.2753 77.6347 17.0637C75.4208 21.9035 72.2285 25.9196 67.9035 29.0088C66.6164 29.9356 66.3074 30.8624 66.8738 32.2525C67.2857 33.3338 67.5431 34.518 67.8006 35.6507C68.1095 36.835 67.6461 37.8132 66.6164 38.0192C65.5866 38.2766 64.8143 37.7617 64.4539 36.526C64.0935 35.3418 63.7845 34.1576 63.4241 32.8189C59.5625 36.1141 55.8039 39.3064 51.9938 42.6016C52.1998 43.0135 52.4057 43.3739 52.6117 43.7343C55.4435 48.7286 58.3268 53.7229 61.1586 58.7172C61.3646 59.1291 61.5706 59.541 61.6735 60.0044C61.7765 60.7767 61.4161 61.3946 60.6953 61.7035C59.9744 62.0639 59.3051 61.858 58.7387 61.2916C58.4813 61.0342 58.2753 60.6738 58.0694 60.3133C55.3405 55.525 52.6117 50.7366 49.8828 45.9483C49.6769 45.6394 49.4709 45.2789 49.2135 44.867C48.8531 45.3304 48.2867 45.7938 47.7718 46.2057C41.9022 51.2 36.0326 56.1943 30.2145 61.2401C29.8541 61.549 29.5967 62.2184 29.6482 62.6818C30.0601 66.9553 30.5235 71.2287 31.0383 75.5022C31.1928 76.7894 30.9354 77.7162 29.8026 78.3855C28.8759 78.9004 28.0521 79.5697 27.1768 80.1876C25.7351 81.1144 24.8083 80.8569 24.139 79.3123C22.4914 75.6567 20.8953 72.0011 19.1962 68.3454C18.7843 67.4186 18.1149 66.6463 17.4971 65.8225C15.2316 63.0422 12.3483 61.1886 8.95011 59.9014C6.37572 58.9232 3.9558 57.6875 1.48439 56.5547C-0.111728 55.8339 -0.420655 54.8042 0.557612 53.3625C1.17546 52.4872 1.79332 51.6119 2.35968 50.7366C2.87456 49.9128 3.59539 49.5524 4.62514 49.6554C9.10457 50.1703 13.584 50.6337 18.0634 51.0456C18.4238 51.097 18.9387 50.9426 19.1447 50.6851C24.6539 44.2492 30.163 37.8132 35.6207 31.3773C35.6207 31.4287 35.6207 31.3258 35.6722 31.2228ZM77.1713 3.57389C76.9654 3.52241 76.9139 3.47092 76.8624 3.47092C76.5535 3.47092 76.296 3.41943 75.9871 3.47092C67.6976 3.83133 60.8497 7.07506 55.4435 13.408C44.0647 26.7948 32.6345 40.1817 21.2042 53.6199C20.4319 54.4952 19.6081 54.8042 18.4753 54.6497C14.2019 54.1348 9.92838 53.7229 5.6549 53.208C4.88258 53.1051 4.41919 53.3625 4.26473 54.1863C5.96382 54.9586 7.55994 55.7824 9.31052 56.4003C13.7385 57.9964 17.4971 60.4678 20.4319 64.0719C20.9467 64.6898 21.4616 65.3591 21.822 66.08C23.3152 69.2207 24.7054 72.4129 26.147 75.5537C26.25 75.8111 26.4559 76.0686 26.5589 76.326C26.6619 76.326 26.8163 76.3775 26.9193 76.3775C27.0738 75.8626 27.4342 75.3477 27.3827 74.8844C26.9708 70.6624 26.5589 66.3889 26.044 62.1669C25.8896 60.9827 26.147 60.1589 27.0738 59.3866C39.5338 48.7801 51.9938 38.1221 64.4539 27.4642C67.5946 24.7868 70.8383 22.161 72.9493 18.4538C75.6782 13.8714 77.0684 8.92862 77.1713 3.57389ZM47.7718 17.1152C47.5144 17.0122 47.4114 16.9092 47.257 16.9092C41.0784 15.2616 34.8484 13.614 28.6699 11.9664C23.0063 10.4732 17.2911 8.92862 11.6275 7.43547C11.2671 7.3325 10.5977 7.38398 10.4433 7.58994C9.61945 8.82564 8.89862 10.1128 8.12631 11.503C18.1149 17.2181 28.052 22.8818 38.0407 28.5454C41.3359 24.6839 44.5281 20.9252 47.7718 17.1152Z" fill="url(#paint0_linear_6_569)"/>
<path d="M79.7456 65.4105C75.6781 65.4105 71.6621 65.4105 67.5945 65.4105C65.7925 65.4105 65.2776 64.8957 65.2776 63.0421C65.2776 56.6576 65.2776 50.2217 65.2776 43.8372C65.2776 42.0351 65.844 41.4688 67.5945 41.4688C75.7296 41.4688 83.8646 41.4688 91.9997 41.4688C93.6988 41.4688 94.2652 42.0351 94.2652 43.6827C94.2652 50.1702 94.2652 56.7091 94.2652 63.1966C94.2652 64.8442 93.6988 65.4105 91.9997 65.4105C87.9322 65.4105 83.8132 65.4105 79.7456 65.4105ZM81.5477 44.9699C81.2903 46.3086 81.9596 48.2136 79.8486 48.2651C77.5317 48.3681 78.201 46.3086 77.9436 45.0214C74.8028 45.0214 71.765 45.0214 68.7273 45.0214C68.7273 50.6851 68.7273 56.2972 68.7273 61.9094C76.1415 61.9094 83.4013 61.9094 90.7125 61.9094C90.7125 56.2457 90.7125 50.6336 90.7125 45.0214C87.6747 44.9699 84.6885 44.9699 81.5477 44.9699Z" fill="#31A9CD"/>
<path d="M79.7456 65.4105C75.6781 65.4105 71.6621 65.4105 67.5945 65.4105C65.7925 65.4105 65.2776 64.8957 65.2776 63.0421C65.2776 56.6576 65.2776 50.2217 65.2776 43.8372C65.2776 42.0351 65.844 41.4688 67.5945 41.4688C75.7296 41.4688 83.8646 41.4688 91.9997 41.4688C93.6988 41.4688 94.2652 42.0351 94.2652 43.6827C94.2652 50.1702 94.2652 56.7091 94.2652 63.1966C94.2652 64.8442 93.6988 65.4105 91.9997 65.4105C87.9322 65.4105 83.8132 65.4105 79.7456 65.4105ZM81.5477 44.9699C81.2903 46.3086 81.9596 48.2136 79.8486 48.2651C77.5317 48.3681 78.201 46.3086 77.9436 45.0214C74.8028 45.0214 71.765 45.0214 68.7273 45.0214C68.7273 50.6851 68.7273 56.2972 68.7273 61.9094C76.1415 61.9094 83.4013 61.9094 90.7125 61.9094C90.7125 56.2457 90.7125 50.6336 90.7125 45.0214C87.6747 44.9699 84.6885 44.9699 81.5477 44.9699Z" fill="url(#paint1_linear_6_569)"/>
<path d="M48.9561 90.9999C44.94 90.9999 40.924 90.9999 36.908 90.9999C35.0029 90.9999 34.488 90.485 34.488 88.58C34.488 82.1955 34.488 75.7595 34.488 69.3751C34.488 67.676 35.0544 67.0581 36.7535 67.0581C44.94 67.0581 53.1266 67.0581 61.3131 67.0581C62.9093 67.0581 63.5271 67.6245 63.5271 69.2206C63.5271 75.7595 63.5271 82.2985 63.5271 88.8374C63.5271 90.4335 62.9607 90.9999 61.3131 90.9999C57.2456 90.9999 53.0751 90.9999 48.9561 90.9999ZM50.8611 70.5593C50.6037 71.898 51.273 73.803 49.1105 73.8545C46.8966 73.8545 47.5144 71.898 47.257 70.5593C44.1677 70.5593 41.13 70.5593 38.0407 70.5593C38.0407 76.2229 38.0407 81.8351 38.0407 87.4472C45.4034 87.4472 52.7147 87.4472 60.0774 87.4472C60.0774 81.7836 60.0774 76.1714 60.0774 70.5593C56.9367 70.5593 53.8989 70.5593 50.8611 70.5593Z" fill="#31A9CD"/>
<path d="M48.9561 90.9999C44.94 90.9999 40.924 90.9999 36.908 90.9999C35.0029 90.9999 34.488 90.485 34.488 88.58C34.488 82.1955 34.488 75.7595 34.488 69.3751C34.488 67.676 35.0544 67.0581 36.7535 67.0581C44.94 67.0581 53.1266 67.0581 61.3131 67.0581C62.9093 67.0581 63.5271 67.6245 63.5271 69.2206C63.5271 75.7595 63.5271 82.2985 63.5271 88.8374C63.5271 90.4335 62.9607 90.9999 61.3131 90.9999C57.2456 90.9999 53.0751 90.9999 48.9561 90.9999ZM50.8611 70.5593C50.6037 71.898 51.273 73.803 49.1105 73.8545C46.8966 73.8545 47.5144 71.898 47.257 70.5593C44.1677 70.5593 41.13 70.5593 38.0407 70.5593C38.0407 76.2229 38.0407 81.8351 38.0407 87.4472C45.4034 87.4472 52.7147 87.4472 60.0774 87.4472C60.0774 81.7836 60.0774 76.1714 60.0774 70.5593C56.9367 70.5593 53.8989 70.5593 50.8611 70.5593Z" fill="url(#paint2_linear_6_569)"/>
<path d="M79.8487 67.0581C83.9162 67.0581 87.9322 67.0581 91.9998 67.0581C93.7504 67.0581 94.2652 67.6245 94.2652 69.3751C94.2652 75.8625 94.2652 82.2985 94.2652 88.7859C94.2652 90.485 93.7504 90.9999 91.9998 90.9999C83.8132 90.9999 75.6267 90.9999 67.4401 90.9999C65.741 90.9999 65.1747 90.4335 65.1747 88.7859C65.1747 82.2985 65.1747 75.8625 65.1747 69.3751C65.1747 67.676 65.7925 67.0581 67.4916 67.0581C71.6621 67.0581 75.7297 67.0581 79.8487 67.0581ZM68.7273 87.4472C76.1416 87.4472 83.4528 87.4472 90.7641 87.4472C90.7641 81.7836 90.7641 76.1714 90.7641 70.5593C87.6233 70.5593 84.5856 70.5593 81.5478 70.5593C81.3418 71.898 81.9597 73.8545 79.7457 73.803C77.5832 73.803 78.1496 71.898 77.9951 70.5593C74.9059 70.5593 71.8166 70.5593 68.7273 70.5593C68.7273 76.2744 68.7273 81.8351 68.7273 87.4472Z" fill="#31A9CD"/>
<path d="M79.8487 67.0581C83.9162 67.0581 87.9322 67.0581 91.9998 67.0581C93.7504 67.0581 94.2652 67.6245 94.2652 69.3751C94.2652 75.8625 94.2652 82.2985 94.2652 88.7859C94.2652 90.485 93.7504 90.9999 91.9998 90.9999C83.8132 90.9999 75.6267 90.9999 67.4401 90.9999C65.741 90.9999 65.1747 90.4335 65.1747 88.7859C65.1747 82.2985 65.1747 75.8625 65.1747 69.3751C65.1747 67.676 65.7925 67.0581 67.4916 67.0581C71.6621 67.0581 75.7297 67.0581 79.8487 67.0581ZM68.7273 87.4472C76.1416 87.4472 83.4528 87.4472 90.7641 87.4472C90.7641 81.7836 90.7641 76.1714 90.7641 70.5593C87.6233 70.5593 84.5856 70.5593 81.5478 70.5593C81.3418 71.898 81.9597 73.8545 79.7457 73.803C77.5832 73.803 78.1496 71.898 77.9951 70.5593C74.9059 70.5593 71.8166 70.5593 68.7273 70.5593C68.7273 76.2744 68.7273 81.8351 68.7273 87.4472Z" fill="url(#paint3_linear_6_569)"/>
<path d="M63.733 23.7054C63.4756 24.0659 63.2696 24.5807 62.8577 24.9412C57.0396 30.0384 51.17 35.1357 45.3519 40.1815C44.3221 41.0568 43.2924 41.0568 42.623 40.233C41.9022 39.4092 42.1082 38.4309 43.0864 37.5556C48.9045 32.5098 54.7226 27.4641 60.5408 22.4183C61.7765 21.337 63.1666 21.6974 63.5785 23.0876C63.63 23.2421 63.6815 23.3965 63.733 23.7054Z" fill="#31A9CD"/>
<path d="M63.733 23.7054C63.4756 24.0659 63.2696 24.5807 62.8577 24.9412C57.0396 30.0384 51.17 35.1357 45.3519 40.1815C44.3221 41.0568 43.2924 41.0568 42.623 40.233C41.9022 39.4092 42.1082 38.4309 43.0864 37.5556C48.9045 32.5098 54.7226 27.4641 60.5408 22.4183C61.7765 21.337 63.1666 21.6974 63.5785 23.0876C63.63 23.2421 63.6815 23.3965 63.733 23.7054Z" fill="url(#paint4_linear_6_569)"/>
<path d="M22.234 60.1074C21.822 59.747 21.1527 59.4895 20.9468 58.9747C20.7408 58.5113 20.7408 57.5845 21.0497 57.2241C22.1825 55.8854 23.4182 54.7012 24.7054 53.517C25.3747 52.8991 26.25 53.0021 26.9193 53.6714C27.5372 54.2893 27.7431 55.1131 27.1253 55.7824C25.9411 57.1211 24.6024 58.3568 23.3152 59.644C23.1092 59.85 22.7488 59.9014 22.234 60.1074Z" fill="#31A9CD"/>
<path d="M22.234 60.1074C21.822 59.747 21.1527 59.4895 20.9468 58.9747C20.7408 58.5113 20.7408 57.5845 21.0497 57.2241C22.1825 55.8854 23.4182 54.7012 24.7054 53.517C25.3747 52.8991 26.25 53.0021 26.9193 53.6714C27.5372 54.2893 27.7431 55.1131 27.1253 55.7824C25.9411 57.1211 24.6024 58.3568 23.3152 59.644C23.1092 59.85 22.7488 59.9014 22.234 60.1074Z" fill="url(#paint5_linear_6_569)"/>
<defs>
<linearGradient id="paint0_linear_6_569" x1="-14.8863" y1="-3.11974e-05" x2="68.3139" y2="2.02802" gradientUnits="userSpaceOnUse">
<stop stop-color="#37DADA"/>
<stop offset="1" stop-color="#254DB5"/>
</linearGradient>
<linearGradient id="paint1_linear_6_569" x1="59.9253" y1="41.4687" x2="89.8311" y2="42.3525" gradientUnits="userSpaceOnUse">
<stop stop-color="#37DADA"/>
<stop offset="1" stop-color="#254DB5"/>
</linearGradient>
<linearGradient id="paint2_linear_6_569" x1="29.1262" y1="67.0581" x2="59.0851" y2="67.945" gradientUnits="userSpaceOnUse">
<stop stop-color="#37DADA"/>
<stop offset="1" stop-color="#254DB5"/>
</linearGradient>
<linearGradient id="paint3_linear_6_569" x1="59.8034" y1="67.0581" x2="89.8152" y2="67.9481" gradientUnits="userSpaceOnUse">
<stop stop-color="#37DADA"/>
<stop offset="1" stop-color="#254DB5"/>
</linearGradient>
<linearGradient id="paint4_linear_6_569" x1="38.2158" y1="21.7864" x2="60.4406" y2="22.3994" gradientUnits="userSpaceOnUse">
<stop stop-color="#37DADA"/>
<stop offset="1" stop-color="#254DB5"/>
</linearGradient>
<linearGradient id="paint5_linear_6_569" x1="19.567" y1="53.1067" x2="26.4765" y2="53.268" gradientUnits="userSpaceOnUse">
<stop stop-color="#37DADA"/>
<stop offset="1" stop-color="#254DB5"/>
</linearGradient>
</defs>
</svg>
