<svg width="87" height="91" viewBox="0 0 87 91" fill="none" xmlns="http://www.w3.org/2000/svg">
<path d="M43.6393 0C53.456 6.34385 63.3156 12.6877 73.1323 19.0744C75.0185 20.2746 76.9047 21.5177 78.7908 22.7179C79.5625 23.1894 79.8625 23.7894 79.8625 24.6896C79.8197 34.634 79.8625 44.5784 79.8197 54.5229C79.8197 55.2515 80.034 55.8088 80.5913 56.2803C81.3629 57.0089 82.1345 57.7805 82.8633 58.5521C84.0636 59.7951 84.1064 61.3382 82.9061 62.5813C82.5203 62.967 82.4346 63.2671 82.7347 63.7386C82.8204 63.8243 82.8633 63.9529 82.8633 64.0815C83.1633 65.1102 83.5063 65.8818 84.8781 65.8389C85.9069 65.7961 86.8928 66.9962 86.9357 68.1107C87.0214 70.0396 87.0214 71.9684 86.9357 73.8973C86.8928 75.1832 85.8212 76.212 84.4922 76.2548C83.6349 76.2977 83.2919 76.6406 83.1205 77.3693C83.0776 77.4979 83.0347 77.6693 82.949 77.7979C82.5203 78.5266 82.4775 79.0839 83.1633 79.7697C84.1064 80.7555 83.935 82.2986 82.9919 83.3274C81.8344 84.5704 80.6341 85.7277 79.4339 86.8851C78.2764 87.9995 76.6903 87.9995 75.5329 86.9279C75.0614 86.4993 74.7184 86.4136 74.204 86.7565C74.0754 86.8422 73.9039 86.9279 73.7325 86.9708C72.7465 87.1851 72.3178 87.6995 72.2321 88.7711C72.1035 90.0999 70.9032 91 69.5743 91C67.9024 91 66.2735 91 64.6016 91C63.0155 91 61.8152 89.8855 61.8152 88.2996C61.8152 87.6995 61.6438 87.3566 61.0436 87.2709C60.8293 87.228 60.5721 87.1423 60.4006 87.0137C59.6718 86.585 59.0717 86.4993 58.3429 87.1851C57.3999 88.0853 55.8566 87.9995 54.8707 87.0565C53.5846 85.8563 52.2986 84.5704 51.0983 83.2845C50.7125 82.8559 50.541 82.2558 50.1981 81.6128C49.9837 81.6128 49.6408 81.6128 49.2979 81.6128C33.5654 81.6128 17.8758 81.6128 2.14339 81.6128C1.84331 81.6128 1.54323 81.6128 1.24316 81.6128C0.471542 81.57 0 81.0127 0 80.284C0 79.5554 0.514412 78.9981 1.28603 78.9981C2.44346 78.9553 3.60088 78.9981 4.88692 78.9981C4.88692 78.6123 4.88692 78.2694 4.88692 77.9265C4.88692 71.6684 4.88692 65.3674 4.88692 59.1093C4.88692 58.7235 4.92979 58.3377 5.01553 57.9948C5.22987 57.3947 5.7014 57.1375 6.34442 57.1804C6.98743 57.2233 7.41612 57.5662 7.54472 58.1663C7.63045 58.5521 7.63045 58.9378 7.63045 59.3236C7.63045 65.496 7.63045 71.7113 7.63045 77.8837C7.63045 78.2266 7.63045 78.5695 7.63045 78.9981C9.73096 78.9981 11.7029 78.9981 13.8034 78.9981C13.8034 78.6123 13.8034 78.2694 13.8034 77.9265C13.8034 64.2101 13.8034 50.5365 13.8034 36.8201C13.8034 36.22 13.6748 35.7913 13.1604 35.3198C12.7317 34.8912 12.3888 34.1625 12.3459 33.5624C12.2173 32.3194 12.2602 31.0763 12.303 29.8333C12.3459 28.4616 13.2461 27.5186 14.6179 27.3472C14.9608 27.3043 15.3466 27.3043 15.6896 27.3043C33.5225 27.3043 51.3984 27.3043 69.2313 27.3043C71.7605 27.3043 72.6179 28.2044 72.6179 30.7334C72.6179 31.505 72.6179 32.2765 72.6179 33.048C72.6179 34.1196 72.3178 35.0198 71.4176 35.6627C71.2461 35.7913 71.1175 36.1342 71.1175 36.3914C71.1175 41.2779 71.1175 46.1644 71.1175 51.0509C71.1175 51.3509 71.3319 51.6081 71.4605 51.9082C71.8034 52.6368 72.2321 53.3227 72.4464 54.0942C72.575 54.5229 72.6179 54.8229 73.0894 54.9943C73.7325 55.2087 74.3326 55.5087 74.9327 55.7659C75.7044 55.2944 76.4331 54.8658 77.3333 54.3085C77.3333 54.2228 77.3333 53.9228 77.3333 53.6227C77.3333 44.407 77.3333 35.1912 77.3333 26.0184C77.3333 25.3754 77.119 25.0325 76.6046 24.6896C65.7591 17.7028 54.9135 10.716 44.1109 3.72916C43.5536 3.34338 43.1249 3.34338 42.5248 3.68629C31.1648 10.716 19.8049 17.7028 8.40207 24.6896C7.84479 25.0325 7.58758 25.4183 7.63045 26.1041C7.67331 34.5911 7.63045 43.0353 7.63045 51.5224C7.63045 51.8653 7.63046 52.2511 7.58759 52.594C7.50185 53.3227 7.07318 53.7942 6.30156 53.7942C5.57281 53.837 5.01552 53.3655 4.92979 52.594C4.88692 52.3368 4.92979 52.0796 4.92979 51.7796C4.92979 42.9496 4.92979 34.0768 4.92979 25.2468C4.92979 24.1752 5.27273 23.4894 6.21582 22.9322C18.0473 15.6882 29.8788 8.35846 41.7103 1.0716C42.0961 0.857278 42.3962 0.557232 42.7391 0.300049C42.9534 1.96726e-06 43.2964 0 43.6393 0ZM68.2454 51.008C68.2454 45.9072 68.2454 40.935 68.2454 35.8771C67.8596 35.8771 67.5166 35.8771 67.2166 35.8771C61.8152 35.8771 56.4568 35.8771 51.0554 35.8771C49.4693 35.8771 47.8404 35.8771 46.2542 35.8771C45.3969 35.8771 44.7539 35.3198 44.7539 34.5483C44.711 33.8196 45.3112 33.2195 46.1685 33.1766C46.4686 33.1338 46.7687 33.1766 47.0687 33.1766C54.2705 33.1766 61.4723 33.1766 68.6312 33.1766C68.9741 33.1766 69.3171 33.1766 69.7458 33.1766C69.7458 32.0193 69.7458 30.9906 69.7458 29.8761C51.4412 29.8761 33.1796 29.8761 14.918 29.8761C14.918 30.9906 14.918 32.0193 14.918 33.1766C15.3038 33.1766 15.6467 33.1766 16.0325 33.1766C23.7058 33.1766 31.3792 33.1766 39.0525 33.1766C39.3954 33.1766 39.6955 33.1766 40.0384 33.2195C40.8101 33.3052 41.3245 33.8625 41.3245 34.5483C41.3245 35.2341 40.7672 35.8342 40.0384 35.9199C39.7812 35.9628 39.524 35.9199 39.2239 35.9199C31.9793 35.9199 24.7775 35.9199 17.5329 35.9199C17.1899 35.9199 16.847 35.9199 16.4612 35.9199C16.4612 50.2793 16.4612 64.553 16.4612 78.8695C18.4331 78.8695 20.3622 78.8695 22.3341 78.8695C22.3341 73.7259 22.3341 68.6679 22.3341 63.61C22.3341 62.0669 23.2343 61.1668 24.7347 61.1668C26.8781 61.1668 29.0643 61.1668 31.2077 61.1668C31.5078 61.1668 31.765 61.1668 32.065 61.1668C32.065 56.0231 32.065 51.008 32.065 45.9929C32.065 44.2355 32.8795 43.3782 34.68 43.3782C40.3385 43.3782 45.997 43.3782 51.6556 43.3782C53.4132 43.3782 54.2705 44.2355 54.2705 45.9929C54.2705 48.822 54.2705 51.6938 54.2705 54.5229C54.2705 54.78 54.3134 54.9944 54.3134 55.3373C56.0281 53.9228 57.4856 54.0514 59.1146 55.5945C59.9719 55.2515 60.7864 54.9086 61.6438 54.5229C61.6438 54.3943 61.6866 54.2657 61.6866 54.1371C61.7724 52.0367 62.8441 51.008 64.9446 51.008C66.0591 51.008 67.1308 51.008 68.2454 51.008ZM56.7568 84.9991C57.014 84.699 57.2713 84.399 57.5285 84.1418C58.4716 83.1988 58.7716 83.1988 59.929 83.756C61.0007 84.2704 62.1582 84.699 63.2727 85.1277C64.0015 85.3848 64.3873 85.8563 64.3873 86.6279C64.3873 87.1851 64.3873 87.7423 64.3873 88.2567C66.1877 88.2567 67.8596 88.2567 69.5743 88.2567C69.5743 87.7852 69.5743 87.3566 69.5743 86.9279C69.5743 85.7277 69.8315 85.4277 70.9889 84.9991C72.0606 84.6133 73.1323 84.1846 74.1611 83.6703C75.0185 83.2416 75.6615 83.2845 76.3045 83.9703C76.6475 84.3132 76.9904 84.6562 77.2476 84.8705C78.4908 83.5846 79.6911 82.4272 81.02 81.0556C80.8056 80.8841 80.4627 80.7127 80.2055 80.4555C79.2195 79.5125 79.2195 79.2124 79.8197 77.9694C80.2912 76.9835 80.7199 75.9119 81.0628 74.8832C81.3629 73.983 81.8773 73.5544 82.8204 73.5973C83.292 73.5973 83.8064 73.5973 84.2779 73.5973C84.2779 71.797 84.2779 70.1682 84.2779 68.4108C83.7206 68.4108 83.1633 68.4108 82.6489 68.4108C81.8344 68.4108 81.4058 68.025 81.1486 67.2963C80.677 66.0532 80.1626 64.853 79.6482 63.61C79.3481 62.9242 79.391 62.3241 79.9054 61.8526C80.2912 61.4668 80.7628 61.1668 81.1057 60.9096C79.7339 59.4951 78.5336 58.3377 77.1619 56.9232C76.9475 57.2233 76.6903 57.6091 76.3903 57.9091C75.5758 58.7664 75.1899 58.7664 74.1183 58.252C73.0894 57.7805 72.0177 57.309 70.9461 56.9232C69.8744 56.5374 69.6171 56.1945 69.5743 55.0372C69.5743 54.6086 69.5743 54.1799 69.5743 53.7084C67.7738 53.7084 66.1449 53.7084 64.3873 53.7084C64.3873 54.2657 64.3873 54.78 64.3873 55.2515C64.4302 56.1088 64.0015 56.5803 63.187 56.8804C61.9867 57.309 60.8293 57.7805 59.6719 58.3377C58.9431 58.6806 58.3001 58.6378 57.7428 58.0377C57.3999 57.6519 57.0569 57.2233 56.7568 56.8804C55.4279 58.2091 54.2276 59.4093 52.8559 60.8238C53.1559 61.0382 53.5418 61.2525 53.8847 61.5525C54.7421 62.4098 54.7421 62.7527 54.2705 63.8243C53.7561 64.8959 53.2846 65.9675 52.8987 67.082C52.5987 67.9392 52.1271 68.3679 51.2269 68.3679C50.7125 68.3679 50.1981 68.3679 49.6837 68.3679C49.6837 70.1682 49.6837 71.797 49.6837 73.5544C50.2409 73.5544 50.7982 73.5544 51.3126 73.5544C52.0843 73.5544 52.5558 73.9402 52.8559 74.6689C53.3274 75.9119 53.8418 77.155 54.3991 78.3552C54.7421 79.0838 54.6563 79.6839 54.099 80.1983C53.7132 80.5412 53.2846 80.8413 52.8987 81.1413C54.3134 82.513 55.4708 83.6703 56.7568 84.9991ZM25.0347 78.8267C30.6933 78.8267 36.2232 78.8267 41.796 78.8267C41.796 73.8116 41.796 68.7965 41.796 63.8672C40.2099 63.8672 38.6667 63.8672 37.0806 63.8672C37.0806 65.496 37.0806 67.0391 37.0806 68.6251C37.0806 69.4823 36.6519 70.0396 35.8374 70.0396C34.2513 70.0824 32.6223 70.0824 31.0362 70.0396C30.2217 69.9967 29.8359 69.4823 29.7931 68.7108C29.7931 67.7678 29.7931 66.8248 29.7931 65.8818C29.7931 65.196 29.7931 64.553 29.7931 63.91C28.1212 63.91 26.578 63.91 25.0347 63.91C25.0347 68.8394 25.0347 73.8116 25.0347 78.8267ZM49.9409 61.081C50.3696 60.138 50.7554 59.3665 51.0983 58.5949C51.2698 58.1663 51.5698 57.6948 51.5698 57.2661C51.6127 53.837 51.6127 50.4079 51.5698 46.9788C51.5698 46.6788 51.527 46.4216 51.527 46.1215C49.9409 46.1215 48.3976 46.1215 46.8115 46.1215C46.8115 47.7504 46.8115 49.2935 46.8115 50.8366C46.8115 51.6938 46.3829 52.2511 45.5684 52.2511C43.9823 52.2939 42.3533 52.2939 40.7672 52.2511C39.9527 52.2082 39.524 51.7367 39.524 50.9223C39.524 49.9793 39.524 49.0363 39.524 48.0933C39.524 47.4074 39.524 46.7645 39.524 46.1215C37.8522 46.1215 36.309 46.1215 34.8086 46.1215C34.8086 51.1795 34.8086 56.1517 34.8086 61.1239C39.9956 61.081 45.0968 61.081 49.9409 61.081ZM51.527 78.8267C51.2698 78.2266 50.9697 77.6693 50.8411 77.0692C50.6696 76.4691 50.4124 76.2548 49.7265 76.212C48.0547 76.1262 47.0259 74.9689 47.0259 73.3401C47.0259 71.8399 47.0259 70.3396 47.0259 68.7965C47.0259 66.8248 48.0118 65.8389 49.9837 65.6675C50.241 65.6246 50.5839 65.3674 50.7125 65.1531C50.9268 64.7673 51.0554 64.2958 51.2269 63.8243C48.9549 63.8243 46.8115 63.8243 44.6253 63.8243C44.6253 68.8822 44.6253 73.8545 44.6253 78.8267C46.9401 78.8267 49.1693 78.8267 51.527 78.8267ZM44.1109 49.5506C44.1109 48.3505 44.1109 47.1931 44.1109 46.0787C43.4678 46.0787 42.8677 46.0787 42.2676 46.0787C42.2676 47.236 42.2676 48.3933 42.2676 49.5506C42.9106 49.5506 43.4678 49.5506 44.1109 49.5506ZM34.337 67.2963C34.337 66.0961 34.337 64.9388 34.337 63.8243C33.694 63.8243 33.0939 63.8243 32.4937 63.8243C32.4937 64.9816 32.4937 66.139 32.4937 67.2963C33.1367 67.2963 33.7369 67.2963 34.337 67.2963Z" fill="black"/>
<path d="M43.6393 0C53.456 6.34385 63.3156 12.6877 73.1323 19.0744C75.0185 20.2746 76.9047 21.5177 78.7908 22.7179C79.5625 23.1894 79.8625 23.7894 79.8625 24.6896C79.8197 34.634 79.8625 44.5784 79.8197 54.5229C79.8197 55.2515 80.034 55.8088 80.5913 56.2803C81.3629 57.0089 82.1345 57.7805 82.8633 58.5521C84.0636 59.7951 84.1064 61.3382 82.9061 62.5813C82.5203 62.967 82.4346 63.2671 82.7347 63.7386C82.8204 63.8243 82.8633 63.9529 82.8633 64.0815C83.1633 65.1102 83.5063 65.8818 84.8781 65.8389C85.9069 65.7961 86.8928 66.9962 86.9357 68.1107C87.0214 70.0396 87.0214 71.9684 86.9357 73.8973C86.8928 75.1832 85.8212 76.212 84.4922 76.2548C83.6349 76.2977 83.2919 76.6406 83.1205 77.3693C83.0776 77.4979 83.0347 77.6693 82.949 77.7979C82.5203 78.5266 82.4775 79.0839 83.1633 79.7697C84.1064 80.7555 83.935 82.2986 82.9919 83.3274C81.8344 84.5704 80.6341 85.7277 79.4339 86.8851C78.2764 87.9995 76.6903 87.9995 75.5329 86.9279C75.0614 86.4993 74.7184 86.4136 74.204 86.7565C74.0754 86.8422 73.9039 86.9279 73.7325 86.9708C72.7465 87.1851 72.3178 87.6995 72.2321 88.7711C72.1035 90.0999 70.9032 91 69.5743 91C67.9024 91 66.2735 91 64.6016 91C63.0155 91 61.8152 89.8855 61.8152 88.2996C61.8152 87.6995 61.6438 87.3566 61.0436 87.2709C60.8293 87.228 60.5721 87.1423 60.4006 87.0137C59.6718 86.585 59.0717 86.4993 58.3429 87.1851C57.3999 88.0853 55.8566 87.9995 54.8707 87.0565C53.5846 85.8563 52.2986 84.5704 51.0983 83.2845C50.7125 82.8559 50.541 82.2558 50.1981 81.6128C49.9837 81.6128 49.6408 81.6128 49.2979 81.6128C33.5654 81.6128 17.8758 81.6128 2.14339 81.6128C1.84331 81.6128 1.54323 81.6128 1.24316 81.6128C0.471542 81.57 0 81.0127 0 80.284C0 79.5554 0.514412 78.9981 1.28603 78.9981C2.44346 78.9553 3.60088 78.9981 4.88692 78.9981C4.88692 78.6123 4.88692 78.2694 4.88692 77.9265C4.88692 71.6684 4.88692 65.3674 4.88692 59.1093C4.88692 58.7235 4.92979 58.3377 5.01553 57.9948C5.22987 57.3947 5.7014 57.1375 6.34442 57.1804C6.98743 57.2233 7.41612 57.5662 7.54472 58.1663C7.63045 58.5521 7.63045 58.9378 7.63045 59.3236C7.63045 65.496 7.63045 71.7113 7.63045 77.8837C7.63045 78.2266 7.63045 78.5695 7.63045 78.9981C9.73096 78.9981 11.7029 78.9981 13.8034 78.9981C13.8034 78.6123 13.8034 78.2694 13.8034 77.9265C13.8034 64.2101 13.8034 50.5365 13.8034 36.8201C13.8034 36.22 13.6748 35.7913 13.1604 35.3198C12.7317 34.8912 12.3888 34.1625 12.3459 33.5624C12.2173 32.3194 12.2602 31.0763 12.303 29.8333C12.3459 28.4616 13.2461 27.5186 14.6179 27.3472C14.9608 27.3043 15.3466 27.3043 15.6896 27.3043C33.5225 27.3043 51.3984 27.3043 69.2313 27.3043C71.7605 27.3043 72.6179 28.2044 72.6179 30.7334C72.6179 31.505 72.6179 32.2765 72.6179 33.048C72.6179 34.1196 72.3178 35.0198 71.4176 35.6627C71.2461 35.7913 71.1175 36.1342 71.1175 36.3914C71.1175 41.2779 71.1175 46.1644 71.1175 51.0509C71.1175 51.3509 71.3319 51.6081 71.4605 51.9082C71.8034 52.6368 72.2321 53.3227 72.4464 54.0942C72.575 54.5229 72.6179 54.8229 73.0894 54.9943C73.7325 55.2087 74.3326 55.5087 74.9327 55.7659C75.7044 55.2944 76.4331 54.8658 77.3333 54.3085C77.3333 54.2228 77.3333 53.9228 77.3333 53.6227C77.3333 44.407 77.3333 35.1912 77.3333 26.0184C77.3333 25.3754 77.119 25.0325 76.6046 24.6896C65.7591 17.7028 54.9135 10.716 44.1109 3.72916C43.5536 3.34338 43.1249 3.34338 42.5248 3.68629C31.1648 10.716 19.8049 17.7028 8.40207 24.6896C7.84479 25.0325 7.58758 25.4183 7.63045 26.1041C7.67331 34.5911 7.63045 43.0353 7.63045 51.5224C7.63045 51.8653 7.63046 52.2511 7.58759 52.594C7.50185 53.3227 7.07318 53.7942 6.30156 53.7942C5.57281 53.837 5.01552 53.3655 4.92979 52.594C4.88692 52.3368 4.92979 52.0796 4.92979 51.7796C4.92979 42.9496 4.92979 34.0768 4.92979 25.2468C4.92979 24.1752 5.27273 23.4894 6.21582 22.9322C18.0473 15.6882 29.8788 8.35846 41.7103 1.0716C42.0961 0.857278 42.3962 0.557232 42.7391 0.300049C42.9534 1.96726e-06 43.2964 0 43.6393 0ZM68.2454 51.008C68.2454 45.9072 68.2454 40.935 68.2454 35.8771C67.8596 35.8771 67.5166 35.8771 67.2166 35.8771C61.8152 35.8771 56.4568 35.8771 51.0554 35.8771C49.4693 35.8771 47.8404 35.8771 46.2542 35.8771C45.3969 35.8771 44.7539 35.3198 44.7539 34.5483C44.711 33.8196 45.3112 33.2195 46.1685 33.1766C46.4686 33.1338 46.7687 33.1766 47.0687 33.1766C54.2705 33.1766 61.4723 33.1766 68.6312 33.1766C68.9741 33.1766 69.3171 33.1766 69.7458 33.1766C69.7458 32.0193 69.7458 30.9906 69.7458 29.8761C51.4412 29.8761 33.1796 29.8761 14.918 29.8761C14.918 30.9906 14.918 32.0193 14.918 33.1766C15.3038 33.1766 15.6467 33.1766 16.0325 33.1766C23.7058 33.1766 31.3792 33.1766 39.0525 33.1766C39.3954 33.1766 39.6955 33.1766 40.0384 33.2195C40.8101 33.3052 41.3245 33.8625 41.3245 34.5483C41.3245 35.2341 40.7672 35.8342 40.0384 35.9199C39.7812 35.9628 39.524 35.9199 39.2239 35.9199C31.9793 35.9199 24.7775 35.9199 17.5329 35.9199C17.1899 35.9199 16.847 35.9199 16.4612 35.9199C16.4612 50.2793 16.4612 64.553 16.4612 78.8695C18.4331 78.8695 20.3622 78.8695 22.3341 78.8695C22.3341 73.7259 22.3341 68.6679 22.3341 63.61C22.3341 62.0669 23.2343 61.1668 24.7347 61.1668C26.8781 61.1668 29.0643 61.1668 31.2077 61.1668C31.5078 61.1668 31.765 61.1668 32.065 61.1668C32.065 56.0231 32.065 51.008 32.065 45.9929C32.065 44.2355 32.8795 43.3782 34.68 43.3782C40.3385 43.3782 45.997 43.3782 51.6556 43.3782C53.4132 43.3782 54.2705 44.2355 54.2705 45.9929C54.2705 48.822 54.2705 51.6938 54.2705 54.5229C54.2705 54.78 54.3134 54.9944 54.3134 55.3373C56.0281 53.9228 57.4856 54.0514 59.1146 55.5945C59.9719 55.2515 60.7864 54.9086 61.6438 54.5229C61.6438 54.3943 61.6866 54.2657 61.6866 54.1371C61.7724 52.0367 62.8441 51.008 64.9446 51.008C66.0591 51.008 67.1308 51.008 68.2454 51.008ZM56.7568 84.9991C57.014 84.699 57.2713 84.399 57.5285 84.1418C58.4716 83.1988 58.7716 83.1988 59.929 83.756C61.0007 84.2704 62.1582 84.699 63.2727 85.1277C64.0015 85.3848 64.3873 85.8563 64.3873 86.6279C64.3873 87.1851 64.3873 87.7423 64.3873 88.2567C66.1877 88.2567 67.8596 88.2567 69.5743 88.2567C69.5743 87.7852 69.5743 87.3566 69.5743 86.9279C69.5743 85.7277 69.8315 85.4277 70.9889 84.9991C72.0606 84.6133 73.1323 84.1846 74.1611 83.6703C75.0185 83.2416 75.6615 83.2845 76.3045 83.9703C76.6475 84.3132 76.9904 84.6562 77.2476 84.8705C78.4908 83.5846 79.6911 82.4272 81.02 81.0556C80.8056 80.8841 80.4627 80.7127 80.2055 80.4555C79.2195 79.5125 79.2195 79.2124 79.8197 77.9694C80.2912 76.9835 80.7199 75.9119 81.0628 74.8832C81.3629 73.983 81.8773 73.5544 82.8204 73.5973C83.292 73.5973 83.8064 73.5973 84.2779 73.5973C84.2779 71.797 84.2779 70.1682 84.2779 68.4108C83.7206 68.4108 83.1633 68.4108 82.6489 68.4108C81.8344 68.4108 81.4058 68.025 81.1486 67.2963C80.677 66.0532 80.1626 64.853 79.6482 63.61C79.3481 62.9242 79.391 62.3241 79.9054 61.8526C80.2912 61.4668 80.7628 61.1668 81.1057 60.9096C79.7339 59.4951 78.5336 58.3377 77.1619 56.9232C76.9475 57.2233 76.6903 57.6091 76.3903 57.9091C75.5758 58.7664 75.1899 58.7664 74.1183 58.252C73.0894 57.7805 72.0177 57.309 70.9461 56.9232C69.8744 56.5374 69.6171 56.1945 69.5743 55.0372C69.5743 54.6086 69.5743 54.1799 69.5743 53.7084C67.7738 53.7084 66.1449 53.7084 64.3873 53.7084C64.3873 54.2657 64.3873 54.78 64.3873 55.2515C64.4302 56.1088 64.0015 56.5803 63.187 56.8804C61.9867 57.309 60.8293 57.7805 59.6719 58.3377C58.9431 58.6806 58.3001 58.6378 57.7428 58.0377C57.3999 57.6519 57.0569 57.2233 56.7568 56.8804C55.4279 58.2091 54.2276 59.4093 52.8559 60.8238C53.1559 61.0382 53.5418 61.2525 53.8847 61.5525C54.7421 62.4098 54.7421 62.7527 54.2705 63.8243C53.7561 64.8959 53.2846 65.9675 52.8987 67.082C52.5987 67.9392 52.1271 68.3679 51.2269 68.3679C50.7125 68.3679 50.1981 68.3679 49.6837 68.3679C49.6837 70.1682 49.6837 71.797 49.6837 73.5544C50.2409 73.5544 50.7982 73.5544 51.3126 73.5544C52.0843 73.5544 52.5558 73.9402 52.8559 74.6689C53.3274 75.9119 53.8418 77.155 54.3991 78.3552C54.7421 79.0838 54.6563 79.6839 54.099 80.1983C53.7132 80.5412 53.2846 80.8413 52.8987 81.1413C54.3134 82.513 55.4708 83.6703 56.7568 84.9991ZM25.0347 78.8267C30.6933 78.8267 36.2232 78.8267 41.796 78.8267C41.796 73.8116 41.796 68.7965 41.796 63.8672C40.2099 63.8672 38.6667 63.8672 37.0806 63.8672C37.0806 65.496 37.0806 67.0391 37.0806 68.6251C37.0806 69.4823 36.6519 70.0396 35.8374 70.0396C34.2513 70.0824 32.6223 70.0824 31.0362 70.0396C30.2217 69.9967 29.8359 69.4823 29.7931 68.7108C29.7931 67.7678 29.7931 66.8248 29.7931 65.8818C29.7931 65.196 29.7931 64.553 29.7931 63.91C28.1212 63.91 26.578 63.91 25.0347 63.91C25.0347 68.8394 25.0347 73.8116 25.0347 78.8267ZM49.9409 61.081C50.3696 60.138 50.7554 59.3665 51.0983 58.5949C51.2698 58.1663 51.5698 57.6948 51.5698 57.2661C51.6127 53.837 51.6127 50.4079 51.5698 46.9788C51.5698 46.6788 51.527 46.4216 51.527 46.1215C49.9409 46.1215 48.3976 46.1215 46.8115 46.1215C46.8115 47.7504 46.8115 49.2935 46.8115 50.8366C46.8115 51.6938 46.3829 52.2511 45.5684 52.2511C43.9823 52.2939 42.3533 52.2939 40.7672 52.2511C39.9527 52.2082 39.524 51.7367 39.524 50.9223C39.524 49.9793 39.524 49.0363 39.524 48.0933C39.524 47.4074 39.524 46.7645 39.524 46.1215C37.8522 46.1215 36.309 46.1215 34.8086 46.1215C34.8086 51.1795 34.8086 56.1517 34.8086 61.1239C39.9956 61.081 45.0968 61.081 49.9409 61.081ZM51.527 78.8267C51.2698 78.2266 50.9697 77.6693 50.8411 77.0692C50.6696 76.4691 50.4124 76.2548 49.7265 76.212C48.0547 76.1262 47.0259 74.9689 47.0259 73.3401C47.0259 71.8399 47.0259 70.3396 47.0259 68.7965C47.0259 66.8248 48.0118 65.8389 49.9837 65.6675C50.241 65.6246 50.5839 65.3674 50.7125 65.1531C50.9268 64.7673 51.0554 64.2958 51.2269 63.8243C48.9549 63.8243 46.8115 63.8243 44.6253 63.8243C44.6253 68.8822 44.6253 73.8545 44.6253 78.8267C46.9401 78.8267 49.1693 78.8267 51.527 78.8267ZM44.1109 49.5506C44.1109 48.3505 44.1109 47.1931 44.1109 46.0787C43.4678 46.0787 42.8677 46.0787 42.2676 46.0787C42.2676 47.236 42.2676 48.3933 42.2676 49.5506C42.9106 49.5506 43.4678 49.5506 44.1109 49.5506ZM34.337 67.2963C34.337 66.0961 34.337 64.9388 34.337 63.8243C33.694 63.8243 33.0939 63.8243 32.4937 63.8243C32.4937 64.9816 32.4937 66.139 32.4937 67.2963C33.1367 67.2963 33.7369 67.2963 34.337 67.2963Z" fill="url(#paint0_linear_6_576)"/>
<path d="M43.125 16.1588C42.3534 16.1588 41.5818 16.2017 40.8101 16.1588C39.9528 16.116 39.3955 15.5159 39.3955 14.7443C39.4384 14.0156 39.9528 13.4584 40.8101 13.4584C42.3963 13.4156 43.9395 13.4156 45.5256 13.4584C46.383 13.4584 46.8974 14.0156 46.8545 14.7872C46.8545 15.5587 46.3401 16.0731 45.4827 16.116C44.7111 16.1588 43.9395 16.1588 43.125 16.1588Z" fill="black"/>
<path d="M43.125 16.1588C42.3534 16.1588 41.5818 16.2017 40.8101 16.1588C39.9528 16.116 39.3955 15.5159 39.3955 14.7443C39.4384 14.0156 39.9528 13.4584 40.8101 13.4584C42.3963 13.4156 43.9395 13.4156 45.5256 13.4584C46.383 13.4584 46.8974 14.0156 46.8545 14.7872C46.8545 15.5587 46.3401 16.0731 45.4827 16.116C44.7111 16.1588 43.9395 16.1588 43.125 16.1588Z" fill="url(#paint1_linear_6_576)"/>
<path d="M43.1679 18.8178C43.9824 18.8178 44.754 18.7749 45.5685 18.8178C46.3829 18.8607 46.8545 19.3322 46.8545 20.1037C46.8545 20.8753 46.3829 21.4754 45.5685 21.4754C43.9823 21.5182 42.3534 21.5182 40.7673 21.4754C39.9528 21.4754 39.3955 20.8753 39.3955 20.1466C39.3955 19.4179 39.9528 18.8607 40.7673 18.8178C41.5818 18.7749 42.3534 18.7749 43.1679 18.8178C43.1679 18.7749 43.1679 18.7749 43.1679 18.8178Z" fill="black"/>
<path d="M43.1679 18.8178C43.9824 18.8178 44.754 18.7749 45.5685 18.8178C46.3829 18.8607 46.8545 19.3322 46.8545 20.1037C46.8545 20.8753 46.3829 21.4754 45.5685 21.4754C43.9823 21.5182 42.3534 21.5182 40.7673 21.4754C39.9528 21.4754 39.3955 20.8753 39.3955 20.1466C39.3955 19.4179 39.9528 18.8607 40.7673 18.8178C41.5818 18.7749 42.3534 18.7749 43.1679 18.8178C43.1679 18.7749 43.1679 18.7749 43.1679 18.8178Z" fill="url(#paint2_linear_6_576)"/>
<path d="M67.0023 78.9118C62.5869 78.9118 59.0718 75.3541 59.0718 70.9391C59.0718 66.5241 62.5869 63.0093 67.0452 63.0093C71.4605 63.0093 75.0186 66.567 75.0186 70.9391C74.9757 75.3969 71.4177 78.9118 67.0023 78.9118ZM72.275 70.9391C72.275 68.0244 69.9173 65.7097 67.0023 65.7097C64.1302 65.7097 61.7296 68.0672 61.7296 70.9391C61.7296 73.8538 64.0873 76.2113 67.0452 76.2113C70.003 76.2113 72.275 73.8538 72.275 70.9391Z" fill="black"/>
<path d="M67.0023 78.9118C62.5869 78.9118 59.0718 75.3541 59.0718 70.9391C59.0718 66.5241 62.5869 63.0093 67.0452 63.0093C71.4605 63.0093 75.0186 66.567 75.0186 70.9391C74.9757 75.3969 71.4177 78.9118 67.0023 78.9118ZM72.275 70.9391C72.275 68.0244 69.9173 65.7097 67.0023 65.7097C64.1302 65.7097 61.7296 68.0672 61.7296 70.9391C61.7296 73.8538 64.0873 76.2113 67.0452 76.2113C70.003 76.2113 72.275 73.8538 72.275 70.9391Z" fill="url(#paint3_linear_6_576)"/>
<defs>
<linearGradient id="paint0_linear_6_576" x1="-16.0637" y1="-3.5168e-05" x2="73.7215" y2="2.09499" gradientUnits="userSpaceOnUse">
<stop stop-color="#37DADA"/>
<stop offset="1" stop-color="#254DB5"/>
</linearGradient>
<linearGradient id="paint1_linear_6_576" x1="38.0178" y1="13.4263" x2="45.6888" y2="13.9339" gradientUnits="userSpaceOnUse">
<stop stop-color="#37DADA"/>
<stop offset="1" stop-color="#254DB5"/>
</linearGradient>
<linearGradient id="paint2_linear_6_576" x1="38.0183" y1="18.7856" x2="45.6859" y2="19.2985" gradientUnits="userSpaceOnUse">
<stop stop-color="#37DADA"/>
<stop offset="1" stop-color="#254DB5"/>
</linearGradient>
<linearGradient id="paint3_linear_6_576" x1="56.1274" y1="63.0093" x2="72.5838" y2="63.412" gradientUnits="userSpaceOnUse">
<stop stop-color="#37DADA"/>
<stop offset="1" stop-color="#254DB5"/>
</linearGradient>
</defs>
</svg>
