<svg width="91" height="91" viewBox="0 0 91 91" fill="none" xmlns="http://www.w3.org/2000/svg">
<path d="M21.3914 0C22.7284 0.445655 24.511 0.445655 25.848 0.89131C37.8807 4.90221 42.7829 19.1632 36.0981 29.8589C31.6415 36.9894 27.185 44.5655 22.7284 51.696V52.1416C23.6197 53.033 24.0654 53.9243 24.9567 55.2612C27.6306 55.2612 30.3045 55.2612 32.9785 55.2612C35.2067 55.2612 37.8807 55.2612 40.109 55.2612C44.5655 55.7069 47.6851 60.1634 47.6851 64.62C47.2394 69.0765 43.6742 72.6418 39.2176 72.6418C32.0872 72.6418 24.9567 72.6418 18.2719 72.6418C17.3805 72.6418 16.9349 72.6418 16.0436 73.0874C13.8153 73.9787 12.0327 76.207 12.4783 78.881C12.924 81.5549 15.1523 83.3375 17.8262 83.3375C23.6197 83.3375 28.9676 83.3375 34.7611 83.3375C35.2067 83.3375 35.2067 83.3375 35.6524 83.3375C36.5437 83.3375 37.435 84.2288 37.435 85.1201C37.435 86.0114 36.5437 86.9027 35.6524 86.9027H35.2067C29.4132 86.9027 23.6197 86.9027 17.8262 86.9027C12.924 86.9027 8.9131 82.8918 8.9131 77.9896C8.9131 73.0874 12.924 69.5222 17.8262 69.0765C24.9567 69.0765 32.0872 69.0765 38.772 69.0765C41.4459 69.0765 43.6742 67.2939 44.1199 65.0656C45.0112 61.9461 42.3372 58.8265 39.2176 58.8265C34.3154 58.8265 29.8589 58.8265 24.9567 58.8265C24.0654 61.0547 22.2828 62.3917 19.6088 62.3917C17.3805 62.3917 15.5979 61.0547 15.1523 58.8265C14.261 56.1525 15.1523 54.3699 17.3805 52.5873C17.3805 52.1416 16.9349 52.1416 16.9349 51.696C12.4783 44.1199 8.02179 36.9894 3.56524 29.4132C1.33697 27.185 0.445655 24.9567 0 21.8371C0 21.3914 0 21.3914 0 20.9458C0 20.0545 0 18.7175 0 17.8262C0 17.3805 0 17.3805 0 16.9349C1.33697 9.35876 5.34786 4.45655 12.4783 1.33697C13.8153 0.89131 16.0436 0.445655 17.8262 0C18.7175 0 20.0545 0 21.3914 0ZM19.6088 49.9134C19.6088 49.4677 20.0545 49.4677 20.0545 49.4677C24.511 42.3372 28.9676 34.7611 33.4241 27.6306C34.7611 25.4023 35.2067 23.1741 35.6524 20.5001C36.0981 10.2501 27.6306 2.67393 17.8262 3.56524C6.23917 4.90221 0 17.8262 5.79352 27.6306C10.2501 34.7611 14.7066 41.8916 18.7175 49.0221C19.1632 49.4677 19.1632 49.9134 19.6088 49.9134ZM21.3914 57.0438C21.3914 56.1525 20.5001 55.2612 19.6088 55.2612C18.7175 55.2612 17.8262 56.1525 17.8262 57.0438C17.8262 57.9352 18.7175 58.8265 19.6088 58.8265C20.5001 58.8265 21.3914 57.9352 21.3914 57.0438Z" fill="#E8A869"/>
<path d="M21.3914 0C22.7284 0.445655 24.511 0.445655 25.848 0.89131C37.8807 4.90221 42.7829 19.1632 36.0981 29.8589C31.6415 36.9894 27.185 44.5655 22.7284 51.696V52.1416C23.6197 53.033 24.0654 53.9243 24.9567 55.2612C27.6306 55.2612 30.3045 55.2612 32.9785 55.2612C35.2067 55.2612 37.8807 55.2612 40.109 55.2612C44.5655 55.7069 47.6851 60.1634 47.6851 64.62C47.2394 69.0765 43.6742 72.6418 39.2176 72.6418C32.0872 72.6418 24.9567 72.6418 18.2719 72.6418C17.3805 72.6418 16.9349 72.6418 16.0436 73.0874C13.8153 73.9787 12.0327 76.207 12.4783 78.881C12.924 81.5549 15.1523 83.3375 17.8262 83.3375C23.6197 83.3375 28.9676 83.3375 34.7611 83.3375C35.2067 83.3375 35.2067 83.3375 35.6524 83.3375C36.5437 83.3375 37.435 84.2288 37.435 85.1201C37.435 86.0114 36.5437 86.9027 35.6524 86.9027H35.2067C29.4132 86.9027 23.6197 86.9027 17.8262 86.9027C12.924 86.9027 8.9131 82.8918 8.9131 77.9896C8.9131 73.0874 12.924 69.5222 17.8262 69.0765C24.9567 69.0765 32.0872 69.0765 38.772 69.0765C41.4459 69.0765 43.6742 67.2939 44.1199 65.0656C45.0112 61.9461 42.3372 58.8265 39.2176 58.8265C34.3154 58.8265 29.8589 58.8265 24.9567 58.8265C24.0654 61.0547 22.2828 62.3917 19.6088 62.3917C17.3805 62.3917 15.5979 61.0547 15.1523 58.8265C14.261 56.1525 15.1523 54.3699 17.3805 52.5873C17.3805 52.1416 16.9349 52.1416 16.9349 51.696C12.4783 44.1199 8.02179 36.9894 3.56524 29.4132C1.33697 27.185 0.445655 24.9567 0 21.8371C0 21.3914 0 21.3914 0 20.9458C0 20.0545 0 18.7175 0 17.8262C0 17.3805 0 17.3805 0 16.9349C1.33697 9.35876 5.34786 4.45655 12.4783 1.33697C13.8153 0.89131 16.0436 0.445655 17.8262 0C18.7175 0 20.0545 0 21.3914 0ZM19.6088 49.9134C19.6088 49.4677 20.0545 49.4677 20.0545 49.4677C24.511 42.3372 28.9676 34.7611 33.4241 27.6306C34.7611 25.4023 35.2067 23.1741 35.6524 20.5001C36.0981 10.2501 27.6306 2.67393 17.8262 3.56524C6.23917 4.90221 0 17.8262 5.79352 27.6306C10.2501 34.7611 14.7066 41.8916 18.7175 49.0221C19.1632 49.4677 19.1632 49.9134 19.6088 49.9134ZM21.3914 57.0438C21.3914 56.1525 20.5001 55.2612 19.6088 55.2612C18.7175 55.2612 17.8262 56.1525 17.8262 57.0438C17.8262 57.9352 18.7175 58.8265 19.6088 58.8265C20.5001 58.8265 21.3914 57.9352 21.3914 57.0438Z" fill="url(#paint0_linear_55_101)"/>
<path d="M73.9785 81.1093C75.7611 82.4463 76.6524 84.2289 76.2068 86.9028C75.7611 89.1311 73.9785 90.9137 71.7502 90.9137C69.522 91.3594 67.2937 90.0224 66.4024 88.2398C65.9567 87.7941 65.9567 87.3485 65.0654 87.3485C60.6089 87.3485 55.7067 87.3485 51.2501 87.3485C50.8044 87.3485 50.8044 87.3485 50.3588 87.3485C49.4675 87.3485 48.5762 86.4572 48.5762 85.5659C48.5762 84.6745 49.4675 83.7832 50.3588 83.7832C52.1414 83.7832 53.4784 83.7832 55.261 83.7832C58.8262 83.7832 61.9458 83.7832 65.5111 83.7832C65.9567 83.7832 66.4024 83.7832 66.4024 83.3376C66.848 82.4463 67.7393 82.0006 68.185 81.1093C68.185 81.1093 68.185 80.6637 67.7393 80.6637C63.2828 73.5332 58.8262 66.8483 54.3697 59.7179C46.7936 47.6852 53.924 32.5329 67.7393 30.3046C78.4351 28.522 88.6851 36.5438 90.0221 47.2395C90.4677 51.6961 89.5764 56.1526 87.3482 59.7179C82.8916 66.8483 78.4351 73.5332 73.9785 80.218C74.4242 80.218 74.4242 80.6637 73.9785 81.1093ZM71.3046 78.4354C71.3046 77.9897 71.7502 77.9897 71.7502 77.9897C76.2068 70.8592 80.6633 64.1744 85.1199 57.0439C87.3482 53.9244 87.7938 50.3591 87.3482 46.7939C86.4569 40.5547 82.8916 36.0981 77.0981 33.8699C70.8589 31.6416 65.5111 32.9786 60.6089 37.4351C55.261 42.783 53.924 50.8048 57.9349 57.4896C61.9458 63.7288 65.9567 69.9679 69.9676 76.2071C70.4133 77.0984 70.8589 77.9897 71.3046 78.4354ZM71.3046 87.3485C72.1959 87.3485 73.0872 86.4572 73.0872 85.5659C73.0872 84.6745 72.1959 83.7832 71.3046 83.7832C70.4133 83.7832 69.522 84.6745 69.522 85.5659C69.522 86.4572 70.4133 87.3485 71.3046 87.3485Z" fill="#E8A869"/>
<path d="M73.9785 81.1093C75.7611 82.4463 76.6524 84.2289 76.2068 86.9028C75.7611 89.1311 73.9785 90.9137 71.7502 90.9137C69.522 91.3594 67.2937 90.0224 66.4024 88.2398C65.9567 87.7941 65.9567 87.3485 65.0654 87.3485C60.6089 87.3485 55.7067 87.3485 51.2501 87.3485C50.8044 87.3485 50.8044 87.3485 50.3588 87.3485C49.4675 87.3485 48.5762 86.4572 48.5762 85.5659C48.5762 84.6745 49.4675 83.7832 50.3588 83.7832C52.1414 83.7832 53.4784 83.7832 55.261 83.7832C58.8262 83.7832 61.9458 83.7832 65.5111 83.7832C65.9567 83.7832 66.4024 83.7832 66.4024 83.3376C66.848 82.4463 67.7393 82.0006 68.185 81.1093C68.185 81.1093 68.185 80.6637 67.7393 80.6637C63.2828 73.5332 58.8262 66.8483 54.3697 59.7179C46.7936 47.6852 53.924 32.5329 67.7393 30.3046C78.4351 28.522 88.6851 36.5438 90.0221 47.2395C90.4677 51.6961 89.5764 56.1526 87.3482 59.7179C82.8916 66.8483 78.4351 73.5332 73.9785 80.218C74.4242 80.218 74.4242 80.6637 73.9785 81.1093ZM71.3046 78.4354C71.3046 77.9897 71.7502 77.9897 71.7502 77.9897C76.2068 70.8592 80.6633 64.1744 85.1199 57.0439C87.3482 53.9244 87.7938 50.3591 87.3482 46.7939C86.4569 40.5547 82.8916 36.0981 77.0981 33.8699C70.8589 31.6416 65.5111 32.9786 60.6089 37.4351C55.261 42.783 53.924 50.8048 57.9349 57.4896C61.9458 63.7288 65.9567 69.9679 69.9676 76.2071C70.4133 77.0984 70.8589 77.9897 71.3046 78.4354ZM71.3046 87.3485C72.1959 87.3485 73.0872 86.4572 73.0872 85.5659C73.0872 84.6745 72.1959 83.7832 71.3046 83.7832C70.4133 83.7832 69.522 84.6745 69.522 85.5659C69.522 86.4572 70.4133 87.3485 71.3046 87.3485Z" fill="url(#paint1_linear_55_101)"/>
<path d="M42.7826 87.3484C41.8913 87.3484 41 86.4571 41 85.5658C41 84.6745 41.8913 83.7832 42.7826 83.7832C43.6739 83.7832 44.5652 84.6745 44.5652 85.5658C44.5652 86.4571 43.6739 87.3484 42.7826 87.3484Z" fill="#E8A869"/>
<path d="M42.7826 87.3484C41.8913 87.3484 41 86.4571 41 85.5658C41 84.6745 41.8913 83.7832 42.7826 83.7832C43.6739 83.7832 44.5652 84.6745 44.5652 85.5658C44.5652 86.4571 43.6739 87.3484 42.7826 87.3484Z" fill="url(#paint2_linear_55_101)"/>
<path d="M19.6089 28.522C14.7067 28.522 10.6958 24.5111 10.6958 19.6089C10.6958 14.7067 14.7067 10.6958 19.6089 10.6958C24.5111 10.6958 28.522 14.7067 28.522 19.6089C28.522 24.5111 24.5111 28.522 19.6089 28.522ZM24.9568 19.6089C24.9568 16.4893 22.7285 14.261 19.6089 14.261C16.4893 14.261 14.261 16.4893 14.261 19.6089C14.261 22.7285 16.4893 24.9568 19.6089 24.9568C22.2828 24.9568 24.9568 22.2828 24.9568 19.6089Z" fill="#E8A869"/>
<path d="M19.6089 28.522C14.7067 28.522 10.6958 24.5111 10.6958 19.6089C10.6958 14.7067 14.7067 10.6958 19.6089 10.6958C24.5111 10.6958 28.522 14.7067 28.522 19.6089C28.522 24.5111 24.5111 28.522 19.6089 28.522ZM24.9568 19.6089C24.9568 16.4893 22.7285 14.261 19.6089 14.261C16.4893 14.261 14.261 16.4893 14.261 19.6089C14.261 22.7285 16.4893 24.9568 19.6089 24.9568C22.2828 24.9568 24.9568 22.2828 24.9568 19.6089Z" fill="url(#paint3_linear_55_101)"/>
<path d="M71.3047 40.1089C76.2069 40.1089 80.2178 44.1198 80.2178 49.022C80.2178 53.9242 76.2069 57.9351 71.3047 57.9351C66.4025 57.9351 62.3916 53.9242 62.3916 49.022C62.3916 44.1198 66.4025 40.1089 71.3047 40.1089ZM71.3047 43.6741C68.1851 43.6741 65.9568 45.9024 65.9568 49.022C65.9568 52.1416 68.1851 54.3698 71.3047 54.3698C74.4243 54.3698 76.6526 52.1416 76.6526 49.022C76.6526 45.9024 74.4243 43.6741 71.3047 43.6741Z" fill="#E8A869"/>
<path d="M71.3047 40.1089C76.2069 40.1089 80.2178 44.1198 80.2178 49.022C80.2178 53.9242 76.2069 57.9351 71.3047 57.9351C66.4025 57.9351 62.3916 53.9242 62.3916 49.022C62.3916 44.1198 66.4025 40.1089 71.3047 40.1089ZM71.3047 43.6741C68.1851 43.6741 65.9568 45.9024 65.9568 49.022C65.9568 52.1416 68.1851 54.3698 71.3047 54.3698C74.4243 54.3698 76.6526 52.1416 76.6526 49.022C76.6526 45.9024 74.4243 43.6741 71.3047 43.6741Z" fill="url(#paint4_linear_55_101)"/>
<defs>
<linearGradient id="paint0_linear_55_101" x1="-8.8046" y1="-3.35846e-05" x2="40.4251" y2="0.659265" gradientUnits="userSpaceOnUse">
<stop stop-color="#37DADA"/>
<stop offset="1" stop-color="#254DB5"/>
</linearGradient>
<linearGradient id="paint1_linear_55_101" x1="40.903" y1="30.0559" x2="83.8022" y2="30.7698" gradientUnits="userSpaceOnUse">
<stop stop-color="#37DADA"/>
<stop offset="1" stop-color="#254DB5"/>
</linearGradient>
<linearGradient id="paint2_linear_55_101" x1="40.3417" y1="83.7832" x2="44.0209" y2="83.873" gradientUnits="userSpaceOnUse">
<stop stop-color="#37DADA"/>
<stop offset="1" stop-color="#254DB5"/>
</linearGradient>
<linearGradient id="paint3_linear_55_101" x1="7.40436" y1="10.6958" x2="25.8003" y2="11.1448" gradientUnits="userSpaceOnUse">
<stop stop-color="#37DADA"/>
<stop offset="1" stop-color="#254DB5"/>
</linearGradient>
<linearGradient id="paint4_linear_55_101" x1="59.1002" y1="40.1089" x2="77.4961" y2="40.5579" gradientUnits="userSpaceOnUse">
<stop stop-color="#37DADA"/>
<stop offset="1" stop-color="#254DB5"/>
</linearGradient>
</defs>
</svg>
