<svg width="102" height="91" viewBox="0 0 102 91" fill="none" xmlns="http://www.w3.org/2000/svg">
<path d="M59.2214 67.7213C59.5093 63.2089 56.0778 59.1305 51.3984 58.8319C46.7189 58.5333 42.6404 61.9648 42.3418 66.6442C42.3103 67.1386 42.3373 67.6368 42.4227 68.1386C42.5347 68.7965 42.4114 69.4901 41.969 69.9897C41.0939 70.9779 39.5159 70.756 39.2398 69.4653C39.0169 68.4233 38.9414 67.339 39.01 66.2638C39.4259 59.746 45.1045 54.9064 51.6223 55.3223C57.973 55.7275 62.9797 61.4167 62.5745 67.7674C62.3409 71.4287 59.0258 70.7871 59.2214 67.7213Z" fill="#1976D2"/>
<path d="M59.2214 67.7213C59.5093 63.2089 56.0778 59.1305 51.3984 58.8319C46.7189 58.5333 42.6404 61.9648 42.3418 66.6442C42.3103 67.1386 42.3373 67.6368 42.4227 68.1386C42.5347 68.7965 42.4114 69.4901 41.969 69.9897C41.0939 70.9779 39.5159 70.756 39.2398 69.4653C39.0169 68.4233 38.9414 67.339 39.01 66.2638C39.4259 59.746 45.1045 54.9064 51.6223 55.3223C57.973 55.7275 62.9797 61.4167 62.5745 67.7674C62.3409 71.4287 59.0258 70.7871 59.2214 67.7213Z" fill="url(#paint0_linear_55_132)"/>
<path d="M1.77497 24.1553C0.810966 24.6361 0.0218626 25.2261 0 26.559C0.0744695 26.6869 0.14279 26.8189 0.210428 26.9501C0.272599 27.0712 0.334771 27.1915 0.400359 27.3069C0.461847 27.4152 0.527435 27.5192 0.600538 27.6156C0.639481 27.6663 0.67979 27.715 0.722832 27.7609C1.5338 28.6349 2.51966 28.5039 3.48367 28.0231C4.89722 27.3238 6.31009 26.6136 7.72296 25.9035C9.13652 25.1933 10.5501 24.4831 11.9629 23.7838C23.5529 18.0148 35.1434 12.2458 46.7552 6.47699C47.1604 6.27852 47.5648 6.03393 47.9693 5.78935C48.9012 5.22621 49.8331 4.66325 50.765 4.66325C51.6968 4.66325 52.6294 5.22656 53.5613 5.78986C53.9658 6.03428 54.3702 6.27869 54.7747 6.47699L73.9673 16.0482C78.8276 18.4586 83.6798 20.8769 88.5285 23.2936L88.5346 23.2967C91.7717 24.9102 95.0073 26.5231 98.2437 28.1324C99.0321 28.5039 99.8431 28.5258 100.588 28.0012C101.289 27.4987 101.64 26.712 101.333 25.9909C101.07 25.3135 100.522 24.6142 99.8868 24.2427C99.5807 24.0626 99.2699 23.8885 98.9563 23.7192C98.6106 23.5329 98.2614 23.3522 97.9096 23.1751C97.3671 22.9018 96.8192 22.6367 96.2719 22.372L96.2494 22.3607L96.2248 22.3489C95.6687 22.0797 95.1125 21.8105 94.5626 21.533C90.8637 19.6938 87.1703 17.8546 83.4769 16.0154C79.6666 14.118 75.8557 12.2204 72.0393 10.3229C65.3569 6.97949 58.6526 3.65808 51.9701 0.314645C51.181 -0.0787114 50.4363 -0.122437 49.626 0.292782C45.7475 2.2377 41.8696 4.13872 38.0136 6.06177L11.5243 19.3042C9.99257 20.0631 8.46561 20.8219 6.94069 21.5808C5.21696 22.4389 3.49597 23.297 1.77497 24.1553Z" fill="#1976D2"/>
<path d="M1.77497 24.1553C0.810966 24.6361 0.0218626 25.2261 0 26.559C0.0744695 26.6869 0.14279 26.8189 0.210428 26.9501C0.272599 27.0712 0.334771 27.1915 0.400359 27.3069C0.461847 27.4152 0.527435 27.5192 0.600538 27.6156C0.639481 27.6663 0.67979 27.715 0.722832 27.7609C1.5338 28.6349 2.51966 28.5039 3.48367 28.0231C4.89722 27.3238 6.31009 26.6136 7.72296 25.9035C9.13652 25.1933 10.5501 24.4831 11.9629 23.7838C23.5529 18.0148 35.1434 12.2458 46.7552 6.47699C47.1604 6.27852 47.5648 6.03393 47.9693 5.78935C48.9012 5.22621 49.8331 4.66325 50.765 4.66325C51.6968 4.66325 52.6294 5.22656 53.5613 5.78986C53.9658 6.03428 54.3702 6.27869 54.7747 6.47699L73.9673 16.0482C78.8276 18.4586 83.6798 20.8769 88.5285 23.2936L88.5346 23.2967C91.7717 24.9102 95.0073 26.5231 98.2437 28.1324C99.0321 28.5039 99.8431 28.5258 100.588 28.0012C101.289 27.4987 101.64 26.712 101.333 25.9909C101.07 25.3135 100.522 24.6142 99.8868 24.2427C99.5807 24.0626 99.2699 23.8885 98.9563 23.7192C98.6106 23.5329 98.2614 23.3522 97.9096 23.1751C97.3671 22.9018 96.8192 22.6367 96.2719 22.372L96.2494 22.3607L96.2248 22.3489C95.6687 22.0797 95.1125 21.8105 94.5626 21.533C90.8637 19.6938 87.1703 17.8546 83.4769 16.0154C79.6666 14.118 75.8557 12.2204 72.0393 10.3229C65.3569 6.97949 58.6526 3.65808 51.9701 0.314645C51.181 -0.0787114 50.4363 -0.122437 49.626 0.292782C45.7475 2.2377 41.8696 4.13872 38.0136 6.06177L11.5243 19.3042C9.99257 20.0631 8.46561 20.8219 6.94069 21.5808C5.21696 22.4389 3.49597 23.297 1.77497 24.1553Z" fill="url(#paint1_linear_55_132)"/>
<path fill-rule="evenodd" clip-rule="evenodd" d="M4.12452 53.4795C4.12178 55.4912 4.11905 57.5022 4.11905 59.5119L4.12452 65.5752C4.13271 71.6405 4.14091 77.7089 4.07533 83.7896C4.05346 86.106 5.10492 87.1549 7.47154 87.1549C18.4917 87.1112 29.5343 87.1331 40.5551 87.1549C40.7205 87.1549 40.9056 87.1662 41.0894 87.1939C41.4166 87.2432 41.7384 87.3444 41.9352 87.5264C44.9153 90.4545 48.4865 91.3724 52.5836 90.8697C55.1252 90.5638 57.3599 89.6679 59.1568 87.8761C59.7703 87.2641 60.3831 87.1112 61.1941 87.1112C72.3023 87.1331 83.3887 87.1331 94.497 87.1112C96.4031 87.1112 97.4546 86.3901 97.4546 84.183C97.4327 67.7939 97.4546 51.4048 97.4546 35.0157C97.4546 33.7484 97.0166 32.7213 95.9433 32.1095C94.497 31.2791 93.0513 30.4705 91.5175 29.815C86.5438 27.6953 81.3296 26.559 75.9397 26.3843C72.1712 26.2531 68.4026 26.2968 64.6559 26.9523C60.3613 27.6953 56.1766 28.7661 52.3643 30.9295C51.291 31.5413 50.3926 31.5631 49.2749 30.9513C43.8851 27.9794 37.9917 26.7558 31.9447 26.4061C27.9568 26.1656 23.9696 26.2531 20.0036 26.9523C15.0961 27.8046 10.451 29.2688 6.13451 31.738C4.75443 32.5246 4.05346 33.6391 4.07533 35.3653C4.14091 41.3974 4.13271 47.4415 4.12452 53.4795ZM48.8151 74.9833C35.2746 69.258 21.866 69.2143 8.36928 74.9395L8.36108 74.8816C8.33785 74.7254 8.30369 74.4938 8.30369 74.2621L8.29959 52.7533C8.29686 47.3271 8.29139 41.9014 8.28183 36.4798C8.28183 36.0062 8.36449 35.66 8.57834 35.3797C8.73001 35.1817 8.94658 35.0167 9.24583 34.8628C13.2993 32.7651 17.5714 31.3447 22.129 30.9732C25.3715 30.6891 28.6578 30.4049 31.9009 30.5798C37.3563 30.8857 42.6143 32.1312 47.5006 34.6879C48.5083 35.2125 48.8369 35.8243 48.8369 36.9606L48.8315 38.5173C45.74 38.6842 43.4533 41.259 43.2565 44.4038C43.2565 45.4203 43.0529 46.2334 42.037 46.4367C41.0204 46.8432 40.4103 46.4367 39.5973 45.8268C37.1582 43.5908 33.7026 43.5908 31.2628 45.8268L28.0108 49.0793C26.7906 50.299 26.3841 51.722 26.3841 53.3482C26.3841 54.9744 26.9942 56.3973 28.2137 57.617C29.0267 58.43 29.0267 59.04 28.6202 59.853C28.2137 60.6662 27.6043 60.8694 26.7906 60.8694C23.5385 60.8694 21.0988 62.9023 20.6923 66.1547C20.3589 67.4905 20.2987 68.8266 20.2885 70.2751H24.1486V66.9679C24.1486 65.7482 24.9616 64.935 26.1811 64.935C28.8238 64.935 30.8563 63.7153 31.8729 61.2761C32.8895 58.8367 32.483 56.6006 30.6534 54.5679C29.8404 53.5514 29.8404 52.535 30.6534 51.5186L33.499 48.6727C34.5156 47.8596 35.5322 47.6564 36.3452 48.6727C37.5647 49.8924 38.9878 50.5023 40.4103 50.5023C43.8666 50.5023 46.5093 47.8596 46.7122 44.6071C46.7122 43.095 47.4152 42.4615 48.8219 42.3802L52.7087 42.3711H53.0141C54.2336 42.3711 55.0466 43.1841 55.0466 44.4038C55.0466 47.0465 56.2661 49.0793 58.7059 50.0956C61.3485 51.112 63.5846 50.7055 65.6172 48.8761C66.6338 47.8596 67.6497 47.8596 68.6663 48.8761L71.5126 51.722C72.3256 52.7383 72.5285 53.7547 71.5126 54.5679C69.6829 56.6006 69.0728 58.8367 70.2924 61.2761C71.309 63.7153 73.3415 64.935 75.9841 64.935C77.2043 64.935 78.0174 65.7482 78.0174 66.9679V70.2751H81.8795V66.9679C81.8795 63.7153 79.2369 61.0727 75.9841 60.8694C74.9682 60.8694 74.3581 60.4629 73.9516 59.6497C73.5451 58.8367 73.9516 58.0235 74.5617 57.4138C77.0008 54.9744 76.7978 51.3153 74.5617 48.8761L71.5126 45.8268C69.0728 43.3875 65.4143 43.3875 62.9745 45.8268C62.3644 46.4367 61.5514 46.8432 60.7384 46.4367C59.7218 46.03 59.5189 45.217 59.5189 44.4038C59.5189 41.5579 57.4863 38.9153 54.6401 38.712C53.9931 38.6401 53.3461 38.5937 52.6991 38.5636L52.693 36.6984C52.693 35.6931 53.0653 35.1906 53.8763 34.7754C57.8416 32.7432 62.0051 31.3228 66.4527 30.9513C69.6952 30.6673 72.9815 30.4268 76.2239 30.558C80.6279 30.7546 84.9663 31.6287 89.0634 33.355C90.2686 33.8577 91.4512 34.4258 92.5908 35.0594C92.9195 35.2343 93.2481 35.7587 93.2481 36.1302C93.2918 48.9793 93.2699 61.8283 93.2699 74.6774C93.2699 74.7865 93.2481 74.874 93.2262 74.9395C79.752 69.1924 66.299 69.2361 52.7148 74.9833C52.4089 74.6774 48.8151 74.9833 48.8151 74.9833ZM93.2481 80.4899C93.3137 81.1892 93.2699 81.9103 93.2699 82.7407H59.551C58.3895 82.7407 57.513 83.0466 56.7683 84.0518C55.4101 85.9093 53.4821 86.6523 51.2036 86.7178C48.399 86.8053 46.1198 86.0623 44.3455 83.724C43.9076 83.1341 42.768 82.8063 41.9571 82.8063C33.4566 82.7539 24.9555 82.7573 16.455 82.7609L8.2381 82.7626C8.2381 82.5055 8.23195 82.2589 8.2258 82.0201C8.21214 81.4877 8.19984 80.9946 8.25996 80.5118C8.30369 80.184 8.58858 79.7906 8.87348 79.6159C12.5765 77.4307 16.5418 76.0103 20.7927 75.5295C24.1008 75.158 27.4533 74.8521 30.7614 74.9395C36.2386 75.0926 41.5191 76.2943 46.471 78.6762C47.2854 79.0552 48.0396 79.5534 48.783 80.0477L49.253 80.3589C50.3489 81.0582 51.2692 80.9489 52.4081 80.2496C53.8544 79.3537 55.3445 78.4796 56.8995 77.8459C60.7999 76.2506 64.8752 75.2673 69.1036 75.0926C69.6419 75.0685 70.1824 75.036 70.7235 75.0034L70.7296 75.0029C72.1452 74.9179 73.5663 74.8325 74.9757 74.8958C80.6498 75.158 86.1714 76.2288 91.2982 78.8074C91.8243 79.0695 92.3278 79.3537 92.7883 79.7034C93.0069 79.8781 93.2262 80.2059 93.2481 80.4899Z" fill="#1976D2"/>
<path fill-rule="evenodd" clip-rule="evenodd" d="M4.12452 53.4795C4.12178 55.4912 4.11905 57.5022 4.11905 59.5119L4.12452 65.5752C4.13271 71.6405 4.14091 77.7089 4.07533 83.7896C4.05346 86.106 5.10492 87.1549 7.47154 87.1549C18.4917 87.1112 29.5343 87.1331 40.5551 87.1549C40.7205 87.1549 40.9056 87.1662 41.0894 87.1939C41.4166 87.2432 41.7384 87.3444 41.9352 87.5264C44.9153 90.4545 48.4865 91.3724 52.5836 90.8697C55.1252 90.5638 57.3599 89.6679 59.1568 87.8761C59.7703 87.2641 60.3831 87.1112 61.1941 87.1112C72.3023 87.1331 83.3887 87.1331 94.497 87.1112C96.4031 87.1112 97.4546 86.3901 97.4546 84.183C97.4327 67.7939 97.4546 51.4048 97.4546 35.0157C97.4546 33.7484 97.0166 32.7213 95.9433 32.1095C94.497 31.2791 93.0513 30.4705 91.5175 29.815C86.5438 27.6953 81.3296 26.559 75.9397 26.3843C72.1712 26.2531 68.4026 26.2968 64.6559 26.9523C60.3613 27.6953 56.1766 28.7661 52.3643 30.9295C51.291 31.5413 50.3926 31.5631 49.2749 30.9513C43.8851 27.9794 37.9917 26.7558 31.9447 26.4061C27.9568 26.1656 23.9696 26.2531 20.0036 26.9523C15.0961 27.8046 10.451 29.2688 6.13451 31.738C4.75443 32.5246 4.05346 33.6391 4.07533 35.3653C4.14091 41.3974 4.13271 47.4415 4.12452 53.4795ZM48.8151 74.9833C35.2746 69.258 21.866 69.2143 8.36928 74.9395L8.36108 74.8816C8.33785 74.7254 8.30369 74.4938 8.30369 74.2621L8.29959 52.7533C8.29686 47.3271 8.29139 41.9014 8.28183 36.4798C8.28183 36.0062 8.36449 35.66 8.57834 35.3797C8.73001 35.1817 8.94658 35.0167 9.24583 34.8628C13.2993 32.7651 17.5714 31.3447 22.129 30.9732C25.3715 30.6891 28.6578 30.4049 31.9009 30.5798C37.3563 30.8857 42.6143 32.1312 47.5006 34.6879C48.5083 35.2125 48.8369 35.8243 48.8369 36.9606L48.8315 38.5173C45.74 38.6842 43.4533 41.259 43.2565 44.4038C43.2565 45.4203 43.0529 46.2334 42.037 46.4367C41.0204 46.8432 40.4103 46.4367 39.5973 45.8268C37.1582 43.5908 33.7026 43.5908 31.2628 45.8268L28.0108 49.0793C26.7906 50.299 26.3841 51.722 26.3841 53.3482C26.3841 54.9744 26.9942 56.3973 28.2137 57.617C29.0267 58.43 29.0267 59.04 28.6202 59.853C28.2137 60.6662 27.6043 60.8694 26.7906 60.8694C23.5385 60.8694 21.0988 62.9023 20.6923 66.1547C20.3589 67.4905 20.2987 68.8266 20.2885 70.2751H24.1486V66.9679C24.1486 65.7482 24.9616 64.935 26.1811 64.935C28.8238 64.935 30.8563 63.7153 31.8729 61.2761C32.8895 58.8367 32.483 56.6006 30.6534 54.5679C29.8404 53.5514 29.8404 52.535 30.6534 51.5186L33.499 48.6727C34.5156 47.8596 35.5322 47.6564 36.3452 48.6727C37.5647 49.8924 38.9878 50.5023 40.4103 50.5023C43.8666 50.5023 46.5093 47.8596 46.7122 44.6071C46.7122 43.095 47.4152 42.4615 48.8219 42.3802L52.7087 42.3711H53.0141C54.2336 42.3711 55.0466 43.1841 55.0466 44.4038C55.0466 47.0465 56.2661 49.0793 58.7059 50.0956C61.3485 51.112 63.5846 50.7055 65.6172 48.8761C66.6338 47.8596 67.6497 47.8596 68.6663 48.8761L71.5126 51.722C72.3256 52.7383 72.5285 53.7547 71.5126 54.5679C69.6829 56.6006 69.0728 58.8367 70.2924 61.2761C71.309 63.7153 73.3415 64.935 75.9841 64.935C77.2043 64.935 78.0174 65.7482 78.0174 66.9679V70.2751H81.8795V66.9679C81.8795 63.7153 79.2369 61.0727 75.9841 60.8694C74.9682 60.8694 74.3581 60.4629 73.9516 59.6497C73.5451 58.8367 73.9516 58.0235 74.5617 57.4138C77.0008 54.9744 76.7978 51.3153 74.5617 48.8761L71.5126 45.8268C69.0728 43.3875 65.4143 43.3875 62.9745 45.8268C62.3644 46.4367 61.5514 46.8432 60.7384 46.4367C59.7218 46.03 59.5189 45.217 59.5189 44.4038C59.5189 41.5579 57.4863 38.9153 54.6401 38.712C53.9931 38.6401 53.3461 38.5937 52.6991 38.5636L52.693 36.6984C52.693 35.6931 53.0653 35.1906 53.8763 34.7754C57.8416 32.7432 62.0051 31.3228 66.4527 30.9513C69.6952 30.6673 72.9815 30.4268 76.2239 30.558C80.6279 30.7546 84.9663 31.6287 89.0634 33.355C90.2686 33.8577 91.4512 34.4258 92.5908 35.0594C92.9195 35.2343 93.2481 35.7587 93.2481 36.1302C93.2918 48.9793 93.2699 61.8283 93.2699 74.6774C93.2699 74.7865 93.2481 74.874 93.2262 74.9395C79.752 69.1924 66.299 69.2361 52.7148 74.9833C52.4089 74.6774 48.8151 74.9833 48.8151 74.9833ZM93.2481 80.4899C93.3137 81.1892 93.2699 81.9103 93.2699 82.7407H59.551C58.3895 82.7407 57.513 83.0466 56.7683 84.0518C55.4101 85.9093 53.4821 86.6523 51.2036 86.7178C48.399 86.8053 46.1198 86.0623 44.3455 83.724C43.9076 83.1341 42.768 82.8063 41.9571 82.8063C33.4566 82.7539 24.9555 82.7573 16.455 82.7609L8.2381 82.7626C8.2381 82.5055 8.23195 82.2589 8.2258 82.0201C8.21214 81.4877 8.19984 80.9946 8.25996 80.5118C8.30369 80.184 8.58858 79.7906 8.87348 79.6159C12.5765 77.4307 16.5418 76.0103 20.7927 75.5295C24.1008 75.158 27.4533 74.8521 30.7614 74.9395C36.2386 75.0926 41.5191 76.2943 46.471 78.6762C47.2854 79.0552 48.0396 79.5534 48.783 80.0477L49.253 80.3589C50.3489 81.0582 51.2692 80.9489 52.4081 80.2496C53.8544 79.3537 55.3445 78.4796 56.8995 77.8459C60.7999 76.2506 64.8752 75.2673 69.1036 75.0926C69.6419 75.0685 70.1824 75.036 70.7235 75.0034L70.7296 75.0029C72.1452 74.9179 73.5663 74.8325 74.9757 74.8958C80.6498 75.158 86.1714 76.2288 91.2982 78.8074C91.8243 79.0695 92.3278 79.3537 92.7883 79.7034C93.0069 79.8781 93.2262 80.2059 93.2481 80.4899Z" fill="url(#paint2_linear_55_132)"/>
<defs>
<linearGradient id="paint0_linear_55_132" x1="34.2965" y1="71.6684" x2="58.6533" y2="72.415" gradientUnits="userSpaceOnUse">
<stop stop-color="#37DADA"/>
<stop offset="1" stop-color="#254DB5"/>
</linearGradient>
<linearGradient id="paint1_linear_55_132" x1="-18.7308" y1="-3.5168e-05" x2="85.9412" y2="2.84787" gradientUnits="userSpaceOnUse">
<stop stop-color="#37DADA"/>
<stop offset="1" stop-color="#254DB5"/>
</linearGradient>
<linearGradient id="paint2_linear_55_132" x1="-18.7308" y1="-3.5168e-05" x2="85.9412" y2="2.84787" gradientUnits="userSpaceOnUse">
<stop stop-color="#37DADA"/>
<stop offset="1" stop-color="#254DB5"/>
</linearGradient>
</defs>
</svg>
