<svg width="147" height="91" viewBox="0 0 147 91" fill="none" xmlns="http://www.w3.org/2000/svg">
<path fill-rule="evenodd" clip-rule="evenodd" d="M27.8801 1.22136C18.0018 6.59224 16.3211 12.5121 19.1492 31.9767C19.8262 36.6383 19.5043 37.1144 15.9699 36.681C15.338 36.6033 14.5583 36.9628 14.2365 37.4797C13.4568 38.733 17.5283 42.4211 19.6922 42.4211C23.8341 42.4211 22.0292 44.3225 16.8875 45.3747C9.39022 46.9098 6.36058 48.5722 5.09375 51.8483C3.71344 55.416 0.746405 81.0967 1.56227 82.4083C1.91052 82.968 3.68213 84.0425 5.49972 84.7965C10.4115 86.8349 9.83924 89.0568 4.40213 89.0568C1.98096 89.0568 0 89.4941 0 90.0284C0 90.658 12.3915 91 35.217 91C58.0425 91 70.434 90.658 70.434 90.0284C70.434 89.4941 68.453 89.0568 66.0319 89.0568C62.3429 89.0568 61.6298 88.7547 61.6298 87.1904C61.6298 85.8982 62.5522 85.1239 64.631 84.6702C66.2813 84.3107 67.8994 83.3236 68.2261 82.4773C68.9715 80.5468 66.7489 56.6071 65.4381 52.4595C64.181 48.4799 61.395 46.7417 53.9368 45.2844C47.7748 44.0806 44.9868 42.4211 49.1258 42.4211C52.1623 42.4211 55.7603 39.8289 55.7603 37.6429C55.7603 36.2963 55.1929 35.997 53.3146 36.3536C50.4317 36.9016 50.4122 36.7267 52.4019 28.204C53.3743 24.0389 53.702 19.9543 53.297 17.0299C52.5017 11.2927 48.0634 4.1769 43.9665 2.07246C39.3618 -0.29236 31.437 -0.712081 27.8801 1.22136ZM44.0213 4.40327C50.8328 9.31168 52.9351 17.3719 50.3486 28.6655C48.8157 35.3597 48.8205 35.8523 50.4435 37.6332C52.3745 39.7522 52.2112 40.1981 49.4016 40.4945C44.4106 41.023 43.043 40.509 43.043 38.1063C43.043 36.8015 43.4451 35.4879 43.9361 35.1858C45.0856 34.4804 48.5271 27.1654 49.2989 23.7853C50.2243 19.7357 48.442 16.1885 45.4818 16.1885C42.46 16.1885 36.433 13.7887 34.0304 11.6289C32.2588 10.0365 31.5701 3.62018 33.0159 2.17836C34.1781 1.02024 41.334 2.46595 44.0213 4.40327ZM103.88 3.58326C99.5184 6.22401 97.8387 10.7224 97.6352 20.309C97.4826 27.4763 97.7516 28.8229 100.158 32.9201C101.802 35.7192 102.73 38.5591 102.539 40.2069C102.249 42.7213 101.657 43.0546 93.912 45.0599C88.3291 46.5056 84.9532 47.9484 83.6374 49.4505C82.216 51.073 80.9208 55.8988 78.9193 67.0292C75.8936 83.855 75.9856 84.5293 81.4961 85.9478C86.358 87.1992 85.9344 89.0568 80.7868 89.0568C78.3216 89.0568 76.3035 89.4941 76.3035 90.0284C76.3035 90.658 88.695 91 111.521 91C134.346 91 146.738 90.658 146.738 90.0284C146.738 89.4941 144.757 89.0568 142.335 89.0568C136.86 89.0568 136.202 86.6813 141.409 85.7107C143.319 85.3551 145.129 84.4273 145.43 83.65C146.233 81.5708 140.941 52.0184 139.314 49.4903C138.417 48.1 135.919 46.7942 132.302 45.8265C122.858 43.2994 122.031 42.9642 120.934 41.229C120.096 39.9018 120.587 38.2103 123.278 33.1542C126.375 27.3364 126.681 26.0384 126.658 18.8011C126.629 9.67894 124.927 5.43606 120.357 3.08873C116.181 0.943484 107.825 1.19415 103.88 3.58326ZM30.3258 5.53225C30.3258 9.94904 27.8077 15.0702 25.0148 16.3343C20.5589 18.3503 20.554 24.3167 25.0021 32.2302C26.3159 34.5679 27.391 37.3495 27.391 38.4134C27.391 40.6966 24.6548 41.7799 21.1155 40.8977C18.2463 40.1826 17.8413 39.0264 20.1519 38.1462C21.4002 37.6701 21.6037 36.615 21.1576 32.9414C19.3058 17.6925 19.2891 14.1978 21.049 10.3231C22.5624 6.98962 27.3617 2.65249 29.5921 2.60294C29.9961 2.59419 30.3258 3.91166 30.3258 5.53225ZM120.21 5.14265C122.83 6.96435 125.216 12.037 125.216 15.7834C125.216 18.2939 125.158 18.3172 122.805 16.786C121.479 15.9233 118.457 15.2169 116.092 15.2169C112.784 15.2169 110.936 14.5427 108.097 12.3022C106.066 10.6991 104.287 9.38747 104.145 9.38747C104.003 9.38747 102.927 10.8089 101.753 12.5451L99.6191 15.7027L100.187 12.3022C100.528 10.258 101.933 7.83586 103.707 6.22984C106.212 3.96315 107.516 3.558 112.296 3.558C115.925 3.558 118.745 4.12249 120.21 5.14265ZM36.6844 15.2169C39.7531 16.82 42.9931 18.1317 43.8853 18.1317C45.9993 18.1317 48.0624 21.4613 47.3238 23.6794C44.5348 32.0515 40.028 37.5632 35.9693 37.5632C30.9332 37.5632 23.478 28.7364 23.478 22.7729C23.478 21.3184 29.0384 13.6041 30.9597 12.3935C31.0399 12.343 33.6156 13.6138 36.6844 15.2169ZM108.19 14.7311C110.52 16.3022 113.15 17.1601 115.634 17.1601C120.41 17.1601 123.26 18.6039 123.26 21.0231C123.26 22.0413 123.662 23.1217 124.152 23.4229C125.249 24.0962 124.39 27.0848 121.607 32.2827C120.157 34.9915 118.257 36.784 115.561 37.9917C111.733 39.7065 111.532 39.7026 107.93 37.8469C103.138 35.3762 97.962 26.0403 99.5291 22.6913C100.077 21.5196 101.306 18.703 102.258 16.4314C103.212 14.1599 104.125 12.3022 104.288 12.3022C104.453 12.3022 106.208 13.3952 108.19 14.7311ZM35.7061 38.9118C37.3202 38.9157 39.2484 38.7223 39.9899 38.4833C40.8351 38.2113 41.4132 38.8651 41.5385 40.2351C41.648 41.4369 42.0178 42.699 42.3602 43.039C43.0244 43.6978 36.2491 56.9948 35.2493 56.9948C34.9245 56.9948 33.2302 54.1179 31.484 50.6018C28.9699 45.537 28.4426 43.5054 28.9484 40.8277C29.4532 38.1549 29.9208 37.5992 31.1798 38.1753C32.0553 38.5766 34.092 38.9079 35.7061 38.9118ZM108.372 40.032C111.062 41.365 111.775 41.3699 114.881 40.0816C119.636 38.1073 119.722 40.4605 115 43.3587L111.632 45.4262L108.164 43.1945C106.258 41.9674 104.691 40.4177 104.684 39.7493C104.67 38.221 104.726 38.2249 108.372 40.032ZM107.576 45.1153L109.719 46.8389L107.679 48.6722C105.283 50.8253 104.9 50.5921 104.071 46.4794C103.362 42.9574 104.394 42.5562 107.576 45.1153ZM120.325 43.7337C120.325 45.0551 118.035 50.1937 117.446 50.1937C117.044 50.1937 115.974 49.3805 115.069 48.3866C113.516 46.6834 113.549 46.493 115.651 45.0376C117.681 43.6317 120.325 42.8943 120.325 43.7337ZM29.1528 49.7342C31.9007 55.3518 31.8841 56.8869 29.1029 54.3706C27.8928 53.2756 25.9119 51.8726 24.7008 51.2528C22.6083 50.1811 22.578 50.0072 24.0796 47.7308C24.9483 46.4133 25.9618 45.3358 26.3306 45.3358C26.6994 45.3358 27.9691 47.3149 29.1528 49.7342ZM44.1846 52.7917C38.4306 57.8459 37.9473 57.3047 41.6823 49.9848L44.2345 44.9832L46.0032 47.312C47.7582 49.6234 47.7435 49.6662 44.1846 52.7917ZM102.603 49.2299C103.649 52.6946 104.044 53.0589 106.182 52.5255C108.275 52.0038 108.586 52.2544 108.586 54.4609V56.9948H97.3114C86.0567 56.9948 86.0361 56.9987 85.0657 59.5325C84.5316 60.9287 84.154 62.5687 84.2273 63.176C84.3017 63.7842 84.3095 68.9588 84.2449 74.6756L84.1295 85.0695L81.1948 84.0532C79.5806 83.4946 78.2639 82.5337 78.2698 81.9177C78.2982 78.5026 83.9906 50.9146 84.8407 50.0703C85.7299 49.1872 97.5208 45.6565 100.361 45.4233C100.948 45.3757 101.957 47.0886 102.603 49.2299ZM129.079 46.8486C132.761 47.6803 136.447 49.1007 137.271 50.0062C138.159 50.9817 139.856 57.9149 141.44 67.0448C144.267 83.3352 144.182 84.1445 139.645 84.1844C138.103 84.197 137.933 82.965 137.933 71.7628C137.933 63.3858 137.55 58.9457 136.759 58.1607C135.991 57.398 131.934 56.9948 125.02 56.9948H114.455V54.4609C114.455 52.2544 114.766 52.0038 116.859 52.5255C118.997 53.0589 119.392 52.6946 120.438 49.2299C121.084 47.0886 121.786 45.3358 121.999 45.3358C122.211 45.3358 125.397 46.0159 129.079 46.8486ZM21.095 48.1826C19.4466 49.9916 19.5268 50.1452 23.389 52.5663C25.59 53.9469 27.391 55.5073 27.391 56.0358C27.391 56.5896 23.9632 56.9948 19.2715 56.9948C14.2609 56.9948 10.703 57.4407 9.97815 58.1607C9.19262 58.9408 8.80425 63.278 8.80425 71.277C8.80425 82.0158 8.6311 83.2254 7.09231 83.2128C2.81736 83.1749 2.68823 82.3879 4.47745 67.2595C5.61124 57.6788 6.68536 52.3254 7.73111 51.0468C9.19555 49.2581 16.7731 46.5882 20.9394 46.3939C22.7189 46.3113 22.7257 46.392 21.095 48.1826ZM59.3093 48.7461C60.9919 49.433 62.741 50.5863 63.195 51.3091C63.6489 52.032 64.721 58.9039 65.576 66.5804C66.9006 78.4657 66.9309 80.7382 65.7785 81.8827C65.0341 82.6221 63.7956 83.2274 63.0277 83.2274C61.8919 83.2274 61.6298 80.9859 61.6298 71.277C61.6298 63.278 61.2414 58.9408 60.4559 58.1607C59.731 57.4407 56.1731 56.9948 51.1625 56.9948C46.6968 56.9948 43.0459 56.6664 43.0499 56.2661C43.0538 55.8658 44.5945 54.4969 46.4737 53.226C50.1177 50.7611 50.6274 49.4019 48.6679 47.3732C47.6672 46.3375 48.2444 46.2336 51.8473 46.802C54.2684 47.1838 57.6268 48.0592 59.3093 48.7461ZM113.253 50.0121C113.469 50.6562 112.74 51.1653 111.602 51.1653C109.57 51.1653 108.96 50.1452 110.237 48.8782C111.143 47.9776 112.777 48.5916 113.253 50.0121ZM112.499 55.5374C112.499 56.339 112.059 56.9948 111.521 56.9948C110.982 56.9948 110.542 56.339 110.542 55.5374C110.542 54.7359 110.982 54.08 111.521 54.08C112.059 54.08 112.499 54.7359 112.499 55.5374ZM59.4541 73.7545L59.1841 88.5711H35.217H11.2499L10.9799 73.7545L10.7099 58.9379H35.217H59.7241L59.4541 73.7545ZM135.488 73.9974V88.5711L112.988 88.845C100.613 88.9956 89.4972 88.8781 88.2871 88.5837C86.1408 88.062 86.086 87.7238 86.086 75.0302C86.086 67.8697 86.356 61.3125 86.6866 60.4585C87.2178 59.0827 90.0499 58.9341 111.387 59.1643L135.488 59.4237V73.9974ZM30.7562 71.035C27.5456 75.9017 32.8741 81.0889 37.7947 77.8876C40.3313 76.2359 40.9544 71.8259 38.9344 69.8196C36.88 67.7793 32.472 68.4341 30.7562 71.035ZM107.188 70.1801C106.343 71.0205 105.651 72.5507 105.651 73.5806C105.651 75.8055 108.954 79.3411 111.031 79.3411C113.109 79.3411 116.412 75.8055 116.412 73.5806C116.412 71.0244 113.823 68.6537 111.031 68.6537C109.764 68.6537 108.034 69.3406 107.188 70.1801ZM37.9639 73.6709C38.1909 75.6209 37.7419 76.4244 36.1434 76.9286C33.3006 77.8244 30.8745 75.4149 31.7765 72.5915C32.8095 69.36 37.5589 70.1878 37.9639 73.6709ZM114.153 72.1864C114.962 74.2811 113.224 76.9121 111.031 76.9121C110.073 76.9121 108.84 76.2068 108.292 75.344C106.798 72.9908 108.179 70.5969 111.031 70.5969C112.45 70.5969 113.805 71.2867 114.153 72.1864Z" fill="black"/>
<path fill-rule="evenodd" clip-rule="evenodd" d="M27.8801 1.22136C18.0018 6.59224 16.3211 12.5121 19.1492 31.9767C19.8262 36.6383 19.5043 37.1144 15.9699 36.681C15.338 36.6033 14.5583 36.9628 14.2365 37.4797C13.4568 38.733 17.5283 42.4211 19.6922 42.4211C23.8341 42.4211 22.0292 44.3225 16.8875 45.3747C9.39022 46.9098 6.36058 48.5722 5.09375 51.8483C3.71344 55.416 0.746405 81.0967 1.56227 82.4083C1.91052 82.968 3.68213 84.0425 5.49972 84.7965C10.4115 86.8349 9.83924 89.0568 4.40213 89.0568C1.98096 89.0568 0 89.4941 0 90.0284C0 90.658 12.3915 91 35.217 91C58.0425 91 70.434 90.658 70.434 90.0284C70.434 89.4941 68.453 89.0568 66.0319 89.0568C62.3429 89.0568 61.6298 88.7547 61.6298 87.1904C61.6298 85.8982 62.5522 85.1239 64.631 84.6702C66.2813 84.3107 67.8994 83.3236 68.2261 82.4773C68.9715 80.5468 66.7489 56.6071 65.4381 52.4595C64.181 48.4799 61.395 46.7417 53.9368 45.2844C47.7748 44.0806 44.9868 42.4211 49.1258 42.4211C52.1623 42.4211 55.7603 39.8289 55.7603 37.6429C55.7603 36.2963 55.1929 35.997 53.3146 36.3536C50.4317 36.9016 50.4122 36.7267 52.4019 28.204C53.3743 24.0389 53.702 19.9543 53.297 17.0299C52.5017 11.2927 48.0634 4.1769 43.9665 2.07246C39.3618 -0.29236 31.437 -0.712081 27.8801 1.22136ZM44.0213 4.40327C50.8328 9.31168 52.9351 17.3719 50.3486 28.6655C48.8157 35.3597 48.8205 35.8523 50.4435 37.6332C52.3745 39.7522 52.2112 40.1981 49.4016 40.4945C44.4106 41.023 43.043 40.509 43.043 38.1063C43.043 36.8015 43.4451 35.4879 43.9361 35.1858C45.0856 34.4804 48.5271 27.1654 49.2989 23.7853C50.2243 19.7357 48.442 16.1885 45.4818 16.1885C42.46 16.1885 36.433 13.7887 34.0304 11.6289C32.2588 10.0365 31.5701 3.62018 33.0159 2.17836C34.1781 1.02024 41.334 2.46595 44.0213 4.40327ZM103.88 3.58326C99.5184 6.22401 97.8387 10.7224 97.6352 20.309C97.4826 27.4763 97.7516 28.8229 100.158 32.9201C101.802 35.7192 102.73 38.5591 102.539 40.2069C102.249 42.7213 101.657 43.0546 93.912 45.0599C88.3291 46.5056 84.9532 47.9484 83.6374 49.4505C82.216 51.073 80.9208 55.8988 78.9193 67.0292C75.8936 83.855 75.9856 84.5293 81.4961 85.9478C86.358 87.1992 85.9344 89.0568 80.7868 89.0568C78.3216 89.0568 76.3035 89.4941 76.3035 90.0284C76.3035 90.658 88.695 91 111.521 91C134.346 91 146.738 90.658 146.738 90.0284C146.738 89.4941 144.757 89.0568 142.335 89.0568C136.86 89.0568 136.202 86.6813 141.409 85.7107C143.319 85.3551 145.129 84.4273 145.43 83.65C146.233 81.5708 140.941 52.0184 139.314 49.4903C138.417 48.1 135.919 46.7942 132.302 45.8265C122.858 43.2994 122.031 42.9642 120.934 41.229C120.096 39.9018 120.587 38.2103 123.278 33.1542C126.375 27.3364 126.681 26.0384 126.658 18.8011C126.629 9.67894 124.927 5.43606 120.357 3.08873C116.181 0.943484 107.825 1.19415 103.88 3.58326ZM30.3258 5.53225C30.3258 9.94904 27.8077 15.0702 25.0148 16.3343C20.5589 18.3503 20.554 24.3167 25.0021 32.2302C26.3159 34.5679 27.391 37.3495 27.391 38.4134C27.391 40.6966 24.6548 41.7799 21.1155 40.8977C18.2463 40.1826 17.8413 39.0264 20.1519 38.1462C21.4002 37.6701 21.6037 36.615 21.1576 32.9414C19.3058 17.6925 19.2891 14.1978 21.049 10.3231C22.5624 6.98962 27.3617 2.65249 29.5921 2.60294C29.9961 2.59419 30.3258 3.91166 30.3258 5.53225ZM120.21 5.14265C122.83 6.96435 125.216 12.037 125.216 15.7834C125.216 18.2939 125.158 18.3172 122.805 16.786C121.479 15.9233 118.457 15.2169 116.092 15.2169C112.784 15.2169 110.936 14.5427 108.097 12.3022C106.066 10.6991 104.287 9.38747 104.145 9.38747C104.003 9.38747 102.927 10.8089 101.753 12.5451L99.6191 15.7027L100.187 12.3022C100.528 10.258 101.933 7.83586 103.707 6.22984C106.212 3.96315 107.516 3.558 112.296 3.558C115.925 3.558 118.745 4.12249 120.21 5.14265ZM36.6844 15.2169C39.7531 16.82 42.9931 18.1317 43.8853 18.1317C45.9993 18.1317 48.0624 21.4613 47.3238 23.6794C44.5348 32.0515 40.028 37.5632 35.9693 37.5632C30.9332 37.5632 23.478 28.7364 23.478 22.7729C23.478 21.3184 29.0384 13.6041 30.9597 12.3935C31.0399 12.343 33.6156 13.6138 36.6844 15.2169ZM108.19 14.7311C110.52 16.3022 113.15 17.1601 115.634 17.1601C120.41 17.1601 123.26 18.6039 123.26 21.0231C123.26 22.0413 123.662 23.1217 124.152 23.4229C125.249 24.0962 124.39 27.0848 121.607 32.2827C120.157 34.9915 118.257 36.784 115.561 37.9917C111.733 39.7065 111.532 39.7026 107.93 37.8469C103.138 35.3762 97.962 26.0403 99.5291 22.6913C100.077 21.5196 101.306 18.703 102.258 16.4314C103.212 14.1599 104.125 12.3022 104.288 12.3022C104.453 12.3022 106.208 13.3952 108.19 14.7311ZM35.7061 38.9118C37.3202 38.9157 39.2484 38.7223 39.9899 38.4833C40.8351 38.2113 41.4132 38.8651 41.5385 40.2351C41.648 41.4369 42.0178 42.699 42.3602 43.039C43.0244 43.6978 36.2491 56.9948 35.2493 56.9948C34.9245 56.9948 33.2302 54.1179 31.484 50.6018C28.9699 45.537 28.4426 43.5054 28.9484 40.8277C29.4532 38.1549 29.9208 37.5992 31.1798 38.1753C32.0553 38.5766 34.092 38.9079 35.7061 38.9118ZM108.372 40.032C111.062 41.365 111.775 41.3699 114.881 40.0816C119.636 38.1073 119.722 40.4605 115 43.3587L111.632 45.4262L108.164 43.1945C106.258 41.9674 104.691 40.4177 104.684 39.7493C104.67 38.221 104.726 38.2249 108.372 40.032ZM107.576 45.1153L109.719 46.8389L107.679 48.6722C105.283 50.8253 104.9 50.5921 104.071 46.4794C103.362 42.9574 104.394 42.5562 107.576 45.1153ZM120.325 43.7337C120.325 45.0551 118.035 50.1937 117.446 50.1937C117.044 50.1937 115.974 49.3805 115.069 48.3866C113.516 46.6834 113.549 46.493 115.651 45.0376C117.681 43.6317 120.325 42.8943 120.325 43.7337ZM29.1528 49.7342C31.9007 55.3518 31.8841 56.8869 29.1029 54.3706C27.8928 53.2756 25.9119 51.8726 24.7008 51.2528C22.6083 50.1811 22.578 50.0072 24.0796 47.7308C24.9483 46.4133 25.9618 45.3358 26.3306 45.3358C26.6994 45.3358 27.9691 47.3149 29.1528 49.7342ZM44.1846 52.7917C38.4306 57.8459 37.9473 57.3047 41.6823 49.9848L44.2345 44.9832L46.0032 47.312C47.7582 49.6234 47.7435 49.6662 44.1846 52.7917ZM102.603 49.2299C103.649 52.6946 104.044 53.0589 106.182 52.5255C108.275 52.0038 108.586 52.2544 108.586 54.4609V56.9948H97.3114C86.0567 56.9948 86.0361 56.9987 85.0657 59.5325C84.5316 60.9287 84.154 62.5687 84.2273 63.176C84.3017 63.7842 84.3095 68.9588 84.2449 74.6756L84.1295 85.0695L81.1948 84.0532C79.5806 83.4946 78.2639 82.5337 78.2698 81.9177C78.2982 78.5026 83.9906 50.9146 84.8407 50.0703C85.7299 49.1872 97.5208 45.6565 100.361 45.4233C100.948 45.3757 101.957 47.0886 102.603 49.2299ZM129.079 46.8486C132.761 47.6803 136.447 49.1007 137.271 50.0062C138.159 50.9817 139.856 57.9149 141.44 67.0448C144.267 83.3352 144.182 84.1445 139.645 84.1844C138.103 84.197 137.933 82.965 137.933 71.7628C137.933 63.3858 137.55 58.9457 136.759 58.1607C135.991 57.398 131.934 56.9948 125.02 56.9948H114.455V54.4609C114.455 52.2544 114.766 52.0038 116.859 52.5255C118.997 53.0589 119.392 52.6946 120.438 49.2299C121.084 47.0886 121.786 45.3358 121.999 45.3358C122.211 45.3358 125.397 46.0159 129.079 46.8486ZM21.095 48.1826C19.4466 49.9916 19.5268 50.1452 23.389 52.5663C25.59 53.9469 27.391 55.5073 27.391 56.0358C27.391 56.5896 23.9632 56.9948 19.2715 56.9948C14.2609 56.9948 10.703 57.4407 9.97815 58.1607C9.19262 58.9408 8.80425 63.278 8.80425 71.277C8.80425 82.0158 8.6311 83.2254 7.09231 83.2128C2.81736 83.1749 2.68823 82.3879 4.47745 67.2595C5.61124 57.6788 6.68536 52.3254 7.73111 51.0468C9.19555 49.2581 16.7731 46.5882 20.9394 46.3939C22.7189 46.3113 22.7257 46.392 21.095 48.1826ZM59.3093 48.7461C60.9919 49.433 62.741 50.5863 63.195 51.3091C63.6489 52.032 64.721 58.9039 65.576 66.5804C66.9006 78.4657 66.9309 80.7382 65.7785 81.8827C65.0341 82.6221 63.7956 83.2274 63.0277 83.2274C61.8919 83.2274 61.6298 80.9859 61.6298 71.277C61.6298 63.278 61.2414 58.9408 60.4559 58.1607C59.731 57.4407 56.1731 56.9948 51.1625 56.9948C46.6968 56.9948 43.0459 56.6664 43.0499 56.2661C43.0538 55.8658 44.5945 54.4969 46.4737 53.226C50.1177 50.7611 50.6274 49.4019 48.6679 47.3732C47.6672 46.3375 48.2444 46.2336 51.8473 46.802C54.2684 47.1838 57.6268 48.0592 59.3093 48.7461ZM113.253 50.0121C113.469 50.6562 112.74 51.1653 111.602 51.1653C109.57 51.1653 108.96 50.1452 110.237 48.8782C111.143 47.9776 112.777 48.5916 113.253 50.0121ZM112.499 55.5374C112.499 56.339 112.059 56.9948 111.521 56.9948C110.982 56.9948 110.542 56.339 110.542 55.5374C110.542 54.7359 110.982 54.08 111.521 54.08C112.059 54.08 112.499 54.7359 112.499 55.5374ZM59.4541 73.7545L59.1841 88.5711H35.217H11.2499L10.9799 73.7545L10.7099 58.9379H35.217H59.7241L59.4541 73.7545ZM135.488 73.9974V88.5711L112.988 88.845C100.613 88.9956 89.4972 88.8781 88.2871 88.5837C86.1408 88.062 86.086 87.7238 86.086 75.0302C86.086 67.8697 86.356 61.3125 86.6866 60.4585C87.2178 59.0827 90.0499 58.9341 111.387 59.1643L135.488 59.4237V73.9974ZM30.7562 71.035C27.5456 75.9017 32.8741 81.0889 37.7947 77.8876C40.3313 76.2359 40.9544 71.8259 38.9344 69.8196C36.88 67.7793 32.472 68.4341 30.7562 71.035ZM107.188 70.1801C106.343 71.0205 105.651 72.5507 105.651 73.5806C105.651 75.8055 108.954 79.3411 111.031 79.3411C113.109 79.3411 116.412 75.8055 116.412 73.5806C116.412 71.0244 113.823 68.6537 111.031 68.6537C109.764 68.6537 108.034 69.3406 107.188 70.1801ZM37.9639 73.6709C38.1909 75.6209 37.7419 76.4244 36.1434 76.9286C33.3006 77.8244 30.8745 75.4149 31.7765 72.5915C32.8095 69.36 37.5589 70.1878 37.9639 73.6709ZM114.153 72.1864C114.962 74.2811 113.224 76.9121 111.031 76.9121C110.073 76.9121 108.84 76.2068 108.292 75.344C106.798 72.9908 108.179 70.5969 111.031 70.5969C112.45 70.5969 113.805 71.2867 114.153 72.1864Z" fill="url(#paint0_linear_55_136)"/>
<defs>
<linearGradient id="paint0_linear_55_136" x1="-27.0937" y1="-3.5168e-05" x2="124.19" y2="5.9538" gradientUnits="userSpaceOnUse">
<stop stop-color="#37DADA"/>
<stop offset="1" stop-color="#254DB5"/>
</linearGradient>
</defs>
</svg>
