<svg width="128" height="91" viewBox="0 0 128 91" fill="none" xmlns="http://www.w3.org/2000/svg">
<path d="M127.391 31.0128C126.674 32.2905 126.144 33.7239 125.209 34.8146C123.651 36.7155 121.501 37.5257 119.039 37.4634C118.291 37.4634 117.575 37.4634 116.671 37.4634C116.671 38.0243 116.671 38.5229 116.671 38.9903C116.671 46.4069 116.671 53.8235 116.671 61.2401C116.671 65.4782 114.334 68.5633 110.439 69.5916C105.764 70.8381 100.654 67.2544 100.56 62.4243C100.404 54.6338 100.498 46.8432 100.467 39.0527C100.467 38.5541 100.467 38.0866 100.467 37.4322C99.4383 37.4322 98.5346 37.4634 97.6309 37.4322C93.2059 37.3387 89.6846 33.7551 89.6846 29.3612C89.6846 25.0608 93.1436 21.3525 97.5063 21.2902C104.829 21.1967 112.184 21.2279 119.507 21.2902C122.966 21.3214 125.833 23.565 126.955 26.8682C127.048 27.1799 127.235 27.4292 127.36 27.7408C127.391 28.8626 127.391 29.9533 127.391 31.0128ZM105.484 48.526C105.484 52.764 105.484 56.9709 105.484 61.209C105.484 61.7076 105.515 62.2062 105.64 62.6736C106.076 64.0447 107.416 64.9484 108.756 64.855C110.158 64.7303 111.342 63.6085 111.56 62.1438C111.623 61.6452 111.623 61.1466 111.623 60.6481C111.623 52.5147 111.623 44.3814 111.623 36.2792C111.623 33.1942 112.277 32.5398 115.3 32.5398C116.515 32.5398 117.699 32.5398 118.915 32.5398C120.847 32.5086 122.311 31.2309 122.374 29.517C122.436 27.7719 120.94 26.3696 118.946 26.3385C115.3 26.3073 111.654 26.3385 108.008 26.3385C104.705 26.3385 101.37 26.3073 98.0672 26.3385C96.104 26.3696 94.7329 27.6785 94.7329 29.4547C94.7329 31.1998 96.1351 32.5086 98.0984 32.5398C99.3449 32.5709 100.591 32.5398 101.838 32.5398C104.767 32.5398 105.484 33.2565 105.484 36.2481C105.484 40.3303 105.484 44.4437 105.484 48.526Z" fill="black"/>
<path d="M127.391 31.0128C126.674 32.2905 126.144 33.7239 125.209 34.8146C123.651 36.7155 121.501 37.5257 119.039 37.4634C118.291 37.4634 117.575 37.4634 116.671 37.4634C116.671 38.0243 116.671 38.5229 116.671 38.9903C116.671 46.4069 116.671 53.8235 116.671 61.2401C116.671 65.4782 114.334 68.5633 110.439 69.5916C105.764 70.8381 100.654 67.2544 100.56 62.4243C100.404 54.6338 100.498 46.8432 100.467 39.0527C100.467 38.5541 100.467 38.0866 100.467 37.4322C99.4383 37.4322 98.5346 37.4634 97.6309 37.4322C93.2059 37.3387 89.6846 33.7551 89.6846 29.3612C89.6846 25.0608 93.1436 21.3525 97.5063 21.2902C104.829 21.1967 112.184 21.2279 119.507 21.2902C122.966 21.3214 125.833 23.565 126.955 26.8682C127.048 27.1799 127.235 27.4292 127.36 27.7408C127.391 28.8626 127.391 29.9533 127.391 31.0128ZM105.484 48.526C105.484 52.764 105.484 56.9709 105.484 61.209C105.484 61.7076 105.515 62.2062 105.64 62.6736C106.076 64.0447 107.416 64.9484 108.756 64.855C110.158 64.7303 111.342 63.6085 111.56 62.1438C111.623 61.6452 111.623 61.1466 111.623 60.6481C111.623 52.5147 111.623 44.3814 111.623 36.2792C111.623 33.1942 112.277 32.5398 115.3 32.5398C116.515 32.5398 117.699 32.5398 118.915 32.5398C120.847 32.5086 122.311 31.2309 122.374 29.517C122.436 27.7719 120.94 26.3696 118.946 26.3385C115.3 26.3073 111.654 26.3385 108.008 26.3385C104.705 26.3385 101.37 26.3073 98.0672 26.3385C96.104 26.3696 94.7329 27.6785 94.7329 29.4547C94.7329 31.1998 96.1351 32.5086 98.0984 32.5398C99.3449 32.5709 100.591 32.5398 101.838 32.5398C104.767 32.5398 105.484 33.2565 105.484 36.2481C105.484 40.3303 105.484 44.4437 105.484 48.526Z" fill="url(#paint0_linear_55_138)"/>
<path d="M56.1231 24.2506C67.84 24.1882 77.3445 33.6304 77.438 45.4097C77.5003 57.0955 67.9958 66.7246 56.31 66.7869C44.6554 66.8804 34.9951 57.3136 34.9016 45.6278C34.777 33.9108 44.3126 24.3129 56.1231 24.2506ZM56.8086 61.7387C65.534 61.4894 73.013 53.9481 72.3897 44.319C71.7976 35.3755 63.8201 28.5198 54.8142 29.2988C45.7772 30.0779 39.5759 37.6815 39.9187 46.1264C40.2927 55.4127 48.1767 62.1749 56.8086 61.7387Z" fill="black"/>
<path d="M56.1231 24.2506C67.84 24.1882 77.3445 33.6304 77.438 45.4097C77.5003 57.0955 67.9958 66.7246 56.31 66.7869C44.6554 66.8804 34.9951 57.3136 34.9016 45.6278C34.777 33.9108 44.3126 24.3129 56.1231 24.2506ZM56.8086 61.7387C65.534 61.4894 73.013 53.9481 72.3897 44.319C71.7976 35.3755 63.8201 28.5198 54.8142 29.2988C45.7772 30.0779 39.5759 37.6815 39.9187 46.1264C40.2927 55.4127 48.1767 62.1749 56.8086 61.7387Z" fill="url(#paint1_linear_55_138)"/>
<path d="M18.4169 45.5033C18.4169 50.5516 18.4792 55.5998 18.3857 60.6793C18.3234 64.6057 16.4536 67.535 12.8388 69.0931C9.28634 70.62 5.92082 70.0279 3.02273 67.4726C1.12184 65.821 0.0623244 63.6397 0.0311622 61.1467C0 50.7074 -0.0311622 40.3304 0.0623244 29.9222C0.0934866 25.0921 4.42503 21.1033 9.22401 21.1345C14.21 21.1656 18.2299 25.1544 18.4169 30.2338C18.4169 30.3273 18.4169 30.3896 18.4169 30.4831C18.4169 35.4691 18.4169 40.4862 18.4169 45.5033ZM4.98595 45.5033C4.98595 50.4269 4.95479 55.3817 4.98595 60.3053C5.01711 63.5774 7.79055 65.6652 10.6575 64.6057C12.4337 63.9513 13.3997 62.362 13.3997 60.0249C13.3997 51.8604 13.3997 43.6959 13.3997 35.5314C13.3997 33.8798 13.4309 32.2282 13.3997 30.5454C13.3063 27.6785 11.2184 25.8711 8.50728 26.2451C6.38825 26.5567 4.98595 28.3329 4.98595 30.8259C4.98595 35.7184 4.98595 40.6108 4.98595 45.5033Z" fill="black"/>
<path d="M18.4169 45.5033C18.4169 50.5516 18.4792 55.5998 18.3857 60.6793C18.3234 64.6057 16.4536 67.535 12.8388 69.0931C9.28634 70.62 5.92082 70.0279 3.02273 67.4726C1.12184 65.821 0.0623244 63.6397 0.0311622 61.1467C0 50.7074 -0.0311622 40.3304 0.0623244 29.9222C0.0934866 25.0921 4.42503 21.1033 9.22401 21.1345C14.21 21.1656 18.2299 25.1544 18.4169 30.2338C18.4169 30.3273 18.4169 30.3896 18.4169 30.4831C18.4169 35.4691 18.4169 40.4862 18.4169 45.5033ZM4.98595 45.5033C4.98595 50.4269 4.95479 55.3817 4.98595 60.3053C5.01711 63.5774 7.79055 65.6652 10.6575 64.6057C12.4337 63.9513 13.3997 62.362 13.3997 60.0249C13.3997 51.8604 13.3997 43.6959 13.3997 35.5314C13.3997 33.8798 13.4309 32.2282 13.3997 30.5454C13.3063 27.6785 11.2184 25.8711 8.50728 26.2451C6.38825 26.5567 4.98595 28.3329 4.98595 30.8259C4.98595 35.7184 4.98595 40.6108 4.98595 45.5033Z" fill="url(#paint2_linear_55_138)"/>
<path d="M55.2503 90.9999C47.3975 90.9688 39.1706 88.5693 31.6294 83.8015C30.1024 82.8354 29.635 81.402 30.4141 80.1243C31.1931 78.8467 32.6577 78.5662 34.2159 79.5322C38.859 82.4303 43.845 84.4247 49.2672 85.3596C57.868 86.8242 66.0636 85.6089 73.9165 81.8694C77.8118 80.0308 81.2396 77.5067 84.387 74.6086C85.0414 74.0165 86.0698 73.4556 86.8488 73.5179C87.5967 73.6114 88.5316 74.4216 88.9367 75.1384C89.4353 76.0421 89.0302 77.1016 88.1888 77.8183C86.2567 79.4699 84.4493 81.2462 82.3614 82.6796C74.5709 88.133 65.8455 90.9376 55.2503 90.9999Z" fill="black"/>
<path d="M55.2503 90.9999C47.3975 90.9688 39.1706 88.5693 31.6294 83.8015C30.1024 82.8354 29.635 81.402 30.4141 80.1243C31.1931 78.8467 32.6577 78.5662 34.2159 79.5322C38.859 82.4303 43.845 84.4247 49.2672 85.3596C57.868 86.8242 66.0636 85.6089 73.9165 81.8694C77.8118 80.0308 81.2396 77.5067 84.387 74.6086C85.0414 74.0165 86.0698 73.4556 86.8488 73.5179C87.5967 73.6114 88.5316 74.4216 88.9367 75.1384C89.4353 76.0421 89.0302 77.1016 88.1888 77.8183C86.2567 79.4699 84.4493 81.2462 82.3614 82.6796C74.5709 88.133 65.8455 90.9376 55.2503 90.9999Z" fill="url(#paint3_linear_55_138)"/>
<path d="M55.2503 0.00641562C65.3469 0.318038 72.7012 2.46823 79.5257 6.45699C81.0215 7.32953 81.5201 8.70067 80.8345 10.0095C80.1178 11.3183 78.622 11.7234 77.095 10.8197C73.3867 8.66951 69.4915 6.98675 65.2846 6.08304C54.5959 3.71472 44.5306 5.30399 35.1819 10.9755C32.7512 12.4401 30.6322 14.4033 28.3885 16.1484C28.0458 16.3977 27.7653 16.7094 27.4537 16.9587C26.2695 17.8624 24.8984 17.8 23.9635 16.8028C23.0286 15.8056 22.9975 14.2787 24.1505 13.2503C26.0514 11.5364 27.9523 9.76018 30.0401 8.29556C38.2358 2.53055 47.4286 -0.149395 55.2503 0.00641562Z" fill="black"/>
<path d="M55.2503 0.00641562C65.3469 0.318038 72.7012 2.46823 79.5257 6.45699C81.0215 7.32953 81.5201 8.70067 80.8345 10.0095C80.1178 11.3183 78.622 11.7234 77.095 10.8197C73.3867 8.66951 69.4915 6.98675 65.2846 6.08304C54.5959 3.71472 44.5306 5.30399 35.1819 10.9755C32.7512 12.4401 30.6322 14.4033 28.3885 16.1484C28.0458 16.3977 27.7653 16.7094 27.4537 16.9587C26.2695 17.8624 24.8984 17.8 23.9635 16.8028C23.0286 15.8056 22.9975 14.2787 24.1505 13.2503C26.0514 11.5364 27.9523 9.76018 30.0401 8.29556C38.2358 2.53055 47.4286 -0.149395 55.2503 0.00641562Z" fill="url(#paint4_linear_55_138)"/>
<path d="M57.4937 78.9093C50.1083 79.0963 43.3149 77.2577 37.2383 73.0197C35.7113 71.9601 34.309 70.7137 32.9067 69.4672C31.6291 68.3453 31.4733 66.8184 32.4081 65.7277C33.4053 64.5435 34.8699 64.5124 36.2411 65.7589C38.7652 68.0649 41.5075 69.9969 44.6549 71.4304C54.5021 75.9489 67.0605 74.0168 75.1003 66.7249C75.5989 66.2886 76.0664 65.8212 76.5961 65.4161C77.8114 64.5435 79.1514 64.6682 80.0551 65.7277C80.9277 66.7561 80.9277 68.1895 79.8058 69.1867C77.9673 70.776 76.0975 72.3964 74.072 73.7052C68.9925 77.0084 63.4457 78.6912 57.4937 78.9093Z" fill="black"/>
<path d="M57.4937 78.9093C50.1083 79.0963 43.3149 77.2577 37.2383 73.0197C35.7113 71.9601 34.309 70.7137 32.9067 69.4672C31.6291 68.3453 31.4733 66.8184 32.4081 65.7277C33.4053 64.5435 34.8699 64.5124 36.2411 65.7589C38.7652 68.0649 41.5075 69.9969 44.6549 71.4304C54.5021 75.9489 67.0605 74.0168 75.1003 66.7249C75.5989 66.2886 76.0664 65.8212 76.5961 65.4161C77.8114 64.5435 79.1514 64.6682 80.0551 65.7277C80.9277 66.7561 80.9277 68.1895 79.8058 69.1867C77.9673 70.776 76.0975 72.3964 74.072 73.7052C68.9925 77.0084 63.4457 78.6912 57.4937 78.9093Z" fill="url(#paint5_linear_55_138)"/>
<path d="M57.3695 12.0974C65.2223 12.2221 73.0129 15.3383 79.557 21.5707C80.8346 22.786 80.9593 24.1883 79.9621 25.3102C78.996 26.3697 77.4691 26.432 76.2226 25.2479C72.9506 22.2251 69.3357 19.8256 65.0354 18.5168C54.9388 15.4629 45.8395 17.3015 37.675 23.9702C37.0206 24.5 36.4596 25.092 35.7741 25.5906C34.6522 26.4009 33.2811 26.245 32.4086 25.279C31.5672 24.3442 31.5048 22.8172 32.5332 21.9135C34.216 20.3866 35.9299 18.8596 37.8308 17.6131C43.3776 13.9048 49.5478 12.1286 57.3695 12.0974Z" fill="black"/>
<path d="M57.3695 12.0974C65.2223 12.2221 73.0129 15.3383 79.557 21.5707C80.8346 22.786 80.9593 24.1883 79.9621 25.3102C78.996 26.3697 77.4691 26.432 76.2226 25.2479C72.9506 22.2251 69.3357 19.8256 65.0354 18.5168C54.9388 15.4629 45.8395 17.3015 37.675 23.9702C37.0206 24.5 36.4596 25.092 35.7741 25.5906C34.6522 26.4009 33.2811 26.245 32.4086 25.279C31.5672 24.3442 31.5048 22.8172 32.5332 21.9135C34.216 20.3866 35.9299 18.8596 37.8308 17.6131C43.3776 13.9048 49.5478 12.1286 57.3695 12.0974Z" fill="url(#paint6_linear_55_138)"/>
<path d="M28.3577 75.9486C28.3577 77.2574 27.1112 78.5039 25.8024 78.4727C24.5247 78.4416 23.2782 77.1951 23.2471 75.8863C23.2471 74.5775 24.4936 73.331 25.8024 73.3621C27.08 73.4245 28.3265 74.671 28.3577 75.9486Z" fill="black"/>
<path d="M28.3577 75.9486C28.3577 77.2574 27.1112 78.5039 25.8024 78.4727C24.5247 78.4416 23.2782 77.1951 23.2471 75.8863C23.2471 74.5775 24.4936 73.331 25.8024 73.3621C27.08 73.4245 28.3265 74.671 28.3577 75.9486Z" fill="url(#paint7_linear_55_138)"/>
<path d="M89.0924 15.1827C89.0612 16.5226 88.0017 17.5821 86.6306 17.5821C85.2283 17.5821 84.1064 16.4915 84.1064 15.0892C84.1064 13.6869 85.2283 12.5962 86.6306 12.5962C88.0329 12.6585 89.1236 13.7804 89.0924 15.1827Z" fill="black"/>
<path d="M89.0924 15.1827C89.0612 16.5226 88.0017 17.5821 86.6306 17.5821C85.2283 17.5821 84.1064 16.4915 84.1064 15.0892C84.1064 13.6869 85.2283 12.5962 86.6306 12.5962C88.0329 12.6585 89.1236 13.7804 89.0924 15.1827Z" fill="url(#paint8_linear_55_138)"/>
<path d="M46.9924 45.5656C46.9612 40.5484 51.0123 36.4039 56.0917 36.2792C61.0465 36.1546 65.4092 40.5173 65.4092 45.5032C65.4092 50.5203 61.2335 54.6649 56.2164 54.6649C51.1058 54.6961 47.0235 50.645 46.9924 45.5656ZM56.1852 49.7101C58.4912 49.7101 60.3298 47.8404 60.2986 45.5032C60.2986 43.1661 58.4289 41.3275 56.0917 41.3587C53.7857 41.3898 51.9472 43.2595 51.9783 45.5656C52.0095 47.8716 53.8792 49.7101 56.1852 49.7101Z" fill="black"/>
<path d="M46.9924 45.5656C46.9612 40.5484 51.0123 36.4039 56.0917 36.2792C61.0465 36.1546 65.4092 40.5173 65.4092 45.5032C65.4092 50.5203 61.2335 54.6649 56.2164 54.6649C51.1058 54.6961 47.0235 50.645 46.9924 45.5656ZM56.1852 49.7101C58.4912 49.7101 60.3298 47.8404 60.2986 45.5032C60.2986 43.1661 58.4289 41.3275 56.0917 41.3587C53.7857 41.3898 51.9472 43.2595 51.9783 45.5656C52.0095 47.8716 53.8792 49.7101 56.1852 49.7101Z" fill="url(#paint9_linear_55_138)"/>
<defs>
<linearGradient id="paint0_linear_55_138" x1="82.7225" y1="21.2312" x2="121.643" y2="21.968" gradientUnits="userSpaceOnUse">
<stop stop-color="#37DADA"/>
<stop offset="1" stop-color="#254DB5"/>
</linearGradient>
<linearGradient id="paint1_linear_55_138" x1="27.0462" y1="24.2502" x2="70.9437" y2="25.3216" gradientUnits="userSpaceOnUse">
<stop stop-color="#37DADA"/>
<stop offset="1" stop-color="#254DB5"/>
</linearGradient>
<linearGradient id="paint2_linear_55_138" x1="-3.40426" y1="21.1343" x2="15.632" y2="21.3098" gradientUnits="userSpaceOnUse">
<stop stop-color="#37DADA"/>
<stop offset="1" stop-color="#254DB5"/>
</linearGradient>
<linearGradient id="paint3_linear_55_138" x1="19.1287" y1="73.5132" x2="79.7527" y2="78.5148" gradientUnits="userSpaceOnUse">
<stop stop-color="#37DADA"/>
<stop offset="1" stop-color="#254DB5"/>
</linearGradient>
<linearGradient id="paint4_linear_55_138" x1="12.5889" y1="-6.80015e-06" x2="71.9554" y2="4.76478" gradientUnits="userSpaceOnUse">
<stop stop-color="#37DADA"/>
<stop offset="1" stop-color="#254DB5"/>
</linearGradient>
<linearGradient id="paint5_linear_55_138" x1="22.7859" y1="64.8318" x2="72.8906" y2="69.0733" gradientUnits="userSpaceOnUse">
<stop stop-color="#37DADA"/>
<stop offset="1" stop-color="#254DB5"/>
</linearGradient>
<linearGradient id="paint6_linear_55_138" x1="22.749" y1="12.0974" x2="72.833" y2="16.356" gradientUnits="userSpaceOnUse">
<stop stop-color="#37DADA"/>
<stop offset="1" stop-color="#254DB5"/>
</linearGradient>
<linearGradient id="paint7_linear_55_138" x1="22.3034" y1="73.3616" x2="27.5774" y2="73.4903" gradientUnits="userSpaceOnUse">
<stop stop-color="#37DADA"/>
<stop offset="1" stop-color="#254DB5"/>
</linearGradient>
<linearGradient id="paint8_linear_55_138" x1="83.1857" y1="12.5962" x2="88.3317" y2="12.7218" gradientUnits="userSpaceOnUse">
<stop stop-color="#37DADA"/>
<stop offset="1" stop-color="#254DB5"/>
</linearGradient>
<linearGradient id="paint9_linear_55_138" x1="43.5917" y1="36.2766" x2="62.5973" y2="36.7412" gradientUnits="userSpaceOnUse">
<stop stop-color="#37DADA"/>
<stop offset="1" stop-color="#254DB5"/>
</linearGradient>
</defs>
</svg>
