<svg width="76" height="91" viewBox="0 0 76 91" fill="none" xmlns="http://www.w3.org/2000/svg">
<path d="M15.9541 31.7883C12.7878 33.4834 12.8512 33.4834 12.9778 36.5814C13.0411 37.8089 13.4844 38.2765 14.8776 38.3934C18.2971 38.5687 18.7404 39.1532 18.7404 42.3096C18.7404 45.3491 18.7404 48.3886 18.7404 51.4281C18.7404 53.1817 19.6269 54.1754 21.59 54.3507C22.16 54.4092 22.9199 54.7599 23.1732 55.169C24.313 57.2148 26.0861 57.624 28.5558 56.1627C27.9859 55.812 27.4793 55.4613 26.9727 55.169C26.9727 54.9937 26.9727 54.7599 26.9727 54.5845C28.1758 54.5261 29.379 54.5261 30.5189 54.2923C31.2788 54.1169 31.9753 53.4739 32.7353 53.0648C33.5585 52.5972 34.3184 51.7788 35.2049 51.6619C36.8514 51.4281 38.5612 51.6035 40.2709 51.6035C41.7907 51.6035 43.1839 51.6619 43.5005 53.5324C43.5638 53.8831 44.6404 54.2338 45.2736 54.3507C46.4768 54.5261 47.68 54.5261 48.8832 54.5845C48.8832 54.7599 48.9465 54.9352 48.9465 55.1106C48.5032 55.4613 47.9966 55.812 47.5533 56.2212C49.7064 57.6825 51.5428 57.2733 52.8093 55.2275C53.0626 54.8183 53.6959 54.5261 54.2658 54.4676C56.5455 54.2338 57.3687 53.0063 57.3054 50.9605C57.2421 47.921 57.2421 44.8815 57.3054 41.842C57.3054 39.3286 58.1286 38.5103 60.8516 38.5103C62.5614 38.5103 63.1946 37.9842 63.1946 36.406C63.1946 33.6003 63.258 33.6003 60.345 31.9637C62.2448 30.6777 64.1445 31.2623 64.5245 33.3081C64.6511 34.3017 64.5878 35.2954 64.5878 36.2891C64.5878 39.2702 64.2078 39.7378 60.9783 39.8547C59.3951 39.9131 58.8252 40.5561 58.8885 41.9589C58.9519 44.9984 58.9519 48.0379 58.8885 51.0774C58.8885 53.8831 58.192 54.8183 55.279 55.7536C54.8991 55.8705 54.4558 56.1043 54.2658 56.3965C51.7961 59.2022 48.2499 59.2022 45.8436 56.5719C45.4636 56.1627 44.7037 55.8705 44.1338 55.8705C40.1443 55.812 36.1548 55.812 32.1653 55.8705C31.4687 55.8705 30.5189 56.2796 30.1389 56.8057C28.1758 59.0853 23.9964 59.0853 22.0966 56.7472C21.6534 56.2212 20.9568 55.8705 20.3235 55.6367C18.2971 54.9937 17.3472 53.7077 17.3472 51.8373C17.3472 48.6809 17.2206 45.466 17.3472 42.3096C17.4106 40.6145 16.7773 39.9131 14.8776 39.8547C12.1546 39.7962 11.5213 39.0948 11.458 36.6398C11.458 35.8215 11.458 34.9447 11.5213 34.0679C11.458 31.4961 13.1678 30.6193 15.9541 31.7883ZM41.7274 53.2401C39.2577 53.2401 36.7881 53.2401 33.8118 53.2401C35.7749 54.4676 39.891 54.5261 41.7274 53.2401Z" fill="black"/>
<path d="M15.9541 31.7883C12.7878 33.4834 12.8512 33.4834 12.9778 36.5814C13.0411 37.8089 13.4844 38.2765 14.8776 38.3934C18.2971 38.5687 18.7404 39.1532 18.7404 42.3096C18.7404 45.3491 18.7404 48.3886 18.7404 51.4281C18.7404 53.1817 19.6269 54.1754 21.59 54.3507C22.16 54.4092 22.9199 54.7599 23.1732 55.169C24.313 57.2148 26.0861 57.624 28.5558 56.1627C27.9859 55.812 27.4793 55.4613 26.9727 55.169C26.9727 54.9937 26.9727 54.7599 26.9727 54.5845C28.1758 54.5261 29.379 54.5261 30.5189 54.2923C31.2788 54.1169 31.9753 53.4739 32.7353 53.0648C33.5585 52.5972 34.3184 51.7788 35.2049 51.6619C36.8514 51.4281 38.5612 51.6035 40.2709 51.6035C41.7907 51.6035 43.1839 51.6619 43.5005 53.5324C43.5638 53.8831 44.6404 54.2338 45.2736 54.3507C46.4768 54.5261 47.68 54.5261 48.8832 54.5845C48.8832 54.7599 48.9465 54.9352 48.9465 55.1106C48.5032 55.4613 47.9966 55.812 47.5533 56.2212C49.7064 57.6825 51.5428 57.2733 52.8093 55.2275C53.0626 54.8183 53.6959 54.5261 54.2658 54.4676C56.5455 54.2338 57.3687 53.0063 57.3054 50.9605C57.2421 47.921 57.2421 44.8815 57.3054 41.842C57.3054 39.3286 58.1286 38.5103 60.8516 38.5103C62.5614 38.5103 63.1946 37.9842 63.1946 36.406C63.1946 33.6003 63.258 33.6003 60.345 31.9637C62.2448 30.6777 64.1445 31.2623 64.5245 33.3081C64.6511 34.3017 64.5878 35.2954 64.5878 36.2891C64.5878 39.2702 64.2078 39.7378 60.9783 39.8547C59.3951 39.9131 58.8252 40.5561 58.8885 41.9589C58.9519 44.9984 58.9519 48.0379 58.8885 51.0774C58.8885 53.8831 58.192 54.8183 55.279 55.7536C54.8991 55.8705 54.4558 56.1043 54.2658 56.3965C51.7961 59.2022 48.2499 59.2022 45.8436 56.5719C45.4636 56.1627 44.7037 55.8705 44.1338 55.8705C40.1443 55.812 36.1548 55.812 32.1653 55.8705C31.4687 55.8705 30.5189 56.2796 30.1389 56.8057C28.1758 59.0853 23.9964 59.0853 22.0966 56.7472C21.6534 56.2212 20.9568 55.8705 20.3235 55.6367C18.2971 54.9937 17.3472 53.7077 17.3472 51.8373C17.3472 48.6809 17.2206 45.466 17.3472 42.3096C17.4106 40.6145 16.7773 39.9131 14.8776 39.8547C12.1546 39.7962 11.5213 39.0948 11.458 36.6398C11.458 35.8215 11.458 34.9447 11.5213 34.0679C11.458 31.4961 13.1678 30.6193 15.9541 31.7883ZM41.7274 53.2401C39.2577 53.2401 36.7881 53.2401 33.8118 53.2401C35.7749 54.4676 39.891 54.5261 41.7274 53.2401Z" fill="url(#paint0_linear_52_77)"/>
<path d="M38.055 42.485C33.6856 42.485 29.3161 42.485 24.9467 42.485C21.7805 42.485 20.7039 41.4329 20.7039 38.5103C20.7039 34.7109 20.6406 30.8531 20.7039 27.0537C20.7673 24.0142 21.7171 23.1375 25.01 23.1375C33.6856 23.1375 42.2978 23.1375 50.9733 23.1375C54.3296 23.1375 55.2794 24.0142 55.2794 27.2291C55.2794 31.1453 55.3428 35.0032 55.2794 38.9194C55.2794 41.4913 54.1396 42.5434 51.3533 42.5434C46.9839 42.485 42.5511 42.485 38.055 42.485ZM37.9917 24.4818C33.6223 24.4818 29.2528 24.4818 24.9467 24.4818C23.1736 24.4818 22.2237 25.0664 22.2237 26.8199C22.2871 30.8531 22.2871 34.8863 22.2237 38.861C22.2237 40.3223 22.857 41.0821 24.5034 41.0237C33.4323 40.9652 42.4244 41.0237 51.3533 41.0237C53.0631 41.0237 53.8863 40.3807 53.823 38.7441C53.7596 34.7694 53.7596 30.8531 53.823 26.8784C53.8863 25.0079 52.9364 24.4234 51.0367 24.4818C46.7306 24.5403 42.3611 24.4818 37.9917 24.4818Z" fill="black"/>
<path d="M38.055 42.485C33.6856 42.485 29.3161 42.485 24.9467 42.485C21.7805 42.485 20.7039 41.4329 20.7039 38.5103C20.7039 34.7109 20.6406 30.8531 20.7039 27.0537C20.7673 24.0142 21.7171 23.1375 25.01 23.1375C33.6856 23.1375 42.2978 23.1375 50.9733 23.1375C54.3296 23.1375 55.2794 24.0142 55.2794 27.2291C55.2794 31.1453 55.3428 35.0032 55.2794 38.9194C55.2794 41.4913 54.1396 42.5434 51.3533 42.5434C46.9839 42.485 42.5511 42.485 38.055 42.485ZM37.9917 24.4818C33.6223 24.4818 29.2528 24.4818 24.9467 24.4818C23.1736 24.4818 22.2237 25.0664 22.2237 26.8199C22.2871 30.8531 22.2871 34.8863 22.2237 38.861C22.2237 40.3223 22.857 41.0821 24.5034 41.0237C33.4323 40.9652 42.4244 41.0237 51.3533 41.0237C53.0631 41.0237 53.8863 40.3807 53.823 38.7441C53.7596 34.7694 53.7596 30.8531 53.823 26.8784C53.8863 25.0079 52.9364 24.4234 51.0367 24.4818C46.7306 24.5403 42.3611 24.4818 37.9917 24.4818Z" fill="url(#paint1_linear_52_77)"/>
<path d="M57.8753 34.5354C57.7486 33.7171 57.432 32.8987 57.432 32.0804C57.432 28.0472 57.4953 24.0141 57.4953 19.9809C57.4953 17.2921 56.7354 16.5907 53.8225 16.5907C43.3105 16.5907 32.8618 16.5907 22.3499 16.5907C19.5002 16.5907 18.677 17.3506 18.677 20.0393C18.677 24.1894 18.677 28.398 18.6137 32.548C18.6137 33.2495 18.3604 33.8924 18.2337 34.5938C17.9804 34.5938 17.7271 34.5938 17.4738 34.5354C17.3472 33.8924 17.2205 33.2495 17.2205 32.6065C17.2205 28.281 17.1572 24.0141 17.2205 19.6886C17.2205 16.5322 18.7403 15.1878 22.0966 15.1294C32.6719 15.1294 43.2472 15.1294 53.7591 15.1294C57.4953 15.1294 58.8251 16.4153 58.8885 19.864C58.8885 24.0141 58.8885 28.2226 58.8885 32.3727C58.8885 33.0741 58.6985 33.7755 58.5718 34.4769C58.4452 34.4769 58.1286 34.5354 57.8753 34.5354Z" fill="black"/>
<path d="M57.8753 34.5354C57.7486 33.7171 57.432 32.8987 57.432 32.0804C57.432 28.0472 57.4953 24.0141 57.4953 19.9809C57.4953 17.2921 56.7354 16.5907 53.8225 16.5907C43.3105 16.5907 32.8618 16.5907 22.3499 16.5907C19.5002 16.5907 18.677 17.3506 18.677 20.0393C18.677 24.1894 18.677 28.398 18.6137 32.548C18.6137 33.2495 18.3604 33.8924 18.2337 34.5938C17.9804 34.5938 17.7271 34.5938 17.4738 34.5354C17.3472 33.8924 17.2205 33.2495 17.2205 32.6065C17.2205 28.281 17.1572 24.0141 17.2205 19.6886C17.2205 16.5322 18.7403 15.1878 22.0966 15.1294C32.6719 15.1294 43.2472 15.1294 53.7591 15.1294C57.4953 15.1294 58.8251 16.4153 58.8885 19.864C58.8885 24.0141 58.8885 28.2226 58.8885 32.3727C58.8885 33.0741 58.6985 33.7755 58.5718 34.4769C58.4452 34.4769 58.1286 34.5354 57.8753 34.5354Z" fill="url(#paint2_linear_52_77)"/>
<path d="M38.1813 17.6429C39.2578 17.6429 40.3344 17.7014 41.4109 17.6429C43.0573 17.5845 44.0072 18.0521 44.0705 19.7472C44.0705 21.5008 43.184 22.1437 41.4109 22.0853C39.0679 22.0268 36.6615 22.0268 34.3185 22.0268C32.7353 22.0268 32.1654 21.3254 32.1654 19.9226C32.1021 18.4613 32.7353 17.6429 34.3818 17.6429C35.585 17.6429 36.8515 17.6429 38.1813 17.6429ZM37.6747 20.6824V20.624C39.0045 20.624 40.271 20.6824 41.6009 20.5655C41.9175 20.5655 42.2341 20.0395 42.3608 19.7472C42.4241 19.6303 41.9175 19.1042 41.6642 19.1042C39.3212 19.0458 36.9148 18.9873 34.5718 19.0458C34.2552 19.0458 34.0019 19.5134 33.6852 19.8057C34.0652 20.0979 34.3818 20.624 34.7618 20.624C35.6483 20.7993 36.6615 20.6824 37.6747 20.6824Z" fill="black"/>
<path d="M38.1813 17.6429C39.2578 17.6429 40.3344 17.7014 41.4109 17.6429C43.0573 17.5845 44.0072 18.0521 44.0705 19.7472C44.0705 21.5008 43.184 22.1437 41.4109 22.0853C39.0679 22.0268 36.6615 22.0268 34.3185 22.0268C32.7353 22.0268 32.1654 21.3254 32.1654 19.9226C32.1021 18.4613 32.7353 17.6429 34.3818 17.6429C35.585 17.6429 36.8515 17.6429 38.1813 17.6429ZM37.6747 20.6824V20.624C39.0045 20.624 40.271 20.6824 41.6009 20.5655C41.9175 20.5655 42.2341 20.0395 42.3608 19.7472C42.4241 19.6303 41.9175 19.1042 41.6642 19.1042C39.3212 19.0458 36.9148 18.9873 34.5718 19.0458C34.2552 19.0458 34.0019 19.5134 33.6852 19.8057C34.0652 20.0979 34.3818 20.624 34.7618 20.624C35.6483 20.7993 36.6615 20.6824 37.6747 20.6824Z" fill="url(#paint3_linear_52_77)"/>
<path d="M25.0726 45.7582C25.7691 45.7582 26.4657 45.6997 27.099 45.7582C28.5554 45.8751 29.442 46.6349 29.5053 48.0962C29.5686 49.616 28.7454 50.5512 27.1623 50.7266C25.8958 50.8435 24.566 50.785 23.2995 50.785C21.5264 50.7266 20.7031 49.8498 20.7031 48.2131C20.7031 46.5765 21.653 45.8166 23.4261 45.7582C24.0594 45.7582 24.566 45.7582 25.0726 45.7582ZM25.0726 47.161C24.6926 47.161 24.2493 47.0441 23.9327 47.161C23.3628 47.3948 22.8562 47.804 22.2863 48.1547C22.7929 48.5638 23.2361 49.1484 23.8061 49.2653C24.7559 49.4406 25.8325 49.4406 26.7823 49.2653C27.2256 49.1484 27.5422 48.4469 27.9222 48.0378C27.4789 47.7455 27.1623 47.2779 26.6557 47.161C26.1491 47.0441 25.5792 47.161 25.0726 47.161Z" fill="black"/>
<path d="M25.0726 45.7582C25.7691 45.7582 26.4657 45.6997 27.099 45.7582C28.5554 45.8751 29.442 46.6349 29.5053 48.0962C29.5686 49.616 28.7454 50.5512 27.1623 50.7266C25.8958 50.8435 24.566 50.785 23.2995 50.785C21.5264 50.7266 20.7031 49.8498 20.7031 48.2131C20.7031 46.5765 21.653 45.8166 23.4261 45.7582C24.0594 45.7582 24.566 45.7582 25.0726 45.7582ZM25.0726 47.161C24.6926 47.161 24.2493 47.0441 23.9327 47.161C23.3628 47.3948 22.8562 47.804 22.2863 48.1547C22.7929 48.5638 23.2361 49.1484 23.8061 49.2653C24.7559 49.4406 25.8325 49.4406 26.7823 49.2653C27.2256 49.1484 27.5422 48.4469 27.9222 48.0378C27.4789 47.7455 27.1623 47.2779 26.6557 47.161C26.1491 47.0441 25.5792 47.161 25.0726 47.161Z" fill="url(#paint4_linear_52_77)"/>
<path d="M51.0359 45.4075C52.3024 45.7582 53.5689 46.0504 54.7721 46.5765C55.0888 46.6934 55.2154 47.4533 55.2787 47.9209C55.532 49.9083 54.4555 50.785 51.8592 50.8435C47.6164 50.9019 46.5399 50.3759 46.6032 48.1547C46.7298 46.0504 47.2998 45.7582 51.0359 45.4075ZM50.9093 49.3237C50.9093 49.3822 50.9093 49.3822 50.9093 49.3237C51.2892 49.3237 51.7325 49.4991 52.0491 49.3237C52.6824 49.0315 53.189 48.5639 53.8222 48.1547C53.2523 47.804 52.7457 47.2779 52.1758 47.2195C51.2259 47.0441 50.2127 47.1026 49.1995 47.2195C48.7562 47.2779 48.123 47.8624 48.123 48.2132C48.123 48.5639 48.6929 49.1484 49.1362 49.3237C49.6428 49.4991 50.3394 49.3237 50.9093 49.3237Z" fill="black"/>
<path d="M51.0359 45.4075C52.3024 45.7582 53.5689 46.0504 54.7721 46.5765C55.0888 46.6934 55.2154 47.4533 55.2787 47.9209C55.532 49.9083 54.4555 50.785 51.8592 50.8435C47.6164 50.9019 46.5399 50.3759 46.6032 48.1547C46.7298 46.0504 47.2998 45.7582 51.0359 45.4075ZM50.9093 49.3237C50.9093 49.3822 50.9093 49.3822 50.9093 49.3237C51.2892 49.3237 51.7325 49.4991 52.0491 49.3237C52.6824 49.0315 53.189 48.5639 53.8222 48.1547C53.2523 47.804 52.7457 47.2779 52.1758 47.2195C51.2259 47.0441 50.2127 47.1026 49.1995 47.2195C48.7562 47.2779 48.123 47.8624 48.123 48.2132C48.123 48.5639 48.6929 49.1484 49.1362 49.3237C49.6428 49.4991 50.3394 49.3237 50.9093 49.3237Z" fill="url(#paint5_linear_52_77)"/>
<path d="M32.2285 48.9148C36.028 48.9148 39.8275 48.9148 44.0703 48.9148C43.627 49.4409 43.4371 49.9085 43.1204 50.0254C41.094 50.493 33.305 49.9669 32.2285 48.9148Z" fill="black"/>
<path d="M32.2285 48.9148C36.028 48.9148 39.8275 48.9148 44.0703 48.9148C43.627 49.4409 43.4371 49.9085 43.1204 50.0254C41.094 50.493 33.305 49.9669 32.2285 48.9148Z" fill="url(#paint6_linear_52_77)"/>
<path d="M43.7536 47.3948C39.7641 47.3948 36.0279 47.3948 31.7852 47.3948C34.0015 45.9919 42.5504 46.1088 43.7536 47.3948Z" fill="black"/>
<path d="M43.7536 47.3948C39.7641 47.3948 36.0279 47.3948 31.7852 47.3948C34.0015 45.9919 42.5504 46.1088 43.7536 47.3948Z" fill="url(#paint7_linear_52_77)"/>
<path d="M33.8117 27.3457C31.1521 30.6775 28.2391 32.9571 25.3262 35.1198C25.3262 33.1909 31.0254 27.9302 33.8117 27.3457Z" fill="black"/>
<path d="M33.8117 27.3457C31.1521 30.6775 28.2391 32.9571 25.3262 35.1198C25.3262 33.1909 31.0254 27.9302 33.8117 27.3457Z" fill="url(#paint8_linear_52_77)"/>
<path d="M28.936 26.9951C27.5429 28.3395 26.3397 29.5085 25.0099 30.8529C24.6299 28.8656 26.4663 27.0536 28.936 26.9951Z" fill="black"/>
<path d="M28.936 26.9951C27.5429 28.3395 26.3397 29.5085 25.0099 30.8529C24.6299 28.8656 26.4663 27.0536 28.936 26.9951Z" fill="url(#paint9_linear_52_77)"/>
<path d="M37.9284 91C36.0287 91 34.2556 90.1817 33.1157 88.7788L25.3267 79.3096C20.704 73.6983 15.5113 67.3855 11.9651 63.06C8.48223 58.7931 4.55607 53.5908 2.21304 47.2781C-1.45981 37.6335 -0.509936 27.1122 4.68272 18.286C9.87539 9.5182 19.0575 3.2054 29.8228 0.86733C39.8282 -1.29539 50.5934 0.633523 59.3323 6.12799C68.0712 11.6225 74.0237 20.1564 75.5435 29.5672C77.0634 39.0948 74.7836 48.1548 68.7678 56.455C65.4115 61.1311 61.6753 65.6904 58.0658 70.0743L55.0262 73.8152C51.7966 77.7899 46.0974 84.6872 42.7411 88.7204C41.538 90.2401 39.8282 91 37.9284 91ZM37.9284 5.07586C35.6487 5.07586 33.3057 5.36812 31.026 5.83573C21.6539 7.82309 13.9915 13.1422 9.43211 20.7994C4.8727 28.3981 4.1128 37.2828 7.34238 45.6999C9.49543 51.3112 13.105 56.1627 16.3345 60.079C19.8808 64.4044 25.0734 70.6588 29.6962 76.2701L37.5485 85.7978C37.6751 85.9731 37.9284 86.0316 38.0551 86.0316C38.1817 86.0316 38.3717 85.9731 38.5617 85.7978C41.7913 81.7646 47.4905 74.8673 50.6568 70.951L53.6964 67.2101C57.2426 62.8847 60.9154 58.3839 64.2084 53.8247C69.4643 46.5182 71.4274 38.6856 70.0976 30.4439C68.7678 22.436 63.7651 15.1296 56.2294 10.395C50.7834 6.94632 44.3243 5.07586 37.9284 5.07586Z" fill="black"/>
<path d="M37.9284 91C36.0287 91 34.2556 90.1817 33.1157 88.7788L25.3267 79.3096C20.704 73.6983 15.5113 67.3855 11.9651 63.06C8.48223 58.7931 4.55607 53.5908 2.21304 47.2781C-1.45981 37.6335 -0.509936 27.1122 4.68272 18.286C9.87539 9.5182 19.0575 3.2054 29.8228 0.86733C39.8282 -1.29539 50.5934 0.633523 59.3323 6.12799C68.0712 11.6225 74.0237 20.1564 75.5435 29.5672C77.0634 39.0948 74.7836 48.1548 68.7678 56.455C65.4115 61.1311 61.6753 65.6904 58.0658 70.0743L55.0262 73.8152C51.7966 77.7899 46.0974 84.6872 42.7411 88.7204C41.538 90.2401 39.8282 91 37.9284 91ZM37.9284 5.07586C35.6487 5.07586 33.3057 5.36812 31.026 5.83573C21.6539 7.82309 13.9915 13.1422 9.43211 20.7994C4.8727 28.3981 4.1128 37.2828 7.34238 45.6999C9.49543 51.3112 13.105 56.1627 16.3345 60.079C19.8808 64.4044 25.0734 70.6588 29.6962 76.2701L37.5485 85.7978C37.6751 85.9731 37.9284 86.0316 38.0551 86.0316C38.1817 86.0316 38.3717 85.9731 38.5617 85.7978C41.7913 81.7646 47.4905 74.8673 50.6568 70.951L53.6964 67.2101C57.2426 62.8847 60.9154 58.3839 64.2084 53.8247C69.4643 46.5182 71.4274 38.6856 70.0976 30.4439C68.7678 22.436 63.7651 15.1296 56.2294 10.395C50.7834 6.94632 44.3243 5.07586 37.9284 5.07586Z" fill="url(#paint10_linear_52_77)"/>
<defs>
<linearGradient id="paint0_linear_52_77" x1="1.64517" y1="31.2788" x2="56.398" y2="33.8856" gradientUnits="userSpaceOnUse">
<stop stop-color="#37DADA"/>
<stop offset="1" stop-color="#254DB5"/>
</linearGradient>
<linearGradient id="paint1_linear_52_77" x1="14.2813" y1="23.1374" x2="49.9736" y2="24.692" gradientUnits="userSpaceOnUse">
<stop stop-color="#37DADA"/>
<stop offset="1" stop-color="#254DB5"/>
</linearGradient>
<linearGradient id="paint2_linear_52_77" x1="9.4936" y1="15.1294" x2="52.4306" y2="17.3743" gradientUnits="userSpaceOnUse">
<stop stop-color="#37DADA"/>
<stop offset="1" stop-color="#254DB5"/>
</linearGradient>
<linearGradient id="paint3_linear_52_77" x1="29.9622" y1="17.6382" x2="42.2073" y2="18.4379" gradientUnits="userSpaceOnUse">
<stop stop-color="#37DADA"/>
<stop offset="1" stop-color="#254DB5"/>
</linearGradient>
<linearGradient id="paint4_linear_52_77" x1="19.0773" y1="45.7322" x2="28.1534" y2="46.1171" gradientUnits="userSpaceOnUse">
<stop stop-color="#37DADA"/>
<stop offset="1" stop-color="#254DB5"/>
</linearGradient>
<linearGradient id="paint5_linear_52_77" x1="44.9916" y1="45.4075" x2="53.9759" y2="45.7587" gradientUnits="userSpaceOnUse">
<stop stop-color="#37DADA"/>
<stop offset="1" stop-color="#254DB5"/>
</linearGradient>
<linearGradient id="paint6_linear_52_77" x1="30.042" y1="48.9148" x2="41.6785" y2="51.5375" gradientUnits="userSpaceOnUse">
<stop stop-color="#37DADA"/>
<stop offset="1" stop-color="#254DB5"/>
</linearGradient>
<linearGradient id="paint7_linear_52_77" x1="29.5753" y1="46.386" x2="40.9776" y2="49.6877" gradientUnits="userSpaceOnUse">
<stop stop-color="#37DADA"/>
<stop offset="1" stop-color="#254DB5"/>
</linearGradient>
<linearGradient id="paint8_linear_52_77" x1="23.7594" y1="27.3457" x2="32.5152" y2="27.579" gradientUnits="userSpaceOnUse">
<stop stop-color="#37DADA"/>
<stop offset="1" stop-color="#254DB5"/>
</linearGradient>
<linearGradient id="paint9_linear_52_77" x1="24.2258" y1="26.9951" x2="28.3288" y2="27.0983" gradientUnits="userSpaceOnUse">
<stop stop-color="#37DADA"/>
<stop offset="1" stop-color="#254DB5"/>
</linearGradient>
<linearGradient id="paint10_linear_52_77" x1="-14.0327" y1="-3.5168e-05" x2="64.4105" y2="1.59891" gradientUnits="userSpaceOnUse">
<stop stop-color="#37DADA"/>
<stop offset="1" stop-color="#254DB5"/>
</linearGradient>
</defs>
</svg>
