<svg width="92" height="91" viewBox="0 0 92 91" fill="none" xmlns="http://www.w3.org/2000/svg">
<path d="M84.9065 33.371C84.9065 34.4588 84.9065 35.3695 84.9065 36.432C84.527 36.432 84.1729 36.432 83.8187 36.432C72.6369 36.432 61.4805 36.432 50.2988 36.4067C49.5651 36.4067 49.2362 36.6344 48.8568 37.2922C47.8955 39.0377 46.7823 40.7327 45.7198 42.4783C56.6992 42.4783 67.7291 42.4783 78.8097 42.4783C78.8097 43.5155 78.8097 44.4768 78.8097 45.5393C78.4302 45.5393 78.0507 45.5393 77.6966 45.5393C66.2618 45.5393 54.8524 45.5393 43.4177 45.5646C42.8864 45.5646 42.254 45.7923 41.8239 46.1212C39.4965 47.8668 36.9667 49.2835 34.2092 50.2195C33.6021 50.4219 33.2732 50.7001 33.0455 51.3073C31.224 56.0127 29.352 60.6929 27.5052 65.373C27.2016 66.1067 26.8475 66.7644 25.9367 66.7644C25.026 66.7897 24.6212 66.1825 24.3177 65.4236C22.4709 60.7182 20.5736 56.0127 18.7268 51.282C18.4991 50.7001 18.1702 50.4219 17.5884 50.1942C7.84864 46.6019 1.9036 39.7208 0.309825 29.4498C-1.9164 15.207 8.10162 2.10259 22.4203 0.230538C29.5038 -0.680192 35.9295 1.11597 41.5962 5.46723C42.1781 5.9226 42.7346 6.12498 43.4683 6.12498C54.8524 6.09969 66.2618 6.09969 77.646 6.09969C78.0254 6.09969 78.3796 6.09969 78.8097 6.09969C78.8097 7.11161 78.8097 8.04763 78.8097 9.13545C73.2947 9.13545 67.7797 9.13545 62.2647 9.13545C56.7498 9.13545 51.2095 9.13545 45.4668 9.13545C45.8463 9.61611 46.1499 9.94499 46.3776 10.3245C47.2377 11.6906 48.1231 13.0313 48.8821 14.448C49.2109 15.0552 49.5398 15.2323 50.1723 15.2323C61.354 15.207 72.5105 15.2323 83.6922 15.2323C84.0717 15.2323 84.4258 15.2323 84.8559 15.2323C84.8559 16.2442 84.8559 17.1802 84.8559 18.2175C73.4465 18.2175 62.0371 18.2175 50.577 18.2175C50.9565 20.2666 51.336 22.2145 51.7155 24.289C64.6934 24.289 77.7724 24.289 90.9021 24.289C90.9021 25.3262 90.9021 26.2622 90.9021 27.2994C77.8483 27.2994 64.7692 27.2994 51.7155 27.2994C51.3107 29.3739 50.9312 31.3218 50.5517 33.3963C61.9612 33.371 73.3959 33.371 84.9065 33.371ZM25.8103 60.9964C26.0126 60.4905 26.1391 60.2375 26.2403 59.9845C27.6064 56.5187 29.0231 53.1035 30.3133 49.6123C30.7687 48.3727 31.5023 47.7909 32.7166 47.4114C43.5695 44.1227 50.4 32.5867 48.1231 21.5062C45.5933 9.21135 34.3357 1.44484 21.9144 3.44339C10.0243 5.36604 1.42294 16.9525 3.32029 28.9185C4.78758 38.2535 10.1761 44.4768 19.1569 47.4873C20.2194 47.8415 20.8518 48.3727 21.2566 49.4099C22.7239 53.2047 24.2418 56.9741 25.8103 60.9964Z" fill="black"/>
<path d="M84.9065 33.371C84.9065 34.4588 84.9065 35.3695 84.9065 36.432C84.527 36.432 84.1729 36.432 83.8187 36.432C72.6369 36.432 61.4805 36.432 50.2988 36.4067C49.5651 36.4067 49.2362 36.6344 48.8568 37.2922C47.8955 39.0377 46.7823 40.7327 45.7198 42.4783C56.6992 42.4783 67.7291 42.4783 78.8097 42.4783C78.8097 43.5155 78.8097 44.4768 78.8097 45.5393C78.4302 45.5393 78.0507 45.5393 77.6966 45.5393C66.2618 45.5393 54.8524 45.5393 43.4177 45.5646C42.8864 45.5646 42.254 45.7923 41.8239 46.1212C39.4965 47.8668 36.9667 49.2835 34.2092 50.2195C33.6021 50.4219 33.2732 50.7001 33.0455 51.3073C31.224 56.0127 29.352 60.6929 27.5052 65.373C27.2016 66.1067 26.8475 66.7644 25.9367 66.7644C25.026 66.7897 24.6212 66.1825 24.3177 65.4236C22.4709 60.7182 20.5736 56.0127 18.7268 51.282C18.4991 50.7001 18.1702 50.4219 17.5884 50.1942C7.84864 46.6019 1.9036 39.7208 0.309825 29.4498C-1.9164 15.207 8.10162 2.10259 22.4203 0.230538C29.5038 -0.680192 35.9295 1.11597 41.5962 5.46723C42.1781 5.9226 42.7346 6.12498 43.4683 6.12498C54.8524 6.09969 66.2618 6.09969 77.646 6.09969C78.0254 6.09969 78.3796 6.09969 78.8097 6.09969C78.8097 7.11161 78.8097 8.04763 78.8097 9.13545C73.2947 9.13545 67.7797 9.13545 62.2647 9.13545C56.7498 9.13545 51.2095 9.13545 45.4668 9.13545C45.8463 9.61611 46.1499 9.94499 46.3776 10.3245C47.2377 11.6906 48.1231 13.0313 48.8821 14.448C49.2109 15.0552 49.5398 15.2323 50.1723 15.2323C61.354 15.207 72.5105 15.2323 83.6922 15.2323C84.0717 15.2323 84.4258 15.2323 84.8559 15.2323C84.8559 16.2442 84.8559 17.1802 84.8559 18.2175C73.4465 18.2175 62.0371 18.2175 50.577 18.2175C50.9565 20.2666 51.336 22.2145 51.7155 24.289C64.6934 24.289 77.7724 24.289 90.9021 24.289C90.9021 25.3262 90.9021 26.2622 90.9021 27.2994C77.8483 27.2994 64.7692 27.2994 51.7155 27.2994C51.3107 29.3739 50.9312 31.3218 50.5517 33.3963C61.9612 33.371 73.3959 33.371 84.9065 33.371ZM25.8103 60.9964C26.0126 60.4905 26.1391 60.2375 26.2403 59.9845C27.6064 56.5187 29.0231 53.1035 30.3133 49.6123C30.7687 48.3727 31.5023 47.7909 32.7166 47.4114C43.5695 44.1227 50.4 32.5867 48.1231 21.5062C45.5933 9.21135 34.3357 1.44484 21.9144 3.44339C10.0243 5.36604 1.42294 16.9525 3.32029 28.9185C4.78758 38.2535 10.1761 44.4768 19.1569 47.4873C20.2194 47.8415 20.8518 48.3727 21.2566 49.4099C22.7239 53.2047 24.2418 56.9741 25.8103 60.9964Z" fill="url(#paint0_linear_55_92)"/>
<path d="M36.5118 63.7034C36.8407 63.7034 37.0936 63.7034 37.3719 63.7034C52.7025 63.7034 68.0585 63.7034 83.3891 63.7034C87.1079 63.7034 90.0678 66.1573 90.852 69.8255C91.5603 73.2154 89.7389 76.8078 86.4501 78.1739C85.4129 78.6039 84.1986 78.8063 83.0602 78.8063C58.1163 78.8316 33.1977 78.8316 8.25387 78.8316C6.91308 78.8316 5.67347 79.0846 4.66155 79.9953C3.24486 81.2602 2.7389 83.1576 3.39665 84.9031C4.10499 86.7752 5.52169 87.7365 7.46963 87.9389C7.84911 87.9642 8.22858 87.9642 8.60805 87.9642C31.0727 87.9642 53.5374 87.9642 76.0273 87.9642C76.4321 87.9642 76.8369 87.9642 77.2923 87.9642C77.2923 88.9761 77.2923 89.9121 77.2923 91C77.014 91 76.7104 91 76.4321 91C53.5627 91 30.6679 91 7.79851 91C3.82672 91 0.512672 88.116 0.133201 84.3213C-0.296866 80.2989 2.30883 76.7825 6.33122 75.9729C6.93838 75.8464 7.59612 75.8464 8.20328 75.8464C33.0966 75.8464 58.0151 75.8464 82.9084 75.8464C85.3876 75.8464 87.1838 74.6321 87.7656 72.583C88.5752 69.7496 86.5766 66.9668 83.6168 66.7644C83.2626 66.7391 82.9337 66.7644 82.5795 66.7644C67.6284 66.7644 52.6519 66.7644 37.7008 66.7644C37.3213 66.7644 36.9672 66.7644 36.5371 66.7644C36.5118 65.7272 36.5118 64.7912 36.5118 63.7034Z" fill="black"/>
<path d="M36.5118 63.7034C36.8407 63.7034 37.0936 63.7034 37.3719 63.7034C52.7025 63.7034 68.0585 63.7034 83.3891 63.7034C87.1079 63.7034 90.0678 66.1573 90.852 69.8255C91.5603 73.2154 89.7389 76.8078 86.4501 78.1739C85.4129 78.6039 84.1986 78.8063 83.0602 78.8063C58.1163 78.8316 33.1977 78.8316 8.25387 78.8316C6.91308 78.8316 5.67347 79.0846 4.66155 79.9953C3.24486 81.2602 2.7389 83.1576 3.39665 84.9031C4.10499 86.7752 5.52169 87.7365 7.46963 87.9389C7.84911 87.9642 8.22858 87.9642 8.60805 87.9642C31.0727 87.9642 53.5374 87.9642 76.0273 87.9642C76.4321 87.9642 76.8369 87.9642 77.2923 87.9642C77.2923 88.9761 77.2923 89.9121 77.2923 91C77.014 91 76.7104 91 76.4321 91C53.5627 91 30.6679 91 7.79851 91C3.82672 91 0.512672 88.116 0.133201 84.3213C-0.296866 80.2989 2.30883 76.7825 6.33122 75.9729C6.93838 75.8464 7.59612 75.8464 8.20328 75.8464C33.0966 75.8464 58.0151 75.8464 82.9084 75.8464C85.3876 75.8464 87.1838 74.6321 87.7656 72.583C88.5752 69.7496 86.5766 66.9668 83.6168 66.7644C83.2626 66.7391 82.9337 66.7644 82.5795 66.7644C67.6284 66.7644 52.6519 66.7644 37.7008 66.7644C37.3213 66.7644 36.9672 66.7644 36.5371 66.7644C36.5118 65.7272 36.5118 64.7912 36.5118 63.7034Z" fill="url(#paint1_linear_55_92)"/>
<path d="M30.4399 63.7539C31.4519 63.7539 32.3626 63.7539 33.3492 63.7539C33.3492 64.7152 33.3492 65.6513 33.3492 66.6632C32.4132 66.6632 31.4519 66.6632 30.4399 66.6632C30.4399 65.7272 30.4399 64.7658 30.4399 63.7539Z" fill="black"/>
<path d="M30.4399 63.7539C31.4519 63.7539 32.3626 63.7539 33.3492 63.7539C33.3492 64.7152 33.3492 65.6513 33.3492 66.6632C32.4132 66.6632 31.4519 66.6632 30.4399 66.6632C30.4399 65.7272 30.4399 64.7658 30.4399 63.7539Z" fill="url(#paint2_linear_55_92)"/>
<path d="M83.3381 90.9495C82.3768 90.9495 81.4407 90.9495 80.4541 90.9495C80.4541 89.9628 80.4541 89.0015 80.4541 88.0149C81.4154 88.0149 82.3262 88.0149 83.3381 88.0149C83.3381 88.9256 83.3381 89.8869 83.3381 90.9495Z" fill="black"/>
<path d="M83.3381 90.9495C82.3768 90.9495 81.4407 90.9495 80.4541 90.9495C80.4541 89.9628 80.4541 89.0015 80.4541 88.0149C81.4154 88.0149 82.3262 88.0149 83.3381 88.0149C83.3381 88.9256 83.3381 89.8869 83.3381 90.9495Z" fill="url(#paint3_linear_55_92)"/>
<path d="M86.5259 87.9893C87.5125 87.9893 88.4485 87.9893 89.4352 87.9893C89.4352 88.9759 89.4352 89.9372 89.4352 90.9238C88.4738 90.9238 87.5378 90.9238 86.5259 90.9238C86.5259 89.9878 86.5259 89.0265 86.5259 87.9893Z" fill="black"/>
<path d="M86.5259 87.9893C87.5125 87.9893 88.4485 87.9893 89.4352 87.9893C89.4352 88.9759 89.4352 89.9372 89.4352 90.9238C88.4738 90.9238 87.5378 90.9238 86.5259 90.9238C86.5259 89.9878 86.5259 89.0265 86.5259 87.9893Z" fill="url(#paint4_linear_55_92)"/>
<path d="M25.8863 45.5141C14.8564 45.5141 6.12857 36.7103 6.15386 25.6298C6.15386 14.8528 15.0335 6.125 25.9875 6.125C36.7645 6.125 45.5429 14.9793 45.5176 25.8322C45.5176 36.7103 36.7392 45.5141 25.8863 45.5141ZM42.4566 27.2995C41.4193 27.2995 40.458 27.2995 39.522 27.2995C39.522 26.2622 39.522 25.3262 39.522 24.289C40.5339 24.289 41.4952 24.289 42.4566 24.289C41.5458 14.9034 33.5769 9.51494 27.3283 9.36315C27.3283 10.2992 27.3283 11.2099 27.3283 12.1459C26.2658 12.1459 25.3551 12.1459 24.2926 12.1459C24.2926 11.1846 24.2926 10.2739 24.2926 9.33785C16.1972 9.81852 9.64499 17.0032 9.36671 24.3396C10.3027 24.3396 11.2135 24.3396 12.1495 24.3396C12.1495 25.4021 12.1495 26.3128 12.1495 27.3754C11.1882 27.3754 10.2774 27.3754 9.34142 27.3754C9.72089 34.7877 16.1213 41.8458 24.3432 42.4277C24.3432 41.4664 24.3432 40.505 24.3432 39.5437C25.4057 39.5437 26.367 39.5437 27.3789 39.5437C27.3789 40.5556 27.3789 41.4917 27.3789 42.4277C35.196 41.9217 41.6976 35.4454 42.4566 27.2995Z" fill="black"/>
<path d="M25.8863 45.5141C14.8564 45.5141 6.12857 36.7103 6.15386 25.6298C6.15386 14.8528 15.0335 6.125 25.9875 6.125C36.7645 6.125 45.5429 14.9793 45.5176 25.8322C45.5176 36.7103 36.7392 45.5141 25.8863 45.5141ZM42.4566 27.2995C41.4193 27.2995 40.458 27.2995 39.522 27.2995C39.522 26.2622 39.522 25.3262 39.522 24.289C40.5339 24.289 41.4952 24.289 42.4566 24.289C41.5458 14.9034 33.5769 9.51494 27.3283 9.36315C27.3283 10.2992 27.3283 11.2099 27.3283 12.1459C26.2658 12.1459 25.3551 12.1459 24.2926 12.1459C24.2926 11.1846 24.2926 10.2739 24.2926 9.33785C16.1972 9.81852 9.64499 17.0032 9.36671 24.3396C10.3027 24.3396 11.2135 24.3396 12.1495 24.3396C12.1495 25.4021 12.1495 26.3128 12.1495 27.3754C11.1882 27.3754 10.2774 27.3754 9.34142 27.3754C9.72089 34.7877 16.1213 41.8458 24.3432 42.4277C24.3432 41.4664 24.3432 40.505 24.3432 39.5437C25.4057 39.5437 26.367 39.5437 27.3789 39.5437C27.3789 40.5556 27.3789 41.4917 27.3789 42.4277C35.196 41.9217 41.6976 35.4454 42.4566 27.2995Z" fill="url(#paint5_linear_55_92)"/>
<path d="M19.3593 35.8754C18.6257 35.1924 17.9426 34.5093 17.209 33.8263C19.3593 31.6506 21.4844 29.5003 23.66 27.3753C24.1406 26.8946 24.343 26.4139 24.343 25.7309C24.2924 22.771 24.3177 19.8112 24.3177 16.7754C25.3297 16.7754 26.291 16.7754 27.3535 16.7754C27.3535 18.8498 27.3535 20.899 27.3535 22.9481C27.3535 24.3395 27.4041 25.7309 27.3282 27.1223C27.3029 27.5777 27.1511 28.1595 26.8475 28.4884C24.4442 30.9676 22.0156 33.3709 19.5617 35.7995C19.4858 35.8501 19.3846 35.8754 19.3593 35.8754Z" fill="black"/>
<path d="M19.3593 35.8754C18.6257 35.1924 17.9426 34.5093 17.209 33.8263C19.3593 31.6506 21.4844 29.5003 23.66 27.3753C24.1406 26.8946 24.343 26.4139 24.343 25.7309C24.2924 22.771 24.3177 19.8112 24.3177 16.7754C25.3297 16.7754 26.291 16.7754 27.3535 16.7754C27.3535 18.8498 27.3535 20.899 27.3535 22.9481C27.3535 24.3395 27.4041 25.7309 27.3282 27.1223C27.3029 27.5777 27.1511 28.1595 26.8475 28.4884C24.4442 30.9676 22.0156 33.3709 19.5617 35.7995C19.4858 35.8501 19.3846 35.8754 19.3593 35.8754Z" fill="url(#paint6_linear_55_92)"/>
<defs>
<linearGradient id="paint0_linear_55_92" x1="-16.7842" y1="-2.58022e-05" x2="76.9757" y2="3.11561" gradientUnits="userSpaceOnUse">
<stop stop-color="#37DADA"/>
<stop offset="1" stop-color="#254DB5"/>
</linearGradient>
<linearGradient id="paint1_linear_55_92" x1="-16.7" y1="63.7034" x2="76.5623" y2="71.2847" gradientUnits="userSpaceOnUse">
<stop stop-color="#37DADA"/>
<stop offset="1" stop-color="#254DB5"/>
</linearGradient>
<linearGradient id="paint2_linear_55_92" x1="29.9028" y1="63.7539" x2="32.905" y2="63.8272" gradientUnits="userSpaceOnUse">
<stop stop-color="#37DADA"/>
<stop offset="1" stop-color="#254DB5"/>
</linearGradient>
<linearGradient id="paint3_linear_55_92" x1="79.9216" y1="88.0149" x2="82.8978" y2="88.0863" gradientUnits="userSpaceOnUse">
<stop stop-color="#37DADA"/>
<stop offset="1" stop-color="#254DB5"/>
</linearGradient>
<linearGradient id="paint4_linear_55_92" x1="85.9887" y1="87.9893" x2="88.991" y2="88.0619" gradientUnits="userSpaceOnUse">
<stop stop-color="#37DADA"/>
<stop offset="1" stop-color="#254DB5"/>
</linearGradient>
<linearGradient id="paint5_linear_55_92" x1="-1.11436" y1="6.12498" x2="39.5077" y2="7.11579" gradientUnits="userSpaceOnUse">
<stop stop-color="#37DADA"/>
<stop offset="1" stop-color="#254DB5"/>
</linearGradient>
<linearGradient id="paint6_linear_55_92" x1="15.3328" y1="16.7754" x2="25.8231" y2="16.9116" gradientUnits="userSpaceOnUse">
<stop stop-color="#37DADA"/>
<stop offset="1" stop-color="#254DB5"/>
</linearGradient>
</defs>
</svg>
