<svg width="91" height="91" viewBox="0 0 91 91" fill="none" xmlns="http://www.w3.org/2000/svg">
<path d="M72.6328 89.5891C81.9091 87.0727 87.7808 81.0529 90.0506 71.7273C90.0999 71.6286 90.1493 71.4806 90.1986 71.3819V70.2964C90.1986 70.247 90.1493 70.247 90.1493 70.1977C89.5078 68.7174 88.669 68.1746 87.3368 68.3227C86.2019 68.4214 85.5111 69.2602 85.1657 70.7898C83.0934 80.2141 74.0637 86.4806 64.6394 85.0497C58.7677 84.1615 53.8335 80.5595 51.169 75.2306C48.5045 69.9016 48.5045 63.8325 51.2677 58.5529C55.2151 51.0529 63.5539 47.3523 71.9914 49.4246C72.8795 49.622 73.521 49.5727 74.1131 49.2766C75.0012 48.7832 75.544 47.7964 75.4453 46.7602C75.3466 45.724 74.5572 44.8852 73.3729 44.5891C70.1164 43.7503 66.8104 43.6023 63.5045 44.145C50.9223 46.3161 42.3861 58.1089 44.4585 70.4444C46.0868 79.9674 51.6624 86.3326 61.0867 89.3424C61.9749 89.6385 62.8631 89.7865 63.8499 89.9839C64.294 90.0826 64.6887 90.1319 65.1328 90.2306H69.623C69.8697 90.1812 70.1657 90.1319 70.5111 90.0332C71.2512 89.8852 71.942 89.7372 72.6328 89.5891Z" fill="black"/>
<path d="M72.6328 89.5891C81.9091 87.0727 87.7808 81.0529 90.0506 71.7273C90.0999 71.6286 90.1493 71.4806 90.1986 71.3819V70.2964C90.1986 70.247 90.1493 70.247 90.1493 70.1977C89.5078 68.7174 88.669 68.1746 87.3368 68.3227C86.2019 68.4214 85.5111 69.2602 85.1657 70.7898C83.0934 80.2141 74.0637 86.4806 64.6394 85.0497C58.7677 84.1615 53.8335 80.5595 51.169 75.2306C48.5045 69.9016 48.5045 63.8325 51.2677 58.5529C55.2151 51.0529 63.5539 47.3523 71.9914 49.4246C72.8795 49.622 73.521 49.5727 74.1131 49.2766C75.0012 48.7832 75.544 47.7964 75.4453 46.7602C75.3466 45.724 74.5572 44.8852 73.3729 44.5891C70.1164 43.7503 66.8104 43.6023 63.5045 44.145C50.9223 46.3161 42.3861 58.1089 44.4585 70.4444C46.0868 79.9674 51.6624 86.3326 61.0867 89.3424C61.9749 89.6385 62.8631 89.7865 63.8499 89.9839C64.294 90.0826 64.6887 90.1319 65.1328 90.2306H69.623C69.8697 90.1812 70.1657 90.1319 70.5111 90.0332C71.2512 89.8852 71.942 89.7372 72.6328 89.5891Z" fill="url(#paint0_linear_1278_787)"/>
<path d="M83.9328 38.6188C84.3275 38.0761 84.4755 37.3359 84.3769 36.6451C84.0808 35.0169 83.7848 33.1419 83.242 31.3162C77.0742 9.21093 54.8209 -3.91407 32.5183 1.46422C13.5216 6.05303 0.248552 22.928 0.297894 42.6155V43.6024H0.199219C0.248561 44.1452 0.347242 44.6879 0.396584 45.2307C0.593953 47.2044 0.840666 49.1287 1.18606 51.053C4.3933 67.632 17.765 80.8557 34.4426 84.0629C35.6268 84.3096 36.5644 84.3096 37.3045 84.1616C38.2913 83.9642 38.9821 82.8787 38.9328 81.6452C38.8834 80.461 37.9459 79.5728 36.515 79.3261C28.8176 78.0432 22.1564 74.6879 16.7782 69.3096C7.79789 60.3787 4.09724 49.5728 5.72553 37.1386C6.61368 30.3787 9.22882 24.4083 13.4722 19.3261C23.538 7.38527 36.1696 2.99382 51.0216 6.34909C66.1203 9.75369 77.0249 21.5958 79.4426 37.3359C79.5413 38.1254 79.9361 38.8162 80.5282 39.2109C81.0709 39.6057 81.7124 39.7537 82.3538 39.6057C82.9953 39.4577 83.5381 39.1123 83.9328 38.6188Z" fill="black"/>
<path d="M83.9328 38.6188C84.3275 38.0761 84.4755 37.3359 84.3769 36.6451C84.0808 35.0169 83.7848 33.1419 83.242 31.3162C77.0742 9.21093 54.8209 -3.91407 32.5183 1.46422C13.5216 6.05303 0.248552 22.928 0.297894 42.6155V43.6024H0.199219C0.248561 44.1452 0.347242 44.6879 0.396584 45.2307C0.593953 47.2044 0.840666 49.1287 1.18606 51.053C4.3933 67.632 17.765 80.8557 34.4426 84.0629C35.6268 84.3096 36.5644 84.3096 37.3045 84.1616C38.2913 83.9642 38.9821 82.8787 38.9328 81.6452C38.8834 80.461 37.9459 79.5728 36.515 79.3261C28.8176 78.0432 22.1564 74.6879 16.7782 69.3096C7.79789 60.3787 4.09724 49.5728 5.72553 37.1386C6.61368 30.3787 9.22882 24.4083 13.4722 19.3261C23.538 7.38527 36.1696 2.99382 51.0216 6.34909C66.1203 9.75369 77.0249 21.5958 79.4426 37.3359C79.5413 38.1254 79.9361 38.8162 80.5282 39.2109C81.0709 39.6057 81.7124 39.7537 82.3538 39.6057C82.9953 39.4577 83.5381 39.1123 83.9328 38.6188Z" fill="url(#paint1_linear_1278_787)"/>
<path d="M39.4257 49.2274L44.1625 44.4412C44.7546 43.8491 45.0013 43.2077 45.0013 42.3195C45.0013 39.1123 45.0013 35.905 45.0013 32.7471V25.1978C45.0013 22.1386 45.0013 19.0794 45.0013 16.0201C45.0013 15.7241 45.0013 15.3787 44.952 15.132C44.6066 13.8491 43.4717 13.109 42.1395 13.257C40.9553 13.405 40.0671 14.4905 40.0671 15.8228V23.0267C40.0671 28.7998 40.0671 34.5234 40.0671 40.2965C40.0671 41.0366 39.7217 41.8261 39.2283 42.3688C36.4651 45.1813 33.702 47.9938 31.0375 50.7077L27.6822 54.1123C26.5474 55.2965 26.4487 56.7767 27.4849 57.8623C27.9783 58.3557 28.5704 58.6024 29.2118 58.6024C29.9026 58.6024 30.6428 58.257 31.1855 57.7142C33.8993 54.8031 36.6625 52.0399 39.4257 49.2274Z" fill="black"/>
<path d="M39.4257 49.2274L44.1625 44.4412C44.7546 43.8491 45.0013 43.2077 45.0013 42.3195C45.0013 39.1123 45.0013 35.905 45.0013 32.7471V25.1978C45.0013 22.1386 45.0013 19.0794 45.0013 16.0201C45.0013 15.7241 45.0013 15.3787 44.952 15.132C44.6066 13.8491 43.4717 13.109 42.1395 13.257C40.9553 13.405 40.0671 14.4905 40.0671 15.8228V23.0267C40.0671 28.7998 40.0671 34.5234 40.0671 40.2965C40.0671 41.0366 39.7217 41.8261 39.2283 42.3688C36.4651 45.1813 33.702 47.9938 31.0375 50.7077L27.6822 54.1123C26.5474 55.2965 26.4487 56.7767 27.4849 57.8623C27.9783 58.3557 28.5704 58.6024 29.2118 58.6024C29.9026 58.6024 30.6428 58.257 31.1855 57.7142C33.8993 54.8031 36.6625 52.0399 39.4257 49.2274Z" fill="url(#paint2_linear_1278_787)"/>
<path d="M58.5689 67.3359C60.1479 68.9149 61.7268 70.4938 63.3058 72.1221C65.8222 74.5892 68.7827 74.6386 71.2992 72.1715L84.0294 59.5892C84.9176 58.7011 85.8058 57.8129 86.6939 56.9248C87.4834 56.0859 87.6808 55.0498 87.1874 54.0629C86.6939 53.0761 85.7564 52.5333 84.8189 52.6813C84.1775 52.78 83.4867 53.1747 82.9933 53.6188C79.1446 57.3688 75.3452 61.1682 71.6446 64.7701L67.3025 69.0629L65.1314 66.8919C64.0952 65.8557 63.1084 64.8195 62.0722 63.8327C61.4801 63.2405 60.74 62.8951 59.9999 62.8951C59.3584 62.8951 58.7663 63.1419 58.2729 63.6353C57.3354 64.6715 57.4341 66.1517 58.5689 67.3359Z" fill="black"/>
<path d="M58.5689 67.3359C60.1479 68.9149 61.7268 70.4938 63.3058 72.1221C65.8222 74.5892 68.7827 74.6386 71.2992 72.1715L84.0294 59.5892C84.9176 58.7011 85.8058 57.8129 86.6939 56.9248C87.4834 56.0859 87.6808 55.0498 87.1874 54.0629C86.6939 53.0761 85.7564 52.5333 84.8189 52.6813C84.1775 52.78 83.4867 53.1747 82.9933 53.6188C79.1446 57.3688 75.3452 61.1682 71.6446 64.7701L67.3025 69.0629L65.1314 66.8919C64.0952 65.8557 63.1084 64.8195 62.0722 63.8327C61.4801 63.2405 60.74 62.8951 59.9999 62.8951C59.3584 62.8951 58.7663 63.1419 58.2729 63.6353C57.3354 64.6715 57.4341 66.1517 58.5689 67.3359Z" fill="url(#paint3_linear_1278_787)"/>
<defs>
<linearGradient id="paint0_linear_1278_787" x1="35.6457" y1="43.8252" x2="83.1681" y2="44.9762" gradientUnits="userSpaceOnUse">
<stop stop-color="#37DADA"/>
<stop offset="1" stop-color="#254DB5"/>
</linearGradient>
<linearGradient id="paint1_linear_1278_787" x1="-15.3489" y1="0.26071" x2="71.5496" y2="2.38678" gradientUnits="userSpaceOnUse">
<stop stop-color="#37DADA"/>
<stop offset="1" stop-color="#254DB5"/>
</linearGradient>
<linearGradient id="paint2_linear_1278_787" x1="23.3986" y1="13.2383" x2="42.2265" y2="13.423" gradientUnits="userSpaceOnUse">
<stop stop-color="#37DADA"/>
<stop offset="1" stop-color="#254DB5"/>
</linearGradient>
<linearGradient id="paint3_linear_1278_787" x1="52.1308" y1="52.6572" x2="82.8861" y2="53.7061" gradientUnits="userSpaceOnUse">
<stop stop-color="#37DADA"/>
<stop offset="1" stop-color="#254DB5"/>
</linearGradient>
</defs>
</svg>
