<svg width="90" height="90" viewBox="0 0 90 90" fill="none" xmlns="http://www.w3.org/2000/svg">
<path d="M90 77.3099C89.3406 79.5236 87.7393 80.701 85.6198 81.4546C83.5946 82.1611 81.6634 83.056 79.6853 83.8567C77.5658 84.7516 75.6348 84.5161 73.8921 83.0089C73.6566 82.8205 73.1385 82.8205 72.8088 82.9618C68.3815 84.8929 64.0013 86.871 59.574 88.8021C55.4764 90.5919 51.3317 89.7441 48.5528 86.5884C47.1398 84.94 46.6217 82.9618 46.1979 80.8894C44.2197 70.6218 42.2415 60.3542 40.2634 50.0866C38.9446 43.2573 37.6729 36.4279 36.307 29.5985C36.2128 29.0804 35.8832 28.5153 35.4593 28.1856C32.8688 25.9719 30.2313 23.7583 27.5466 21.5917C26.9343 21.0736 26.1808 20.6968 25.4272 20.4613C18.3623 18.3419 11.2504 16.2695 4.18549 14.1971C0.841455 13.2081 -0.665739 10.4763 0.276243 7.13228C0.558837 6.049 0.888531 5.01282 1.21822 3.92954C2.16021 0.868098 4.98615 -0.639073 8.04759 0.25581C12.993 1.66878 17.8913 3.12885 22.8367 4.58893C25.1446 5.24831 27.4053 6.049 29.7132 6.61419C32.1623 7.17938 34.1876 8.40395 36.1186 10.0524C40.7343 13.9616 45.4443 17.7296 50.1071 21.5446C50.1542 21.5917 50.2484 21.6388 50.3897 21.733C51.0962 20.9323 51.8027 20.1316 52.5091 19.2838C54.9583 16.4108 58.0198 16.1753 60.8928 18.6716C65.8853 23.0047 70.8778 27.3378 75.9174 31.6709C78.602 34.0259 78.8846 37.0873 76.5297 39.7719C75.9174 40.4313 75.8703 40.9494 76.2 41.7501C80.5802 52.3945 84.9604 63.0389 89.2935 73.7304C89.4819 74.2485 89.7174 74.7195 89.9529 75.2376C90 75.8969 90 76.6034 90 77.3099ZM38.2852 26.1603C38.6149 26.8197 39.0388 27.2907 39.133 27.8559C40.8757 36.7576 42.5712 45.7064 44.2668 54.6082C45.9624 63.5099 47.705 72.4587 49.4006 81.3604C49.6832 82.7263 50.2013 83.998 51.2375 84.94C53.3098 86.8239 55.7119 87.1065 58.2552 85.9761C63.2477 83.8096 68.1931 81.5959 73.1856 79.3823C74.3631 78.8642 74.9283 79.0526 75.5877 80.1359C76.2471 81.2191 77.0948 81.5017 78.2723 81.0307C80.5802 80.0888 82.8881 79.1468 85.1488 78.2048C86.9386 77.4512 87.2683 76.6034 86.5618 74.8137C84.772 70.4805 83.0293 66.1474 81.2396 61.8614C78.4136 54.9849 75.6348 48.1085 72.8088 41.2791C72.432 40.3371 72.4792 39.5835 73.1856 38.8771C73.5624 38.5003 73.8921 38.0764 74.2218 37.6996C75.3993 36.2866 75.3522 35.1091 73.9863 33.8846C68.8996 29.4572 63.7658 25.0299 58.632 20.6026C57.3603 19.5193 56.1358 19.6135 55.0525 20.8852C54.0634 22.0156 53.0743 23.1931 52.0381 24.3234C51.002 25.5009 50.3897 25.548 49.1651 24.5118C47.3754 23.0518 45.6327 21.5446 43.7958 20.0845C41.9118 22.2511 40.0279 24.2763 38.2852 26.1603ZM41.535 18.2477C41.3466 18.1535 41.2525 18.0593 41.1583 18.0122C38.191 15.6101 35.2709 13.2081 32.3036 10.806C31.9268 10.4763 31.4087 10.2408 30.8906 10.0995C28.4415 9.34593 26.0394 8.63945 23.5903 7.93296C18.221 6.33159 12.8517 4.77732 7.43534 3.17595C5.69267 2.65786 4.65649 3.22305 4.1384 4.91862C3.80871 5.9077 3.5261 6.94388 3.24351 7.93296C2.77252 9.62853 3.38477 10.7118 5.03324 11.2299C12.1923 13.3494 19.3985 15.4217 26.5576 17.5883C27.5466 17.8709 28.5357 18.4361 29.3835 19.0954C31.5501 20.791 33.6224 22.5808 35.7419 24.3705C35.8361 24.2763 35.9303 24.2292 36.0245 24.135C37.8142 22.204 39.604 20.2729 41.535 18.2477Z" fill="black"/>
<path d="M90 77.3099C89.3406 79.5236 87.7393 80.701 85.6198 81.4546C83.5946 82.1611 81.6634 83.056 79.6853 83.8567C77.5658 84.7516 75.6348 84.5161 73.8921 83.0089C73.6566 82.8205 73.1385 82.8205 72.8088 82.9618C68.3815 84.8929 64.0013 86.871 59.574 88.8021C55.4764 90.5919 51.3317 89.7441 48.5528 86.5884C47.1398 84.94 46.6217 82.9618 46.1979 80.8894C44.2197 70.6218 42.2415 60.3542 40.2634 50.0866C38.9446 43.2573 37.6729 36.4279 36.307 29.5985C36.2128 29.0804 35.8832 28.5153 35.4593 28.1856C32.8688 25.9719 30.2313 23.7583 27.5466 21.5917C26.9343 21.0736 26.1808 20.6968 25.4272 20.4613C18.3623 18.3419 11.2504 16.2695 4.18549 14.1971C0.841455 13.2081 -0.665739 10.4763 0.276243 7.13228C0.558837 6.049 0.888531 5.01282 1.21822 3.92954C2.16021 0.868098 4.98615 -0.639073 8.04759 0.25581C12.993 1.66878 17.8913 3.12885 22.8367 4.58893C25.1446 5.24831 27.4053 6.049 29.7132 6.61419C32.1623 7.17938 34.1876 8.40395 36.1186 10.0524C40.7343 13.9616 45.4443 17.7296 50.1071 21.5446C50.1542 21.5917 50.2484 21.6388 50.3897 21.733C51.0962 20.9323 51.8027 20.1316 52.5091 19.2838C54.9583 16.4108 58.0198 16.1753 60.8928 18.6716C65.8853 23.0047 70.8778 27.3378 75.9174 31.6709C78.602 34.0259 78.8846 37.0873 76.5297 39.7719C75.9174 40.4313 75.8703 40.9494 76.2 41.7501C80.5802 52.3945 84.9604 63.0389 89.2935 73.7304C89.4819 74.2485 89.7174 74.7195 89.9529 75.2376C90 75.8969 90 76.6034 90 77.3099ZM38.2852 26.1603C38.6149 26.8197 39.0388 27.2907 39.133 27.8559C40.8757 36.7576 42.5712 45.7064 44.2668 54.6082C45.9624 63.5099 47.705 72.4587 49.4006 81.3604C49.6832 82.7263 50.2013 83.998 51.2375 84.94C53.3098 86.8239 55.7119 87.1065 58.2552 85.9761C63.2477 83.8096 68.1931 81.5959 73.1856 79.3823C74.3631 78.8642 74.9283 79.0526 75.5877 80.1359C76.2471 81.2191 77.0948 81.5017 78.2723 81.0307C80.5802 80.0888 82.8881 79.1468 85.1488 78.2048C86.9386 77.4512 87.2683 76.6034 86.5618 74.8137C84.772 70.4805 83.0293 66.1474 81.2396 61.8614C78.4136 54.9849 75.6348 48.1085 72.8088 41.2791C72.432 40.3371 72.4792 39.5835 73.1856 38.8771C73.5624 38.5003 73.8921 38.0764 74.2218 37.6996C75.3993 36.2866 75.3522 35.1091 73.9863 33.8846C68.8996 29.4572 63.7658 25.0299 58.632 20.6026C57.3603 19.5193 56.1358 19.6135 55.0525 20.8852C54.0634 22.0156 53.0743 23.1931 52.0381 24.3234C51.002 25.5009 50.3897 25.548 49.1651 24.5118C47.3754 23.0518 45.6327 21.5446 43.7958 20.0845C41.9118 22.2511 40.0279 24.2763 38.2852 26.1603ZM41.535 18.2477C41.3466 18.1535 41.2525 18.0593 41.1583 18.0122C38.191 15.6101 35.2709 13.2081 32.3036 10.806C31.9268 10.4763 31.4087 10.2408 30.8906 10.0995C28.4415 9.34593 26.0394 8.63945 23.5903 7.93296C18.221 6.33159 12.8517 4.77732 7.43534 3.17595C5.69267 2.65786 4.65649 3.22305 4.1384 4.91862C3.80871 5.9077 3.5261 6.94388 3.24351 7.93296C2.77252 9.62853 3.38477 10.7118 5.03324 11.2299C12.1923 13.3494 19.3985 15.4217 26.5576 17.5883C27.5466 17.8709 28.5357 18.4361 29.3835 19.0954C31.5501 20.791 33.6224 22.5808 35.7419 24.3705C35.8361 24.2763 35.9303 24.2292 36.0245 24.135C37.8142 22.204 39.604 20.2729 41.535 18.2477Z" fill="url(#paint0_linear_1278_792)"/>
<path d="M10.5432 51.5934C4.32611 51.5463 -0.383837 46.6951 0.0871539 40.478C0.228451 38.8295 0.887884 37.134 1.54727 35.5326C3.10154 31.8589 5.26809 28.5619 7.71724 25.4534C9.50701 23.1926 11.5794 23.1926 13.3691 25.5005C16.2422 29.2213 18.7855 33.1305 20.3398 37.605C22.5534 43.8691 19.1152 49.9449 12.6626 51.3579C11.9091 51.4992 11.2026 51.4992 10.5432 51.5934ZM10.5903 26.7251C7.99982 29.5981 4.74997 35.1087 3.5725 38.4056C3.00731 39.9599 2.81894 41.5142 3.24283 43.1156C4.18481 46.6009 7.05785 48.532 11.0142 48.4849C15.3944 48.3907 18.7855 44.1046 17.7965 39.8186C17.1842 37.1811 15.9125 34.779 14.4995 32.5183C13.2749 30.5872 11.9561 28.7032 10.5903 26.7251Z" fill="black"/>
<path d="M10.5432 51.5934C4.32611 51.5463 -0.383837 46.6951 0.0871539 40.478C0.228451 38.8295 0.887884 37.134 1.54727 35.5326C3.10154 31.8589 5.26809 28.5619 7.71724 25.4534C9.50701 23.1926 11.5794 23.1926 13.3691 25.5005C16.2422 29.2213 18.7855 33.1305 20.3398 37.605C22.5534 43.8691 19.1152 49.9449 12.6626 51.3579C11.9091 51.4992 11.2026 51.4992 10.5432 51.5934ZM10.5903 26.7251C7.99982 29.5981 4.74997 35.1087 3.5725 38.4056C3.00731 39.9599 2.81894 41.5142 3.24283 43.1156C4.18481 46.6009 7.05785 48.532 11.0142 48.4849C15.3944 48.3907 18.7855 44.1046 17.7965 39.8186C17.1842 37.1811 15.9125 34.779 14.4995 32.5183C13.2749 30.5872 11.9561 28.7032 10.5903 26.7251Z" fill="url(#paint1_linear_1278_792)"/>
<path d="M58.3013 46.8838C62.0221 46.8838 64.7068 48.8149 65.7429 51.8292C67.3443 56.492 68.8986 61.2019 70.4999 65.8647C71.2535 68.1255 72.0542 70.3862 72.8078 72.6941C73.2788 74.1071 73.0433 74.6722 71.7246 75.2845C67.203 77.3098 62.6344 79.288 58.1129 81.3132C55.6638 82.3965 53.4501 81.1719 53.0262 78.5344C52.0371 72.1289 51.0951 65.7705 50.1531 59.365C49.9648 58.0934 49.7764 56.8217 49.588 55.55C49.0699 51.9705 51.2364 48.5323 54.7217 47.5903C56.0405 47.2606 57.4535 47.0722 58.3013 46.8838ZM63.1996 75.7555C61.4098 70.4333 59.573 65.2995 57.9716 60.1186C57.0767 57.1985 55.0044 55.5029 52.461 53.7603C52.5081 54.608 52.5081 55.3145 52.6023 55.9739C53.4501 61.6258 54.2979 67.2777 55.1456 72.9767C55.3811 74.6252 55.6166 76.2736 55.8992 77.9221C55.9463 78.2989 55.9464 78.9583 56.6528 78.6286C58.8194 77.6395 60.9859 76.6975 63.1996 75.7555ZM54.2507 51.1698C55.0514 51.7821 55.7579 52.3944 56.4644 52.9596C58.5368 54.5138 59.9027 56.492 60.7034 58.9412C62.0221 63.0388 63.4351 67.1364 64.848 71.234C65.2248 72.3173 65.6016 73.4006 65.9784 74.531C67.2501 73.9658 68.4276 73.4477 69.6051 72.9296C69.5109 72.647 69.4638 72.4586 69.4167 72.2231C67.2972 65.9118 65.1307 59.5534 63.0112 53.2422C62.1634 50.7459 60.4679 49.7097 57.8774 50.1336C56.6528 50.2749 55.334 50.2749 54.2507 51.1698Z" fill="black"/>
<path d="M58.3013 46.8838C62.0221 46.8838 64.7068 48.8149 65.7429 51.8292C67.3443 56.492 68.8986 61.2019 70.4999 65.8647C71.2535 68.1255 72.0542 70.3862 72.8078 72.6941C73.2788 74.1071 73.0433 74.6722 71.7246 75.2845C67.203 77.3098 62.6344 79.288 58.1129 81.3132C55.6638 82.3965 53.4501 81.1719 53.0262 78.5344C52.0371 72.1289 51.0951 65.7705 50.1531 59.365C49.9648 58.0934 49.7764 56.8217 49.588 55.55C49.0699 51.9705 51.2364 48.5323 54.7217 47.5903C56.0405 47.2606 57.4535 47.0722 58.3013 46.8838ZM63.1996 75.7555C61.4098 70.4333 59.573 65.2995 57.9716 60.1186C57.0767 57.1985 55.0044 55.5029 52.461 53.7603C52.5081 54.608 52.5081 55.3145 52.6023 55.9739C53.4501 61.6258 54.2979 67.2777 55.1456 72.9767C55.3811 74.6252 55.6166 76.2736 55.8992 77.9221C55.9463 78.2989 55.9464 78.9583 56.6528 78.6286C58.8194 77.6395 60.9859 76.6975 63.1996 75.7555ZM54.2507 51.1698C55.0514 51.7821 55.7579 52.3944 56.4644 52.9596C58.5368 54.5138 59.9027 56.492 60.7034 58.9412C62.0221 63.0388 63.4351 67.1364 64.848 71.234C65.2248 72.3173 65.6016 73.4006 65.9784 74.531C67.2501 73.9658 68.4276 73.4477 69.6051 72.9296C69.5109 72.647 69.4638 72.4586 69.4167 72.2231C67.2972 65.9118 65.1307 59.5534 63.0112 53.2422C62.1634 50.7459 60.4679 49.7097 57.8774 50.1336C56.6528 50.2749 55.334 50.2749 54.2507 51.1698Z" fill="url(#paint2_linear_1278_792)"/>
<path d="M45.9163 35.7686C46.5285 35.7686 47.0467 36.2395 47.2351 36.9931C47.9415 39.9604 48.648 42.9276 49.3545 45.942C49.5429 46.7426 49.0248 47.4962 48.3183 47.7317C47.5176 47.9672 46.6698 47.5433 46.4814 46.6955C45.7278 43.6812 45.0214 40.6669 44.362 37.6525C44.0794 36.5692 44.7388 35.8157 45.9163 35.7686Z" fill="black"/>
<path d="M45.9163 35.7686C46.5285 35.7686 47.0467 36.2395 47.2351 36.9931C47.9415 39.9604 48.648 42.9276 49.3545 45.942C49.5429 46.7426 49.0248 47.4962 48.3183 47.7317C47.5176 47.9672 46.6698 47.5433 46.4814 46.6955C45.7278 43.6812 45.0214 40.6669 44.362 37.6525C44.0794 36.5692 44.7388 35.8157 45.9163 35.7686Z" fill="url(#paint3_linear_1278_792)"/>
<path d="M43.9865 33.8375C43.3742 33.7433 42.8561 33.4136 42.6677 32.7071C42.3851 31.718 42.1025 30.6819 41.867 29.6928C41.6786 28.9392 42.1967 28.1385 42.9502 27.9501C43.7038 27.7617 44.5045 28.1385 44.7871 28.9392C45.1168 29.9754 45.3994 31.0587 45.5878 32.1419C45.7762 33.0368 44.9755 33.8846 43.9865 33.8375Z" fill="black"/>
<path d="M43.9865 33.8375C43.3742 33.7433 42.8561 33.4136 42.6677 32.7071C42.3851 31.718 42.1025 30.6819 41.867 29.6928C41.6786 28.9392 42.1967 28.1385 42.9502 27.9501C43.7038 27.7617 44.5045 28.1385 44.7871 28.9392C45.1168 29.9754 45.3994 31.0587 45.5878 32.1419C45.7762 33.0368 44.9755 33.8846 43.9865 33.8375Z" fill="url(#paint4_linear_1278_792)"/>
<defs>
<linearGradient id="paint0_linear_1278_792" x1="-16.6176" y1="-3.46758e-05" x2="76.2586" y2="2.27367" gradientUnits="userSpaceOnUse">
<stop stop-color="#37DADA"/>
<stop offset="1" stop-color="#254DB5"/>
</linearGradient>
<linearGradient id="paint1_linear_1278_792" x1="-3.81476" y1="23.7637" x2="17.8173" y2="24.1612" gradientUnits="userSpaceOnUse">
<stop stop-color="#37DADA"/>
<stop offset="1" stop-color="#254DB5"/>
</linearGradient>
<linearGradient id="paint2_linear_1278_792" x1="45.1691" y1="46.8838" x2="69.4479" y2="47.284" gradientUnits="userSpaceOnUse">
<stop stop-color="#37DADA"/>
<stop offset="1" stop-color="#254DB5"/>
</linearGradient>
<linearGradient id="paint3_linear_1278_792" x1="43.3558" y1="35.7686" x2="48.6179" y2="35.823" gradientUnits="userSpaceOnUse">
<stop stop-color="#37DADA"/>
<stop offset="1" stop-color="#254DB5"/>
</linearGradient>
<linearGradient id="paint4_linear_1278_792" x1="41.1288" y1="27.9023" x2="45.0386" y2="27.9632" gradientUnits="userSpaceOnUse">
<stop stop-color="#37DADA"/>
<stop offset="1" stop-color="#254DB5"/>
</linearGradient>
</defs>
</svg>
