<svg width="91" height="90" viewBox="0 0 91 90" fill="none" xmlns="http://www.w3.org/2000/svg">
<path d="M34.7693 40.3111C33.5685 39.1625 32.3678 38.014 31.2192 36.8654C29.2353 34.8816 27.1993 32.8455 25.2154 30.8616C24.7977 30.4439 24.4323 30.3395 23.858 30.4962C20.7256 31.3837 17.802 30.8616 15.1916 28.8255C14.6695 28.4079 14.2519 27.938 13.8864 27.4159C10.3363 22.0386 6.83846 16.609 3.28837 11.2317C2.40085 9.82211 2.45307 9.24783 3.60163 8.04707C5.74213 5.90657 7.83039 3.76608 9.97088 1.67779C11.015 0.633647 11.6415 0.581439 12.8423 1.36455C18.2196 4.86243 23.6492 8.3081 28.9743 11.8582C32.0023 13.8943 32.942 16.8701 32.681 20.368C32.681 20.629 32.681 20.9422 32.5244 21.1511C31.8457 22.404 32.4722 23.1871 33.3597 24.0747C36.3355 26.9461 39.2591 29.9219 42.2349 32.8977C44.7409 30.3917 47.2468 27.8858 49.7528 25.3798C50.4837 24.6489 51.1102 23.8658 51.8933 23.2916C53.3551 22.1952 53.8249 20.6812 53.9816 18.9584C54.2948 15.8781 54.7125 12.7979 55.2867 9.7699C55.4956 8.62134 56.2787 7.47279 57.0096 6.58526C58.9412 4.28815 61.6038 2.93076 64.3708 1.88662C68.704 0.215989 73.0894 -0.619326 77.6836 0.581439C78.78 0.842475 79.8241 1.26013 80.816 1.7822C82.4867 2.61752 82.4867 4.18374 80.9205 5.17567C78.4667 6.74189 75.9608 8.2559 73.507 9.87432C73.0894 10.1354 72.7239 10.5008 72.3585 10.814C71.2099 12.0148 70.8445 13.3722 71.4187 14.9384C71.993 16.609 72.9327 18.0708 74.2901 19.2194C76.0652 20.7334 78.1013 20.89 80.1373 19.6893C82.33 18.3841 84.5228 17.0789 86.7677 15.7737C88.4383 14.7818 89.7435 15.5127 89.7435 17.4966C89.7435 18.8017 89.7957 20.1069 89.7435 21.4121C89.6913 21.9342 89.5347 22.5607 89.2214 22.9261C86.8199 26.0063 84.3661 29.0344 81.9646 32.0624C81.7558 32.3234 81.4947 32.5322 81.3381 32.7933C80.0329 34.3595 78.4667 35.0904 76.3262 35.0382C73.4548 34.9338 70.5312 35.1426 67.6598 35.247C67.3466 35.247 66.9811 35.3514 66.7723 35.5602C63.0656 39.1625 59.3589 42.7648 55.7566 46.3149C57.4794 48.0378 58.9934 49.5518 60.5596 51.118C61.6038 50.0216 62.8046 48.8209 64.0575 47.6201C65.1539 46.5238 66.0414 46.5238 67.19 47.6201C73.8203 54.2504 80.5028 60.9329 87.1331 67.6155C91.6229 72.1053 91.6751 79.5187 87.3419 84.1651C85.097 86.5667 82.5911 88.3417 79.2498 88.8116C75.4387 89.2814 72.0452 88.2895 69.3305 85.6269C62.5435 78.9444 55.8088 72.1575 49.0741 65.4228C48.1343 64.483 48.1865 63.5433 49.0741 62.6558C50.327 61.4028 51.58 60.1498 52.7286 59.0013C51.2146 57.3828 49.7006 55.8166 48.1865 54.1982C47.9255 54.4592 47.7167 54.6159 47.5079 54.8247C43.8011 58.5314 40.0944 62.1859 36.3877 65.8404C35.8657 66.3103 35.709 66.8323 35.6568 67.5632C35.6568 70.8523 35.5524 74.0891 35.5002 77.3782C35.5002 78.4223 34.8737 79.1532 34.195 79.8319C32.5766 81.3459 30.906 82.86 29.1831 84.3218C27.3559 85.8358 25.4242 87.2454 23.4926 88.6549C23.0227 89.0204 22.344 89.2292 21.7175 89.2292C20.4123 89.3336 19.1071 89.2814 17.802 89.2292C16.0791 89.177 15.3482 87.8196 16.1835 86.3578C17.5409 84.0085 18.9505 81.607 20.3601 79.3099C21.1432 78.0047 21.2476 76.6473 20.6212 75.3421C19.4726 72.7318 17.3321 71.3222 14.6173 70.6957C12.7379 70.278 11.3805 71.3222 10.3886 72.8362C8.82235 75.2377 7.30832 77.6392 5.79431 80.0408C5.32444 80.7717 4.90681 81.5026 3.86267 81.4504C2.81852 81.3982 2.40087 80.6673 2.03542 79.8841C0.730237 77.1694 0.36478 74.2458 0.625816 71.27C0.991267 66.7801 2.45305 62.6036 5.0112 58.8446C5.16782 58.6358 5.27226 58.4792 5.42888 58.2704C7.09951 56.0255 9.18779 54.6159 12.1114 54.3548C15.1916 54.0938 18.324 53.5717 21.4043 53.1019C21.7697 53.0497 22.1874 52.8408 22.5006 52.5798C26.4161 48.7165 30.2795 44.8531 34.1428 40.9376C34.4561 40.6766 34.5605 40.5721 34.7693 40.3111ZM42.6004 48.4554C42.4437 48.6643 42.2871 48.9775 42.0783 49.2385C38.3194 52.9974 34.5605 56.8086 30.7494 60.5675C30.5405 60.7763 30.2795 61.0374 30.0185 61.2462C29.3398 61.7683 28.4 61.716 27.7735 61.1418C27.1471 60.5153 27.0427 59.5756 27.6169 58.7924C27.7736 58.5836 28.0346 58.3748 28.2434 58.166C32.0545 54.3548 35.8135 50.5959 39.6246 46.7848C39.8334 46.576 40.1466 46.4193 40.3033 46.3671C39.1025 45.1664 38.1106 44.1744 37.0664 43.0781C36.9098 43.2347 36.701 43.4957 36.4922 43.7046C32.5766 47.6201 28.7133 51.5356 24.7977 55.399C24.3801 55.8166 23.7536 56.2343 23.1793 56.3387C20.1513 56.8086 17.0711 57.2784 13.9908 57.6439C12.007 57.9049 10.0231 58.1137 8.71793 59.9932C5.5855 64.4308 3.91487 69.2339 4.38474 74.7156C4.38474 74.9245 4.48913 75.1333 4.59355 75.3421C5.79431 73.6193 6.89067 71.8964 8.09144 70.278C10.3363 67.25 13.782 66.2059 17.2799 67.6677C18.7417 68.2942 20.2035 69.1295 21.4043 70.1736C25.1632 73.4104 25.7375 77.3782 23.2315 81.6592C22.4484 82.9644 21.7175 84.2173 20.83 85.7313C21.4043 85.6269 21.8219 85.6269 22.0308 85.4181C25.2676 82.8077 28.5566 80.1452 31.7413 77.4826C32.0023 77.2738 32.1589 76.7517 32.1589 76.3341C32.3156 72.8884 32.42 69.4427 32.4722 65.997C32.4722 65.1617 32.8376 64.5874 33.4119 64.0132C37.3275 60.0976 41.243 56.1821 45.1585 52.2665C45.3674 52.0577 45.5762 51.7967 45.785 51.5879C44.6887 50.4915 43.7489 49.5518 42.6004 48.4554ZM52.7808 63.9087C53.7205 64.8485 54.6603 65.736 55.5478 66.6235C60.7685 71.8442 65.9892 77.065 71.2099 82.3379C73.1416 84.2695 75.4387 85.3137 78.1535 85.1571C80.7116 85.0004 82.6955 83.7475 84.4183 81.9202C87.9684 78.2135 88.0206 73.0972 84.3661 69.4427C78.3101 63.3867 72.2541 57.3306 66.1458 51.2224C65.9892 51.0658 65.7804 50.9614 65.6759 50.857C61.4472 55.2424 57.1662 59.5755 52.7808 63.9087ZM53.5639 43.9134C53.7205 43.6524 53.8771 43.3391 54.1382 43.1303C57.6883 39.5802 61.2383 36.0823 64.7884 32.5322C65.3627 31.958 65.937 31.6447 66.7201 31.5925C70.1136 31.4881 73.507 31.3315 76.9005 31.2793C77.6314 31.2793 78.2057 31.0704 78.6756 30.4962C81.1293 27.4681 83.6352 24.4401 86.089 21.3599C86.2978 21.0467 86.35 20.629 86.4544 20.2113C84.7316 20.9944 83.1654 21.882 81.7036 22.8217C79.9285 23.9703 77.9968 24.1269 76.013 23.6048C72.1496 22.6651 69.957 19.9503 68.4952 16.4524C67.0334 12.9023 68.0253 9.50887 71.1055 7.21175C72.5151 6.16761 74.0291 5.22788 75.4909 4.23594C75.6997 4.07932 75.9608 3.9227 76.274 3.71387C76.0652 3.60945 76.013 3.60946 75.9086 3.55725C73.0372 3.1918 70.218 3.45283 67.451 4.39256C65.0495 5.22788 62.7001 6.21981 60.7163 7.83824C59.7765 8.62134 58.889 9.50887 58.7324 10.8663C58.3147 13.9465 57.7927 17.0267 57.4794 20.1591C57.2706 22.0908 56.6441 23.6048 55.1823 25.0144C51.8933 28.0946 48.7086 31.3837 45.524 34.6205C45.3152 34.8293 45.1063 35.0904 45.0019 35.1426C46.0983 36.2389 47.0902 37.2309 48.1865 38.3272C48.3432 38.1184 48.552 37.8052 48.813 37.5963C52.2065 34.1507 55.6522 30.7572 59.0979 27.3637C59.3067 27.1549 59.5155 26.9461 59.7765 26.7894C60.5074 26.2674 61.4472 26.3718 62.0214 26.9983C62.5957 27.5725 62.7001 28.5123 62.1781 29.191C61.9692 29.452 61.7604 29.6608 61.5516 29.9219C58.1059 33.3675 54.7125 36.8132 51.2668 40.2589C51.0579 40.4677 50.8491 40.7288 50.6403 40.9376C51.4756 41.8773 52.4153 42.817 53.5639 43.9134ZM11.9026 4.81022C10.1275 6.58527 8.4569 8.25589 6.73406 9.92652C6.78627 10.0309 6.89066 10.1876 6.94287 10.3442C10.2319 15.3561 13.4688 20.368 16.7578 25.3798C16.9144 25.6409 17.1755 25.9019 17.3843 26.1107C19.6292 27.8858 22.9183 27.7814 25.0066 25.8497C25.8941 25.0144 26.7816 24.1269 27.6169 23.2394C28.0868 22.7173 28.5044 22.0386 28.7655 21.4121C29.7052 19.2194 29.0265 16.1392 27.3559 15.0428C22.2396 11.5449 17.0711 8.20369 11.9026 4.81022ZM57.7404 53.6239C48.4998 44.3833 39.2591 35.1426 30.1751 26.0585C29.392 26.7894 28.5566 27.5725 27.8257 28.3034C37.0142 37.4919 46.2549 46.7326 55.4434 55.9211C56.2265 55.1379 57.0095 54.3026 57.7404 53.6239Z" fill="black"/>
<path d="M34.7693 40.3111C33.5685 39.1625 32.3678 38.014 31.2192 36.8654C29.2353 34.8816 27.1993 32.8455 25.2154 30.8616C24.7977 30.4439 24.4323 30.3395 23.858 30.4962C20.7256 31.3837 17.802 30.8616 15.1916 28.8255C14.6695 28.4079 14.2519 27.938 13.8864 27.4159C10.3363 22.0386 6.83846 16.609 3.28837 11.2317C2.40085 9.82211 2.45307 9.24783 3.60163 8.04707C5.74213 5.90657 7.83039 3.76608 9.97088 1.67779C11.015 0.633647 11.6415 0.581439 12.8423 1.36455C18.2196 4.86243 23.6492 8.3081 28.9743 11.8582C32.0023 13.8943 32.942 16.8701 32.681 20.368C32.681 20.629 32.681 20.9422 32.5244 21.1511C31.8457 22.404 32.4722 23.1871 33.3597 24.0747C36.3355 26.9461 39.2591 29.9219 42.2349 32.8977C44.7409 30.3917 47.2468 27.8858 49.7528 25.3798C50.4837 24.6489 51.1102 23.8658 51.8933 23.2916C53.3551 22.1952 53.8249 20.6812 53.9816 18.9584C54.2948 15.8781 54.7125 12.7979 55.2867 9.7699C55.4956 8.62134 56.2787 7.47279 57.0096 6.58526C58.9412 4.28815 61.6038 2.93076 64.3708 1.88662C68.704 0.215989 73.0894 -0.619326 77.6836 0.581439C78.78 0.842475 79.8241 1.26013 80.816 1.7822C82.4867 2.61752 82.4867 4.18374 80.9205 5.17567C78.4667 6.74189 75.9608 8.2559 73.507 9.87432C73.0894 10.1354 72.7239 10.5008 72.3585 10.814C71.2099 12.0148 70.8445 13.3722 71.4187 14.9384C71.993 16.609 72.9327 18.0708 74.2901 19.2194C76.0652 20.7334 78.1013 20.89 80.1373 19.6893C82.33 18.3841 84.5228 17.0789 86.7677 15.7737C88.4383 14.7818 89.7435 15.5127 89.7435 17.4966C89.7435 18.8017 89.7957 20.1069 89.7435 21.4121C89.6913 21.9342 89.5347 22.5607 89.2214 22.9261C86.8199 26.0063 84.3661 29.0344 81.9646 32.0624C81.7558 32.3234 81.4947 32.5322 81.3381 32.7933C80.0329 34.3595 78.4667 35.0904 76.3262 35.0382C73.4548 34.9338 70.5312 35.1426 67.6598 35.247C67.3466 35.247 66.9811 35.3514 66.7723 35.5602C63.0656 39.1625 59.3589 42.7648 55.7566 46.3149C57.4794 48.0378 58.9934 49.5518 60.5596 51.118C61.6038 50.0216 62.8046 48.8209 64.0575 47.6201C65.1539 46.5238 66.0414 46.5238 67.19 47.6201C73.8203 54.2504 80.5028 60.9329 87.1331 67.6155C91.6229 72.1053 91.6751 79.5187 87.3419 84.1651C85.097 86.5667 82.5911 88.3417 79.2498 88.8116C75.4387 89.2814 72.0452 88.2895 69.3305 85.6269C62.5435 78.9444 55.8088 72.1575 49.0741 65.4228C48.1343 64.483 48.1865 63.5433 49.0741 62.6558C50.327 61.4028 51.58 60.1498 52.7286 59.0013C51.2146 57.3828 49.7006 55.8166 48.1865 54.1982C47.9255 54.4592 47.7167 54.6159 47.5079 54.8247C43.8011 58.5314 40.0944 62.1859 36.3877 65.8404C35.8657 66.3103 35.709 66.8323 35.6568 67.5632C35.6568 70.8523 35.5524 74.0891 35.5002 77.3782C35.5002 78.4223 34.8737 79.1532 34.195 79.8319C32.5766 81.3459 30.906 82.86 29.1831 84.3218C27.3559 85.8358 25.4242 87.2454 23.4926 88.6549C23.0227 89.0204 22.344 89.2292 21.7175 89.2292C20.4123 89.3336 19.1071 89.2814 17.802 89.2292C16.0791 89.177 15.3482 87.8196 16.1835 86.3578C17.5409 84.0085 18.9505 81.607 20.3601 79.3099C21.1432 78.0047 21.2476 76.6473 20.6212 75.3421C19.4726 72.7318 17.3321 71.3222 14.6173 70.6957C12.7379 70.278 11.3805 71.3222 10.3886 72.8362C8.82235 75.2377 7.30832 77.6392 5.79431 80.0408C5.32444 80.7717 4.90681 81.5026 3.86267 81.4504C2.81852 81.3982 2.40087 80.6673 2.03542 79.8841C0.730237 77.1694 0.36478 74.2458 0.625816 71.27C0.991267 66.7801 2.45305 62.6036 5.0112 58.8446C5.16782 58.6358 5.27226 58.4792 5.42888 58.2704C7.09951 56.0255 9.18779 54.6159 12.1114 54.3548C15.1916 54.0938 18.324 53.5717 21.4043 53.1019C21.7697 53.0497 22.1874 52.8408 22.5006 52.5798C26.4161 48.7165 30.2795 44.8531 34.1428 40.9376C34.4561 40.6766 34.5605 40.5721 34.7693 40.3111ZM42.6004 48.4554C42.4437 48.6643 42.2871 48.9775 42.0783 49.2385C38.3194 52.9974 34.5605 56.8086 30.7494 60.5675C30.5405 60.7763 30.2795 61.0374 30.0185 61.2462C29.3398 61.7683 28.4 61.716 27.7735 61.1418C27.1471 60.5153 27.0427 59.5756 27.6169 58.7924C27.7736 58.5836 28.0346 58.3748 28.2434 58.166C32.0545 54.3548 35.8135 50.5959 39.6246 46.7848C39.8334 46.576 40.1466 46.4193 40.3033 46.3671C39.1025 45.1664 38.1106 44.1744 37.0664 43.0781C36.9098 43.2347 36.701 43.4957 36.4922 43.7046C32.5766 47.6201 28.7133 51.5356 24.7977 55.399C24.3801 55.8166 23.7536 56.2343 23.1793 56.3387C20.1513 56.8086 17.0711 57.2784 13.9908 57.6439C12.007 57.9049 10.0231 58.1137 8.71793 59.9932C5.5855 64.4308 3.91487 69.2339 4.38474 74.7156C4.38474 74.9245 4.48913 75.1333 4.59355 75.3421C5.79431 73.6193 6.89067 71.8964 8.09144 70.278C10.3363 67.25 13.782 66.2059 17.2799 67.6677C18.7417 68.2942 20.2035 69.1295 21.4043 70.1736C25.1632 73.4104 25.7375 77.3782 23.2315 81.6592C22.4484 82.9644 21.7175 84.2173 20.83 85.7313C21.4043 85.6269 21.8219 85.6269 22.0308 85.4181C25.2676 82.8077 28.5566 80.1452 31.7413 77.4826C32.0023 77.2738 32.1589 76.7517 32.1589 76.3341C32.3156 72.8884 32.42 69.4427 32.4722 65.997C32.4722 65.1617 32.8376 64.5874 33.4119 64.0132C37.3275 60.0976 41.243 56.1821 45.1585 52.2665C45.3674 52.0577 45.5762 51.7967 45.785 51.5879C44.6887 50.4915 43.7489 49.5518 42.6004 48.4554ZM52.7808 63.9087C53.7205 64.8485 54.6603 65.736 55.5478 66.6235C60.7685 71.8442 65.9892 77.065 71.2099 82.3379C73.1416 84.2695 75.4387 85.3137 78.1535 85.1571C80.7116 85.0004 82.6955 83.7475 84.4183 81.9202C87.9684 78.2135 88.0206 73.0972 84.3661 69.4427C78.3101 63.3867 72.2541 57.3306 66.1458 51.2224C65.9892 51.0658 65.7804 50.9614 65.6759 50.857C61.4472 55.2424 57.1662 59.5755 52.7808 63.9087ZM53.5639 43.9134C53.7205 43.6524 53.8771 43.3391 54.1382 43.1303C57.6883 39.5802 61.2383 36.0823 64.7884 32.5322C65.3627 31.958 65.937 31.6447 66.7201 31.5925C70.1136 31.4881 73.507 31.3315 76.9005 31.2793C77.6314 31.2793 78.2057 31.0704 78.6756 30.4962C81.1293 27.4681 83.6352 24.4401 86.089 21.3599C86.2978 21.0467 86.35 20.629 86.4544 20.2113C84.7316 20.9944 83.1654 21.882 81.7036 22.8217C79.9285 23.9703 77.9968 24.1269 76.013 23.6048C72.1496 22.6651 69.957 19.9503 68.4952 16.4524C67.0334 12.9023 68.0253 9.50887 71.1055 7.21175C72.5151 6.16761 74.0291 5.22788 75.4909 4.23594C75.6997 4.07932 75.9608 3.9227 76.274 3.71387C76.0652 3.60945 76.013 3.60946 75.9086 3.55725C73.0372 3.1918 70.218 3.45283 67.451 4.39256C65.0495 5.22788 62.7001 6.21981 60.7163 7.83824C59.7765 8.62134 58.889 9.50887 58.7324 10.8663C58.3147 13.9465 57.7927 17.0267 57.4794 20.1591C57.2706 22.0908 56.6441 23.6048 55.1823 25.0144C51.8933 28.0946 48.7086 31.3837 45.524 34.6205C45.3152 34.8293 45.1063 35.0904 45.0019 35.1426C46.0983 36.2389 47.0902 37.2309 48.1865 38.3272C48.3432 38.1184 48.552 37.8052 48.813 37.5963C52.2065 34.1507 55.6522 30.7572 59.0979 27.3637C59.3067 27.1549 59.5155 26.9461 59.7765 26.7894C60.5074 26.2674 61.4472 26.3718 62.0214 26.9983C62.5957 27.5725 62.7001 28.5123 62.1781 29.191C61.9692 29.452 61.7604 29.6608 61.5516 29.9219C58.1059 33.3675 54.7125 36.8132 51.2668 40.2589C51.0579 40.4677 50.8491 40.7288 50.6403 40.9376C51.4756 41.8773 52.4153 42.817 53.5639 43.9134ZM11.9026 4.81022C10.1275 6.58527 8.4569 8.25589 6.73406 9.92652C6.78627 10.0309 6.89066 10.1876 6.94287 10.3442C10.2319 15.3561 13.4688 20.368 16.7578 25.3798C16.9144 25.6409 17.1755 25.9019 17.3843 26.1107C19.6292 27.8858 22.9183 27.7814 25.0066 25.8497C25.8941 25.0144 26.7816 24.1269 27.6169 23.2394C28.0868 22.7173 28.5044 22.0386 28.7655 21.4121C29.7052 19.2194 29.0265 16.1392 27.3559 15.0428C22.2396 11.5449 17.0711 8.20369 11.9026 4.81022ZM57.7404 53.6239C48.4998 44.3833 39.2591 35.1426 30.1751 26.0585C29.392 26.7894 28.5566 27.5725 27.8257 28.3034C37.0142 37.4919 46.2549 46.7326 55.4434 55.9211C56.2265 55.1379 57.0095 54.3026 57.7404 53.6239Z" fill="url(#paint0_linear_1278_798)"/>
<path d="M80.3471 76.5426C79.9294 77.0647 79.6684 77.7434 79.1985 77.9522C78.7287 78.1611 78.05 78.0567 77.4757 77.9522C77.2147 77.9 76.9536 77.5868 76.7448 77.3258C71.9939 72.5749 67.2953 67.8763 62.5444 63.1254C62.2834 62.8644 62.0746 62.6033 61.8657 62.2901C61.4481 61.5592 61.6569 60.7239 62.2834 60.2018C62.9099 59.6797 63.5886 59.5753 64.3195 60.0452C64.5283 60.1496 64.6849 60.3584 64.8415 60.515C69.6968 65.3703 74.5521 70.1734 79.3551 75.0286C79.7728 75.3941 79.9816 75.9162 80.3471 76.5426Z" fill="black"/>
<path d="M80.3471 76.5426C79.9294 77.0647 79.6684 77.7434 79.1985 77.9522C78.7287 78.1611 78.05 78.0567 77.4757 77.9522C77.2147 77.9 76.9536 77.5868 76.7448 77.3258C71.9939 72.5749 67.2953 67.8763 62.5444 63.1254C62.2834 62.8644 62.0746 62.6033 61.8657 62.2901C61.4481 61.5592 61.6569 60.7239 62.2834 60.2018C62.9099 59.6797 63.5886 59.5753 64.3195 60.0452C64.5283 60.1496 64.6849 60.3584 64.8415 60.515C69.6968 65.3703 74.5521 70.1734 79.3551 75.0286C79.7728 75.3941 79.9816 75.9162 80.3471 76.5426Z" fill="url(#paint1_linear_1278_798)"/>
<defs>
<linearGradient id="paint0_linear_1278_798" x1="-16.0708" y1="0.0146139" x2="76.8049" y2="2.2998" gradientUnits="userSpaceOnUse">
<stop stop-color="#37DADA"/>
<stop offset="1" stop-color="#254DB5"/>
</linearGradient>
<linearGradient id="paint1_linear_1278_798" x1="58.1959" y1="59.7451" x2="77.4917" y2="60.2256" gradientUnits="userSpaceOnUse">
<stop stop-color="#37DADA"/>
<stop offset="1" stop-color="#254DB5"/>
</linearGradient>
</defs>
</svg>
