<svg width="91" height="78" viewBox="0 0 91 78" fill="none" xmlns="http://www.w3.org/2000/svg">
<path d="M58.3406 14.3212C56.2093 10.7852 54.1264 7.29762 51.9951 3.81003C50.5419 1.43653 48.6044 0.225564 46.0856 0.080248C43.0339 -0.113507 40.7089 1.19434 39.0135 4.10066C31.8446 16.0166 24.6272 27.981 17.4583 39.8969C12.8081 47.5987 8.15801 55.3004 3.50789 63.0022C3.31413 63.3412 3.1204 63.6319 2.92665 63.971C1.95787 65.5694 1.03751 67.0226 0.601562 68.7664V70.9946C0.69844 71.2852 0.795335 71.5274 0.892213 71.818C1.13441 72.4962 1.32816 73.1259 1.61879 73.6587C3.12039 76.1291 5.30013 77.2432 8.54553 77.2432C26.8554 77.2432 45.5043 77.2432 63.5235 77.2432H82.6084C82.9959 77.2432 83.3349 77.2432 83.7224 77.1947C85.66 77.0979 87.3554 76.3228 88.6632 74.8697C91.0367 72.3024 91.2305 68.9117 89.2445 65.6179L58.3406 14.3212ZM84.0615 72.9321C83.5772 73.029 83.0928 73.0774 82.4146 73.0774C72.0003 73.0774 61.586 73.0774 51.1716 73.0774H8.69084C8.59396 73.0774 8.54552 73.0774 8.44864 73.0774C8.35177 73.0774 8.20645 73.0774 8.10957 73.0774C6.70484 73.029 5.54233 72.3993 5.00951 71.3821C4.42824 70.3649 4.52512 69.1055 5.2517 67.8945C7.383 64.3585 9.51431 60.8224 11.6456 57.2864L18.8145 45.4189C26.7101 32.3404 34.5571 19.3104 42.4526 6.23197C42.7433 5.79602 43.1793 5.11788 43.809 4.68193C44.4871 4.19754 45.3105 4.00379 46.134 4.1491C47.1028 4.34286 47.9262 4.97256 48.5075 5.94134C50.1544 8.65391 51.7529 11.3665 53.3998 14.0306L59.7453 24.5903C68.3674 38.8797 76.9895 53.2176 85.6116 67.507C86.0475 68.2336 86.3381 69.1539 86.3866 69.9289C86.5319 71.3336 85.5631 72.593 84.0615 72.9321Z" fill="black"/>
<path d="M58.3406 14.3212C56.2093 10.7852 54.1264 7.29762 51.9951 3.81003C50.5419 1.43653 48.6044 0.225564 46.0856 0.080248C43.0339 -0.113507 40.7089 1.19434 39.0135 4.10066C31.8446 16.0166 24.6272 27.981 17.4583 39.8969C12.8081 47.5987 8.15801 55.3004 3.50789 63.0022C3.31413 63.3412 3.1204 63.6319 2.92665 63.971C1.95787 65.5694 1.03751 67.0226 0.601562 68.7664V70.9946C0.69844 71.2852 0.795335 71.5274 0.892213 71.818C1.13441 72.4962 1.32816 73.1259 1.61879 73.6587C3.12039 76.1291 5.30013 77.2432 8.54553 77.2432C26.8554 77.2432 45.5043 77.2432 63.5235 77.2432H82.6084C82.9959 77.2432 83.3349 77.2432 83.7224 77.1947C85.66 77.0979 87.3554 76.3228 88.6632 74.8697C91.0367 72.3024 91.2305 68.9117 89.2445 65.6179L58.3406 14.3212ZM84.0615 72.9321C83.5772 73.029 83.0928 73.0774 82.4146 73.0774C72.0003 73.0774 61.586 73.0774 51.1716 73.0774H8.69084C8.59396 73.0774 8.54552 73.0774 8.44864 73.0774C8.35177 73.0774 8.20645 73.0774 8.10957 73.0774C6.70484 73.029 5.54233 72.3993 5.00951 71.3821C4.42824 70.3649 4.52512 69.1055 5.2517 67.8945C7.383 64.3585 9.51431 60.8224 11.6456 57.2864L18.8145 45.4189C26.7101 32.3404 34.5571 19.3104 42.4526 6.23197C42.7433 5.79602 43.1793 5.11788 43.809 4.68193C44.4871 4.19754 45.3105 4.00379 46.134 4.1491C47.1028 4.34286 47.9262 4.97256 48.5075 5.94134C50.1544 8.65391 51.7529 11.3665 53.3998 14.0306L59.7453 24.5903C68.3674 38.8797 76.9895 53.2176 85.6116 67.507C86.0475 68.2336 86.3381 69.1539 86.3866 69.9289C86.5319 71.3336 85.5631 72.593 84.0615 72.9321Z" fill="url(#paint0_linear_1278_804)"/>
<path d="M46.4235 24.6389C46.0845 24.5904 45.7938 24.542 45.4548 24.542C44.6797 24.542 43.9532 24.7842 43.4203 25.2201C42.7906 25.753 42.5 26.4795 42.5 27.3999C42.6453 31.4203 42.7906 35.4407 42.936 39.4611C43.0813 42.9003 43.1782 46.291 43.3235 49.7301C43.3719 50.7474 43.9047 50.8442 44.0985 50.8927C45.0188 51.0864 45.9391 51.1349 46.6657 50.9895C47.5861 50.7958 47.8767 50.5536 47.9252 49.2458L48.3126 37.4267H48.3611L48.458 35.1501C48.5549 32.5344 48.6517 29.9187 48.7002 27.2546C48.7002 25.8014 47.9736 24.9779 46.4235 24.6389Z" fill="black"/>
<path d="M46.4235 24.6389C46.0845 24.5904 45.7938 24.542 45.4548 24.542C44.6797 24.542 43.9532 24.7842 43.4203 25.2201C42.7906 25.753 42.5 26.4795 42.5 27.3999C42.6453 31.4203 42.7906 35.4407 42.936 39.4611C43.0813 42.9003 43.1782 46.291 43.3235 49.7301C43.3719 50.7474 43.9047 50.8442 44.0985 50.8927C45.0188 51.0864 45.9391 51.1349 46.6657 50.9895C47.5861 50.7958 47.8767 50.5536 47.9252 49.2458L48.3126 37.4267H48.3611L48.458 35.1501C48.5549 32.5344 48.6517 29.9187 48.7002 27.2546C48.7002 25.8014 47.9736 24.9779 46.4235 24.6389Z" fill="url(#paint1_linear_1278_804)"/>
<path d="M45.6493 56.9473C43.857 56.9473 42.3555 58.4489 42.3555 60.2895C42.3555 61.1614 42.6945 62.0333 43.3242 62.663C43.9539 63.2927 44.7774 63.6318 45.6493 63.6318C46.4727 63.6318 47.2962 63.2927 47.9259 62.663C48.5556 62.0333 48.9431 61.1614 48.9431 60.2895C48.8947 58.4973 47.3931 56.9473 45.6493 56.9473Z" fill="black"/>
<path d="M45.6493 56.9473C43.857 56.9473 42.3555 58.4489 42.3555 60.2895C42.3555 61.1614 42.6945 62.0333 43.3242 62.663C43.9539 63.2927 44.7774 63.6318 45.6493 63.6318C46.4727 63.6318 47.2962 63.2927 47.9259 62.663C48.5556 62.0333 48.9431 61.1614 48.9431 60.2895C48.8947 58.4973 47.3931 56.9473 45.6493 56.9473Z" fill="url(#paint2_linear_1278_804)"/>
<defs>
<linearGradient id="paint0_linear_1278_804" x1="-16.0161" y1="0.0614936" x2="76.8406" y2="2.70419" gradientUnits="userSpaceOnUse">
<stop stop-color="#37DADA"/>
<stop offset="1" stop-color="#254DB5"/>
</linearGradient>
<linearGradient id="paint1_linear_1278_804" x1="41.3552" y1="24.542" x2="47.7571" y2="24.5785" gradientUnits="userSpaceOnUse">
<stop stop-color="#37DADA"/>
<stop offset="1" stop-color="#254DB5"/>
</linearGradient>
<linearGradient id="paint2_linear_1278_804" x1="41.1391" y1="56.9473" x2="47.9374" y2="57.1108" gradientUnits="userSpaceOnUse">
<stop stop-color="#37DADA"/>
<stop offset="1" stop-color="#254DB5"/>
</linearGradient>
</defs>
</svg>
