<svg width="91" height="104" viewBox="0 0 91 104" fill="none" xmlns="http://www.w3.org/2000/svg">
<path d="M46.8028 0.44918C49.535 1.13223 51.8769 2.44953 53.8284 4.44989C56.1703 6.88935 58.0243 9.67033 59.3904 12.744C60.6589 15.525 61.6835 18.3548 62.8544 21.1846C65.0499 20.7942 67.343 20.3064 69.6849 20.0136C74.2711 19.4281 78.8085 19.3794 83.1995 21.087C88.0784 22.9898 90.6642 27.088 90.2739 32.3573C89.9812 37.041 88.176 41.0417 85.395 44.7009C84.6632 45.6767 83.2483 45.8231 82.3213 45.0424C82.3213 45.0424 82.3213 45.0424 82.2725 44.9937C81.4919 44.3106 81.2967 43.1397 81.8822 42.2615C82.7604 40.8954 83.6386 39.5293 84.4192 38.1144C85.5414 36.0652 85.9805 33.8209 85.9805 31.4791C85.9805 28.3566 84.4192 26.2098 81.4431 25.0877C78.0766 23.8192 74.5638 23.868 71.051 24.2095C68.6603 24.4534 66.2697 24.9901 63.8302 25.3804C67.6845 43.0421 67.6845 60.5574 63.8302 78.2191C65.6354 78.5606 67.4406 78.9997 69.2946 79.2436C72.7098 79.6827 76.1739 79.9755 79.5403 79.0973C80.8576 78.7557 82.2237 78.2191 83.3459 77.4872C85.8341 75.8284 86.1756 73.2426 85.7365 70.5592C84.9559 65.3875 82.5652 60.9477 79.1988 57.0446C77.979 55.5809 75.5396 53.1414 73.9296 51.5802C73.1001 50.7996 73.0513 49.4823 73.7832 48.6528L73.832 48.604C74.6126 47.6771 76.0275 47.5795 76.9545 48.4089C82.614 53.6781 87.3466 59.5328 89.4933 67.1927C90.3715 70.3152 90.713 73.5353 89.3957 76.609C87.7369 80.5121 84.5168 82.4149 80.6137 83.2931C76.5642 84.2689 72.4659 84.0738 68.3676 83.4395C66.5136 83.1468 64.6108 82.7564 62.6593 82.4149C62.5617 82.6589 62.4641 82.9516 62.3665 83.2443C60.8053 87.9769 59.0001 92.6118 55.9264 96.6126C54.6578 98.2714 53.1454 99.8814 51.4378 101.15C47.4371 104.126 42.7045 103.931 38.7038 100.955C35.191 98.369 32.8979 94.8561 31.0439 91.0506C28.7508 86.3668 27.2383 81.3903 26.165 76.2187C25.921 75.0478 26.6529 73.8768 27.8238 73.6817H27.8726C28.9948 73.4377 30.1169 74.1696 30.3609 75.3405C30.6048 76.4139 30.8487 77.4384 31.0927 78.5118C32.5564 84.1713 34.4591 89.6845 38.1183 94.417C38.9477 95.4904 39.9235 96.515 40.9969 97.2956C44.1194 99.6863 47.3395 99.3935 50.218 96.6613C52.6575 94.3195 54.3651 91.4897 55.7312 88.4648C56.8046 86.1229 57.634 83.7322 58.561 81.2928C41.7287 75.7308 26.9944 66.9975 14.0653 54.9466C13.0407 56.1664 11.9674 57.3861 10.9916 58.6058C8.74728 61.4844 6.74692 64.5093 5.52719 67.9733C4.84414 69.8761 4.45383 71.8277 4.84414 73.8768C5.28325 76.2675 6.94207 77.6824 9.08879 78.5118C11.577 79.4876 14.1629 79.5852 16.7487 79.6339C17.5781 79.6339 18.4563 79.6339 19.3345 79.6339C20.4079 79.6339 21.3349 80.4634 21.4324 81.5367V81.5855C21.53 82.7564 20.6518 83.8298 19.4321 83.8786C16.7975 84.025 14.2604 84.025 11.6746 83.6346C8.99122 83.2443 6.45418 82.4637 4.30746 80.7561C0.697064 77.8775 -0.181141 74.072 0.648275 69.681C1.62406 64.7533 4.1611 60.6062 7.08845 56.703C8.30817 55.0442 9.67426 53.483 11.0404 51.8241C10.2109 50.7996 9.33274 49.8238 8.45454 48.7992C5.86871 45.6767 3.62441 42.3103 2.01437 38.5535C0.745854 35.4798 -0.13235 32.3085 0.550698 28.8932C1.38011 24.8437 4.06352 22.3555 7.77149 20.9894C11.5283 19.6233 15.3826 19.5257 19.3345 19.7697C20.5054 19.8185 21.4324 20.843 21.3349 22.0628V22.1116C21.2373 23.2337 20.3103 24.1119 19.1881 24.1119C17.6269 24.1119 16.0656 24.1119 14.5532 24.1119C12.2113 24.1607 9.967 24.551 7.91785 25.7219C5.57597 26.9905 4.45383 29.2348 4.64899 31.8694C4.94172 35.9189 6.79571 39.2853 8.99122 42.4566C10.5037 44.6521 12.2113 46.7013 13.8701 48.7992C26.8968 36.6995 41.5823 27.9175 58.3658 22.4043C56.5606 17.0375 54.6578 11.7683 50.6571 7.57239C46.7052 3.42532 42.7533 4.10836 39.1429 7.91392C36.3619 10.8413 34.5079 14.4029 33.2394 18.1596C32.3612 20.843 30.9951 25.7219 30.2633 28.4054C29.9705 29.5275 28.8972 30.2105 27.775 29.9666H27.7262C26.5065 29.7227 25.7259 28.5029 26.0186 27.2832C26.5065 25.1853 27.0432 23.1361 27.6287 21.1358C29.0923 16.1105 31.0927 11.3292 34.2152 7.0845C36.6059 3.91321 39.4356 1.37617 43.4851 0.546759C43.5339 0.546759 43.5827 0.44918 43.6315 0.400391H46.8028V0.44918ZM59.6831 77.0481C63.3911 60.1671 63.3911 43.4324 59.7319 26.6977C48.9007 28.8932 21.4812 45.1888 17.2366 51.9705C29.5802 63.3384 43.5827 71.7301 59.6831 77.0481Z" fill="black"/>
<path d="M46.8028 0.44918C49.535 1.13223 51.8769 2.44953 53.8284 4.44989C56.1703 6.88935 58.0243 9.67033 59.3904 12.744C60.6589 15.525 61.6835 18.3548 62.8544 21.1846C65.0499 20.7942 67.343 20.3064 69.6849 20.0136C74.2711 19.4281 78.8085 19.3794 83.1995 21.087C88.0784 22.9898 90.6642 27.088 90.2739 32.3573C89.9812 37.041 88.176 41.0417 85.395 44.7009C84.6632 45.6767 83.2483 45.8231 82.3213 45.0424C82.3213 45.0424 82.3213 45.0424 82.2725 44.9937C81.4919 44.3106 81.2967 43.1397 81.8822 42.2615C82.7604 40.8954 83.6386 39.5293 84.4192 38.1144C85.5414 36.0652 85.9805 33.8209 85.9805 31.4791C85.9805 28.3566 84.4192 26.2098 81.4431 25.0877C78.0766 23.8192 74.5638 23.868 71.051 24.2095C68.6603 24.4534 66.2697 24.9901 63.8302 25.3804C67.6845 43.0421 67.6845 60.5574 63.8302 78.2191C65.6354 78.5606 67.4406 78.9997 69.2946 79.2436C72.7098 79.6827 76.1739 79.9755 79.5403 79.0973C80.8576 78.7557 82.2237 78.2191 83.3459 77.4872C85.8341 75.8284 86.1756 73.2426 85.7365 70.5592C84.9559 65.3875 82.5652 60.9477 79.1988 57.0446C77.979 55.5809 75.5396 53.1414 73.9296 51.5802C73.1001 50.7996 73.0513 49.4823 73.7832 48.6528L73.832 48.604C74.6126 47.6771 76.0275 47.5795 76.9545 48.4089C82.614 53.6781 87.3466 59.5328 89.4933 67.1927C90.3715 70.3152 90.713 73.5353 89.3957 76.609C87.7369 80.5121 84.5168 82.4149 80.6137 83.2931C76.5642 84.2689 72.4659 84.0738 68.3676 83.4395C66.5136 83.1468 64.6108 82.7564 62.6593 82.4149C62.5617 82.6589 62.4641 82.9516 62.3665 83.2443C60.8053 87.9769 59.0001 92.6118 55.9264 96.6126C54.6578 98.2714 53.1454 99.8814 51.4378 101.15C47.4371 104.126 42.7045 103.931 38.7038 100.955C35.191 98.369 32.8979 94.8561 31.0439 91.0506C28.7508 86.3668 27.2383 81.3903 26.165 76.2187C25.921 75.0478 26.6529 73.8768 27.8238 73.6817H27.8726C28.9948 73.4377 30.1169 74.1696 30.3609 75.3405C30.6048 76.4139 30.8487 77.4384 31.0927 78.5118C32.5564 84.1713 34.4591 89.6845 38.1183 94.417C38.9477 95.4904 39.9235 96.515 40.9969 97.2956C44.1194 99.6863 47.3395 99.3935 50.218 96.6613C52.6575 94.3195 54.3651 91.4897 55.7312 88.4648C56.8046 86.1229 57.634 83.7322 58.561 81.2928C41.7287 75.7308 26.9944 66.9975 14.0653 54.9466C13.0407 56.1664 11.9674 57.3861 10.9916 58.6058C8.74728 61.4844 6.74692 64.5093 5.52719 67.9733C4.84414 69.8761 4.45383 71.8277 4.84414 73.8768C5.28325 76.2675 6.94207 77.6824 9.08879 78.5118C11.577 79.4876 14.1629 79.5852 16.7487 79.6339C17.5781 79.6339 18.4563 79.6339 19.3345 79.6339C20.4079 79.6339 21.3349 80.4634 21.4324 81.5367V81.5855C21.53 82.7564 20.6518 83.8298 19.4321 83.8786C16.7975 84.025 14.2604 84.025 11.6746 83.6346C8.99122 83.2443 6.45418 82.4637 4.30746 80.7561C0.697064 77.8775 -0.181141 74.072 0.648275 69.681C1.62406 64.7533 4.1611 60.6062 7.08845 56.703C8.30817 55.0442 9.67426 53.483 11.0404 51.8241C10.2109 50.7996 9.33274 49.8238 8.45454 48.7992C5.86871 45.6767 3.62441 42.3103 2.01437 38.5535C0.745854 35.4798 -0.13235 32.3085 0.550698 28.8932C1.38011 24.8437 4.06352 22.3555 7.77149 20.9894C11.5283 19.6233 15.3826 19.5257 19.3345 19.7697C20.5054 19.8185 21.4324 20.843 21.3349 22.0628V22.1116C21.2373 23.2337 20.3103 24.1119 19.1881 24.1119C17.6269 24.1119 16.0656 24.1119 14.5532 24.1119C12.2113 24.1607 9.967 24.551 7.91785 25.7219C5.57597 26.9905 4.45383 29.2348 4.64899 31.8694C4.94172 35.9189 6.79571 39.2853 8.99122 42.4566C10.5037 44.6521 12.2113 46.7013 13.8701 48.7992C26.8968 36.6995 41.5823 27.9175 58.3658 22.4043C56.5606 17.0375 54.6578 11.7683 50.6571 7.57239C46.7052 3.42532 42.7533 4.10836 39.1429 7.91392C36.3619 10.8413 34.5079 14.4029 33.2394 18.1596C32.3612 20.843 30.9951 25.7219 30.2633 28.4054C29.9705 29.5275 28.8972 30.2105 27.775 29.9666H27.7262C26.5065 29.7227 25.7259 28.5029 26.0186 27.2832C26.5065 25.1853 27.0432 23.1361 27.6287 21.1358C29.0923 16.1105 31.0927 11.3292 34.2152 7.0845C36.6059 3.91321 39.4356 1.37617 43.4851 0.546759C43.5339 0.546759 43.5827 0.44918 43.6315 0.400391H46.8028V0.44918ZM59.6831 77.0481C63.3911 60.1671 63.3911 43.4324 59.7319 26.6977C48.9007 28.8932 21.4812 45.1888 17.2366 51.9705C29.5802 63.3384 43.5827 71.7301 59.6831 77.0481Z" fill="url(#paint0_linear_1278_801)"/>
<path d="M45.3375 41.0902C51.241 41.0414 56.0223 45.8228 56.0711 51.775C56.0711 57.7273 51.3874 62.4599 45.4351 62.5086C39.5804 62.5574 34.7015 57.7273 34.6527 51.8238C34.6039 46.0179 39.4828 41.139 45.3375 41.0902ZM38.9949 51.8238C38.9949 55.2879 41.8735 58.2152 45.3375 58.264C48.8016 58.3128 51.8265 55.2879 51.7777 51.8238C51.7289 48.311 48.8016 45.4324 45.3863 45.4324C41.9223 45.4324 38.9949 48.3598 38.9949 51.8238Z" fill="black"/>
<path d="M45.3375 41.0902C51.241 41.0414 56.0223 45.8228 56.0711 51.775C56.0711 57.7273 51.3874 62.4599 45.4351 62.5086C39.5804 62.5574 34.7015 57.7273 34.6527 51.8238C34.6039 46.0179 39.4828 41.139 45.3375 41.0902ZM38.9949 51.8238C38.9949 55.2879 41.8735 58.2152 45.3375 58.264C48.8016 58.3128 51.8265 55.2879 51.7777 51.8238C51.7289 48.311 48.8016 45.4324 45.3863 45.4324C41.9223 45.4324 38.9949 48.3598 38.9949 51.8238Z" fill="url(#paint1_linear_1278_801)"/>
<defs>
<linearGradient id="paint0_linear_1278_801" x1="-16.3051" y1="0.400351" x2="76.5844" y2="2.38351" gradientUnits="userSpaceOnUse">
<stop stop-color="#37DADA"/>
<stop offset="1" stop-color="#254DB5"/>
</linearGradient>
<linearGradient id="paint1_linear_1278_801" x1="30.6976" y1="41.0898" x2="52.8009" y2="41.6293" gradientUnits="userSpaceOnUse">
<stop stop-color="#37DADA"/>
<stop offset="1" stop-color="#254DB5"/>
</linearGradient>
</defs>
</svg>
