<svg width="91" height="91" viewBox="0 0 91 91" fill="none" xmlns="http://www.w3.org/2000/svg">
<path d="M0.893688 42.217C1.12595 40.5912 1.31177 38.9653 1.59049 37.3859C3.54152 26.7946 8.65138 18.0613 16.7807 11.0934C23.0054 5.75123 30.2057 2.45305 38.2886 1.05945C43.6307 0.130388 49.0193 0.223295 54.3149 1.24527C54.7795 1.33817 55.244 1.47753 55.5692 1.75625C56.1731 2.26724 56.3124 3.01049 55.9873 3.75374C55.6621 4.54345 54.8724 4.91507 53.9433 4.77571C52.782 4.5899 51.6206 4.40409 50.4593 4.26473C44.6062 3.52148 38.846 4.07891 33.2252 5.93705C21.426 9.83912 12.9251 17.4575 7.81522 28.7921C5.07448 34.9239 3.9596 41.3809 4.42414 48.0702C4.98157 56.1995 7.72232 63.5391 12.5535 70.089C12.6928 70.3213 12.8786 70.5071 13.0644 70.7393C15.2013 69.7174 17.3846 69.578 19.5679 70.5071C21.1473 71.2039 22.3551 72.3188 23.1448 73.8517C24.7707 76.9176 23.981 80.7733 21.2867 82.9566C18.5924 85.1863 14.7368 85.1863 11.996 82.9566C9.58045 81.0055 8.09394 77.1499 10.3237 73.2943C8.74429 70.6929 7.07197 68.1844 5.67837 65.583C2.98408 60.4267 1.45113 54.8988 0.986594 49.1386C0.940141 48.8599 0.893688 48.5811 0.800781 48.3024C0.893688 46.3049 0.893688 44.261 0.893688 42.217ZM20.5434 77.2893C20.5434 75.1989 18.7782 73.4336 16.6413 73.4801C14.5509 73.4801 12.7857 75.2918 12.7857 77.3357C12.7857 79.4261 14.5974 81.1913 16.6878 81.1913C18.8246 81.1449 20.5899 79.3796 20.5434 77.2893Z" fill="black"/>
<path d="M0.893688 42.217C1.12595 40.5912 1.31177 38.9653 1.59049 37.3859C3.54152 26.7946 8.65138 18.0613 16.7807 11.0934C23.0054 5.75123 30.2057 2.45305 38.2886 1.05945C43.6307 0.130388 49.0193 0.223295 54.3149 1.24527C54.7795 1.33817 55.244 1.47753 55.5692 1.75625C56.1731 2.26724 56.3124 3.01049 55.9873 3.75374C55.6621 4.54345 54.8724 4.91507 53.9433 4.77571C52.782 4.5899 51.6206 4.40409 50.4593 4.26473C44.6062 3.52148 38.846 4.07891 33.2252 5.93705C21.426 9.83912 12.9251 17.4575 7.81522 28.7921C5.07448 34.9239 3.9596 41.3809 4.42414 48.0702C4.98157 56.1995 7.72232 63.5391 12.5535 70.089C12.6928 70.3213 12.8786 70.5071 13.0644 70.7393C15.2013 69.7174 17.3846 69.578 19.5679 70.5071C21.1473 71.2039 22.3551 72.3188 23.1448 73.8517C24.7707 76.9176 23.981 80.7733 21.2867 82.9566C18.5924 85.1863 14.7368 85.1863 11.996 82.9566C9.58045 81.0055 8.09394 77.1499 10.3237 73.2943C8.74429 70.6929 7.07197 68.1844 5.67837 65.583C2.98408 60.4267 1.45113 54.8988 0.986594 49.1386C0.940141 48.8599 0.893688 48.5811 0.800781 48.3024C0.893688 46.3049 0.893688 44.261 0.893688 42.217ZM20.5434 77.2893C20.5434 75.1989 18.7782 73.4336 16.6413 73.4801C14.5509 73.4801 12.7857 75.2918 12.7857 77.3357C12.7857 79.4261 14.5974 81.1913 16.6878 81.1913C18.8246 81.1449 20.5899 79.3796 20.5434 77.2893Z" fill="url(#paint0_linear_1278_808)"/>
<path d="M42.6563 90.3423C41.0305 90.11 39.3581 89.8778 37.7323 89.6455C37.5 89.5991 37.2677 89.5526 37.0355 89.5061C35.967 89.2274 35.3632 88.4377 35.549 87.4622C35.7348 86.3938 36.6638 85.8828 37.7787 86.0222C40.1478 86.3009 42.517 86.7654 44.9325 86.7654C58.5433 86.8583 69.6921 81.6091 78.2395 71.0642C83.3494 64.793 86.2759 57.4999 87.0192 49.4634C88.0411 38.6398 85.2075 28.8846 78.6576 20.1979C78.6111 20.1514 78.5647 20.105 78.4718 20.0121C76.1956 21.0805 73.8265 21.2199 71.5502 20.0121C70.0637 19.2224 68.9489 18.061 68.2521 16.5281C66.8585 13.4622 67.7411 9.7459 70.3889 7.70196C73.1297 5.56511 76.9388 5.61156 79.6331 7.79486C81.8164 9.56009 83.6281 13.3228 81.1661 17.643C83.6745 20.8947 85.7649 24.3787 87.3444 28.1878C90.1316 34.9236 91.2464 41.8916 90.6425 49.1847C88.9702 69.0667 74.7091 85.2325 55.1522 89.4597C53.387 89.8313 51.5753 89.9707 49.7637 90.2494C49.5314 90.2959 49.2527 90.3423 49.0204 90.4352C46.8836 90.3423 44.7932 90.3423 42.6563 90.3423ZM74.9878 17.3178C77.0782 17.3178 78.8434 15.5526 78.8434 13.4622C78.8434 11.3718 77.0317 9.60654 74.9878 9.60654C72.8974 9.60654 71.1322 11.4182 71.1322 13.5086C71.1322 15.5526 72.8974 17.3178 74.9878 17.3178Z" fill="black"/>
<path d="M42.6563 90.3423C41.0305 90.11 39.3581 89.8778 37.7323 89.6455C37.5 89.5991 37.2677 89.5526 37.0355 89.5061C35.967 89.2274 35.3632 88.4377 35.549 87.4622C35.7348 86.3938 36.6638 85.8828 37.7787 86.0222C40.1478 86.3009 42.517 86.7654 44.9325 86.7654C58.5433 86.8583 69.6921 81.6091 78.2395 71.0642C83.3494 64.793 86.2759 57.4999 87.0192 49.4634C88.0411 38.6398 85.2075 28.8846 78.6576 20.1979C78.6111 20.1514 78.5647 20.105 78.4718 20.0121C76.1956 21.0805 73.8265 21.2199 71.5502 20.0121C70.0637 19.2224 68.9489 18.061 68.2521 16.5281C66.8585 13.4622 67.7411 9.7459 70.3889 7.70196C73.1297 5.56511 76.9388 5.61156 79.6331 7.79486C81.8164 9.56009 83.6281 13.3228 81.1661 17.643C83.6745 20.8947 85.7649 24.3787 87.3444 28.1878C90.1316 34.9236 91.2464 41.8916 90.6425 49.1847C88.9702 69.0667 74.7091 85.2325 55.1522 89.4597C53.387 89.8313 51.5753 89.9707 49.7637 90.2494C49.5314 90.2959 49.2527 90.3423 49.0204 90.4352C46.8836 90.3423 44.7932 90.3423 42.6563 90.3423ZM74.9878 17.3178C77.0782 17.3178 78.8434 15.5526 78.8434 13.4622C78.8434 11.3718 77.0317 9.60654 74.9878 9.60654C72.8974 9.60654 71.1322 11.4182 71.1322 13.5086C71.1322 15.5526 72.8974 17.3178 74.9878 17.3178Z" fill="url(#paint1_linear_1278_808)"/>
<path d="M59.8872 69.5779C57.611 70.4605 55.6135 71.2502 53.616 72.0399C53.3837 72.1328 53.105 72.5044 53.105 72.7367C53.0585 73.6193 53.105 74.5484 53.0585 75.4774C53.0121 76.6852 52.3617 77.2891 51.154 77.2891C47.5771 77.2891 44.0002 77.2891 40.4697 77.2891C39.2619 77.2891 38.6116 76.6388 38.6116 75.4774C38.5651 74.5948 38.658 73.6658 38.5651 72.7367C38.5651 72.5044 38.2864 72.1328 38.0541 72.0399C36.0566 71.2037 34.0592 70.4605 31.7829 69.5779C31.272 70.0889 30.6216 70.8321 29.9248 71.5289C28.8099 72.6438 27.9273 72.6438 26.8589 71.5754C24.4433 69.1598 22.0742 66.7907 19.6586 64.3751C18.5438 63.2602 18.5902 62.4241 19.6586 61.3092C20.309 60.6124 21.3774 60.0085 21.5632 59.2188C21.7026 58.4755 20.8664 57.5929 20.4948 56.7103C20.0303 55.5954 19.6122 54.4341 19.2406 53.2728C19.1012 52.8082 18.8689 52.6224 18.4044 52.6224C17.5218 52.6689 16.6392 52.6689 15.7566 52.6224C14.5488 52.576 13.9449 51.9256 13.8984 50.7643C13.8984 47.1874 13.8984 43.6105 13.8984 40.0801C13.8984 38.8723 14.5488 38.2219 15.7101 38.1755C16.5927 38.129 17.5218 38.2219 18.4509 38.129C18.6831 38.129 19.0547 37.8503 19.1477 37.618C19.9374 35.8064 20.6806 33.9482 21.4703 32.1365C21.6561 31.7185 21.6561 31.4862 21.331 31.161C20.7271 30.6036 20.1232 29.9532 19.5193 29.3494C18.6367 28.4203 18.5902 27.4912 19.4728 26.6086C21.9813 24.1001 24.4898 21.5917 26.9983 19.0832C27.9273 18.2006 28.8099 18.2006 29.7855 19.0832C30.4358 19.6871 30.9932 20.3374 31.6436 20.9413C31.8294 21.0807 32.201 21.1271 32.4333 21.0807C34.3379 20.3374 36.196 19.5477 38.1006 18.758C38.3329 18.6651 38.5651 18.3399 38.5651 18.0612C38.6116 17.1786 38.5651 16.2495 38.6116 15.3205C38.658 14.1127 39.3084 13.5088 40.5162 13.5088C44.0931 13.5088 47.67 13.5088 51.2004 13.5088C52.4082 13.5088 53.0585 14.1591 53.0585 15.3205C53.105 16.2031 53.105 17.0857 53.0585 17.9683C53.0585 18.4328 53.1979 18.6186 53.616 18.8045C55.4741 19.5013 57.2858 20.291 59.0975 21.0807C59.5155 21.2665 59.7478 21.2665 60.073 20.9413C60.6769 20.291 61.2808 19.6871 61.9311 19.0832C62.8137 18.247 63.7428 18.247 64.579 19.0832C67.1339 21.5917 69.6888 24.1466 72.1973 26.7015C73.0334 27.5377 72.987 28.4667 72.1508 29.3494C71.5469 29.9997 70.943 30.6036 70.2927 31.2075C69.9211 31.5327 69.9675 31.7649 70.1533 32.183C70.943 33.9482 71.6863 35.7599 72.3831 37.5716C72.5689 38.0361 72.7547 38.2219 73.2657 38.1755C74.1483 38.129 75.0309 38.129 75.9135 38.1755C77.1213 38.2219 77.7252 38.8723 77.7252 40.0801C77.7252 43.657 77.7252 47.2339 77.7252 50.7643C77.7252 51.9721 77.0749 52.576 75.8671 52.6224C75.0309 52.6689 74.1483 52.6689 73.3122 52.6224C72.8012 52.6224 72.5689 52.7153 72.3831 53.2728C71.6863 55.0845 70.943 56.8961 70.1533 58.6614C69.9675 59.0794 69.9211 59.3117 70.2927 59.6369C70.943 60.2408 71.5469 60.8447 72.1508 61.495C72.987 62.3776 73.0334 63.3067 72.1508 64.1893C69.6424 66.7442 67.1339 69.2527 64.579 71.7612C63.6963 72.6438 62.7673 72.5973 61.8847 71.7147C61.1879 70.9715 60.4911 70.2282 59.8872 69.5779ZM42.1885 16.9928C42.142 17.1321 42.0956 17.1786 42.0956 17.225C42.0956 18.0148 42.0956 18.8045 42.0956 19.5942C42.0956 20.8484 41.6775 21.4058 40.4697 21.731C37.7754 22.3814 35.2205 23.4033 32.8514 24.8898C31.8759 25.4937 31.1326 25.4008 30.3429 24.6111C29.6925 23.9608 29.1351 23.264 28.6241 22.7065C26.766 24.5647 25.0472 26.3299 23.2355 28.0951C23.793 28.6061 24.4433 29.21 25.0472 29.8603C25.8834 30.6965 25.9763 31.3933 25.3724 32.3688C23.8859 34.7379 22.8175 37.2929 22.1671 39.9871C21.8884 41.1949 21.2845 41.613 20.0303 41.6595C19.1477 41.6595 18.3115 41.6595 17.3824 41.6595C17.3824 44.1679 17.3824 46.5835 17.3824 48.9991C17.4753 49.0455 17.5218 49.092 17.5682 49.092C18.3115 49.092 19.1012 49.092 19.8445 49.092C21.2845 49.092 21.8419 49.4636 22.1207 50.8572C22.7246 53.505 23.793 55.9671 25.1866 58.2433C25.8834 59.3582 25.7905 60.055 24.8614 60.984C24.2575 61.5879 23.5607 62.1454 22.9568 62.6563C24.8614 64.5609 26.5802 66.2797 28.4383 68.0914C28.717 67.7662 28.9957 67.3946 29.3209 67.0229C29.6461 66.6978 29.9713 66.3261 30.2964 66.0474C31.0861 65.3042 31.7829 65.2113 32.6656 65.7687C35.0811 67.3017 37.6825 68.3701 40.4697 69.0204C41.5846 69.2992 42.0027 69.903 42.0491 71.0179C42.0491 71.9005 42.0491 72.8296 42.0491 73.7587C44.5576 73.7587 46.9732 73.7587 49.4352 73.7587C49.4352 72.8296 49.4352 71.9934 49.4352 71.1108C49.4352 69.8566 49.8533 69.2992 51.061 68.974C53.8018 68.3236 56.3103 67.3017 58.6794 65.8152C59.6549 65.2113 60.3517 65.3042 61.1879 66.1403C61.8382 66.7907 62.4421 67.441 62.9531 67.9985C64.7648 66.1868 66.53 64.468 68.3417 62.6563C67.7378 62.0989 67.041 61.495 66.4371 60.8447C65.6474 60.055 65.5545 59.3117 66.1119 58.3826C67.5984 55.9671 68.6668 53.4121 69.3172 50.6714C69.5959 49.5101 70.1533 49.092 71.3611 49.092C72.2437 49.092 73.1263 49.092 74.009 49.092C74.009 46.5371 74.009 44.1215 74.009 41.6595C73.0799 41.6595 72.2437 41.6595 71.4076 41.6595C70.1533 41.6595 69.5959 41.2414 69.2707 40.0336C68.6204 37.2929 67.552 34.7844 66.1119 32.4153C65.508 31.4398 65.6009 30.743 66.3906 29.9068C67.041 29.2564 67.6913 28.6526 68.2952 28.1416C66.4371 26.2834 64.7183 24.5647 62.9066 22.753C62.3492 23.3104 61.7918 23.9608 61.1879 24.5647C60.3053 25.4473 59.562 25.5402 58.54 24.8898C56.1709 23.4033 53.6624 22.3814 50.9681 21.731C49.7604 21.4523 49.3423 20.8949 49.2958 19.6406C49.2958 18.758 49.2958 17.9218 49.2958 16.9928C47.0196 16.9928 44.6505 16.9928 42.1885 16.9928Z" fill="black"/>
<path d="M59.8872 69.5779C57.611 70.4605 55.6135 71.2502 53.616 72.0399C53.3837 72.1328 53.105 72.5044 53.105 72.7367C53.0585 73.6193 53.105 74.5484 53.0585 75.4774C53.0121 76.6852 52.3617 77.2891 51.154 77.2891C47.5771 77.2891 44.0002 77.2891 40.4697 77.2891C39.2619 77.2891 38.6116 76.6388 38.6116 75.4774C38.5651 74.5948 38.658 73.6658 38.5651 72.7367C38.5651 72.5044 38.2864 72.1328 38.0541 72.0399C36.0566 71.2037 34.0592 70.4605 31.7829 69.5779C31.272 70.0889 30.6216 70.8321 29.9248 71.5289C28.8099 72.6438 27.9273 72.6438 26.8589 71.5754C24.4433 69.1598 22.0742 66.7907 19.6586 64.3751C18.5438 63.2602 18.5902 62.4241 19.6586 61.3092C20.309 60.6124 21.3774 60.0085 21.5632 59.2188C21.7026 58.4755 20.8664 57.5929 20.4948 56.7103C20.0303 55.5954 19.6122 54.4341 19.2406 53.2728C19.1012 52.8082 18.8689 52.6224 18.4044 52.6224C17.5218 52.6689 16.6392 52.6689 15.7566 52.6224C14.5488 52.576 13.9449 51.9256 13.8984 50.7643C13.8984 47.1874 13.8984 43.6105 13.8984 40.0801C13.8984 38.8723 14.5488 38.2219 15.7101 38.1755C16.5927 38.129 17.5218 38.2219 18.4509 38.129C18.6831 38.129 19.0547 37.8503 19.1477 37.618C19.9374 35.8064 20.6806 33.9482 21.4703 32.1365C21.6561 31.7185 21.6561 31.4862 21.331 31.161C20.7271 30.6036 20.1232 29.9532 19.5193 29.3494C18.6367 28.4203 18.5902 27.4912 19.4728 26.6086C21.9813 24.1001 24.4898 21.5917 26.9983 19.0832C27.9273 18.2006 28.8099 18.2006 29.7855 19.0832C30.4358 19.6871 30.9932 20.3374 31.6436 20.9413C31.8294 21.0807 32.201 21.1271 32.4333 21.0807C34.3379 20.3374 36.196 19.5477 38.1006 18.758C38.3329 18.6651 38.5651 18.3399 38.5651 18.0612C38.6116 17.1786 38.5651 16.2495 38.6116 15.3205C38.658 14.1127 39.3084 13.5088 40.5162 13.5088C44.0931 13.5088 47.67 13.5088 51.2004 13.5088C52.4082 13.5088 53.0585 14.1591 53.0585 15.3205C53.105 16.2031 53.105 17.0857 53.0585 17.9683C53.0585 18.4328 53.1979 18.6186 53.616 18.8045C55.4741 19.5013 57.2858 20.291 59.0975 21.0807C59.5155 21.2665 59.7478 21.2665 60.073 20.9413C60.6769 20.291 61.2808 19.6871 61.9311 19.0832C62.8137 18.247 63.7428 18.247 64.579 19.0832C67.1339 21.5917 69.6888 24.1466 72.1973 26.7015C73.0334 27.5377 72.987 28.4667 72.1508 29.3494C71.5469 29.9997 70.943 30.6036 70.2927 31.2075C69.9211 31.5327 69.9675 31.7649 70.1533 32.183C70.943 33.9482 71.6863 35.7599 72.3831 37.5716C72.5689 38.0361 72.7547 38.2219 73.2657 38.1755C74.1483 38.129 75.0309 38.129 75.9135 38.1755C77.1213 38.2219 77.7252 38.8723 77.7252 40.0801C77.7252 43.657 77.7252 47.2339 77.7252 50.7643C77.7252 51.9721 77.0749 52.576 75.8671 52.6224C75.0309 52.6689 74.1483 52.6689 73.3122 52.6224C72.8012 52.6224 72.5689 52.7153 72.3831 53.2728C71.6863 55.0845 70.943 56.8961 70.1533 58.6614C69.9675 59.0794 69.9211 59.3117 70.2927 59.6369C70.943 60.2408 71.5469 60.8447 72.1508 61.495C72.987 62.3776 73.0334 63.3067 72.1508 64.1893C69.6424 66.7442 67.1339 69.2527 64.579 71.7612C63.6963 72.6438 62.7673 72.5973 61.8847 71.7147C61.1879 70.9715 60.4911 70.2282 59.8872 69.5779ZM42.1885 16.9928C42.142 17.1321 42.0956 17.1786 42.0956 17.225C42.0956 18.0148 42.0956 18.8045 42.0956 19.5942C42.0956 20.8484 41.6775 21.4058 40.4697 21.731C37.7754 22.3814 35.2205 23.4033 32.8514 24.8898C31.8759 25.4937 31.1326 25.4008 30.3429 24.6111C29.6925 23.9608 29.1351 23.264 28.6241 22.7065C26.766 24.5647 25.0472 26.3299 23.2355 28.0951C23.793 28.6061 24.4433 29.21 25.0472 29.8603C25.8834 30.6965 25.9763 31.3933 25.3724 32.3688C23.8859 34.7379 22.8175 37.2929 22.1671 39.9871C21.8884 41.1949 21.2845 41.613 20.0303 41.6595C19.1477 41.6595 18.3115 41.6595 17.3824 41.6595C17.3824 44.1679 17.3824 46.5835 17.3824 48.9991C17.4753 49.0455 17.5218 49.092 17.5682 49.092C18.3115 49.092 19.1012 49.092 19.8445 49.092C21.2845 49.092 21.8419 49.4636 22.1207 50.8572C22.7246 53.505 23.793 55.9671 25.1866 58.2433C25.8834 59.3582 25.7905 60.055 24.8614 60.984C24.2575 61.5879 23.5607 62.1454 22.9568 62.6563C24.8614 64.5609 26.5802 66.2797 28.4383 68.0914C28.717 67.7662 28.9957 67.3946 29.3209 67.0229C29.6461 66.6978 29.9713 66.3261 30.2964 66.0474C31.0861 65.3042 31.7829 65.2113 32.6656 65.7687C35.0811 67.3017 37.6825 68.3701 40.4697 69.0204C41.5846 69.2992 42.0027 69.903 42.0491 71.0179C42.0491 71.9005 42.0491 72.8296 42.0491 73.7587C44.5576 73.7587 46.9732 73.7587 49.4352 73.7587C49.4352 72.8296 49.4352 71.9934 49.4352 71.1108C49.4352 69.8566 49.8533 69.2992 51.061 68.974C53.8018 68.3236 56.3103 67.3017 58.6794 65.8152C59.6549 65.2113 60.3517 65.3042 61.1879 66.1403C61.8382 66.7907 62.4421 67.441 62.9531 67.9985C64.7648 66.1868 66.53 64.468 68.3417 62.6563C67.7378 62.0989 67.041 61.495 66.4371 60.8447C65.6474 60.055 65.5545 59.3117 66.1119 58.3826C67.5984 55.9671 68.6668 53.4121 69.3172 50.6714C69.5959 49.5101 70.1533 49.092 71.3611 49.092C72.2437 49.092 73.1263 49.092 74.009 49.092C74.009 46.5371 74.009 44.1215 74.009 41.6595C73.0799 41.6595 72.2437 41.6595 71.4076 41.6595C70.1533 41.6595 69.5959 41.2414 69.2707 40.0336C68.6204 37.2929 67.552 34.7844 66.1119 32.4153C65.508 31.4398 65.6009 30.743 66.3906 29.9068C67.041 29.2564 67.6913 28.6526 68.2952 28.1416C66.4371 26.2834 64.7183 24.5647 62.9066 22.753C62.3492 23.3104 61.7918 23.9608 61.1879 24.5647C60.3053 25.4473 59.562 25.5402 58.54 24.8898C56.1709 23.4033 53.6624 22.3814 50.9681 21.731C49.7604 21.4523 49.3423 20.8949 49.2958 19.6406C49.2958 18.758 49.2958 17.9218 49.2958 16.9928C47.0196 16.9928 44.6505 16.9928 42.1885 16.9928Z" fill="url(#paint2_linear_1278_808)"/>
<path d="M61.9786 3.61426C63.0006 3.61426 63.7439 4.35751 63.7439 5.33303C63.7439 6.30855 62.9542 7.09825 61.9786 7.09825C61.0496 7.09825 60.2599 6.30855 60.2599 5.37948C60.2134 4.40396 60.9567 3.61426 61.9786 3.61426Z" fill="black"/>
<path d="M61.9786 3.61426C63.0006 3.61426 63.7439 4.35751 63.7439 5.33303C63.7439 6.30855 62.9542 7.09825 61.9786 7.09825C61.0496 7.09825 60.2599 6.30855 60.2599 5.37948C60.2134 4.40396 60.9567 3.61426 61.9786 3.61426Z" fill="url(#paint3_linear_1278_808)"/>
<path d="M29.7414 83.7C30.7169 83.7 31.5066 84.5362 31.4601 85.5117C31.4601 86.4872 30.624 87.2769 29.6485 87.2304C28.7194 87.184 27.9297 86.3943 27.9297 85.4652C27.9761 84.5362 28.8123 83.6535 29.7414 83.7Z" fill="black"/>
<path d="M29.7414 83.7C30.7169 83.7 31.5066 84.5362 31.4601 85.5117C31.4601 86.4872 30.624 87.2769 29.6485 87.2304C28.7194 87.184 27.9297 86.3943 27.9297 85.4652C27.9761 84.5362 28.8123 83.6535 29.7414 83.7Z" fill="url(#paint4_linear_1278_808)"/>
<path d="M45.8602 59.9157C37.9167 59.9157 31.3203 53.3658 31.3203 45.4223C31.3203 37.4323 37.8702 30.8359 45.8602 30.8359C53.8037 30.8359 60.3536 37.4323 60.3536 45.3758C60.3536 53.3658 53.8037 59.9157 45.8602 59.9157ZM56.7767 45.3758C56.7767 39.2904 51.8527 34.4128 45.7673 34.4593C39.7284 34.5057 34.8508 39.3369 34.8508 45.3758C34.8508 51.4612 39.7284 56.3388 45.8137 56.3388C51.8991 56.3388 56.8232 51.4147 56.7767 45.3758Z" fill="black"/>
<path d="M45.8602 59.9157C37.9167 59.9157 31.3203 53.3658 31.3203 45.4223C31.3203 37.4323 37.8702 30.8359 45.8602 30.8359C53.8037 30.8359 60.3536 37.4323 60.3536 45.3758C60.3536 53.3658 53.8037 59.9157 45.8602 59.9157ZM56.7767 45.3758C56.7767 39.2904 51.8527 34.4128 45.7673 34.4593C39.7284 34.5057 34.8508 39.3369 34.8508 45.3758C34.8508 51.4612 39.7284 56.3388 45.8137 56.3388C51.8991 56.3388 56.8232 51.4147 56.7767 45.3758Z" fill="url(#paint5_linear_1278_808)"/>
<defs>
<linearGradient id="paint0_linear_1278_808" x1="-9.4204" y1="0.41696" x2="47.7254" y2="1.33379" gradientUnits="userSpaceOnUse">
<stop stop-color="#37DADA"/>
<stop offset="1" stop-color="#254DB5"/>
</linearGradient>
<linearGradient id="paint1_linear_1278_808" x1="25.3075" y1="6.1279" x2="82.3802" y2="7.04135" gradientUnits="userSpaceOnUse">
<stop stop-color="#37DADA"/>
<stop offset="1" stop-color="#254DB5"/>
</linearGradient>
<linearGradient id="paint2_linear_1278_808" x1="2.11343" y1="13.5088" x2="67.9802" y2="15.1175" gradientUnits="userSpaceOnUse">
<stop stop-color="#37DADA"/>
<stop offset="1" stop-color="#254DB5"/>
</linearGradient>
<linearGradient id="paint3_linear_1278_808" x1="59.6141" y1="3.61426" x2="63.2116" y2="3.70211" gradientUnits="userSpaceOnUse">
<stop stop-color="#37DADA"/>
<stop offset="1" stop-color="#254DB5"/>
</linearGradient>
<linearGradient id="paint4_linear_1278_808" x1="27.2775" y1="83.6982" x2="30.9228" y2="83.7872" gradientUnits="userSpaceOnUse">
<stop stop-color="#37DADA"/>
<stop offset="1" stop-color="#254DB5"/>
</linearGradient>
<linearGradient id="paint5_linear_1278_808" x1="25.9596" y1="30.8359" x2="55.9209" y2="31.566" gradientUnits="userSpaceOnUse">
<stop stop-color="#37DADA"/>
<stop offset="1" stop-color="#254DB5"/>
</linearGradient>
</defs>
</svg>
