<svg width="60" height="60" viewBox="0 0 60 60" fill="none" xmlns="http://www.w3.org/2000/svg">
<path d="M9.285 43.094C9.22291 43.5467 8.83569 43.8741 8.39204 43.8741C8.3514 43.8741 8.31076 43.8718 8.26899 43.865C7.29926 43.733 6.38372 43.5422 5.55059 43.2995C5.07194 43.1606 4.79649 42.6594 4.93647 42.1807C5.07533 41.7021 5.57656 41.4266 6.05521 41.5666C6.8048 41.7845 7.63116 41.9561 8.51396 42.0769C9.00616 42.1457 9.3516 42.6007 9.285 43.094ZM5.54947 48.9011C6.38372 49.1438 7.29813 49.3334 8.26786 49.4666C8.30963 49.4723 8.35027 49.4757 8.39091 49.4757C8.83456 49.4757 9.22178 49.1472 9.28387 48.6956C9.3516 48.2023 9.00616 47.7473 8.5117 47.6796C7.6289 47.5588 6.80142 47.3872 6.05296 47.1693C5.5743 47.0294 5.07307 47.3048 4.93422 47.7835C4.79536 48.261 5.07081 48.7622 5.54947 48.9011ZM8.50944 53.2744C7.64809 53.1593 6.82174 52.9877 6.05408 52.7653C5.57543 52.6253 5.0742 52.9008 4.93534 53.3794C4.79649 53.8581 5.07081 54.3582 5.54947 54.4982C6.40404 54.7465 7.31958 54.9373 8.27124 55.0637C8.31188 55.0694 8.3514 55.0716 8.39091 55.0716C8.83682 55.0716 9.22404 54.742 9.28387 54.2882C9.35047 53.7937 9.0039 53.3399 8.50944 53.2744ZM58.8008 34.0854V55.8269C58.8008 57.0246 57.8266 58 56.6277 58H41.4914C40.2914 58 39.3149 57.0258 39.3149 55.8269V45.8587H33.3678C32.9896 46.9808 31.9285 47.7914 30.681 47.7914C29.4313 47.7914 28.369 46.9808 27.9909 45.8587H22.0438V53.2891C22.0438 54.698 20.8404 55.9477 18.6549 56.809C16.7346 57.5665 14.2014 57.9831 11.5225 57.9831C8.8436 57.9831 6.31034 57.5665 4.39122 56.809C2.20679 55.9477 1.00339 54.6968 1.00339 53.2891V42.3297C1.00113 42.2902 1 42.2507 1 42.2101V36.6198C1 33.5729 6.42098 31.9281 11.5213 31.9281C16.6217 31.9281 22.0427 33.5717 22.0427 36.6198V44.0536H27.9886C28.2708 43.2137 28.9369 42.5476 29.7768 42.2654V29.2345H29.6233C28.9572 29.2345 28.3747 28.8089 28.1749 28.1756L27.7154 26.7611C26.8541 26.5229 26.0266 26.1797 25.2499 25.7383L23.9201 26.4179C23.3274 26.7182 22.6162 26.6053 22.1488 26.1379L20.6598 24.6455C20.1902 24.1838 20.075 23.4703 20.381 22.8765L21.0583 21.5478C20.6146 20.761 20.2726 19.9346 20.0378 19.0823L18.6142 18.6206C17.982 18.4095 17.561 17.8281 17.561 17.17V15.0646C17.561 14.4064 17.9809 13.825 18.6075 13.6162L20.0378 13.1522C20.2714 12.3033 20.6158 11.4724 21.0583 10.6867L20.3798 9.35571C20.0784 8.76755 20.1902 8.05521 20.6609 7.58446L22.1488 6.09657C22.6162 5.62921 23.3274 5.51519 23.9178 5.81435L25.251 6.49507C26.03 6.05367 26.8574 5.71049 27.7165 5.47229L28.1783 4.05213C28.3769 3.4256 28.9595 3 29.6255 3H31.7343C32.3947 3 32.9772 3.42108 33.1838 4.04875L33.6467 5.47342C34.5035 5.71049 35.331 6.05367 36.1099 6.49507L37.4431 5.81548C38.0358 5.5118 38.7493 5.62582 39.2166 6.10222L40.7023 7.58446C41.1719 8.06199 41.2803 8.77206 40.98 9.35796L40.3038 10.6901C40.7429 11.4679 41.0861 12.2954 41.3254 13.1522L42.7467 13.615C43.3789 13.825 43.7988 14.4075 43.7988 15.0657V17.1711C43.7988 17.8292 43.3789 18.4106 42.7535 18.6195L41.3254 19.0823C41.085 19.9414 40.7418 20.7666 40.3038 21.5456L40.9811 22.8811C41.2825 23.4681 41.1708 24.1793 40.7023 24.6478L39.211 26.1391C38.7482 26.6098 38.0347 26.7238 37.4409 26.419L36.1099 25.7394C35.3332 26.1797 34.5046 26.524 33.6467 26.7611L33.1849 28.1824C32.9772 28.8134 32.3947 29.2345 31.7343 29.2345H31.5842V42.2654C32.4229 42.5487 33.0867 43.2137 33.3689 44.0536H39.3149V39.7683C39.3149 39.1259 39.5553 38.5457 40.0114 38.0896L45.4956 32.6054C45.9494 32.1516 46.5285 31.9123 47.1709 31.9123H56.6265C57.8254 31.9123 58.8008 32.8876 58.8008 34.0854ZM29.8321 27.4294H31.5322L31.9781 26.0589C32.1418 25.5532 32.5302 25.1863 33.0427 25.0542C33.8397 24.8465 34.6119 24.5259 35.3332 24.1037C35.795 23.8372 36.3255 23.8237 36.794 24.0619L38.0798 24.7178L39.281 23.5166L38.6274 22.2286C38.3925 21.7725 38.405 21.2272 38.6657 20.7745C39.0891 20.0475 39.4097 19.2742 39.6219 18.4727C39.7506 17.9749 40.1243 17.5764 40.6199 17.4138L41.996 16.9667V15.2666L40.6255 14.8207C40.1277 14.6604 39.7517 14.2619 39.6208 13.7562C39.4108 12.9603 39.0891 12.187 38.668 11.4634C38.405 11.0073 38.3914 10.4609 38.6307 10.0003L39.2833 8.71562L38.0821 7.51673L36.7963 8.17149C36.3267 8.40969 35.7961 8.39614 35.34 8.13311C34.613 7.70638 33.8408 7.3869 33.0416 7.17806C32.5381 7.04824 32.1396 6.67231 31.9781 6.17334L31.5334 4.80398H29.8332L29.3873 6.17447C29.227 6.67118 28.8285 7.04711 28.3216 7.17806C27.519 7.38803 26.7479 7.70864 26.0288 8.12972C25.5807 8.39275 25.0343 8.40856 24.568 8.17149L23.2834 7.51447L22.0822 8.71562L22.7381 10.0026C22.9774 10.4643 22.9605 11.0141 22.6907 11.4679C22.2719 12.187 21.9524 12.9592 21.7447 13.7573C21.6036 14.2755 21.2378 14.6593 20.7388 14.8207L19.3672 15.2655V16.9656L20.7399 17.4115C21.2378 17.573 21.6036 17.9568 21.7413 18.4648C21.9513 19.272 22.2707 20.0441 22.6941 20.77C22.9594 21.2171 22.9763 21.7668 22.7347 22.2331L22.0822 23.5144L23.2834 24.7178L24.5669 24.0619C25.0343 23.8237 25.5807 23.8395 26.0288 24.1025C26.7479 24.5236 27.5201 24.8442 28.3228 25.0542C28.8274 25.184 29.227 25.5611 29.3884 26.06L29.8321 27.4294ZM20.2398 39.3336C18.2225 40.633 14.8064 41.3149 11.5236 41.3149C8.24076 41.3149 4.82471 40.633 2.80624 39.3336V42.1502C2.80737 42.1717 2.80963 42.192 2.80963 42.2135V42.2462C2.87736 43.4225 6.25616 45.1001 11.5236 45.1001C16.8452 45.1001 20.2398 43.3887 20.2398 42.2101V39.3336ZM2.80963 47.753C2.80963 48.9315 6.20423 50.643 11.5236 50.643C16.8452 50.643 20.2398 48.9315 20.2398 47.753V44.9319C19.7905 45.2254 19.2611 45.4929 18.656 45.7322C16.7369 46.4886 14.2036 46.9052 11.5236 46.9052C8.8436 46.9052 6.31034 46.4886 4.39122 45.7322C3.78725 45.494 3.25893 45.2265 2.80963 44.9341V47.753ZM2.80624 36.6198C2.80624 37.7983 6.20197 39.5097 11.5236 39.5097C16.8452 39.5097 20.2398 37.7983 20.2398 36.6198C20.2398 35.4435 16.8441 33.7332 11.5236 33.7332C6.2031 33.7332 2.80624 35.4435 2.80624 36.6198ZM20.2398 53.2891V50.4748C19.7905 50.7683 19.2611 51.0369 18.656 51.2751C16.7369 52.0315 14.2036 52.4481 11.5236 52.4481C8.8436 52.4481 6.31147 52.0315 4.39234 51.2751C3.78838 51.0369 3.25893 50.7683 2.80963 50.4759V53.2902C2.80963 54.4688 6.20423 56.1802 11.5236 56.1802C16.8441 56.1791 20.2398 54.4677 20.2398 53.2891ZM31.7117 44.9567C31.7117 44.3866 31.25 43.9226 30.681 43.9226C30.1109 43.9226 29.647 44.3866 29.647 44.9567C29.647 45.5245 30.1109 45.9874 30.681 45.9874C31.25 45.9862 31.7117 45.5245 31.7117 44.9567ZM42.3968 38.2589H45.6615V34.9942L42.3968 38.2589ZM56.9957 34.0854C56.9957 33.8822 56.8309 33.7174 56.6277 33.7174H47.4655V39.1609C47.4655 39.6599 47.0614 40.0629 46.5635 40.0629H41.12V55.8257C41.12 56.0256 41.2904 56.1938 41.4914 56.1938H56.6277C56.8275 56.1938 56.9957 56.0256 56.9957 55.8257V34.0854ZM30.6822 22.2906C27.2763 22.2906 24.506 19.5214 24.506 16.1178C24.506 12.7119 27.2763 9.9416 30.6822 9.9416C34.0858 9.9416 36.855 12.7119 36.855 16.1178C36.855 19.5214 34.0858 22.2906 30.6822 22.2906ZM30.6822 20.4855C33.0901 20.4855 35.0499 18.5258 35.0499 16.1178C35.0499 13.7076 33.0901 11.7467 30.6822 11.7467C28.272 11.7467 26.3111 13.7076 26.3111 16.1178C26.3111 18.5258 28.272 20.4855 30.6822 20.4855ZM53.732 42.7542H44.3847C43.8858 42.7542 43.4828 43.1584 43.4828 43.6562C43.4828 44.154 43.8869 44.5582 44.3847 44.5582H53.732C54.231 44.5582 54.634 44.154 54.634 43.6562C54.634 43.1584 54.2299 42.7542 53.732 42.7542ZM53.732 47.2247H44.3847C43.8858 47.2247 43.4828 47.6288 43.4828 48.1266C43.4828 48.6245 43.8869 49.0286 44.3847 49.0286H53.732C54.231 49.0286 54.634 48.6245 54.634 48.1266C54.634 47.6288 54.2299 47.2247 53.732 47.2247ZM53.732 51.6951H44.3847C43.8858 51.6951 43.4828 52.0992 43.4828 52.5971C43.4828 53.0949 43.8869 53.4991 44.3847 53.4991H53.732C54.231 53.4991 54.634 53.0949 54.634 52.5971C54.634 52.0992 54.2299 51.6951 53.732 51.6951Z" fill="black"/>
<path d="M9.285 43.094C9.22291 43.5467 8.83569 43.8741 8.39204 43.8741C8.3514 43.8741 8.31076 43.8718 8.26899 43.865C7.29926 43.733 6.38372 43.5422 5.55059 43.2995C5.07194 43.1606 4.79649 42.6594 4.93647 42.1807C5.07533 41.7021 5.57656 41.4266 6.05521 41.5666C6.8048 41.7845 7.63116 41.9561 8.51396 42.0769C9.00616 42.1457 9.3516 42.6007 9.285 43.094ZM5.54947 48.9011C6.38372 49.1438 7.29813 49.3334 8.26786 49.4666C8.30963 49.4723 8.35027 49.4757 8.39091 49.4757C8.83456 49.4757 9.22178 49.1472 9.28387 48.6956C9.3516 48.2023 9.00616 47.7473 8.5117 47.6796C7.6289 47.5588 6.80142 47.3872 6.05296 47.1693C5.5743 47.0294 5.07307 47.3048 4.93422 47.7835C4.79536 48.261 5.07081 48.7622 5.54947 48.9011ZM8.50944 53.2744C7.64809 53.1593 6.82174 52.9877 6.05408 52.7653C5.57543 52.6253 5.0742 52.9008 4.93534 53.3794C4.79649 53.8581 5.07081 54.3582 5.54947 54.4982C6.40404 54.7465 7.31958 54.9373 8.27124 55.0637C8.31188 55.0694 8.3514 55.0716 8.39091 55.0716C8.83682 55.0716 9.22404 54.742 9.28387 54.2882C9.35047 53.7937 9.0039 53.3399 8.50944 53.2744ZM58.8008 34.0854V55.8269C58.8008 57.0246 57.8266 58 56.6277 58H41.4914C40.2914 58 39.3149 57.0258 39.3149 55.8269V45.8587H33.3678C32.9896 46.9808 31.9285 47.7914 30.681 47.7914C29.4313 47.7914 28.369 46.9808 27.9909 45.8587H22.0438V53.2891C22.0438 54.698 20.8404 55.9477 18.6549 56.809C16.7346 57.5665 14.2014 57.9831 11.5225 57.9831C8.8436 57.9831 6.31034 57.5665 4.39122 56.809C2.20679 55.9477 1.00339 54.6968 1.00339 53.2891V42.3297C1.00113 42.2902 1 42.2507 1 42.2101V36.6198C1 33.5729 6.42098 31.9281 11.5213 31.9281C16.6217 31.9281 22.0427 33.5717 22.0427 36.6198V44.0536H27.9886C28.2708 43.2137 28.9369 42.5476 29.7768 42.2654V29.2345H29.6233C28.9572 29.2345 28.3747 28.8089 28.1749 28.1756L27.7154 26.7611C26.8541 26.5229 26.0266 26.1797 25.2499 25.7383L23.9201 26.4179C23.3274 26.7182 22.6162 26.6053 22.1488 26.1379L20.6598 24.6455C20.1902 24.1838 20.075 23.4703 20.381 22.8765L21.0583 21.5478C20.6146 20.761 20.2726 19.9346 20.0378 19.0823L18.6142 18.6206C17.982 18.4095 17.561 17.8281 17.561 17.17V15.0646C17.561 14.4064 17.9809 13.825 18.6075 13.6162L20.0378 13.1522C20.2714 12.3033 20.6158 11.4724 21.0583 10.6867L20.3798 9.35571C20.0784 8.76755 20.1902 8.05521 20.6609 7.58446L22.1488 6.09657C22.6162 5.62921 23.3274 5.51519 23.9178 5.81435L25.251 6.49507C26.03 6.05367 26.8574 5.71049 27.7165 5.47229L28.1783 4.05213C28.3769 3.4256 28.9595 3 29.6255 3H31.7343C32.3947 3 32.9772 3.42108 33.1838 4.04875L33.6467 5.47342C34.5035 5.71049 35.331 6.05367 36.1099 6.49507L37.4431 5.81548C38.0358 5.5118 38.7493 5.62582 39.2166 6.10222L40.7023 7.58446C41.1719 8.06199 41.2803 8.77206 40.98 9.35796L40.3038 10.6901C40.7429 11.4679 41.0861 12.2954 41.3254 13.1522L42.7467 13.615C43.3789 13.825 43.7988 14.4075 43.7988 15.0657V17.1711C43.7988 17.8292 43.3789 18.4106 42.7535 18.6195L41.3254 19.0823C41.085 19.9414 40.7418 20.7666 40.3038 21.5456L40.9811 22.8811C41.2825 23.4681 41.1708 24.1793 40.7023 24.6478L39.211 26.1391C38.7482 26.6098 38.0347 26.7238 37.4409 26.419L36.1099 25.7394C35.3332 26.1797 34.5046 26.524 33.6467 26.7611L33.1849 28.1824C32.9772 28.8134 32.3947 29.2345 31.7343 29.2345H31.5842V42.2654C32.4229 42.5487 33.0867 43.2137 33.3689 44.0536H39.3149V39.7683C39.3149 39.1259 39.5553 38.5457 40.0114 38.0896L45.4956 32.6054C45.9494 32.1516 46.5285 31.9123 47.1709 31.9123H56.6265C57.8254 31.9123 58.8008 32.8876 58.8008 34.0854ZM29.8321 27.4294H31.5322L31.9781 26.0589C32.1418 25.5532 32.5302 25.1863 33.0427 25.0542C33.8397 24.8465 34.6119 24.5259 35.3332 24.1037C35.795 23.8372 36.3255 23.8237 36.794 24.0619L38.0798 24.7178L39.281 23.5166L38.6274 22.2286C38.3925 21.7725 38.405 21.2272 38.6657 20.7745C39.0891 20.0475 39.4097 19.2742 39.6219 18.4727C39.7506 17.9749 40.1243 17.5764 40.6199 17.4138L41.996 16.9667V15.2666L40.6255 14.8207C40.1277 14.6604 39.7517 14.2619 39.6208 13.7562C39.4108 12.9603 39.0891 12.187 38.668 11.4634C38.405 11.0073 38.3914 10.4609 38.6307 10.0003L39.2833 8.71562L38.0821 7.51673L36.7963 8.17149C36.3267 8.40969 35.7961 8.39614 35.34 8.13311C34.613 7.70638 33.8408 7.3869 33.0416 7.17806C32.5381 7.04824 32.1396 6.67231 31.9781 6.17334L31.5334 4.80398H29.8332L29.3873 6.17447C29.227 6.67118 28.8285 7.04711 28.3216 7.17806C27.519 7.38803 26.7479 7.70864 26.0288 8.12972C25.5807 8.39275 25.0343 8.40856 24.568 8.17149L23.2834 7.51447L22.0822 8.71562L22.7381 10.0026C22.9774 10.4643 22.9605 11.0141 22.6907 11.4679C22.2719 12.187 21.9524 12.9592 21.7447 13.7573C21.6036 14.2755 21.2378 14.6593 20.7388 14.8207L19.3672 15.2655V16.9656L20.7399 17.4115C21.2378 17.573 21.6036 17.9568 21.7413 18.4648C21.9513 19.272 22.2707 20.0441 22.6941 20.77C22.9594 21.2171 22.9763 21.7668 22.7347 22.2331L22.0822 23.5144L23.2834 24.7178L24.5669 24.0619C25.0343 23.8237 25.5807 23.8395 26.0288 24.1025C26.7479 24.5236 27.5201 24.8442 28.3228 25.0542C28.8274 25.184 29.227 25.5611 29.3884 26.06L29.8321 27.4294ZM20.2398 39.3336C18.2225 40.633 14.8064 41.3149 11.5236 41.3149C8.24076 41.3149 4.82471 40.633 2.80624 39.3336V42.1502C2.80737 42.1717 2.80963 42.192 2.80963 42.2135V42.2462C2.87736 43.4225 6.25616 45.1001 11.5236 45.1001C16.8452 45.1001 20.2398 43.3887 20.2398 42.2101V39.3336ZM2.80963 47.753C2.80963 48.9315 6.20423 50.643 11.5236 50.643C16.8452 50.643 20.2398 48.9315 20.2398 47.753V44.9319C19.7905 45.2254 19.2611 45.4929 18.656 45.7322C16.7369 46.4886 14.2036 46.9052 11.5236 46.9052C8.8436 46.9052 6.31034 46.4886 4.39122 45.7322C3.78725 45.494 3.25893 45.2265 2.80963 44.9341V47.753ZM2.80624 36.6198C2.80624 37.7983 6.20197 39.5097 11.5236 39.5097C16.8452 39.5097 20.2398 37.7983 20.2398 36.6198C20.2398 35.4435 16.8441 33.7332 11.5236 33.7332C6.2031 33.7332 2.80624 35.4435 2.80624 36.6198ZM20.2398 53.2891V50.4748C19.7905 50.7683 19.2611 51.0369 18.656 51.2751C16.7369 52.0315 14.2036 52.4481 11.5236 52.4481C8.8436 52.4481 6.31147 52.0315 4.39234 51.2751C3.78838 51.0369 3.25893 50.7683 2.80963 50.4759V53.2902C2.80963 54.4688 6.20423 56.1802 11.5236 56.1802C16.8441 56.1791 20.2398 54.4677 20.2398 53.2891ZM31.7117 44.9567C31.7117 44.3866 31.25 43.9226 30.681 43.9226C30.1109 43.9226 29.647 44.3866 29.647 44.9567C29.647 45.5245 30.1109 45.9874 30.681 45.9874C31.25 45.9862 31.7117 45.5245 31.7117 44.9567ZM42.3968 38.2589H45.6615V34.9942L42.3968 38.2589ZM56.9957 34.0854C56.9957 33.8822 56.8309 33.7174 56.6277 33.7174H47.4655V39.1609C47.4655 39.6599 47.0614 40.0629 46.5635 40.0629H41.12V55.8257C41.12 56.0256 41.2904 56.1938 41.4914 56.1938H56.6277C56.8275 56.1938 56.9957 56.0256 56.9957 55.8257V34.0854ZM30.6822 22.2906C27.2763 22.2906 24.506 19.5214 24.506 16.1178C24.506 12.7119 27.2763 9.9416 30.6822 9.9416C34.0858 9.9416 36.855 12.7119 36.855 16.1178C36.855 19.5214 34.0858 22.2906 30.6822 22.2906ZM30.6822 20.4855C33.0901 20.4855 35.0499 18.5258 35.0499 16.1178C35.0499 13.7076 33.0901 11.7467 30.6822 11.7467C28.272 11.7467 26.3111 13.7076 26.3111 16.1178C26.3111 18.5258 28.272 20.4855 30.6822 20.4855ZM53.732 42.7542H44.3847C43.8858 42.7542 43.4828 43.1584 43.4828 43.6562C43.4828 44.154 43.8869 44.5582 44.3847 44.5582H53.732C54.231 44.5582 54.634 44.154 54.634 43.6562C54.634 43.1584 54.2299 42.7542 53.732 42.7542ZM53.732 47.2247H44.3847C43.8858 47.2247 43.4828 47.6288 43.4828 48.1266C43.4828 48.6245 43.8869 49.0286 44.3847 49.0286H53.732C54.231 49.0286 54.634 48.6245 54.634 48.1266C54.634 47.6288 54.2299 47.2247 53.732 47.2247ZM53.732 51.6951H44.3847C43.8858 51.6951 43.4828 52.0992 43.4828 52.5971C43.4828 53.0949 43.8869 53.4991 44.3847 53.4991H53.732C54.231 53.4991 54.634 53.0949 54.634 52.5971C54.634 52.0992 54.2299 51.6951 53.732 51.6951Z" fill="url(#paint0_linear_33_189)"/>
<defs>
<linearGradient id="paint0_linear_33_189" x1="-9.67235" y1="2.99998" x2="49.9721" y2="4.52983" gradientUnits="userSpaceOnUse">
<stop stop-color="#37DADA"/>
<stop offset="0.915" stop-color="#2552C7"/>
</linearGradient>
</defs>
</svg>
