<svg width="60" height="60" viewBox="0 0 60 60" fill="none" xmlns="http://www.w3.org/2000/svg">
<path d="M55.7466 42.8558C55.7436 40.3879 54.9534 37.9852 53.4909 35.9972C52.0284 34.0092 49.9699 32.5396 47.6147 31.8021L53.4696 10.9312C53.6073 10.4371 53.6463 9.92075 53.5843 9.41158C53.5224 8.9024 53.3608 8.41041 53.1087 7.96371C52.8566 7.51702 52.5189 7.12436 52.115 6.80818C51.7112 6.492 51.2489 6.25849 50.7548 6.12099L29.4371 0.142922C28.4394 -0.134063 27.3727 -0.00521682 26.4696 0.501347C25.5666 1.00791 24.9006 1.85107 24.6169 2.84686L22.9437 8.84339L8.20358 11.5183C7.1872 11.7081 6.28679 12.2914 5.6981 13.1414C5.10941 13.9914 4.88001 15.0394 5.05977 16.0576L11.1482 49.5936C11.3127 50.4929 11.787 51.3062 12.4887 51.8923C13.1905 52.4784 14.0753 52.8002 14.9896 52.8018C15.0844 52.8018 15.1814 52.783 15.2773 52.7759V55.714C15.2785 56.8503 15.7305 57.9398 16.534 58.7433C17.3375 59.5468 18.427 59.9988 19.5634 60H40.9507C42.0871 59.9988 43.1765 59.5468 43.9801 58.7433C44.7836 57.9398 45.2355 56.8503 45.2368 55.714V54.378C48.1082 54.1095 50.7763 52.78 52.7198 50.6493C54.6633 48.5186 55.7425 45.7398 55.7466 42.8558ZM26.6797 3.42756C26.8066 2.97775 27.1066 2.59655 27.5139 2.36747C27.9213 2.13839 28.4029 2.0801 28.8531 2.20539L50.1802 8.18549C50.6291 8.31301 51.0094 8.61247 51.2388 9.01882C51.4681 9.42518 51.5278 9.90559 51.405 10.3557L45.5118 31.3629C45.4201 31.3522 45.3289 31.3411 45.2366 31.3326V22.3893C45.2353 21.253 44.7834 20.1635 43.9799 19.36C43.1763 18.5565 42.0869 18.1045 40.9505 18.1033H35.8759L34.5319 10.7074C34.342 9.69128 33.7588 8.79119 32.9091 8.20262C32.0593 7.61406 31.0116 7.38457 29.9937 7.56401L25.2874 8.41801L26.6797 3.42756ZM13.2566 49.2106L7.1681 15.6746C7.12675 15.4471 7.13064 15.2136 7.17956 14.9876C7.22848 14.7615 7.32146 14.5474 7.45319 14.3573C7.58492 14.1672 7.75282 14.0049 7.94729 13.8798C8.14176 13.7546 8.35898 13.669 8.58655 13.6278L30.3767 9.67351C30.836 9.59001 31.3096 9.69237 31.6934 9.95807C32.0773 10.2238 32.3398 10.6311 32.4234 11.0903L33.6978 18.1033H19.5632C18.4268 18.1045 17.3374 18.5564 16.5339 19.36C15.7303 20.1635 15.2784 21.253 15.2772 22.3893V50.6318C14.8211 50.7081 14.3534 50.6018 13.9752 50.3358C13.597 50.0698 13.3388 49.6656 13.2566 49.2106ZM40.9505 57.857H19.5632C18.995 57.8563 18.4503 57.6303 18.0485 57.2286C17.6468 56.8268 17.4208 56.2821 17.4201 55.714V22.3893C17.4208 21.8212 17.6468 21.2765 18.0485 20.8747C18.4503 20.4729 18.995 20.247 19.5632 20.2463H40.9505C41.5187 20.247 42.0634 20.4729 42.4651 20.8747C42.8669 21.2765 43.0929 21.8212 43.0935 22.3893V31.333C40.2222 31.5998 37.554 32.9291 35.6115 35.0605C33.6691 37.1918 32.5924 39.9716 32.5924 42.8553C32.5924 45.739 33.6691 48.5188 35.6115 50.6501C37.554 52.7814 40.2222 54.1107 43.0935 54.3776V55.714C43.0929 56.2821 42.8669 56.8268 42.4651 57.2286C42.0634 57.6303 41.5187 57.8563 40.9505 57.857ZM44.1826 52.2884C41.6794 52.2889 39.2784 51.2957 37.5071 49.5271C35.7357 47.7584 34.7389 45.359 34.7354 42.8558C35.2447 30.3452 53.0965 30.348 53.6036 42.8559C53.6006 45.3547 52.6074 47.7504 50.8416 49.5183C49.0758 51.2863 46.6813 52.2824 44.1826 52.2884Z" fill="black"/>
<path d="M55.7466 42.8558C55.7436 40.3879 54.9534 37.9852 53.4909 35.9972C52.0284 34.0092 49.9699 32.5396 47.6147 31.8021L53.4696 10.9312C53.6073 10.4371 53.6463 9.92075 53.5843 9.41158C53.5224 8.9024 53.3608 8.41041 53.1087 7.96371C52.8566 7.51702 52.5189 7.12436 52.115 6.80818C51.7112 6.492 51.2489 6.25849 50.7548 6.12099L29.4371 0.142922C28.4394 -0.134063 27.3727 -0.00521682 26.4696 0.501347C25.5666 1.00791 24.9006 1.85107 24.6169 2.84686L22.9437 8.84339L8.20358 11.5183C7.1872 11.7081 6.28679 12.2914 5.6981 13.1414C5.10941 13.9914 4.88001 15.0394 5.05977 16.0576L11.1482 49.5936C11.3127 50.4929 11.787 51.3062 12.4887 51.8923C13.1905 52.4784 14.0753 52.8002 14.9896 52.8018C15.0844 52.8018 15.1814 52.783 15.2773 52.7759V55.714C15.2785 56.8503 15.7305 57.9398 16.534 58.7433C17.3375 59.5468 18.427 59.9988 19.5634 60H40.9507C42.0871 59.9988 43.1765 59.5468 43.9801 58.7433C44.7836 57.9398 45.2355 56.8503 45.2368 55.714V54.378C48.1082 54.1095 50.7763 52.78 52.7198 50.6493C54.6633 48.5186 55.7425 45.7398 55.7466 42.8558ZM26.6797 3.42756C26.8066 2.97775 27.1066 2.59655 27.5139 2.36747C27.9213 2.13839 28.4029 2.0801 28.8531 2.20539L50.1802 8.18549C50.6291 8.31301 51.0094 8.61247 51.2388 9.01882C51.4681 9.42518 51.5278 9.90559 51.405 10.3557L45.5118 31.3629C45.4201 31.3522 45.3289 31.3411 45.2366 31.3326V22.3893C45.2353 21.253 44.7834 20.1635 43.9799 19.36C43.1763 18.5565 42.0869 18.1045 40.9505 18.1033H35.8759L34.5319 10.7074C34.342 9.69128 33.7588 8.79119 32.9091 8.20262C32.0593 7.61406 31.0116 7.38457 29.9937 7.56401L25.2874 8.41801L26.6797 3.42756ZM13.2566 49.2106L7.1681 15.6746C7.12675 15.4471 7.13064 15.2136 7.17956 14.9876C7.22848 14.7615 7.32146 14.5474 7.45319 14.3573C7.58492 14.1672 7.75282 14.0049 7.94729 13.8798C8.14176 13.7546 8.35898 13.669 8.58655 13.6278L30.3767 9.67351C30.836 9.59001 31.3096 9.69237 31.6934 9.95807C32.0773 10.2238 32.3398 10.6311 32.4234 11.0903L33.6978 18.1033H19.5632C18.4268 18.1045 17.3374 18.5564 16.5339 19.36C15.7303 20.1635 15.2784 21.253 15.2772 22.3893V50.6318C14.8211 50.7081 14.3534 50.6018 13.9752 50.3358C13.597 50.0698 13.3388 49.6656 13.2566 49.2106ZM40.9505 57.857H19.5632C18.995 57.8563 18.4503 57.6303 18.0485 57.2286C17.6468 56.8268 17.4208 56.2821 17.4201 55.714V22.3893C17.4208 21.8212 17.6468 21.2765 18.0485 20.8747C18.4503 20.4729 18.995 20.247 19.5632 20.2463H40.9505C41.5187 20.247 42.0634 20.4729 42.4651 20.8747C42.8669 21.2765 43.0929 21.8212 43.0935 22.3893V31.333C40.2222 31.5998 37.554 32.9291 35.6115 35.0605C33.6691 37.1918 32.5924 39.9716 32.5924 42.8553C32.5924 45.739 33.6691 48.5188 35.6115 50.6501C37.554 52.7814 40.2222 54.1107 43.0935 54.3776V55.714C43.0929 56.2821 42.8669 56.8268 42.4651 57.2286C42.0634 57.6303 41.5187 57.8563 40.9505 57.857ZM44.1826 52.2884C41.6794 52.2889 39.2784 51.2957 37.5071 49.5271C35.7357 47.7584 34.7389 45.359 34.7354 42.8558C35.2447 30.3452 53.0965 30.348 53.6036 42.8559C53.6006 45.3547 52.6074 47.7504 50.8416 49.5183C49.0758 51.2863 46.6813 52.2824 44.1826 52.2884Z" fill="url(#paint0_linear_33_185)"/>
<path d="M44.1635 39.0676C44.3424 39.0663 44.5197 39.1004 44.6854 39.168C44.851 39.2355 45.0017 39.3351 45.1288 39.461C45.2558 39.587 45.3567 39.7368 45.4256 39.9018C45.4946 40.0669 45.5303 40.244 45.5306 40.4228C45.536 40.7034 45.6513 40.9706 45.8517 41.1671C46.052 41.3636 46.3215 41.4736 46.6021 41.4736C46.8827 41.4736 47.1521 41.3636 47.3525 41.1671C47.5528 40.9706 47.6681 40.7033 47.6736 40.4228C47.6708 39.684 47.4339 38.9652 46.9968 38.3696C46.5598 37.7741 45.9451 37.3324 45.2412 37.1082V35.802C45.2412 35.5178 45.1284 35.2453 44.9274 35.0443C44.7265 34.8434 44.4539 34.7305 44.1697 34.7305C43.8856 34.7305 43.613 34.8434 43.4121 35.0443C43.2111 35.2453 43.0982 35.5178 43.0982 35.802V37.107C42.3102 37.3669 41.6403 37.8985 41.208 38.6068C40.7758 39.3151 40.6094 40.154 40.7385 40.9736C40.8677 41.7933 41.284 42.5403 41.9131 43.0814C42.5422 43.6224 43.3432 43.9222 44.1729 43.9272C44.442 43.9279 44.7048 44.0082 44.9282 44.1582C45.1515 44.3081 45.3254 44.5209 45.4279 44.7696C45.5304 45.0184 45.5569 45.2919 45.504 45.5557C45.4511 45.8195 45.3212 46.0616 45.1307 46.2516C44.9402 46.4416 44.6976 46.5708 44.4337 46.623C44.1698 46.6752 43.8963 46.648 43.6479 46.5448C43.3994 46.4417 43.1871 46.2672 43.0378 46.0434C42.8885 45.8196 42.8088 45.5566 42.8089 45.2876C42.803 45.007 42.6874 44.7399 42.4867 44.5437C42.2861 44.3475 42.0165 44.2379 41.7358 44.2383C41.4552 44.2387 41.1859 44.3492 40.9859 44.546C40.7858 44.7428 40.6709 45.0102 40.6659 45.2908C40.6685 46.0297 40.9053 46.7487 41.3424 47.3445C41.7794 47.9403 42.3942 48.3822 43.0982 48.6065V49.9095C43.0982 50.1937 43.2111 50.4662 43.4121 50.6672C43.613 50.8681 43.8856 50.981 44.1697 50.981C44.4539 50.981 44.7265 50.8681 44.9274 50.6672C45.1284 50.4662 45.2412 50.1937 45.2412 49.9095V48.6074C46.0294 48.3472 46.6994 47.8153 47.1317 47.1068C47.5639 46.3982 47.7303 45.5591 47.6011 44.7392C47.4719 43.9193 47.0555 43.172 46.4263 42.6308C45.7971 42.0895 44.996 41.7895 44.166 41.7842C43.8095 41.7788 43.4695 41.6335 43.2192 41.3796C42.9689 41.1257 42.8284 40.7836 42.8281 40.4271C42.8278 40.0706 42.9676 39.7283 43.2174 39.4739C43.4673 39.2196 43.807 39.0736 44.1635 39.0676Z" fill="black"/>
<path d="M44.1635 39.0676C44.3424 39.0663 44.5197 39.1004 44.6854 39.168C44.851 39.2355 45.0017 39.3351 45.1288 39.461C45.2558 39.587 45.3567 39.7368 45.4256 39.9018C45.4946 40.0669 45.5303 40.244 45.5306 40.4228C45.536 40.7034 45.6513 40.9706 45.8517 41.1671C46.052 41.3636 46.3215 41.4736 46.6021 41.4736C46.8827 41.4736 47.1521 41.3636 47.3525 41.1671C47.5528 40.9706 47.6681 40.7033 47.6736 40.4228C47.6708 39.684 47.4339 38.9652 46.9968 38.3696C46.5598 37.7741 45.9451 37.3324 45.2412 37.1082V35.802C45.2412 35.5178 45.1284 35.2453 44.9274 35.0443C44.7265 34.8434 44.4539 34.7305 44.1697 34.7305C43.8856 34.7305 43.613 34.8434 43.4121 35.0443C43.2111 35.2453 43.0982 35.5178 43.0982 35.802V37.107C42.3102 37.3669 41.6403 37.8985 41.208 38.6068C40.7758 39.3151 40.6094 40.154 40.7385 40.9736C40.8677 41.7933 41.284 42.5403 41.9131 43.0814C42.5422 43.6224 43.3432 43.9222 44.1729 43.9272C44.442 43.9279 44.7048 44.0082 44.9282 44.1582C45.1515 44.3081 45.3254 44.5209 45.4279 44.7696C45.5304 45.0184 45.5569 45.2919 45.504 45.5557C45.4511 45.8195 45.3212 46.0616 45.1307 46.2516C44.9402 46.4416 44.6976 46.5708 44.4337 46.623C44.1698 46.6752 43.8963 46.648 43.6479 46.5448C43.3994 46.4417 43.1871 46.2672 43.0378 46.0434C42.8885 45.8196 42.8088 45.5566 42.8089 45.2876C42.803 45.007 42.6874 44.7399 42.4867 44.5437C42.2861 44.3475 42.0165 44.2379 41.7358 44.2383C41.4552 44.2387 41.1859 44.3492 40.9859 44.546C40.7858 44.7428 40.6709 45.0102 40.6659 45.2908C40.6685 46.0297 40.9053 46.7487 41.3424 47.3445C41.7794 47.9403 42.3942 48.3822 43.0982 48.6065V49.9095C43.0982 50.1937 43.2111 50.4662 43.4121 50.6672C43.613 50.8681 43.8856 50.981 44.1697 50.981C44.4539 50.981 44.7265 50.8681 44.9274 50.6672C45.1284 50.4662 45.2412 50.1937 45.2412 49.9095V48.6074C46.0294 48.3472 46.6994 47.8153 47.1317 47.1068C47.5639 46.3982 47.7303 45.5591 47.6011 44.7392C47.4719 43.9193 47.0555 43.172 46.4263 42.6308C45.7971 42.0895 44.996 41.7895 44.166 41.7842C43.8095 41.7788 43.4695 41.6335 43.2192 41.3796C42.9689 41.1257 42.8284 40.7836 42.8281 40.4271C42.8278 40.0706 42.9676 39.7283 43.2174 39.4739C43.4673 39.2196 43.807 39.0736 44.1635 39.0676Z" fill="url(#paint1_linear_33_185)"/>
<path d="M21.5697 25.6518H38.9436C39.2277 25.6518 39.5003 25.5389 39.7012 25.338C39.9022 25.137 40.0151 24.8645 40.0151 24.5803C40.0151 24.2961 39.9022 24.0236 39.7012 23.8226C39.5003 23.6217 39.2277 23.5088 38.9436 23.5088H21.5697C21.2892 23.5144 21.0221 23.6298 20.8258 23.8301C20.6294 24.0304 20.5194 24.2998 20.5194 24.5803C20.5194 24.8608 20.6294 25.1302 20.8258 25.3305C21.0221 25.5308 21.2892 25.6462 21.5697 25.6518Z" fill="black"/>
<path d="M21.5697 25.6518H38.9436C39.2277 25.6518 39.5003 25.5389 39.7012 25.338C39.9022 25.137 40.0151 24.8645 40.0151 24.5803C40.0151 24.2961 39.9022 24.0236 39.7012 23.8226C39.5003 23.6217 39.2277 23.5088 38.9436 23.5088H21.5697C21.2892 23.5144 21.0221 23.6298 20.8258 23.8301C20.6294 24.0304 20.5194 24.2998 20.5194 24.5803C20.5194 24.8608 20.6294 25.1302 20.8258 25.3305C21.0221 25.5308 21.2892 25.6462 21.5697 25.6518Z" fill="url(#paint2_linear_33_185)"/>
<path d="M21.5696 32.3608H34.4476C34.7282 32.3553 34.9954 32.24 35.1919 32.0397C35.3884 31.8393 35.4984 31.5699 35.4984 31.2892C35.4984 31.0086 35.3883 30.7392 35.1919 30.5389C34.9954 30.3385 34.7281 30.2232 34.4476 30.2178H21.5696C21.2891 30.2232 21.0218 30.3385 20.8253 30.5389C20.6289 30.7392 20.5188 31.0087 20.5188 31.2893C20.5188 31.5699 20.6289 31.8393 20.8253 32.0397C21.0218 32.24 21.2891 32.3553 21.5696 32.3608Z" fill="black"/>
<path d="M21.5696 32.3608H34.4476C34.7282 32.3553 34.9954 32.24 35.1919 32.0397C35.3884 31.8393 35.4984 31.5699 35.4984 31.2892C35.4984 31.0086 35.3883 30.7392 35.1919 30.5389C34.9954 30.3385 34.7281 30.2232 34.4476 30.2178H21.5696C21.2891 30.2232 21.0218 30.3385 20.8253 30.5389C20.6289 30.7392 20.5188 31.0087 20.5188 31.2893C20.5188 31.5699 20.6289 31.8393 20.8253 32.0397C21.0218 32.24 21.2891 32.3553 21.5696 32.3608Z" fill="url(#paint3_linear_33_185)"/>
<path d="M21.5696 39.0698H27.0057C27.2862 39.0643 27.5535 38.949 27.7499 38.7486C27.9464 38.5483 28.0565 38.2789 28.0565 37.9982C28.0564 37.7176 27.9464 37.4482 27.7499 37.2478C27.5534 37.0475 27.2862 36.9322 27.0056 36.9268H21.5696C21.2891 36.9322 21.0218 37.0475 20.8253 37.2479C20.6289 37.4482 20.5188 37.7176 20.5188 37.9983C20.5188 38.2789 20.6289 38.5483 20.8253 38.7487C21.0218 38.949 21.2891 39.0643 21.5696 39.0698Z" fill="black"/>
<path d="M21.5696 39.0698H27.0057C27.2862 39.0643 27.5535 38.949 27.7499 38.7486C27.9464 38.5483 28.0565 38.2789 28.0565 37.9982C28.0564 37.7176 27.9464 37.4482 27.7499 37.2478C27.5534 37.0475 27.2862 36.9322 27.0056 36.9268H21.5696C21.2891 36.9322 21.0218 37.0475 20.8253 37.2479C20.6289 37.4482 20.5188 37.7176 20.5188 37.9983C20.5188 38.2789 20.6289 38.5483 20.8253 38.7487C21.0218 38.949 21.2891 39.0643 21.5696 39.0698Z" fill="url(#paint4_linear_33_185)"/>
<path d="M21.5696 45.7788H27.0057C27.2862 45.7733 27.5535 45.658 27.7499 45.4576C27.9464 45.2573 28.0565 44.9878 28.0565 44.7072C28.0564 44.4266 27.9464 44.1572 27.7499 43.9568C27.5534 43.7565 27.2862 43.6412 27.0056 43.6357H21.5696C21.2891 43.6412 21.0218 43.7565 20.8253 43.9569C20.6289 44.1572 20.5188 44.4266 20.5188 44.7073C20.5188 44.9879 20.6289 45.2573 20.8253 45.4576C21.0218 45.658 21.2891 45.7733 21.5696 45.7788Z" fill="black"/>
<path d="M21.5696 45.7788H27.0057C27.2862 45.7733 27.5535 45.658 27.7499 45.4576C27.9464 45.2573 28.0565 44.9878 28.0565 44.7072C28.0564 44.4266 27.9464 44.1572 27.7499 43.9568C27.5534 43.7565 27.2862 43.6412 27.0056 43.6357H21.5696C21.2891 43.6412 21.0218 43.7565 20.8253 43.9569C20.6289 44.1572 20.5188 44.4266 20.5188 44.7073C20.5188 44.9879 20.6289 45.2573 20.8253 45.4576C21.0218 45.658 21.2891 45.7733 21.5696 45.7788Z" fill="url(#paint5_linear_33_185)"/>
<path d="M30.2569 50.3438H21.5697C21.2891 50.3492 21.0219 50.4645 20.8254 50.6649C20.629 50.8653 20.5189 51.1347 20.5189 51.4153C20.5189 51.6959 20.629 51.9653 20.8255 52.1657C21.022 52.366 21.2892 52.4813 21.5698 52.4868H30.2569C30.5375 52.4813 30.8047 52.366 31.0012 52.1657C31.1977 51.9653 31.3077 51.6959 31.3077 51.4153C31.3077 51.1346 31.1977 50.8652 31.0012 50.6649C30.8047 50.4645 30.5375 50.3492 30.2569 50.3438Z" fill="black"/>
<path d="M30.2569 50.3438H21.5697C21.2891 50.3492 21.0219 50.4645 20.8254 50.6649C20.629 50.8653 20.5189 51.1347 20.5189 51.4153C20.5189 51.6959 20.629 51.9653 20.8255 52.1657C21.022 52.366 21.2892 52.4813 21.5698 52.4868H30.2569C30.5375 52.4813 30.8047 52.366 31.0012 52.1657C31.1977 51.9653 31.3077 51.6959 31.3077 51.4153C31.3077 51.1346 31.1977 50.8652 31.0012 50.6649C30.8047 50.4645 30.5375 50.3492 30.2569 50.3438Z" fill="url(#paint6_linear_33_185)"/>
<defs>
<linearGradient id="paint0_linear_33_185" x1="-4.36985" y1="-2.33105e-05" x2="48.0075" y2="1.08118" gradientUnits="userSpaceOnUse">
<stop stop-color="#37DADA"/>
<stop offset="0.915" stop-color="#2552C7"/>
</linearGradient>
<linearGradient id="paint1_linear_33_185" x1="39.372" y1="34.7305" x2="46.6072" y2="34.8066" gradientUnits="userSpaceOnUse">
<stop stop-color="#37DADA"/>
<stop offset="0.915" stop-color="#2552C7"/>
</linearGradient>
<linearGradient id="paint2_linear_33_185" x1="16.9197" y1="23.5088" x2="36.1047" y2="27.7685" gradientUnits="userSpaceOnUse">
<stop stop-color="#37DADA"/>
<stop offset="0.915" stop-color="#2552C7"/>
</linearGradient>
<linearGradient id="paint3_linear_33_185" x1="17.753" y1="30.2178" x2="32.7831" y2="32.7819" gradientUnits="userSpaceOnUse">
<stop stop-color="#37DADA"/>
<stop offset="0.915" stop-color="#2552C7"/>
</linearGradient>
<linearGradient id="paint4_linear_33_185" x1="19.127" y1="36.9268" x2="26.8533" y2="37.59" gradientUnits="userSpaceOnUse">
<stop stop-color="#37DADA"/>
<stop offset="0.915" stop-color="#2552C7"/>
</linearGradient>
<linearGradient id="paint5_linear_33_185" x1="19.127" y1="43.6357" x2="26.8533" y2="44.299" gradientUnits="userSpaceOnUse">
<stop stop-color="#37DADA"/>
<stop offset="0.915" stop-color="#2552C7"/>
</linearGradient>
<linearGradient id="paint6_linear_33_185" x1="18.5269" y1="50.3437" x2="29.5015" y2="51.6922" gradientUnits="userSpaceOnUse">
<stop stop-color="#37DADA"/>
<stop offset="0.915" stop-color="#2552C7"/>
</linearGradient>
</defs>
</svg>
