<svg width="60" height="60" viewBox="0 0 60 60" fill="none" xmlns="http://www.w3.org/2000/svg">
<path d="M56.9332 30.2832C56.9332 43.7119 46.0471 54.598 32.6184 54.598" stroke="url(#paint0_linear_33_175)" stroke-width="1.7505" stroke-miterlimit="5"/>
<path d="M56.9332 30.2832C56.9332 43.7119 46.0471 54.598 32.6184 54.598" stroke="url(#paint1_linear_33_175)" stroke-width="1.7505" stroke-miterlimit="5"/>
<path d="M8.53918 26.8857C8.63418 26.2068 8.75706 25.5368 8.90691 24.877" stroke="url(#paint2_linear_33_175)" stroke-width="1.7505" stroke-miterlimit="5"/>
<path d="M8.53918 26.8857C8.63418 26.2068 8.75706 25.5368 8.90691 24.877" stroke="url(#paint3_linear_33_175)" stroke-width="1.7505" stroke-miterlimit="5"/>
<path d="M9.86169 21.7008C13.3308 12.5073 22.211 5.96875 32.6184 5.96875C34.274 5.96875 35.8911 6.13423 37.4538 6.44955" stroke="url(#paint4_linear_33_175)" stroke-width="1.7505" stroke-miterlimit="5" stroke-dasharray="3.87 3.32"/>
<path d="M9.86169 21.7008C13.3308 12.5073 22.211 5.96875 32.6184 5.96875C34.274 5.96875 35.8911 6.13423 37.4538 6.44955" stroke="url(#paint5_linear_33_175)" stroke-width="1.7505" stroke-miterlimit="5" stroke-dasharray="3.87 3.32"/>
<path d="M39.0677 6.83301C39.7275 7.01401 40.3761 7.2222 41.0121 7.45619" stroke="url(#paint6_linear_33_175)" stroke-width="1.7505" stroke-miterlimit="5"/>
<path d="M39.0677 6.83301C39.7275 7.01401 40.3761 7.2222 41.0121 7.45619" stroke="url(#paint7_linear_33_175)" stroke-width="1.7505" stroke-miterlimit="5"/>
<path d="M32.8018 49.4868C43.324 49.3882 51.8239 40.8293 51.8239 30.2837C51.8239 29.1194 51.7201 27.9792 51.5216 26.8721" stroke="url(#paint8_linear_33_175)" stroke-width="1.7505" stroke-miterlimit="5"/>
<path d="M32.8018 49.4868C43.324 49.3882 51.8239 40.8293 51.8239 30.2837C51.8239 29.1194 51.7201 27.9792 51.5216 26.8721" stroke="url(#paint9_linear_33_175)" stroke-width="1.7505" stroke-miterlimit="5"/>
<path d="M45.491 16.0313C42.085 12.9531 37.5708 11.0781 32.6184 11.0781C22.0116 11.0781 13.413 19.6767 13.413 30.2836C13.413 30.3514 13.4148 30.4187 13.4155 30.4864" stroke="url(#paint10_linear_33_175)" stroke-width="1.7505" stroke-miterlimit="5"/>
<path d="M45.491 16.0313C42.085 12.9531 37.5708 11.0781 32.6184 11.0781C22.0116 11.0781 13.413 19.6767 13.413 30.2836C13.413 30.3514 13.4148 30.4187 13.4155 30.4864" stroke="url(#paint11_linear_33_175)" stroke-width="1.7505" stroke-miterlimit="5"/>
<path d="M32.8018 49.4829C36.6974 49.2236 39.8255 40.7271 39.8255 30.2836C39.8255 19.6767 36.5987 11.0781 32.6183 11.0781C28.6379 11.0781 25.4111 19.6767 25.4111 30.2836C25.4111 30.3514 25.4118 30.4187 25.4121 30.4864" stroke="url(#paint12_linear_33_175)" stroke-width="1.7505" stroke-miterlimit="5"/>
<path d="M32.8018 49.4829C36.6974 49.2236 39.8255 40.7271 39.8255 30.2836C39.8255 19.6767 36.5987 11.0781 32.6183 11.0781C28.6379 11.0781 25.4111 19.6767 25.4111 30.2836C25.4111 30.3514 25.4118 30.4187 25.4121 30.4864" stroke="url(#paint13_linear_33_175)" stroke-width="1.7505" stroke-miterlimit="5"/>
<path d="M29.4382 37.0625H50.5892" stroke="url(#paint14_linear_33_175)" stroke-width="1.7505" stroke-miterlimit="5"/>
<path d="M29.4382 37.0625H50.5892" stroke="url(#paint15_linear_33_175)" stroke-width="1.7505" stroke-miterlimit="5"/>
<path d="M45.491 23.5029H14.6477" stroke="url(#paint16_linear_33_175)" stroke-width="1.7505" stroke-miterlimit="5"/>
<path d="M45.491 23.5029H14.6477" stroke="url(#paint17_linear_33_175)" stroke-width="1.7505" stroke-miterlimit="5"/>
<path d="M29.4381 30.4873H4.36365V47.3826H29.4381V30.4873Z" stroke="url(#paint18_linear_33_175)" stroke-width="1.7505" stroke-miterlimit="5"/>
<path d="M29.4381 30.4873H4.36365V47.3826H29.4381V30.4873Z" stroke="url(#paint19_linear_33_175)" stroke-width="1.7505" stroke-miterlimit="5"/>
<path d="M26.3802 44.3245L26.3802 33.5449H7.42148L7.42148 44.3245H26.3802Z" stroke="url(#paint20_linear_33_175)" stroke-width="1.7505" stroke-miterlimit="5"/>
<path d="M26.3802 44.3245L26.3802 33.5449H7.42148L7.42148 44.3245H26.3802Z" stroke="url(#paint21_linear_33_175)" stroke-width="1.7505" stroke-miterlimit="5"/>
<path d="M32.8017 47.3828H1V51.2968H32.8017V47.3828Z" stroke="url(#paint22_linear_33_175)" stroke-width="1.7505" stroke-miterlimit="5"/>
<path d="M32.8017 47.3828H1V51.2968H32.8017V47.3828Z" stroke="url(#paint23_linear_33_175)" stroke-width="1.7505" stroke-miterlimit="5"/>
<path d="M22.9122 41.0771H10.8895" stroke="url(#paint24_linear_33_175)" stroke-width="1.7505" stroke-miterlimit="5"/>
<path d="M22.9122 41.0771H10.8895" stroke="url(#paint25_linear_33_175)" stroke-width="1.7505" stroke-miterlimit="5"/>
<path d="M13.3633 41.0773V38.0449" stroke="url(#paint26_linear_33_175)" stroke-width="1.7505" stroke-miterlimit="5"/>
<path d="M13.3633 41.0773V38.0449" stroke="url(#paint27_linear_33_175)" stroke-width="1.7505" stroke-miterlimit="5"/>
<path d="M16.9009 41.0775V36" stroke="url(#paint28_linear_33_175)" stroke-width="1.7505" stroke-miterlimit="5"/>
<path d="M16.9009 41.0775V36" stroke="url(#paint29_linear_33_175)" stroke-width="1.7505" stroke-miterlimit="5"/>
<path d="M20.4386 41.0777V36.4033" stroke="url(#paint30_linear_33_175)" stroke-width="1.7505" stroke-miterlimit="5"/>
<path d="M20.4386 41.0777V36.4033" stroke="url(#paint31_linear_33_175)" stroke-width="1.7505" stroke-miterlimit="5"/>
<path d="M57.7768 26.8717H46.7141C46.0385 26.8717 45.491 26.324 45.491 25.6486V6.22313C45.491 5.54756 46.0386 5 46.7141 5H57.7768C58.4524 5 58.9999 5.54767 58.9999 6.22313V25.6486C58.9999 26.3242 58.4523 26.8717 57.7768 26.8717Z" stroke="url(#paint32_linear_33_175)" stroke-width="1.7505" stroke-miterlimit="5"/>
<path d="M57.7768 26.8717H46.7141C46.0385 26.8717 45.491 26.324 45.491 25.6486V6.22313C45.491 5.54756 46.0386 5 46.7141 5H57.7768C58.4524 5 58.9999 5.54767 58.9999 6.22313V25.6486C58.9999 26.3242 58.4523 26.8717 57.7768 26.8717Z" stroke="url(#paint33_linear_33_175)" stroke-width="1.7505" stroke-miterlimit="5"/>
<path d="M52.2454 15.9347C53.6512 15.9347 54.7909 14.795 54.7909 13.3892C54.7909 11.9834 53.6512 10.8438 52.2454 10.8438C50.8396 10.8438 49.7 11.9834 49.7 13.3892C49.7 14.795 50.8396 15.9347 52.2454 15.9347Z" stroke="url(#paint34_linear_33_175)" stroke-width="1.7505" stroke-miterlimit="5"/>
<path d="M52.2454 15.9347C53.6512 15.9347 54.7909 14.795 54.7909 13.3892C54.7909 11.9834 53.6512 10.8438 52.2454 10.8438C50.8396 10.8438 49.7 11.9834 49.7 13.3892C49.7 14.795 50.8396 15.9347 52.2454 15.9347Z" stroke="url(#paint35_linear_33_175)" stroke-width="1.7505" stroke-miterlimit="5"/>
<path d="M52.2454 15.9346C50.2069 15.9346 48.5544 17.587 48.5544 19.6256H55.9364C55.9364 17.587 54.284 15.9346 52.2454 15.9346Z" stroke="url(#paint36_linear_33_175)" stroke-width="1.7505" stroke-miterlimit="5"/>
<path d="M52.2454 15.9346C50.2069 15.9346 48.5544 17.587 48.5544 19.6256H55.9364C55.9364 17.587 54.284 15.9346 52.2454 15.9346Z" stroke="url(#paint37_linear_33_175)" stroke-width="1.7505" stroke-miterlimit="5"/>
<defs>
<linearGradient id="paint0_linear_33_175" x1="28.1289" y1="30.2832" x2="53.2209" y2="30.8956" gradientUnits="userSpaceOnUse">
<stop stop-color="#37DADA"/>
<stop offset="0.915" stop-color="#2552C7"/>
</linearGradient>
<linearGradient id="paint1_linear_33_175" x1="28.1289" y1="30.2832" x2="53.2209" y2="30.8956" gradientUnits="userSpaceOnUse">
<stop stop-color="#37DADA"/>
<stop offset="0.915" stop-color="#2552C7"/>
</linearGradient>
<linearGradient id="paint2_linear_33_175" x1="8.47129" y1="24.877" x2="8.85098" y2="24.8786" gradientUnits="userSpaceOnUse">
<stop stop-color="#37DADA"/>
<stop offset="0.915" stop-color="#2552C7"/>
</linearGradient>
<linearGradient id="paint3_linear_33_175" x1="8.47129" y1="24.877" x2="8.85098" y2="24.8786" gradientUnits="userSpaceOnUse">
<stop stop-color="#37DADA"/>
<stop offset="0.915" stop-color="#2552C7"/>
</linearGradient>
<linearGradient id="paint4_linear_33_175" x1="4.76708" y1="5.96874" x2="33.2059" y2="7.18611" gradientUnits="userSpaceOnUse">
<stop stop-color="#37DADA"/>
<stop offset="0.915" stop-color="#2552C7"/>
</linearGradient>
<linearGradient id="paint5_linear_33_175" x1="4.76708" y1="5.96874" x2="33.2059" y2="7.18611" gradientUnits="userSpaceOnUse">
<stop stop-color="#37DADA"/>
<stop offset="0.915" stop-color="#2552C7"/>
</linearGradient>
<linearGradient id="paint6_linear_33_175" x1="38.7087" y1="6.83301" x2="40.7049" y2="6.98501" gradientUnits="userSpaceOnUse">
<stop stop-color="#37DADA"/>
<stop offset="0.915" stop-color="#2552C7"/>
</linearGradient>
<linearGradient id="paint7_linear_33_175" x1="38.7087" y1="6.83301" x2="40.7049" y2="6.98501" gradientUnits="userSpaceOnUse">
<stop stop-color="#37DADA"/>
<stop offset="0.915" stop-color="#2552C7"/>
</linearGradient>
<linearGradient id="paint8_linear_33_175" x1="29.2895" y1="26.8721" x2="48.923" y2="27.2751" gradientUnits="userSpaceOnUse">
<stop stop-color="#37DADA"/>
<stop offset="0.915" stop-color="#2552C7"/>
</linearGradient>
<linearGradient id="paint9_linear_33_175" x1="29.2895" y1="26.8721" x2="48.923" y2="27.2751" gradientUnits="userSpaceOnUse">
<stop stop-color="#37DADA"/>
<stop offset="0.915" stop-color="#2552C7"/>
</linearGradient>
<linearGradient id="paint10_linear_33_175" x1="7.49006" y1="11.0781" x2="40.5593" y2="12.4121" gradientUnits="userSpaceOnUse">
<stop stop-color="#37DADA"/>
<stop offset="0.915" stop-color="#2552C7"/>
</linearGradient>
<linearGradient id="paint11_linear_33_175" x1="7.49006" y1="11.0781" x2="40.5593" y2="12.4121" gradientUnits="userSpaceOnUse">
<stop stop-color="#37DADA"/>
<stop offset="0.915" stop-color="#2552C7"/>
</linearGradient>
<linearGradient id="paint12_linear_33_175" x1="22.7497" y1="11.0781" x2="37.6323" y2="11.2144" gradientUnits="userSpaceOnUse">
<stop stop-color="#37DADA"/>
<stop offset="0.915" stop-color="#2552C7"/>
</linearGradient>
<linearGradient id="paint13_linear_33_175" x1="22.7497" y1="11.0781" x2="37.6323" y2="11.2144" gradientUnits="userSpaceOnUse">
<stop stop-color="#37DADA"/>
<stop offset="0.915" stop-color="#2552C7"/>
</linearGradient>
<linearGradient id="paint14_linear_33_175" x1="25.5329" y1="37.0625" x2="42.7775" y2="45.9645" gradientUnits="userSpaceOnUse">
<stop stop-color="#37DADA"/>
<stop offset="0.915" stop-color="#2552C7"/>
</linearGradient>
<linearGradient id="paint15_linear_33_175" x1="25.5329" y1="37.0625" x2="42.7775" y2="45.9645" gradientUnits="userSpaceOnUse">
<stop stop-color="#37DADA"/>
<stop offset="0.915" stop-color="#2552C7"/>
</linearGradient>
<linearGradient id="paint16_linear_33_175" x1="8.9528" y1="23.5029" x2="29.2812" y2="38.8057" gradientUnits="userSpaceOnUse">
<stop stop-color="#37DADA"/>
<stop offset="0.915" stop-color="#2552C7"/>
</linearGradient>
<linearGradient id="paint17_linear_33_175" x1="8.9528" y1="23.5029" x2="29.2812" y2="38.8057" gradientUnits="userSpaceOnUse">
<stop stop-color="#37DADA"/>
<stop offset="0.915" stop-color="#2552C7"/>
</linearGradient>
<linearGradient id="paint18_linear_33_175" x1="-0.2661" y1="30.4873" x2="25.5912" y2="31.4239" gradientUnits="userSpaceOnUse">
<stop stop-color="#37DADA"/>
<stop offset="0.915" stop-color="#2552C7"/>
</linearGradient>
<linearGradient id="paint19_linear_33_175" x1="-0.2661" y1="30.4873" x2="25.5912" y2="31.4239" gradientUnits="userSpaceOnUse">
<stop stop-color="#37DADA"/>
<stop offset="0.915" stop-color="#2552C7"/>
</linearGradient>
<linearGradient id="paint20_linear_33_175" x1="26.3803" y1="31.5546" x2="26.2258" y2="42.6832" gradientUnits="userSpaceOnUse">
<stop stop-color="#37DADA"/>
<stop offset="0.915" stop-color="#2552C7"/>
</linearGradient>
<linearGradient id="paint21_linear_33_175" x1="26.3803" y1="31.5546" x2="26.2258" y2="42.6832" gradientUnits="userSpaceOnUse">
<stop stop-color="#37DADA"/>
<stop offset="0.915" stop-color="#2552C7"/>
</linearGradient>
<linearGradient id="paint22_linear_33_175" x1="-4.87188" y1="47.3828" x2="26.7234" y2="53.6483" gradientUnits="userSpaceOnUse">
<stop stop-color="#37DADA"/>
<stop offset="0.915" stop-color="#2552C7"/>
</linearGradient>
<linearGradient id="paint23_linear_33_175" x1="-4.87188" y1="47.3828" x2="26.7234" y2="53.6483" gradientUnits="userSpaceOnUse">
<stop stop-color="#37DADA"/>
<stop offset="0.915" stop-color="#2552C7"/>
</linearGradient>
<linearGradient id="paint24_linear_33_175" x1="8.66966" y1="41.0771" x2="20.0998" y2="44.4311" gradientUnits="userSpaceOnUse">
<stop stop-color="#37DADA"/>
<stop offset="0.915" stop-color="#2552C7"/>
</linearGradient>
<linearGradient id="paint25_linear_33_175" x1="8.66966" y1="41.0771" x2="20.0998" y2="44.4311" gradientUnits="userSpaceOnUse">
<stop stop-color="#37DADA"/>
<stop offset="0.915" stop-color="#2552C7"/>
</linearGradient>
<linearGradient id="paint26_linear_33_175" x1="13.1786" y1="38.0449" x2="14.2112" y2="38.0532" gradientUnits="userSpaceOnUse">
<stop stop-color="#37DADA"/>
<stop offset="0.915" stop-color="#2552C7"/>
</linearGradient>
<linearGradient id="paint27_linear_33_175" x1="13.1786" y1="38.0449" x2="14.2112" y2="38.0532" gradientUnits="userSpaceOnUse">
<stop stop-color="#37DADA"/>
<stop offset="0.915" stop-color="#2552C7"/>
</linearGradient>
<linearGradient id="paint28_linear_33_175" x1="16.7162" y1="36" x2="17.7488" y2="36.005" gradientUnits="userSpaceOnUse">
<stop stop-color="#37DADA"/>
<stop offset="0.915" stop-color="#2552C7"/>
</linearGradient>
<linearGradient id="paint29_linear_33_175" x1="16.7162" y1="36" x2="17.7488" y2="36.005" gradientUnits="userSpaceOnUse">
<stop stop-color="#37DADA"/>
<stop offset="0.915" stop-color="#2552C7"/>
</linearGradient>
<linearGradient id="paint30_linear_33_175" x1="20.254" y1="36.4033" x2="21.2865" y2="36.4087" gradientUnits="userSpaceOnUse">
<stop stop-color="#37DADA"/>
<stop offset="0.915" stop-color="#2552C7"/>
</linearGradient>
<linearGradient id="paint31_linear_33_175" x1="20.254" y1="36.4033" x2="21.2865" y2="36.4087" gradientUnits="userSpaceOnUse">
<stop stop-color="#37DADA"/>
<stop offset="0.915" stop-color="#2552C7"/>
</linearGradient>
<linearGradient id="paint32_linear_33_175" x1="42.9967" y1="4.99999" x2="56.9426" y2="5.21022" gradientUnits="userSpaceOnUse">
<stop stop-color="#37DADA"/>
<stop offset="0.915" stop-color="#2552C7"/>
</linearGradient>
<linearGradient id="paint33_linear_33_175" x1="42.9967" y1="4.99999" x2="56.9426" y2="5.21022" gradientUnits="userSpaceOnUse">
<stop stop-color="#37DADA"/>
<stop offset="0.915" stop-color="#2552C7"/>
</linearGradient>
<linearGradient id="paint34_linear_33_175" x1="48.76" y1="10.8437" x2="54.0136" y2="10.972" gradientUnits="userSpaceOnUse">
<stop stop-color="#37DADA"/>
<stop offset="0.915" stop-color="#2552C7"/>
</linearGradient>
<linearGradient id="paint35_linear_33_175" x1="48.76" y1="10.8437" x2="54.0136" y2="10.972" gradientUnits="userSpaceOnUse">
<stop stop-color="#37DADA"/>
<stop offset="0.915" stop-color="#2552C7"/>
</linearGradient>
<linearGradient id="paint36_linear_33_175" x1="47.1914" y1="15.9346" x2="54.7958" y2="16.3058" gradientUnits="userSpaceOnUse">
<stop stop-color="#37DADA"/>
<stop offset="0.915" stop-color="#2552C7"/>
</linearGradient>
<linearGradient id="paint37_linear_33_175" x1="47.1914" y1="15.9346" x2="54.7958" y2="16.3058" gradientUnits="userSpaceOnUse">
<stop stop-color="#37DADA"/>
<stop offset="0.915" stop-color="#2552C7"/>
</linearGradient>
</defs>
</svg>
