<svg width="60" height="60" viewBox="0 0 60 60" fill="none" xmlns="http://www.w3.org/2000/svg">
<path d="M59.935 43.262L53.3732 26.117C53.2913 25.9031 53.1291 25.7296 52.9212 25.6335C52.7132 25.5375 52.476 25.5264 52.26 25.6026L45.3467 28.0691C45.2357 28.1089 45.1338 28.1706 45.047 28.2506C44.9603 28.3305 44.8905 28.4271 44.8418 28.5345C44.793 28.6419 44.7664 28.758 44.7633 28.8759C44.7603 28.9938 44.781 29.1112 44.8241 29.2209L45.4252 30.7442L40.7078 32.9846L32.9649 31.5305C32.2108 31.3895 31.4357 31.4056 30.6881 31.5778C29.9405 31.7499 29.2365 32.0745 28.62 32.5311L27.2362 33.5576L26.3199 32.8979C25.6283 32.4027 24.833 32.0714 23.9943 31.9293C23.1556 31.7872 22.2955 31.8379 21.4794 32.0777L18.5078 32.9623L14.6153 30.6352L15.1742 29.2221C15.2174 29.1123 15.2381 28.995 15.235 28.8771C15.232 28.7592 15.2053 28.6431 15.1566 28.5356C15.1078 28.4282 15.038 28.3317 14.9513 28.2518C14.8646 28.1718 14.7626 28.1101 14.6516 28.0703L7.73361 25.6026C7.51733 25.5256 7.27953 25.5364 7.07106 25.6325C6.8626 25.7287 6.70002 25.9025 6.61811 26.117L0.0586632 43.262C-0.0226679 43.4731 -0.0193184 43.7075 0.0680128 43.9162C0.155344 44.125 0.319909 44.2919 0.527363 44.3822L7.08915 47.2096C7.19724 47.2563 7.31362 47.2808 7.43136 47.2817C7.54911 47.2825 7.66582 47.2597 7.77457 47.2145C7.88332 47.1694 7.9819 47.1029 8.06443 47.0189C8.14697 46.9349 8.21179 46.8352 8.25504 46.7257L8.91591 45.0536L14.3552 48.1189C13.9886 48.651 13.8198 49.2947 13.878 49.9382C13.9363 50.5817 14.2178 51.1846 14.6739 51.6423C14.9304 51.899 15.2352 52.1025 15.5706 52.241C15.906 52.3796 16.2655 52.4505 16.6284 52.4497H16.6975C16.759 53.1372 17.0759 53.7767 17.5856 54.2422C18.0953 54.7076 18.7608 54.9652 19.4511 54.9643H19.5226C19.5782 55.6102 19.8605 56.2158 20.3194 56.6738C20.5759 56.9305 20.8806 57.134 21.216 57.2725C21.5515 57.4111 21.9109 57.482 22.2738 57.4812H22.343C22.3895 58.0049 22.5844 58.5045 22.9049 58.9212C23.2254 59.338 23.6582 59.6547 24.1525 59.8341C24.6467 60.0135 25.1818 60.0481 25.6951 59.9339C26.2083 59.8198 26.6783 59.5616 27.0499 59.1896L28.0939 58.1467L29.507 59.2013C30.1057 59.6475 30.8454 59.8624 31.5899 59.8064C32.3345 59.7504 33.0337 59.4273 33.5589 58.8966L33.6585 58.7959C34.1022 58.343 34.3966 57.7653 34.5022 57.1402C35.0309 57.2895 35.5898 57.2953 36.1215 57.1572C36.6532 57.019 37.1385 56.7418 37.5277 56.3539L37.6003 56.2813C38.0934 55.7892 38.4048 55.1443 38.4838 54.4522C39.0166 54.6109 39.5824 54.6223 40.1211 54.4851C40.6598 54.3479 41.1513 54.0672 41.5432 53.673L41.5924 53.6238C42.0732 53.1473 42.3815 52.5244 42.4689 51.8533C42.9433 51.9664 43.4377 51.9656 43.9117 51.851C44.3857 51.7364 44.8258 51.5111 45.196 51.1937C45.5662 50.8763 45.856 50.4757 46.0417 50.0248C46.2273 49.5739 46.3036 49.0854 46.2642 48.5993C46.2489 48.4108 46.2163 48.2241 46.167 48.0416L51.2746 45.5411L51.7433 46.7222C51.7863 46.8319 51.851 46.9318 51.9334 47.016C52.0159 47.1001 52.1145 47.1668 52.2234 47.212C52.3322 47.2572 52.449 47.2799 52.5669 47.2789C52.6847 47.2779 52.8011 47.2531 52.9092 47.2061L59.471 44.3787C59.6767 44.2875 59.8396 44.1208 59.926 43.913C60.0124 43.7052 60.0156 43.4721 59.935 43.262ZM6.95206 45.2376L2.00142 43.1026L7.95039 27.5477L9.40921 28.0668L6.59702 36.0604C6.51933 36.2805 6.53222 36.5223 6.63286 36.7329C6.73351 36.9434 6.91366 37.1053 7.13368 37.183C7.3537 37.2607 7.59558 37.2478 7.80609 37.1471C8.01661 37.0465 8.17852 36.8663 8.25621 36.6463L11.0614 28.6609L13.1998 29.4237L6.95206 45.2376ZM17.3419 50.3991C17.1522 50.5813 16.8987 50.6819 16.6357 50.6795C16.3726 50.6771 16.121 50.5718 15.9346 50.3862C15.7483 50.2006 15.642 49.9494 15.6385 49.6864C15.635 49.4234 15.7346 49.1695 15.9159 48.979L17.7907 47.1042C17.9317 46.9637 18.1111 46.8681 18.3064 46.8295C18.5016 46.7909 18.7039 46.8109 18.8878 46.8871C19.0717 46.9633 19.2288 47.0922 19.3395 47.2577C19.4502 47.4231 19.5094 47.6176 19.5097 47.8166C19.5101 47.9488 19.4843 48.0798 19.4336 48.2019C19.3829 48.324 19.3084 48.4348 19.2144 48.5278L17.3419 50.3991ZM20.3205 52.7614C20.2678 52.8129 20.2209 52.868 20.1741 52.9231L20.1647 52.9125C20.0721 53.0095 19.961 53.087 19.838 53.1404C19.7151 53.1939 19.5827 53.2222 19.4486 53.2238C19.3145 53.2254 19.1814 53.2001 19.0573 53.1496C18.9331 53.099 18.8202 53.0241 18.7254 52.9294C18.6305 52.8346 18.5555 52.7218 18.5049 52.5977C18.4542 52.4735 18.4289 52.3405 18.4303 52.2064C18.4318 52.0723 18.46 51.9399 18.5134 51.8169C18.5667 51.6938 18.6441 51.5827 18.741 51.49L20.4611 49.7711C20.5127 49.7195 20.5619 49.6656 20.6088 49.6105L20.617 49.6187C20.807 49.4369 21.0607 49.3367 21.3237 49.3396C21.5867 49.3424 21.8381 49.4481 22.0242 49.634C22.2103 49.8199 22.3162 50.0713 22.3192 50.3343C22.3223 50.5973 22.2223 50.851 22.0407 51.0412L20.3205 52.7614ZM22.9827 55.4236C22.7912 55.5956 22.541 55.6876 22.2837 55.6808C22.0263 55.674 21.7813 55.5688 21.5991 55.387C21.417 55.2051 21.3114 54.9603 21.3042 54.7029C21.2969 54.4456 21.3886 54.1953 21.5602 54.0034L23.435 52.1286C23.526 52.0256 23.6371 51.9423 23.7614 51.8839C23.8858 51.8254 24.0208 51.7931 24.1581 51.7888C24.2954 51.7845 24.4322 51.8084 24.56 51.8589C24.6877 51.9095 24.8038 51.9857 24.901 52.0828C24.9982 52.1799 25.0745 52.2959 25.1251 52.4236C25.1758 52.5514 25.1998 52.6881 25.1956 52.8254C25.1914 52.9628 25.1592 53.0978 25.1008 53.2222C25.0425 53.3466 24.9593 53.4578 24.8564 53.5488L22.9827 55.4236ZM27.6791 56.0634L25.8043 57.9382C25.6143 58.12 25.3606 58.2202 25.0976 58.2173C24.8346 58.2144 24.5832 58.1088 24.3971 57.9229C24.211 57.737 24.1051 57.4856 24.1021 57.2226C24.099 56.9596 24.199 56.7059 24.3806 56.5157L26.1008 54.7967C26.1523 54.7451 26.2015 54.6912 26.2484 54.6362L26.2566 54.6444C26.4467 54.4626 26.7003 54.3624 26.9633 54.3652C27.2263 54.3681 27.4778 54.4738 27.6638 54.6597C27.8499 54.8456 27.9558 55.0969 27.9589 55.3599C27.9619 55.6229 27.8619 55.8767 27.6803 56.0669L27.6791 56.0634ZM44.1258 49.7828C43.8922 50.019 43.5782 50.1585 43.2464 50.1734C42.9145 50.1884 42.5892 50.0778 42.3353 49.8636L41.6499 49.293C41.602 49.2234 41.5444 49.1611 41.4788 49.1079L39.8981 47.8377C39.7159 47.7008 39.4877 47.64 39.2616 47.6682C39.0354 47.6963 38.8291 47.8112 38.6861 47.9886C38.543 48.166 38.4745 48.392 38.4949 48.619C38.5153 48.8459 38.6231 49.0561 38.7955 49.2051L40.1594 50.3054C40.1973 50.3577 40.2405 50.406 40.2883 50.4495C40.4238 50.5695 40.5333 50.7159 40.6101 50.8798C40.6869 51.0436 40.7293 51.2215 40.7348 51.4024C40.7403 51.5833 40.7087 51.7634 40.642 51.9316C40.5753 52.0998 40.4748 52.2526 40.3469 52.3805L40.2977 52.4298C40.0754 52.653 39.7809 52.7897 39.467 52.8155C39.1531 52.8412 38.8402 52.7543 38.5846 52.5704L37.2265 51.5978L37.2125 51.5873L36.6992 51.2205C36.5097 51.0849 36.274 51.0301 36.044 51.0682C35.814 51.1063 35.6086 51.2342 35.473 51.4238C35.3373 51.6134 35.2826 51.8491 35.3207 52.079C35.3588 52.309 35.4867 52.5144 35.6763 52.65L36.1989 53.0238C36.354 53.1368 36.4828 53.2821 36.5764 53.4497C36.6699 53.6172 36.726 53.8031 36.7409 53.9944C36.7557 54.1858 36.7288 54.3781 36.6622 54.558C36.5955 54.738 36.4906 54.9014 36.3547 55.0369L36.2821 55.1096C36.043 55.3484 35.7219 55.4872 35.3842 55.4979C35.0464 55.5086 34.7172 55.3902 34.4635 55.167L32.9988 53.878C32.9147 53.7908 32.8135 53.7219 32.7014 53.6757C32.5894 53.6294 32.469 53.6069 32.3478 53.6094C32.2266 53.6119 32.1073 53.6395 31.9973 53.6904C31.8873 53.7413 31.789 53.8144 31.7086 53.905C31.6282 53.9957 31.5674 54.1021 31.5301 54.2174C31.4928 54.3327 31.4797 54.4545 31.4917 54.5751C31.5037 54.6957 31.5406 54.8125 31.5999 54.9182C31.6592 55.0239 31.7398 55.1162 31.8365 55.1892L32.3345 55.6298C32.4702 55.7491 32.5801 55.8949 32.6575 56.0581C32.7348 56.2214 32.7781 56.3987 32.7846 56.5793C32.7911 56.7598 32.7606 56.9398 32.6951 57.1082C32.6296 57.2766 32.5304 57.4298 32.4036 57.5585L32.304 57.6593C32.0779 57.8878 31.7768 58.0269 31.4562 58.0511C31.1356 58.0752 30.817 57.9826 30.5593 57.7905L29.2938 56.8461C29.5612 56.4284 29.7114 55.9464 29.7284 55.4507C29.7455 54.955 29.6288 54.4638 29.3907 54.0287C29.1526 53.5936 28.8018 53.2305 28.3751 52.9777C27.9484 52.7248 27.4615 52.5914 26.9655 52.5915H26.8964C26.8346 51.9041 26.5179 51.2648 26.0085 50.7993C25.4992 50.3337 24.834 50.0756 24.1439 50.0757H24.0725C24.0087 49.3783 23.6817 48.7314 23.158 48.2665C22.6344 47.8016 21.9533 47.5536 21.2532 47.5729C21.1981 46.9268 20.9153 46.3214 20.4553 45.8645C19.9366 45.3467 19.2337 45.0559 18.5008 45.0559C17.7679 45.0559 17.065 45.3467 16.5463 45.8645L15.6007 46.8089L9.56623 43.4108L13.9579 32.298L17.9349 34.6754C18.0395 34.7381 18.1561 34.7782 18.2771 34.7934C18.3982 34.8085 18.521 34.7983 18.6379 34.7633L21.9797 33.7685C22.5381 33.604 23.1265 33.5689 23.7005 33.6657C24.2744 33.7626 24.8188 33.9888 25.2923 34.3274L25.7539 34.6602L21.0564 38.1462C20.7078 38.4049 20.4243 38.7413 20.2283 39.1286C20.0323 39.516 19.9292 39.9436 19.9272 40.3777C19.9251 40.8118 20.0242 41.2405 20.2166 41.6296C20.4089 42.0188 20.6892 42.3578 21.0353 42.6199C21.6881 43.11 22.4737 43.3913 23.2892 43.4271C24.1047 43.4628 24.9119 43.2513 25.6051 42.8203L29.2938 40.499C29.7226 41.3544 30.5241 42.5168 31.9162 43.2327C33.5297 44.0623 35.4912 44.0834 37.7526 43.296L43.9629 47.7685C44.1189 47.8812 44.2487 48.0264 44.3431 48.1941C44.4376 48.3618 44.4946 48.548 44.51 48.7398C44.5255 48.9317 44.4992 49.1246 44.4328 49.3053C44.3665 49.4859 44.2617 49.6501 44.1258 49.7863V49.7828ZM45.2553 46.53L38.4018 41.597C38.2828 41.5115 38.1445 41.4572 37.9992 41.4387C37.8539 41.4203 37.7063 41.4385 37.5698 41.4915C35.613 42.2508 33.9878 42.3117 32.7364 41.6778C31.0795 40.8353 30.5722 38.9933 30.5675 38.9828C30.5332 38.8487 30.4678 38.7246 30.3766 38.6206C30.2853 38.5166 30.1708 38.4356 30.0423 38.3842C29.9139 38.3328 29.7751 38.3125 29.6373 38.3249C29.4994 38.3372 29.3665 38.382 29.2493 38.4555L24.6701 41.3274C24.2788 41.5706 23.8231 41.6895 23.363 41.6686C22.9028 41.6477 22.4598 41.4879 22.0922 41.2103C21.9637 41.1132 21.8596 40.9875 21.7881 40.8431C21.7167 40.6987 21.6799 40.5397 21.6807 40.3786C21.6815 40.2176 21.7199 40.0589 21.7927 39.9152C21.8656 39.7716 21.9709 39.6469 22.1004 39.5511L29.6629 33.9384C30.0847 33.6261 30.5664 33.4042 31.0779 33.2864C31.5894 33.1687 32.1197 33.1577 32.6356 33.2541L40.6597 34.761C40.8422 34.7959 41.031 34.7717 41.1987 34.6918L46.0685 32.3788L50.6231 43.9041L45.2553 46.53ZM53.0416 45.2341L46.7903 29.4155L48.9299 28.6526L51.7339 36.6381C51.8116 36.8581 51.9735 37.0383 52.184 37.1389C52.3946 37.2396 52.6364 37.2525 52.8565 37.1748C53.0765 37.0971 53.2566 36.9352 53.3573 36.7247C53.4579 36.5141 53.4708 36.2723 53.3931 36.0522L50.5809 28.0586L52.0398 27.5395L57.9887 43.0944L53.0416 45.2341Z" fill="black"/>
<path d="M59.935 43.262L53.3732 26.117C53.2913 25.9031 53.1291 25.7296 52.9212 25.6335C52.7132 25.5375 52.476 25.5264 52.26 25.6026L45.3467 28.0691C45.2357 28.1089 45.1338 28.1706 45.047 28.2506C44.9603 28.3305 44.8905 28.4271 44.8418 28.5345C44.793 28.6419 44.7664 28.758 44.7633 28.8759C44.7603 28.9938 44.781 29.1112 44.8241 29.2209L45.4252 30.7442L40.7078 32.9846L32.9649 31.5305C32.2108 31.3895 31.4357 31.4056 30.6881 31.5778C29.9405 31.7499 29.2365 32.0745 28.62 32.5311L27.2362 33.5576L26.3199 32.8979C25.6283 32.4027 24.833 32.0714 23.9943 31.9293C23.1556 31.7872 22.2955 31.8379 21.4794 32.0777L18.5078 32.9623L14.6153 30.6352L15.1742 29.2221C15.2174 29.1123 15.2381 28.995 15.235 28.8771C15.232 28.7592 15.2053 28.6431 15.1566 28.5356C15.1078 28.4282 15.038 28.3317 14.9513 28.2518C14.8646 28.1718 14.7626 28.1101 14.6516 28.0703L7.73361 25.6026C7.51733 25.5256 7.27953 25.5364 7.07106 25.6325C6.8626 25.7287 6.70002 25.9025 6.61811 26.117L0.0586632 43.262C-0.0226679 43.4731 -0.0193184 43.7075 0.0680128 43.9162C0.155344 44.125 0.319909 44.2919 0.527363 44.3822L7.08915 47.2096C7.19724 47.2563 7.31362 47.2808 7.43136 47.2817C7.54911 47.2825 7.66582 47.2597 7.77457 47.2145C7.88332 47.1694 7.9819 47.1029 8.06443 47.0189C8.14697 46.9349 8.21179 46.8352 8.25504 46.7257L8.91591 45.0536L14.3552 48.1189C13.9886 48.651 13.8198 49.2947 13.878 49.9382C13.9363 50.5817 14.2178 51.1846 14.6739 51.6423C14.9304 51.899 15.2352 52.1025 15.5706 52.241C15.906 52.3796 16.2655 52.4505 16.6284 52.4497H16.6975C16.759 53.1372 17.0759 53.7767 17.5856 54.2422C18.0953 54.7076 18.7608 54.9652 19.4511 54.9643H19.5226C19.5782 55.6102 19.8605 56.2158 20.3194 56.6738C20.5759 56.9305 20.8806 57.134 21.216 57.2725C21.5515 57.4111 21.9109 57.482 22.2738 57.4812H22.343C22.3895 58.0049 22.5844 58.5045 22.9049 58.9212C23.2254 59.338 23.6582 59.6547 24.1525 59.8341C24.6467 60.0135 25.1818 60.0481 25.6951 59.9339C26.2083 59.8198 26.6783 59.5616 27.0499 59.1896L28.0939 58.1467L29.507 59.2013C30.1057 59.6475 30.8454 59.8624 31.5899 59.8064C32.3345 59.7504 33.0337 59.4273 33.5589 58.8966L33.6585 58.7959C34.1022 58.343 34.3966 57.7653 34.5022 57.1402C35.0309 57.2895 35.5898 57.2953 36.1215 57.1572C36.6532 57.019 37.1385 56.7418 37.5277 56.3539L37.6003 56.2813C38.0934 55.7892 38.4048 55.1443 38.4838 54.4522C39.0166 54.6109 39.5824 54.6223 40.1211 54.4851C40.6598 54.3479 41.1513 54.0672 41.5432 53.673L41.5924 53.6238C42.0732 53.1473 42.3815 52.5244 42.4689 51.8533C42.9433 51.9664 43.4377 51.9656 43.9117 51.851C44.3857 51.7364 44.8258 51.5111 45.196 51.1937C45.5662 50.8763 45.856 50.4757 46.0417 50.0248C46.2273 49.5739 46.3036 49.0854 46.2642 48.5993C46.2489 48.4108 46.2163 48.2241 46.167 48.0416L51.2746 45.5411L51.7433 46.7222C51.7863 46.8319 51.851 46.9318 51.9334 47.016C52.0159 47.1001 52.1145 47.1668 52.2234 47.212C52.3322 47.2572 52.449 47.2799 52.5669 47.2789C52.6847 47.2779 52.8011 47.2531 52.9092 47.2061L59.471 44.3787C59.6767 44.2875 59.8396 44.1208 59.926 43.913C60.0124 43.7052 60.0156 43.4721 59.935 43.262ZM6.95206 45.2376L2.00142 43.1026L7.95039 27.5477L9.40921 28.0668L6.59702 36.0604C6.51933 36.2805 6.53222 36.5223 6.63286 36.7329C6.73351 36.9434 6.91366 37.1053 7.13368 37.183C7.3537 37.2607 7.59558 37.2478 7.80609 37.1471C8.01661 37.0465 8.17852 36.8663 8.25621 36.6463L11.0614 28.6609L13.1998 29.4237L6.95206 45.2376ZM17.3419 50.3991C17.1522 50.5813 16.8987 50.6819 16.6357 50.6795C16.3726 50.6771 16.121 50.5718 15.9346 50.3862C15.7483 50.2006 15.642 49.9494 15.6385 49.6864C15.635 49.4234 15.7346 49.1695 15.9159 48.979L17.7907 47.1042C17.9317 46.9637 18.1111 46.8681 18.3064 46.8295C18.5016 46.7909 18.7039 46.8109 18.8878 46.8871C19.0717 46.9633 19.2288 47.0922 19.3395 47.2577C19.4502 47.4231 19.5094 47.6176 19.5097 47.8166C19.5101 47.9488 19.4843 48.0798 19.4336 48.2019C19.3829 48.324 19.3084 48.4348 19.2144 48.5278L17.3419 50.3991ZM20.3205 52.7614C20.2678 52.8129 20.2209 52.868 20.1741 52.9231L20.1647 52.9125C20.0721 53.0095 19.961 53.087 19.838 53.1404C19.7151 53.1939 19.5827 53.2222 19.4486 53.2238C19.3145 53.2254 19.1814 53.2001 19.0573 53.1496C18.9331 53.099 18.8202 53.0241 18.7254 52.9294C18.6305 52.8346 18.5555 52.7218 18.5049 52.5977C18.4542 52.4735 18.4289 52.3405 18.4303 52.2064C18.4318 52.0723 18.46 51.9399 18.5134 51.8169C18.5667 51.6938 18.6441 51.5827 18.741 51.49L20.4611 49.7711C20.5127 49.7195 20.5619 49.6656 20.6088 49.6105L20.617 49.6187C20.807 49.4369 21.0607 49.3367 21.3237 49.3396C21.5867 49.3424 21.8381 49.4481 22.0242 49.634C22.2103 49.8199 22.3162 50.0713 22.3192 50.3343C22.3223 50.5973 22.2223 50.851 22.0407 51.0412L20.3205 52.7614ZM22.9827 55.4236C22.7912 55.5956 22.541 55.6876 22.2837 55.6808C22.0263 55.674 21.7813 55.5688 21.5991 55.387C21.417 55.2051 21.3114 54.9603 21.3042 54.7029C21.2969 54.4456 21.3886 54.1953 21.5602 54.0034L23.435 52.1286C23.526 52.0256 23.6371 51.9423 23.7614 51.8839C23.8858 51.8254 24.0208 51.7931 24.1581 51.7888C24.2954 51.7845 24.4322 51.8084 24.56 51.8589C24.6877 51.9095 24.8038 51.9857 24.901 52.0828C24.9982 52.1799 25.0745 52.2959 25.1251 52.4236C25.1758 52.5514 25.1998 52.6881 25.1956 52.8254C25.1914 52.9628 25.1592 53.0978 25.1008 53.2222C25.0425 53.3466 24.9593 53.4578 24.8564 53.5488L22.9827 55.4236ZM27.6791 56.0634L25.8043 57.9382C25.6143 58.12 25.3606 58.2202 25.0976 58.2173C24.8346 58.2144 24.5832 58.1088 24.3971 57.9229C24.211 57.737 24.1051 57.4856 24.1021 57.2226C24.099 56.9596 24.199 56.7059 24.3806 56.5157L26.1008 54.7967C26.1523 54.7451 26.2015 54.6912 26.2484 54.6362L26.2566 54.6444C26.4467 54.4626 26.7003 54.3624 26.9633 54.3652C27.2263 54.3681 27.4778 54.4738 27.6638 54.6597C27.8499 54.8456 27.9558 55.0969 27.9589 55.3599C27.9619 55.6229 27.8619 55.8767 27.6803 56.0669L27.6791 56.0634ZM44.1258 49.7828C43.8922 50.019 43.5782 50.1585 43.2464 50.1734C42.9145 50.1884 42.5892 50.0778 42.3353 49.8636L41.6499 49.293C41.602 49.2234 41.5444 49.1611 41.4788 49.1079L39.8981 47.8377C39.7159 47.7008 39.4877 47.64 39.2616 47.6682C39.0354 47.6963 38.8291 47.8112 38.6861 47.9886C38.543 48.166 38.4745 48.392 38.4949 48.619C38.5153 48.8459 38.6231 49.0561 38.7955 49.2051L40.1594 50.3054C40.1973 50.3577 40.2405 50.406 40.2883 50.4495C40.4238 50.5695 40.5333 50.7159 40.6101 50.8798C40.6869 51.0436 40.7293 51.2215 40.7348 51.4024C40.7403 51.5833 40.7087 51.7634 40.642 51.9316C40.5753 52.0998 40.4748 52.2526 40.3469 52.3805L40.2977 52.4298C40.0754 52.653 39.7809 52.7897 39.467 52.8155C39.1531 52.8412 38.8402 52.7543 38.5846 52.5704L37.2265 51.5978L37.2125 51.5873L36.6992 51.2205C36.5097 51.0849 36.274 51.0301 36.044 51.0682C35.814 51.1063 35.6086 51.2342 35.473 51.4238C35.3373 51.6134 35.2826 51.8491 35.3207 52.079C35.3588 52.309 35.4867 52.5144 35.6763 52.65L36.1989 53.0238C36.354 53.1368 36.4828 53.2821 36.5764 53.4497C36.6699 53.6172 36.726 53.8031 36.7409 53.9944C36.7557 54.1858 36.7288 54.3781 36.6622 54.558C36.5955 54.738 36.4906 54.9014 36.3547 55.0369L36.2821 55.1096C36.043 55.3484 35.7219 55.4872 35.3842 55.4979C35.0464 55.5086 34.7172 55.3902 34.4635 55.167L32.9988 53.878C32.9147 53.7908 32.8135 53.7219 32.7014 53.6757C32.5894 53.6294 32.469 53.6069 32.3478 53.6094C32.2266 53.6119 32.1073 53.6395 31.9973 53.6904C31.8873 53.7413 31.789 53.8144 31.7086 53.905C31.6282 53.9957 31.5674 54.1021 31.5301 54.2174C31.4928 54.3327 31.4797 54.4545 31.4917 54.5751C31.5037 54.6957 31.5406 54.8125 31.5999 54.9182C31.6592 55.0239 31.7398 55.1162 31.8365 55.1892L32.3345 55.6298C32.4702 55.7491 32.5801 55.8949 32.6575 56.0581C32.7348 56.2214 32.7781 56.3987 32.7846 56.5793C32.7911 56.7598 32.7606 56.9398 32.6951 57.1082C32.6296 57.2766 32.5304 57.4298 32.4036 57.5585L32.304 57.6593C32.0779 57.8878 31.7768 58.0269 31.4562 58.0511C31.1356 58.0752 30.817 57.9826 30.5593 57.7905L29.2938 56.8461C29.5612 56.4284 29.7114 55.9464 29.7284 55.4507C29.7455 54.955 29.6288 54.4638 29.3907 54.0287C29.1526 53.5936 28.8018 53.2305 28.3751 52.9777C27.9484 52.7248 27.4615 52.5914 26.9655 52.5915H26.8964C26.8346 51.9041 26.5179 51.2648 26.0085 50.7993C25.4992 50.3337 24.834 50.0756 24.1439 50.0757H24.0725C24.0087 49.3783 23.6817 48.7314 23.158 48.2665C22.6344 47.8016 21.9533 47.5536 21.2532 47.5729C21.1981 46.9268 20.9153 46.3214 20.4553 45.8645C19.9366 45.3467 19.2337 45.0559 18.5008 45.0559C17.7679 45.0559 17.065 45.3467 16.5463 45.8645L15.6007 46.8089L9.56623 43.4108L13.9579 32.298L17.9349 34.6754C18.0395 34.7381 18.1561 34.7782 18.2771 34.7934C18.3982 34.8085 18.521 34.7983 18.6379 34.7633L21.9797 33.7685C22.5381 33.604 23.1265 33.5689 23.7005 33.6657C24.2744 33.7626 24.8188 33.9888 25.2923 34.3274L25.7539 34.6602L21.0564 38.1462C20.7078 38.4049 20.4243 38.7413 20.2283 39.1286C20.0323 39.516 19.9292 39.9436 19.9272 40.3777C19.9251 40.8118 20.0242 41.2405 20.2166 41.6296C20.4089 42.0188 20.6892 42.3578 21.0353 42.6199C21.6881 43.11 22.4737 43.3913 23.2892 43.4271C24.1047 43.4628 24.9119 43.2513 25.6051 42.8203L29.2938 40.499C29.7226 41.3544 30.5241 42.5168 31.9162 43.2327C33.5297 44.0623 35.4912 44.0834 37.7526 43.296L43.9629 47.7685C44.1189 47.8812 44.2487 48.0264 44.3431 48.1941C44.4376 48.3618 44.4946 48.548 44.51 48.7398C44.5255 48.9317 44.4992 49.1246 44.4328 49.3053C44.3665 49.4859 44.2617 49.6501 44.1258 49.7863V49.7828ZM45.2553 46.53L38.4018 41.597C38.2828 41.5115 38.1445 41.4572 37.9992 41.4387C37.8539 41.4203 37.7063 41.4385 37.5698 41.4915C35.613 42.2508 33.9878 42.3117 32.7364 41.6778C31.0795 40.8353 30.5722 38.9933 30.5675 38.9828C30.5332 38.8487 30.4678 38.7246 30.3766 38.6206C30.2853 38.5166 30.1708 38.4356 30.0423 38.3842C29.9139 38.3328 29.7751 38.3125 29.6373 38.3249C29.4994 38.3372 29.3665 38.382 29.2493 38.4555L24.6701 41.3274C24.2788 41.5706 23.8231 41.6895 23.363 41.6686C22.9028 41.6477 22.4598 41.4879 22.0922 41.2103C21.9637 41.1132 21.8596 40.9875 21.7881 40.8431C21.7167 40.6987 21.6799 40.5397 21.6807 40.3786C21.6815 40.2176 21.7199 40.0589 21.7927 39.9152C21.8656 39.7716 21.9709 39.6469 22.1004 39.5511L29.6629 33.9384C30.0847 33.6261 30.5664 33.4042 31.0779 33.2864C31.5894 33.1687 32.1197 33.1577 32.6356 33.2541L40.6597 34.761C40.8422 34.7959 41.031 34.7717 41.1987 34.6918L46.0685 32.3788L50.6231 43.9041L45.2553 46.53ZM53.0416 45.2341L46.7903 29.4155L48.9299 28.6526L51.7339 36.6381C51.8116 36.8581 51.9735 37.0383 52.184 37.1389C52.3946 37.2396 52.6364 37.2525 52.8565 37.1748C53.0765 37.0971 53.2566 36.9352 53.3573 36.7247C53.4579 36.5141 53.4708 36.2723 53.3931 36.0522L50.5809 28.0586L52.0398 27.5395L57.9887 43.0944L53.0416 45.2341Z" fill="url(#paint0_linear_33_129)"/>
<path d="M29.9968 27.5361C32.7199 27.5361 35.3818 26.7286 37.6459 25.2158C39.9101 23.7029 41.6747 21.5526 42.7168 19.0368C43.7589 16.5211 44.0315 13.7528 43.5003 11.082C42.9691 8.4113 41.6578 5.95807 39.7323 4.03257C37.8068 2.10708 35.3536 0.795798 32.6828 0.264555C30.0121 -0.266688 27.2438 0.00596548 24.728 1.04804C22.2122 2.09011 20.0619 3.85479 18.5491 6.11893C17.0362 8.38308 16.2288 11.045 16.2288 13.768C16.2328 17.4183 17.6846 20.9179 20.2658 23.4991C22.8469 26.0802 26.3465 27.5321 29.9968 27.5361ZM29.9968 1.75763C32.3722 1.75763 34.6943 2.46203 36.6694 3.78175C38.6445 5.10147 40.1839 6.97724 41.093 9.17186C42.002 11.3665 42.2399 13.7814 41.7764 16.1112C41.313 18.441 40.1691 20.581 38.4895 22.2607C36.8098 23.9404 34.6697 25.0843 32.3399 25.5477C30.0101 26.0111 27.5952 25.7733 25.4006 24.8642C23.206 23.9552 21.3302 22.4158 20.0105 20.4407C18.6908 18.4656 17.9864 16.1435 17.9864 13.768C17.9898 10.5837 19.2563 7.53082 21.5079 5.27917C23.7596 3.02752 26.8125 1.76104 29.9968 1.75763Z" fill="black"/>
<path d="M29.9968 27.5361C32.7199 27.5361 35.3818 26.7286 37.6459 25.2158C39.9101 23.7029 41.6747 21.5526 42.7168 19.0368C43.7589 16.5211 44.0315 13.7528 43.5003 11.082C42.9691 8.4113 41.6578 5.95807 39.7323 4.03257C37.8068 2.10708 35.3536 0.795798 32.6828 0.264555C30.0121 -0.266688 27.2438 0.00596548 24.728 1.04804C22.2122 2.09011 20.0619 3.85479 18.5491 6.11893C17.0362 8.38308 16.2288 11.045 16.2288 13.768C16.2328 17.4183 17.6846 20.9179 20.2658 23.4991C22.8469 26.0802 26.3465 27.5321 29.9968 27.5361ZM29.9968 1.75763C32.3722 1.75763 34.6943 2.46203 36.6694 3.78175C38.6445 5.10147 40.1839 6.97724 41.093 9.17186C42.002 11.3665 42.2399 13.7814 41.7764 16.1112C41.313 18.441 40.1691 20.581 38.4895 22.2607C36.8098 23.9404 34.6697 25.0843 32.3399 25.5477C30.0101 26.0111 27.5952 25.7733 25.4006 24.8642C23.206 23.9552 21.3302 22.4158 20.0105 20.4407C18.6908 18.4656 17.9864 16.1435 17.9864 13.768C17.9898 10.5837 19.2563 7.53082 21.5079 5.27917C23.7596 3.02752 26.8125 1.76104 29.9968 1.75763Z" fill="url(#paint1_linear_33_129)"/>
<path d="M29.9968 24.0212C32.0246 24.0212 34.0069 23.4199 35.693 22.2933C37.379 21.1667 38.6932 19.5655 39.4692 17.692C40.2452 15.8185 40.4482 13.7571 40.0526 11.7682C39.657 9.77936 38.6805 7.95248 37.2466 6.5186C35.8128 5.08472 33.9859 4.10824 31.997 3.71263C30.0082 3.31703 27.9467 3.52007 26.0732 4.29608C24.1998 5.07209 22.5985 6.38621 21.4719 8.07228C20.3453 9.75834 19.744 11.7406 19.744 13.7684C19.7471 16.4867 20.8283 19.0927 22.7504 21.0148C24.6725 22.9369 27.2786 24.0181 29.9968 24.0212ZM29.9968 5.27325C31.677 5.27325 33.3195 5.77149 34.7165 6.70495C36.1135 7.63841 37.2024 8.96517 37.8453 10.5175C38.4883 12.0698 38.6565 13.7778 38.3288 15.4258C38.001 17.0737 37.1919 18.5874 36.0038 19.7754C34.8157 20.9635 33.302 21.7726 31.6541 22.1004C30.0062 22.4282 28.2981 22.2599 26.7459 21.6169C25.1936 20.974 23.8668 19.8851 22.9333 18.4881C21.9999 17.0911 21.5016 15.4486 21.5016 13.7684C21.5041 11.5161 22.3999 9.35679 23.9926 7.76417C25.5852 6.17155 27.7445 5.27573 29.9968 5.27325Z" fill="black"/>
<path d="M29.9968 24.0212C32.0246 24.0212 34.0069 23.4199 35.693 22.2933C37.379 21.1667 38.6932 19.5655 39.4692 17.692C40.2452 15.8185 40.4482 13.7571 40.0526 11.7682C39.657 9.77936 38.6805 7.95248 37.2466 6.5186C35.8128 5.08472 33.9859 4.10824 31.997 3.71263C30.0082 3.31703 27.9467 3.52007 26.0732 4.29608C24.1998 5.07209 22.5985 6.38621 21.4719 8.07228C20.3453 9.75834 19.744 11.7406 19.744 13.7684C19.7471 16.4867 20.8283 19.0927 22.7504 21.0148C24.6725 22.9369 27.2786 24.0181 29.9968 24.0212ZM29.9968 5.27325C31.677 5.27325 33.3195 5.77149 34.7165 6.70495C36.1135 7.63841 37.2024 8.96517 37.8453 10.5175C38.4883 12.0698 38.6565 13.7778 38.3288 15.4258C38.001 17.0737 37.1919 18.5874 36.0038 19.7754C34.8157 20.9635 33.302 21.7726 31.6541 22.1004C30.0062 22.4282 28.2981 22.2599 26.7459 21.6169C25.1936 20.974 23.8668 19.8851 22.9333 18.4881C21.9999 17.0911 21.5016 15.4486 21.5016 13.7684C21.5041 11.5161 22.3999 9.35679 23.9926 7.76417C25.5852 6.17155 27.7445 5.27573 29.9968 5.27325Z" fill="url(#paint2_linear_33_129)"/>
<path d="M47.6831 13.7685C47.6831 13.8839 47.7058 13.9981 47.75 14.1048C47.7942 14.2114 47.8589 14.3083 47.9405 14.3899C48.0221 14.4715 48.119 14.5362 48.2256 14.5804C48.3322 14.6245 48.4465 14.6473 48.5619 14.6473H53.4317C53.6648 14.6473 53.8883 14.5547 54.0531 14.3899C54.2179 14.2251 54.3105 14.0015 54.3105 13.7685C54.3105 13.5354 54.2179 13.3119 54.0531 13.147C53.8883 12.9822 53.6648 12.8896 53.4317 12.8896H48.5619C48.3288 12.8896 48.1053 12.9822 47.9405 13.147C47.7757 13.3119 47.6831 13.5354 47.6831 13.7685Z" fill="black"/>
<path d="M47.6831 13.7685C47.6831 13.8839 47.7058 13.9981 47.75 14.1048C47.7942 14.2114 47.8589 14.3083 47.9405 14.3899C48.0221 14.4715 48.119 14.5362 48.2256 14.5804C48.3322 14.6245 48.4465 14.6473 48.5619 14.6473H53.4317C53.6648 14.6473 53.8883 14.5547 54.0531 14.3899C54.2179 14.2251 54.3105 14.0015 54.3105 13.7685C54.3105 13.5354 54.2179 13.3119 54.0531 13.147C53.8883 12.9822 53.6648 12.8896 53.4317 12.8896H48.5619C48.3288 12.8896 48.1053 12.9822 47.9405 13.147C47.7757 13.3119 47.6831 13.5354 47.6831 13.7685Z" fill="url(#paint3_linear_33_129)"/>
<path d="M46.7363 9.7617C46.8925 9.76291 47.0462 9.72246 47.1815 9.64452L50.8327 7.49905C51.0347 7.38112 51.1816 7.18777 51.241 6.96154C51.3005 6.73531 51.2676 6.49474 51.1497 6.29274C51.0317 6.09074 50.8384 5.94386 50.6122 5.88442C50.3859 5.82498 50.1454 5.85784 49.9434 5.97578L46.291 8.12477C46.1227 8.22161 45.9913 8.37146 45.9172 8.55089C45.843 8.73033 45.8304 8.92927 45.8813 9.11664C45.9321 9.304 46.0436 9.46926 46.1983 9.58659C46.353 9.70392 46.5421 9.76673 46.7363 9.76521V9.7617Z" fill="black"/>
<path d="M46.7363 9.7617C46.8925 9.76291 47.0462 9.72246 47.1815 9.64452L50.8327 7.49905C51.0347 7.38112 51.1816 7.18777 51.241 6.96154C51.3005 6.73531 51.2676 6.49474 51.1497 6.29274C51.0317 6.09074 50.8384 5.94386 50.6122 5.88442C50.3859 5.82498 50.1454 5.85784 49.9434 5.97578L46.291 8.12477C46.1227 8.22161 45.9913 8.37146 45.9172 8.55089C45.843 8.73033 45.8304 8.92927 45.8813 9.11664C45.9321 9.304 46.0436 9.46926 46.1983 9.58659C46.353 9.70392 46.5421 9.76673 46.7363 9.76521V9.7617Z" fill="url(#paint4_linear_33_129)"/>
<path d="M46.2911 19.4115L49.9434 21.5605C50.0435 21.6189 50.154 21.657 50.2688 21.6727C50.3835 21.6883 50.5002 21.6813 50.6122 21.6518C50.7243 21.6224 50.8294 21.5712 50.9216 21.5011C51.0138 21.4311 51.0914 21.3435 51.1498 21.2435C51.2082 21.1435 51.2463 21.0329 51.262 20.9182C51.2776 20.8034 51.2705 20.6867 51.2411 20.5747C51.2117 20.4627 51.1605 20.3576 51.0904 20.2653C51.0204 20.1731 50.9328 20.0956 50.8328 20.0372L47.1816 17.8929C47.0821 17.8323 46.9715 17.792 46.8562 17.7746C46.741 17.7571 46.6234 17.7627 46.5103 17.7911C46.3973 17.8196 46.291 17.8702 46.1977 17.94C46.1044 18.0099 46.026 18.0977 45.9669 18.1981C45.9078 18.2986 45.8693 18.4099 45.8537 18.5254C45.838 18.6409 45.8455 18.7584 45.8757 18.8709C45.9058 18.9835 45.9581 19.089 46.0294 19.1812C46.1007 19.2734 46.1897 19.3505 46.2911 19.408V19.4115Z" fill="black"/>
<path d="M46.2911 19.4115L49.9434 21.5605C50.0435 21.6189 50.154 21.657 50.2688 21.6727C50.3835 21.6883 50.5002 21.6813 50.6122 21.6518C50.7243 21.6224 50.8294 21.5712 50.9216 21.5011C51.0138 21.4311 51.0914 21.3435 51.1498 21.2435C51.2082 21.1435 51.2463 21.0329 51.262 20.9182C51.2776 20.8034 51.2705 20.6867 51.2411 20.5747C51.2117 20.4627 51.1605 20.3576 51.0904 20.2653C51.0204 20.1731 50.9328 20.0956 50.8328 20.0372L47.1816 17.8929C47.0821 17.8323 46.9715 17.792 46.8562 17.7746C46.741 17.7571 46.6234 17.7627 46.5103 17.7911C46.3973 17.8196 46.291 17.8702 46.1977 17.94C46.1044 18.0099 46.026 18.0977 45.9669 18.1981C45.9078 18.2986 45.8693 18.4099 45.8537 18.5254C45.838 18.6409 45.8455 18.7584 45.8757 18.8709C45.9058 18.9835 45.9581 19.089 46.0294 19.1812C46.1007 19.2734 46.1897 19.3505 46.2911 19.408V19.4115Z" fill="url(#paint5_linear_33_129)"/>
<path d="M6.56179 14.6473H11.4316C11.6647 14.6473 11.8882 14.5547 12.053 14.3899C12.2178 14.2251 12.3104 14.0015 12.3104 13.7685C12.3104 13.5354 12.2178 13.3119 12.053 13.147C11.8882 12.9822 11.6647 12.8896 11.4316 12.8896H6.56179C6.32872 12.8896 6.10519 12.9822 5.94038 13.147C5.77557 13.3119 5.68298 13.5354 5.68298 13.7685C5.68298 14.0015 5.77557 14.2251 5.94038 14.3899C6.10519 14.5547 6.32872 14.6473 6.56179 14.6473Z" fill="black"/>
<path d="M6.56179 14.6473H11.4316C11.6647 14.6473 11.8882 14.5547 12.053 14.3899C12.2178 14.2251 12.3104 14.0015 12.3104 13.7685C12.3104 13.5354 12.2178 13.3119 12.053 13.147C11.8882 12.9822 11.6647 12.8896 11.4316 12.8896H6.56179C6.32872 12.8896 6.10519 12.9822 5.94038 13.147C5.77557 13.3119 5.68298 13.5354 5.68298 13.7685C5.68298 14.0015 5.77557 14.2251 5.94038 14.3899C6.10519 14.5547 6.32872 14.6473 6.56179 14.6473Z" fill="url(#paint6_linear_33_129)"/>
<path d="M9.16066 7.49905L12.8118 9.64335C12.9114 9.70398 13.022 9.7442 13.1372 9.76167C13.2525 9.77914 13.3701 9.7735 13.4831 9.7451C13.5962 9.71669 13.7024 9.66608 13.7957 9.5962C13.889 9.52633 13.9675 9.43859 14.0266 9.3381C14.0856 9.23761 14.1241 9.12637 14.1398 9.01087C14.1555 8.89536 14.148 8.77789 14.1178 8.6653C14.0876 8.55271 14.0354 8.44724 13.964 8.35505C13.8927 8.26285 13.8038 8.18577 13.7024 8.12828L10.05 5.97578C9.95 5.91738 9.83945 5.87926 9.7247 5.86358C9.60995 5.84791 9.49323 5.85499 9.38121 5.88442C9.15499 5.94386 8.96164 6.09074 8.8437 6.29274C8.72576 6.49474 8.6929 6.73531 8.75234 6.96154C8.81178 7.18777 8.95866 7.38111 9.16066 7.49905Z" fill="black"/>
<path d="M9.16066 7.49905L12.8118 9.64335C12.9114 9.70398 13.022 9.7442 13.1372 9.76167C13.2525 9.77914 13.3701 9.7735 13.4831 9.7451C13.5962 9.71669 13.7024 9.66608 13.7957 9.5962C13.889 9.52633 13.9675 9.43859 14.0266 9.3381C14.0856 9.23761 14.1241 9.12637 14.1398 9.01087C14.1555 8.89536 14.148 8.77789 14.1178 8.6653C14.0876 8.55271 14.0354 8.44724 13.964 8.35505C13.8927 8.26285 13.8038 8.18577 13.7024 8.12828L10.05 5.97578C9.95 5.91738 9.83945 5.87926 9.7247 5.86358C9.60995 5.84791 9.49323 5.85499 9.38121 5.88442C9.15499 5.94386 8.96164 6.09074 8.8437 6.29274C8.72576 6.49474 8.6929 6.73531 8.75234 6.96154C8.81178 7.18777 8.95866 7.38111 9.16066 7.49905Z" fill="url(#paint7_linear_33_129)"/>
<path d="M12.8118 17.8962L9.16066 20.037C8.95866 20.1549 8.81178 20.3483 8.75234 20.5745C8.6929 20.8007 8.72576 21.0413 8.8437 21.2433C8.96164 21.4453 9.15499 21.5922 9.38121 21.6516C9.60744 21.7111 9.84802 21.6782 10.05 21.5603L13.7024 19.4148C13.8038 19.3573 13.8927 19.2802 13.964 19.188C14.0354 19.0958 14.0876 18.9904 14.1178 18.8778C14.148 18.7652 14.1555 18.6477 14.1398 18.5322C14.1241 18.4167 14.0856 18.3055 14.0266 18.205C13.9675 18.1045 13.889 18.0168 13.7957 17.9469C13.7024 17.877 13.5962 17.8264 13.4831 17.798C13.3701 17.7696 13.2525 17.7639 13.1372 17.7814C13.022 17.7989 12.9114 17.8391 12.8118 17.8997V17.8962Z" fill="black"/>
<path d="M12.8118 17.8962L9.16066 20.037C8.95866 20.1549 8.81178 20.3483 8.75234 20.5745C8.6929 20.8007 8.72576 21.0413 8.8437 21.2433C8.96164 21.4453 9.15499 21.5922 9.38121 21.6516C9.60744 21.7111 9.84802 21.6782 10.05 21.5603L13.7024 19.4148C13.8038 19.3573 13.8927 19.2802 13.964 19.188C14.0354 19.0958 14.0876 18.9904 14.1178 18.8778C14.148 18.7652 14.1555 18.6477 14.1398 18.5322C14.1241 18.4167 14.0856 18.3055 14.0266 18.205C13.9675 18.1045 13.889 18.0168 13.7957 17.9469C13.7024 17.877 13.5962 17.8264 13.4831 17.798C13.3701 17.7696 13.2525 17.7639 13.1372 17.7814C13.022 17.7989 12.9114 17.8391 12.8118 17.8997V17.8962Z" fill="url(#paint8_linear_33_129)"/>
<path d="M28.0246 17.5901C28.107 17.6787 28.2067 17.7493 28.3176 17.7976C28.4285 17.8459 28.5482 17.8709 28.6691 17.8709C28.7901 17.8709 28.9097 17.8459 29.0206 17.7976C29.1315 17.7493 29.2312 17.6787 29.3136 17.5901L35.3293 11.1455C35.4081 11.0608 35.4695 10.9615 35.5099 10.8532C35.5503 10.7448 35.5689 10.6296 35.5648 10.514C35.5607 10.3985 35.5338 10.2849 35.4858 10.1797C35.4377 10.0745 35.3694 9.97985 35.2848 9.90106C35.2002 9.82228 35.1008 9.76093 34.9925 9.72053C34.8842 9.68013 34.7689 9.66147 34.6534 9.6656C34.5378 9.66974 34.4242 9.69659 34.319 9.74463C34.2139 9.79267 34.1192 9.86096 34.0404 9.94559L28.6679 15.7012L25.9518 12.7918C25.7927 12.6208 25.5722 12.5201 25.3389 12.5118C25.1055 12.5034 24.8784 12.5881 24.7074 12.7472C24.5365 12.9064 24.4358 13.1268 24.4274 13.3602C24.4191 13.5936 24.5038 13.8207 24.6629 13.9916L28.0246 17.5901Z" fill="black"/>
<path d="M28.0246 17.5901C28.107 17.6787 28.2067 17.7493 28.3176 17.7976C28.4285 17.8459 28.5482 17.8709 28.6691 17.8709C28.7901 17.8709 28.9097 17.8459 29.0206 17.7976C29.1315 17.7493 29.2312 17.6787 29.3136 17.5901L35.3293 11.1455C35.4081 11.0608 35.4695 10.9615 35.5099 10.8532C35.5503 10.7448 35.5689 10.6296 35.5648 10.514C35.5607 10.3985 35.5338 10.2849 35.4858 10.1797C35.4377 10.0745 35.3694 9.97985 35.2848 9.90106C35.2002 9.82228 35.1008 9.76093 34.9925 9.72053C34.8842 9.68013 34.7689 9.66147 34.6534 9.6656C34.5378 9.66974 34.4242 9.69659 34.319 9.74463C34.2139 9.79267 34.1192 9.86096 34.0404 9.94559L28.6679 15.7012L25.9518 12.7918C25.7927 12.6208 25.5722 12.5201 25.3389 12.5118C25.1055 12.5034 24.8784 12.5881 24.7074 12.7472C24.5365 12.9064 24.4358 13.1268 24.4274 13.3602C24.4191 13.5936 24.5038 13.8207 24.6629 13.9916L28.0246 17.5901Z" fill="url(#paint9_linear_33_129)"/>
<defs>
<linearGradient id="paint0_linear_33_129" x1="-11.0771" y1="25.5517" x2="50.7587" y2="28.1801" gradientUnits="userSpaceOnUse">
<stop stop-color="#37DADA"/>
<stop offset="0.915" stop-color="#2552C7"/>
</linearGradient>
<linearGradient id="paint1_linear_33_129" x1="11.1445" y1="-1.0698e-05" x2="39.5607" y2="0.693531" gradientUnits="userSpaceOnUse">
<stop stop-color="#37DADA"/>
<stop offset="0.915" stop-color="#2552C7"/>
</linearGradient>
<linearGradient id="paint2_linear_33_129" x1="15.9579" y1="3.51562" x2="37.1189" y2="4.03208" gradientUnits="userSpaceOnUse">
<stop stop-color="#37DADA"/>
<stop offset="0.915" stop-color="#2552C7"/>
</linearGradient>
<linearGradient id="paint3_linear_33_129" x1="46.4594" y1="12.8896" x2="53.2453" y2="13.5141" gradientUnits="userSpaceOnUse">
<stop stop-color="#37DADA"/>
<stop offset="0.915" stop-color="#2552C7"/>
</linearGradient>
<linearGradient id="paint4_linear_33_129" x1="44.8499" y1="5.85547" x2="50.4395" y2="6.04456" gradientUnits="userSpaceOnUse">
<stop stop-color="#37DADA"/>
<stop offset="0.915" stop-color="#2552C7"/>
</linearGradient>
<linearGradient id="paint5_linear_33_129" x1="44.8441" y1="17.7646" x2="50.4388" y2="17.9538" gradientUnits="userSpaceOnUse">
<stop stop-color="#37DADA"/>
<stop offset="0.915" stop-color="#2552C7"/>
</linearGradient>
<linearGradient id="paint6_linear_33_129" x1="4.4593" y1="12.8896" x2="11.2451" y2="13.5141" gradientUnits="userSpaceOnUse">
<stop stop-color="#37DADA"/>
<stop offset="0.915" stop-color="#2552C7"/>
</linearGradient>
<linearGradient id="paint7_linear_33_129" x1="7.72183" y1="5.85547" x2="13.3165" y2="6.0446" gradientUnits="userSpaceOnUse">
<stop stop-color="#37DADA"/>
<stop offset="0.915" stop-color="#2552C7"/>
</linearGradient>
<linearGradient id="paint8_linear_33_129" x1="7.72183" y1="17.7715" x2="13.3165" y2="17.961" gradientUnits="userSpaceOnUse">
<stop stop-color="#37DADA"/>
<stop offset="0.915" stop-color="#2552C7"/>
</linearGradient>
<linearGradient id="paint9_linear_33_129" x1="22.3703" y1="9.66504" x2="33.859" y2="10.0456" gradientUnits="userSpaceOnUse">
<stop stop-color="#37DADA"/>
<stop offset="0.915" stop-color="#2552C7"/>
</linearGradient>
</defs>
</svg>
