<svg width="64" height="91" viewBox="0 0 64 91" fill="none" xmlns="http://www.w3.org/2000/svg">
<path d="M29.0763 91C27.3728 90.6915 25.6456 90.4779 23.9657 90.0982C12.4668 87.5591 2.78973 77.4262 0.565664 65.8221C-0.901273 58.0622 0.542004 50.8245 4.23301 43.9901C6.26779 40.2407 8.4682 36.5388 10.8106 32.9555C16.8203 23.8667 21.8836 14.2797 25.8822 4.12307C27.2781 0.58724 31.0401 -0.955235 34.3762 0.61097C35.9614 1.34661 36.9788 2.58059 37.6177 4.19426C41.356 13.8051 46.0644 22.9175 51.7192 31.5317C54.7477 36.1591 57.7526 40.7865 60.1423 45.7936C62.6029 50.9668 63.8806 56.3774 63.3837 62.1201C62.461 72.2767 57.7289 80.2027 49.2585 85.8268C44.9287 88.6982 40.1493 90.3593 34.9677 90.8339C34.7784 90.8576 34.5891 90.9525 34.3762 91C32.6253 91 30.8508 91 29.0763 91ZM51.3879 69.6901C53.0678 69.88 54.4874 69.4765 55.8597 68.6934C56.7825 68.1714 57.7289 67.6493 58.699 67.2933C59.2905 67.0798 59.5507 66.8187 59.6927 66.2492C60.8284 61.2658 60.6628 56.3536 59.1012 51.4652C57.7526 47.2649 55.6231 43.468 53.3281 39.7424C50.134 34.5691 46.8215 29.4671 43.7457 24.199C40.2203 18.1715 37.3337 11.8117 34.7784 5.30959C34.3999 4.31291 33.7847 3.57727 32.7436 3.24504C30.9928 2.67551 29.4549 3.48235 28.6977 5.26213C26.9705 9.20137 25.2907 13.1881 23.4688 17.0799C19.9908 24.4837 15.519 31.3181 11.1182 38.1762C8.32624 42.5188 5.72361 46.9801 4.20935 51.9873C2.78973 56.7096 2.69509 61.4794 3.80712 66.2492C3.8781 66.5577 4.13837 66.9611 4.39863 67.1035C5.53432 67.7205 6.741 68.1951 7.87669 68.8121C9.17801 69.5003 10.5266 69.88 12.0882 69.6427C12.0882 69.3104 12.0882 69.0019 12.0882 68.7172C12.0882 67.0798 12.0882 65.4661 12.0882 63.8287C12.0882 62.9032 12.5851 62.2862 13.3895 62.1913C14.3833 62.0727 15.0931 62.6659 15.1167 63.7338C15.1404 65.3712 15.1167 67.0323 15.1167 68.907C17.0096 67.5306 18.9734 66.8187 21.1501 66.6764C21.1501 65.9882 21.1501 65.3949 21.1501 64.8017C21.1501 62.927 21.1265 61.076 21.1501 59.2013C21.1738 58.2521 21.8599 57.5876 22.688 57.5876C23.5161 57.5876 24.1076 58.2046 24.1786 59.1538C24.2023 59.4149 24.2023 59.6759 24.2023 59.9607C24.2023 62.0727 24.1786 64.1609 24.2259 66.2729C24.2259 66.5577 24.4152 66.9848 24.6282 67.1035C25.7875 67.7205 26.9942 68.29 28.1772 68.8596C28.7924 69.1443 29.4312 69.3579 30.1883 69.6427C30.1883 69.0731 30.1883 68.7646 30.1883 68.4324C30.1883 64.5881 30.1883 60.7438 30.1883 56.8994C30.1883 56.6384 30.1647 56.3536 30.212 56.0926C30.3066 55.1908 30.9455 54.5739 31.7736 54.5739C32.5544 54.5976 33.1695 55.1671 33.2878 56.0451C33.3115 56.3062 33.3115 56.5672 33.3115 56.852C33.3115 60.7675 33.3115 64.6593 33.3115 68.5748C33.3115 68.8833 33.3352 69.1918 33.3588 69.7138C34.2579 69.3104 34.9914 68.9782 35.7248 68.6223C36.5766 68.2188 37.3574 67.6493 38.2565 67.3883C39.1319 67.1035 39.3212 66.6764 39.3212 65.8221C39.2502 63.1643 39.2739 60.4827 39.3212 57.8249C39.3212 56.7571 39.9364 56.1401 40.8591 56.1638C41.7582 56.1875 42.3497 56.8282 42.3734 57.8961C42.397 59.0114 42.3734 60.1505 42.3734 61.2658C42.3734 63.0693 42.3734 64.8728 42.3734 66.795C44.5975 66.795 46.4903 67.7205 48.3831 68.8833C48.3831 63.8524 48.3831 59.0114 48.3831 54.1467C48.3831 53.2924 48.3594 52.4381 48.4068 51.5601C48.4304 50.6821 49.0456 50.1126 49.85 50.0888C50.7018 50.0651 51.3406 50.6821 51.4116 51.5838C51.4353 51.8211 51.4116 52.0584 51.4116 52.2957C51.4116 57.7775 51.4116 63.2592 51.4116 68.7172C51.388 69.0019 51.3879 69.3342 51.3879 69.6901ZM57.9892 70.9478C53.7067 73.5107 49.6607 73.3209 45.5439 70.8054C42.9412 69.2155 40.1966 69.4765 37.594 71.0665C33.7137 73.4395 29.7861 73.4395 25.9058 71.0665C23.0193 69.3104 20.18 69.3104 17.3408 71.1377C14.6672 72.8463 11.8043 73.2497 8.77578 72.4428C7.66375 72.1343 6.6227 71.5648 5.58164 71.1139C8.65748 78.9924 17.885 87.7015 31.0401 87.9388C44.0769 88.1761 54.3455 80.1078 57.9892 70.9478Z" fill="black"/>
<path d="M29.0763 91C27.3728 90.6915 25.6456 90.4779 23.9657 90.0982C12.4668 87.5591 2.78973 77.4262 0.565664 65.8221C-0.901273 58.0622 0.542004 50.8245 4.23301 43.9901C6.26779 40.2407 8.4682 36.5388 10.8106 32.9555C16.8203 23.8667 21.8836 14.2797 25.8822 4.12307C27.2781 0.58724 31.0401 -0.955235 34.3762 0.61097C35.9614 1.34661 36.9788 2.58059 37.6177 4.19426C41.356 13.8051 46.0644 22.9175 51.7192 31.5317C54.7477 36.1591 57.7526 40.7865 60.1423 45.7936C62.6029 50.9668 63.8806 56.3774 63.3837 62.1201C62.461 72.2767 57.7289 80.2027 49.2585 85.8268C44.9287 88.6982 40.1493 90.3593 34.9677 90.8339C34.7784 90.8576 34.5891 90.9525 34.3762 91C32.6253 91 30.8508 91 29.0763 91ZM51.3879 69.6901C53.0678 69.88 54.4874 69.4765 55.8597 68.6934C56.7825 68.1714 57.7289 67.6493 58.699 67.2933C59.2905 67.0798 59.5507 66.8187 59.6927 66.2492C60.8284 61.2658 60.6628 56.3536 59.1012 51.4652C57.7526 47.2649 55.6231 43.468 53.3281 39.7424C50.134 34.5691 46.8215 29.4671 43.7457 24.199C40.2203 18.1715 37.3337 11.8117 34.7784 5.30959C34.3999 4.31291 33.7847 3.57727 32.7436 3.24504C30.9928 2.67551 29.4549 3.48235 28.6977 5.26213C26.9705 9.20137 25.2907 13.1881 23.4688 17.0799C19.9908 24.4837 15.519 31.3181 11.1182 38.1762C8.32624 42.5188 5.72361 46.9801 4.20935 51.9873C2.78973 56.7096 2.69509 61.4794 3.80712 66.2492C3.8781 66.5577 4.13837 66.9611 4.39863 67.1035C5.53432 67.7205 6.741 68.1951 7.87669 68.8121C9.17801 69.5003 10.5266 69.88 12.0882 69.6427C12.0882 69.3104 12.0882 69.0019 12.0882 68.7172C12.0882 67.0798 12.0882 65.4661 12.0882 63.8287C12.0882 62.9032 12.5851 62.2862 13.3895 62.1913C14.3833 62.0727 15.0931 62.6659 15.1167 63.7338C15.1404 65.3712 15.1167 67.0323 15.1167 68.907C17.0096 67.5306 18.9734 66.8187 21.1501 66.6764C21.1501 65.9882 21.1501 65.3949 21.1501 64.8017C21.1501 62.927 21.1265 61.076 21.1501 59.2013C21.1738 58.2521 21.8599 57.5876 22.688 57.5876C23.5161 57.5876 24.1076 58.2046 24.1786 59.1538C24.2023 59.4149 24.2023 59.6759 24.2023 59.9607C24.2023 62.0727 24.1786 64.1609 24.2259 66.2729C24.2259 66.5577 24.4152 66.9848 24.6282 67.1035C25.7875 67.7205 26.9942 68.29 28.1772 68.8596C28.7924 69.1443 29.4312 69.3579 30.1883 69.6427C30.1883 69.0731 30.1883 68.7646 30.1883 68.4324C30.1883 64.5881 30.1883 60.7438 30.1883 56.8994C30.1883 56.6384 30.1647 56.3536 30.212 56.0926C30.3066 55.1908 30.9455 54.5739 31.7736 54.5739C32.5544 54.5976 33.1695 55.1671 33.2878 56.0451C33.3115 56.3062 33.3115 56.5672 33.3115 56.852C33.3115 60.7675 33.3115 64.6593 33.3115 68.5748C33.3115 68.8833 33.3352 69.1918 33.3588 69.7138C34.2579 69.3104 34.9914 68.9782 35.7248 68.6223C36.5766 68.2188 37.3574 67.6493 38.2565 67.3883C39.1319 67.1035 39.3212 66.6764 39.3212 65.8221C39.2502 63.1643 39.2739 60.4827 39.3212 57.8249C39.3212 56.7571 39.9364 56.1401 40.8591 56.1638C41.7582 56.1875 42.3497 56.8282 42.3734 57.8961C42.397 59.0114 42.3734 60.1505 42.3734 61.2658C42.3734 63.0693 42.3734 64.8728 42.3734 66.795C44.5975 66.795 46.4903 67.7205 48.3831 68.8833C48.3831 63.8524 48.3831 59.0114 48.3831 54.1467C48.3831 53.2924 48.3594 52.4381 48.4068 51.5601C48.4304 50.6821 49.0456 50.1126 49.85 50.0888C50.7018 50.0651 51.3406 50.6821 51.4116 51.5838C51.4353 51.8211 51.4116 52.0584 51.4116 52.2957C51.4116 57.7775 51.4116 63.2592 51.4116 68.7172C51.388 69.0019 51.3879 69.3342 51.3879 69.6901ZM57.9892 70.9478C53.7067 73.5107 49.6607 73.3209 45.5439 70.8054C42.9412 69.2155 40.1966 69.4765 37.594 71.0665C33.7137 73.4395 29.7861 73.4395 25.9058 71.0665C23.0193 69.3104 20.18 69.3104 17.3408 71.1377C14.6672 72.8463 11.8043 73.2497 8.77578 72.4428C7.66375 72.1343 6.6227 71.5648 5.58164 71.1139C8.65748 78.9924 17.885 87.7015 31.0401 87.9388C44.0769 88.1761 54.3455 80.1078 57.9892 70.9478Z" fill="url(#paint0_linear_57_381)"/>
<path d="M37.6886 47.9058C39.5341 46.0548 41.2376 44.3225 43.0121 42.5665C42.7282 42.5427 42.4443 42.5427 42.184 42.4953C41.3796 42.4003 40.7644 41.6884 40.8117 40.9053C40.859 40.146 41.4269 39.5052 42.2313 39.4815C43.7929 39.4578 45.3545 39.434 46.9161 39.4815C47.8388 39.5052 48.3593 40.1222 48.383 41.1189C48.4067 42.519 48.4067 43.8954 48.383 45.2954C48.383 46.3396 47.7678 47.0278 46.8924 47.0515C46.0406 47.0752 45.4018 46.4108 45.3308 45.3666C45.3308 45.2243 45.3072 45.0819 45.3072 44.7734C45.0469 44.987 44.834 45.1293 44.6683 45.3192C43.1541 46.8142 41.6635 48.3329 40.1492 49.828C38.6113 51.3467 36.9314 51.3467 35.4172 49.828C34.7074 49.116 34.0449 48.3804 33.3114 47.5736C31.5842 49.3059 29.9516 50.9433 28.3427 52.5807C26.4499 54.4791 24.9357 54.4791 23.0428 52.5569C22.4513 51.94 21.8835 51.2992 21.2683 50.6111C20.9134 50.967 20.6768 51.1806 20.4402 51.3942C18.2161 53.6248 15.9684 55.8792 13.7443 58.1099C13.5314 58.3234 13.3421 58.537 13.1055 58.7268C12.4194 59.3201 11.5439 59.2726 10.9524 58.6557C10.3846 58.0624 10.3373 57.2081 10.9761 56.5911C13.697 53.8384 16.418 51.0857 19.1862 48.3804C20.3456 47.2651 22.0728 47.3363 23.2558 48.499C24.0602 49.2584 24.7937 50.1127 25.6218 50.9907C27.3963 49.211 29.0289 47.5498 30.6615 45.9124C32.4596 44.1089 33.9976 44.1089 35.7721 45.8887C36.4346 46.5532 37.0497 47.2413 37.6886 47.9058Z" fill="black"/>
<path d="M37.6886 47.9058C39.5341 46.0548 41.2376 44.3225 43.0121 42.5665C42.7282 42.5427 42.4443 42.5427 42.184 42.4953C41.3796 42.4003 40.7644 41.6884 40.8117 40.9053C40.859 40.146 41.4269 39.5052 42.2313 39.4815C43.7929 39.4578 45.3545 39.434 46.9161 39.4815C47.8388 39.5052 48.3593 40.1222 48.383 41.1189C48.4067 42.519 48.4067 43.8954 48.383 45.2954C48.383 46.3396 47.7678 47.0278 46.8924 47.0515C46.0406 47.0752 45.4018 46.4108 45.3308 45.3666C45.3308 45.2243 45.3072 45.0819 45.3072 44.7734C45.0469 44.987 44.834 45.1293 44.6683 45.3192C43.1541 46.8142 41.6635 48.3329 40.1492 49.828C38.6113 51.3467 36.9314 51.3467 35.4172 49.828C34.7074 49.116 34.0449 48.3804 33.3114 47.5736C31.5842 49.3059 29.9516 50.9433 28.3427 52.5807C26.4499 54.4791 24.9357 54.4791 23.0428 52.5569C22.4513 51.94 21.8835 51.2992 21.2683 50.6111C20.9134 50.967 20.6768 51.1806 20.4402 51.3942C18.2161 53.6248 15.9684 55.8792 13.7443 58.1099C13.5314 58.3234 13.3421 58.537 13.1055 58.7268C12.4194 59.3201 11.5439 59.2726 10.9524 58.6557C10.3846 58.0624 10.3373 57.2081 10.9761 56.5911C13.697 53.8384 16.418 51.0857 19.1862 48.3804C20.3456 47.2651 22.0728 47.3363 23.2558 48.499C24.0602 49.2584 24.7937 50.1127 25.6218 50.9907C27.3963 49.211 29.0289 47.5498 30.6615 45.9124C32.4596 44.1089 33.9976 44.1089 35.7721 45.8887C36.4346 46.5532 37.0497 47.2413 37.6886 47.9058Z" fill="url(#paint1_linear_57_381)"/>
<defs>
<linearGradient id="paint0_linear_57_381" x1="-11.7228" y1="-3.5168e-05" x2="53.8162" y2="1.11597" gradientUnits="userSpaceOnUse">
<stop stop-color="#37DADA"/>
<stop offset="1" stop-color="#254DB5"/>
</linearGradient>
<linearGradient id="paint1_linear_57_381" x1="3.51587" y1="39.4541" x2="42.5531" y2="41.2873" gradientUnits="userSpaceOnUse">
<stop stop-color="#37DADA"/>
<stop offset="1" stop-color="#254DB5"/>
</linearGradient>
</defs>
</svg>
