<svg width="72" height="99" viewBox="0 0 72 99" fill="none" xmlns="http://www.w3.org/2000/svg">
<path d="M39.1768 56.4517C41.0223 54.6007 42.7259 52.8684 44.5004 51.1124C44.2165 51.0886 43.9326 51.0886 43.6723 51.0412C42.8678 50.9462 42.2527 50.2343 42.3 49.4512C42.3473 48.6919 42.9152 48.0511 43.7196 48.0274C45.2812 48.0037 46.8428 47.9799 48.4044 48.0274C49.3271 48.0511 49.8476 48.6681 49.8713 49.6648C49.8949 51.0649 49.8949 52.4413 49.8713 53.8413C49.8713 54.8855 49.2561 55.5737 48.3807 55.5974C47.5289 55.6211 46.8901 54.9567 46.8191 53.9125C46.8191 53.7702 46.7954 53.6278 46.7954 53.3193C46.5352 53.5329 46.3222 53.6752 46.1566 53.8651C44.6424 55.3601 43.1518 56.8788 41.6375 58.3739C40.0996 59.8926 38.4197 59.8926 36.9054 58.3739C36.1956 57.6619 35.5332 56.9263 34.7997 56.1195C33.0725 57.8518 31.4399 59.4892 29.831 61.1266C27.9382 63.025 26.4239 63.025 24.5311 61.1028C23.9396 60.4859 23.3718 59.8451 22.7566 59.157C22.4017 59.5129 22.1651 59.7265 21.9285 59.9401C19.7044 62.1707 17.4567 64.4251 15.2326 66.6558C15.0197 66.8693 14.8304 67.0829 14.5938 67.2727C13.9077 67.866 13.0322 67.8185 12.4407 67.2016C11.8729 66.6083 11.8255 65.754 12.4644 65.137C15.1853 62.3843 17.9062 59.6316 20.6745 56.9263C21.8338 55.811 23.5611 55.8822 24.7441 57.0449C25.5485 57.8043 26.282 58.6586 27.1101 59.5366C28.8846 57.7569 30.5172 56.0957 32.1497 54.4583C33.9479 52.6548 35.4858 52.6548 37.2604 54.4346C37.9228 55.0991 38.538 55.7872 39.1768 56.4517Z" fill="black"/>
<path d="M39.1768 56.4517C41.0223 54.6007 42.7259 52.8684 44.5004 51.1124C44.2165 51.0886 43.9326 51.0886 43.6723 51.0412C42.8678 50.9462 42.2527 50.2343 42.3 49.4512C42.3473 48.6919 42.9152 48.0511 43.7196 48.0274C45.2812 48.0037 46.8428 47.9799 48.4044 48.0274C49.3271 48.0511 49.8476 48.6681 49.8713 49.6648C49.8949 51.0649 49.8949 52.4413 49.8713 53.8413C49.8713 54.8855 49.2561 55.5737 48.3807 55.5974C47.5289 55.6211 46.8901 54.9567 46.8191 53.9125C46.8191 53.7702 46.7954 53.6278 46.7954 53.3193C46.5352 53.5329 46.3222 53.6752 46.1566 53.8651C44.6424 55.3601 43.1518 56.8788 41.6375 58.3739C40.0996 59.8926 38.4197 59.8926 36.9054 58.3739C36.1956 57.6619 35.5332 56.9263 34.7997 56.1195C33.0725 57.8518 31.4399 59.4892 29.831 61.1266C27.9382 63.025 26.4239 63.025 24.5311 61.1028C23.9396 60.4859 23.3718 59.8451 22.7566 59.157C22.4017 59.5129 22.1651 59.7265 21.9285 59.9401C19.7044 62.1707 17.4567 64.4251 15.2326 66.6558C15.0197 66.8693 14.8304 67.0829 14.5938 67.2727C13.9077 67.866 13.0322 67.8185 12.4407 67.2016C11.8729 66.6083 11.8255 65.754 12.4644 65.137C15.1853 62.3843 17.9062 59.6316 20.6745 56.9263C21.8338 55.811 23.5611 55.8822 24.7441 57.0449C25.5485 57.8043 26.282 58.6586 27.1101 59.5366C28.8846 57.7569 30.5172 56.0957 32.1497 54.4583C33.9479 52.6548 35.4858 52.6548 37.2604 54.4346C37.9228 55.0991 38.538 55.7872 39.1768 56.4517Z" fill="url(#paint0_linear_64_401)"/>
<path d="M6.00015 58.3257C6.12781 43.4885 18.2555 32.6164 32.1704 33.0001C46.2129 33.3838 57.064 45.1512 56.681 59.4768C56.298 73.035 44.4257 84.2908 30.7661 83.9071C16.5959 83.5233 5.87249 71.8838 6.00015 58.3257ZM31.4044 80.4536C43.6597 80.3257 53.3619 70.6047 53.3619 58.4536C53.3619 46.0466 43.5321 36.3257 31.1491 36.3257C19.0214 36.4536 9.3193 46.4303 9.44696 58.8373C9.44696 70.7326 19.5321 80.5815 31.4044 80.4536Z" fill="black"/>
<path d="M6.00015 58.3257C6.12781 43.4885 18.2555 32.6164 32.1704 33.0001C46.2129 33.3838 57.064 45.1512 56.681 59.4768C56.298 73.035 44.4257 84.2908 30.7661 83.9071C16.5959 83.5233 5.87249 71.8838 6.00015 58.3257ZM31.4044 80.4536C43.6597 80.3257 53.3619 70.6047 53.3619 58.4536C53.3619 46.0466 43.5321 36.3257 31.1491 36.3257C19.0214 36.4536 9.3193 46.4303 9.44696 58.8373C9.44696 70.7326 19.5321 80.5815 31.4044 80.4536Z" fill="url(#paint1_linear_64_401)"/>
<path d="M43.1495 82.1164C47.7453 86.849 52.4687 91.4536 57.1921 96.1862C60.2559 99.256 64.5963 99.7676 67.9155 97.5932C72.3836 94.6513 73.2772 88.5118 69.4474 84.6746C64.5963 79.6862 59.7453 74.9536 54.8942 69.9653C54.6389 69.7095 54.3836 69.4536 54.1282 69.3257C54.6389 68.1746 55.1495 67.1513 55.5325 66.0001L52.5963 64.0815C49.7878 70.9885 44.2985 76.4885 37.6602 79.4304L39.3197 82.2443C39.8304 81.9885 40.341 81.7327 40.8516 81.4769C42.0006 81.349 42.5112 81.4769 43.1495 82.1164ZM52.4687 72.3955C52.4687 72.3955 52.724 72.5234 52.8516 72.7792C57.4474 77.3839 61.9155 81.8606 66.3836 86.4653C68.5538 88.6397 68.8091 91.3257 67.0219 93.5001C65.3623 95.5467 62.2985 96.0583 60.1282 94.3955C59.8729 94.2676 59.7453 94.1397 59.4899 93.8839C54.7665 89.1513 50.0431 84.2908 45.3197 79.5583C47.7453 77.1281 50.0431 74.8257 52.4687 72.3955Z" fill="black"/>
<path d="M43.1495 82.1164C47.7453 86.849 52.4687 91.4536 57.1921 96.1862C60.2559 99.256 64.5963 99.7676 67.9155 97.5932C72.3836 94.6513 73.2772 88.5118 69.4474 84.6746C64.5963 79.6862 59.7453 74.9536 54.8942 69.9653C54.6389 69.7095 54.3836 69.4536 54.1282 69.3257C54.6389 68.1746 55.1495 67.1513 55.5325 66.0001L52.5963 64.0815C49.7878 70.9885 44.2985 76.4885 37.6602 79.4304L39.3197 82.2443C39.8304 81.9885 40.341 81.7327 40.8516 81.4769C42.0006 81.349 42.5112 81.4769 43.1495 82.1164ZM52.4687 72.3955C52.4687 72.3955 52.724 72.5234 52.8516 72.7792C57.4474 77.3839 61.9155 81.8606 66.3836 86.4653C68.5538 88.6397 68.8091 91.3257 67.0219 93.5001C65.3623 95.5467 62.2985 96.0583 60.1282 94.3955C59.8729 94.2676 59.7453 94.1397 59.4899 93.8839C54.7665 89.1513 50.0431 84.2908 45.3197 79.5583C47.7453 77.1281 50.0431 74.8257 52.4687 72.3955Z" fill="url(#paint2_linear_64_401)"/>
<path fill-rule="evenodd" clip-rule="evenodd" d="M27.2176 90.6895C27.838 90.7888 28.4587 90.8882 29.0763 91H34.3762C34.4695 90.9793 34.5583 90.9495 34.6445 90.9204C34.7551 90.8833 34.8614 90.8474 34.9677 90.834C40.1493 90.3594 44.9287 88.6982 49.2585 85.8267C57.7289 80.2026 62.4609 72.2766 63.3837 62.1201C63.8805 56.3774 62.6029 50.9668 60.1423 45.7937C57.7525 40.7866 54.7477 36.1592 51.7192 31.5317C46.0644 22.9175 41.356 13.8052 37.6177 4.19434C36.9788 2.58057 35.9614 1.34668 34.3762 0.611089C31.0401 -0.955317 27.2781 0.587163 25.8821 4.12305C21.8836 14.2798 16.8202 23.8667 10.8105 32.9556C8.46819 36.5388 6.26781 40.2407 4.23302 43.99C0.541978 50.8245 -0.90126 58.0623 0.565659 65.822C2.78972 77.4263 12.4668 87.5591 23.9657 90.0982C25.0365 90.3403 26.1266 90.5149 27.2176 90.6895ZM55.1077 69.5582C55.2631 69.183 55.5462 68.8703 55.9047 68.6795C56.8234 68.1904 57.7136 67.655 58.699 67.2935C59.2905 67.0798 59.5507 66.8189 59.6927 66.2493C60.8284 61.2659 60.6628 56.3538 59.1012 51.4651C57.7525 47.2649 55.6232 43.468 53.328 39.7424C52.2942 38.0679 51.2479 36.4009 50.2013 34.7332C48.0144 31.2488 45.8259 27.762 43.7457 24.199C40.2203 18.1714 37.3337 11.8118 34.7784 5.30958C34.3998 4.31299 33.7847 3.57715 32.7436 3.24512C30.9928 2.67554 29.4549 3.48243 28.6977 5.26221C28.2304 6.32813 27.7665 7.39747 27.3023 8.46754C26.051 11.3518 24.7977 14.241 23.4688 17.0798C20.1982 24.0422 16.0486 30.5012 11.9058 36.9497L11.1181 38.1763C8.32622 42.5188 5.72362 46.9802 4.20934 51.9873C2.78972 56.7097 2.69505 61.4795 3.80711 66.2493C3.8781 66.5576 4.13835 66.9612 4.39861 67.1035C5.59602 67.754 6.85074 68.4071 8.11561 68.9553C8.52249 69.1316 8.84773 69.4606 9.02293 69.868V69.868C9.55219 71.0987 8.60971 72.3994 7.37093 71.8893C6.77678 71.6447 6.18674 71.376 5.58165 71.114C8.65746 78.9924 17.885 87.7014 31.0401 87.9387C44.0769 88.176 54.3454 80.1077 57.9892 70.9478C57.6048 71.1778 57.2222 71.3857 56.8414 71.5717C55.61 72.1731 54.5834 70.8243 55.1077 69.5582V69.5582Z" fill="black"/>
<path fill-rule="evenodd" clip-rule="evenodd" d="M27.2176 90.6895C27.838 90.7888 28.4587 90.8882 29.0763 91H34.3762C34.4695 90.9793 34.5583 90.9495 34.6445 90.9204C34.7551 90.8833 34.8614 90.8474 34.9677 90.834C40.1493 90.3594 44.9287 88.6982 49.2585 85.8267C57.7289 80.2026 62.4609 72.2766 63.3837 62.1201C63.8805 56.3774 62.6029 50.9668 60.1423 45.7937C57.7525 40.7866 54.7477 36.1592 51.7192 31.5317C46.0644 22.9175 41.356 13.8052 37.6177 4.19434C36.9788 2.58057 35.9614 1.34668 34.3762 0.611089C31.0401 -0.955317 27.2781 0.587163 25.8821 4.12305C21.8836 14.2798 16.8202 23.8667 10.8105 32.9556C8.46819 36.5388 6.26781 40.2407 4.23302 43.99C0.541978 50.8245 -0.90126 58.0623 0.565659 65.822C2.78972 77.4263 12.4668 87.5591 23.9657 90.0982C25.0365 90.3403 26.1266 90.5149 27.2176 90.6895ZM55.1077 69.5582C55.2631 69.183 55.5462 68.8703 55.9047 68.6795C56.8234 68.1904 57.7136 67.655 58.699 67.2935C59.2905 67.0798 59.5507 66.8189 59.6927 66.2493C60.8284 61.2659 60.6628 56.3538 59.1012 51.4651C57.7525 47.2649 55.6232 43.468 53.328 39.7424C52.2942 38.0679 51.2479 36.4009 50.2013 34.7332C48.0144 31.2488 45.8259 27.762 43.7457 24.199C40.2203 18.1714 37.3337 11.8118 34.7784 5.30958C34.3998 4.31299 33.7847 3.57715 32.7436 3.24512C30.9928 2.67554 29.4549 3.48243 28.6977 5.26221C28.2304 6.32813 27.7665 7.39747 27.3023 8.46754C26.051 11.3518 24.7977 14.241 23.4688 17.0798C20.1982 24.0422 16.0486 30.5012 11.9058 36.9497L11.1181 38.1763C8.32622 42.5188 5.72362 46.9802 4.20934 51.9873C2.78972 56.7097 2.69505 61.4795 3.80711 66.2493C3.8781 66.5576 4.13835 66.9612 4.39861 67.1035C5.59602 67.754 6.85074 68.4071 8.11561 68.9553C8.52249 69.1316 8.84773 69.4606 9.02293 69.868V69.868C9.55219 71.0987 8.60971 72.3994 7.37093 71.8893C6.77678 71.6447 6.18674 71.376 5.58165 71.114C8.65746 78.9924 17.885 87.7014 31.0401 87.9387C44.0769 88.176 54.3454 80.1077 57.9892 70.9478C57.6048 71.1778 57.2222 71.3857 56.8414 71.5717C55.61 72.1731 54.5834 70.8243 55.1077 69.5582V69.5582Z" fill="url(#paint3_linear_64_401)"/>
<defs>
<linearGradient id="paint0_linear_64_401" x1="5.00415" y1="48" x2="44.0414" y2="49.8332" gradientUnits="userSpaceOnUse">
<stop stop-color="#37DADA"/>
<stop offset="1" stop-color="#254DB5"/>
</linearGradient>
<linearGradient id="paint1_linear_64_401" x1="-3.36074" y1="32.9902" x2="48.9516" y2="34.2611" gradientUnits="userSpaceOnUse">
<stop stop-color="#37DADA"/>
<stop offset="1" stop-color="#254DB5"/>
</linearGradient>
<linearGradient id="paint2_linear_64_401" x1="31.3456" y1="64.0815" x2="66.6385" y2="64.927" gradientUnits="userSpaceOnUse">
<stop stop-color="#37DADA"/>
<stop offset="1" stop-color="#254DB5"/>
</linearGradient>
<linearGradient id="paint3_linear_64_401" x1="-11.7228" y1="-3.56079e-05" x2="53.8162" y2="1.11597" gradientUnits="userSpaceOnUse">
<stop stop-color="#37DADA"/>
<stop offset="1" stop-color="#254DB5"/>
</linearGradient>
</defs>
</svg>
