<svg width="92" height="91" viewBox="0 0 92 91" fill="none" xmlns="http://www.w3.org/2000/svg">
<path d="M0.0712794 31.7906C5.98747 31.7906 11.9274 31.7906 17.8436 31.8144C18.295 31.8144 18.5564 31.7193 18.794 31.2679C19.6256 29.676 21.0037 28.7969 22.8094 28.7969C24.6151 28.7969 25.9457 29.6997 26.8723 31.2441C27.0386 31.5055 27.4188 31.7668 27.7039 31.7906C28.5593 31.8619 29.4146 31.8381 30.27 31.8144C31.2916 31.7906 31.8381 31.2204 31.8856 30.1987C31.9094 29.8661 31.8619 29.5334 31.8856 29.2245C32.0044 27.9653 31.7906 27.0624 30.5551 26.1595C27.9653 24.3063 28.4167 20.3146 31.2204 18.794C31.7431 18.5089 31.9094 18.2238 31.9094 17.6298C31.8856 12.0937 31.8856 6.53394 31.8856 0.997911C31.8856 0.689034 31.8856 0.356397 31.8856 0C41.0332 0 50.0856 0 59.2569 0C59.2569 0.332637 59.2569 0.665274 59.2569 0.974151C59.2569 6.48642 59.2569 11.9987 59.2332 17.511C59.2332 18.1287 59.352 18.4851 59.9697 18.8178C61.4903 19.6493 62.2744 21.0274 62.2506 22.7619C62.2269 24.4963 61.4428 25.8507 59.8984 26.6585C59.352 26.9436 59.1856 27.2525 59.2332 27.8227C59.2807 28.6305 59.2332 29.4146 59.2569 30.2225C59.2807 31.1966 59.8509 31.7431 60.8251 31.7906C61.229 31.8144 61.6567 31.7668 62.0606 31.8144C63.2723 31.9569 64.0802 31.6718 64.8642 30.5076C66.67 27.9178 70.6854 28.2742 72.2298 31.0778C72.5624 31.6718 72.895 31.8144 73.5366 31.8144C79.0251 31.7906 84.5136 31.7906 89.9783 31.7906C90.311 31.7906 90.6198 31.7906 91.0238 31.7906C91.0238 40.9144 91.0238 49.9906 91.0238 59.1619C90.6911 59.1619 90.3585 59.1619 90.0496 59.1619C84.5373 59.1619 79.0251 59.1619 73.5128 59.1619C72.9426 59.1619 72.5862 59.2569 72.2773 59.8509C71.4457 61.3953 70.0439 62.2031 68.2619 62.1794C66.5274 62.1556 65.1731 61.324 64.3653 59.8034C64.0802 59.2332 63.7238 59.1619 63.1773 59.1619C58.5916 59.1856 53.9822 59.1619 49.3966 59.1619C49.0877 59.1619 48.7551 59.1619 48.3037 59.1619C48.6363 57.1185 48.9452 55.1702 49.254 53.2219C49.2065 53.1744 49.1352 53.1269 49.0877 53.0794C48.4462 53.7684 47.8285 54.4574 47.1632 55.1227C45.999 56.3107 44.8347 57.4987 43.623 58.6392C43.3141 58.9243 42.8151 59.1381 42.4112 59.1381C37.588 59.1619 32.741 59.1619 27.9178 59.1381C27.3238 59.1381 26.9911 59.2569 26.6822 59.8272C25.8744 61.3715 24.4963 62.1556 22.7619 62.1556C21.0037 62.1556 19.6256 61.324 18.794 59.7559C18.5564 59.3044 18.295 59.1381 17.7723 59.1381C11.8561 59.1619 5.91619 59.1619 0 59.1619C0.0712794 50.0381 0.0712794 40.9144 0.0712794 31.7906ZM51.9864 56.0256C55.9781 56.0256 59.8509 56.0256 63.7238 56.0256C63.7238 48.9452 63.7238 41.9598 63.7238 34.9031C61.5616 34.7606 59.3044 35.307 57.5462 33.5251C55.788 31.7668 56.3582 29.5097 56.1919 27.3713C49.1115 27.3713 42.1023 27.3713 35.0457 27.3713C35.0219 27.7039 34.9982 27.989 34.9982 28.2979C34.9982 28.9394 35.0219 29.6047 34.9982 30.2462C34.8556 33.0736 33.0974 34.8081 30.2225 34.8794C29.3196 34.9031 28.4167 34.8794 27.5138 34.8794C27.5138 42.0311 27.5138 49.0402 27.5138 56.0731C27.7277 56.0969 27.8702 56.1206 28.0128 56.1206C32.4559 56.1206 36.899 56.1444 41.342 56.0969C41.7459 56.0969 42.2211 55.8117 42.53 55.5029C46.094 51.9864 49.6104 48.4225 53.1507 44.8822C53.3645 44.6684 53.6021 44.4783 53.9585 44.1457C53.2695 48.2086 52.6279 52.0815 51.9864 56.0256ZM35.0695 3.01749C35.0695 8.10209 35.0695 13.0916 35.0695 18.0574C42.1499 18.0574 49.1352 18.0574 56.1444 18.0574C56.1444 12.9966 56.1444 8.00705 56.1444 3.01749C49.0877 3.01749 42.1023 3.01749 35.0695 3.01749ZM18.1762 56.0493C18.1762 48.9452 18.1762 41.9598 18.1762 34.9269C13.1392 34.9269 8.14961 34.9269 3.16005 34.9269C3.16005 42.0073 3.16005 48.9927 3.16005 56.0493C8.19713 56.0493 13.1392 56.0493 18.1762 56.0493ZM73.0138 34.9031C73.0138 42.0073 73.0138 48.9927 73.0138 56.0256C78.0747 56.0256 83.0642 56.0256 88.03 56.0256C88.03 48.9452 88.03 41.9598 88.03 34.9031C83.0167 34.9031 78.0509 34.9031 73.0138 34.9031ZM69.8538 45.4762C69.8538 41.6747 69.8538 37.8969 69.8538 34.0953C69.8538 32.5509 69.3786 31.8381 68.3569 31.8619C67.359 31.8856 66.9076 32.5747 66.9076 34.0715C66.9076 41.6747 66.9076 49.3016 66.9076 56.9047C66.9076 57.2373 66.9076 57.57 66.9551 57.8788C67.0739 58.6867 67.6204 59.0668 68.3807 59.0906C69.141 59.1144 69.6637 58.6867 69.83 57.9264C69.9013 57.5937 69.8775 57.2136 69.8775 56.8572C69.8538 53.0556 69.8538 49.254 69.8538 45.4762ZM45.6188 24.1875C49.4204 24.1875 53.1982 24.1875 56.9997 24.1875C58.5441 24.1875 59.2569 23.6885 59.2332 22.6668C59.2094 21.6689 58.5204 21.2175 57.0235 21.2175C49.4204 21.2175 41.7935 21.2175 34.1903 21.2175C33.9052 21.2175 33.5963 21.2175 33.3112 21.2413C32.5747 21.3363 32.0044 21.954 32.0044 22.6668C32.0044 23.4034 32.5272 24.0211 33.2875 24.1162C33.6201 24.1637 33.929 24.1637 34.2616 24.1637C38.0394 24.1875 41.8172 24.1875 45.6188 24.1875ZM24.3063 45.5238C24.3063 41.7222 24.3063 37.9444 24.3063 34.1428C24.3063 33.7864 24.3063 33.43 24.2587 33.0736C24.1399 32.2658 23.5935 31.8856 22.8569 31.8619C22.0966 31.8381 21.5739 32.2658 21.4076 33.0261C21.3363 33.3587 21.3601 33.7389 21.3601 34.0953C21.3601 41.6747 21.3601 49.254 21.3601 56.8334C21.3601 57.1661 21.3601 57.4987 21.4076 57.8076C21.5264 58.7104 22.3342 59.2332 23.2133 59.0193C24.1399 58.7817 24.33 58.0927 24.33 57.2373C24.3063 53.3407 24.3063 49.4441 24.3063 45.5238Z" fill="black"/>
<path d="M0.0712794 31.7906C5.98747 31.7906 11.9274 31.7906 17.8436 31.8144C18.295 31.8144 18.5564 31.7193 18.794 31.2679C19.6256 29.676 21.0037 28.7969 22.8094 28.7969C24.6151 28.7969 25.9457 29.6997 26.8723 31.2441C27.0386 31.5055 27.4188 31.7668 27.7039 31.7906C28.5593 31.8619 29.4146 31.8381 30.27 31.8144C31.2916 31.7906 31.8381 31.2204 31.8856 30.1987C31.9094 29.8661 31.8619 29.5334 31.8856 29.2245C32.0044 27.9653 31.7906 27.0624 30.5551 26.1595C27.9653 24.3063 28.4167 20.3146 31.2204 18.794C31.7431 18.5089 31.9094 18.2238 31.9094 17.6298C31.8856 12.0937 31.8856 6.53394 31.8856 0.997911C31.8856 0.689034 31.8856 0.356397 31.8856 0C41.0332 0 50.0856 0 59.2569 0C59.2569 0.332637 59.2569 0.665274 59.2569 0.974151C59.2569 6.48642 59.2569 11.9987 59.2332 17.511C59.2332 18.1287 59.352 18.4851 59.9697 18.8178C61.4903 19.6493 62.2744 21.0274 62.2506 22.7619C62.2269 24.4963 61.4428 25.8507 59.8984 26.6585C59.352 26.9436 59.1856 27.2525 59.2332 27.8227C59.2807 28.6305 59.2332 29.4146 59.2569 30.2225C59.2807 31.1966 59.8509 31.7431 60.8251 31.7906C61.229 31.8144 61.6567 31.7668 62.0606 31.8144C63.2723 31.9569 64.0802 31.6718 64.8642 30.5076C66.67 27.9178 70.6854 28.2742 72.2298 31.0778C72.5624 31.6718 72.895 31.8144 73.5366 31.8144C79.0251 31.7906 84.5136 31.7906 89.9783 31.7906C90.311 31.7906 90.6198 31.7906 91.0238 31.7906C91.0238 40.9144 91.0238 49.9906 91.0238 59.1619C90.6911 59.1619 90.3585 59.1619 90.0496 59.1619C84.5373 59.1619 79.0251 59.1619 73.5128 59.1619C72.9426 59.1619 72.5862 59.2569 72.2773 59.8509C71.4457 61.3953 70.0439 62.2031 68.2619 62.1794C66.5274 62.1556 65.1731 61.324 64.3653 59.8034C64.0802 59.2332 63.7238 59.1619 63.1773 59.1619C58.5916 59.1856 53.9822 59.1619 49.3966 59.1619C49.0877 59.1619 48.7551 59.1619 48.3037 59.1619C48.6363 57.1185 48.9452 55.1702 49.254 53.2219C49.2065 53.1744 49.1352 53.1269 49.0877 53.0794C48.4462 53.7684 47.8285 54.4574 47.1632 55.1227C45.999 56.3107 44.8347 57.4987 43.623 58.6392C43.3141 58.9243 42.8151 59.1381 42.4112 59.1381C37.588 59.1619 32.741 59.1619 27.9178 59.1381C27.3238 59.1381 26.9911 59.2569 26.6822 59.8272C25.8744 61.3715 24.4963 62.1556 22.7619 62.1556C21.0037 62.1556 19.6256 61.324 18.794 59.7559C18.5564 59.3044 18.295 59.1381 17.7723 59.1381C11.8561 59.1619 5.91619 59.1619 0 59.1619C0.0712794 50.0381 0.0712794 40.9144 0.0712794 31.7906ZM51.9864 56.0256C55.9781 56.0256 59.8509 56.0256 63.7238 56.0256C63.7238 48.9452 63.7238 41.9598 63.7238 34.9031C61.5616 34.7606 59.3044 35.307 57.5462 33.5251C55.788 31.7668 56.3582 29.5097 56.1919 27.3713C49.1115 27.3713 42.1023 27.3713 35.0457 27.3713C35.0219 27.7039 34.9982 27.989 34.9982 28.2979C34.9982 28.9394 35.0219 29.6047 34.9982 30.2462C34.8556 33.0736 33.0974 34.8081 30.2225 34.8794C29.3196 34.9031 28.4167 34.8794 27.5138 34.8794C27.5138 42.0311 27.5138 49.0402 27.5138 56.0731C27.7277 56.0969 27.8702 56.1206 28.0128 56.1206C32.4559 56.1206 36.899 56.1444 41.342 56.0969C41.7459 56.0969 42.2211 55.8117 42.53 55.5029C46.094 51.9864 49.6104 48.4225 53.1507 44.8822C53.3645 44.6684 53.6021 44.4783 53.9585 44.1457C53.2695 48.2086 52.6279 52.0815 51.9864 56.0256ZM35.0695 3.01749C35.0695 8.10209 35.0695 13.0916 35.0695 18.0574C42.1499 18.0574 49.1352 18.0574 56.1444 18.0574C56.1444 12.9966 56.1444 8.00705 56.1444 3.01749C49.0877 3.01749 42.1023 3.01749 35.0695 3.01749ZM18.1762 56.0493C18.1762 48.9452 18.1762 41.9598 18.1762 34.9269C13.1392 34.9269 8.14961 34.9269 3.16005 34.9269C3.16005 42.0073 3.16005 48.9927 3.16005 56.0493C8.19713 56.0493 13.1392 56.0493 18.1762 56.0493ZM73.0138 34.9031C73.0138 42.0073 73.0138 48.9927 73.0138 56.0256C78.0747 56.0256 83.0642 56.0256 88.03 56.0256C88.03 48.9452 88.03 41.9598 88.03 34.9031C83.0167 34.9031 78.0509 34.9031 73.0138 34.9031ZM69.8538 45.4762C69.8538 41.6747 69.8538 37.8969 69.8538 34.0953C69.8538 32.5509 69.3786 31.8381 68.3569 31.8619C67.359 31.8856 66.9076 32.5747 66.9076 34.0715C66.9076 41.6747 66.9076 49.3016 66.9076 56.9047C66.9076 57.2373 66.9076 57.57 66.9551 57.8788C67.0739 58.6867 67.6204 59.0668 68.3807 59.0906C69.141 59.1144 69.6637 58.6867 69.83 57.9264C69.9013 57.5937 69.8775 57.2136 69.8775 56.8572C69.8538 53.0556 69.8538 49.254 69.8538 45.4762ZM45.6188 24.1875C49.4204 24.1875 53.1982 24.1875 56.9997 24.1875C58.5441 24.1875 59.2569 23.6885 59.2332 22.6668C59.2094 21.6689 58.5204 21.2175 57.0235 21.2175C49.4204 21.2175 41.7935 21.2175 34.1903 21.2175C33.9052 21.2175 33.5963 21.2175 33.3112 21.2413C32.5747 21.3363 32.0044 21.954 32.0044 22.6668C32.0044 23.4034 32.5272 24.0211 33.2875 24.1162C33.6201 24.1637 33.929 24.1637 34.2616 24.1637C38.0394 24.1875 41.8172 24.1875 45.6188 24.1875ZM24.3063 45.5238C24.3063 41.7222 24.3063 37.9444 24.3063 34.1428C24.3063 33.7864 24.3063 33.43 24.2587 33.0736C24.1399 32.2658 23.5935 31.8856 22.8569 31.8619C22.0966 31.8381 21.5739 32.2658 21.4076 33.0261C21.3363 33.3587 21.3601 33.7389 21.3601 34.0953C21.3601 41.6747 21.3601 49.254 21.3601 56.8334C21.3601 57.1661 21.3601 57.4987 21.4076 57.8076C21.5264 58.7104 22.3342 59.2332 23.2133 59.0193C24.1399 58.7817 24.33 58.0927 24.33 57.2373C24.3063 53.3407 24.3063 49.4441 24.3063 45.5238Z" fill="url(#paint0_linear_57_385)"/>
<path d="M44.17 90.9999C42.483 90.501 40.9149 89.8594 39.5606 88.6952C36.9708 86.4855 35.8303 82.6365 36.947 79.4289C38.7052 74.3205 41.699 69.8537 44.6452 65.3869C44.9303 64.9592 45.2392 64.5315 45.6193 64.0088C45.9757 64.5077 46.2608 64.9117 46.5222 65.3156C49.0645 69.0934 51.5118 72.9187 53.3888 77.1004C54.458 79.4764 55.2183 81.9237 54.3154 84.561C53.1987 87.8399 50.9178 89.8832 47.5914 90.7861C47.4013 90.8336 47.2112 90.9286 47.0212 90.9762C46.0708 90.9999 45.1204 90.9999 44.17 90.9999ZM45.9045 69.5686C45.7857 69.5923 45.6431 69.6161 45.5243 69.6399C44.9303 70.5903 44.2888 71.4931 43.7898 72.491C42.4593 75.0809 41.0812 77.6707 39.9407 80.3555C39.0379 82.4939 39.7507 84.5135 41.3188 86.1292C42.9107 87.7923 44.9303 88.2913 47.1637 87.7686C50.0862 87.0558 52.9849 83.5631 50.989 79.4051C49.3971 76.055 47.5914 72.8237 45.9045 69.5686Z" fill="black"/>
<path d="M44.17 90.9999C42.483 90.501 40.9149 89.8594 39.5606 88.6952C36.9708 86.4855 35.8303 82.6365 36.947 79.4289C38.7052 74.3205 41.699 69.8537 44.6452 65.3869C44.9303 64.9592 45.2392 64.5315 45.6193 64.0088C45.9757 64.5077 46.2608 64.9117 46.5222 65.3156C49.0645 69.0934 51.5118 72.9187 53.3888 77.1004C54.458 79.4764 55.2183 81.9237 54.3154 84.561C53.1987 87.8399 50.9178 89.8832 47.5914 90.7861C47.4013 90.8336 47.2112 90.9286 47.0212 90.9762C46.0708 90.9999 45.1204 90.9999 44.17 90.9999ZM45.9045 69.5686C45.7857 69.5923 45.6431 69.6161 45.5243 69.6399C44.9303 70.5903 44.2888 71.4931 43.7898 72.491C42.4593 75.0809 41.0812 77.6707 39.9407 80.3555C39.0379 82.4939 39.7507 84.5135 41.3188 86.1292C42.9107 87.7923 44.9303 88.2913 47.1637 87.7686C50.0862 87.0558 52.9849 83.5631 50.989 79.4051C49.3971 76.055 47.5914 72.8237 45.9045 69.5686Z" fill="url(#paint1_linear_57_385)"/>
<defs>
<linearGradient id="paint0_linear_57_385" x1="-16.8067" y1="-2.40302e-05" x2="77.0625" y2="3.35375" gradientUnits="userSpaceOnUse">
<stop stop-color="#37DADA"/>
<stop offset="1" stop-color="#254DB5"/>
</linearGradient>
<linearGradient id="paint1_linear_57_385" x1="33.1597" y1="64.0088" x2="51.9438" y2="64.3179" gradientUnits="userSpaceOnUse">
<stop stop-color="#37DADA"/>
<stop offset="1" stop-color="#254DB5"/>
</linearGradient>
</defs>
</svg>
