<svg width="91" height="92" viewBox="0 0 91 92" fill="none" xmlns="http://www.w3.org/2000/svg">
<path d="M55.4362 0.0292969C55.8102 0.189569 56.1842 0.332032 56.5581 0.510112C58.517 1.45393 59.6033 3.02104 59.6923 5.19361C59.7814 7.4196 58.7485 9.07575 56.7896 10.0908C56.291 10.3579 56.1129 10.6072 56.1307 11.1593C56.1663 12.3702 56.1485 13.5812 56.1485 14.8099C56.1485 16.3414 55.4896 17.0359 53.9403 17.0537C51.928 17.0715 49.9157 17.0537 47.9034 17.0537C47.7254 17.0537 47.5473 17.0715 47.3158 17.0893C47.3158 18.2469 47.3158 19.3866 47.3158 20.6509C47.6185 20.6509 47.9391 20.6509 48.2418 20.6509C53.0143 20.6509 57.7869 20.6687 62.5416 20.6509C65.5511 20.6331 67.8306 21.8975 69.4155 24.4618C69.5579 24.7111 69.9319 24.9426 70.2168 24.9605C71.1607 25.0139 72.1045 24.9783 73.1195 24.9783C73.1552 24.729 73.1908 24.4974 73.1908 24.2838C73.1908 23.2153 73.1552 22.1468 73.2086 21.0783C73.262 19.7071 73.2442 18.6386 71.7127 17.766C69.6826 16.5907 69.1662 13.9373 70.0209 11.6935C70.8401 9.57437 73.0483 8.18535 75.3633 8.38124C77.803 8.57712 79.6551 10.1976 80.2071 12.6195C80.7057 14.8099 79.6373 17.2318 77.5359 18.3003C76.8414 18.6564 76.7167 19.066 76.7346 19.7427C76.7702 21.9687 76.7524 24.1769 76.7524 26.4029C76.7524 27.881 76.0935 28.5755 74.5976 28.6111C73.2086 28.6289 71.8374 28.6111 70.3949 28.6111C70.3949 33.6864 70.3949 38.6726 70.3949 43.7123C74.8647 43.7123 79.2811 43.7123 83.8043 43.7123C83.8221 43.4807 83.8577 43.2314 83.8577 42.9821C83.8577 41.0945 83.8399 39.189 83.8756 37.3014C83.8934 36.7315 83.7153 36.4288 83.181 36.1617C81.1153 35.111 80.029 32.9562 80.3318 30.7124C80.6345 28.5577 82.3619 26.6878 84.4632 26.2248C87.0098 25.6728 89.681 27.1152 90.5713 29.5015C91.533 32.0836 90.5535 34.8261 88.1317 36.1082C87.544 36.411 87.3481 36.7315 87.3659 37.3904C87.4015 39.9904 87.3837 42.6082 87.3837 45.2081C87.3837 46.6684 86.7248 47.3273 85.2646 47.3273C80.6523 47.3273 76.0222 47.3273 71.41 47.3273C71.0894 47.3273 70.7689 47.3273 70.3949 47.3273C70.3949 50.6217 70.3949 53.8628 70.3949 57.1929C70.6442 57.2107 70.8935 57.2463 71.1607 57.2463C72.3538 57.2463 73.5291 57.2107 74.7223 57.2641C76.0935 57.3175 77.1619 57.2819 78.0345 55.7504C79.1742 53.7559 81.9345 53.2217 84.1249 54.0943C86.333 54.9669 87.5974 57.086 87.4193 59.6326C87.2591 61.7873 85.5495 63.7284 83.3413 64.227C81.0263 64.7613 78.64 63.764 77.5359 61.6627C77.1619 60.9504 76.7346 60.8079 76.0222 60.8257C74.1702 60.8613 72.3004 60.8435 70.3237 60.8435C70.5374 63.764 70.1634 66.4174 67.9374 68.4831C65.7114 70.5489 62.969 70.5845 60.1019 70.4242C60.1019 71.9379 60.1375 73.3269 60.1019 74.7159C60.0663 75.9447 59.4252 76.657 58.3923 76.6926C57.2882 76.7282 56.5403 75.9625 56.5225 74.6803C56.4869 73.3269 56.5225 71.9557 56.5225 70.5311C53.4595 70.5311 50.4144 70.5311 47.2624 70.5311C47.2624 71.6708 47.2624 72.8461 47.2624 74.0036C47.2624 74.5022 47.2624 75.0187 47.2624 75.5173C47.2445 76.9597 46.6035 77.6364 45.161 77.6721C43.9145 77.7077 42.6679 77.6721 41.4213 77.6721C40.4419 77.6721 39.4625 77.6721 38.3762 77.6721C38.3762 78.6337 38.3406 79.5419 38.4118 80.4323C38.4296 80.6282 38.7858 80.8241 39.0173 80.9487C41.2255 82.124 42.383 84.5815 41.7953 86.9144C41.1364 89.4431 39.0529 91.0815 36.4885 91.028C34.0488 90.9924 32.0187 89.3185 31.4133 86.8432C30.8612 84.6172 31.9297 82.1597 34.0488 81.0734C34.7077 80.735 34.9036 80.3432 34.868 79.6487C34.8146 78.4912 34.8502 77.3337 34.8502 76.1762C34.868 74.7159 35.5447 74.0392 37.0406 74.0214C39.1063 74.0036 41.1898 74.0214 43.2556 74.0036C43.3624 74.0036 43.4871 73.9858 43.6651 73.968C43.6651 72.8283 43.6651 71.6708 43.6651 70.4064C43.3624 70.4064 43.0597 70.4064 42.7391 70.4064C38.1803 70.4064 33.6036 70.2817 29.0626 70.442C24.7175 70.6023 21.1024 67.9845 20.586 63.3366C20.2833 63.3366 19.9627 63.3366 19.5888 63.3366C19.571 63.5859 19.5532 63.8353 19.5532 64.1024C19.5532 67.1832 19.5532 70.2639 19.5353 73.3447C19.5353 73.8611 19.6244 74.1817 20.1586 74.4488C22.6695 75.731 23.7024 78.42 22.7586 81.0556C21.886 83.4953 19.1792 84.9733 16.6148 84.4035C14.0327 83.8336 12.2341 81.3939 12.4834 78.6693C12.6615 76.7638 13.6587 75.3392 15.3505 74.4666C15.9025 74.1817 16.0272 73.8611 16.0272 73.3091C16.0094 69.516 16.0094 65.7229 16.0094 61.9298C16.0094 60.3449 16.6148 59.7216 18.1819 59.686C18.9477 59.6682 19.7134 59.686 20.5504 59.686C20.5504 57.923 20.5504 56.2313 20.5504 54.4683C16.1162 54.4683 11.6642 54.4683 7.10538 54.4683C7.10538 56.7655 7.08757 59.0805 7.141 61.3778C7.141 61.5915 7.51496 61.8586 7.76428 61.9832C9.77658 63.0873 10.8629 65.0996 10.6492 67.3612C10.4355 69.4804 8.86837 71.2968 6.6958 71.9023C4.13145 72.6146 1.28217 71.1543 0.356159 68.6434C0.249312 68.3407 0.124656 68.0557 0 67.753C0 67.0941 0 66.453 0 65.7941C0.534239 64.0133 1.49587 62.6065 3.25886 61.8051C3.43694 61.7161 3.54379 61.2709 3.54379 60.986C3.54379 58.386 3.54379 55.7682 3.54379 53.1683C3.54379 51.4587 4.13145 50.8711 5.82321 50.8711C10.4177 50.8711 15.0121 50.8711 19.5888 50.8711C19.9093 50.8711 20.212 50.8711 20.5326 50.8711C20.5326 49.4998 20.5326 48.2355 20.5326 46.9177C20.1586 46.9177 19.8381 46.9177 19.5175 46.9177C17.0244 46.9177 14.5491 46.9177 12.056 46.9177C10.3999 46.9177 9.74096 46.241 9.74096 44.6026C9.74096 39.5452 9.72315 34.4699 9.75877 29.4124C9.75877 28.8248 9.5985 28.5399 9.06426 28.2727C6.87388 27.1686 5.75198 24.6755 6.33964 22.3783C6.96292 19.903 9.09987 18.1934 11.5396 18.2112C13.9971 18.229 16.0984 19.9208 16.7217 22.3961C17.2915 24.6933 16.1696 27.1686 13.9615 28.2727C13.4094 28.5577 13.2847 28.8604 13.2847 29.4303C13.3026 33.7576 13.3026 38.0849 13.3026 42.4123C13.3026 42.6972 13.3026 42.9821 13.3026 43.2492C15.7957 43.2492 18.1463 43.2492 20.6038 43.2492C20.6038 42.8753 20.6038 42.5547 20.6038 42.2342C20.6038 37.5863 20.586 32.9384 20.6038 28.2905C20.6216 25.2098 21.975 22.8413 24.7709 21.5057C25.8572 20.9893 27.1393 20.8112 28.3503 20.7044C29.7749 20.5797 31.2174 20.6687 32.642 20.6687C32.642 17.4277 32.642 14.3291 32.642 11.2305C30.9324 10.91 30.7366 10.9812 29.8818 12.2634C28.6352 14.151 26.2668 15.077 24.1476 14.4894C21.797 13.8483 20.2299 11.9072 20.1052 9.46752C19.9984 7.33056 21.4942 5.08676 23.5421 4.33883C25.7503 3.51966 28.3859 4.07171 29.5612 6.03058C30.416 7.43741 31.4133 7.66892 32.7845 7.52645C33.1584 7.49084 33.5502 7.52645 33.942 7.52645C35.6516 7.54426 36.2926 8.16754 36.2926 9.89491C36.2926 13.1538 36.2926 16.4126 36.2926 19.6715C36.2926 19.992 36.2926 20.2948 36.2926 20.6687C37.6461 20.6687 38.857 20.6687 40.0679 20.6687C41.2789 20.6687 42.472 20.6687 43.7186 20.6687C43.7186 18.9236 43.7186 17.303 43.7186 15.6825C43.7186 14.151 44.3775 13.4743 45.9268 13.4565C47.7966 13.4387 49.6664 13.4565 51.5185 13.4565C51.8568 13.4565 52.1952 13.4565 52.5869 13.4565C52.5869 12.6373 52.5513 11.9606 52.6047 11.2839C52.6582 10.6607 52.4089 10.3757 51.8746 10.0908C49.9336 9.04013 48.9541 7.34837 49.061 5.14018C49.1678 2.96761 50.3075 1.43613 52.2664 0.492304C52.6048 0.332032 52.9609 0.207377 53.2993 0.0649128C54.0116 0.0292969 54.7239 0.0292969 55.4362 0.0292969ZM45.5528 24.1947C39.9255 24.1947 34.2982 24.1947 28.6708 24.1947C25.7325 24.1947 24.1476 25.7618 24.1476 28.6823C24.1476 39.9013 24.1476 51.1382 24.1476 62.3572C24.1476 65.2777 25.7325 66.8626 28.653 66.8626C39.872 66.8626 51.1089 66.8626 62.3279 66.8626C65.2484 66.8626 66.8155 65.2777 66.8155 62.3394C66.8155 51.1382 66.8155 39.9548 66.8155 28.7536C66.8155 25.7618 65.2484 24.2125 62.2745 24.2125C56.7006 24.1947 51.1267 24.1947 45.5528 24.1947ZM56.1307 5.35388C56.1307 4.42787 55.2581 3.59089 54.3499 3.6087C53.4595 3.62651 52.6404 4.42787 52.6226 5.33607C52.5869 6.24428 53.4417 7.11687 54.3677 7.13468C55.2581 7.13468 56.1307 6.27989 56.1307 5.35388ZM36.6132 83.9405C35.705 83.9227 34.8324 84.7952 34.8502 85.7034C34.8502 86.5938 35.6516 87.413 36.542 87.4486C37.4502 87.4842 38.3228 86.6473 38.3584 85.7213C38.3762 84.813 37.5392 83.9583 36.6132 83.9405ZM25.4298 7.59768C24.4682 7.59768 23.7024 8.39904 23.7202 9.36067C23.738 10.3223 24.5572 11.088 25.501 11.0702C26.427 11.0346 27.175 10.2689 27.175 9.34287C27.1928 8.38124 26.3914 7.57988 25.4298 7.59768ZM75.0072 15.362C75.9688 15.3442 76.7702 14.5428 76.7346 13.599C76.6989 12.6908 75.9154 11.925 74.9894 11.925C74.0277 11.9072 73.2086 12.7264 73.2086 13.6524C73.2264 14.5962 74.0277 15.3798 75.0072 15.362ZM13.2847 23.518C13.2669 22.5742 12.4478 21.7906 11.4861 21.8084C10.5245 21.8263 9.72315 22.6632 9.77658 23.5892C9.83 24.4974 10.6314 25.2632 11.5396 25.2632C12.4834 25.281 13.3026 24.444 13.2847 23.518ZM85.6742 33.1343C86.6358 33.1343 87.4371 32.3151 87.4193 31.3713C87.3837 30.4631 86.6002 29.6974 85.692 29.6796C84.7481 29.6618 83.9112 30.4631 83.9112 31.4069C83.8934 32.3686 84.6947 33.1521 85.6742 33.1343ZM82.166 57.2463C81.2222 57.2285 80.4208 58.0299 80.403 58.9915C80.403 59.9531 81.1865 60.7367 82.1482 60.7367C83.0564 60.7367 83.8399 59.9709 83.8756 59.0449C83.9112 58.1011 83.1098 57.2641 82.166 57.2463ZM5.30678 65.0284C4.32734 65.0284 3.52598 65.8297 3.54379 66.7736C3.56159 67.6996 4.39857 68.5009 5.3602 68.4653C6.26841 68.4475 7.06977 67.6462 7.06977 66.7558C7.08757 65.8119 6.28621 65.0284 5.30678 65.0284ZM17.7902 77.4762C16.8107 77.4584 16.0094 78.2241 15.9916 79.1679C15.9738 80.0939 16.8107 80.9131 17.7545 80.9131C18.6806 80.9131 19.4641 80.1652 19.4997 79.2391C19.5532 78.3131 18.7518 77.494 17.7902 77.4762Z" fill="black"/>
<path d="M55.4362 0.0292969C55.8102 0.189569 56.1842 0.332032 56.5581 0.510112C58.517 1.45393 59.6033 3.02104 59.6923 5.19361C59.7814 7.4196 58.7485 9.07575 56.7896 10.0908C56.291 10.3579 56.1129 10.6072 56.1307 11.1593C56.1663 12.3702 56.1485 13.5812 56.1485 14.8099C56.1485 16.3414 55.4896 17.0359 53.9403 17.0537C51.928 17.0715 49.9157 17.0537 47.9034 17.0537C47.7254 17.0537 47.5473 17.0715 47.3158 17.0893C47.3158 18.2469 47.3158 19.3866 47.3158 20.6509C47.6185 20.6509 47.9391 20.6509 48.2418 20.6509C53.0143 20.6509 57.7869 20.6687 62.5416 20.6509C65.5511 20.6331 67.8306 21.8975 69.4155 24.4618C69.5579 24.7111 69.9319 24.9426 70.2168 24.9605C71.1607 25.0139 72.1045 24.9783 73.1195 24.9783C73.1552 24.729 73.1908 24.4974 73.1908 24.2838C73.1908 23.2153 73.1552 22.1468 73.2086 21.0783C73.262 19.7071 73.2442 18.6386 71.7127 17.766C69.6826 16.5907 69.1662 13.9373 70.0209 11.6935C70.8401 9.57437 73.0483 8.18535 75.3633 8.38124C77.803 8.57712 79.6551 10.1976 80.2071 12.6195C80.7057 14.8099 79.6373 17.2318 77.5359 18.3003C76.8414 18.6564 76.7167 19.066 76.7346 19.7427C76.7702 21.9687 76.7524 24.1769 76.7524 26.4029C76.7524 27.881 76.0935 28.5755 74.5976 28.6111C73.2086 28.6289 71.8374 28.6111 70.3949 28.6111C70.3949 33.6864 70.3949 38.6726 70.3949 43.7123C74.8647 43.7123 79.2811 43.7123 83.8043 43.7123C83.8221 43.4807 83.8577 43.2314 83.8577 42.9821C83.8577 41.0945 83.8399 39.189 83.8756 37.3014C83.8934 36.7315 83.7153 36.4288 83.181 36.1617C81.1153 35.111 80.029 32.9562 80.3318 30.7124C80.6345 28.5577 82.3619 26.6878 84.4632 26.2248C87.0098 25.6728 89.681 27.1152 90.5713 29.5015C91.533 32.0836 90.5535 34.8261 88.1317 36.1082C87.544 36.411 87.3481 36.7315 87.3659 37.3904C87.4015 39.9904 87.3837 42.6082 87.3837 45.2081C87.3837 46.6684 86.7248 47.3273 85.2646 47.3273C80.6523 47.3273 76.0222 47.3273 71.41 47.3273C71.0894 47.3273 70.7689 47.3273 70.3949 47.3273C70.3949 50.6217 70.3949 53.8628 70.3949 57.1929C70.6442 57.2107 70.8935 57.2463 71.1607 57.2463C72.3538 57.2463 73.5291 57.2107 74.7223 57.2641C76.0935 57.3175 77.1619 57.2819 78.0345 55.7504C79.1742 53.7559 81.9345 53.2217 84.1249 54.0943C86.333 54.9669 87.5974 57.086 87.4193 59.6326C87.2591 61.7873 85.5495 63.7284 83.3413 64.227C81.0263 64.7613 78.64 63.764 77.5359 61.6627C77.1619 60.9504 76.7346 60.8079 76.0222 60.8257C74.1702 60.8613 72.3004 60.8435 70.3237 60.8435C70.5374 63.764 70.1634 66.4174 67.9374 68.4831C65.7114 70.5489 62.969 70.5845 60.1019 70.4242C60.1019 71.9379 60.1375 73.3269 60.1019 74.7159C60.0663 75.9447 59.4252 76.657 58.3923 76.6926C57.2882 76.7282 56.5403 75.9625 56.5225 74.6803C56.4869 73.3269 56.5225 71.9557 56.5225 70.5311C53.4595 70.5311 50.4144 70.5311 47.2624 70.5311C47.2624 71.6708 47.2624 72.8461 47.2624 74.0036C47.2624 74.5022 47.2624 75.0187 47.2624 75.5173C47.2445 76.9597 46.6035 77.6364 45.161 77.6721C43.9145 77.7077 42.6679 77.6721 41.4213 77.6721C40.4419 77.6721 39.4625 77.6721 38.3762 77.6721C38.3762 78.6337 38.3406 79.5419 38.4118 80.4323C38.4296 80.6282 38.7858 80.8241 39.0173 80.9487C41.2255 82.124 42.383 84.5815 41.7953 86.9144C41.1364 89.4431 39.0529 91.0815 36.4885 91.028C34.0488 90.9924 32.0187 89.3185 31.4133 86.8432C30.8612 84.6172 31.9297 82.1597 34.0488 81.0734C34.7077 80.735 34.9036 80.3432 34.868 79.6487C34.8146 78.4912 34.8502 77.3337 34.8502 76.1762C34.868 74.7159 35.5447 74.0392 37.0406 74.0214C39.1063 74.0036 41.1898 74.0214 43.2556 74.0036C43.3624 74.0036 43.4871 73.9858 43.6651 73.968C43.6651 72.8283 43.6651 71.6708 43.6651 70.4064C43.3624 70.4064 43.0597 70.4064 42.7391 70.4064C38.1803 70.4064 33.6036 70.2817 29.0626 70.442C24.7175 70.6023 21.1024 67.9845 20.586 63.3366C20.2833 63.3366 19.9627 63.3366 19.5888 63.3366C19.571 63.5859 19.5532 63.8353 19.5532 64.1024C19.5532 67.1832 19.5532 70.2639 19.5353 73.3447C19.5353 73.8611 19.6244 74.1817 20.1586 74.4488C22.6695 75.731 23.7024 78.42 22.7586 81.0556C21.886 83.4953 19.1792 84.9733 16.6148 84.4035C14.0327 83.8336 12.2341 81.3939 12.4834 78.6693C12.6615 76.7638 13.6587 75.3392 15.3505 74.4666C15.9025 74.1817 16.0272 73.8611 16.0272 73.3091C16.0094 69.516 16.0094 65.7229 16.0094 61.9298C16.0094 60.3449 16.6148 59.7216 18.1819 59.686C18.9477 59.6682 19.7134 59.686 20.5504 59.686C20.5504 57.923 20.5504 56.2313 20.5504 54.4683C16.1162 54.4683 11.6642 54.4683 7.10538 54.4683C7.10538 56.7655 7.08757 59.0805 7.141 61.3778C7.141 61.5915 7.51496 61.8586 7.76428 61.9832C9.77658 63.0873 10.8629 65.0996 10.6492 67.3612C10.4355 69.4804 8.86837 71.2968 6.6958 71.9023C4.13145 72.6146 1.28217 71.1543 0.356159 68.6434C0.249312 68.3407 0.124656 68.0557 0 67.753C0 67.0941 0 66.453 0 65.7941C0.534239 64.0133 1.49587 62.6065 3.25886 61.8051C3.43694 61.7161 3.54379 61.2709 3.54379 60.986C3.54379 58.386 3.54379 55.7682 3.54379 53.1683C3.54379 51.4587 4.13145 50.8711 5.82321 50.8711C10.4177 50.8711 15.0121 50.8711 19.5888 50.8711C19.9093 50.8711 20.212 50.8711 20.5326 50.8711C20.5326 49.4998 20.5326 48.2355 20.5326 46.9177C20.1586 46.9177 19.8381 46.9177 19.5175 46.9177C17.0244 46.9177 14.5491 46.9177 12.056 46.9177C10.3999 46.9177 9.74096 46.241 9.74096 44.6026C9.74096 39.5452 9.72315 34.4699 9.75877 29.4124C9.75877 28.8248 9.5985 28.5399 9.06426 28.2727C6.87388 27.1686 5.75198 24.6755 6.33964 22.3783C6.96292 19.903 9.09987 18.1934 11.5396 18.2112C13.9971 18.229 16.0984 19.9208 16.7217 22.3961C17.2915 24.6933 16.1696 27.1686 13.9615 28.2727C13.4094 28.5577 13.2847 28.8604 13.2847 29.4303C13.3026 33.7576 13.3026 38.0849 13.3026 42.4123C13.3026 42.6972 13.3026 42.9821 13.3026 43.2492C15.7957 43.2492 18.1463 43.2492 20.6038 43.2492C20.6038 42.8753 20.6038 42.5547 20.6038 42.2342C20.6038 37.5863 20.586 32.9384 20.6038 28.2905C20.6216 25.2098 21.975 22.8413 24.7709 21.5057C25.8572 20.9893 27.1393 20.8112 28.3503 20.7044C29.7749 20.5797 31.2174 20.6687 32.642 20.6687C32.642 17.4277 32.642 14.3291 32.642 11.2305C30.9324 10.91 30.7366 10.9812 29.8818 12.2634C28.6352 14.151 26.2668 15.077 24.1476 14.4894C21.797 13.8483 20.2299 11.9072 20.1052 9.46752C19.9984 7.33056 21.4942 5.08676 23.5421 4.33883C25.7503 3.51966 28.3859 4.07171 29.5612 6.03058C30.416 7.43741 31.4133 7.66892 32.7845 7.52645C33.1584 7.49084 33.5502 7.52645 33.942 7.52645C35.6516 7.54426 36.2926 8.16754 36.2926 9.89491C36.2926 13.1538 36.2926 16.4126 36.2926 19.6715C36.2926 19.992 36.2926 20.2948 36.2926 20.6687C37.6461 20.6687 38.857 20.6687 40.0679 20.6687C41.2789 20.6687 42.472 20.6687 43.7186 20.6687C43.7186 18.9236 43.7186 17.303 43.7186 15.6825C43.7186 14.151 44.3775 13.4743 45.9268 13.4565C47.7966 13.4387 49.6664 13.4565 51.5185 13.4565C51.8568 13.4565 52.1952 13.4565 52.5869 13.4565C52.5869 12.6373 52.5513 11.9606 52.6047 11.2839C52.6582 10.6607 52.4089 10.3757 51.8746 10.0908C49.9336 9.04013 48.9541 7.34837 49.061 5.14018C49.1678 2.96761 50.3075 1.43613 52.2664 0.492304C52.6048 0.332032 52.9609 0.207377 53.2993 0.0649128C54.0116 0.0292969 54.7239 0.0292969 55.4362 0.0292969ZM45.5528 24.1947C39.9255 24.1947 34.2982 24.1947 28.6708 24.1947C25.7325 24.1947 24.1476 25.7618 24.1476 28.6823C24.1476 39.9013 24.1476 51.1382 24.1476 62.3572C24.1476 65.2777 25.7325 66.8626 28.653 66.8626C39.872 66.8626 51.1089 66.8626 62.3279 66.8626C65.2484 66.8626 66.8155 65.2777 66.8155 62.3394C66.8155 51.1382 66.8155 39.9548 66.8155 28.7536C66.8155 25.7618 65.2484 24.2125 62.2745 24.2125C56.7006 24.1947 51.1267 24.1947 45.5528 24.1947ZM56.1307 5.35388C56.1307 4.42787 55.2581 3.59089 54.3499 3.6087C53.4595 3.62651 52.6404 4.42787 52.6226 5.33607C52.5869 6.24428 53.4417 7.11687 54.3677 7.13468C55.2581 7.13468 56.1307 6.27989 56.1307 5.35388ZM36.6132 83.9405C35.705 83.9227 34.8324 84.7952 34.8502 85.7034C34.8502 86.5938 35.6516 87.413 36.542 87.4486C37.4502 87.4842 38.3228 86.6473 38.3584 85.7213C38.3762 84.813 37.5392 83.9583 36.6132 83.9405ZM25.4298 7.59768C24.4682 7.59768 23.7024 8.39904 23.7202 9.36067C23.738 10.3223 24.5572 11.088 25.501 11.0702C26.427 11.0346 27.175 10.2689 27.175 9.34287C27.1928 8.38124 26.3914 7.57988 25.4298 7.59768ZM75.0072 15.362C75.9688 15.3442 76.7702 14.5428 76.7346 13.599C76.6989 12.6908 75.9154 11.925 74.9894 11.925C74.0277 11.9072 73.2086 12.7264 73.2086 13.6524C73.2264 14.5962 74.0277 15.3798 75.0072 15.362ZM13.2847 23.518C13.2669 22.5742 12.4478 21.7906 11.4861 21.8084C10.5245 21.8263 9.72315 22.6632 9.77658 23.5892C9.83 24.4974 10.6314 25.2632 11.5396 25.2632C12.4834 25.281 13.3026 24.444 13.2847 23.518ZM85.6742 33.1343C86.6358 33.1343 87.4371 32.3151 87.4193 31.3713C87.3837 30.4631 86.6002 29.6974 85.692 29.6796C84.7481 29.6618 83.9112 30.4631 83.9112 31.4069C83.8934 32.3686 84.6947 33.1521 85.6742 33.1343ZM82.166 57.2463C81.2222 57.2285 80.4208 58.0299 80.403 58.9915C80.403 59.9531 81.1865 60.7367 82.1482 60.7367C83.0564 60.7367 83.8399 59.9709 83.8756 59.0449C83.9112 58.1011 83.1098 57.2641 82.166 57.2463ZM5.30678 65.0284C4.32734 65.0284 3.52598 65.8297 3.54379 66.7736C3.56159 67.6996 4.39857 68.5009 5.3602 68.4653C6.26841 68.4475 7.06977 67.6462 7.06977 66.7558C7.08757 65.8119 6.28621 65.0284 5.30678 65.0284ZM17.7902 77.4762C16.8107 77.4584 16.0094 78.2241 15.9916 79.1679C15.9738 80.0939 16.8107 80.9131 17.7545 80.9131C18.6806 80.9131 19.4641 80.1652 19.4997 79.2391C19.5532 78.3131 18.7518 77.494 17.7902 77.4762Z" fill="url(#paint0_linear_64_403)"/>
<path d="M74.2057 76.657C73.1194 76.657 72.0331 76.6748 70.9468 76.657C69.629 76.6392 68.8277 75.9803 68.792 74.9118C68.7564 73.8433 69.6468 73.0954 70.9646 73.0776C72.5673 73.0598 74.1522 73.0598 75.755 73.0776C77.144 73.0954 77.8207 73.7365 77.8741 75.1255C77.9097 76.0693 77.8385 77.0309 77.9097 77.9569C77.9275 78.2775 78.1769 78.7405 78.4618 78.883C80.8659 80.2007 81.9699 82.7295 81.1864 85.2582C80.4385 87.6979 77.9988 89.3006 75.5235 88.9979C72.8701 88.6773 70.8756 86.576 70.7687 83.8514C70.6975 81.9103 71.4632 80.2186 73.1728 79.2925C74.3838 78.6693 74.4372 77.8501 74.2057 76.657ZM74.3837 83.7445C74.4016 84.7062 75.2029 85.5075 76.1467 85.4719C77.0549 85.4363 77.8207 84.6527 77.8385 83.7445C77.8563 82.8007 77.0371 81.9637 76.1111 81.9637C75.1495 81.9637 74.3837 82.7651 74.3837 83.7445Z" fill="black"/>
<path d="M74.2057 76.657C73.1194 76.657 72.0331 76.6748 70.9468 76.657C69.629 76.6392 68.8277 75.9803 68.792 74.9118C68.7564 73.8433 69.6468 73.0954 70.9646 73.0776C72.5673 73.0598 74.1522 73.0598 75.755 73.0776C77.144 73.0954 77.8207 73.7365 77.8741 75.1255C77.9097 76.0693 77.8385 77.0309 77.9097 77.9569C77.9275 78.2775 78.1769 78.7405 78.4618 78.883C80.8659 80.2007 81.9699 82.7295 81.1864 85.2582C80.4385 87.6979 77.9988 89.3006 75.5235 88.9979C72.8701 88.6773 70.8756 86.576 70.7687 83.8514C70.6975 81.9103 71.4632 80.2186 73.1728 79.2925C74.3838 78.6693 74.4372 77.8501 74.2057 76.657ZM74.3837 83.7445C74.4016 84.7062 75.2029 85.5075 76.1467 85.4719C77.0549 85.4363 77.8207 84.6527 77.8385 83.7445C77.8563 82.8007 77.0371 81.9637 76.1111 81.9637C75.1495 81.9637 74.3837 82.7651 74.3837 83.7445Z" fill="url(#paint1_linear_64_403)"/>
<path d="M65.4797 76.6393C64.4825 76.6393 63.6455 75.8379 63.6455 74.8763C63.6455 73.9325 64.5359 73.0777 65.4797 73.0955C66.4057 73.1133 67.2249 73.9147 67.2605 74.8407C67.2961 75.8201 66.477 76.6393 65.4797 76.6393Z" fill="black"/>
<path d="M65.4797 76.6393C64.4825 76.6393 63.6455 75.8379 63.6455 74.8763C63.6455 73.9325 64.5359 73.0777 65.4797 73.0955C66.4057 73.1133 67.2249 73.9147 67.2605 74.8407C67.2961 75.8201 66.477 76.6393 65.4797 76.6393Z" fill="url(#paint2_linear_64_403)"/>
<path d="M64.6782 44.2999C64.6604 55.1984 57.5194 63.3011 47.9209 64.5476C37.4142 65.9188 27.8335 58.5285 26.4623 47.9506C25.9103 43.7657 26.7472 39.8301 28.7417 36.1439C29.3116 35.111 30.2732 34.7727 31.1992 35.2357C32.1074 35.6987 32.3568 36.6603 31.9294 37.7644C31.3061 39.4206 30.5581 41.0411 30.1842 42.7507C28.902 48.7519 31.7157 55.234 36.9334 58.5819C46.4963 64.7435 59.0687 59.1518 60.9029 47.9506C62.4344 38.6192 55.0263 29.8933 45.5525 29.9111C44.1812 29.9111 42.7922 30.2316 41.421 30.4453C40.1032 30.6412 39.2662 30.2138 38.9991 29.1454C38.7498 28.1303 39.3731 27.2577 40.6553 26.9372C46.247 25.5838 51.5003 26.4207 56.2372 29.6796C61.7755 33.4727 64.5001 38.8685 64.6782 44.2999Z" fill="black"/>
<path d="M64.6782 44.2999C64.6604 55.1984 57.5194 63.3011 47.9209 64.5476C37.4142 65.9188 27.8335 58.5285 26.4623 47.9506C25.9103 43.7657 26.7472 39.8301 28.7417 36.1439C29.3116 35.111 30.2732 34.7727 31.1992 35.2357C32.1074 35.6987 32.3568 36.6603 31.9294 37.7644C31.3061 39.4206 30.5581 41.0411 30.1842 42.7507C28.902 48.7519 31.7157 55.234 36.9334 58.5819C46.4963 64.7435 59.0687 59.1518 60.9029 47.9506C62.4344 38.6192 55.0263 29.8933 45.5525 29.9111C44.1812 29.9111 42.7922 30.2316 41.421 30.4453C40.1032 30.6412 39.2662 30.2138 38.9991 29.1454C38.7498 28.1303 39.3731 27.2577 40.6553 26.9372C46.247 25.5838 51.5003 26.4207 56.2372 29.6796C61.7755 33.4727 64.5001 38.8685 64.6782 44.2999Z" fill="url(#paint3_linear_64_403)"/>
<path d="M36.9156 48.6271C36.8978 45.7066 37.7704 43.4272 39.0347 41.3615C40.495 38.9752 42.1867 36.7314 43.8785 34.4876C44.8757 33.152 46.0333 33.2233 47.1195 34.4876C49.8264 37.604 52.2482 40.9341 53.5126 44.9231C54.7235 48.7874 54.0646 52.3312 51.1441 55.2161C47.2798 59.0626 40.7265 57.9763 38.1621 53.1326C37.3252 51.5833 36.8978 49.9627 36.9156 48.6271ZM45.4812 38.1026C43.7538 40.2396 42.2936 42.3766 41.2785 44.7984C40.5128 46.6148 40.121 48.4669 40.8333 50.3901C41.51 52.2422 42.7388 53.5421 44.7333 53.8627C46.8524 54.201 48.4729 53.2572 49.5949 51.4764C50.4674 50.0874 50.6989 48.5559 50.3606 46.9532C49.5948 43.5697 47.636 40.8629 45.4812 38.1026Z" fill="black"/>
<path d="M36.9156 48.6271C36.8978 45.7066 37.7704 43.4272 39.0347 41.3615C40.495 38.9752 42.1867 36.7314 43.8785 34.4876C44.8757 33.152 46.0333 33.2233 47.1195 34.4876C49.8264 37.604 52.2482 40.9341 53.5126 44.9231C54.7235 48.7874 54.0646 52.3312 51.1441 55.2161C47.2798 59.0626 40.7265 57.9763 38.1621 53.1326C37.3252 51.5833 36.8978 49.9627 36.9156 48.6271ZM45.4812 38.1026C43.7538 40.2396 42.2936 42.3766 41.2785 44.7984C40.5128 46.6148 40.121 48.4669 40.8333 50.3901C41.51 52.2422 42.7388 53.5421 44.7333 53.8627C46.8524 54.201 48.4729 53.2572 49.5949 51.4764C50.4674 50.0874 50.6989 48.5559 50.3606 46.9532C49.5948 43.5697 47.636 40.8629 45.4812 38.1026Z" fill="url(#paint4_linear_64_403)"/>
<path d="M35.3666 32.8138C35.3488 33.7754 34.5652 34.5411 33.6036 34.5411C32.6241 34.5411 31.7872 33.7042 31.805 32.7425C31.8406 31.8343 32.6954 30.9973 33.6036 30.9973C34.583 30.9795 35.3844 31.8165 35.3666 32.8138Z" fill="black"/>
<path d="M35.3666 32.8138C35.3488 33.7754 34.5652 34.5411 33.6036 34.5411C32.6241 34.5411 31.7872 33.7042 31.805 32.7425C31.8406 31.8343 32.6954 30.9973 33.6036 30.9973C34.583 30.9795 35.3844 31.8165 35.3666 32.8138Z" fill="url(#paint5_linear_64_403)"/>
<defs>
<linearGradient id="paint0_linear_64_403" x1="-16.7906" y1="0.0292617" x2="77.0526" y2="2.31805" gradientUnits="userSpaceOnUse">
<stop stop-color="#37DADA"/>
<stop offset="1" stop-color="#254DB5"/>
</linearGradient>
<linearGradient id="paint1_linear_64_403" x1="66.4563" y1="73.0642" x2="79.5082" y2="73.3164" gradientUnits="userSpaceOnUse">
<stop stop-color="#37DADA"/>
<stop offset="1" stop-color="#254DB5"/>
</linearGradient>
<linearGradient id="paint2_linear_64_403" x1="62.9778" y1="73.0952" x2="66.7094" y2="73.1881" gradientUnits="userSpaceOnUse">
<stop stop-color="#37DADA"/>
<stop offset="1" stop-color="#254DB5"/>
</linearGradient>
<linearGradient id="paint3_linear_64_403" x1="19.209" y1="26.3166" x2="58.8181" y2="27.283" gradientUnits="userSpaceOnUse">
<stop stop-color="#37DADA"/>
<stop offset="1" stop-color="#254DB5"/>
</linearGradient>
<linearGradient id="paint4_linear_64_403" x1="33.7442" y1="33.5124" x2="51.4713" y2="33.8217" gradientUnits="userSpaceOnUse">
<stop stop-color="#37DADA"/>
<stop offset="1" stop-color="#254DB5"/>
</linearGradient>
<linearGradient id="paint5_linear_64_403" x1="31.147" y1="30.9971" x2="34.823" y2="31.0872" gradientUnits="userSpaceOnUse">
<stop stop-color="#37DADA"/>
<stop offset="1" stop-color="#254DB5"/>
</linearGradient>
</defs>
</svg>
