<svg width="108" height="91" viewBox="0 0 108 91" fill="none" xmlns="http://www.w3.org/2000/svg">
<path fill-rule="evenodd" clip-rule="evenodd" d="M36.7929 0.186665C35.9312 0.497406 35.1671 1.05363 34.7121 1.69997C33.9835 2.73785 33.8653 3.4743 33.8653 6.99033C33.8653 9.45451 33.8185 10.2485 33.6698 10.2888C32.9201 10.4908 30.4128 11.4681 29.1824 12.0368L27.7061 12.7188L25.1941 10.25C22.3341 7.43935 21.9118 7.18765 20.226 7.30107C19.6847 7.33836 18.9604 7.49839 18.6163 7.65687C17.7671 8.04996 10.7186 15.0556 10.3229 15.8993C10.1625 16.2411 10.0017 16.9605 9.96501 17.4996C9.85145 19.1745 10.1028 19.5924 12.9418 22.4466L15.4358 24.9527L15.0393 25.7296C14.8934 26.0154 14.7193 26.3868 14.5363 26.7969C14.0286 27.9327 13.4514 29.3699 13.2138 30.1219L12.9433 30.9764L9.36755 31.0541C6.16953 31.124 5.71646 31.166 5.08584 31.4565C4.2355 31.848 3.47687 32.5736 3.00898 33.4421C2.86537 33.7094 2.78108 33.8865 2.7319 34.4256C2.67766 35.0254 2.66634 36.071 2.664 38.184H4.22177C1.69508 40.1118 0.0348427 43.1374 0.0135673 46.4883C-0.00452242 50.8298 -0.00452242 55.1533 0.0135673 59.4948C0.0316569 62.154 0.899961 64.4875 2.72702 66.4412C2.81697 66.5424 2.89294 66.6576 2.981 66.7911C3.03462 66.8724 3.09271 66.9604 3.16117 67.0563H1.96725C0.447719 67.0563 0.0135673 67.4723 0.0135673 68.9557V81.9622C0.0135673 83.1561 0.465809 83.6083 1.64164 83.6264C1.95821 83.6309 2.27478 83.6377 2.59135 83.6445H2.5917C3.54129 83.6648 4.49088 83.6852 5.44047 83.6445C6.23641 83.5902 6.54394 83.8616 6.85146 84.6032C9.7639 91.821 19.2067 93.2682 24.0366 87.2082C24.6024 86.4948 25.0344 85.6811 25.4804 84.841L25.4804 84.8409C25.6904 84.4454 25.9034 84.044 26.135 83.6445C26.4477 83.6445 26.7713 83.6492 27.102 83.6539L27.1032 83.6539H27.1033C27.9012 83.6654 28.7412 83.6775 29.5721 83.6264C30.368 83.5721 30.6936 83.8435 30.9831 84.5852C33.9317 91.8572 43.4469 93.2501 48.2406 87.0996C48.7862 86.3929 49.2042 85.5927 49.6346 84.769L49.6346 84.7689C49.8322 84.3908 50.0323 84.0077 50.2486 83.6264C52.3334 83.6264 54.4239 83.6275 56.5189 83.6287H56.5195C62.8224 83.6321 69.166 83.6355 75.5199 83.6083C76.117 83.6083 76.2346 83.9323 76.3664 84.2951C76.3903 84.3609 76.4146 84.428 76.4424 84.4947C78.975 90.7718 86.446 92.9426 91.8186 88.9629C93.6457 87.6242 94.8396 85.8153 95.5632 83.6445C96.2559 83.6445 96.945 83.6356 97.6311 83.6267C99.131 83.6073 100.617 83.5881 102.094 83.6626C104.735 83.7892 106.544 82.7943 107.448 80.2798V61.9731C107.23 61.8363 107.015 61.693 106.799 61.5493C106.386 61.2748 105.97 60.9985 105.531 60.7611C104.398 60.1606 103.266 59.573 102.135 58.986L102.134 58.9857C100.573 58.1757 99.0148 57.3671 97.4626 56.5281C96.8657 56.2206 96.323 55.7321 95.925 55.1894C92.5965 50.6128 89.2861 46.018 86.03 41.387C85.3245 40.3921 84.5466 39.9218 83.2622 39.9399C80.4345 40.0056 77.6163 39.9949 74.7938 39.9841H74.7932C73.7338 39.9801 72.6738 39.976 71.6125 39.976C70.111 39.976 69.695 40.4102 69.6769 41.8935C69.6408 47.2662 69.6092 52.6434 69.5776 58.0207L69.5774 58.0476C69.5457 63.4338 69.5141 68.82 69.4779 74.2017V75.3775H63.7977V69.1547C63.7977 67.4181 63.4179 67.0563 61.7355 67.0382C61.5236 67.0382 61.3117 67.0188 61.043 66.9942C60.9447 66.9852 60.8388 66.9755 60.7225 66.9658C63.237 64.3428 63.9063 61.2676 63.8158 57.8848C63.7456 55.4506 63.7587 53.0087 63.7718 50.5642C63.7789 49.2302 63.786 47.8955 63.7797 46.5607C63.7435 40.6273 59.1125 36.0144 53.1791 35.9963H39.3405H38.2551V31.9985C38.4576 31.9985 38.6559 32.0006 38.8507 32.0026C39.2304 32.0066 39.5969 32.0105 39.9556 31.9985C41.0048 31.9623 41.5475 31.492 41.5475 30.479C41.5655 27.9283 41.5655 25.3777 41.5475 22.827C41.5294 21.8683 41.0048 21.3256 40.046 21.3256C34.7096 21.3075 29.355 21.3075 24.0005 21.3256C23.0236 21.3437 22.4809 21.8502 22.4809 22.8089C22.4628 25.3958 22.4628 27.9826 22.4809 30.5694C22.4809 31.492 23.0055 31.9804 23.9281 32.0166C24.2927 32.0287 24.6573 32.0246 25.0109 32.0205C25.1836 32.0185 25.3538 32.0166 25.52 32.0166V36.0144C23.8319 36.0144 22.1518 36.0124 20.4778 36.0104H20.477H20.4733C17.1441 36.0063 13.8389 36.0024 10.5418 36.0144C8.55518 36.0207 6.68222 36.5994 5.08231 37.591C5.11875 35.9932 5.19935 34.7089 5.32466 34.4691C5.77734 33.5991 6.09149 33.5416 10.3627 33.5416C13.5068 33.5416 14.3072 33.4981 14.5702 33.3147C14.7884 33.1625 15.1162 32.4136 15.5685 31.0292C15.7125 30.5895 15.9134 30.0489 16.1374 29.4895C16.4902 28.607 16.9 27.6779 17.2336 27.0238C17.7788 25.9533 18.2252 24.9092 18.2252 24.701C18.2252 24.4229 17.4807 23.5761 15.3316 21.4134L12.4384 18.5002V16.9946L19.7183 9.75903H21.2336L24.1643 12.6349C25.1395 13.592 25.8517 14.271 26.3649 14.7278C26.9885 15.284 27.3182 15.5108 27.4696 15.5108C27.6753 15.5093 28.7481 15.0603 29.8528 14.5103C30.9576 13.9587 32.773 13.2145 33.8871 12.8556C35.2432 12.4174 35.9882 12.0943 36.1404 11.8783C36.3246 11.6173 36.3679 10.8218 36.3679 7.69571C36.3679 3.451 36.4261 3.1387 37.301 2.68968C37.9933 2.33388 47.2677 2.3401 47.9616 2.69745C48.7963 3.12627 48.8798 3.58772 48.8798 7.77651C48.8798 10.8311 48.9235 11.6173 49.1073 11.8783C49.2603 12.0958 50.015 12.4205 51.4074 12.8695C52.5473 13.2378 54.3611 13.9836 55.4378 14.5258C56.5149 15.0665 57.5662 15.5108 57.7742 15.5108C58.0551 15.5108 58.907 14.7697 61.0834 12.6349L64.0141 9.75903H65.5294L72.8093 16.9946V18.5002L69.9161 21.4134C68.7442 22.5926 67.9903 23.3804 67.5466 23.8993C67.1766 24.3312 67.0225 24.5752 67.0225 24.701C67.0225 24.9092 67.4689 25.9533 68.0141 27.0238C68.5596 28.0943 69.3089 29.8966 69.6792 31.0292C70.1315 32.4136 70.4593 33.1625 70.6775 33.3147C70.9405 33.4981 71.7409 33.5416 74.885 33.5416C79.1562 33.5416 79.4704 33.5991 79.923 34.4691C80.0631 34.7395 80.1474 36.3196 80.1767 38.184H82.5841C82.5829 37.0809 82.579 36.2683 82.5681 35.6593C82.5388 34.0496 82.4588 33.8508 82.2387 33.4421C81.7708 32.5736 81.0122 31.848 80.1619 31.4565C79.7607 31.2716 79.4313 31.1877 78.421 31.1318C77.8434 31.1007 77.0435 31.079 75.8801 31.0541L72.3044 30.9764L72.0339 30.1219C71.9469 29.8453 71.8138 29.4771 71.6554 29.0654C71.2265 27.9514 70.6103 26.5188 70.2084 25.7296L69.8119 24.9527L72.3059 22.4466C75.1449 19.5924 75.3962 19.1745 75.2827 17.4996C75.246 16.9605 75.0856 16.2411 74.9256 15.8993C74.7414 15.5046 73.2601 13.9105 70.8679 11.5318C66.7259 7.41294 66.5167 7.26845 64.6877 7.27622C63.2426 7.28088 62.6639 7.65532 59.9778 10.3153L57.5474 12.7219L56.068 12.0352C55.7547 11.8892 55.357 11.7151 54.9363 11.538C54.2647 11.2537 53.5346 10.9616 52.9957 10.7643L51.4031 10.1785L51.3535 6.66561C51.309 3.49295 51.2724 3.08588 50.9777 2.45197C50.584 1.60675 49.8538 0.853204 48.9789 0.388647C48.3514 0.0546004 48.1723 0.0437245 42.8584 0.00954304C40.794 -0.00444029 39.4247 -0.00444029 38.5064 0.0188653C37.5016 0.0452782 37.0368 0.0981042 36.7929 0.186665ZM45.2739 67.0201V39.0354H18.7545V67.0201H45.2739ZM104.445 75.468C104.456 75.4053 104.466 75.3486 104.476 75.2967C104.499 75.1688 104.518 75.0696 104.518 74.9796C104.518 74.0798 104.519 73.18 104.52 72.2802V72.2782C104.523 69.5788 104.527 66.8794 104.499 64.18C104.499 63.8363 104.156 63.366 103.83 63.2032C101.225 61.8464 98.6023 60.544 95.9793 59.2777C95.5089 59.0425 94.9301 58.9159 94.3874 58.9159C87.4771 58.8978 80.5488 58.8978 73.6385 58.8978H72.5351V75.4861C72.9048 75.4861 73.27 75.4872 73.6317 75.4883H73.6321C74.7036 75.4917 75.7449 75.495 76.7861 75.468C77.0756 75.4499 77.4554 75.2509 77.6183 75.0157C81.3447 69.6974 89.8288 69.2451 94.0618 75.0519C94.2065 75.2509 94.4959 75.4499 94.713 75.4499C97.933 75.468 101.171 75.468 104.445 75.468ZM15.7154 38.9811C15.1047 38.9811 14.5033 38.968 13.9082 38.9551C12.6527 38.9277 11.4254 38.901 10.1981 38.9992C6.18214 39.3248 3.07072 42.5629 2.98027 46.5245C2.88982 50.8479 2.90791 55.1894 2.98027 59.531C3.05263 63.1308 5.44047 66.2061 8.80515 66.7849C10.3225 67.0419 11.8729 67.0754 13.4452 67.1093H13.4454C14.1974 67.1256 14.9545 67.1419 15.7154 67.1829V38.9811ZM48.3311 39.0535V67.0744C48.8705 67.0744 49.4059 67.0764 49.9378 67.0784H49.9397H49.9406C50.9955 67.0824 52.037 67.0864 53.0706 67.0744C57.4664 67.0382 60.7406 63.9268 60.831 59.5491C60.9396 55.2256 60.9215 50.8841 60.831 46.5426C60.7587 42.6895 58.1176 39.6323 54.3007 39.1077C52.9638 38.9203 51.5925 38.9659 50.2045 39.012C49.5828 39.0327 48.9578 39.0535 48.3311 39.0535ZM2.99836 75.468C3.37705 75.468 3.74656 75.4649 4.10956 75.4619C4.99507 75.4546 5.84186 75.4476 6.68866 75.4861C7.37606 75.5222 7.81021 75.2871 8.24437 74.7444C12.4231 69.4803 20.1655 69.5526 24.308 74.8348C24.5793 75.1785 25.1401 75.4318 25.5743 75.4499C26.5663 75.4912 27.5642 75.4853 28.5647 75.4794C29.3156 75.475 30.0679 75.4706 30.8203 75.4861C31.5077 75.5042 31.9418 75.2871 32.376 74.7444C36.5547 69.4803 44.2971 69.5526 48.4396 74.8348C48.711 75.1785 49.2717 75.4499 49.7059 75.4499C53.1248 75.5042 56.5619 75.4861 59.9808 75.468C60.1143 75.468 60.2478 75.4592 60.3834 75.4503H60.3835C60.5236 75.4411 60.6659 75.4318 60.813 75.4318V70.0953H3.01645C2.99836 71.8862 2.99836 73.6228 2.99836 75.468ZM72.6255 55.8769H92.3613C92.3576 55.8469 92.3546 55.8201 92.352 55.7959L92.3519 55.795V55.7949C92.3417 55.7026 92.3357 55.6484 92.3071 55.6055C91.6926 54.7414 91.0789 53.8773 90.4654 53.0133L90.464 53.0114C88.1881 49.8066 85.9138 46.6042 83.6059 43.4131C83.407 43.1417 82.9185 42.9427 82.5748 42.9427C80.8784 42.9156 79.1718 42.919 77.4702 42.9224H77.4685C76.9026 42.9235 76.3373 42.9247 75.7731 42.9247H72.6255V55.8769ZM16.1676 73.7856C11.8261 73.9123 9.0584 77.1503 9.07649 80.8225C9.09458 85.164 12.5859 87.9679 16.1496 88.0403C20.0569 88.1126 23.295 84.8565 23.295 80.9311C23.3131 76.9875 20.1112 73.7856 16.1676 73.7856ZM40.3535 88.0403C44.279 88.0222 47.4809 84.7841 47.4447 80.8587C47.4085 76.9151 44.1704 73.6952 40.245 73.7856C35.9758 73.8942 33.2262 77.096 33.2081 80.7682C33.19 85.1098 36.6994 87.9498 40.3535 88.0403ZM85.7948 88.0403C89.467 87.9317 92.9583 85.0736 92.9221 80.7502C92.904 77.0599 90.1363 73.8761 85.8852 73.7856C81.9598 73.6952 78.7398 76.9151 78.7036 80.8587C78.6675 84.7841 81.8693 88.0403 85.7948 88.0403ZM25.4476 29.0137H38.5446V24.3104H25.4476V29.0137ZM75.9902 78.4528H50.1581C50.2667 79.2306 50.3571 79.9361 50.4476 80.6416H75.7188C75.741 80.4554 75.7621 80.2736 75.7829 80.0942L75.7829 80.0941C75.8469 79.5416 75.9082 79.0126 75.9902 78.4528ZM35.2342 32.107H28.6133V35.9601H35.2342V32.107ZM95.9612 80.6235C96.0236 80.6391 96.0725 80.6547 96.1124 80.6674C96.1649 80.6842 96.2017 80.6959 96.2325 80.6959C97.28 80.6959 98.3229 80.7004 99.3658 80.7049L99.3711 80.7049C100.416 80.7094 101.46 80.714 102.51 80.714C104.083 80.714 104.59 80.1351 104.445 78.4709H95.6717C95.724 78.8276 95.7678 79.1719 95.8113 79.5136L95.8114 79.5142C95.8583 79.8827 95.9049 80.2482 95.9612 80.6235ZM30.4766 78.4528H26.0265C26.1191 79.1012 26.1986 79.7233 26.2761 80.3303L26.2762 80.3305L26.3159 80.6416H30.1871C30.2521 80.1223 30.317 79.6403 30.3886 79.1086L30.3889 79.1063C30.4169 78.8979 30.446 78.6818 30.4766 78.4528ZM6.32686 78.4709H3.03454V80.6235H6.05552C6.12787 80.0157 6.20023 79.4543 6.27258 78.8928L6.32686 78.4709ZM78.8669 64.7589C78.5902 64.7589 78.3115 64.7609 78.0321 64.7629H78.0309C77.4705 64.7669 76.9075 64.771 76.3524 64.7589C75.466 64.7227 74.9233 64.1438 74.9233 63.2936C74.9233 62.4434 75.466 61.8645 76.3705 61.8465C78.0469 61.8104 79.7053 61.8282 81.3815 61.8463L81.3994 61.8465C82.3039 61.8645 82.8285 62.353 82.8647 63.2574C82.9009 64.1438 82.3401 64.7046 81.3633 64.7589H81.2547H78.8669Z" fill="#1E98BA"/>
<path fill-rule="evenodd" clip-rule="evenodd" d="M36.7929 0.186665C35.9312 0.497406 35.1671 1.05363 34.7121 1.69997C33.9835 2.73785 33.8653 3.4743 33.8653 6.99033C33.8653 9.45451 33.8185 10.2485 33.6698 10.2888C32.9201 10.4908 30.4128 11.4681 29.1824 12.0368L27.7061 12.7188L25.1941 10.25C22.3341 7.43935 21.9118 7.18765 20.226 7.30107C19.6847 7.33836 18.9604 7.49839 18.6163 7.65687C17.7671 8.04996 10.7186 15.0556 10.3229 15.8993C10.1625 16.2411 10.0017 16.9605 9.96501 17.4996C9.85145 19.1745 10.1028 19.5924 12.9418 22.4466L15.4358 24.9527L15.0393 25.7296C14.8934 26.0154 14.7193 26.3868 14.5363 26.7969C14.0286 27.9327 13.4514 29.3699 13.2138 30.1219L12.9433 30.9764L9.36755 31.0541C6.16953 31.124 5.71646 31.166 5.08584 31.4565C4.2355 31.848 3.47687 32.5736 3.00898 33.4421C2.86537 33.7094 2.78108 33.8865 2.7319 34.4256C2.67766 35.0254 2.66634 36.071 2.664 38.184H4.22177C1.69508 40.1118 0.0348427 43.1374 0.0135673 46.4883C-0.00452242 50.8298 -0.00452242 55.1533 0.0135673 59.4948C0.0316569 62.154 0.899961 64.4875 2.72702 66.4412C2.81697 66.5424 2.89294 66.6576 2.981 66.7911C3.03462 66.8724 3.09271 66.9604 3.16117 67.0563H1.96725C0.447719 67.0563 0.0135673 67.4723 0.0135673 68.9557V81.9622C0.0135673 83.1561 0.465809 83.6083 1.64164 83.6264C1.95821 83.6309 2.27478 83.6377 2.59135 83.6445H2.5917C3.54129 83.6648 4.49088 83.6852 5.44047 83.6445C6.23641 83.5902 6.54394 83.8616 6.85146 84.6032C9.7639 91.821 19.2067 93.2682 24.0366 87.2082C24.6024 86.4948 25.0344 85.6811 25.4804 84.841L25.4804 84.8409C25.6904 84.4454 25.9034 84.044 26.135 83.6445C26.4477 83.6445 26.7713 83.6492 27.102 83.6539L27.1032 83.6539H27.1033C27.9012 83.6654 28.7412 83.6775 29.5721 83.6264C30.368 83.5721 30.6936 83.8435 30.9831 84.5852C33.9317 91.8572 43.4469 93.2501 48.2406 87.0996C48.7862 86.3929 49.2042 85.5927 49.6346 84.769L49.6346 84.7689C49.8322 84.3908 50.0323 84.0077 50.2486 83.6264C52.3334 83.6264 54.4239 83.6275 56.5189 83.6287H56.5195C62.8224 83.6321 69.166 83.6355 75.5199 83.6083C76.117 83.6083 76.2346 83.9323 76.3664 84.2951C76.3903 84.3609 76.4146 84.428 76.4424 84.4947C78.975 90.7718 86.446 92.9426 91.8186 88.9629C93.6457 87.6242 94.8396 85.8153 95.5632 83.6445C96.2559 83.6445 96.945 83.6356 97.6311 83.6267C99.131 83.6073 100.617 83.5881 102.094 83.6626C104.735 83.7892 106.544 82.7943 107.448 80.2798V61.9731C107.23 61.8363 107.015 61.693 106.799 61.5493C106.386 61.2748 105.97 60.9985 105.531 60.7611C104.398 60.1606 103.266 59.573 102.135 58.986L102.134 58.9857C100.573 58.1757 99.0148 57.3671 97.4626 56.5281C96.8657 56.2206 96.323 55.7321 95.925 55.1894C92.5965 50.6128 89.2861 46.018 86.03 41.387C85.3245 40.3921 84.5466 39.9218 83.2622 39.9399C80.4345 40.0056 77.6163 39.9949 74.7938 39.9841H74.7932C73.7338 39.9801 72.6738 39.976 71.6125 39.976C70.111 39.976 69.695 40.4102 69.6769 41.8935C69.6408 47.2662 69.6092 52.6434 69.5776 58.0207L69.5774 58.0476C69.5457 63.4338 69.5141 68.82 69.4779 74.2017V75.3775H63.7977V69.1547C63.7977 67.4181 63.4179 67.0563 61.7355 67.0382C61.5236 67.0382 61.3117 67.0188 61.043 66.9942C60.9447 66.9852 60.8388 66.9755 60.7225 66.9658C63.237 64.3428 63.9063 61.2676 63.8158 57.8848C63.7456 55.4506 63.7587 53.0087 63.7718 50.5642C63.7789 49.2302 63.786 47.8955 63.7797 46.5607C63.7435 40.6273 59.1125 36.0144 53.1791 35.9963H39.3405H38.2551V31.9985C38.4576 31.9985 38.6559 32.0006 38.8507 32.0026C39.2304 32.0066 39.5969 32.0105 39.9556 31.9985C41.0048 31.9623 41.5475 31.492 41.5475 30.479C41.5655 27.9283 41.5655 25.3777 41.5475 22.827C41.5294 21.8683 41.0048 21.3256 40.046 21.3256C34.7096 21.3075 29.355 21.3075 24.0005 21.3256C23.0236 21.3437 22.4809 21.8502 22.4809 22.8089C22.4628 25.3958 22.4628 27.9826 22.4809 30.5694C22.4809 31.492 23.0055 31.9804 23.9281 32.0166C24.2927 32.0287 24.6573 32.0246 25.0109 32.0205C25.1836 32.0185 25.3538 32.0166 25.52 32.0166V36.0144C23.8319 36.0144 22.1518 36.0124 20.4778 36.0104H20.477H20.4733C17.1441 36.0063 13.8389 36.0024 10.5418 36.0144C8.55518 36.0207 6.68222 36.5994 5.08231 37.591C5.11875 35.9932 5.19935 34.7089 5.32466 34.4691C5.77734 33.5991 6.09149 33.5416 10.3627 33.5416C13.5068 33.5416 14.3072 33.4981 14.5702 33.3147C14.7884 33.1625 15.1162 32.4136 15.5685 31.0292C15.7125 30.5895 15.9134 30.0489 16.1374 29.4895C16.4902 28.607 16.9 27.6779 17.2336 27.0238C17.7788 25.9533 18.2252 24.9092 18.2252 24.701C18.2252 24.4229 17.4807 23.5761 15.3316 21.4134L12.4384 18.5002V16.9946L19.7183 9.75903H21.2336L24.1643 12.6349C25.1395 13.592 25.8517 14.271 26.3649 14.7278C26.9885 15.284 27.3182 15.5108 27.4696 15.5108C27.6753 15.5093 28.7481 15.0603 29.8528 14.5103C30.9576 13.9587 32.773 13.2145 33.8871 12.8556C35.2432 12.4174 35.9882 12.0943 36.1404 11.8783C36.3246 11.6173 36.3679 10.8218 36.3679 7.69571C36.3679 3.451 36.4261 3.1387 37.301 2.68968C37.9933 2.33388 47.2677 2.3401 47.9616 2.69745C48.7963 3.12627 48.8798 3.58772 48.8798 7.77651C48.8798 10.8311 48.9235 11.6173 49.1073 11.8783C49.2603 12.0958 50.015 12.4205 51.4074 12.8695C52.5473 13.2378 54.3611 13.9836 55.4378 14.5258C56.5149 15.0665 57.5662 15.5108 57.7742 15.5108C58.0551 15.5108 58.907 14.7697 61.0834 12.6349L64.0141 9.75903H65.5294L72.8093 16.9946V18.5002L69.9161 21.4134C68.7442 22.5926 67.9903 23.3804 67.5466 23.8993C67.1766 24.3312 67.0225 24.5752 67.0225 24.701C67.0225 24.9092 67.4689 25.9533 68.0141 27.0238C68.5596 28.0943 69.3089 29.8966 69.6792 31.0292C70.1315 32.4136 70.4593 33.1625 70.6775 33.3147C70.9405 33.4981 71.7409 33.5416 74.885 33.5416C79.1562 33.5416 79.4704 33.5991 79.923 34.4691C80.0631 34.7395 80.1474 36.3196 80.1767 38.184H82.5841C82.5829 37.0809 82.579 36.2683 82.5681 35.6593C82.5388 34.0496 82.4588 33.8508 82.2387 33.4421C81.7708 32.5736 81.0122 31.848 80.1619 31.4565C79.7607 31.2716 79.4313 31.1877 78.421 31.1318C77.8434 31.1007 77.0435 31.079 75.8801 31.0541L72.3044 30.9764L72.0339 30.1219C71.9469 29.8453 71.8138 29.4771 71.6554 29.0654C71.2265 27.9514 70.6103 26.5188 70.2084 25.7296L69.8119 24.9527L72.3059 22.4466C75.1449 19.5924 75.3962 19.1745 75.2827 17.4996C75.246 16.9605 75.0856 16.2411 74.9256 15.8993C74.7414 15.5046 73.2601 13.9105 70.8679 11.5318C66.7259 7.41294 66.5167 7.26845 64.6877 7.27622C63.2426 7.28088 62.6639 7.65532 59.9778 10.3153L57.5474 12.7219L56.068 12.0352C55.7547 11.8892 55.357 11.7151 54.9363 11.538C54.2647 11.2537 53.5346 10.9616 52.9957 10.7643L51.4031 10.1785L51.3535 6.66561C51.309 3.49295 51.2724 3.08588 50.9777 2.45197C50.584 1.60675 49.8538 0.853204 48.9789 0.388647C48.3514 0.0546004 48.1723 0.0437245 42.8584 0.00954304C40.794 -0.00444029 39.4247 -0.00444029 38.5064 0.0188653C37.5016 0.0452782 37.0368 0.0981042 36.7929 0.186665ZM45.2739 67.0201V39.0354H18.7545V67.0201H45.2739ZM104.445 75.468C104.456 75.4053 104.466 75.3486 104.476 75.2967C104.499 75.1688 104.518 75.0696 104.518 74.9796C104.518 74.0798 104.519 73.18 104.52 72.2802V72.2782C104.523 69.5788 104.527 66.8794 104.499 64.18C104.499 63.8363 104.156 63.366 103.83 63.2032C101.225 61.8464 98.6023 60.544 95.9793 59.2777C95.5089 59.0425 94.9301 58.9159 94.3874 58.9159C87.4771 58.8978 80.5488 58.8978 73.6385 58.8978H72.5351V75.4861C72.9048 75.4861 73.27 75.4872 73.6317 75.4883H73.6321C74.7036 75.4917 75.7449 75.495 76.7861 75.468C77.0756 75.4499 77.4554 75.2509 77.6183 75.0157C81.3447 69.6974 89.8288 69.2451 94.0618 75.0519C94.2065 75.2509 94.4959 75.4499 94.713 75.4499C97.933 75.468 101.171 75.468 104.445 75.468ZM15.7154 38.9811C15.1047 38.9811 14.5033 38.968 13.9082 38.9551C12.6527 38.9277 11.4254 38.901 10.1981 38.9992C6.18214 39.3248 3.07072 42.5629 2.98027 46.5245C2.88982 50.8479 2.90791 55.1894 2.98027 59.531C3.05263 63.1308 5.44047 66.2061 8.80515 66.7849C10.3225 67.0419 11.8729 67.0754 13.4452 67.1093H13.4454C14.1974 67.1256 14.9545 67.1419 15.7154 67.1829V38.9811ZM48.3311 39.0535V67.0744C48.8705 67.0744 49.4059 67.0764 49.9378 67.0784H49.9397H49.9406C50.9955 67.0824 52.037 67.0864 53.0706 67.0744C57.4664 67.0382 60.7406 63.9268 60.831 59.5491C60.9396 55.2256 60.9215 50.8841 60.831 46.5426C60.7587 42.6895 58.1176 39.6323 54.3007 39.1077C52.9638 38.9203 51.5925 38.9659 50.2045 39.012C49.5828 39.0327 48.9578 39.0535 48.3311 39.0535ZM2.99836 75.468C3.37705 75.468 3.74656 75.4649 4.10956 75.4619C4.99507 75.4546 5.84186 75.4476 6.68866 75.4861C7.37606 75.5222 7.81021 75.2871 8.24437 74.7444C12.4231 69.4803 20.1655 69.5526 24.308 74.8348C24.5793 75.1785 25.1401 75.4318 25.5743 75.4499C26.5663 75.4912 27.5642 75.4853 28.5647 75.4794C29.3156 75.475 30.0679 75.4706 30.8203 75.4861C31.5077 75.5042 31.9418 75.2871 32.376 74.7444C36.5547 69.4803 44.2971 69.5526 48.4396 74.8348C48.711 75.1785 49.2717 75.4499 49.7059 75.4499C53.1248 75.5042 56.5619 75.4861 59.9808 75.468C60.1143 75.468 60.2478 75.4592 60.3834 75.4503H60.3835C60.5236 75.4411 60.6659 75.4318 60.813 75.4318V70.0953H3.01645C2.99836 71.8862 2.99836 73.6228 2.99836 75.468ZM72.6255 55.8769H92.3613C92.3576 55.8469 92.3546 55.8201 92.352 55.7959L92.3519 55.795V55.7949C92.3417 55.7026 92.3357 55.6484 92.3071 55.6055C91.6926 54.7414 91.0789 53.8773 90.4654 53.0133L90.464 53.0114C88.1881 49.8066 85.9138 46.6042 83.6059 43.4131C83.407 43.1417 82.9185 42.9427 82.5748 42.9427C80.8784 42.9156 79.1718 42.919 77.4702 42.9224H77.4685C76.9026 42.9235 76.3373 42.9247 75.7731 42.9247H72.6255V55.8769ZM16.1676 73.7856C11.8261 73.9123 9.0584 77.1503 9.07649 80.8225C9.09458 85.164 12.5859 87.9679 16.1496 88.0403C20.0569 88.1126 23.295 84.8565 23.295 80.9311C23.3131 76.9875 20.1112 73.7856 16.1676 73.7856ZM40.3535 88.0403C44.279 88.0222 47.4809 84.7841 47.4447 80.8587C47.4085 76.9151 44.1704 73.6952 40.245 73.7856C35.9758 73.8942 33.2262 77.096 33.2081 80.7682C33.19 85.1098 36.6994 87.9498 40.3535 88.0403ZM85.7948 88.0403C89.467 87.9317 92.9583 85.0736 92.9221 80.7502C92.904 77.0599 90.1363 73.8761 85.8852 73.7856C81.9598 73.6952 78.7398 76.9151 78.7036 80.8587C78.6675 84.7841 81.8693 88.0403 85.7948 88.0403ZM25.4476 29.0137H38.5446V24.3104H25.4476V29.0137ZM75.9902 78.4528H50.1581C50.2667 79.2306 50.3571 79.9361 50.4476 80.6416H75.7188C75.741 80.4554 75.7621 80.2736 75.7829 80.0942L75.7829 80.0941C75.8469 79.5416 75.9082 79.0126 75.9902 78.4528ZM35.2342 32.107H28.6133V35.9601H35.2342V32.107ZM95.9612 80.6235C96.0236 80.6391 96.0725 80.6547 96.1124 80.6674C96.1649 80.6842 96.2017 80.6959 96.2325 80.6959C97.28 80.6959 98.3229 80.7004 99.3658 80.7049L99.3711 80.7049C100.416 80.7094 101.46 80.714 102.51 80.714C104.083 80.714 104.59 80.1351 104.445 78.4709H95.6717C95.724 78.8276 95.7678 79.1719 95.8113 79.5136L95.8114 79.5142C95.8583 79.8827 95.9049 80.2482 95.9612 80.6235ZM30.4766 78.4528H26.0265C26.1191 79.1012 26.1986 79.7233 26.2761 80.3303L26.2762 80.3305L26.3159 80.6416H30.1871C30.2521 80.1223 30.317 79.6403 30.3886 79.1086L30.3889 79.1063C30.4169 78.8979 30.446 78.6818 30.4766 78.4528ZM6.32686 78.4709H3.03454V80.6235H6.05552C6.12787 80.0157 6.20023 79.4543 6.27258 78.8928L6.32686 78.4709ZM78.8669 64.7589C78.5902 64.7589 78.3115 64.7609 78.0321 64.7629H78.0309C77.4705 64.7669 76.9075 64.771 76.3524 64.7589C75.466 64.7227 74.9233 64.1438 74.9233 63.2936C74.9233 62.4434 75.466 61.8645 76.3705 61.8465C78.0469 61.8104 79.7053 61.8282 81.3815 61.8463L81.3994 61.8465C82.3039 61.8645 82.8285 62.353 82.8647 63.2574C82.9009 64.1438 82.3401 64.7046 81.3633 64.7589H81.2547H78.8669Z" fill="url(#paint0_linear_64_415)"/>
<defs>
<linearGradient id="paint0_linear_64_415" x1="-19.8393" y1="-3.5168e-05" x2="91.017" y2="3.19462" gradientUnits="userSpaceOnUse">
<stop stop-color="#37DADA"/>
<stop offset="1" stop-color="#254DB5"/>
</linearGradient>
</defs>
</svg>
