<svg width="91" height="91" viewBox="0 0 91 91" fill="none" xmlns="http://www.w3.org/2000/svg">
<path d="M44.0312 91C40.6785 89.456 37.3258 87.8238 33.9731 86.3239C23.3415 81.6918 12.7098 77.1039 2.1223 72.4277C1.24001 72.0307 -0.0393153 70.9278 0.048914 70.3543C0.225373 69.472 1.28413 68.5456 2.16642 68.0604C3.79866 67.134 5.60736 66.4722 7.72487 65.5458C5.51913 64.5753 3.53397 63.8254 1.72527 62.8107C0.975322 62.3696 0.0930287 61.4432 0.00479937 60.6932C-0.0393153 60.1197 0.975322 59.1933 1.68116 58.7963C3.48986 57.8258 5.38679 57.0758 7.72487 56.0612C5.51913 55.0907 3.6222 54.4289 1.90173 53.4584C1.06355 52.9732 0.0930287 52.0467 0.00479937 51.2086C-0.08343 50.6351 1.06355 49.5763 1.90173 49.2234C8.65128 46.1795 15.4449 43.2679 22.4592 40.224C19.6799 35.3714 18.4888 30.2541 18.8859 24.7839C19.2829 19.1813 21.2681 14.2405 24.7531 9.87312C25.5913 8.81437 26.5618 7.88796 27.8853 8.94672C29.3411 10.0496 28.547 11.2407 27.6647 12.3435C17.6507 25.4456 23.2532 43.8414 38.7375 48.3852C47.6045 50.988 55.5452 48.9587 61.8977 42.2092C68.162 35.5479 69.8824 27.4749 66.7062 18.9166C63.5299 10.3143 57.1333 5.19697 47.8692 4.13822C45.487 3.87353 43.0607 4.13822 40.6344 4.4029C39.311 4.53525 38.2081 4.57936 37.8552 3.07946C37.5023 1.49134 38.561 0.917844 39.9286 0.609042C51.7513 -2.08195 64.5005 4.35879 69.5295 15.6963C73.191 23.9457 72.5734 32.1069 68.2943 40.224C74.1175 42.7386 79.8524 45.2531 85.6314 47.7676C86.9107 48.3411 88.2341 48.7823 89.4252 49.4881C90.0428 49.841 90.7928 50.6792 90.7487 51.2086C90.7046 51.9144 89.9987 52.7526 89.337 53.1055C87.396 54.1201 85.3667 54.9583 83.0286 56.0171C85.2343 56.9876 87.1754 57.7375 88.9841 58.7522C89.7782 59.1933 90.6605 60.1197 90.7046 60.8697C90.7487 61.4432 89.734 62.3696 88.9841 62.7666C87.1754 63.7371 85.2785 64.443 82.9404 65.4576C85.0579 66.4281 86.8225 67.0899 88.4988 68.0163C89.4252 68.5456 90.0428 69.5162 90.8369 70.2661C90.0428 71.0161 89.3811 72.0748 88.4106 72.4718C75.2644 78.2509 62.0741 83.9858 48.8839 89.7207C48.0898 90.0736 47.384 90.5589 46.634 90.9559C45.7958 91 44.9135 91 44.0312 91ZM66.0886 43.3562C65.5151 43.9738 65.0739 44.459 64.6328 44.9443C54.7952 55.1789 38.7375 56.1935 28.2382 46.6648C25.1943 43.8855 23.1209 43.6208 19.7241 45.4737C15.6655 47.6794 11.254 49.2675 6.66612 51.2527C7.28372 51.5615 7.50429 51.6938 7.76898 51.8262C19.8564 57.1199 31.9879 62.4137 44.1195 67.5751C44.9577 67.928 46.2811 67.7516 47.1634 67.3987C57.0892 63.1636 66.9709 58.8404 76.8526 54.5172C79.1465 53.5025 81.4846 52.4879 84.2638 51.2968C77.8672 48.5176 72.0441 45.9589 66.0886 43.3562ZM84.1315 60.7815C83.0286 60.2521 82.3228 60.0315 81.7052 59.6345C79.323 58.0905 77.1172 58.3552 74.5586 59.5462C65.5592 63.693 56.4275 67.5751 47.3398 71.4131C46.2811 71.8542 44.693 71.8984 43.6342 71.4572C34.5025 67.6192 25.3266 63.8254 16.4155 59.5462C12.6216 57.7375 10.0188 59.0169 6.9308 60.7815C7.28372 61.002 7.46018 61.1344 7.63664 61.2226C19.8123 66.5164 31.9879 71.8542 44.1636 77.1039C44.9135 77.4127 46.0164 77.3245 46.8105 77.0157C51.4425 75.1187 55.9863 73.1336 60.5742 71.1043C68.2943 67.7075 76.0144 64.3547 84.1315 60.7815ZM6.71023 70.222C7.23961 70.5308 7.46018 70.6631 7.72487 70.7514C19.8123 76.0451 31.8997 81.3389 44.0312 86.5003C44.8253 86.8532 46.0605 86.8091 46.8987 86.4562C58.6773 81.383 70.4118 76.2657 82.1904 71.1484C82.7198 70.9278 83.2492 70.619 83.9991 70.1779C82.7639 69.6485 81.8375 69.3397 81.0435 68.8544C79.1465 67.7075 77.4261 67.7957 75.3527 68.7662C66.1327 72.9571 56.8245 76.8392 47.5604 80.9419C46.0164 81.6477 44.7371 81.6036 43.1931 80.8977C33.6202 76.6627 24.0032 72.516 14.3862 68.3692C13.6803 68.0604 12.7981 67.6633 12.1363 67.8839C10.3717 68.4574 8.69539 69.2956 6.71023 70.222Z" fill="black"/>
<path d="M44.0312 91C40.6785 89.456 37.3258 87.8238 33.9731 86.3239C23.3415 81.6918 12.7098 77.1039 2.1223 72.4277C1.24001 72.0307 -0.0393153 70.9278 0.048914 70.3543C0.225373 69.472 1.28413 68.5456 2.16642 68.0604C3.79866 67.134 5.60736 66.4722 7.72487 65.5458C5.51913 64.5753 3.53397 63.8254 1.72527 62.8107C0.975322 62.3696 0.0930287 61.4432 0.00479937 60.6932C-0.0393153 60.1197 0.975322 59.1933 1.68116 58.7963C3.48986 57.8258 5.38679 57.0758 7.72487 56.0612C5.51913 55.0907 3.6222 54.4289 1.90173 53.4584C1.06355 52.9732 0.0930287 52.0467 0.00479937 51.2086C-0.08343 50.6351 1.06355 49.5763 1.90173 49.2234C8.65128 46.1795 15.4449 43.2679 22.4592 40.224C19.6799 35.3714 18.4888 30.2541 18.8859 24.7839C19.2829 19.1813 21.2681 14.2405 24.7531 9.87312C25.5913 8.81437 26.5618 7.88796 27.8853 8.94672C29.3411 10.0496 28.547 11.2407 27.6647 12.3435C17.6507 25.4456 23.2532 43.8414 38.7375 48.3852C47.6045 50.988 55.5452 48.9587 61.8977 42.2092C68.162 35.5479 69.8824 27.4749 66.7062 18.9166C63.5299 10.3143 57.1333 5.19697 47.8692 4.13822C45.487 3.87353 43.0607 4.13822 40.6344 4.4029C39.311 4.53525 38.2081 4.57936 37.8552 3.07946C37.5023 1.49134 38.561 0.917844 39.9286 0.609042C51.7513 -2.08195 64.5005 4.35879 69.5295 15.6963C73.191 23.9457 72.5734 32.1069 68.2943 40.224C74.1175 42.7386 79.8524 45.2531 85.6314 47.7676C86.9107 48.3411 88.2341 48.7823 89.4252 49.4881C90.0428 49.841 90.7928 50.6792 90.7487 51.2086C90.7046 51.9144 89.9987 52.7526 89.337 53.1055C87.396 54.1201 85.3667 54.9583 83.0286 56.0171C85.2343 56.9876 87.1754 57.7375 88.9841 58.7522C89.7782 59.1933 90.6605 60.1197 90.7046 60.8697C90.7487 61.4432 89.734 62.3696 88.9841 62.7666C87.1754 63.7371 85.2785 64.443 82.9404 65.4576C85.0579 66.4281 86.8225 67.0899 88.4988 68.0163C89.4252 68.5456 90.0428 69.5162 90.8369 70.2661C90.0428 71.0161 89.3811 72.0748 88.4106 72.4718C75.2644 78.2509 62.0741 83.9858 48.8839 89.7207C48.0898 90.0736 47.384 90.5589 46.634 90.9559C45.7958 91 44.9135 91 44.0312 91ZM66.0886 43.3562C65.5151 43.9738 65.0739 44.459 64.6328 44.9443C54.7952 55.1789 38.7375 56.1935 28.2382 46.6648C25.1943 43.8855 23.1209 43.6208 19.7241 45.4737C15.6655 47.6794 11.254 49.2675 6.66612 51.2527C7.28372 51.5615 7.50429 51.6938 7.76898 51.8262C19.8564 57.1199 31.9879 62.4137 44.1195 67.5751C44.9577 67.928 46.2811 67.7516 47.1634 67.3987C57.0892 63.1636 66.9709 58.8404 76.8526 54.5172C79.1465 53.5025 81.4846 52.4879 84.2638 51.2968C77.8672 48.5176 72.0441 45.9589 66.0886 43.3562ZM84.1315 60.7815C83.0286 60.2521 82.3228 60.0315 81.7052 59.6345C79.323 58.0905 77.1172 58.3552 74.5586 59.5462C65.5592 63.693 56.4275 67.5751 47.3398 71.4131C46.2811 71.8542 44.693 71.8984 43.6342 71.4572C34.5025 67.6192 25.3266 63.8254 16.4155 59.5462C12.6216 57.7375 10.0188 59.0169 6.9308 60.7815C7.28372 61.002 7.46018 61.1344 7.63664 61.2226C19.8123 66.5164 31.9879 71.8542 44.1636 77.1039C44.9135 77.4127 46.0164 77.3245 46.8105 77.0157C51.4425 75.1187 55.9863 73.1336 60.5742 71.1043C68.2943 67.7075 76.0144 64.3547 84.1315 60.7815ZM6.71023 70.222C7.23961 70.5308 7.46018 70.6631 7.72487 70.7514C19.8123 76.0451 31.8997 81.3389 44.0312 86.5003C44.8253 86.8532 46.0605 86.8091 46.8987 86.4562C58.6773 81.383 70.4118 76.2657 82.1904 71.1484C82.7198 70.9278 83.2492 70.619 83.9991 70.1779C82.7639 69.6485 81.8375 69.3397 81.0435 68.8544C79.1465 67.7075 77.4261 67.7957 75.3527 68.7662C66.1327 72.9571 56.8245 76.8392 47.5604 80.9419C46.0164 81.6477 44.7371 81.6036 43.1931 80.8977C33.6202 76.6627 24.0032 72.516 14.3862 68.3692C13.6803 68.0604 12.7981 67.6633 12.1363 67.8839C10.3717 68.4574 8.69539 69.2956 6.71023 70.222Z" fill="url(#paint0_linear_64_419)"/>
<path d="M45.4432 41.724C37.9437 41.724 32.2088 33.9157 34.5028 26.5927C36.3997 20.549 40.0612 15.4758 43.7668 10.4026C44.6932 9.16741 46.0608 9.12329 46.9431 10.3585C50.9134 15.8287 55.1043 21.2107 56.6042 28.0044C58.0159 34.7539 52.281 41.724 45.4432 41.724ZM46.0167 14.77C45.5755 14.77 45.1785 14.77 44.7374 14.8141C42.5316 19.0932 40.1494 23.24 38.2525 27.6515C36.9291 30.7395 38.5172 34.6657 41.2523 36.6067C43.9433 38.5478 46.9431 38.5037 49.59 36.5626C52.3692 34.5333 53.8691 30.7395 52.5015 27.6073C50.5605 23.1959 48.1783 19.005 46.0167 14.77Z" fill="black"/>
<path d="M45.4432 41.724C37.9437 41.724 32.2088 33.9157 34.5028 26.5927C36.3997 20.549 40.0612 15.4758 43.7668 10.4026C44.6932 9.16741 46.0608 9.12329 46.9431 10.3585C50.9134 15.8287 55.1043 21.2107 56.6042 28.0044C58.0159 34.7539 52.281 41.724 45.4432 41.724ZM46.0167 14.77C45.5755 14.77 45.1785 14.77 44.7374 14.8141C42.5316 19.0932 40.1494 23.24 38.2525 27.6515C36.9291 30.7395 38.5172 34.6657 41.2523 36.6067C43.9433 38.5478 46.9431 38.5037 49.59 36.5626C52.3692 34.5333 53.8691 30.7395 52.5015 27.6073C50.5605 23.1959 48.1783 19.005 46.0167 14.77Z" fill="url(#paint1_linear_64_419)"/>
<path d="M35.2525 5.54992C34.0172 6.3881 33.2673 7.27039 32.6497 7.18216C31.988 7.09393 31.4145 6.12341 30.7969 5.5058C31.4586 4.8882 32.0321 3.87356 32.7379 3.74122C33.3114 3.65299 34.0614 4.66762 35.2525 5.54992Z" fill="black"/>
<path d="M35.2525 5.54992C34.0172 6.3881 33.2673 7.27039 32.6497 7.18216C31.988 7.09393 31.4145 6.12341 30.7969 5.5058C31.4586 4.8882 32.0321 3.87356 32.7379 3.74122C33.3114 3.65299 34.0614 4.66762 35.2525 5.54992Z" fill="url(#paint2_linear_64_419)"/>
<defs>
<linearGradient id="paint0_linear_64_419" x1="-16.7722" y1="-3.5168e-05" x2="76.9682" y2="2.28374" gradientUnits="userSpaceOnUse">
<stop stop-color="#37DADA"/>
<stop offset="1" stop-color="#254DB5"/>
</linearGradient>
<linearGradient id="paint1_linear_64_419" x1="29.7762" y1="9.45384" x2="53.3412" y2="9.86071" gradientUnits="userSpaceOnUse">
<stop stop-color="#37DADA"/>
<stop offset="1" stop-color="#254DB5"/>
</linearGradient>
<linearGradient id="paint2_linear_64_419" x1="29.9742" y1="3.73584" x2="34.5704" y2="3.88061" gradientUnits="userSpaceOnUse">
<stop stop-color="#37DADA"/>
<stop offset="1" stop-color="#254DB5"/>
</linearGradient>
</defs>
</svg>
