<svg width="91" height="92" viewBox="0 0 91 92" fill="none" xmlns="http://www.w3.org/2000/svg">
<path d="M0 40.0416C0.0706663 39.8281 0.141333 39.5908 0.211999 39.3772C1.05999 36.3873 3.72176 34.2517 6.80752 34.1805C9.79906 34.1331 12.7906 34.1568 15.8057 34.1568C16.795 34.1568 17.4075 34.7026 17.431 35.5331C17.4546 36.3636 16.7715 37.0043 15.8057 37.0043C12.979 37.0043 10.1759 37.0043 7.34929 37.0043C4.59331 37.0043 2.82665 38.784 2.82665 41.5365C2.82665 53.5434 2.82665 65.5503 2.82665 77.581C2.82665 79.0284 3.29776 79.4793 4.71109 79.503C6.00663 79.503 7.30218 79.503 8.59773 79.503C9.65772 79.503 10.3408 80.0963 10.3408 80.9742C10.3408 81.8047 9.70484 82.3742 8.64484 82.398C7.20796 82.4217 5.77108 82.4454 4.3342 82.398C2.30843 82.3505 0.918662 81.3302 0.188443 79.4081C0.141333 79.3132 0.0706663 79.2183 0 79.1234C0 66.0961 0 53.0689 0 40.0416Z" fill="black"/>
<path d="M0 40.0416C0.0706663 39.8281 0.141333 39.5908 0.211999 39.3772C1.05999 36.3873 3.72176 34.2517 6.80752 34.1805C9.79906 34.1331 12.7906 34.1568 15.8057 34.1568C16.795 34.1568 17.4075 34.7026 17.431 35.5331C17.4546 36.3636 16.7715 37.0043 15.8057 37.0043C12.979 37.0043 10.1759 37.0043 7.34929 37.0043C4.59331 37.0043 2.82665 38.784 2.82665 41.5365C2.82665 53.5434 2.82665 65.5503 2.82665 77.581C2.82665 79.0284 3.29776 79.4793 4.71109 79.503C6.00663 79.503 7.30218 79.503 8.59773 79.503C9.65772 79.503 10.3408 80.0963 10.3408 80.9742C10.3408 81.8047 9.70484 82.3742 8.64484 82.398C7.20796 82.4217 5.77108 82.4454 4.3342 82.398C2.30843 82.3505 0.918662 81.3302 0.188443 79.4081C0.141333 79.3132 0.0706663 79.2183 0 79.1234C0 66.0961 0 53.0689 0 40.0416Z" fill="url(#paint0_linear_37_1275)"/>
<path d="M21.8597 91.3674C20.6584 90.8928 19.3864 90.5843 18.3029 89.9437C14.6282 87.7843 12.9793 83.4182 14.1336 79.2893C15.2642 75.3028 18.9624 72.5028 23.1317 72.5028C27.8428 72.4791 31.965 76.1096 32.4361 80.6419C32.9543 85.8148 29.8686 90.2047 24.9926 91.1776C24.8277 91.2013 24.6628 91.2962 24.5215 91.3437C23.6264 91.3674 22.7548 91.3674 21.8597 91.3674ZM29.6801 81.947C29.6801 78.3164 26.8064 75.3977 23.226 75.374C19.5749 75.374 16.6775 78.269 16.6775 81.947C16.6775 85.5538 19.5749 88.5199 23.1317 88.5436C26.7357 88.5674 29.6566 85.6012 29.6801 81.947Z" fill="black"/>
<path d="M21.8597 91.3674C20.6584 90.8928 19.3864 90.5843 18.3029 89.9437C14.6282 87.7843 12.9793 83.4182 14.1336 79.2893C15.2642 75.3028 18.9624 72.5028 23.1317 72.5028C27.8428 72.4791 31.965 76.1096 32.4361 80.6419C32.9543 85.8148 29.8686 90.2047 24.9926 91.1776C24.8277 91.2013 24.6628 91.2962 24.5215 91.3437C23.6264 91.3674 22.7548 91.3674 21.8597 91.3674ZM29.6801 81.947C29.6801 78.3164 26.8064 75.3977 23.226 75.374C19.5749 75.374 16.6775 78.269 16.6775 81.947C16.6775 85.5538 19.5749 88.5199 23.1317 88.5436C26.7357 88.5674 29.6566 85.6012 29.6801 81.947Z" fill="url(#paint1_linear_37_1275)"/>
<path d="M70.7133 91.3675C69.5355 90.9167 68.2871 90.6082 67.2271 89.9912C63.4818 87.8082 61.8094 83.3471 63.0342 79.2182C64.2591 75.1131 68.0751 72.3606 72.3622 72.5267C77.2617 72.6928 80.9599 76.347 81.3839 81.4488C81.7608 85.981 78.4395 90.276 73.8697 91.2014C73.7048 91.2251 73.54 91.3201 73.3986 91.3675C72.48 91.3675 71.6084 91.3675 70.7133 91.3675ZM78.5101 81.9708C78.5337 78.3165 75.6835 75.3979 72.1031 75.3741C68.452 75.3504 65.5311 78.2454 65.5076 81.8996C65.484 85.5302 68.452 88.5438 72.0324 88.52C75.6364 88.52 78.5101 85.6014 78.5101 81.9708Z" fill="black"/>
<path d="M70.7133 91.3675C69.5355 90.9167 68.2871 90.6082 67.2271 89.9912C63.4818 87.8082 61.8094 83.3471 63.0342 79.2182C64.2591 75.1131 68.0751 72.3606 72.3622 72.5267C77.2617 72.6928 80.9599 76.347 81.3839 81.4488C81.7608 85.981 78.4395 90.276 73.8697 91.2014C73.7048 91.2251 73.54 91.3201 73.3986 91.3675C72.48 91.3675 71.6084 91.3675 70.7133 91.3675ZM78.5101 81.9708C78.5337 78.3165 75.6835 75.3979 72.1031 75.3741C68.452 75.3504 65.5311 78.2454 65.5076 81.8996C65.484 85.5302 68.452 88.5438 72.0324 88.52C75.6364 88.52 78.5101 85.6014 78.5101 81.9708Z" fill="url(#paint2_linear_37_1275)"/>
<path d="M58.9123 79.1233C59.4305 79.7403 59.9488 80.1437 60.1608 80.6895C60.4905 81.5912 59.7603 82.3268 58.6768 82.3742C56.9101 82.4217 55.1435 82.4454 53.4004 82.4454C47.9826 82.4454 42.5884 82.398 37.1707 82.3742C36.888 82.3742 36.5818 82.3742 36.2991 82.3505C35.4747 82.2556 34.9565 81.7573 34.9329 80.9979C34.9093 80.2149 35.4276 79.5979 36.252 79.503C36.5111 79.4793 36.7702 79.4793 37.0529 79.4793C42.824 79.4793 48.5715 79.4793 54.3426 79.4556C55.6852 79.4556 56.1328 79.0284 56.1328 77.6522C56.1328 65.5741 56.1328 53.496 56.1328 41.4179C56.1328 38.7365 54.3661 37.0043 51.7044 36.9806C50.9035 36.9806 50.1261 37.0043 49.3253 36.9806C48.4773 36.9568 47.8413 36.2924 47.8648 35.5094C47.8884 34.7263 48.4537 34.1331 49.3017 34.1568C50.6679 34.1805 52.0813 34.0619 53.4239 34.3229C56.6746 34.9636 58.8181 37.645 58.9594 40.967C58.983 41.6789 58.9594 42.3671 58.9594 43.1738C59.3834 43.1976 59.7132 43.2213 60.043 43.2213C64.1652 43.2213 68.2638 43.1976 72.386 43.2213C75.5189 43.245 78.5104 43.862 81.0309 45.9501C83.0095 47.5874 84.2108 49.7231 84.9882 52.1197C86.7077 57.3638 88.4273 62.6079 90.1233 67.8521C90.241 68.2317 90.3117 68.6588 90.3117 69.0622C90.3353 71.886 90.3353 74.686 90.3117 77.5098C90.3117 80.5946 87.6735 82.8013 84.6348 82.303C83.9046 82.1844 83.4571 81.7573 83.41 81.0217C83.3629 80.2623 83.7162 79.7878 84.4228 79.5505C84.6348 79.4793 84.894 79.4318 85.106 79.4793C86.8019 79.7166 87.7677 78.3166 87.3908 76.703C85.742 76.7742 84.1166 76.5369 83.0095 75.042C82.35 74.1403 82.138 73.1436 82.1851 72.0284C82.3029 69.6555 83.7633 68.4453 87.1553 67.9944C86.5193 66.0249 85.8597 64.0791 85.2237 62.1096C84.2108 59.0248 83.2451 55.9401 82.1851 52.879C80.6304 48.3942 77.9687 46.3535 73.2811 46.2112C68.7114 46.0688 64.1181 46.14 59.5248 46.14C59.3599 46.14 59.195 46.1874 58.9123 46.2349C58.9123 57.2926 58.9123 68.3266 58.9123 79.1233ZM87.4379 71.0317C86.6135 71.0317 85.7184 70.747 85.2944 71.6012C85.0824 72.0521 85.0824 72.8114 85.318 73.2623C85.7655 74.1165 86.6606 73.7843 87.4379 73.7843C87.4379 72.8352 87.4379 71.9572 87.4379 71.0317Z" fill="black"/>
<path d="M58.9123 79.1233C59.4305 79.7403 59.9488 80.1437 60.1608 80.6895C60.4905 81.5912 59.7603 82.3268 58.6768 82.3742C56.9101 82.4217 55.1435 82.4454 53.4004 82.4454C47.9826 82.4454 42.5884 82.398 37.1707 82.3742C36.888 82.3742 36.5818 82.3742 36.2991 82.3505C35.4747 82.2556 34.9565 81.7573 34.9329 80.9979C34.9093 80.2149 35.4276 79.5979 36.252 79.503C36.5111 79.4793 36.7702 79.4793 37.0529 79.4793C42.824 79.4793 48.5715 79.4793 54.3426 79.4556C55.6852 79.4556 56.1328 79.0284 56.1328 77.6522C56.1328 65.5741 56.1328 53.496 56.1328 41.4179C56.1328 38.7365 54.3661 37.0043 51.7044 36.9806C50.9035 36.9806 50.1261 37.0043 49.3253 36.9806C48.4773 36.9568 47.8413 36.2924 47.8648 35.5094C47.8884 34.7263 48.4537 34.1331 49.3017 34.1568C50.6679 34.1805 52.0813 34.0619 53.4239 34.3229C56.6746 34.9636 58.8181 37.645 58.9594 40.967C58.983 41.6789 58.9594 42.3671 58.9594 43.1738C59.3834 43.1976 59.7132 43.2213 60.043 43.2213C64.1652 43.2213 68.2638 43.1976 72.386 43.2213C75.5189 43.245 78.5104 43.862 81.0309 45.9501C83.0095 47.5874 84.2108 49.7231 84.9882 52.1197C86.7077 57.3638 88.4273 62.6079 90.1233 67.8521C90.241 68.2317 90.3117 68.6588 90.3117 69.0622C90.3353 71.886 90.3353 74.686 90.3117 77.5098C90.3117 80.5946 87.6735 82.8013 84.6348 82.303C83.9046 82.1844 83.4571 81.7573 83.41 81.0217C83.3629 80.2623 83.7162 79.7878 84.4228 79.5505C84.6348 79.4793 84.894 79.4318 85.106 79.4793C86.8019 79.7166 87.7677 78.3166 87.3908 76.703C85.742 76.7742 84.1166 76.5369 83.0095 75.042C82.35 74.1403 82.138 73.1436 82.1851 72.0284C82.3029 69.6555 83.7633 68.4453 87.1553 67.9944C86.5193 66.0249 85.8597 64.0791 85.2237 62.1096C84.2108 59.0248 83.2451 55.9401 82.1851 52.879C80.6304 48.3942 77.9687 46.3535 73.2811 46.2112C68.7114 46.0688 64.1181 46.14 59.5248 46.14C59.3599 46.14 59.195 46.1874 58.9123 46.2349C58.9123 57.2926 58.9123 68.3266 58.9123 79.1233ZM87.4379 71.0317C86.6135 71.0317 85.7184 70.747 85.2944 71.6012C85.0824 72.0521 85.0824 72.8114 85.318 73.2623C85.7655 74.1165 86.6606 73.7843 87.4379 73.7843C87.4379 72.8352 87.4379 71.9572 87.4379 71.0317Z" fill="url(#paint3_linear_37_1275)"/>
<path d="M51.1389 18.2108C51.0447 21.4854 50.2202 24.5228 48.5713 27.3228C44.0016 35.1059 39.4318 42.889 34.8621 50.6722C33.9434 52.2383 32.8363 52.2146 31.8941 50.6247C27.3715 42.9128 22.8488 35.2008 18.3262 27.4889C11.9191 16.5498 17.8079 3.26153 30.1981 0.698796C39.5732 -1.24699 49.3487 5.61071 50.762 15.1261C50.9269 16.1464 51.0211 17.1905 51.1389 18.2108ZM33.4016 47.5637C33.6136 47.2077 33.755 46.9704 33.8963 46.7331C37.9478 39.8043 41.9994 32.8754 46.0745 25.9702C47.9353 22.8143 48.5478 19.4447 48.006 15.8379C46.7811 7.69887 38.8901 2.00389 30.9048 3.47509C20.5404 5.37342 15.3582 16.8108 20.7053 25.9465C24.0266 31.6177 27.3715 37.289 30.6928 42.984C31.5643 44.4789 32.4594 45.9738 33.4016 47.5637Z" fill="black"/>
<path d="M51.1389 18.2108C51.0447 21.4854 50.2202 24.5228 48.5713 27.3228C44.0016 35.1059 39.4318 42.889 34.8621 50.6722C33.9434 52.2383 32.8363 52.2146 31.8941 50.6247C27.3715 42.9128 22.8488 35.2008 18.3262 27.4889C11.9191 16.5498 17.8079 3.26153 30.1981 0.698796C39.5732 -1.24699 49.3487 5.61071 50.762 15.1261C50.9269 16.1464 51.0211 17.1905 51.1389 18.2108ZM33.4016 47.5637C33.6136 47.2077 33.755 46.9704 33.8963 46.7331C37.9478 39.8043 41.9994 32.8754 46.0745 25.9702C47.9353 22.8143 48.5478 19.4447 48.006 15.8379C46.7811 7.69887 38.8901 2.00389 30.9048 3.47509C20.5404 5.37342 15.3582 16.8108 20.7053 25.9465C24.0266 31.6177 27.3715 37.289 30.6928 42.984C31.5643 44.4789 32.4594 45.9738 33.4016 47.5637Z" fill="url(#paint4_linear_37_1275)"/>
<path d="M71.9854 63.13C70.2423 63.13 68.5227 63.1538 66.7796 63.13C65.4369 63.13 64.6125 62.3707 64.589 60.9944C64.5654 57.9096 64.5654 54.8486 64.589 51.7638C64.6125 50.4113 65.4134 49.6045 66.7561 49.6282C68.7583 49.6519 70.7605 49.5807 72.7391 49.818C75.3773 50.1265 77.1676 51.7163 78.1098 54.2079C78.7458 55.9164 79.3111 57.6723 79.8293 59.4046C80.4182 61.3503 79.1226 63.0826 77.0969 63.1063C75.3773 63.1538 73.6813 63.13 71.9854 63.13ZM77.0969 60.2351C76.4844 58.4317 75.9427 56.6757 75.3067 54.9198C74.9298 53.8994 74.176 53.1876 73.1631 52.8316C71.3258 52.2147 69.4178 52.4994 67.5334 52.452C67.5334 55.1096 67.5334 57.6486 67.5334 60.2113C70.7134 60.2351 73.8698 60.2351 77.0969 60.2351Z" fill="black"/>
<path d="M71.9854 63.13C70.2423 63.13 68.5227 63.1538 66.7796 63.13C65.4369 63.13 64.6125 62.3707 64.589 60.9944C64.5654 57.9096 64.5654 54.8486 64.589 51.7638C64.6125 50.4113 65.4134 49.6045 66.7561 49.6282C68.7583 49.6519 70.7605 49.5807 72.7391 49.818C75.3773 50.1265 77.1676 51.7163 78.1098 54.2079C78.7458 55.9164 79.3111 57.6723 79.8293 59.4046C80.4182 61.3503 79.1226 63.0826 77.0969 63.1063C75.3773 63.1538 73.6813 63.13 71.9854 63.13ZM77.0969 60.2351C76.4844 58.4317 75.9427 56.6757 75.3067 54.9198C74.9298 53.8994 74.176 53.1876 73.1631 52.8316C71.3258 52.2147 69.4178 52.4994 67.5334 52.452C67.5334 55.1096 67.5334 57.6486 67.5334 60.2113C70.7134 60.2351 73.8698 60.2351 77.0969 60.2351Z" fill="url(#paint5_linear_37_1275)"/>
<path d="M19.2683 57.6247C19.2683 54.4687 19.2683 51.289 19.2683 48.133C19.2683 47.7771 19.2918 47.4212 19.3861 47.0889C19.5745 46.4008 20.0456 46.0686 20.7523 46.0686C21.4118 46.0686 21.8829 46.4245 22.0478 47.0652C22.142 47.4212 22.1656 47.8246 22.1656 48.2042C22.1656 54.5161 22.1656 60.8043 22.1656 67.1163C22.1656 67.2824 22.1656 67.4722 22.1656 67.6383C22.1185 68.6587 21.5296 69.3231 20.6816 69.2756C19.8807 69.2519 19.3154 68.6349 19.2683 67.662C19.2447 66.8315 19.2683 66.001 19.2683 65.1705C19.2683 62.6552 19.2683 60.1399 19.2683 57.6247Z" fill="black"/>
<path d="M19.2683 57.6247C19.2683 54.4687 19.2683 51.289 19.2683 48.133C19.2683 47.7771 19.2918 47.4212 19.3861 47.0889C19.5745 46.4008 20.0456 46.0686 20.7523 46.0686C21.4118 46.0686 21.8829 46.4245 22.0478 47.0652C22.142 47.4212 22.1656 47.8246 22.1656 48.2042C22.1656 54.5161 22.1656 60.8043 22.1656 67.1163C22.1656 67.2824 22.1656 67.4722 22.1656 67.6383C22.1185 68.6587 21.5296 69.3231 20.6816 69.2756C19.8807 69.2519 19.3154 68.6349 19.2683 67.662C19.2447 66.8315 19.2683 66.001 19.2683 65.1705C19.2683 62.6552 19.2683 60.1399 19.2683 57.6247Z" fill="url(#paint6_linear_37_1275)"/>
<path d="M13.7328 57.6008C13.7328 60.828 13.7328 64.0551 13.7328 67.2585C13.7328 67.6145 13.7799 68.0653 13.5914 68.2789C13.2381 68.6823 12.7434 69.1331 12.2488 69.2043C11.6128 69.2992 11.071 68.8721 10.9297 68.1602C10.859 67.828 10.8354 67.4484 10.8354 67.1162C10.8354 60.7805 10.8354 54.4686 10.8354 48.1329C10.8354 47.8956 10.8354 47.6583 10.859 47.4211C10.9768 46.5194 11.5421 45.9973 12.3666 46.021C13.1439 46.0448 13.6621 46.6143 13.7328 47.4685C13.7563 47.8007 13.7328 48.1092 13.7328 48.4414C13.7328 51.5262 13.7328 54.5635 13.7328 57.6008Z" fill="black"/>
<path d="M13.7328 57.6008C13.7328 60.828 13.7328 64.0551 13.7328 67.2585C13.7328 67.6145 13.7799 68.0653 13.5914 68.2789C13.2381 68.6823 12.7434 69.1331 12.2488 69.2043C11.6128 69.2992 11.071 68.8721 10.9297 68.1602C10.859 67.828 10.8354 67.4484 10.8354 67.1162C10.8354 60.7805 10.8354 54.4686 10.8354 48.1329C10.8354 47.8956 10.8354 47.6583 10.859 47.4211C10.9768 46.5194 11.5421 45.9973 12.3666 46.021C13.1439 46.0448 13.6621 46.6143 13.7328 47.4685C13.7563 47.8007 13.7328 48.1092 13.7328 48.4414C13.7328 51.5262 13.7328 54.5635 13.7328 57.6008Z" fill="url(#paint7_linear_37_1275)"/>
<path d="M47.535 57.6247C47.535 60.7807 47.535 63.9604 47.535 67.1163C47.535 67.4485 47.535 67.757 47.4643 68.0892C47.3466 68.8486 46.8284 69.2282 46.1217 69.252C45.415 69.2757 44.8968 68.8723 44.7084 68.1367C44.6377 67.8757 44.6377 67.6147 44.6377 67.3536C44.6377 60.8756 44.6377 54.3976 44.6377 47.9195C44.6377 46.7805 45.0617 46.1636 45.8626 46.0687C46.8283 45.95 47.4879 46.567 47.5115 47.6823C47.535 49.8179 47.5115 51.9535 47.5115 54.0654C47.535 55.2518 47.535 56.4383 47.535 57.6247Z" fill="black"/>
<path d="M47.535 57.6247C47.535 60.7807 47.535 63.9604 47.535 67.1163C47.535 67.4485 47.535 67.757 47.4643 68.0892C47.3466 68.8486 46.8284 69.2282 46.1217 69.252C45.415 69.2757 44.8968 68.8723 44.7084 68.1367C44.6377 67.8757 44.6377 67.6147 44.6377 67.3536C44.6377 60.8756 44.6377 54.3976 44.6377 47.9195C44.6377 46.7805 45.0617 46.1636 45.8626 46.0687C46.8283 45.95 47.4879 46.567 47.5115 47.6823C47.535 49.8179 47.5115 51.9535 47.5115 54.0654C47.535 55.2518 47.535 56.4383 47.535 57.6247Z" fill="url(#paint8_linear_37_1275)"/>
<path d="M65.3664 27.465C62.8224 27.465 60.2549 27.465 57.7109 27.465C56.6038 27.465 55.9678 26.9192 55.9914 26.0175C56.0149 25.1395 56.6745 24.5938 57.758 24.5938C62.8695 24.5938 67.9575 24.5938 73.069 24.5938C74.1055 24.5938 74.6944 25.0446 74.8121 25.8514C74.9299 26.8006 74.3175 27.465 73.1868 27.465C70.5957 27.4887 67.9811 27.465 65.3664 27.465Z" fill="black"/>
<path d="M65.3664 27.465C62.8224 27.465 60.2549 27.465 57.7109 27.465C56.6038 27.465 55.9678 26.9192 55.9914 26.0175C56.0149 25.1395 56.6745 24.5938 57.758 24.5938C62.8695 24.5938 67.9575 24.5938 73.069 24.5938C74.1055 24.5938 74.6944 25.0446 74.8121 25.8514C74.9299 26.8006 74.3175 27.465 73.1868 27.465C70.5957 27.4887 67.9811 27.465 65.3664 27.465Z" fill="url(#paint9_linear_37_1275)"/>
<path d="M36.2051 61.4453C36.2051 59.4283 36.2051 57.4113 36.2051 55.3943C36.2051 54.6825 36.4407 54.0181 37.1709 53.8757C37.6184 53.7808 38.2309 53.8994 38.6078 54.1842C38.914 54.4215 39.0789 55.0147 39.0789 55.4418C39.1024 59.4757 39.1024 63.486 39.1024 67.5199C39.1024 68.6114 38.5135 69.2758 37.642 69.2521C36.7704 69.2284 36.2287 68.564 36.2287 67.4487C36.1816 65.4555 36.2051 63.4622 36.2051 61.4453Z" fill="black"/>
<path d="M36.2051 61.4453C36.2051 59.4283 36.2051 57.4113 36.2051 55.3943C36.2051 54.6825 36.4407 54.0181 37.1709 53.8757C37.6184 53.7808 38.2309 53.8994 38.6078 54.1842C38.914 54.4215 39.0789 55.0147 39.0789 55.4418C39.1024 59.4757 39.1024 63.486 39.1024 67.5199C39.1024 68.6114 38.5135 69.2758 37.642 69.2521C36.7704 69.2284 36.2287 68.564 36.2287 67.4487C36.1816 65.4555 36.2051 63.4622 36.2051 61.4453Z" fill="url(#paint10_linear_37_1275)"/>
<path d="M76.0844 20.4414C74.3178 20.4414 72.5747 20.4651 70.808 20.4414C69.7951 20.4414 69.2062 19.9193 69.1591 19.1126C69.0885 18.1159 69.7245 17.5464 70.9258 17.5464C74.1293 17.5464 77.3093 17.5464 80.5128 17.5464C80.8662 17.5464 81.2195 17.5227 81.5728 17.5464C82.5622 17.6176 83.1039 18.1397 83.1039 19.0176C83.1039 19.8719 82.5386 20.4414 81.5493 20.4414C79.712 20.4651 77.8982 20.4414 76.0844 20.4414Z" fill="black"/>
<path d="M76.0844 20.4414C74.3178 20.4414 72.5747 20.4651 70.808 20.4414C69.7951 20.4414 69.2062 19.9193 69.1591 19.1126C69.0885 18.1159 69.7245 17.5464 70.9258 17.5464C74.1293 17.5464 77.3093 17.5464 80.5128 17.5464C80.8662 17.5464 81.2195 17.5227 81.5728 17.5464C82.5622 17.6176 83.1039 18.1397 83.1039 19.0176C83.1039 19.8719 82.5386 20.4414 81.5493 20.4414C79.712 20.4651 77.8982 20.4414 76.0844 20.4414Z" fill="url(#paint11_linear_37_1275)"/>
<path d="M27.7251 62.7502C27.7251 61.1841 27.7251 59.618 27.7251 58.0518C27.7251 56.9128 28.314 56.201 29.1855 56.2247C30.0335 56.2247 30.5989 56.9128 30.5989 58.0044C30.6224 61.1603 30.6224 64.34 30.5989 67.496C30.5989 68.6113 30.0335 69.2757 29.1855 69.2757C28.2904 69.2757 27.7251 68.5875 27.7251 67.4485C27.7251 65.8824 27.7251 64.3163 27.7251 62.7502Z" fill="black"/>
<path d="M27.7251 62.7502C27.7251 61.1841 27.7251 59.618 27.7251 58.0518C27.7251 56.9128 28.314 56.201 29.1855 56.2247C30.0335 56.2247 30.5989 56.9128 30.5989 58.0044C30.6224 61.1603 30.6224 64.34 30.5989 67.496C30.5989 68.6113 30.0335 69.2757 29.1855 69.2757C28.2904 69.2757 27.7251 68.5875 27.7251 67.4485C27.7251 65.8824 27.7251 64.3163 27.7251 62.7502Z" fill="url(#paint12_linear_37_1275)"/>
<path d="M8.19758 27.4649C6.92559 27.4649 5.67715 27.4887 4.40516 27.4649C3.39228 27.4412 2.82695 26.9429 2.80339 26.0887C2.77983 25.2107 3.39228 24.6175 4.40516 24.5937C6.92559 24.57 9.44602 24.57 11.9665 24.5937C12.9793 24.5937 13.6153 25.1632 13.6153 26.0412C13.6153 26.9192 13.0264 27.4412 11.9665 27.4649C10.718 27.4887 9.44602 27.4649 8.19758 27.4649Z" fill="black"/>
<path d="M8.19758 27.4649C6.92559 27.4649 5.67715 27.4887 4.40516 27.4649C3.39228 27.4412 2.82695 26.9429 2.80339 26.0887C2.77983 25.2107 3.39228 24.6175 4.40516 24.5937C6.92559 24.57 9.44602 24.57 11.9665 24.5937C12.9793 24.5937 13.6153 25.1632 13.6153 26.0412C13.6153 26.9192 13.0264 27.4412 11.9665 27.4649C10.718 27.4887 9.44602 27.4649 8.19758 27.4649Z" fill="url(#paint13_linear_37_1275)"/>
<path d="M27.3713 81.9232C27.3713 84.2486 25.5104 86.1707 23.2255 86.1944C20.8936 86.2181 18.962 84.2723 18.9856 81.9232C19.0091 79.5977 20.8936 77.7231 23.202 77.7231C25.4869 77.6994 27.3713 79.574 27.3713 81.9232ZM24.5211 81.9232C24.5211 81.1876 23.9086 80.5469 23.1784 80.5469C22.4482 80.5469 21.8358 81.1401 21.8358 81.8994C21.8358 82.6825 22.3775 83.252 23.1549 83.252C23.9322 83.2757 24.5211 82.6825 24.5211 81.9232Z" fill="black"/>
<path d="M27.3713 81.9232C27.3713 84.2486 25.5104 86.1707 23.2255 86.1944C20.8936 86.2181 18.962 84.2723 18.9856 81.9232C19.0091 79.5977 20.8936 77.7231 23.202 77.7231C25.4869 77.6994 27.3713 79.574 27.3713 81.9232ZM24.5211 81.9232C24.5211 81.1876 23.9086 80.5469 23.1784 80.5469C22.4482 80.5469 21.8358 81.1401 21.8358 81.8994C21.8358 82.6825 22.3775 83.252 23.1549 83.252C23.9322 83.2757 24.5211 82.6825 24.5211 81.9232Z" fill="url(#paint14_linear_37_1275)"/>
<path d="M76.2018 81.9469C76.2018 84.2961 74.3173 86.1944 72.0089 86.1944C69.724 86.1944 67.7925 84.2486 67.7925 81.9469C67.7925 79.6452 69.7005 77.7231 72.0089 77.7231C74.3645 77.6994 76.2253 79.574 76.2018 81.9469ZM72.0325 80.5706C71.3022 80.5706 70.7134 81.1638 70.6898 81.8994C70.6898 82.6588 71.2316 83.252 71.9854 83.2757C72.7862 83.2994 73.3987 82.7062 73.3751 81.9232C73.3751 81.1638 72.7627 80.5706 72.0325 80.5706Z" fill="black"/>
<path d="M76.2018 81.9469C76.2018 84.2961 74.3173 86.1944 72.0089 86.1944C69.724 86.1944 67.7925 84.2486 67.7925 81.9469C67.7925 79.6452 69.7005 77.7231 72.0089 77.7231C74.3645 77.6994 76.2253 79.574 76.2018 81.9469ZM72.0325 80.5706C71.3022 80.5706 70.7134 81.1638 70.6898 81.8994C70.6898 82.6588 71.2316 83.252 71.9854 83.2757C72.7862 83.2994 73.3987 82.7062 73.3751 81.9232C73.3751 81.1638 72.7627 80.5706 72.0325 80.5706Z" fill="url(#paint15_linear_37_1275)"/>
<path d="M33.4252 7.27158C39.4554 7.31904 44.2843 12.2547 44.2371 18.3768C44.19 24.309 39.1963 29.221 33.2839 29.1735C27.3479 29.126 22.519 24.1904 22.519 18.1869C22.5662 12.136 27.4421 7.22412 33.4252 7.27158ZM33.2839 26.2785C37.6652 26.3735 41.2927 22.8378 41.4105 18.3293C41.5283 14.0581 37.9714 10.2614 33.7785 10.1903C29.2088 10.0953 25.5106 13.5123 25.4164 17.9497C25.2986 22.5056 28.7377 26.1599 33.2839 26.2785Z" fill="black"/>
<path d="M33.4252 7.27158C39.4554 7.31904 44.2843 12.2547 44.2371 18.3768C44.19 24.309 39.1963 29.221 33.2839 29.1735C27.3479 29.126 22.519 24.1904 22.519 18.1869C22.5662 12.136 27.4421 7.22412 33.4252 7.27158ZM33.2839 26.2785C37.6652 26.3735 41.2927 22.8378 41.4105 18.3293C41.5283 14.0581 37.9714 10.2614 33.7785 10.1903C29.2088 10.0953 25.5106 13.5123 25.4164 17.9497C25.2986 22.5056 28.7377 26.1599 33.2839 26.2785Z" fill="url(#paint16_linear_37_1275)"/>
<path d="M32.6006 19.089C33.6842 17.5228 34.6735 15.9567 35.8042 14.4855C36.1104 14.1059 36.7935 13.7974 37.2646 13.8211C37.665 13.8448 38.1361 14.3906 38.3246 14.8177C38.4659 15.1262 38.301 15.7194 38.089 16.0516C36.7935 18.0449 35.4508 20.0144 34.0846 21.9839C33.5193 22.7907 32.6948 22.9093 31.9411 22.2924C30.9046 21.4381 29.8682 20.5602 28.8789 19.6347C28.2664 19.0652 28.2193 18.2347 28.714 17.6415C29.2086 17.0245 29.986 16.9296 30.6691 17.4517C31.3286 17.95 31.9175 18.5195 32.6006 19.089Z" fill="black"/>
<path d="M32.6006 19.089C33.6842 17.5228 34.6735 15.9567 35.8042 14.4855C36.1104 14.1059 36.7935 13.7974 37.2646 13.8211C37.665 13.8448 38.1361 14.3906 38.3246 14.8177C38.4659 15.1262 38.301 15.7194 38.089 16.0516C36.7935 18.0449 35.4508 20.0144 34.0846 21.9839C33.5193 22.7907 32.6948 22.9093 31.9411 22.2924C30.9046 21.4381 29.8682 20.5602 28.8789 19.6347C28.2664 19.0652 28.2193 18.2347 28.714 17.6415C29.2086 17.0245 29.986 16.9296 30.6691 17.4517C31.3286 17.95 31.9175 18.5195 32.6006 19.089Z" fill="url(#paint17_linear_37_1275)"/>
<defs>
<linearGradient id="paint0_linear_37_1275" x1="-3.21858" y1="34.1509" x2="14.7795" y2="34.3095" gradientUnits="userSpaceOnUse">
<stop stop-color="#37DADA"/>
<stop offset="1" stop-color="#254DB5"/>
</linearGradient>
<linearGradient id="paint1_linear_37_1275" x1="10.3131" y1="72.5027" x2="29.6343" y2="72.9707" gradientUnits="userSpaceOnUse">
<stop stop-color="#37DADA"/>
<stop offset="1" stop-color="#254DB5"/>
</linearGradient>
<linearGradient id="paint2_linear_37_1275" x1="59.171" y1="72.5195" x2="78.5465" y2="72.9906" gradientUnits="userSpaceOnUse">
<stop stop-color="#37DADA"/>
<stop offset="1" stop-color="#254DB5"/>
</linearGradient>
<linearGradient id="paint3_linear_37_1275" x1="24.7036" y1="34.1499" x2="81.8606" y2="35.75" gradientUnits="userSpaceOnUse">
<stop stop-color="#37DADA"/>
<stop offset="1" stop-color="#254DB5"/>
</linearGradient>
<linearGradient id="paint4_linear_37_1275" x1="9.16719" y1="0.367412" x2="45.7409" y2="0.981932" gradientUnits="userSpaceOnUse">
<stop stop-color="#37DADA"/>
<stop offset="1" stop-color="#254DB5"/>
</linearGradient>
<linearGradient id="paint5_linear_37_1275" x1="61.7277" y1="49.6277" x2="77.6179" y2="50.0697" gradientUnits="userSpaceOnUse">
<stop stop-color="#37DADA"/>
<stop offset="1" stop-color="#254DB5"/>
</linearGradient>
<linearGradient id="paint6_linear_37_1275" x1="18.7209" y1="46.0686" x2="21.7234" y2="46.0778" gradientUnits="userSpaceOnUse">
<stop stop-color="#37DADA"/>
<stop offset="1" stop-color="#254DB5"/>
</linearGradient>
<linearGradient id="paint7_linear_37_1275" x1="10.2986" y1="46.0203" x2="13.301" y2="46.0294" gradientUnits="userSpaceOnUse">
<stop stop-color="#37DADA"/>
<stop offset="1" stop-color="#254DB5"/>
</linearGradient>
<linearGradient id="paint8_linear_37_1275" x1="44.1027" y1="46.0542" x2="47.0944" y2="46.0633" gradientUnits="userSpaceOnUse">
<stop stop-color="#37DADA"/>
<stop offset="1" stop-color="#254DB5"/>
</linearGradient>
<linearGradient id="paint9_linear_37_1275" x1="52.5129" y1="24.5937" x2="71.4796" y2="27.6194" gradientUnits="userSpaceOnUse">
<stop stop-color="#37DADA"/>
<stop offset="1" stop-color="#254DB5"/>
</linearGradient>
<linearGradient id="paint10_linear_37_1275" x1="35.6632" y1="53.8435" x2="38.6609" y2="53.8573" gradientUnits="userSpaceOnUse">
<stop stop-color="#37DADA"/>
<stop offset="1" stop-color="#254DB5"/>
</linearGradient>
<linearGradient id="paint11_linear_37_1275" x1="66.5781" y1="17.5359" x2="80.7889" y2="19.1951" gradientUnits="userSpaceOnUse">
<stop stop-color="#37DADA"/>
<stop offset="1" stop-color="#254DB5"/>
</linearGradient>
<linearGradient id="paint12_linear_37_1275" x1="27.1912" y1="56.2241" x2="30.1768" y2="56.2403" gradientUnits="userSpaceOnUse">
<stop stop-color="#37DADA"/>
<stop offset="1" stop-color="#254DB5"/>
</linearGradient>
<linearGradient id="paint13_linear_37_1275" x1="0.806291" y1="24.5759" x2="11.8794" y2="25.5837" gradientUnits="userSpaceOnUse">
<stop stop-color="#37DADA"/>
<stop offset="1" stop-color="#254DB5"/>
</linearGradient>
<linearGradient id="paint14_linear_37_1275" x1="17.437" y1="77.7229" x2="26.091" y2="77.932" gradientUnits="userSpaceOnUse">
<stop stop-color="#37DADA"/>
<stop offset="1" stop-color="#254DB5"/>
</linearGradient>
<linearGradient id="paint15_linear_37_1275" x1="66.2397" y1="77.7229" x2="74.9181" y2="77.9332" gradientUnits="userSpaceOnUse">
<stop stop-color="#37DADA"/>
<stop offset="1" stop-color="#254DB5"/>
</linearGradient>
<linearGradient id="paint16_linear_37_1275" x1="18.5089" y1="7.27123" x2="40.9218" y2="7.81365" gradientUnits="userSpaceOnUse">
<stop stop-color="#37DADA"/>
<stop offset="1" stop-color="#254DB5"/>
</linearGradient>
<linearGradient id="paint17_linear_37_1275" x1="26.5311" y1="13.8198" x2="36.8488" y2="14.1039" gradientUnits="userSpaceOnUse">
<stop stop-color="#37DADA"/>
<stop offset="1" stop-color="#254DB5"/>
</linearGradient>
</defs>
</svg>
