<svg width="121" height="91" viewBox="0 0 121 91" fill="none" xmlns="http://www.w3.org/2000/svg">
<path d="M87.0536 79.4997C86.5317 80.0216 86.5317 80.8045 87.1011 81.4214C87.4332 81.7772 87.8365 82.0619 88.0975 82.2754C86.1047 84.2683 84.2779 86.1188 82.5223 87.8743C79.4382 84.7902 76.2829 81.6349 73.2224 78.5745C75.0255 76.7952 76.876 74.9447 78.7739 73.0705C80.1262 74.4227 81.5259 75.8699 82.9493 77.2696C83.6373 77.9339 84.4202 77.9339 84.9896 77.3408C85.5116 76.7952 85.4878 75.9885 84.8473 75.348C80.743 71.22 76.615 67.092 72.4633 62.9877C71.5143 62.0624 70.3044 62.015 69.2368 62.7742C69.0944 62.8691 68.9521 62.964 68.9046 62.9877C67.2914 61.3982 65.7493 59.8561 64.1835 58.2903C64.3021 58.1242 64.4682 57.9107 64.6105 57.6972C67.3863 54.0674 69.3791 50.0343 70.6365 45.6453C71.2296 43.605 71.2059 43.605 73.2936 43.605C75.6423 43.605 77.9673 43.6525 80.316 43.5576C80.7904 43.5339 81.3836 43.178 81.6682 42.7984C81.8818 42.5137 81.8106 41.7783 81.5733 41.541C81.2412 41.1852 80.6244 40.9242 80.1262 40.9005C77.6114 40.8293 75.0966 40.8768 72.5819 40.8768C72.2735 40.8768 71.965 40.853 71.6329 40.8293C71.7278 39.9515 71.8227 39.1686 71.9176 38.3383C74.2188 38.3383 76.4015 38.3383 78.5841 38.3383C81.3124 38.3383 84.0407 38.362 86.7452 38.3145C87.196 38.3145 87.7654 37.9587 88.0026 37.5791C88.1924 37.2707 88.1449 36.559 87.9077 36.298C87.5756 35.9421 86.9587 35.7049 86.4605 35.7049C81.9529 35.6574 77.4691 35.6812 72.9615 35.6812C72.6531 35.6812 72.3209 35.6812 71.9413 35.6812C71.9413 34.8034 71.9413 34.0205 71.9413 33.2138C72.0837 33.1901 72.2023 33.1664 72.2972 33.1664C74.812 33.1664 77.3267 33.1664 79.8415 33.1427C80.1973 33.1427 80.6481 33.1901 80.8616 33.0003C81.2649 32.6682 81.7631 32.17 81.7394 31.7667C81.7394 31.3396 81.2175 30.8652 80.8379 30.533C80.6244 30.3669 80.2211 30.4144 79.8889 30.4144C77.3504 30.4144 74.7882 30.3907 72.2497 30.4144C71.6566 30.4144 71.4431 30.2483 71.3245 29.6552C70.3518 23.9851 68.098 18.8844 64.6343 14.282C63.7328 13.0957 62.9973 12.8111 62.2619 13.4279C61.5501 13.9973 61.6213 14.7327 62.4754 15.8952C68.4776 24.0089 70.5416 33.0715 68.4301 42.8933C64.5157 61.1372 46.7225 72.4299 28.5735 68.3731C12.1327 64.7196 0.412943 48.7295 3.07005 30.96C4.11391 23.914 7.15061 17.7694 12.2039 12.7399C20.5073 4.48387 30.5189 1.32855 42.0489 3.27394C48.1223 4.29408 53.4602 7.02236 58.0864 11.1029C58.9405 11.8621 59.6759 11.8858 60.269 11.2215C60.791 10.6284 60.6961 9.79808 60.0081 9.18126C55.3819 5.07697 50.0676 2.27752 44.0417 0.925243C42.2861 0.521932 40.5068 0.308414 38.7275 0C36.9007 0 35.0502 0 33.2235 0C33.01 0.0474483 32.7727 0.142345 32.5592 0.166069C24.493 0.948967 17.3995 4.05683 11.5396 9.63201C2.2397 18.5049 -1.55616 29.3943 0.579012 42.063C2.52439 53.6641 9.04854 62.2048 19.3448 67.8511C22.3815 69.5118 25.6555 70.5794 29.1429 71.2911C29.1429 71.647 29.1429 71.9554 29.1429 72.2876C29.1429 74.826 29.1429 77.3883 29.1429 79.9267C29.1429 80.9469 29.6411 81.5874 30.4478 81.6112C31.3018 81.6349 31.8238 81.0181 31.8238 79.9267C31.8238 77.5306 31.8238 75.1345 31.8238 72.7383C31.8238 72.4299 31.8238 72.1215 31.8238 71.7182C32.749 71.8131 33.5319 71.8842 34.386 71.9791C34.386 72.3587 34.386 72.6909 34.386 72.9993C34.386 77.2696 34.386 81.5163 34.386 85.7866C34.386 86.1188 34.386 86.4509 34.4334 86.7593C34.5283 87.4473 35.0028 87.8981 35.6196 87.8506C36.0941 87.8032 36.5923 87.3999 36.9244 87.0203C37.1142 86.8068 37.0905 86.356 37.0905 86.0001C37.0905 81.6586 37.0905 77.2934 37.0905 72.9518C37.0905 72.6434 37.0905 72.3113 37.0905 71.9791C37.9683 71.908 38.7512 71.8605 39.6053 71.7894C39.6053 72.1689 39.6053 72.5011 39.6053 72.8095C39.6053 75.2294 39.6053 77.673 39.6053 80.0928C39.6053 81.0181 40.1747 81.6349 40.9576 81.6349C41.7405 81.6349 42.2387 81.0655 42.2624 80.164C42.2861 79.4523 42.2624 78.7405 42.2624 78.0288C42.2624 75.8462 42.2624 73.6636 42.2624 71.4335C48.2646 70.3185 53.6025 67.8749 58.2525 64.1976C59.8657 65.8109 61.4078 67.3529 62.9736 68.9187C61.8586 70.6031 61.9534 71.4809 63.4481 72.9756C69.1181 78.6456 74.7882 84.3157 80.4583 89.9858C81.8106 91.3381 83.0917 91.3381 84.4677 89.9858C86.1758 88.3014 87.884 86.617 89.5447 84.8851C90.0429 84.3632 90.4462 83.7226 90.8969 83.1532C90.8969 82.7499 90.8969 82.3229 90.8969 81.9196C90.2327 81.1367 89.6158 80.3063 88.9041 79.5709C88.3822 78.9303 87.5756 78.9778 87.0536 79.4997ZM60.6723 62.276C61.1943 61.7778 61.7637 61.2084 62.3093 60.6864C63.7802 62.1573 65.2748 63.652 66.7695 65.1466C66.2712 65.6685 65.6781 66.2379 65.1562 66.7836C63.6379 65.2415 62.1432 63.7469 60.6723 62.276ZM65.2748 70.7218C67.0779 68.9187 68.9284 67.092 70.7788 65.2415C71.4431 65.882 72.1311 66.57 72.7954 67.2106C70.9449 69.0611 69.0944 70.8878 67.2677 72.7146C66.6271 72.074 65.9154 71.3623 65.2748 70.7218ZM69.4503 74.7786C71.1822 73.0467 73.0089 71.1963 74.9069 69.322C75.4288 69.844 75.9982 70.4134 76.5201 70.9353C74.6933 72.762 72.8428 74.5888 70.9686 76.463C70.4942 75.9648 69.9485 75.3243 69.4503 74.7786Z" fill="black"/>
<path d="M87.0536 79.4997C86.5317 80.0216 86.5317 80.8045 87.1011 81.4214C87.4332 81.7772 87.8365 82.0619 88.0975 82.2754C86.1047 84.2683 84.2779 86.1188 82.5223 87.8743C79.4382 84.7902 76.2829 81.6349 73.2224 78.5745C75.0255 76.7952 76.876 74.9447 78.7739 73.0705C80.1262 74.4227 81.5259 75.8699 82.9493 77.2696C83.6373 77.9339 84.4202 77.9339 84.9896 77.3408C85.5116 76.7952 85.4878 75.9885 84.8473 75.348C80.743 71.22 76.615 67.092 72.4633 62.9877C71.5143 62.0624 70.3044 62.015 69.2368 62.7742C69.0944 62.8691 68.9521 62.964 68.9046 62.9877C67.2914 61.3982 65.7493 59.8561 64.1835 58.2903C64.3021 58.1242 64.4682 57.9107 64.6105 57.6972C67.3863 54.0674 69.3791 50.0343 70.6365 45.6453C71.2296 43.605 71.2059 43.605 73.2936 43.605C75.6423 43.605 77.9673 43.6525 80.316 43.5576C80.7904 43.5339 81.3836 43.178 81.6682 42.7984C81.8818 42.5137 81.8106 41.7783 81.5733 41.541C81.2412 41.1852 80.6244 40.9242 80.1262 40.9005C77.6114 40.8293 75.0966 40.8768 72.5819 40.8768C72.2735 40.8768 71.965 40.853 71.6329 40.8293C71.7278 39.9515 71.8227 39.1686 71.9176 38.3383C74.2188 38.3383 76.4015 38.3383 78.5841 38.3383C81.3124 38.3383 84.0407 38.362 86.7452 38.3145C87.196 38.3145 87.7654 37.9587 88.0026 37.5791C88.1924 37.2707 88.1449 36.559 87.9077 36.298C87.5756 35.9421 86.9587 35.7049 86.4605 35.7049C81.9529 35.6574 77.4691 35.6812 72.9615 35.6812C72.6531 35.6812 72.3209 35.6812 71.9413 35.6812C71.9413 34.8034 71.9413 34.0205 71.9413 33.2138C72.0837 33.1901 72.2023 33.1664 72.2972 33.1664C74.812 33.1664 77.3267 33.1664 79.8415 33.1427C80.1973 33.1427 80.6481 33.1901 80.8616 33.0003C81.2649 32.6682 81.7631 32.17 81.7394 31.7667C81.7394 31.3396 81.2175 30.8652 80.8379 30.533C80.6244 30.3669 80.2211 30.4144 79.8889 30.4144C77.3504 30.4144 74.7882 30.3907 72.2497 30.4144C71.6566 30.4144 71.4431 30.2483 71.3245 29.6552C70.3518 23.9851 68.098 18.8844 64.6343 14.282C63.7328 13.0957 62.9973 12.8111 62.2619 13.4279C61.5501 13.9973 61.6213 14.7327 62.4754 15.8952C68.4776 24.0089 70.5416 33.0715 68.4301 42.8933C64.5157 61.1372 46.7225 72.4299 28.5735 68.3731C12.1327 64.7196 0.412943 48.7295 3.07005 30.96C4.11391 23.914 7.15061 17.7694 12.2039 12.7399C20.5073 4.48387 30.5189 1.32855 42.0489 3.27394C48.1223 4.29408 53.4602 7.02236 58.0864 11.1029C58.9405 11.8621 59.6759 11.8858 60.269 11.2215C60.791 10.6284 60.6961 9.79808 60.0081 9.18126C55.3819 5.07697 50.0676 2.27752 44.0417 0.925243C42.2861 0.521932 40.5068 0.308414 38.7275 0C36.9007 0 35.0502 0 33.2235 0C33.01 0.0474483 32.7727 0.142345 32.5592 0.166069C24.493 0.948967 17.3995 4.05683 11.5396 9.63201C2.2397 18.5049 -1.55616 29.3943 0.579012 42.063C2.52439 53.6641 9.04854 62.2048 19.3448 67.8511C22.3815 69.5118 25.6555 70.5794 29.1429 71.2911C29.1429 71.647 29.1429 71.9554 29.1429 72.2876C29.1429 74.826 29.1429 77.3883 29.1429 79.9267C29.1429 80.9469 29.6411 81.5874 30.4478 81.6112C31.3018 81.6349 31.8238 81.0181 31.8238 79.9267C31.8238 77.5306 31.8238 75.1345 31.8238 72.7383C31.8238 72.4299 31.8238 72.1215 31.8238 71.7182C32.749 71.8131 33.5319 71.8842 34.386 71.9791C34.386 72.3587 34.386 72.6909 34.386 72.9993C34.386 77.2696 34.386 81.5163 34.386 85.7866C34.386 86.1188 34.386 86.4509 34.4334 86.7593C34.5283 87.4473 35.0028 87.8981 35.6196 87.8506C36.0941 87.8032 36.5923 87.3999 36.9244 87.0203C37.1142 86.8068 37.0905 86.356 37.0905 86.0001C37.0905 81.6586 37.0905 77.2934 37.0905 72.9518C37.0905 72.6434 37.0905 72.3113 37.0905 71.9791C37.9683 71.908 38.7512 71.8605 39.6053 71.7894C39.6053 72.1689 39.6053 72.5011 39.6053 72.8095C39.6053 75.2294 39.6053 77.673 39.6053 80.0928C39.6053 81.0181 40.1747 81.6349 40.9576 81.6349C41.7405 81.6349 42.2387 81.0655 42.2624 80.164C42.2861 79.4523 42.2624 78.7405 42.2624 78.0288C42.2624 75.8462 42.2624 73.6636 42.2624 71.4335C48.2646 70.3185 53.6025 67.8749 58.2525 64.1976C59.8657 65.8109 61.4078 67.3529 62.9736 68.9187C61.8586 70.6031 61.9534 71.4809 63.4481 72.9756C69.1181 78.6456 74.7882 84.3157 80.4583 89.9858C81.8106 91.3381 83.0917 91.3381 84.4677 89.9858C86.1758 88.3014 87.884 86.617 89.5447 84.8851C90.0429 84.3632 90.4462 83.7226 90.8969 83.1532C90.8969 82.7499 90.8969 82.3229 90.8969 81.9196C90.2327 81.1367 89.6158 80.3063 88.9041 79.5709C88.3822 78.9303 87.5756 78.9778 87.0536 79.4997ZM60.6723 62.276C61.1943 61.7778 61.7637 61.2084 62.3093 60.6864C63.7802 62.1573 65.2748 63.652 66.7695 65.1466C66.2712 65.6685 65.6781 66.2379 65.1562 66.7836C63.6379 65.2415 62.1432 63.7469 60.6723 62.276ZM65.2748 70.7218C67.0779 68.9187 68.9284 67.092 70.7788 65.2415C71.4431 65.882 72.1311 66.57 72.7954 67.2106C70.9449 69.0611 69.0944 70.8878 67.2677 72.7146C66.6271 72.074 65.9154 71.3623 65.2748 70.7218ZM69.4503 74.7786C71.1822 73.0467 73.0089 71.1963 74.9069 69.322C75.4288 69.844 75.9982 70.4134 76.5201 70.9353C74.6933 72.762 72.8428 74.5888 70.9686 76.463C70.4942 75.9648 69.9485 75.3243 69.4503 74.7786Z" fill="url(#paint0_linear_37_1299)"/>
<path d="M17.1386 58.5038C16.6404 59.1918 16.8539 59.9509 17.7554 60.5915C25.1336 65.8108 33.2947 67.8036 42.1439 65.9532C59.0355 62.442 69.569 46.0486 65.8918 29.2519C62.0484 11.696 43.4961 1.16244 26.4622 6.8088C13.8409 11.008 5.34766 22.8226 5.37138 36.1793C5.37138 36.8199 5.34766 37.4842 5.37138 38.1247C5.39511 38.528 5.46628 38.9551 5.51373 39.3584C6.15428 45.5504 8.5267 50.9832 12.5361 55.7043C13.5088 56.8668 14.1731 57.0329 14.8848 56.416C15.6202 55.7992 15.5253 55.0875 14.5764 53.9725C8.90629 47.1162 6.88973 39.2872 8.57415 30.5804C11.5871 15.0648 26.7469 5.21928 42.1913 8.65928C55.975 11.7197 65.5122 25.1713 63.7329 39.1448C62.7364 46.9738 59.1304 53.3794 52.8435 58.1479C46.9599 62.6318 40.2696 64.4585 32.9389 63.6519C27.9331 63.1063 23.378 61.3032 19.2975 58.3377C18.396 57.7446 17.6368 57.792 17.1386 58.5038Z" fill="black"/>
<path d="M17.1386 58.5038C16.6404 59.1918 16.8539 59.9509 17.7554 60.5915C25.1336 65.8108 33.2947 67.8036 42.1439 65.9532C59.0355 62.442 69.569 46.0486 65.8918 29.2519C62.0484 11.696 43.4961 1.16244 26.4622 6.8088C13.8409 11.008 5.34766 22.8226 5.37138 36.1793C5.37138 36.8199 5.34766 37.4842 5.37138 38.1247C5.39511 38.528 5.46628 38.9551 5.51373 39.3584C6.15428 45.5504 8.5267 50.9832 12.5361 55.7043C13.5088 56.8668 14.1731 57.0329 14.8848 56.416C15.6202 55.7992 15.5253 55.0875 14.5764 53.9725C8.90629 47.1162 6.88973 39.2872 8.57415 30.5804C11.5871 15.0648 26.7469 5.21928 42.1913 8.65928C55.975 11.7197 65.5122 25.1713 63.7329 39.1448C62.7364 46.9738 59.1304 53.3794 52.8435 58.1479C46.9599 62.6318 40.2696 64.4585 32.9389 63.6519C27.9331 63.1063 23.378 61.3032 19.2975 58.3377C18.396 57.7446 17.6368 57.792 17.1386 58.5038Z" fill="url(#paint1_linear_37_1299)"/>
<path d="M119.271 64.15C118.749 64.1263 118.227 64.15 117.586 64.15C117.586 63.7229 117.586 63.4145 117.586 63.1061C117.586 61.0658 117.61 59.0256 117.586 56.9853C117.563 55.372 116.78 54.5891 115.167 54.5654C113.34 54.5417 111.489 54.5654 109.663 54.5654C108.785 54.5654 107.907 54.5654 106.934 54.5654C106.934 54.1384 106.934 53.83 106.934 53.5216C106.934 50.2476 106.934 46.95 106.934 43.676C106.934 41.8493 106.151 41.0901 104.348 41.0901C101.715 41.0901 99.0816 41.0901 96.4482 41.0901C94.2182 41.0901 93.5539 41.7544 93.5539 44.0082C93.5539 45.2655 93.5539 46.5229 93.5539 47.8515C90.8019 47.8515 88.216 47.8515 85.6063 47.8515C83.6135 47.8515 82.9017 48.5869 82.9017 50.6035C82.9017 54.7789 82.9017 58.9544 82.9017 63.1298C82.9017 63.462 82.9017 63.8178 82.9017 64.2449C82.1663 64.2449 81.5732 64.1974 81.0038 64.2686C80.3158 64.3635 79.8888 64.7668 79.8413 65.5023C79.8176 66.2614 80.2209 66.7359 80.9326 66.8783C81.2411 66.9494 81.5732 66.9494 81.9053 66.9494C94.1233 66.9494 106.341 66.9494 118.559 66.9494C118.82 66.9494 119.105 66.9732 119.366 66.9257C120.22 66.8071 120.694 66.2852 120.671 65.526C120.623 64.7194 120.125 64.2212 119.271 64.15ZM93.459 64.1025C90.8493 64.1025 88.2871 64.1025 85.6537 64.1025C85.6537 59.6187 85.6537 55.1585 85.6537 50.6272C88.216 50.6272 90.8019 50.6272 93.459 50.6272C93.459 55.0873 93.459 59.5475 93.459 64.1025ZM104.135 64.0788C101.525 64.0788 98.963 64.0788 96.3296 64.0788C96.3296 57.3649 96.3296 50.6272 96.3296 43.8421C98.8918 43.8421 101.454 43.8421 104.135 43.8421C104.135 50.6272 104.135 57.3174 104.135 64.0788ZM114.787 64.0788C112.201 64.0788 109.639 64.0788 106.982 64.0788C106.982 61.8725 106.982 59.6424 106.982 57.3411C109.544 57.3411 112.106 57.3411 114.787 57.3411C114.787 59.6187 114.787 61.825 114.787 64.0788Z" fill="black"/>
<path d="M119.271 64.15C118.749 64.1263 118.227 64.15 117.586 64.15C117.586 63.7229 117.586 63.4145 117.586 63.1061C117.586 61.0658 117.61 59.0256 117.586 56.9853C117.563 55.372 116.78 54.5891 115.167 54.5654C113.34 54.5417 111.489 54.5654 109.663 54.5654C108.785 54.5654 107.907 54.5654 106.934 54.5654C106.934 54.1384 106.934 53.83 106.934 53.5216C106.934 50.2476 106.934 46.95 106.934 43.676C106.934 41.8493 106.151 41.0901 104.348 41.0901C101.715 41.0901 99.0816 41.0901 96.4482 41.0901C94.2182 41.0901 93.5539 41.7544 93.5539 44.0082C93.5539 45.2655 93.5539 46.5229 93.5539 47.8515C90.8019 47.8515 88.216 47.8515 85.6063 47.8515C83.6135 47.8515 82.9017 48.5869 82.9017 50.6035C82.9017 54.7789 82.9017 58.9544 82.9017 63.1298C82.9017 63.462 82.9017 63.8178 82.9017 64.2449C82.1663 64.2449 81.5732 64.1974 81.0038 64.2686C80.3158 64.3635 79.8888 64.7668 79.8413 65.5023C79.8176 66.2614 80.2209 66.7359 80.9326 66.8783C81.2411 66.9494 81.5732 66.9494 81.9053 66.9494C94.1233 66.9494 106.341 66.9494 118.559 66.9494C118.82 66.9494 119.105 66.9732 119.366 66.9257C120.22 66.8071 120.694 66.2852 120.671 65.526C120.623 64.7194 120.125 64.2212 119.271 64.15ZM93.459 64.1025C90.8493 64.1025 88.2871 64.1025 85.6537 64.1025C85.6537 59.6187 85.6537 55.1585 85.6537 50.6272C88.216 50.6272 90.8019 50.6272 93.459 50.6272C93.459 55.0873 93.459 59.5475 93.459 64.1025ZM104.135 64.0788C101.525 64.0788 98.963 64.0788 96.3296 64.0788C96.3296 57.3649 96.3296 50.6272 96.3296 43.8421C98.8918 43.8421 101.454 43.8421 104.135 43.8421C104.135 50.6272 104.135 57.3174 104.135 64.0788ZM114.787 64.0788C112.201 64.0788 109.639 64.0788 106.982 64.0788C106.982 61.8725 106.982 59.6424 106.982 57.3411C109.544 57.3411 112.106 57.3411 114.787 57.3411C114.787 59.6187 114.787 61.825 114.787 64.0788Z" fill="url(#paint2_linear_37_1299)"/>
<path d="M20.4835 51.79C20.5073 52.5729 21.1004 53.0948 22.0493 53.0948C24.232 53.0948 26.4383 53.0711 28.6209 53.1185C29.3564 53.1185 29.8546 52.8101 30.1867 52.1933C30.6138 51.4104 31.0645 50.6275 31.5627 49.7497C31.6814 50.0818 31.7763 50.2479 31.8474 50.4614C32.7252 52.9287 33.603 55.396 34.4808 57.8871C34.7181 58.5276 35.1214 58.9547 35.8331 58.9547C36.4974 58.9547 36.9244 58.5514 37.1379 57.9345C37.2091 57.7685 37.2565 57.6024 37.3277 57.4363C38.5376 54.2098 39.7239 50.9596 41.0287 47.4722C41.693 49.1329 42.2861 50.58 42.8317 52.0272C43.1164 52.7864 43.6146 53.1422 44.445 53.1185C46.675 53.0948 48.8814 53.1185 51.1115 53.1185C52.1316 53.1185 52.7484 52.5966 52.7247 51.7662C52.701 50.9596 52.0841 50.4614 51.064 50.4614C49.3084 50.4614 47.5766 50.4377 45.821 50.4614C45.299 50.4614 45.0381 50.2953 44.8483 49.7971C44.0891 47.7806 43.2825 45.7877 42.4996 43.7712C42.2149 43.012 41.9065 42.3003 40.9575 42.3003C40.056 42.324 39.7713 43.0357 39.5103 43.7475C38.4427 46.6893 37.3514 49.6073 36.2601 52.5491C36.1415 52.8338 36.0229 53.1185 35.8331 53.5693C34.9316 51.0071 34.0775 48.6346 33.2472 46.2385C33.0336 45.6454 32.7252 45.1709 32.0372 45.0997C31.3018 45.0286 30.8985 45.4082 30.5663 46.0013C29.8546 47.3061 29.1666 48.6109 28.3837 49.8683C28.2176 50.153 27.7669 50.414 27.4347 50.414C25.6554 50.4614 23.8761 50.4377 22.1205 50.4377C21.1004 50.4614 20.4598 50.9833 20.4835 51.79Z" fill="black"/>
<path d="M20.4835 51.79C20.5073 52.5729 21.1004 53.0948 22.0493 53.0948C24.232 53.0948 26.4383 53.0711 28.6209 53.1185C29.3564 53.1185 29.8546 52.8101 30.1867 52.1933C30.6138 51.4104 31.0645 50.6275 31.5627 49.7497C31.6814 50.0818 31.7763 50.2479 31.8474 50.4614C32.7252 52.9287 33.603 55.396 34.4808 57.8871C34.7181 58.5276 35.1214 58.9547 35.8331 58.9547C36.4974 58.9547 36.9244 58.5514 37.1379 57.9345C37.2091 57.7685 37.2565 57.6024 37.3277 57.4363C38.5376 54.2098 39.7239 50.9596 41.0287 47.4722C41.693 49.1329 42.2861 50.58 42.8317 52.0272C43.1164 52.7864 43.6146 53.1422 44.445 53.1185C46.675 53.0948 48.8814 53.1185 51.1115 53.1185C52.1316 53.1185 52.7484 52.5966 52.7247 51.7662C52.701 50.9596 52.0841 50.4614 51.064 50.4614C49.3084 50.4614 47.5766 50.4377 45.821 50.4614C45.299 50.4614 45.0381 50.2953 44.8483 49.7971C44.0891 47.7806 43.2825 45.7877 42.4996 43.7712C42.2149 43.012 41.9065 42.3003 40.9575 42.3003C40.056 42.324 39.7713 43.0357 39.5103 43.7475C38.4427 46.6893 37.3514 49.6073 36.2601 52.5491C36.1415 52.8338 36.0229 53.1185 35.8331 53.5693C34.9316 51.0071 34.0775 48.6346 33.2472 46.2385C33.0336 45.6454 32.7252 45.1709 32.0372 45.0997C31.3018 45.0286 30.8985 45.4082 30.5663 46.0013C29.8546 47.3061 29.1666 48.6109 28.3837 49.8683C28.2176 50.153 27.7669 50.414 27.4347 50.414C25.6554 50.4614 23.8761 50.4377 22.1205 50.4377C21.1004 50.4614 20.4598 50.9833 20.4835 51.79Z" fill="url(#paint3_linear_37_1299)"/>
<path d="M24.5643 33.5936C24.3034 34.8747 24.2085 36.2982 25.6556 37.2709C28.5025 39.1925 31.8951 40.1889 35.5249 40.1889C38.7514 40.1889 41.9067 39.3349 44.6587 37.7216C46.5566 36.4405 46.6753 34.9459 46.6041 34.1867C46.5804 33.9732 46.5329 33.7597 46.4617 33.5936C45.8924 31.5296 44.7299 29.7028 43.1404 28.2557C42.2626 27.4728 41.2899 26.8322 40.246 26.334C42.31 24.8157 43.5437 22.4432 43.5437 19.881C43.5437 15.4683 39.9613 11.886 35.5486 11.886C31.1359 11.886 27.5536 15.4683 27.5536 19.881C27.5536 22.4432 28.7635 24.8394 30.8275 26.334C29.7599 26.8085 28.7872 27.4728 27.9332 28.2557C26.2962 29.6554 25.1574 31.5059 24.5643 33.5936ZM35.5249 27.8524C39.4868 27.8524 42.9743 30.5095 44.0181 34.3053C44.113 34.6849 43.947 35.112 43.5911 35.3255C41.1712 36.7964 38.3718 37.603 35.5249 37.603C32.678 37.603 29.9023 36.8201 27.4824 35.3492C27.1265 35.1357 26.9367 34.7086 27.0554 34.3053C28.0755 30.5095 31.563 27.8524 35.5249 27.8524ZM30.0683 19.8573C30.0683 16.8681 32.5119 14.4245 35.5012 14.4245C38.4904 14.4245 40.934 16.8681 40.934 19.8573C40.934 22.8466 38.4904 25.2901 35.5012 25.2901C32.5119 25.2901 30.0683 22.8466 30.0683 19.8573Z" fill="black"/>
<path d="M24.5643 33.5936C24.3034 34.8747 24.2085 36.2982 25.6556 37.2709C28.5025 39.1925 31.8951 40.1889 35.5249 40.1889C38.7514 40.1889 41.9067 39.3349 44.6587 37.7216C46.5566 36.4405 46.6753 34.9459 46.6041 34.1867C46.5804 33.9732 46.5329 33.7597 46.4617 33.5936C45.8924 31.5296 44.7299 29.7028 43.1404 28.2557C42.2626 27.4728 41.2899 26.8322 40.246 26.334C42.31 24.8157 43.5437 22.4432 43.5437 19.881C43.5437 15.4683 39.9613 11.886 35.5486 11.886C31.1359 11.886 27.5536 15.4683 27.5536 19.881C27.5536 22.4432 28.7635 24.8394 30.8275 26.334C29.7599 26.8085 28.7872 27.4728 27.9332 28.2557C26.2962 29.6554 25.1574 31.5059 24.5643 33.5936ZM35.5249 27.8524C39.4868 27.8524 42.9743 30.5095 44.0181 34.3053C44.113 34.6849 43.947 35.112 43.5911 35.3255C41.1712 36.7964 38.3718 37.603 35.5249 37.603C32.678 37.603 29.9023 36.8201 27.4824 35.3492C27.1265 35.1357 26.9367 34.7086 27.0554 34.3053C28.0755 30.5095 31.563 27.8524 35.5249 27.8524ZM30.0683 19.8573C30.0683 16.8681 32.5119 14.4245 35.5012 14.4245C38.4904 14.4245 40.934 16.8681 40.934 19.8573C40.934 22.8466 38.4904 25.2901 35.5012 25.2901C32.5119 25.2901 30.0683 22.8466 30.0683 19.8573Z" fill="url(#paint4_linear_37_1299)"/>
<defs>
<linearGradient id="paint0_linear_37_1299" x1="-16.7833" y1="-3.5168e-05" x2="77.019" y2="2.28676" gradientUnits="userSpaceOnUse">
<stop stop-color="#37DADA"/>
<stop offset="1" stop-color="#254DB5"/>
</linearGradient>
<linearGradient id="paint1_linear_37_1299" x1="-5.95071" y1="5.2783" x2="57.27" y2="6.81905" gradientUnits="userSpaceOnUse">
<stop stop-color="#37DADA"/>
<stop offset="1" stop-color="#254DB5"/>
</linearGradient>
<linearGradient id="paint2_linear_37_1299" x1="72.3012" y1="41.0901" x2="114.4" y2="42.7121" gradientUnits="userSpaceOnUse">
<stop stop-color="#37DADA"/>
<stop offset="1" stop-color="#254DB5"/>
</linearGradient>
<linearGradient id="paint3_linear_37_1299" x1="14.5296" y1="42.3003" x2="47.7483" y2="43.8699" gradientUnits="userSpaceOnUse">
<stop stop-color="#37DADA"/>
<stop offset="1" stop-color="#254DB5"/>
</linearGradient>
<linearGradient id="paint4_linear_37_1299" x1="20.309" y1="11.886" x2="43.2332" y2="12.325" gradientUnits="userSpaceOnUse">
<stop stop-color="#37DADA"/>
<stop offset="1" stop-color="#254DB5"/>
</linearGradient>
</defs>
</svg>
