<svg width="94" height="91" viewBox="0 0 94 91" fill="none" xmlns="http://www.w3.org/2000/svg">
<path d="M41.1442 78.3516C41.646 83.9482 37.9793 86.2254 33.5793 85.878C32.6143 85.8008 31.6494 85.878 30.6845 85.7622C27.481 85.299 25.4739 83.099 25.4353 79.8955C25.3967 78.2744 24.9722 77.0007 23.4283 76.306C21.8072 75.5726 20.6493 76.3446 19.4914 77.4253C17.0598 79.7411 13.6247 79.7411 11.1545 77.4639C10.2668 76.6147 9.41763 75.7656 8.5685 74.8779C6.02111 72.2533 5.90532 68.934 8.41411 66.2708C9.53342 65.0743 10.1896 63.9164 9.53342 62.2953C8.87727 60.79 7.64218 60.4041 6.0983 60.3655C2.35441 60.2497 0.0771937 57.8181 0 54.0742C0 53.2251 0 52.4145 0 51.5654C0 47.0882 1.96844 44.9267 6.40708 44.6566C7.91235 44.5794 8.99306 43.9618 9.57202 42.5723C10.1896 41.1442 9.61061 39.9863 8.6071 38.9056C5.86672 35.9337 5.94391 32.8073 8.76148 29.874C9.30184 29.3336 9.8422 28.7933 10.3826 28.2529C13.7019 25.0108 16.3265 25.0108 20.0318 27.9441C20.8809 28.6003 22.5792 28.9476 23.4669 28.5617C24.3932 28.1757 25.2423 26.6704 25.3581 25.5897C25.7441 21.3055 27.8669 19.144 32.1512 19.1826C33.0003 19.1826 33.8108 19.2212 34.66 19.2212C38.867 19.2598 41.0284 21.3055 41.1828 25.5511C41.26 26.9792 41.7618 28.0599 43.0741 28.6389C44.4636 29.2564 45.6987 28.9862 46.7794 27.9055C47.1268 27.5582 47.5127 27.2108 47.9373 26.902C49.9829 25.4353 52.8777 25.3967 54.7689 26.9792C55.3093 27.4424 55.3865 28.4459 55.6567 29.2178C54.8847 29.2178 53.9198 29.5652 53.3408 29.2178C51.604 28.2143 50.1759 28.3687 48.825 29.7582C46.8952 31.7266 44.6566 32.267 42.1478 31.2249C39.6004 30.1827 38.5197 28.1371 38.5197 25.4353C38.5197 23.1967 37.2846 22.0388 35.0459 21.9616C33.888 21.923 32.7301 21.923 31.5722 21.923C29.5266 22.0002 28.1371 23.2353 28.1757 25.3195C28.2143 28.1371 27.1722 30.2213 24.509 31.2634C21.923 32.267 19.6458 31.6108 17.6774 29.6038C16.2107 28.0985 14.6282 28.1757 13.0843 29.6038C12.6212 30.0284 12.158 30.4915 11.6948 30.9547C8.64569 34.0038 8.64569 34.4284 11.2703 37.7863C12.6984 39.6004 12.9685 41.646 12.0808 43.7688C11.1545 46.0074 9.41763 47.1653 7.02463 47.3583C3.39652 47.6671 2.66318 48.4776 2.70178 52.1829C2.70178 52.8777 2.66318 53.611 2.74038 54.3058C2.89476 56.4286 4.01407 57.6637 6.1755 57.7023C8.99306 57.7023 11.0773 58.8216 12.158 61.4076C13.2387 64.0322 12.3896 66.2322 10.4597 68.2392C9.07026 69.6673 9.14745 71.327 10.4983 72.8709C11.0001 73.4498 11.5791 73.9902 12.1194 74.5305C14.744 77.1551 15.6317 77.1937 18.4493 74.8393C20.3405 73.2568 22.4634 72.8323 24.7406 73.8744C26.9792 74.8779 28.1757 76.6533 28.2529 79.1621C28.3301 82.0569 29.3722 83.0604 32.267 83.1762C32.3828 83.1762 32.5371 83.1762 32.6529 83.1762C38.0565 83.3306 38.7126 82.6745 38.674 77.3481C38.674 76.8849 38.5197 76.3832 38.7126 76.0358C39.0214 75.4954 39.5232 75.0323 39.9477 74.5691C40.4109 75.0709 41.1056 75.534 41.2986 76.113C41.3372 76.7691 41.1442 77.5797 41.1442 78.3516Z" fill="black"/>
<path d="M41.1442 78.3516C41.646 83.9482 37.9793 86.2254 33.5793 85.878C32.6143 85.8008 31.6494 85.878 30.6845 85.7622C27.481 85.299 25.4739 83.099 25.4353 79.8955C25.3967 78.2744 24.9722 77.0007 23.4283 76.306C21.8072 75.5726 20.6493 76.3446 19.4914 77.4253C17.0598 79.7411 13.6247 79.7411 11.1545 77.4639C10.2668 76.6147 9.41763 75.7656 8.5685 74.8779C6.02111 72.2533 5.90532 68.934 8.41411 66.2708C9.53342 65.0743 10.1896 63.9164 9.53342 62.2953C8.87727 60.79 7.64218 60.4041 6.0983 60.3655C2.35441 60.2497 0.0771937 57.8181 0 54.0742C0 53.2251 0 52.4145 0 51.5654C0 47.0882 1.96844 44.9267 6.40708 44.6566C7.91235 44.5794 8.99306 43.9618 9.57202 42.5723C10.1896 41.1442 9.61061 39.9863 8.6071 38.9056C5.86672 35.9337 5.94391 32.8073 8.76148 29.874C9.30184 29.3336 9.8422 28.7933 10.3826 28.2529C13.7019 25.0108 16.3265 25.0108 20.0318 27.9441C20.8809 28.6003 22.5792 28.9476 23.4669 28.5617C24.3932 28.1757 25.2423 26.6704 25.3581 25.5897C25.7441 21.3055 27.8669 19.144 32.1512 19.1826C33.0003 19.1826 33.8108 19.2212 34.66 19.2212C38.867 19.2598 41.0284 21.3055 41.1828 25.5511C41.26 26.9792 41.7618 28.0599 43.0741 28.6389C44.4636 29.2564 45.6987 28.9862 46.7794 27.9055C47.1268 27.5582 47.5127 27.2108 47.9373 26.902C49.9829 25.4353 52.8777 25.3967 54.7689 26.9792C55.3093 27.4424 55.3865 28.4459 55.6567 29.2178C54.8847 29.2178 53.9198 29.5652 53.3408 29.2178C51.604 28.2143 50.1759 28.3687 48.825 29.7582C46.8952 31.7266 44.6566 32.267 42.1478 31.2249C39.6004 30.1827 38.5197 28.1371 38.5197 25.4353C38.5197 23.1967 37.2846 22.0388 35.0459 21.9616C33.888 21.923 32.7301 21.923 31.5722 21.923C29.5266 22.0002 28.1371 23.2353 28.1757 25.3195C28.2143 28.1371 27.1722 30.2213 24.509 31.2634C21.923 32.267 19.6458 31.6108 17.6774 29.6038C16.2107 28.0985 14.6282 28.1757 13.0843 29.6038C12.6212 30.0284 12.158 30.4915 11.6948 30.9547C8.64569 34.0038 8.64569 34.4284 11.2703 37.7863C12.6984 39.6004 12.9685 41.646 12.0808 43.7688C11.1545 46.0074 9.41763 47.1653 7.02463 47.3583C3.39652 47.6671 2.66318 48.4776 2.70178 52.1829C2.70178 52.8777 2.66318 53.611 2.74038 54.3058C2.89476 56.4286 4.01407 57.6637 6.1755 57.7023C8.99306 57.7023 11.0773 58.8216 12.158 61.4076C13.2387 64.0322 12.3896 66.2322 10.4597 68.2392C9.07026 69.6673 9.14745 71.327 10.4983 72.8709C11.0001 73.4498 11.5791 73.9902 12.1194 74.5305C14.744 77.1551 15.6317 77.1937 18.4493 74.8393C20.3405 73.2568 22.4634 72.8323 24.7406 73.8744C26.9792 74.8779 28.1757 76.6533 28.2529 79.1621C28.3301 82.0569 29.3722 83.0604 32.267 83.1762C32.3828 83.1762 32.5371 83.1762 32.6529 83.1762C38.0565 83.3306 38.7126 82.6745 38.674 77.3481C38.674 76.8849 38.5197 76.3832 38.7126 76.0358C39.0214 75.4954 39.5232 75.0323 39.9477 74.5691C40.4109 75.0709 41.1056 75.534 41.2986 76.113C41.3372 76.7691 41.1442 77.5797 41.1442 78.3516Z" fill="url(#paint0_linear_36_1262)"/>
<path d="M72.5619 69.783C75.6496 72.7936 78.776 75.8042 81.9023 78.8919C84.9515 81.9025 88.0006 84.9516 91.0498 88.0394C91.7059 88.7341 92.6322 89.4288 91.6673 90.471C90.5866 91.6289 89.8147 90.6253 89.1199 89.9306C83.4848 84.2955 77.8496 78.6603 72.2145 73.0252C71.7513 72.562 71.3654 72.0603 70.825 71.4427C64.7653 76.3445 58.0881 78.0042 50.6775 76.0743C45.4669 74.7234 41.4142 71.7129 38.4037 67.3129C32.344 58.397 33.8878 46.5091 41.9932 39.1371C49.7125 32.1125 61.9477 31.9581 70.1303 38.6354C77.6567 44.6951 81.7865 57.9724 72.5619 69.783ZM56.274 74.1059C66.6566 74.1445 75.1479 65.8076 75.1865 55.4636C75.2251 44.8495 66.8109 36.281 56.3898 36.3196C45.8143 36.3582 37.4001 44.8109 37.4387 55.3864C37.4387 65.6918 45.8915 74.0673 56.274 74.1059Z" fill="black"/>
<path d="M72.5619 69.783C75.6496 72.7936 78.776 75.8042 81.9023 78.8919C84.9515 81.9025 88.0006 84.9516 91.0498 88.0394C91.7059 88.7341 92.6322 89.4288 91.6673 90.471C90.5866 91.6289 89.8147 90.6253 89.1199 89.9306C83.4848 84.2955 77.8496 78.6603 72.2145 73.0252C71.7513 72.562 71.3654 72.0603 70.825 71.4427C64.7653 76.3445 58.0881 78.0042 50.6775 76.0743C45.4669 74.7234 41.4142 71.7129 38.4037 67.3129C32.344 58.397 33.8878 46.5091 41.9932 39.1371C49.7125 32.1125 61.9477 31.9581 70.1303 38.6354C77.6567 44.6951 81.7865 57.9724 72.5619 69.783ZM56.274 74.1059C66.6566 74.1445 75.1479 65.8076 75.1865 55.4636C75.2251 44.8495 66.8109 36.281 56.3898 36.3196C45.8143 36.3582 37.4001 44.8109 37.4387 55.3864C37.4387 65.6918 45.8915 74.0673 56.274 74.1059Z" fill="url(#paint1_linear_36_1262)"/>
<path d="M89.3129 36.4354C89.0427 39.7934 85.183 43.4601 81.9795 43.1899C81.2847 43.1127 80.4742 42.9583 80.0496 42.4951C79.4707 41.9162 78.7759 40.7969 78.9689 40.2565C79.4321 39.0214 80.397 39.7162 81.3619 40.0635C82.0952 40.3337 83.176 40.1407 83.9479 39.832C84.604 39.5618 85.0672 38.7898 85.6076 38.2495C86.5725 37.246 86.6497 36.2424 85.6462 35.2003C84.2567 33.7337 83.6391 32.0354 84.4496 30.1055C85.2602 28.1757 86.7269 27.2494 88.8111 27.2494C90.3936 27.2494 91.1269 26.3617 91.0497 24.7792C91.0111 24.123 91.0497 23.5055 91.0497 22.8493C91.0497 21.4598 90.3936 20.6879 88.9269 20.6879C86.8813 20.6879 85.3374 19.7616 84.4883 17.8703C83.6391 15.9405 84.1023 14.2036 85.569 12.737C86.6497 11.6562 86.6111 10.6141 85.569 9.57202C85.0672 9.07026 84.5654 8.5685 84.0637 8.06674C83.0602 7.10182 82.0952 6.98603 81.0531 8.02814C79.5864 9.49483 77.8882 9.95799 75.9583 9.18605C73.9899 8.41411 73.1794 6.87024 73.025 4.82461C72.8706 2.81757 72.4074 2.58599 69.4355 2.54739C67.853 2.5088 66.6179 2.77897 66.5407 4.74741C66.4635 6.75445 65.653 8.33692 63.6845 9.14745C61.7161 9.95799 60.0178 9.49483 58.5512 8.06674C57.4705 6.98603 56.4283 7.02463 55.3862 8.14394C54.8845 8.64569 54.3827 9.14745 53.8809 9.64921C52.8774 10.6527 52.8774 11.6562 53.8423 12.6598C55.2704 14.1264 55.8108 15.8247 55.0003 17.7546C54.1897 19.7616 52.5301 20.4949 50.4458 20.7651C49.7125 20.8423 49.0949 21.8072 48.4388 22.3476C47.8598 22.8107 47.3195 23.3125 46.7405 23.7757C46.4318 23.0423 45.8142 22.2704 45.8528 21.5756C46.0072 19.6458 47.7826 18.2949 49.7897 17.9861C50.716 17.8317 51.9897 17.4458 52.2985 16.7896C52.5687 16.1721 51.9897 14.937 51.4493 14.2036C50.0599 12.2352 49.9827 9.99658 51.5265 8.18253C52.2599 7.2948 53.109 6.48427 53.9967 5.75093C55.8494 4.20706 58.0494 4.32285 60.0178 5.78953C60.7126 6.29129 61.8319 6.87024 62.4494 6.63866C63.067 6.40708 63.5688 5.21058 63.6845 4.40004C64.1091 1.58247 65.6916 0.0385968 68.5863 0C69.2811 0 70.0144 0 70.7092 0C73.7583 0.0385968 75.225 1.42808 75.7654 4.47723C75.9197 5.32637 76.4215 6.40708 77.0777 6.71585C77.5794 6.98603 78.7373 6.36848 79.3549 5.90532C81.5549 4.24565 83.7549 4.24565 85.8005 6.0983C86.4567 6.71585 87.0742 7.372 87.6918 8.02814C89.4672 9.95799 89.4672 12.2352 87.8848 14.358C87.383 15.0528 86.8427 16.1721 87.0742 16.7896C87.3444 17.4072 88.5023 17.9475 89.3129 18.0633C92.0918 18.4493 93.5585 19.9546 93.6743 22.7721C93.7129 23.6213 93.6743 24.4318 93.6357 25.2809C93.5199 28.1757 91.976 29.7196 89.1585 30.1055C88.3865 30.2213 87.3058 30.6845 87.0356 31.2634C86.8041 31.8424 87.3444 32.8459 87.6918 33.5793C88.1935 34.5056 88.7725 35.4705 89.3129 36.4354Z" fill="black"/>
<path d="M89.3129 36.4354C89.0427 39.7934 85.183 43.4601 81.9795 43.1899C81.2847 43.1127 80.4742 42.9583 80.0496 42.4951C79.4707 41.9162 78.7759 40.7969 78.9689 40.2565C79.4321 39.0214 80.397 39.7162 81.3619 40.0635C82.0952 40.3337 83.176 40.1407 83.9479 39.832C84.604 39.5618 85.0672 38.7898 85.6076 38.2495C86.5725 37.246 86.6497 36.2424 85.6462 35.2003C84.2567 33.7337 83.6391 32.0354 84.4496 30.1055C85.2602 28.1757 86.7269 27.2494 88.8111 27.2494C90.3936 27.2494 91.1269 26.3617 91.0497 24.7792C91.0111 24.123 91.0497 23.5055 91.0497 22.8493C91.0497 21.4598 90.3936 20.6879 88.9269 20.6879C86.8813 20.6879 85.3374 19.7616 84.4883 17.8703C83.6391 15.9405 84.1023 14.2036 85.569 12.737C86.6497 11.6562 86.6111 10.6141 85.569 9.57202C85.0672 9.07026 84.5654 8.5685 84.0637 8.06674C83.0602 7.10182 82.0952 6.98603 81.0531 8.02814C79.5864 9.49483 77.8882 9.95799 75.9583 9.18605C73.9899 8.41411 73.1794 6.87024 73.025 4.82461C72.8706 2.81757 72.4074 2.58599 69.4355 2.54739C67.853 2.5088 66.6179 2.77897 66.5407 4.74741C66.4635 6.75445 65.653 8.33692 63.6845 9.14745C61.7161 9.95799 60.0178 9.49483 58.5512 8.06674C57.4705 6.98603 56.4283 7.02463 55.3862 8.14394C54.8845 8.64569 54.3827 9.14745 53.8809 9.64921C52.8774 10.6527 52.8774 11.6562 53.8423 12.6598C55.2704 14.1264 55.8108 15.8247 55.0003 17.7546C54.1897 19.7616 52.5301 20.4949 50.4458 20.7651C49.7125 20.8423 49.0949 21.8072 48.4388 22.3476C47.8598 22.8107 47.3195 23.3125 46.7405 23.7757C46.4318 23.0423 45.8142 22.2704 45.8528 21.5756C46.0072 19.6458 47.7826 18.2949 49.7897 17.9861C50.716 17.8317 51.9897 17.4458 52.2985 16.7896C52.5687 16.1721 51.9897 14.937 51.4493 14.2036C50.0599 12.2352 49.9827 9.99658 51.5265 8.18253C52.2599 7.2948 53.109 6.48427 53.9967 5.75093C55.8494 4.20706 58.0494 4.32285 60.0178 5.78953C60.7126 6.29129 61.8319 6.87024 62.4494 6.63866C63.067 6.40708 63.5688 5.21058 63.6845 4.40004C64.1091 1.58247 65.6916 0.0385968 68.5863 0C69.2811 0 70.0144 0 70.7092 0C73.7583 0.0385968 75.225 1.42808 75.7654 4.47723C75.9197 5.32637 76.4215 6.40708 77.0777 6.71585C77.5794 6.98603 78.7373 6.36848 79.3549 5.90532C81.5549 4.24565 83.7549 4.24565 85.8005 6.0983C86.4567 6.71585 87.0742 7.372 87.6918 8.02814C89.4672 9.95799 89.4672 12.2352 87.8848 14.358C87.383 15.0528 86.8427 16.1721 87.0742 16.7896C87.3444 17.4072 88.5023 17.9475 89.3129 18.0633C92.0918 18.4493 93.5585 19.9546 93.6743 22.7721C93.7129 23.6213 93.6743 24.4318 93.6357 25.2809C93.5199 28.1757 91.976 29.7196 89.1585 30.1055C88.3865 30.2213 87.3058 30.6845 87.0356 31.2634C86.8041 31.8424 87.3444 32.8459 87.6918 33.5793C88.1935 34.5056 88.7725 35.4705 89.3129 36.4354Z" fill="url(#paint2_linear_36_1262)"/>
<path d="M69.6287 33.1162C64.5339 33.039 60.4812 28.8705 60.5198 23.8143C60.5584 18.7967 64.8427 14.6283 69.8216 14.7441C74.8778 14.8598 78.9691 19.0283 78.9305 24.0845C78.8919 29.1021 74.6848 33.1933 69.6287 33.1162ZM76.2287 23.9301C76.1901 20.3792 73.2182 17.4458 69.6287 17.4844C66.1935 17.4844 63.183 20.4564 63.183 23.8915C63.1444 27.481 66.2707 30.5302 69.8602 30.453C73.2954 30.3758 76.2673 27.3266 76.2287 23.9301Z" fill="black"/>
<path d="M69.6287 33.1162C64.5339 33.039 60.4812 28.8705 60.5198 23.8143C60.5584 18.7967 64.8427 14.6283 69.8216 14.7441C74.8778 14.8598 78.9691 19.0283 78.9305 24.0845C78.8919 29.1021 74.6848 33.1933 69.6287 33.1162ZM76.2287 23.9301C76.1901 20.3792 73.2182 17.4458 69.6287 17.4844C66.1935 17.4844 63.183 20.4564 63.183 23.8915C63.1444 27.481 66.2707 30.5302 69.8602 30.453C73.2954 30.3758 76.2673 27.3266 76.2287 23.9301Z" fill="url(#paint3_linear_36_1262)"/>
<path d="M20.8809 52.4532C21.1124 46.0075 25.5897 41.0285 31.7652 40.218C32.1897 40.1408 32.7301 40.025 33.0775 40.1794C33.6178 40.4495 34.0424 40.9899 34.5055 41.4145C34.081 41.8776 33.7336 42.5338 33.1933 42.7268C32.3055 43.0741 31.302 42.9969 30.3757 43.2671C26.6704 44.3478 23.93 47.7444 23.6212 51.5654C23.2739 55.6567 25.2809 59.3234 28.8318 61.0989C29.5266 61.4462 30.3757 61.5234 30.9546 61.9866C31.4178 62.334 31.5722 63.0673 31.881 63.6077C31.302 63.8778 30.6845 64.4568 30.1827 64.3796C29.0634 64.148 27.9441 63.7234 26.9792 63.1445C22.9265 60.7129 20.9581 57.0076 20.8809 52.4532Z" fill="black"/>
<path d="M20.8809 52.4532C21.1124 46.0075 25.5897 41.0285 31.7652 40.218C32.1897 40.1408 32.7301 40.025 33.0775 40.1794C33.6178 40.4495 34.0424 40.9899 34.5055 41.4145C34.081 41.8776 33.7336 42.5338 33.1933 42.7268C32.3055 43.0741 31.302 42.9969 30.3757 43.2671C26.6704 44.3478 23.93 47.7444 23.6212 51.5654C23.2739 55.6567 25.2809 59.3234 28.8318 61.0989C29.5266 61.4462 30.3757 61.5234 30.9546 61.9866C31.4178 62.334 31.5722 63.0673 31.881 63.6077C31.302 63.8778 30.6845 64.4568 30.1827 64.3796C29.0634 64.148 27.9441 63.7234 26.9792 63.1445C22.9265 60.7129 20.9581 57.0076 20.8809 52.4532Z" fill="url(#paint4_linear_36_1262)"/>
<path d="M56.4675 40.1021C62.1412 40.6038 66.0781 42.8038 68.8956 46.9337C69.4746 47.7828 69.9764 48.7092 68.8956 49.4425C67.7763 50.1758 67.1974 49.2495 66.6184 48.439C64.3026 45.0039 61.0605 43.2284 56.9692 42.881C56.0815 42.8038 54.885 42.8424 55.1166 41.5687C55.271 40.874 56.1973 40.3722 56.4675 40.1021Z" fill="black"/>
<path d="M56.4675 40.1021C62.1412 40.6038 66.0781 42.8038 68.8956 46.9337C69.4746 47.7828 69.9764 48.7092 68.8956 49.4425C67.7763 50.1758 67.1974 49.2495 66.6184 48.439C64.3026 45.0039 61.0605 43.2284 56.9692 42.881C56.0815 42.8038 54.885 42.8424 55.1166 41.5687C55.271 40.874 56.1973 40.3722 56.4675 40.1021Z" fill="url(#paint5_linear_36_1262)"/>
<path d="M71.9832 54.6145C71.0955 55.5022 70.5551 56.0426 70.0148 56.5829C69.5516 55.8882 68.7797 55.1935 68.7411 54.4601C68.7025 53.8426 69.513 53.1478 69.9762 52.5303C70.5165 53.0706 71.0955 53.6882 71.9832 54.6145Z" fill="black"/>
<path d="M71.9832 54.6145C71.0955 55.5022 70.5551 56.0426 70.0148 56.5829C69.5516 55.8882 68.7797 55.1935 68.7411 54.4601C68.7025 53.8426 69.513 53.1478 69.9762 52.5303C70.5165 53.0706 71.0955 53.6882 71.9832 54.6145Z" fill="url(#paint6_linear_36_1262)"/>
<defs>
<linearGradient id="paint0_linear_36_1262" x1="-10.2765" y1="19.1821" x2="47.1695" y2="20.3515" gradientUnits="userSpaceOnUse">
<stop stop-color="#37DADA"/>
<stop offset="1" stop-color="#254DB5"/>
</linearGradient>
<linearGradient id="paint1_linear_36_1262" x1="24.1199" y1="33.7451" x2="83.3244" y2="35.193" gradientUnits="userSpaceOnUse">
<stop stop-color="#37DADA"/>
<stop offset="1" stop-color="#254DB5"/>
</linearGradient>
<linearGradient id="paint2_linear_36_1262" x1="37.018" y1="-1.66967e-05" x2="86.3796" y2="1.33398" gradientUnits="userSpaceOnUse">
<stop stop-color="#37DADA"/>
<stop offset="1" stop-color="#254DB5"/>
</linearGradient>
<linearGradient id="paint3_linear_36_1262" x1="57.1201" y1="14.7417" x2="76.1197" y2="15.2063" gradientUnits="userSpaceOnUse">
<stop stop-color="#37DADA"/>
<stop offset="1" stop-color="#254DB5"/>
</linearGradient>
<linearGradient id="paint4_linear_36_1262" x1="18.3652" y1="40.1033" x2="32.4311" y2="40.2959" gradientUnits="userSpaceOnUse">
<stop stop-color="#37DADA"/>
<stop offset="1" stop-color="#254DB5"/>
</linearGradient>
<linearGradient id="paint5_linear_36_1262" x1="52.4204" y1="40.102" x2="67.3151" y2="40.6486" gradientUnits="userSpaceOnUse">
<stop stop-color="#37DADA"/>
<stop offset="1" stop-color="#254DB5"/>
</linearGradient>
<linearGradient id="paint6_linear_36_1262" x1="68.1409" y1="52.5303" x2="71.4887" y2="52.5957" gradientUnits="userSpaceOnUse">
<stop stop-color="#37DADA"/>
<stop offset="1" stop-color="#254DB5"/>
</linearGradient>
</defs>
</svg>
