<svg width="91" height="91" viewBox="0 0 91 91" fill="none" xmlns="http://www.w3.org/2000/svg">
<path d="M90.9579 40.3755C87.7716 45.4842 84.5854 50.6107 81.3813 55.7016C81.1143 56.1111 80.7583 56.5027 80.3845 56.8053C73.7271 62.27 67.052 67.7169 60.4124 73.1638C59.7538 73.6979 59.0774 73.9471 58.2229 73.9471C50.3552 73.9293 42.4874 73.9649 34.6018 73.9115C33.427 73.9115 32.5548 74.1429 31.8427 75.0863C31.6469 75.3355 31.3443 75.5135 30.9349 75.8339C31.7715 76.5993 32.5014 77.2401 33.1956 77.9344C34.406 79.1448 34.4238 80.0882 33.2312 81.2986C30.2941 84.2535 27.3392 87.2084 24.3844 90.1454C24.0462 90.4659 23.6367 90.7151 23.2629 90.9999C22.9069 90.9999 22.5509 90.9999 22.1949 90.9999C20.4861 89.8606 20.3793 88.757 21.8567 87.2796C24.1708 84.9477 26.5026 82.6337 28.8345 80.3018C29.0481 80.0882 29.2439 79.8746 29.3685 79.7322C22.6933 73.057 16.0538 66.3997 9.21841 59.5643C8.987 59.8669 8.72 60.3119 8.36399 60.668C6.70855 62.359 5.03531 64.0322 3.34427 65.6877C2.48985 66.5243 1.31502 66.5243 0.567407 65.7767C-0.18021 65.0291 -0.215811 63.9076 0.620808 63.071C3.07727 60.5612 5.56932 58.0513 8.09698 55.5948C9.0404 54.6692 10.055 54.7582 11.0697 55.7372C12.6539 57.2859 14.2203 58.8701 15.7868 60.4366C19.7563 64.406 23.7435 68.3933 27.713 72.3628C27.9444 72.5942 28.1758 72.8078 28.4963 73.1105C28.9769 72.612 29.4753 72.1848 29.8669 71.6864C30.8459 70.4226 32.0919 70.0666 33.6584 70.0666C41.4372 70.1378 49.2337 70.0844 57.0125 70.1022C57.7779 70.1022 58.3476 69.8886 58.935 69.4258C65.1295 64.3348 71.3419 59.2617 77.5542 54.1708C77.8746 53.9038 78.1772 53.619 78.4086 53.2808C81.0609 49.0799 83.6775 44.8612 86.312 40.6425C86.3654 40.5357 86.4188 40.4289 86.49 40.2687C85.422 39.5389 84.2472 39.6457 83.2147 40.1085C82.1111 40.6069 81.1321 41.4079 80.0819 42.0665C79.9929 42.1377 79.9039 42.2267 79.8327 42.3157C76.6464 46.0004 72.7303 48.7061 68.476 50.9845C68.1734 51.1447 67.8708 51.3405 67.5326 51.5541C67.7106 52.1772 67.942 52.7824 68.0666 53.4054C69.0456 58.1581 65.5389 62.4836 60.6438 62.5192C55.2503 62.5548 49.8746 62.537 44.481 62.537C42.5586 62.537 42.1314 62.8574 41.6686 64.7265C41.3838 65.9013 40.5827 66.4531 39.4613 66.2751C38.4645 66.1149 37.8059 65.1537 37.9305 64.0322C38.3221 60.7214 40.6005 58.7633 44.125 58.7455C49.3583 58.7277 54.6095 58.7455 59.8428 58.7277C60.4658 58.7277 61.1066 58.7099 61.694 58.5675C63.3317 58.1581 64.4175 56.6451 64.3997 54.9362C64.3819 53.2274 63.2783 51.7678 61.6228 51.3583C61.1066 51.2337 60.5726 51.1803 60.0386 51.1803C55.4283 51.1625 50.8002 51.1269 46.1899 51.1981C44.1784 51.2337 42.2382 51.0201 40.3869 50.2369C38.5535 49.4537 36.6666 49.2045 34.673 49.2935C32.3589 49.3825 30.0627 49.3113 27.7486 49.3647C24.7404 49.4537 22.1949 50.6285 20.0767 52.7468C19.5248 53.2986 19.0086 53.8504 18.439 54.3666C17.5668 55.132 16.4454 55.132 15.7334 54.4022C15.0035 53.6546 15.0035 52.5688 15.769 51.6787C19.3112 47.6025 23.6723 45.2706 29.2083 45.4842C30.3653 45.5198 31.5223 45.5554 32.6794 45.4842C36.364 45.2172 39.9241 45.6978 43.3418 47.1574C43.7868 47.3532 44.3208 47.3711 44.8192 47.3711C49.7856 47.3889 54.7697 47.3889 59.736 47.3711C61.4092 47.3711 63.0291 47.5491 64.5243 48.4391C64.7379 48.5637 65.1473 48.5281 65.3787 48.3857C67.7462 46.9972 70.1492 45.6444 72.4455 44.1314C73.4245 43.4906 74.1543 42.5115 75.0265 41.7105C76.6286 40.2687 78.1772 38.7557 79.9217 37.4918C82.5383 35.605 86.8104 35.2312 89.7119 37.83C90.1925 38.2572 90.5663 38.7913 90.9935 39.2719C90.9579 39.6635 90.9579 40.0195 90.9579 40.3755Z" fill="black"/>
<path d="M90.9579 40.3755C87.7716 45.4842 84.5854 50.6107 81.3813 55.7016C81.1143 56.1111 80.7583 56.5027 80.3845 56.8053C73.7271 62.27 67.052 67.7169 60.4124 73.1638C59.7538 73.6979 59.0774 73.9471 58.2229 73.9471C50.3552 73.9293 42.4874 73.9649 34.6018 73.9115C33.427 73.9115 32.5548 74.1429 31.8427 75.0863C31.6469 75.3355 31.3443 75.5135 30.9349 75.8339C31.7715 76.5993 32.5014 77.2401 33.1956 77.9344C34.406 79.1448 34.4238 80.0882 33.2312 81.2986C30.2941 84.2535 27.3392 87.2084 24.3844 90.1454C24.0462 90.4659 23.6367 90.7151 23.2629 90.9999C22.9069 90.9999 22.5509 90.9999 22.1949 90.9999C20.4861 89.8606 20.3793 88.757 21.8567 87.2796C24.1708 84.9477 26.5026 82.6337 28.8345 80.3018C29.0481 80.0882 29.2439 79.8746 29.3685 79.7322C22.6933 73.057 16.0538 66.3997 9.21841 59.5643C8.987 59.8669 8.72 60.3119 8.36399 60.668C6.70855 62.359 5.03531 64.0322 3.34427 65.6877C2.48985 66.5243 1.31502 66.5243 0.567407 65.7767C-0.18021 65.0291 -0.215811 63.9076 0.620808 63.071C3.07727 60.5612 5.56932 58.0513 8.09698 55.5948C9.0404 54.6692 10.055 54.7582 11.0697 55.7372C12.6539 57.2859 14.2203 58.8701 15.7868 60.4366C19.7563 64.406 23.7435 68.3933 27.713 72.3628C27.9444 72.5942 28.1758 72.8078 28.4963 73.1105C28.9769 72.612 29.4753 72.1848 29.8669 71.6864C30.8459 70.4226 32.0919 70.0666 33.6584 70.0666C41.4372 70.1378 49.2337 70.0844 57.0125 70.1022C57.7779 70.1022 58.3476 69.8886 58.935 69.4258C65.1295 64.3348 71.3419 59.2617 77.5542 54.1708C77.8746 53.9038 78.1772 53.619 78.4086 53.2808C81.0609 49.0799 83.6775 44.8612 86.312 40.6425C86.3654 40.5357 86.4188 40.4289 86.49 40.2687C85.422 39.5389 84.2472 39.6457 83.2147 40.1085C82.1111 40.6069 81.1321 41.4079 80.0819 42.0665C79.9929 42.1377 79.9039 42.2267 79.8327 42.3157C76.6464 46.0004 72.7303 48.7061 68.476 50.9845C68.1734 51.1447 67.8708 51.3405 67.5326 51.5541C67.7106 52.1772 67.942 52.7824 68.0666 53.4054C69.0456 58.1581 65.5389 62.4836 60.6438 62.5192C55.2503 62.5548 49.8746 62.537 44.481 62.537C42.5586 62.537 42.1314 62.8574 41.6686 64.7265C41.3838 65.9013 40.5827 66.4531 39.4613 66.2751C38.4645 66.1149 37.8059 65.1537 37.9305 64.0322C38.3221 60.7214 40.6005 58.7633 44.125 58.7455C49.3583 58.7277 54.6095 58.7455 59.8428 58.7277C60.4658 58.7277 61.1066 58.7099 61.694 58.5675C63.3317 58.1581 64.4175 56.6451 64.3997 54.9362C64.3819 53.2274 63.2783 51.7678 61.6228 51.3583C61.1066 51.2337 60.5726 51.1803 60.0386 51.1803C55.4283 51.1625 50.8002 51.1269 46.1899 51.1981C44.1784 51.2337 42.2382 51.0201 40.3869 50.2369C38.5535 49.4537 36.6666 49.2045 34.673 49.2935C32.3589 49.3825 30.0627 49.3113 27.7486 49.3647C24.7404 49.4537 22.1949 50.6285 20.0767 52.7468C19.5248 53.2986 19.0086 53.8504 18.439 54.3666C17.5668 55.132 16.4454 55.132 15.7334 54.4022C15.0035 53.6546 15.0035 52.5688 15.769 51.6787C19.3112 47.6025 23.6723 45.2706 29.2083 45.4842C30.3653 45.5198 31.5223 45.5554 32.6794 45.4842C36.364 45.2172 39.9241 45.6978 43.3418 47.1574C43.7868 47.3532 44.3208 47.3711 44.8192 47.3711C49.7856 47.3889 54.7697 47.3889 59.736 47.3711C61.4092 47.3711 63.0291 47.5491 64.5243 48.4391C64.7379 48.5637 65.1473 48.5281 65.3787 48.3857C67.7462 46.9972 70.1492 45.6444 72.4455 44.1314C73.4245 43.4906 74.1543 42.5115 75.0265 41.7105C76.6286 40.2687 78.1772 38.7557 79.9217 37.4918C82.5383 35.605 86.8104 35.2312 89.7119 37.83C90.1925 38.2572 90.5663 38.7913 90.9935 39.2719C90.9579 39.6635 90.9579 40.0195 90.9579 40.3755Z" fill="url(#paint0_linear_37_1306)"/>
<path d="M65.1118 20.3323C67.9776 22.2548 70.7189 24.1238 73.5136 25.9039C75.1512 26.9541 75.8988 28.3425 75.8454 30.265C75.792 32.045 75.8276 33.8251 75.8276 35.5873C75.8276 36.4773 75.525 37.1715 74.8308 37.7589C71.9293 40.2154 68.5828 41.5504 64.8092 41.7462C63.9191 41.7996 63.1715 41.5148 62.7443 40.6604C62.3883 39.9662 62.4061 39.183 62.9757 38.6846C63.4563 38.2752 64.1505 37.9547 64.7735 37.9191C67.2478 37.7945 69.4551 36.9579 71.4309 35.5339C71.6979 35.3381 71.9293 34.8753 71.9471 34.5371C72.0005 33.0596 72.0005 31.5822 71.9471 30.1048C71.9293 29.7666 71.6979 29.3215 71.4131 29.1257C68.2268 26.9541 65.0406 24.8358 61.8187 22.7176C61.5873 22.5574 61.2313 22.5396 60.9465 22.5396C59.4868 22.5218 58.0094 22.5218 56.5498 22.5396C56.2649 22.5396 55.9089 22.593 55.6953 22.7532C53.0965 24.8002 50.4976 26.8651 47.9344 28.9655C47.6496 29.1969 47.4715 29.6776 47.4181 30.0692C47.3291 30.71 47.4181 31.3686 47.3825 32.0272C47.3291 33.3088 46.5459 34.1455 45.4423 34.1277C44.3387 34.1277 43.3953 33.2554 43.5733 32.0094C43.8581 29.8912 42.9146 28.6629 41.277 27.5237C39.2478 26.0997 37.3609 24.462 35.4385 22.8956C35.0469 22.5752 34.7087 22.504 34.1746 22.5574C32.804 22.6642 31.4156 22.5574 30.0449 22.5752C29.7245 22.5752 29.3329 22.593 29.0837 22.7532C25.8618 24.8714 22.6756 26.9897 19.4893 29.1613C19.2223 29.3393 18.9909 29.8022 18.9731 30.1404C18.9197 31.5822 18.9197 33.0418 18.9731 34.4837C18.9909 34.8575 19.2223 35.3381 19.5071 35.5517C21.6965 37.1181 24.1352 37.9369 26.8765 37.9191C36.6489 37.8835 46.4213 37.9013 56.1937 37.9013C57.6178 37.9013 58.3476 38.3464 58.6146 39.361C58.8638 40.3222 58.3476 41.319 57.3864 41.586C56.9948 41.6928 56.5676 41.7462 56.1581 41.7462C46.3501 41.7462 36.5599 41.764 26.7519 41.7462C22.729 41.7284 19.1867 40.3578 16.0894 37.7767C15.3774 37.1715 15.057 36.4595 15.057 35.5339C15.0748 33.6648 15.0748 31.7958 15.057 29.9446C15.0392 28.2713 15.6978 26.9897 17.1218 26.0641C19.7385 24.3552 22.3374 22.593 24.954 20.8486C25.2032 20.6883 25.4346 20.5103 25.755 20.2967C24.4378 18.9439 23.3164 17.4665 22.996 15.6152C22.4976 12.6782 22.3018 9.68769 23.1028 6.82183C24.0818 3.31514 26.5561 1.03669 30.1339 0.253473C33.8186 -0.547545 36.9515 0.591681 39.4258 3.47535C40.9566 5.27319 41.6152 7.35584 41.6686 9.68769C41.6864 10.6667 41.6508 11.6457 41.6686 12.6248C41.7398 15.6508 40.743 18.2497 38.4289 20.4213C40.7608 22.2904 43.057 24.1238 45.4245 26.0285C47.7564 24.1772 50.0704 22.3082 52.4379 20.4213C49.9992 18.1785 49.038 15.4194 49.1982 12.2332C49.2872 10.5243 49.1982 8.76207 49.572 7.12443C50.6222 2.56753 55.2681 -0.529745 59.8072 0.0754693C64.5777 0.716284 68.1378 4.66798 68.1556 9.38509C68.1734 11.0761 68.2446 12.7672 68.0844 14.4404C67.942 16.7545 66.8384 18.6591 65.1118 20.3323ZM37.9661 11.4677C37.9305 11.4677 37.8949 11.4677 37.8415 11.4499C37.8415 10.7379 37.8593 10.0259 37.8415 9.31388C37.7525 6.64382 35.6699 4.25857 33.1778 3.93816C30.1873 3.54655 27.4461 5.11299 26.8587 7.94325C26.4671 9.81229 26.5561 11.8237 26.6273 13.764C26.7341 16.4162 28.8701 18.6235 31.3266 18.8905C34.2992 19.2109 36.8269 17.6979 37.5745 14.9744C37.8771 13.853 37.8415 12.6426 37.9661 11.4677ZM52.9719 11.3609C53.0075 11.3609 53.0431 11.3609 53.0965 11.3787C53.0965 12.0907 53.0787 12.8028 53.0965 13.5148C53.1855 16.1848 55.2681 18.5701 57.7602 18.8905C60.7329 19.2643 63.4741 17.7335 64.0615 14.9744C64.4709 13.0698 64.3819 11.0405 64.3107 9.08248C64.2039 6.41242 62.0857 4.20517 59.6114 3.93816C56.6388 3.61775 54.1111 5.13079 53.3635 7.85425C53.0609 8.97568 53.0965 10.1861 52.9719 11.3609Z" fill="black"/>
<path d="M65.1118 20.3323C67.9776 22.2548 70.7189 24.1238 73.5136 25.9039C75.1512 26.9541 75.8988 28.3425 75.8454 30.265C75.792 32.045 75.8276 33.8251 75.8276 35.5873C75.8276 36.4773 75.525 37.1715 74.8308 37.7589C71.9293 40.2154 68.5828 41.5504 64.8092 41.7462C63.9191 41.7996 63.1715 41.5148 62.7443 40.6604C62.3883 39.9662 62.4061 39.183 62.9757 38.6846C63.4563 38.2752 64.1505 37.9547 64.7735 37.9191C67.2478 37.7945 69.4551 36.9579 71.4309 35.5339C71.6979 35.3381 71.9293 34.8753 71.9471 34.5371C72.0005 33.0596 72.0005 31.5822 71.9471 30.1048C71.9293 29.7666 71.6979 29.3215 71.4131 29.1257C68.2268 26.9541 65.0406 24.8358 61.8187 22.7176C61.5873 22.5574 61.2313 22.5396 60.9465 22.5396C59.4868 22.5218 58.0094 22.5218 56.5498 22.5396C56.2649 22.5396 55.9089 22.593 55.6953 22.7532C53.0965 24.8002 50.4976 26.8651 47.9344 28.9655C47.6496 29.1969 47.4715 29.6776 47.4181 30.0692C47.3291 30.71 47.4181 31.3686 47.3825 32.0272C47.3291 33.3088 46.5459 34.1455 45.4423 34.1277C44.3387 34.1277 43.3953 33.2554 43.5733 32.0094C43.8581 29.8912 42.9146 28.6629 41.277 27.5237C39.2478 26.0997 37.3609 24.462 35.4385 22.8956C35.0469 22.5752 34.7087 22.504 34.1746 22.5574C32.804 22.6642 31.4156 22.5574 30.0449 22.5752C29.7245 22.5752 29.3329 22.593 29.0837 22.7532C25.8618 24.8714 22.6756 26.9897 19.4893 29.1613C19.2223 29.3393 18.9909 29.8022 18.9731 30.1404C18.9197 31.5822 18.9197 33.0418 18.9731 34.4837C18.9909 34.8575 19.2223 35.3381 19.5071 35.5517C21.6965 37.1181 24.1352 37.9369 26.8765 37.9191C36.6489 37.8835 46.4213 37.9013 56.1937 37.9013C57.6178 37.9013 58.3476 38.3464 58.6146 39.361C58.8638 40.3222 58.3476 41.319 57.3864 41.586C56.9948 41.6928 56.5676 41.7462 56.1581 41.7462C46.3501 41.7462 36.5599 41.764 26.7519 41.7462C22.729 41.7284 19.1867 40.3578 16.0894 37.7767C15.3774 37.1715 15.057 36.4595 15.057 35.5339C15.0748 33.6648 15.0748 31.7958 15.057 29.9446C15.0392 28.2713 15.6978 26.9897 17.1218 26.0641C19.7385 24.3552 22.3374 22.593 24.954 20.8486C25.2032 20.6883 25.4346 20.5103 25.755 20.2967C24.4378 18.9439 23.3164 17.4665 22.996 15.6152C22.4976 12.6782 22.3018 9.68769 23.1028 6.82183C24.0818 3.31514 26.5561 1.03669 30.1339 0.253473C33.8186 -0.547545 36.9515 0.591681 39.4258 3.47535C40.9566 5.27319 41.6152 7.35584 41.6686 9.68769C41.6864 10.6667 41.6508 11.6457 41.6686 12.6248C41.7398 15.6508 40.743 18.2497 38.4289 20.4213C40.7608 22.2904 43.057 24.1238 45.4245 26.0285C47.7564 24.1772 50.0704 22.3082 52.4379 20.4213C49.9992 18.1785 49.038 15.4194 49.1982 12.2332C49.2872 10.5243 49.1982 8.76207 49.572 7.12443C50.6222 2.56753 55.2681 -0.529745 59.8072 0.0754693C64.5777 0.716284 68.1378 4.66798 68.1556 9.38509C68.1734 11.0761 68.2446 12.7672 68.0844 14.4404C67.942 16.7545 66.8384 18.6591 65.1118 20.3323ZM37.9661 11.4677C37.9305 11.4677 37.8949 11.4677 37.8415 11.4499C37.8415 10.7379 37.8593 10.0259 37.8415 9.31388C37.7525 6.64382 35.6699 4.25857 33.1778 3.93816C30.1873 3.54655 27.4461 5.11299 26.8587 7.94325C26.4671 9.81229 26.5561 11.8237 26.6273 13.764C26.7341 16.4162 28.8701 18.6235 31.3266 18.8905C34.2992 19.2109 36.8269 17.6979 37.5745 14.9744C37.8771 13.853 37.8415 12.6426 37.9661 11.4677ZM52.9719 11.3609C53.0075 11.3609 53.0431 11.3609 53.0965 11.3787C53.0965 12.0907 53.0787 12.8028 53.0965 13.5148C53.1855 16.1848 55.2681 18.5701 57.7602 18.8905C60.7329 19.2643 63.4741 17.7335 64.0615 14.9744C64.4709 13.0698 64.3819 11.0405 64.3107 9.08248C64.2039 6.41242 62.0857 4.20517 59.6114 3.93816C56.6388 3.61775 54.1111 5.13079 53.3635 7.85425C53.0609 8.97568 53.0965 10.1861 52.9719 11.3609Z" fill="url(#paint1_linear_37_1306)"/>
<defs>
<linearGradient id="paint0_linear_37_1306" x1="-16.8011" y1="35.9787" x2="77.0038" y2="39.765" gradientUnits="userSpaceOnUse">
<stop stop-color="#37DADA"/>
<stop offset="1" stop-color="#254DB5"/>
</linearGradient>
<linearGradient id="paint1_linear_37_1306" x1="3.83208" y1="-1.61364e-05" x2="66.5247" y2="2.22773" gradientUnits="userSpaceOnUse">
<stop stop-color="#37DADA"/>
<stop offset="1" stop-color="#254DB5"/>
</linearGradient>
</defs>
</svg>
