<svg width="92" height="91" viewBox="0 0 92 91" fill="none" xmlns="http://www.w3.org/2000/svg">
<path d="M78.9963 61.615C79.2999 61.1849 79.5023 60.7547 79.8059 60.4511C80.4891 59.7932 81.3241 59.7426 82.0072 60.4005C84.8917 63.2343 87.7508 66.0935 90.5846 68.9779C91.2425 69.6611 91.1666 70.5973 90.5087 71.1792C89.8762 71.7358 88.9906 71.6852 88.3075 71.0021C86.1062 68.8261 83.9302 66.6248 81.7542 64.4488C81.5012 64.1958 81.3494 63.8922 81.1976 63.6898C73.2274 71.6599 65.409 79.453 57.3882 87.4485C57.6666 87.6762 58.0967 87.9039 58.4256 88.2328C59.0329 88.8654 59.0076 89.7763 58.4509 90.3582C57.8943 90.9402 57.034 91.0414 56.4015 90.4594C55.5665 89.7004 54.7568 88.8907 53.9977 88.0304C53.4917 87.4485 53.5676 86.74 54.099 86.1328C54.4279 85.7532 54.7821 85.399 55.0857 85.0954C49.3928 79.4024 43.7251 73.7094 38.0827 68.0417C36.6405 69.4587 35.097 70.9262 33.6042 72.4443C33.3512 72.6973 33.3259 73.2793 33.3259 73.6841C33.4777 82.2615 27.8353 89.169 19.435 90.7378C10.3263 92.433 1.21748 85.7026 0.12949 76.518C-0.983804 67.1562 5.18992 59.0848 14.4758 57.7438C15.412 57.6173 16.3735 57.7185 17.3096 57.6173C17.8157 57.5667 18.4229 57.4401 18.7519 57.1112C20.1941 55.7702 21.5857 54.328 23.0785 52.8098C22.446 52.2026 21.8134 51.5953 21.1809 50.9881C19.435 49.2928 18.7013 47.2687 19.3591 44.8903C20.017 42.4866 21.6616 41.0697 24.0906 40.513C24.2424 40.4877 24.3942 40.4371 24.6473 40.3865C24.4195 38.7672 24.5208 37.1478 25.4316 35.7056C26.3425 34.2381 27.7088 33.3778 29.3535 32.9983C27.4558 28.5451 30.6692 23.5859 36.2609 24.3955C36.3622 23.9907 36.4634 23.5606 36.5899 23.1557C37.9309 18.9556 43.1178 17.5387 46.4071 20.5243C47.7228 21.7135 48.9373 23.0039 50.1771 24.269C50.4048 24.522 50.582 24.8257 50.7844 25.1546C53.0363 22.9027 55.111 20.8785 57.1352 18.7785C57.4641 18.4495 57.5907 17.817 57.5907 17.3109C57.616 10.2263 60.7028 4.93819 67.0284 1.72482C71.1526 -0.375263 75.5046 -0.501773 79.8818 1.04166C81.5771 1.62361 81.8301 2.78751 80.5903 4.02731C77.8324 6.81055 75.0744 9.56848 72.2659 12.3264C71.8358 12.7565 71.608 13.1867 71.7093 13.8192C71.937 15.2109 72.0888 16.6278 72.3418 18.0194C72.3924 18.2724 72.7213 18.6266 72.9744 18.6773C74.4419 18.9303 75.9094 19.158 77.3769 19.2845C77.7818 19.3098 78.3131 19.1074 78.5914 18.8291C81.3747 16.0964 84.1326 13.3132 86.9158 10.53C88.3075 9.16364 89.3954 9.41667 90.0533 11.289C93.6715 21.4605 86.5869 32.391 75.8082 33.3272C75.5046 33.3525 75.1756 33.4031 74.872 33.4031C72.2153 33.5549 72.1647 33.5802 70.52 35.6044C71.5068 37.1731 72.5948 38.6406 73.4298 40.26C74.6696 42.6637 74.6443 45.371 74.9732 48.0024C75.3022 50.5327 75.5299 53.0882 75.96 55.5931C76.2636 57.7691 77.3263 59.6667 78.9963 61.615ZM40.3346 65.6127C46.1035 71.4069 51.7712 77.0746 57.2617 82.5905C63.6379 76.2396 70.0646 69.8382 76.4914 63.4114C74.5178 61.1596 73.1768 58.4522 72.7213 55.416C72.2153 52.0508 71.8864 48.6603 71.5321 45.2698C71.2791 42.8914 70.596 40.6648 68.926 38.919C66.5223 36.3635 64.0427 33.9091 61.5125 31.4801C60.3739 30.3921 58.6786 30.3415 57.5401 31.4042C54.9086 33.9091 52.3784 36.49 49.8229 39.0961C49.2156 39.7286 49.2156 40.7154 49.9241 41.1962C50.7338 41.7528 51.67 42.2336 52.6061 42.4107C53.9724 42.689 55.187 42.107 56.2243 41.1709C58.2485 39.3997 61.0823 39.4503 62.7776 41.2721C64.5234 43.1191 64.3969 45.8012 62.474 47.8C62.145 48.1289 61.8161 48.4832 61.4872 48.8121C58.6533 51.9243 58.7039 56.2762 61.5884 59.3125C61.9679 59.7173 62.3981 60.0969 62.7523 60.5523C63.2836 61.2355 63.233 62.0198 62.6511 62.6018C62.0691 63.1837 61.2595 63.209 60.6016 62.6524C60.0197 62.121 59.4377 61.5644 58.9317 60.9824C56.8569 58.5028 55.9966 55.669 56.4521 52.4556C56.8569 49.6977 58.2738 47.547 60.2727 45.6746C61.0317 44.9409 61.1077 44.03 60.5763 43.4228C59.9944 42.7649 59.1088 42.8914 58.1979 43.4987C57.1858 44.1818 56.1484 44.8903 55.0098 45.2445C52.8592 45.953 50.7844 45.4975 49.0132 44.4348C47.8493 45.0674 46.7866 45.6493 45.7239 46.2313C47.1409 49.5459 45.5721 53.8978 40.7394 54.8087C40.7647 55.1376 40.79 55.4919 40.8153 55.8208C40.9165 57.9462 40.1575 59.7173 38.4369 61.0077C35.9826 62.8801 32.7439 62.6524 30.4921 60.4764C28.6956 58.7305 26.9245 56.9341 25.128 55.1123C23.8376 56.4028 22.5725 57.592 21.4086 58.8571C20.1182 60.274 18.6254 60.8306 16.7024 60.78C8.4792 60.6535 2.20427 67.5863 3.01393 75.7842C3.95011 85.1713 14.1216 90.839 22.5219 86.5882C27.557 84.0327 30.1125 79.8325 30.1378 74.1649C30.1378 72.6214 30.3909 71.2298 31.5294 70.0912C38.9683 62.6524 46.3818 55.2388 53.8206 47.8C54.605 47.0157 55.5159 46.9397 56.1484 47.547C56.8316 48.2049 56.781 49.141 55.9713 49.9507C51.5687 54.3786 47.1409 58.7812 42.713 63.209C41.9792 64.0187 41.0937 64.8537 40.3346 65.6127ZM55.2882 29.2282C56.9581 27.8366 58.8811 27.1788 60.9811 27.8619C62.0944 28.2162 63.1824 28.9246 64.0933 29.6837C65.4849 30.8729 66.7247 32.2898 68.1669 33.732C68.5212 33.2766 68.7742 32.973 69.0272 32.644C70.4441 30.8982 72.2153 30.2656 74.4925 30.2656C80.5397 30.2909 85.676 26.2426 87.346 20.4231C87.9026 18.4242 88.0291 16.3748 87.5737 14.1988C87.2448 14.5024 87.017 14.7048 86.7893 14.9325C84.5627 17.1591 82.2855 19.3604 80.1096 21.6376C79.3505 22.422 78.5661 22.6244 77.5793 22.4726C75.4287 22.1436 73.278 21.84 71.1273 21.5364C70.0899 21.3846 69.6092 20.9291 69.4574 19.8918C69.1284 17.7158 68.8501 15.5145 68.4959 13.3385C68.3441 12.3517 68.5718 11.5927 69.3308 10.8842C71.6333 8.68291 73.8599 6.38041 76.1118 4.12852C76.3142 3.9261 76.5167 3.69838 76.795 3.39476C76.3395 3.31885 75.9853 3.21764 75.6564 3.19234C67.4079 2.40797 60.5004 8.80942 60.6775 17.1085C60.7281 18.8038 60.1715 20.1701 58.957 21.334C56.9834 23.2316 55.0604 25.2052 53.1122 27.1535C53.8459 27.8366 54.5291 28.4945 55.2882 29.2282ZM27.5064 39.3491C27.7088 39.7286 27.9112 40.5383 28.4173 41.0697C31.6054 44.3589 34.844 47.5723 38.108 50.811C38.8165 51.5194 39.702 51.8231 40.7141 51.6206C41.8527 51.3929 42.6877 50.7351 43.0419 49.6471C43.4215 48.4579 43.1684 47.3446 42.2323 46.4337C39.4237 43.6252 36.6152 40.8166 33.8066 38.0081C33.3259 37.5527 32.8958 37.0466 32.3644 36.6418C31.4029 35.908 30.3402 35.8068 29.2523 36.3382C28.1643 36.8189 27.6329 37.7551 27.5064 39.3491ZM38.0574 56.0232C37.6779 55.3148 37.4501 54.5051 36.9188 53.9484C33.7813 50.7098 30.568 47.5217 27.3546 44.3589C26.1148 43.1191 24.1665 43.195 23.0279 44.4095C21.9146 45.5987 21.9399 47.4205 23.1544 48.6603C23.8882 49.4447 24.6726 50.1784 25.4316 50.9375C27.8606 53.3665 30.2896 55.8208 32.7186 58.2245C33.6801 59.1607 34.8187 59.3378 36.0332 58.8571C37.2224 58.4016 37.8044 57.4401 38.0574 56.0232ZM44.2564 43.195C44.307 43.1444 44.3323 43.0938 44.3829 43.0432C44.7878 42.9673 45.1926 42.942 45.5721 42.8155C46.6601 42.4613 46.7107 42.2082 46.5589 41.1203C46.4577 40.3359 46.6095 39.5009 46.5842 38.7166C46.5842 38.3623 46.5589 37.8816 46.3312 37.6539C43.2443 34.5417 40.1575 31.4295 37.02 28.368C35.7296 27.1029 33.8572 27.1282 32.6933 28.3427C31.5294 29.5066 31.5548 31.3789 32.8199 32.6693C35.9573 35.8321 39.0948 38.9696 42.2576 42.0817C42.8142 42.5625 43.5733 42.8155 44.2564 43.195ZM52.8592 31.5054C50 28.5957 47.1409 25.6353 44.2058 22.7256C43.4974 22.0171 42.5106 21.9159 41.5491 22.1943C39.2213 22.8268 38.5887 25.5088 40.3346 27.3053C42.8395 29.8608 45.4203 32.391 47.9505 34.9465C48.2036 35.1996 48.3301 35.6044 48.5072 35.8574C50.1518 34.2128 51.5434 32.8465 52.8592 31.5054Z" fill="black"/>
<path d="M78.9963 61.615C79.2999 61.1849 79.5023 60.7547 79.8059 60.4511C80.4891 59.7932 81.3241 59.7426 82.0072 60.4005C84.8917 63.2343 87.7508 66.0935 90.5846 68.9779C91.2425 69.6611 91.1666 70.5973 90.5087 71.1792C89.8762 71.7358 88.9906 71.6852 88.3075 71.0021C86.1062 68.8261 83.9302 66.6248 81.7542 64.4488C81.5012 64.1958 81.3494 63.8922 81.1976 63.6898C73.2274 71.6599 65.409 79.453 57.3882 87.4485C57.6666 87.6762 58.0967 87.9039 58.4256 88.2328C59.0329 88.8654 59.0076 89.7763 58.4509 90.3582C57.8943 90.9402 57.034 91.0414 56.4015 90.4594C55.5665 89.7004 54.7568 88.8907 53.9977 88.0304C53.4917 87.4485 53.5676 86.74 54.099 86.1328C54.4279 85.7532 54.7821 85.399 55.0857 85.0954C49.3928 79.4024 43.7251 73.7094 38.0827 68.0417C36.6405 69.4587 35.097 70.9262 33.6042 72.4443C33.3512 72.6973 33.3259 73.2793 33.3259 73.6841C33.4777 82.2615 27.8353 89.169 19.435 90.7378C10.3263 92.433 1.21748 85.7026 0.12949 76.518C-0.983804 67.1562 5.18992 59.0848 14.4758 57.7438C15.412 57.6173 16.3735 57.7185 17.3096 57.6173C17.8157 57.5667 18.4229 57.4401 18.7519 57.1112C20.1941 55.7702 21.5857 54.328 23.0785 52.8098C22.446 52.2026 21.8134 51.5953 21.1809 50.9881C19.435 49.2928 18.7013 47.2687 19.3591 44.8903C20.017 42.4866 21.6616 41.0697 24.0906 40.513C24.2424 40.4877 24.3942 40.4371 24.6473 40.3865C24.4195 38.7672 24.5208 37.1478 25.4316 35.7056C26.3425 34.2381 27.7088 33.3778 29.3535 32.9983C27.4558 28.5451 30.6692 23.5859 36.2609 24.3955C36.3622 23.9907 36.4634 23.5606 36.5899 23.1557C37.9309 18.9556 43.1178 17.5387 46.4071 20.5243C47.7228 21.7135 48.9373 23.0039 50.1771 24.269C50.4048 24.522 50.582 24.8257 50.7844 25.1546C53.0363 22.9027 55.111 20.8785 57.1352 18.7785C57.4641 18.4495 57.5907 17.817 57.5907 17.3109C57.616 10.2263 60.7028 4.93819 67.0284 1.72482C71.1526 -0.375263 75.5046 -0.501773 79.8818 1.04166C81.5771 1.62361 81.8301 2.78751 80.5903 4.02731C77.8324 6.81055 75.0744 9.56848 72.2659 12.3264C71.8358 12.7565 71.608 13.1867 71.7093 13.8192C71.937 15.2109 72.0888 16.6278 72.3418 18.0194C72.3924 18.2724 72.7213 18.6266 72.9744 18.6773C74.4419 18.9303 75.9094 19.158 77.3769 19.2845C77.7818 19.3098 78.3131 19.1074 78.5914 18.8291C81.3747 16.0964 84.1326 13.3132 86.9158 10.53C88.3075 9.16364 89.3954 9.41667 90.0533 11.289C93.6715 21.4605 86.5869 32.391 75.8082 33.3272C75.5046 33.3525 75.1756 33.4031 74.872 33.4031C72.2153 33.5549 72.1647 33.5802 70.52 35.6044C71.5068 37.1731 72.5948 38.6406 73.4298 40.26C74.6696 42.6637 74.6443 45.371 74.9732 48.0024C75.3022 50.5327 75.5299 53.0882 75.96 55.5931C76.2636 57.7691 77.3263 59.6667 78.9963 61.615ZM40.3346 65.6127C46.1035 71.4069 51.7712 77.0746 57.2617 82.5905C63.6379 76.2396 70.0646 69.8382 76.4914 63.4114C74.5178 61.1596 73.1768 58.4522 72.7213 55.416C72.2153 52.0508 71.8864 48.6603 71.5321 45.2698C71.2791 42.8914 70.596 40.6648 68.926 38.919C66.5223 36.3635 64.0427 33.9091 61.5125 31.4801C60.3739 30.3921 58.6786 30.3415 57.5401 31.4042C54.9086 33.9091 52.3784 36.49 49.8229 39.0961C49.2156 39.7286 49.2156 40.7154 49.9241 41.1962C50.7338 41.7528 51.67 42.2336 52.6061 42.4107C53.9724 42.689 55.187 42.107 56.2243 41.1709C58.2485 39.3997 61.0823 39.4503 62.7776 41.2721C64.5234 43.1191 64.3969 45.8012 62.474 47.8C62.145 48.1289 61.8161 48.4832 61.4872 48.8121C58.6533 51.9243 58.7039 56.2762 61.5884 59.3125C61.9679 59.7173 62.3981 60.0969 62.7523 60.5523C63.2836 61.2355 63.233 62.0198 62.6511 62.6018C62.0691 63.1837 61.2595 63.209 60.6016 62.6524C60.0197 62.121 59.4377 61.5644 58.9317 60.9824C56.8569 58.5028 55.9966 55.669 56.4521 52.4556C56.8569 49.6977 58.2738 47.547 60.2727 45.6746C61.0317 44.9409 61.1077 44.03 60.5763 43.4228C59.9944 42.7649 59.1088 42.8914 58.1979 43.4987C57.1858 44.1818 56.1484 44.8903 55.0098 45.2445C52.8592 45.953 50.7844 45.4975 49.0132 44.4348C47.8493 45.0674 46.7866 45.6493 45.7239 46.2313C47.1409 49.5459 45.5721 53.8978 40.7394 54.8087C40.7647 55.1376 40.79 55.4919 40.8153 55.8208C40.9165 57.9462 40.1575 59.7173 38.4369 61.0077C35.9826 62.8801 32.7439 62.6524 30.4921 60.4764C28.6956 58.7305 26.9245 56.9341 25.128 55.1123C23.8376 56.4028 22.5725 57.592 21.4086 58.8571C20.1182 60.274 18.6254 60.8306 16.7024 60.78C8.4792 60.6535 2.20427 67.5863 3.01393 75.7842C3.95011 85.1713 14.1216 90.839 22.5219 86.5882C27.557 84.0327 30.1125 79.8325 30.1378 74.1649C30.1378 72.6214 30.3909 71.2298 31.5294 70.0912C38.9683 62.6524 46.3818 55.2388 53.8206 47.8C54.605 47.0157 55.5159 46.9397 56.1484 47.547C56.8316 48.2049 56.781 49.141 55.9713 49.9507C51.5687 54.3786 47.1409 58.7812 42.713 63.209C41.9792 64.0187 41.0937 64.8537 40.3346 65.6127ZM55.2882 29.2282C56.9581 27.8366 58.8811 27.1788 60.9811 27.8619C62.0944 28.2162 63.1824 28.9246 64.0933 29.6837C65.4849 30.8729 66.7247 32.2898 68.1669 33.732C68.5212 33.2766 68.7742 32.973 69.0272 32.644C70.4441 30.8982 72.2153 30.2656 74.4925 30.2656C80.5397 30.2909 85.676 26.2426 87.346 20.4231C87.9026 18.4242 88.0291 16.3748 87.5737 14.1988C87.2448 14.5024 87.017 14.7048 86.7893 14.9325C84.5627 17.1591 82.2855 19.3604 80.1096 21.6376C79.3505 22.422 78.5661 22.6244 77.5793 22.4726C75.4287 22.1436 73.278 21.84 71.1273 21.5364C70.0899 21.3846 69.6092 20.9291 69.4574 19.8918C69.1284 17.7158 68.8501 15.5145 68.4959 13.3385C68.3441 12.3517 68.5718 11.5927 69.3308 10.8842C71.6333 8.68291 73.8599 6.38041 76.1118 4.12852C76.3142 3.9261 76.5167 3.69838 76.795 3.39476C76.3395 3.31885 75.9853 3.21764 75.6564 3.19234C67.4079 2.40797 60.5004 8.80942 60.6775 17.1085C60.7281 18.8038 60.1715 20.1701 58.957 21.334C56.9834 23.2316 55.0604 25.2052 53.1122 27.1535C53.8459 27.8366 54.5291 28.4945 55.2882 29.2282ZM27.5064 39.3491C27.7088 39.7286 27.9112 40.5383 28.4173 41.0697C31.6054 44.3589 34.844 47.5723 38.108 50.811C38.8165 51.5194 39.702 51.8231 40.7141 51.6206C41.8527 51.3929 42.6877 50.7351 43.0419 49.6471C43.4215 48.4579 43.1684 47.3446 42.2323 46.4337C39.4237 43.6252 36.6152 40.8166 33.8066 38.0081C33.3259 37.5527 32.8958 37.0466 32.3644 36.6418C31.4029 35.908 30.3402 35.8068 29.2523 36.3382C28.1643 36.8189 27.6329 37.7551 27.5064 39.3491ZM38.0574 56.0232C37.6779 55.3148 37.4501 54.5051 36.9188 53.9484C33.7813 50.7098 30.568 47.5217 27.3546 44.3589C26.1148 43.1191 24.1665 43.195 23.0279 44.4095C21.9146 45.5987 21.9399 47.4205 23.1544 48.6603C23.8882 49.4447 24.6726 50.1784 25.4316 50.9375C27.8606 53.3665 30.2896 55.8208 32.7186 58.2245C33.6801 59.1607 34.8187 59.3378 36.0332 58.8571C37.2224 58.4016 37.8044 57.4401 38.0574 56.0232ZM44.2564 43.195C44.307 43.1444 44.3323 43.0938 44.3829 43.0432C44.7878 42.9673 45.1926 42.942 45.5721 42.8155C46.6601 42.4613 46.7107 42.2082 46.5589 41.1203C46.4577 40.3359 46.6095 39.5009 46.5842 38.7166C46.5842 38.3623 46.5589 37.8816 46.3312 37.6539C43.2443 34.5417 40.1575 31.4295 37.02 28.368C35.7296 27.1029 33.8572 27.1282 32.6933 28.3427C31.5294 29.5066 31.5548 31.3789 32.8199 32.6693C35.9573 35.8321 39.0948 38.9696 42.2576 42.0817C42.8142 42.5625 43.5733 42.8155 44.2564 43.195ZM52.8592 31.5054C50 28.5957 47.1409 25.6353 44.2058 22.7256C43.4974 22.0171 42.5106 21.9159 41.5491 22.1943C39.2213 22.8268 38.5887 25.5088 40.3346 27.3053C42.8395 29.8608 45.4203 32.391 47.9505 34.9465C48.2036 35.1996 48.3301 35.6044 48.5072 35.8574C50.1518 34.2128 51.5434 32.8465 52.8592 31.5054Z" fill="url(#paint0_linear_37_1271)"/>
<path d="M18.9794 84.3618C17.6889 84.0329 16.5757 83.7292 15.4624 83.4509C13.7924 83.0208 12.1225 82.54 10.4525 82.1099C9.59226 81.8822 9.11152 81.4014 8.8838 80.5412C8.22594 77.9856 7.54279 75.4301 6.83433 72.8999C6.60661 72.0396 6.73312 71.3312 7.41627 70.6733C9.31394 68.8263 11.1863 66.9539 13.0334 65.0563C13.6406 64.449 14.2732 64.2466 15.1587 64.4996C17.7142 65.2334 20.3204 65.9165 22.9012 66.5744C23.7362 66.7768 24.1916 67.2322 24.394 68.0672C25.0772 70.7239 25.7856 73.3554 26.5194 75.9868C26.7218 76.7205 26.5447 77.3025 26.0387 77.8085C24.0651 79.8074 22.0915 81.781 20.0673 83.7545C19.7637 84.0582 19.3083 84.21 18.9794 84.3618ZM23.3566 76.0627C22.7747 73.8614 22.218 71.7866 21.6361 69.7371C21.5855 69.5347 21.2312 69.3576 21.0035 69.2817C19.1565 68.7504 17.3094 68.2443 15.4371 67.7889C15.1334 67.713 14.6274 67.8648 14.3997 68.0925C13.0334 69.3829 11.6923 70.7239 10.3766 72.1155C10.1489 72.3433 10.0224 72.8493 10.0983 73.1529C10.5284 75 11.0092 76.8218 11.5658 78.6182C11.667 78.9471 12.0719 79.3267 12.4008 79.4279C14.1972 79.9592 16.0443 80.44 17.8661 80.8954C18.1697 80.9713 18.6251 80.8701 18.8528 80.6677C20.2698 79.3267 21.6361 77.935 23.0277 76.5434C23.1542 76.3916 23.2807 76.1639 23.3566 76.0627Z" fill="black"/>
<path d="M18.9794 84.3618C17.6889 84.0329 16.5757 83.7292 15.4624 83.4509C13.7924 83.0208 12.1225 82.54 10.4525 82.1099C9.59226 81.8822 9.11152 81.4014 8.8838 80.5412C8.22594 77.9856 7.54279 75.4301 6.83433 72.8999C6.60661 72.0396 6.73312 71.3312 7.41627 70.6733C9.31394 68.8263 11.1863 66.9539 13.0334 65.0563C13.6406 64.449 14.2732 64.2466 15.1587 64.4996C17.7142 65.2334 20.3204 65.9165 22.9012 66.5744C23.7362 66.7768 24.1916 67.2322 24.394 68.0672C25.0772 70.7239 25.7856 73.3554 26.5194 75.9868C26.7218 76.7205 26.5447 77.3025 26.0387 77.8085C24.0651 79.8074 22.0915 81.781 20.0673 83.7545C19.7637 84.0582 19.3083 84.21 18.9794 84.3618ZM23.3566 76.0627C22.7747 73.8614 22.218 71.7866 21.6361 69.7371C21.5855 69.5347 21.2312 69.3576 21.0035 69.2817C19.1565 68.7504 17.3094 68.2443 15.4371 67.7889C15.1334 67.713 14.6274 67.8648 14.3997 68.0925C13.0334 69.3829 11.6923 70.7239 10.3766 72.1155C10.1489 72.3433 10.0224 72.8493 10.0983 73.1529C10.5284 75 11.0092 76.8218 11.5658 78.6182C11.667 78.9471 12.0719 79.3267 12.4008 79.4279C14.1972 79.9592 16.0443 80.44 17.8661 80.8954C18.1697 80.9713 18.6251 80.8701 18.8528 80.6677C20.2698 79.3267 21.6361 77.935 23.0277 76.5434C23.1542 76.3916 23.2807 76.1639 23.3566 76.0627Z" fill="url(#paint1_linear_37_1271)"/>
<defs>
<linearGradient id="paint0_linear_37_1271" x1="-16.81" y1="-3.5168e-05" x2="77.1415" y2="2.29405" gradientUnits="userSpaceOnUse">
<stop stop-color="#37DADA"/>
<stop offset="1" stop-color="#254DB5"/>
</linearGradient>
<linearGradient id="paint1_linear_37_1271" x1="3.0615" y1="64.3931" x2="23.5676" y2="64.8911" gradientUnits="userSpaceOnUse">
<stop stop-color="#37DADA"/>
<stop offset="1" stop-color="#254DB5"/>
</linearGradient>
</defs>
</svg>
