<svg width="91" height="91" viewBox="0 0 91 91" fill="none" xmlns="http://www.w3.org/2000/svg">
<path d="M24.9544 16.187C25.9822 16.187 26.8631 16.187 27.8419 16.187C27.8419 19.0989 27.8419 21.9619 27.8419 24.9472C28.8451 24.9472 29.7505 24.9717 30.6559 24.9227C30.8516 24.9227 31.1208 24.678 31.2432 24.4823C33.2252 21.1299 37.1893 21.1299 39.1958 24.4823C39.3181 24.7025 39.6362 24.8983 39.8565 24.8983C42.6705 24.9227 45.46 24.9227 48.3475 24.9227C48.3475 17.6063 48.3475 10.3143 48.3475 2.9979C41.5694 2.9979 34.7668 2.9979 27.9153 2.9979C27.8908 3.43835 27.8663 3.85434 27.8419 4.34373C26.912 4.34373 25.9822 4.34373 24.9544 4.34373C24.9544 3.29153 24.8321 2.21487 25.0034 1.21161C25.0768 0.771157 25.7619 0.379642 26.2269 0.0615362C26.4226 -0.0608122 26.7652 0.0370665 27.0344 0.0370665C34.4242 0.0370665 41.814 0.0370665 49.2039 0.0370665C50.9657 0.0370665 51.3083 0.404111 51.3083 2.1904C51.3083 2.90002 51.3083 3.58517 51.3083 4.41714C52.0913 4.41714 52.8499 4.41714 53.584 4.41714C55.199 4.41714 56.814 4.3682 58.429 4.44161C58.9428 4.46608 59.579 4.75971 59.8971 5.15123C61.8058 7.45138 63.6655 9.80047 65.5007 12.1496C65.7699 12.4921 65.9167 12.9815 65.9167 13.3975C65.9411 17.6797 65.9412 21.9374 65.9412 26.2196C65.9412 27.3208 65.4028 27.8346 64.3261 27.8591C64.057 27.8591 63.7633 27.8836 63.4942 27.8591C62.2218 27.7367 61.3164 27.957 60.411 29.2049C58.6247 31.7008 54.8319 31.2359 53.3148 28.4953C53.0212 27.9814 52.7275 27.8346 52.1892 27.8346C48.1517 27.8591 44.1387 27.8591 40.1012 27.8346C39.5384 27.8346 39.2447 28.0059 38.9756 28.4953C38.1681 29.9635 36.8712 30.7465 35.1828 30.771C33.4454 30.771 32.1485 29.9635 31.3166 28.4464C31.0474 27.957 30.7782 27.8101 30.2644 27.8346C28.9919 27.8591 27.695 27.8591 26.4226 27.8346C25.5662 27.8101 24.93 27.3208 24.93 26.5377C24.93 23.1609 24.9544 19.7107 24.9544 16.187ZM51.3817 7.42691C51.3817 13.2996 51.3817 19.0989 51.3817 24.8983C52.8254 25.0451 52.8254 25.0451 53.535 23.9929C55.2968 21.3502 59.212 21.3257 60.827 24.0418C61.4143 25.0451 62.0749 25.0451 63.0293 24.8983C63.0293 21.5214 63.0293 18.1446 63.0293 14.6944C62.6867 14.6944 62.393 14.6944 62.0994 14.6944C59.628 14.6944 57.1565 14.6944 54.6851 14.6944C53.2903 14.6944 52.8254 14.2295 52.8254 12.8347C52.8254 11.0484 52.8254 9.23766 52.8254 7.40244C52.2871 7.42691 51.8711 7.42691 51.3817 7.42691ZM55.7618 11.7091C57.6704 11.7091 59.4812 11.7091 61.3898 11.7091C60.4844 10.5835 59.5546 9.62918 58.8939 8.52804C58.0864 7.20668 57.0097 7.28009 55.7618 7.45138C55.7618 8.89509 55.7618 10.2899 55.7618 11.7091ZM36.6509 26.4398C36.6509 25.6813 35.9413 24.9717 35.2072 24.9717C34.4487 24.9717 33.7391 25.6813 33.7391 26.4398C33.7391 27.1984 34.4487 27.908 35.1828 27.908C35.9413 27.8836 36.6509 27.1984 36.6509 26.4398ZM57.1565 27.8836C57.9151 27.8836 58.6247 27.1984 58.6247 26.4398C58.6492 25.6813 57.9396 24.9717 57.181 24.9717C56.4224 24.9472 55.7128 25.6568 55.7128 26.4154C55.7128 27.1739 56.398 27.8836 57.1565 27.8836Z" fill="black"/>
<path d="M24.9544 16.187C25.9822 16.187 26.8631 16.187 27.8419 16.187C27.8419 19.0989 27.8419 21.9619 27.8419 24.9472C28.8451 24.9472 29.7505 24.9717 30.6559 24.9227C30.8516 24.9227 31.1208 24.678 31.2432 24.4823C33.2252 21.1299 37.1893 21.1299 39.1958 24.4823C39.3181 24.7025 39.6362 24.8983 39.8565 24.8983C42.6705 24.9227 45.46 24.9227 48.3475 24.9227C48.3475 17.6063 48.3475 10.3143 48.3475 2.9979C41.5694 2.9979 34.7668 2.9979 27.9153 2.9979C27.8908 3.43835 27.8663 3.85434 27.8419 4.34373C26.912 4.34373 25.9822 4.34373 24.9544 4.34373C24.9544 3.29153 24.8321 2.21487 25.0034 1.21161C25.0768 0.771157 25.7619 0.379642 26.2269 0.0615362C26.4226 -0.0608122 26.7652 0.0370665 27.0344 0.0370665C34.4242 0.0370665 41.814 0.0370665 49.2039 0.0370665C50.9657 0.0370665 51.3083 0.404111 51.3083 2.1904C51.3083 2.90002 51.3083 3.58517 51.3083 4.41714C52.0913 4.41714 52.8499 4.41714 53.584 4.41714C55.199 4.41714 56.814 4.3682 58.429 4.44161C58.9428 4.46608 59.579 4.75971 59.8971 5.15123C61.8058 7.45138 63.6655 9.80047 65.5007 12.1496C65.7699 12.4921 65.9167 12.9815 65.9167 13.3975C65.9411 17.6797 65.9412 21.9374 65.9412 26.2196C65.9412 27.3208 65.4028 27.8346 64.3261 27.8591C64.057 27.8591 63.7633 27.8836 63.4942 27.8591C62.2218 27.7367 61.3164 27.957 60.411 29.2049C58.6247 31.7008 54.8319 31.2359 53.3148 28.4953C53.0212 27.9814 52.7275 27.8346 52.1892 27.8346C48.1517 27.8591 44.1387 27.8591 40.1012 27.8346C39.5384 27.8346 39.2447 28.0059 38.9756 28.4953C38.1681 29.9635 36.8712 30.7465 35.1828 30.771C33.4454 30.771 32.1485 29.9635 31.3166 28.4464C31.0474 27.957 30.7782 27.8101 30.2644 27.8346C28.9919 27.8591 27.695 27.8591 26.4226 27.8346C25.5662 27.8101 24.93 27.3208 24.93 26.5377C24.93 23.1609 24.9544 19.7107 24.9544 16.187ZM51.3817 7.42691C51.3817 13.2996 51.3817 19.0989 51.3817 24.8983C52.8254 25.0451 52.8254 25.0451 53.535 23.9929C55.2968 21.3502 59.212 21.3257 60.827 24.0418C61.4143 25.0451 62.0749 25.0451 63.0293 24.8983C63.0293 21.5214 63.0293 18.1446 63.0293 14.6944C62.6867 14.6944 62.393 14.6944 62.0994 14.6944C59.628 14.6944 57.1565 14.6944 54.6851 14.6944C53.2903 14.6944 52.8254 14.2295 52.8254 12.8347C52.8254 11.0484 52.8254 9.23766 52.8254 7.40244C52.2871 7.42691 51.8711 7.42691 51.3817 7.42691ZM55.7618 11.7091C57.6704 11.7091 59.4812 11.7091 61.3898 11.7091C60.4844 10.5835 59.5546 9.62918 58.8939 8.52804C58.0864 7.20668 57.0097 7.28009 55.7618 7.45138C55.7618 8.89509 55.7618 10.2899 55.7618 11.7091ZM36.6509 26.4398C36.6509 25.6813 35.9413 24.9717 35.2072 24.9717C34.4487 24.9717 33.7391 25.6813 33.7391 26.4398C33.7391 27.1984 34.4487 27.908 35.1828 27.908C35.9413 27.8836 36.6509 27.1984 36.6509 26.4398ZM57.1565 27.8836C57.9151 27.8836 58.6247 27.1984 58.6247 26.4398C58.6492 25.6813 57.9396 24.9717 57.181 24.9717C56.4224 24.9472 55.7128 25.6568 55.7128 26.4154C55.7128 27.1739 56.398 27.8836 57.1565 27.8836Z" fill="url(#paint0_linear_37_1310)"/>
<path d="M74.9709 70.412C71.5207 67.1331 72.1814 62.8509 74.506 60.5263C77.0264 58.0303 81.1128 57.9814 83.7066 60.4039C85.9089 62.4594 87.0589 66.7415 83.3885 70.3875C84.0492 70.3875 84.5875 70.3875 85.1014 70.3875C88.2824 70.412 90.8517 72.9568 90.8762 76.1624C90.9007 80.4935 90.8762 84.8246 90.8762 89.1802C90.8762 90.4037 90.3624 90.9176 89.1633 90.9176C82.4831 90.9176 75.8029 90.9176 69.0982 90.9176C67.9481 90.9176 67.4098 90.4037 67.4098 89.2537C67.4098 84.8491 67.3853 80.469 67.4098 76.0645C67.4343 73.0303 70.0036 70.4854 73.0134 70.412C73.6496 70.412 74.2124 70.412 74.9709 70.412ZM87.9643 87.9812C87.9643 84.1395 87.9643 80.3956 87.9643 76.6518C87.9643 74.5718 86.7408 73.3728 84.6609 73.3484C80.9905 73.3484 77.3445 73.3484 73.674 73.3484C71.5696 73.3484 70.3706 74.5474 70.3706 76.6273C70.3706 80.1754 70.3706 83.699 70.3706 87.2471C70.3706 87.4918 70.3951 87.7121 70.4196 87.9812C76.2678 87.9812 82.0671 87.9812 87.9643 87.9812ZM82.8257 65.3223C82.8502 63.3403 81.1862 61.6519 79.1797 61.6274C77.2466 61.6029 75.5582 63.2424 75.5093 65.2C75.4603 67.182 77.1243 68.8949 79.1063 68.9438C81.0883 68.9683 82.8012 67.3043 82.8257 65.3223Z" fill="black"/>
<path d="M74.9709 70.412C71.5207 67.1331 72.1814 62.8509 74.506 60.5263C77.0264 58.0303 81.1128 57.9814 83.7066 60.4039C85.9089 62.4594 87.0589 66.7415 83.3885 70.3875C84.0492 70.3875 84.5875 70.3875 85.1014 70.3875C88.2824 70.412 90.8517 72.9568 90.8762 76.1624C90.9007 80.4935 90.8762 84.8246 90.8762 89.1802C90.8762 90.4037 90.3624 90.9176 89.1633 90.9176C82.4831 90.9176 75.8029 90.9176 69.0982 90.9176C67.9481 90.9176 67.4098 90.4037 67.4098 89.2537C67.4098 84.8491 67.3853 80.469 67.4098 76.0645C67.4343 73.0303 70.0036 70.4854 73.0134 70.412C73.6496 70.412 74.2124 70.412 74.9709 70.412ZM87.9643 87.9812C87.9643 84.1395 87.9643 80.3956 87.9643 76.6518C87.9643 74.5718 86.7408 73.3728 84.6609 73.3484C80.9905 73.3484 77.3445 73.3484 73.674 73.3484C71.5696 73.3484 70.3706 74.5474 70.3706 76.6273C70.3706 80.1754 70.3706 83.699 70.3706 87.2471C70.3706 87.4918 70.3951 87.7121 70.4196 87.9812C76.2678 87.9812 82.0671 87.9812 87.9643 87.9812ZM82.8257 65.3223C82.8502 63.3403 81.1862 61.6519 79.1797 61.6274C77.2466 61.6029 75.5582 63.2424 75.5093 65.2C75.4603 67.182 77.1243 68.8949 79.1063 68.9438C81.0883 68.9683 82.8012 67.3043 82.8257 65.3223Z" fill="url(#paint1_linear_37_1310)"/>
<path d="M37.8744 41.6355C38.1681 41.4398 38.3883 41.244 38.6085 41.1217C39.6852 40.5344 40.6884 40.0695 40.7863 38.5034C40.8597 37.3778 42.1077 36.6927 43.3312 36.6927C44.7749 36.6682 46.1941 36.6682 47.6378 36.6927C49.1794 36.7171 50.354 37.8183 50.4029 39.4088C50.4274 39.9471 50.5742 40.2408 51.088 40.4121C51.3817 40.5099 51.6509 40.6568 51.8955 40.828C52.6541 41.4153 53.3393 41.6111 54.3425 41.0972C55.4926 40.4855 56.9118 41.0727 57.6704 42.2718C58.4045 43.3974 59.0896 44.5474 59.7503 45.722C60.5823 47.1657 60.2152 48.6583 58.7715 49.5148C58.2332 49.8329 58.0374 50.1755 58.1353 50.7627C58.1843 51.0319 58.1843 51.3255 58.1598 51.5947C58.013 52.4267 58.2332 52.965 59.0407 53.4299C60.1908 54.1151 60.5089 55.6322 59.8482 56.8312C59.1386 58.1036 58.38 59.3761 57.5725 60.5995C56.765 61.8475 55.2724 62.1901 53.9265 61.5539C53.6574 61.4315 53.3882 61.2847 53.168 61.1623C52.3605 61.6028 51.5774 62.0188 50.8433 62.4837C50.6476 62.6061 50.4763 62.9242 50.4518 63.1689C50.305 65.053 49.2528 66.0563 47.3687 66.0563C46.0962 66.0563 44.7993 66.0563 43.5269 66.0563C41.7896 66.0563 40.6884 64.9796 40.5416 63.2667C40.5171 62.9731 40.199 62.6795 39.9788 62.4103C39.8809 62.3124 39.7096 62.2879 39.5873 62.1901C38.6085 61.5049 37.7031 61.0645 36.4062 61.7496C35.354 62.2879 34.0572 61.6273 33.3475 60.5017C32.6134 59.3516 31.9038 58.177 31.2187 56.978C30.4356 55.5833 30.8516 54.0661 32.2219 53.2831C32.7603 52.965 32.9315 52.6224 32.8581 52.0352C32.8092 51.766 32.8092 51.4724 32.8581 51.2032C32.9805 50.3957 32.8092 49.8329 31.9772 49.3435C30.8272 48.6828 30.5091 47.1657 31.1697 45.9422C31.8794 44.6698 32.6379 43.3974 33.4454 42.1739C34.2529 40.9504 35.7456 40.5833 37.0914 41.2196C37.2872 41.3419 37.5563 41.4887 37.8744 41.6355ZM55.15 58.8377C55.8352 57.7121 56.4469 56.7089 57.0342 55.7056C56.8874 55.828 56.7405 55.9258 56.5693 56.0482C56.1777 55.4609 55.7862 54.8736 55.4192 54.2619C54.9787 53.5278 54.9543 49.1722 55.4192 48.4381C55.7862 47.8264 56.2511 47.2391 56.7405 46.5295C56.3735 45.9422 55.7862 44.939 55.2234 44.0091C54.4893 44.2293 53.8776 44.474 53.2659 44.5474C52.1892 44.6698 48.3474 42.6388 47.858 41.66C47.5399 41.0727 47.4665 40.3631 47.2708 39.678C46.0473 39.678 44.7749 39.678 43.7227 39.678C43.3801 40.5589 43.3067 41.5866 42.7439 41.9781C41.3981 42.9814 39.8809 43.7889 38.3393 44.4985C37.85 44.7187 37.1159 44.4006 36.4797 44.2783C36.235 44.2293 35.9903 44.0825 35.6966 43.9357C35.0604 44.9879 34.4487 45.9911 33.8125 47.0678C35.5009 47.8019 35.9903 49.0743 35.7211 50.7627C35.6477 51.1542 35.6477 51.5702 35.7211 51.9617C36.0147 53.6502 35.5009 54.8981 33.8125 55.6567C34.4731 56.7333 35.0849 57.7611 35.7211 58.8377C36.7488 58.226 37.7521 57.8589 38.7798 58.3483C39.9788 58.9111 41.2268 59.4984 42.279 60.3059C42.8418 60.7219 43.062 61.6028 43.4046 62.2879C43.5024 62.5082 43.478 62.8018 43.5024 63.071C44.8483 63.071 46.0962 63.071 47.4421 63.071C47.2218 61.2113 48.2251 60.2325 49.7667 59.6452C50.1093 59.5229 50.4518 59.3516 50.721 59.1314C52.1402 58.0058 53.535 57.7366 55.15 58.8377Z" fill="black"/>
<path d="M37.8744 41.6355C38.1681 41.4398 38.3883 41.244 38.6085 41.1217C39.6852 40.5344 40.6884 40.0695 40.7863 38.5034C40.8597 37.3778 42.1077 36.6927 43.3312 36.6927C44.7749 36.6682 46.1941 36.6682 47.6378 36.6927C49.1794 36.7171 50.354 37.8183 50.4029 39.4088C50.4274 39.9471 50.5742 40.2408 51.088 40.4121C51.3817 40.5099 51.6509 40.6568 51.8955 40.828C52.6541 41.4153 53.3393 41.6111 54.3425 41.0972C55.4926 40.4855 56.9118 41.0727 57.6704 42.2718C58.4045 43.3974 59.0896 44.5474 59.7503 45.722C60.5823 47.1657 60.2152 48.6583 58.7715 49.5148C58.2332 49.8329 58.0374 50.1755 58.1353 50.7627C58.1843 51.0319 58.1843 51.3255 58.1598 51.5947C58.013 52.4267 58.2332 52.965 59.0407 53.4299C60.1908 54.1151 60.5089 55.6322 59.8482 56.8312C59.1386 58.1036 58.38 59.3761 57.5725 60.5995C56.765 61.8475 55.2724 62.1901 53.9265 61.5539C53.6574 61.4315 53.3882 61.2847 53.168 61.1623C52.3605 61.6028 51.5774 62.0188 50.8433 62.4837C50.6476 62.6061 50.4763 62.9242 50.4518 63.1689C50.305 65.053 49.2528 66.0563 47.3687 66.0563C46.0962 66.0563 44.7993 66.0563 43.5269 66.0563C41.7896 66.0563 40.6884 64.9796 40.5416 63.2667C40.5171 62.9731 40.199 62.6795 39.9788 62.4103C39.8809 62.3124 39.7096 62.2879 39.5873 62.1901C38.6085 61.5049 37.7031 61.0645 36.4062 61.7496C35.354 62.2879 34.0572 61.6273 33.3475 60.5017C32.6134 59.3516 31.9038 58.177 31.2187 56.978C30.4356 55.5833 30.8516 54.0661 32.2219 53.2831C32.7603 52.965 32.9315 52.6224 32.8581 52.0352C32.8092 51.766 32.8092 51.4724 32.8581 51.2032C32.9805 50.3957 32.8092 49.8329 31.9772 49.3435C30.8272 48.6828 30.5091 47.1657 31.1697 45.9422C31.8794 44.6698 32.6379 43.3974 33.4454 42.1739C34.2529 40.9504 35.7456 40.5833 37.0914 41.2196C37.2872 41.3419 37.5563 41.4887 37.8744 41.6355ZM55.15 58.8377C55.8352 57.7121 56.4469 56.7089 57.0342 55.7056C56.8874 55.828 56.7405 55.9258 56.5693 56.0482C56.1777 55.4609 55.7862 54.8736 55.4192 54.2619C54.9787 53.5278 54.9543 49.1722 55.4192 48.4381C55.7862 47.8264 56.2511 47.2391 56.7405 46.5295C56.3735 45.9422 55.7862 44.939 55.2234 44.0091C54.4893 44.2293 53.8776 44.474 53.2659 44.5474C52.1892 44.6698 48.3474 42.6388 47.858 41.66C47.5399 41.0727 47.4665 40.3631 47.2708 39.678C46.0473 39.678 44.7749 39.678 43.7227 39.678C43.3801 40.5589 43.3067 41.5866 42.7439 41.9781C41.3981 42.9814 39.8809 43.7889 38.3393 44.4985C37.85 44.7187 37.1159 44.4006 36.4797 44.2783C36.235 44.2293 35.9903 44.0825 35.6966 43.9357C35.0604 44.9879 34.4487 45.9911 33.8125 47.0678C35.5009 47.8019 35.9903 49.0743 35.7211 50.7627C35.6477 51.1542 35.6477 51.5702 35.7211 51.9617C36.0147 53.6502 35.5009 54.8981 33.8125 55.6567C34.4731 56.7333 35.0849 57.7611 35.7211 58.8377C36.7488 58.226 37.7521 57.8589 38.7798 58.3483C39.9788 58.9111 41.2268 59.4984 42.279 60.3059C42.8418 60.7219 43.062 61.6028 43.4046 62.2879C43.5024 62.5082 43.478 62.8018 43.5024 63.071C44.8483 63.071 46.0962 63.071 47.4421 63.071C47.2218 61.2113 48.2251 60.2325 49.7667 59.6452C50.1093 59.5229 50.4518 59.3516 50.721 59.1314C52.1402 58.0058 53.535 57.7366 55.15 58.8377Z" fill="url(#paint2_linear_37_1310)"/>
<path d="M19.718 77.2878C20.1829 77.7038 20.6233 78.0708 21.0393 78.4868C21.333 78.7804 21.5777 79.1475 21.7979 79.3922C22.0426 79.3188 22.116 79.3188 22.1649 79.2943C23.7799 77.8506 24.098 77.8506 25.6396 79.3922C27.328 81.0806 29.0164 82.769 30.6804 84.4574C31.7081 85.5096 31.7081 86.1703 30.6559 87.247C29.6526 88.2747 28.6249 89.2779 27.6217 90.2812C26.6673 91.2355 25.9822 91.2355 25.0279 90.3057C23.2171 88.4949 21.4064 86.6841 19.5956 84.8734C18.4211 83.6988 18.4211 83.1605 19.5711 81.9615C19.669 81.8636 19.7669 81.7413 19.8648 81.6189C19.1062 80.8848 18.3721 80.1752 17.5646 79.4167C14.7996 81.3742 11.6674 82.0594 8.26615 81.2029C5.62343 80.5423 3.49457 79.0496 1.95298 76.7984C-1.20361 72.2226 -0.469521 66.1296 3.69032 62.3368C7.70335 58.6908 13.8208 58.593 18.103 62.1411C21.9202 65.2732 23.7065 71.5374 19.718 77.2878ZM11.0068 78.5113C15.4602 78.5113 19.0817 74.9387 19.0817 70.5342C19.1062 66.1296 15.4602 62.5081 11.0557 62.5081C6.60221 62.5081 3.00517 66.0562 2.9807 70.4852C2.95623 74.9142 6.55327 78.5113 11.0068 78.5113ZM23.8778 82.0104C23.3884 82.4754 22.899 82.9648 22.5564 83.2829C23.8289 84.5553 25.1258 85.8522 26.3003 87.0267C26.7408 86.6842 27.2791 86.2437 27.793 85.8522C26.3982 84.5063 25.1013 83.2339 23.8778 82.0104Z" fill="black"/>
<path d="M19.718 77.2878C20.1829 77.7038 20.6233 78.0708 21.0393 78.4868C21.333 78.7804 21.5777 79.1475 21.7979 79.3922C22.0426 79.3188 22.116 79.3188 22.1649 79.2943C23.7799 77.8506 24.098 77.8506 25.6396 79.3922C27.328 81.0806 29.0164 82.769 30.6804 84.4574C31.7081 85.5096 31.7081 86.1703 30.6559 87.247C29.6526 88.2747 28.6249 89.2779 27.6217 90.2812C26.6673 91.2355 25.9822 91.2355 25.0279 90.3057C23.2171 88.4949 21.4064 86.6841 19.5956 84.8734C18.4211 83.6988 18.4211 83.1605 19.5711 81.9615C19.669 81.8636 19.7669 81.7413 19.8648 81.6189C19.1062 80.8848 18.3721 80.1752 17.5646 79.4167C14.7996 81.3742 11.6674 82.0594 8.26615 81.2029C5.62343 80.5423 3.49457 79.0496 1.95298 76.7984C-1.20361 72.2226 -0.469521 66.1296 3.69032 62.3368C7.70335 58.6908 13.8208 58.593 18.103 62.1411C21.9202 65.2732 23.7065 71.5374 19.718 77.2878ZM11.0068 78.5113C15.4602 78.5113 19.0817 74.9387 19.0817 70.5342C19.1062 66.1296 15.4602 62.5081 11.0557 62.5081C6.60221 62.5081 3.00517 66.0562 2.9807 70.4852C2.95623 74.9142 6.55327 78.5113 11.0068 78.5113ZM23.8778 82.0104C23.3884 82.4754 22.899 82.9648 22.5564 83.2829C23.8289 84.5553 25.1258 85.8522 26.3003 87.0267C26.7408 86.6842 27.2791 86.2437 27.793 85.8522C26.3982 84.5063 25.1013 83.2339 23.8778 82.0104Z" fill="url(#paint3_linear_37_1310)"/>
<path d="M11.643 55.3143C11.1781 55.4611 10.8599 55.5834 10.4929 55.7058C9.97904 55.8526 9.44071 55.9994 8.82897 56.1707C7.09162 50.249 6.84692 44.3274 7.997 38.3323C9.41624 30.9425 12.7686 24.5314 18.0785 18.9768C18.7637 19.7354 19.3754 20.4205 20.0361 21.1791C15.8028 25.657 12.8175 30.9669 11.3004 37.0599C9.78328 43.1528 9.9301 49.2213 11.643 55.3143Z" fill="black"/>
<path d="M11.643 55.3143C11.1781 55.4611 10.8599 55.5834 10.4929 55.7058C9.97904 55.8526 9.44071 55.9994 8.82897 56.1707C7.09162 50.249 6.84692 44.3274 7.997 38.3323C9.41624 30.9425 12.7686 24.5314 18.0785 18.9768C18.7637 19.7354 19.3754 20.4205 20.0361 21.1791C15.8028 25.657 12.8175 30.9669 11.3004 37.0599C9.78328 43.1528 9.9301 49.2213 11.643 55.3143Z" fill="url(#paint4_linear_37_1310)"/>
<path d="M70.835 21.1789C70.9328 21.0565 71.0552 20.9097 71.1775 20.7873C71.6669 20.2001 72.1808 19.6373 72.6457 19.0745C80.9654 25.3632 86.1285 44.5963 82.3112 54.6289C81.4059 54.4087 80.5249 54.164 79.5951 53.9437C82.2378 41.5132 79.3504 30.5997 70.835 21.1789Z" fill="black"/>
<path d="M70.835 21.1789C70.9328 21.0565 71.0552 20.9097 71.1775 20.7873C71.6669 20.2001 72.1808 19.6373 72.6457 19.0745C80.9654 25.3632 86.1285 44.5963 82.3112 54.6289C81.4059 54.4087 80.5249 54.164 79.5951 53.9437C82.2378 41.5132 79.3504 30.5997 70.835 21.1789Z" fill="url(#paint5_linear_37_1310)"/>
<path d="M62.344 76.3823C62.8334 77.2632 63.2738 78.0463 63.7632 78.9516C54.5137 83.8456 44.8971 84.8733 34.7422 82.1572C35.0358 81.1539 35.305 80.2485 35.5742 79.3187C44.9216 81.8635 53.7796 80.8603 62.344 76.3823Z" fill="black"/>
<path d="M62.344 76.3823C62.8334 77.2632 63.2738 78.0463 63.7632 78.9516C54.5137 83.8456 44.8971 84.8733 34.7422 82.1572C35.0358 81.1539 35.305 80.2485 35.5742 79.3187C44.9216 81.8635 53.7796 80.8603 62.344 76.3823Z" fill="url(#paint6_linear_37_1310)"/>
<path d="M20.5986 8.77275C20.5986 7.79397 20.5986 6.91306 20.5986 5.95874C22.9967 5.95874 25.3702 5.95874 27.7927 5.95874C27.7927 6.86412 27.7927 7.79397 27.7927 8.77275C25.4192 8.77275 23.0456 8.77275 20.5986 8.77275Z" fill="black"/>
<path d="M20.5986 8.77275C20.5986 7.79397 20.5986 6.91306 20.5986 5.95874C22.9967 5.95874 25.3702 5.95874 27.7927 5.95874C27.7927 6.86412 27.7927 7.79397 27.7927 8.77275C25.4192 8.77275 23.0456 8.77275 20.5986 8.77275Z" fill="url(#paint7_linear_37_1310)"/>
<path d="M30.7293 14.6453C28.2823 14.6453 25.9088 14.6453 23.5107 14.6453C23.5107 13.691 23.5107 12.8101 23.5107 11.8313C25.9088 11.8313 28.2823 11.8313 30.7293 11.8313C30.7293 12.7611 30.7293 13.691 30.7293 14.6453Z" fill="black"/>
<path d="M30.7293 14.6453C28.2823 14.6453 25.9088 14.6453 23.5107 14.6453C23.5107 13.691 23.5107 12.8101 23.5107 11.8313C25.9088 11.8313 28.2823 11.8313 30.7293 11.8313C30.7293 12.7611 30.7293 13.691 30.7293 14.6453Z" fill="url(#paint8_linear_37_1310)"/>
<path d="M51.3081 51.3011C51.3081 54.58 48.7387 57.1983 45.4843 57.1983C42.2053 57.1983 39.5871 54.629 39.5871 51.3745C39.5626 48.0955 42.1319 45.4773 45.4109 45.4773C48.6898 45.4773 51.3081 48.0466 51.3081 51.3011ZM48.3717 51.3745C48.3962 49.8084 47.0503 48.4381 45.4598 48.4137C43.8937 48.3892 42.5235 49.7595 42.499 51.3255C42.499 52.8916 43.8448 54.2619 45.4109 54.2864C47.0014 54.2864 48.3717 52.9405 48.3717 51.3745Z" fill="black"/>
<path d="M51.3081 51.3011C51.3081 54.58 48.7387 57.1983 45.4843 57.1983C42.2053 57.1983 39.5871 54.629 39.5871 51.3745C39.5626 48.0955 42.1319 45.4773 45.4109 45.4773C48.6898 45.4773 51.3081 48.0466 51.3081 51.3011ZM48.3717 51.3745C48.3962 49.8084 47.0503 48.4381 45.4598 48.4137C43.8937 48.3892 42.5235 49.7595 42.499 51.3255C42.499 52.8916 43.8448 54.2619 45.4109 54.2864C47.0014 54.2864 48.3717 52.9405 48.3717 51.3745Z" fill="url(#paint9_linear_37_1310)"/>
<defs>
<linearGradient id="paint0_linear_37_1310" x1="17.3365" y1="-1.19179e-05" x2="59.6575" y2="1.37423" gradientUnits="userSpaceOnUse">
<stop stop-color="#37DADA"/>
<stop offset="1" stop-color="#254DB5"/>
</linearGradient>
<linearGradient id="paint1_linear_37_1310" x1="63.0621" y1="58.6201" x2="87.3077" y2="59.0505" gradientUnits="userSpaceOnUse">
<stop stop-color="#37DADA"/>
<stop offset="1" stop-color="#254DB5"/>
</linearGradient>
<linearGradient id="paint2_linear_37_1310" x1="25.4047" y1="36.6743" x2="55.7055" y2="37.4134" gradientUnits="userSpaceOnUse">
<stop stop-color="#37DADA"/>
<stop offset="1" stop-color="#254DB5"/>
</linearGradient>
<linearGradient id="paint3_linear_37_1310" x1="-5.8066" y1="59.54" x2="26.6467" y2="60.3318" gradientUnits="userSpaceOnUse">
<stop stop-color="#37DADA"/>
<stop offset="1" stop-color="#254DB5"/>
</linearGradient>
<linearGradient id="paint4_linear_37_1310" x1="4.9395" y1="18.9768" x2="18.0973" y2="19.0868" gradientUnits="userSpaceOnUse">
<stop stop-color="#37DADA"/>
<stop offset="1" stop-color="#254DB5"/>
</linearGradient>
<linearGradient id="paint5_linear_37_1310" x1="68.4797" y1="19.0744" x2="81.6501" y2="19.1898" gradientUnits="userSpaceOnUse">
<stop stop-color="#37DADA"/>
<stop offset="1" stop-color="#254DB5"/>
</linearGradient>
<linearGradient id="paint6_linear_37_1310" x1="29.3837" y1="76.3823" x2="59.0666" y2="79.2835" gradientUnits="userSpaceOnUse">
<stop stop-color="#37DADA"/>
<stop offset="1" stop-color="#254DB5"/>
</linearGradient>
<linearGradient id="paint7_linear_37_1310" x1="19.2703" y1="5.95874" x2="26.6699" y2="6.42045" gradientUnits="userSpaceOnUse">
<stop stop-color="#37DADA"/>
<stop offset="1" stop-color="#254DB5"/>
</linearGradient>
<linearGradient id="paint8_linear_37_1310" x1="22.1779" y1="11.8313" x2="29.6025" y2="12.2961" gradientUnits="userSpaceOnUse">
<stop stop-color="#37DADA"/>
<stop offset="1" stop-color="#254DB5"/>
</linearGradient>
<linearGradient id="paint9_linear_37_1310" x1="37.4227" y1="45.4773" x2="49.5185" y2="45.7725" gradientUnits="userSpaceOnUse">
<stop stop-color="#37DADA"/>
<stop offset="1" stop-color="#254DB5"/>
</linearGradient>
</defs>
</svg>
