<svg width="71" height="91" viewBox="0 0 71 91" fill="none" xmlns="http://www.w3.org/2000/svg">
<path d="M37.6052 0.0237257C38.3407 0.189806 39.0762 0.355886 39.8354 0.545692C42.3741 1.18629 44.5806 2.46748 46.5024 4.2469C47.309 5.00613 47.4277 5.78908 46.8582 6.40595C46.2651 7.04654 45.5059 6.99909 44.6755 6.23987C39.4084 1.47099 32.1008 1.49472 26.8575 6.26359C26.0745 6.97536 25.339 7.02281 24.7459 6.42967C24.129 5.78908 24.2002 5.05358 25.0306 4.27063C27.3794 2.04041 30.1791 0.66432 33.4058 0.16608C33.5718 0.142354 33.7379 0.0474514 33.8803 0C35.114 0.0237257 36.3715 0.0237257 37.6052 0.0237257Z" fill="black"/>
<path d="M37.6052 0.0237257C38.3407 0.189806 39.0762 0.355886 39.8354 0.545692C42.3741 1.18629 44.5806 2.46748 46.5024 4.2469C47.309 5.00613 47.4277 5.78908 46.8582 6.40595C46.2651 7.04654 45.5059 6.99909 44.6755 6.23987C39.4084 1.47099 32.1008 1.49472 26.8575 6.26359C26.0745 6.97536 25.339 7.02281 24.7459 6.42967C24.129 5.78908 24.2002 5.05358 25.0306 4.27063C27.3794 2.04041 30.1791 0.66432 33.4058 0.16608C33.5718 0.142354 33.7379 0.0474514 33.8803 0C35.114 0.0237257 36.3715 0.0237257 37.6052 0.0237257Z" fill="url(#paint0_linear_18_780)"/>
<path d="M45.4109 35.4462C45.4109 39.1237 45.4109 42.7774 45.4109 46.4549C45.4109 47.0243 45.577 47.3565 46.0278 47.7124C51.3424 52.0779 53.454 57.7009 51.9118 64.3916C50.3696 71.0585 46.1464 75.4003 39.3846 76.9662C30.2977 79.1015 21.2107 73.0989 19.5262 63.8459C18.3636 57.3925 20.3566 52.0067 25.4102 47.8073C25.9084 47.3802 26.1219 46.9769 26.1219 46.3126C26.0982 42.5639 26.0982 38.7915 26.1219 35.0428C26.1219 33.9752 26.5015 33.4532 27.3082 33.3583C28.281 33.2397 28.8504 33.8091 28.8504 34.9242C28.8741 37.4629 28.8504 40.0252 28.8504 42.5639C28.8504 43.7976 28.8267 45.0551 28.8504 46.2888C28.8978 47.8073 28.3521 48.9224 27.1421 49.8714C19.0991 56.2536 20.4989 68.9469 29.7994 73.3124C38.3407 77.2984 48.3055 72.2211 49.5155 62.3512C50.1324 57.3213 48.3767 53.1693 44.4856 49.9663C43.2519 48.9698 42.7062 47.8547 42.7062 46.2414C42.7537 39.2186 42.7299 32.2195 42.7299 25.1967C42.7299 21.5666 40.5709 18.8145 37.1781 18.0315C33.2871 17.1299 29.1588 20.1668 28.8741 24.129C28.8029 25.1492 28.8504 26.1931 28.8267 27.2371C28.8029 28.3047 28.3521 28.8267 27.4506 28.803C26.5727 28.803 26.0745 28.281 26.1219 27.1896C26.1694 25.6949 26.1457 24.1527 26.4541 22.7055C27.4031 18.1739 31.6737 14.7811 36.3952 15.2319C41.686 15.7301 45.4109 19.8109 45.4347 24.8882C45.4347 28.3996 45.4109 31.9348 45.4109 35.4462Z" fill="black"/>
<path d="M45.4109 35.4462C45.4109 39.1237 45.4109 42.7774 45.4109 46.4549C45.4109 47.0243 45.577 47.3565 46.0278 47.7124C51.3424 52.0779 53.454 57.7009 51.9118 64.3916C50.3696 71.0585 46.1464 75.4003 39.3846 76.9662C30.2977 79.1015 21.2107 73.0989 19.5262 63.8459C18.3636 57.3925 20.3566 52.0067 25.4102 47.8073C25.9084 47.3802 26.1219 46.9769 26.1219 46.3126C26.0982 42.5639 26.0982 38.7915 26.1219 35.0428C26.1219 33.9752 26.5015 33.4532 27.3082 33.3583C28.281 33.2397 28.8504 33.8091 28.8504 34.9242C28.8741 37.4629 28.8504 40.0252 28.8504 42.5639C28.8504 43.7976 28.8267 45.0551 28.8504 46.2888C28.8978 47.8073 28.3521 48.9224 27.1421 49.8714C19.0991 56.2536 20.4989 68.9469 29.7994 73.3124C38.3407 77.2984 48.3055 72.2211 49.5155 62.3512C50.1324 57.3213 48.3767 53.1693 44.4856 49.9663C43.2519 48.9698 42.7062 47.8547 42.7062 46.2414C42.7537 39.2186 42.7299 32.2195 42.7299 25.1967C42.7299 21.5666 40.5709 18.8145 37.1781 18.0315C33.2871 17.1299 29.1588 20.1668 28.8741 24.129C28.8029 25.1492 28.8504 26.1931 28.8267 27.2371C28.8029 28.3047 28.3521 28.8267 27.4506 28.803C26.5727 28.803 26.0745 28.281 26.1219 27.1896C26.1694 25.6949 26.1457 24.1527 26.4541 22.7055C27.4031 18.1739 31.6737 14.7811 36.3952 15.2319C41.686 15.7301 45.4109 19.8109 45.4347 24.8882C45.4347 28.3996 45.4109 31.9348 45.4109 35.4462Z" fill="url(#paint1_linear_18_780)"/>
<path d="M39.9067 42.5875C39.9067 44.9126 39.9304 47.2615 39.883 49.5866C39.883 50.2272 40.0728 50.5594 40.6659 50.8441C44.8416 53.0031 47.0007 56.4908 46.7871 61.1885C46.5736 65.7438 44.3434 69.1841 40.049 70.9872C32.267 74.2614 23.9393 68.0215 24.7934 59.5989C25.1967 55.5655 27.3083 52.671 30.8672 50.8441C31.4841 50.5356 31.6501 50.2035 31.6501 49.5629C31.6264 44.9838 31.6264 40.4048 31.6501 35.802C31.6501 33.4531 32.9313 31.816 34.9955 31.4127C37.5578 30.9382 39.8592 32.7888 39.9067 35.4461C39.9304 37.8424 39.9067 40.2149 39.9067 42.5875ZM37.2019 43.5603C37.2019 41.0928 37.2019 38.6491 37.2019 36.1816C37.2019 35.802 37.1782 35.3986 37.0833 35.0427C36.8935 34.331 36.3715 34.07 35.6835 34.0937C34.9717 34.1412 34.5447 34.5208 34.4023 35.2325C34.3549 35.541 34.3786 35.8731 34.3786 36.2053C34.3786 41.1165 34.3549 46.0278 34.3786 50.939C34.3786 51.9355 33.999 52.5049 33.0499 52.8608C29.1589 54.3318 27.2371 57.3212 27.4507 61.4495C27.7117 66.2895 32.4331 69.967 37.1782 69.018C41.093 68.2588 43.8214 65.2456 44.1536 61.3546C44.462 57.6771 42.1369 54.1657 38.4831 52.837C37.5578 52.5049 37.1782 51.9592 37.2019 51.0102C37.2257 48.519 37.2019 46.0278 37.2019 43.5603Z" fill="black"/>
<path d="M39.9067 42.5875C39.9067 44.9126 39.9304 47.2615 39.883 49.5866C39.883 50.2272 40.0728 50.5594 40.6659 50.8441C44.8416 53.0031 47.0007 56.4908 46.7871 61.1885C46.5736 65.7438 44.3434 69.1841 40.049 70.9872C32.267 74.2614 23.9393 68.0215 24.7934 59.5989C25.1967 55.5655 27.3083 52.671 30.8672 50.8441C31.4841 50.5356 31.6501 50.2035 31.6501 49.5629C31.6264 44.9838 31.6264 40.4048 31.6501 35.802C31.6501 33.4531 32.9313 31.816 34.9955 31.4127C37.5578 30.9382 39.8592 32.7888 39.9067 35.4461C39.9304 37.8424 39.9067 40.2149 39.9067 42.5875ZM37.2019 43.5603C37.2019 41.0928 37.2019 38.6491 37.2019 36.1816C37.2019 35.802 37.1782 35.3986 37.0833 35.0427C36.8935 34.331 36.3715 34.07 35.6835 34.0937C34.9717 34.1412 34.5447 34.5208 34.4023 35.2325C34.3549 35.541 34.3786 35.8731 34.3786 36.2053C34.3786 41.1165 34.3549 46.0278 34.3786 50.939C34.3786 51.9355 33.999 52.5049 33.0499 52.8608C29.1589 54.3318 27.2371 57.3212 27.4507 61.4495C27.7117 66.2895 32.4331 69.967 37.1782 69.018C41.093 68.2588 43.8214 65.2456 44.1536 61.3546C44.462 57.6771 42.1369 54.1657 38.4831 52.837C37.5578 52.5049 37.1782 51.9592 37.2019 51.0102C37.2257 48.519 37.2019 46.0278 37.2019 43.5603Z" fill="url(#paint2_linear_18_780)"/>
<path d="M25.8611 88.2835C28.7793 88.2835 31.5315 88.2835 34.26 88.2835C34.5921 88.2835 34.9243 88.2598 35.2327 88.3072C35.9445 88.4021 36.3478 88.8292 36.3716 89.5647C36.3953 90.3239 35.992 90.7747 35.2565 90.9408C35.0904 90.9645 34.9006 90.9645 34.7345 90.9645C30.1792 90.9645 25.6238 90.9883 21.0685 90.9408C20.594 90.9408 20.0008 90.7035 19.7161 90.3477C19.0755 89.5647 19.6449 88.4259 20.6651 88.3072C20.7126 88.3072 20.7838 88.2835 20.8312 88.3072C22.492 88.6869 23.3461 87.8565 23.8918 86.3617C24.2477 85.389 24.7934 84.5111 25.2917 83.6095C26.4305 81.5929 28.1387 80.4778 30.4876 80.4778C33.8329 80.454 37.1782 80.454 40.5236 80.4778C42.8724 80.5015 44.5807 81.5929 45.7195 83.6095C46.4787 84.9856 47.143 86.4092 47.9023 87.7615C48.0446 88.0225 48.448 88.2361 48.7564 88.2835C49.2784 88.3784 49.8241 88.2835 50.346 88.331C51.1052 88.4021 51.5086 88.8767 51.5323 89.6359C51.5323 90.3951 51.1527 90.9408 50.3935 90.9645C47.7125 91.012 45.0077 91.012 42.3267 90.9645C41.5675 90.9645 41.1642 90.3951 41.1642 89.6596C41.1642 88.9004 41.5675 88.4021 42.3504 88.3547C43.2283 88.3072 44.1061 88.3547 45.1738 88.3547C44.3909 86.9311 43.7503 85.6025 42.9673 84.3688C42.4216 83.5384 41.4963 83.1825 40.4998 83.1825C37.1782 83.1825 33.8804 83.1825 30.5588 83.1825C29.5148 83.1825 28.5895 83.5621 28.0438 84.4399C27.2134 85.6025 26.5966 86.9074 25.8611 88.2835Z" fill="black"/>
<path d="M25.8611 88.2835C28.7793 88.2835 31.5315 88.2835 34.26 88.2835C34.5921 88.2835 34.9243 88.2598 35.2327 88.3072C35.9445 88.4021 36.3478 88.8292 36.3716 89.5647C36.3953 90.3239 35.992 90.7747 35.2565 90.9408C35.0904 90.9645 34.9006 90.9645 34.7345 90.9645C30.1792 90.9645 25.6238 90.9883 21.0685 90.9408C20.594 90.9408 20.0008 90.7035 19.7161 90.3477C19.0755 89.5647 19.6449 88.4259 20.6651 88.3072C20.7126 88.3072 20.7838 88.2835 20.8312 88.3072C22.492 88.6869 23.3461 87.8565 23.8918 86.3617C24.2477 85.389 24.7934 84.5111 25.2917 83.6095C26.4305 81.5929 28.1387 80.4778 30.4876 80.4778C33.8329 80.454 37.1782 80.454 40.5236 80.4778C42.8724 80.5015 44.5807 81.5929 45.7195 83.6095C46.4787 84.9856 47.143 86.4092 47.9023 87.7615C48.0446 88.0225 48.448 88.2361 48.7564 88.2835C49.2784 88.3784 49.8241 88.2835 50.346 88.331C51.1052 88.4021 51.5086 88.8767 51.5323 89.6359C51.5323 90.3951 51.1527 90.9408 50.3935 90.9645C47.7125 91.012 45.0077 91.012 42.3267 90.9645C41.5675 90.9645 41.1642 90.3951 41.1642 89.6596C41.1642 88.9004 41.5675 88.4021 42.3504 88.3547C43.2283 88.3072 44.1061 88.3547 45.1738 88.3547C44.3909 86.9311 43.7503 85.6025 42.9673 84.3688C42.4216 83.5384 41.4963 83.1825 40.4998 83.1825C37.1782 83.1825 33.8804 83.1825 30.5588 83.1825C29.5148 83.1825 28.5895 83.5621 28.0438 84.4399C27.2134 85.6025 26.5966 86.9074 25.8611 88.2835Z" fill="url(#paint3_linear_18_780)"/>
<path d="M68.2115 13.4998C67.7132 13.4998 67.3336 13.4998 66.954 13.4998C63.8459 13.4998 60.7379 13.4998 57.6298 13.4998C56.657 13.4998 56.0876 12.9778 56.0876 12.1712C56.0639 11.3645 56.6333 10.8425 57.6061 10.8425C61.5208 10.8425 65.4118 10.8425 69.3266 10.8425C70.4654 10.8425 70.9399 11.317 70.9399 12.4796C70.9637 16.2994 70.9399 20.1193 70.9399 23.9154C70.9399 25.0542 70.4654 25.6237 69.5876 25.6237C68.686 25.6237 68.2115 25.078 68.2115 23.9391C68.1877 20.8548 68.2115 17.7942 68.2115 14.7098C68.2115 14.3539 68.2115 13.9981 68.2115 13.4998Z" fill="black"/>
<path d="M68.2115 13.4998C67.7132 13.4998 67.3336 13.4998 66.954 13.4998C63.8459 13.4998 60.7379 13.4998 57.6298 13.4998C56.657 13.4998 56.0876 12.9778 56.0876 12.1712C56.0639 11.3645 56.6333 10.8425 57.6061 10.8425C61.5208 10.8425 65.4118 10.8425 69.3266 10.8425C70.4654 10.8425 70.9399 11.317 70.9399 12.4796C70.9637 16.2994 70.9399 20.1193 70.9399 23.9154C70.9399 25.0542 70.4654 25.6237 69.5876 25.6237C68.686 25.6237 68.2115 25.078 68.2115 23.9391C68.1877 20.8548 68.2115 17.7942 68.2115 14.7098C68.2115 14.3539 68.2115 13.9981 68.2115 13.4998Z" fill="url(#paint4_linear_18_780)"/>
<path d="M2.75211 79.0777C3.51133 79.0777 4.17565 79.0777 4.8637 79.0777C7.66334 79.0777 10.4867 79.0777 13.2863 79.0777C14.4252 79.0777 15.2081 79.9319 14.7811 80.786C14.5912 81.2131 13.9744 81.6876 13.5473 81.6876C9.49022 81.7588 5.43312 81.735 1.39975 81.735C0.521894 81.735 0.0236537 81.2131 0.0236537 80.3115C-7.2055e-05 76.3493 -7.2055e-05 72.3871 0.0236537 68.4249C0.0236537 67.4521 0.569345 66.9302 1.42347 66.9539C2.25387 66.9776 2.72839 67.4996 2.72839 68.5198C2.75211 71.6279 2.72839 74.7359 2.72839 77.844C2.75211 78.2236 2.75211 78.5795 2.75211 79.0777Z" fill="black"/>
<path d="M2.75211 79.0777C3.51133 79.0777 4.17565 79.0777 4.8637 79.0777C7.66334 79.0777 10.4867 79.0777 13.2863 79.0777C14.4252 79.0777 15.2081 79.9319 14.7811 80.786C14.5912 81.2131 13.9744 81.6876 13.5473 81.6876C9.49022 81.7588 5.43312 81.735 1.39975 81.735C0.521894 81.735 0.0236537 81.2131 0.0236537 80.3115C-7.2055e-05 76.3493 -7.2055e-05 72.3871 0.0236537 68.4249C0.0236537 67.4521 0.569345 66.9302 1.42347 66.9539C2.25387 66.9776 2.72839 67.4996 2.72839 68.5198C2.75211 71.6279 2.72839 74.7359 2.72839 77.844C2.75211 78.2236 2.75211 78.5795 2.75211 79.0777Z" fill="url(#paint5_linear_18_780)"/>
<path d="M68.2114 79.0777C68.2114 75.6374 68.2114 72.3395 68.2114 69.0179C68.2114 68.6621 68.2114 68.3062 68.3063 67.974C68.4487 67.3097 68.8995 66.9775 69.5875 66.9775C70.2756 66.9775 70.7027 67.3334 70.8687 67.974C70.9399 68.2587 70.9399 68.5672 70.9636 68.8519C70.9636 72.5294 70.9636 76.1831 70.9636 79.8606C70.9636 81.3553 70.5603 81.7824 69.0893 81.7824C65.3881 81.7824 61.6869 81.7824 58.0094 81.7824C57.867 81.7824 57.7247 81.7824 57.5586 81.7824C56.657 81.7349 56.1113 81.2367 56.1113 80.4537C56.1113 79.6708 56.6807 79.1251 57.5586 79.1251C59.0059 79.1014 60.4531 79.1251 61.9004 79.1251C63.9645 79.0777 66.0287 79.0777 68.2114 79.0777Z" fill="black"/>
<path d="M68.2114 79.0777C68.2114 75.6374 68.2114 72.3395 68.2114 69.0179C68.2114 68.6621 68.2114 68.3062 68.3063 67.974C68.4487 67.3097 68.8995 66.9775 69.5875 66.9775C70.2756 66.9775 70.7027 67.3334 70.8687 67.974C70.9399 68.2587 70.9399 68.5672 70.9636 68.8519C70.9636 72.5294 70.9636 76.1831 70.9636 79.8606C70.9636 81.3553 70.5603 81.7824 69.0893 81.7824C65.3881 81.7824 61.6869 81.7824 58.0094 81.7824C57.867 81.7824 57.7247 81.7824 57.5586 81.7824C56.657 81.7349 56.1113 81.2367 56.1113 80.4537C56.1113 79.6708 56.6807 79.1251 57.5586 79.1251C59.0059 79.1014 60.4531 79.1251 61.9004 79.1251C63.9645 79.0777 66.0287 79.0777 68.2114 79.0777Z" fill="url(#paint6_linear_18_780)"/>
<path d="M2.75218 13.4999C2.75218 16.9401 2.75218 20.2617 2.75218 23.5596C2.75218 23.9392 2.79964 24.4137 2.60983 24.6747C2.32512 25.0543 1.89806 25.4339 1.44727 25.5526C0.854126 25.7187 0.355886 25.3628 0.142354 24.7459C0.0474514 24.4137 0 24.0579 0 23.702C0 20.0482 0 16.3944 0 12.717C0 11.2222 0.403337 10.8189 1.89806 10.8189C5.623 10.8189 9.34793 10.8189 13.0729 10.8189C13.4525 10.8189 13.9744 10.7952 14.1643 11.0087C14.4964 11.3883 14.8286 11.9577 14.8049 12.4085C14.7574 13.1915 14.0931 13.4999 13.3101 13.4762C10.1546 13.4762 6.97536 13.4762 3.81984 13.4762C3.48768 13.4999 3.17925 13.4999 2.75218 13.4999Z" fill="black"/>
<path d="M2.75218 13.4999C2.75218 16.9401 2.75218 20.2617 2.75218 23.5596C2.75218 23.9392 2.79964 24.4137 2.60983 24.6747C2.32512 25.0543 1.89806 25.4339 1.44727 25.5526C0.854126 25.7187 0.355886 25.3628 0.142354 24.7459C0.0474514 24.4137 0 24.0579 0 23.702C0 20.0482 0 16.3944 0 12.717C0 11.2222 0.403337 10.8189 1.89806 10.8189C5.623 10.8189 9.34793 10.8189 13.0729 10.8189C13.4525 10.8189 13.9744 10.7952 14.1643 11.0087C14.4964 11.3883 14.8286 11.9577 14.8049 12.4085C14.7574 13.1915 14.0931 13.4999 13.3101 13.4762C10.1546 13.4762 6.97536 13.4762 3.81984 13.4762C3.48768 13.4999 3.17925 13.4999 2.75218 13.4999Z" fill="url(#paint7_linear_18_780)"/>
<path d="M35.5411 7.56836C38.1746 7.63954 40.0964 8.39876 41.7335 9.91721C42.469 10.6053 42.5639 11.317 42.0182 11.9339C41.4725 12.5745 40.7133 12.6219 40.0015 11.9339C37.6764 9.67995 33.8091 9.75113 31.5789 11.9339C30.8908 12.6219 30.1079 12.5508 29.5622 11.9102C29.0639 11.3407 29.1588 10.5341 29.7757 9.94093C31.5077 8.35131 33.5718 7.56836 35.5411 7.56836Z" fill="black"/>
<path d="M35.5411 7.56836C38.1746 7.63954 40.0964 8.39876 41.7335 9.91721C42.469 10.6053 42.5639 11.317 42.0182 11.9339C41.4725 12.5745 40.7133 12.6219 40.0015 11.9339C37.6764 9.67995 33.8091 9.75113 31.5789 11.9339C30.8908 12.6219 30.1079 12.5508 29.5622 11.9102C29.0639 11.3407 29.1588 10.5341 29.7757 9.94093C31.5077 8.35131 33.5718 7.56836 35.5411 7.56836Z" fill="url(#paint8_linear_18_780)"/>
<defs>
<linearGradient id="paint0_linear_18_780" x1="20.1137" y1="-2.64761e-06" x2="43.5775" y2="1.91208" gradientUnits="userSpaceOnUse">
<stop stop-color="#37DADA"/>
<stop offset="1" stop-color="#254DB5"/>
</linearGradient>
<linearGradient id="paint1_linear_18_780" x1="13.0743" y1="15.1916" x2="47.35" y2="15.6381" gradientUnits="userSpaceOnUse">
<stop stop-color="#37DADA"/>
<stop offset="1" stop-color="#254DB5"/>
</linearGradient>
<linearGradient id="paint2_linear_18_780" x1="20.658" y1="31.3384" x2="43.4417" y2="31.6411" gradientUnits="userSpaceOnUse">
<stop stop-color="#37DADA"/>
<stop offset="1" stop-color="#254DB5"/>
</linearGradient>
<linearGradient id="paint3_linear_18_780" x1="13.521" y1="80.46" x2="46.4712" y2="82.9081" gradientUnits="userSpaceOnUse">
<stop stop-color="#37DADA"/>
<stop offset="1" stop-color="#254DB5"/>
</linearGradient>
<linearGradient id="paint4_linear_18_780" x1="53.3425" y1="10.8425" x2="68.681" y2="11.219" gradientUnits="userSpaceOnUse">
<stop stop-color="#37DADA"/>
<stop offset="1" stop-color="#254DB5"/>
</linearGradient>
<linearGradient id="paint5_linear_18_780" x1="-2.74407" y1="66.9531" x2="12.6252" y2="67.331" gradientUnits="userSpaceOnUse">
<stop stop-color="#37DADA"/>
<stop offset="1" stop-color="#254DB5"/>
</linearGradient>
<linearGradient id="paint6_linear_18_780" x1="53.369" y1="66.9775" x2="68.6959" y2="67.3528" gradientUnits="userSpaceOnUse">
<stop stop-color="#37DADA"/>
<stop offset="1" stop-color="#254DB5"/>
</linearGradient>
<linearGradient id="paint7_linear_18_780" x1="-2.7338" y1="10.8181" x2="12.5454" y2="11.1918" gradientUnits="userSpaceOnUse">
<stop stop-color="#37DADA"/>
<stop offset="1" stop-color="#254DB5"/>
</linearGradient>
<linearGradient id="paint8_linear_18_780" x1="26.8196" y1="7.56836" x2="40.3126" y2="8.45693" gradientUnits="userSpaceOnUse">
<stop stop-color="#37DADA"/>
<stop offset="1" stop-color="#254DB5"/>
</linearGradient>
</defs>
</svg>
