<svg width="92" height="91" viewBox="0 0 92 91" fill="none" xmlns="http://www.w3.org/2000/svg">
<path d="M5.68783 19.8715C4.79912 19.8715 4.15925 19.9426 3.51938 19.8715C2.27519 19.6938 0.142295 20.6536 0.106746 18.5207C0.106746 16.2456 2.31074 17.2765 3.59048 17.0632C4.1948 16.9565 4.87022 17.0632 5.58119 17.0632C5.58119 16.0678 5.58119 15.2858 5.58119 14.2193C4.33699 14.2193 3.02171 14.3615 1.77752 14.1482C1.13765 14.0416 0.177843 13.4017 0.0711981 12.8685C-0.142092 11.802 0.746616 11.3755 1.77752 11.3755C3.02171 11.3755 4.23035 11.3755 5.65228 11.3755C5.65228 10.5223 5.65228 9.84688 5.65228 9.17146C5.68783 5.68773 5.68783 5.68773 9.24266 5.68773C9.88253 5.68773 10.5224 5.68773 11.3756 5.68773C11.3756 4.2658 11.2334 2.95051 11.4467 1.70632C11.5178 1.06645 12.2998 0.568773 12.7619 0C13.2241 0.568773 14.0061 1.06645 14.1128 1.70632C14.3261 2.91496 14.1839 4.15915 14.1839 5.54554C15.1081 5.54554 15.9613 5.54554 17.0277 5.54554C17.0277 4.90567 16.9566 4.1947 17.0633 3.51928C17.241 2.27509 16.2812 0.142193 18.4141 0.106645C20.6892 0.106645 19.6583 2.31064 19.8716 3.59038C19.9782 4.1947 19.8716 4.87012 19.8716 5.65218C21.258 5.65218 22.5022 5.65218 23.7108 5.65218C24.955 5.61663 25.5593 6.22095 25.5593 7.46514C25.5238 8.70933 25.5593 9.91798 25.5593 11.3399C26.8746 11.3399 28.0477 11.3755 29.2208 11.3399C30.2873 11.3044 31.2115 11.5532 31.2115 12.7974C31.176 14.0416 30.2162 14.2193 29.1497 14.1838C28.0477 14.1482 26.9102 14.1838 25.666 14.1838C25.666 15.1436 25.666 15.9967 25.666 17.0276C26.9457 17.0276 28.261 16.8854 29.5052 17.0987C30.1451 17.2054 30.6427 17.9874 31.2115 18.4496C30.6427 18.9117 30.1451 19.6938 29.5052 19.8004C28.2966 20.0137 27.0524 19.8715 25.5238 19.8715C25.5238 20.618 25.5238 21.329 25.5238 22.0044C25.5238 25.5592 25.5238 25.5592 21.8623 25.5592C21.258 25.5592 20.6892 25.5592 19.8361 25.5592C19.8361 26.9101 19.8361 28.1898 19.8361 29.434C19.8361 30.4649 19.4095 31.3536 18.343 31.1403C17.8098 31.0337 17.1699 30.0739 17.0633 29.434C16.8855 28.2609 17.0633 27.0167 17.0633 25.6659C16.0679 25.6659 15.2148 25.6659 14.2194 25.6659C14.2194 26.9101 14.1839 28.0832 14.2194 29.2563C14.255 30.3227 13.9706 31.3536 12.7619 31.1403C12.2287 31.0692 11.5888 30.0028 11.4467 29.2918C11.2334 28.1543 11.3756 26.9456 11.3756 25.5592C9.98918 25.5592 8.70944 25.5592 7.4297 25.5592C6.2566 25.5592 5.68783 24.9905 5.68783 23.8174C5.68783 22.5732 5.68783 21.3645 5.68783 19.8715ZM22.6088 22.6443C22.6088 17.8808 22.6088 13.224 22.6088 8.63824C17.8454 8.63824 13.1885 8.63824 8.60279 8.63824C8.60279 13.3662 8.60279 17.9874 8.60279 22.6443C13.2952 22.6443 17.8809 22.6443 22.6088 22.6443Z" fill="black"/>
<path d="M5.68783 19.8715C4.79912 19.8715 4.15925 19.9426 3.51938 19.8715C2.27519 19.6938 0.142295 20.6536 0.106746 18.5207C0.106746 16.2456 2.31074 17.2765 3.59048 17.0632C4.1948 16.9565 4.87022 17.0632 5.58119 17.0632C5.58119 16.0678 5.58119 15.2858 5.58119 14.2193C4.33699 14.2193 3.02171 14.3615 1.77752 14.1482C1.13765 14.0416 0.177843 13.4017 0.0711981 12.8685C-0.142092 11.802 0.746616 11.3755 1.77752 11.3755C3.02171 11.3755 4.23035 11.3755 5.65228 11.3755C5.65228 10.5223 5.65228 9.84688 5.65228 9.17146C5.68783 5.68773 5.68783 5.68773 9.24266 5.68773C9.88253 5.68773 10.5224 5.68773 11.3756 5.68773C11.3756 4.2658 11.2334 2.95051 11.4467 1.70632C11.5178 1.06645 12.2998 0.568773 12.7619 0C13.2241 0.568773 14.0061 1.06645 14.1128 1.70632C14.3261 2.91496 14.1839 4.15915 14.1839 5.54554C15.1081 5.54554 15.9613 5.54554 17.0277 5.54554C17.0277 4.90567 16.9566 4.1947 17.0633 3.51928C17.241 2.27509 16.2812 0.142193 18.4141 0.106645C20.6892 0.106645 19.6583 2.31064 19.8716 3.59038C19.9782 4.1947 19.8716 4.87012 19.8716 5.65218C21.258 5.65218 22.5022 5.65218 23.7108 5.65218C24.955 5.61663 25.5593 6.22095 25.5593 7.46514C25.5238 8.70933 25.5593 9.91798 25.5593 11.3399C26.8746 11.3399 28.0477 11.3755 29.2208 11.3399C30.2873 11.3044 31.2115 11.5532 31.2115 12.7974C31.176 14.0416 30.2162 14.2193 29.1497 14.1838C28.0477 14.1482 26.9102 14.1838 25.666 14.1838C25.666 15.1436 25.666 15.9967 25.666 17.0276C26.9457 17.0276 28.261 16.8854 29.5052 17.0987C30.1451 17.2054 30.6427 17.9874 31.2115 18.4496C30.6427 18.9117 30.1451 19.6938 29.5052 19.8004C28.2966 20.0137 27.0524 19.8715 25.5238 19.8715C25.5238 20.618 25.5238 21.329 25.5238 22.0044C25.5238 25.5592 25.5238 25.5592 21.8623 25.5592C21.258 25.5592 20.6892 25.5592 19.8361 25.5592C19.8361 26.9101 19.8361 28.1898 19.8361 29.434C19.8361 30.4649 19.4095 31.3536 18.343 31.1403C17.8098 31.0337 17.1699 30.0739 17.0633 29.434C16.8855 28.2609 17.0633 27.0167 17.0633 25.6659C16.0679 25.6659 15.2148 25.6659 14.2194 25.6659C14.2194 26.9101 14.1839 28.0832 14.2194 29.2563C14.255 30.3227 13.9706 31.3536 12.7619 31.1403C12.2287 31.0692 11.5888 30.0028 11.4467 29.2918C11.2334 28.1543 11.3756 26.9456 11.3756 25.5592C9.98918 25.5592 8.70944 25.5592 7.4297 25.5592C6.2566 25.5592 5.68783 24.9905 5.68783 23.8174C5.68783 22.5732 5.68783 21.3645 5.68783 19.8715ZM22.6088 22.6443C22.6088 17.8808 22.6088 13.224 22.6088 8.63824C17.8454 8.63824 13.1885 8.63824 8.60279 8.63824C8.60279 13.3662 8.60279 17.9874 8.60279 22.6443C13.2952 22.6443 17.8809 22.6443 22.6088 22.6443Z" fill="url(#paint0_linear_18_824)"/>
<path d="M71.0967 25.5592C69.6747 25.5592 68.4661 25.5237 67.293 25.5592C65.9422 25.5948 65.3378 24.9549 65.3734 23.6041C65.4089 22.431 65.3734 21.2579 65.3734 19.8715C63.987 19.8715 62.6717 20.0137 61.4275 19.8004C60.7877 19.6938 60.29 18.9472 59.6857 18.4851C60.2544 17.9874 60.7521 17.2054 61.3564 17.0987C62.6006 16.8854 63.9159 17.0276 65.2668 17.0276C65.2668 16.0323 65.2668 15.2147 65.2668 14.1838C63.987 14.1838 62.6717 14.326 61.4275 14.1127C60.7877 14.006 59.8634 13.3306 59.7568 12.7974C59.5435 11.7309 60.4322 11.3044 61.4631 11.3399C62.7073 11.3399 63.9159 11.3399 65.3379 11.3399C65.3379 10.0246 65.3734 8.85153 65.3379 7.67843C65.2668 6.2565 65.8711 5.58108 67.3286 5.65218C68.5016 5.68773 69.6747 5.65218 71.0256 5.65218C71.0256 4.23025 70.8834 2.91496 71.0967 1.67077C71.2033 1.0309 71.9854 0.533225 72.4475 0C72.9096 0.568773 73.6917 1.06645 73.7984 1.70632C74.0116 2.91496 73.8694 4.15915 73.8694 5.54554C74.7937 5.54554 75.6469 5.54554 76.7133 5.54554C76.7133 4.2658 76.5711 2.98606 76.7844 1.74187C76.8911 1.102 77.6376 0.604321 78.0997 0.0355483C78.5974 0.604321 79.3439 1.102 79.4861 1.70632C79.6994 2.91496 79.5572 4.1947 79.5572 5.68773C80.8369 5.68773 82.0456 5.72328 83.2542 5.68773C84.7117 5.61663 85.316 6.29205 85.2449 7.71398C85.2094 8.88708 85.2449 10.0602 85.2449 11.3755C86.6313 11.3755 87.8755 11.3755 89.1197 11.3755C90.1506 11.3755 91.0393 11.7665 90.8615 12.8329C90.7549 13.3662 89.8306 14.0416 89.1908 14.1482C87.9821 14.3615 86.7379 14.2193 85.3871 14.2193C85.3871 15.1791 85.3871 16.0323 85.3871 17.0632C86.7024 17.0632 88.0177 16.921 89.2619 17.1343C89.8662 17.2409 90.3994 18.023 90.9326 18.5207C90.3639 18.9828 89.8306 19.7293 89.2263 19.836C88.0177 20.0492 86.7735 19.9071 85.2804 19.9071C85.2804 21.2223 85.2449 22.431 85.2804 23.6396C85.316 24.9549 84.7472 25.6303 83.3964 25.5948C82.2233 25.5592 81.0502 25.5948 79.5927 25.5948C79.5927 26.9456 79.7349 28.2609 79.5216 29.5051C79.415 30.145 78.7751 31.1048 78.2063 31.1759C77.1399 31.3892 76.7133 30.5004 76.7489 29.4695C76.7489 28.2254 76.7489 27.0167 76.7489 25.7014C75.7891 25.7014 74.9714 25.7014 73.905 25.7014C73.905 26.9456 73.905 28.2254 73.905 29.4695C73.905 30.5004 73.514 31.3892 72.4475 31.1759C71.9143 31.0692 71.2744 30.145 71.1322 29.5051C70.9189 28.2609 71.0967 27.0167 71.0967 25.5592ZM82.3299 22.6798C82.3299 17.8808 82.3299 13.224 82.3299 8.60269C77.602 8.60269 73.0163 8.60269 68.3595 8.60269C68.3595 13.3306 68.3595 17.9519 68.3595 22.6798C73.0163 22.6798 77.6376 22.6798 82.3299 22.6798Z" fill="black"/>
<path d="M71.0967 25.5592C69.6747 25.5592 68.4661 25.5237 67.293 25.5592C65.9422 25.5948 65.3378 24.9549 65.3734 23.6041C65.4089 22.431 65.3734 21.2579 65.3734 19.8715C63.987 19.8715 62.6717 20.0137 61.4275 19.8004C60.7877 19.6938 60.29 18.9472 59.6857 18.4851C60.2544 17.9874 60.7521 17.2054 61.3564 17.0987C62.6006 16.8854 63.9159 17.0276 65.2668 17.0276C65.2668 16.0323 65.2668 15.2147 65.2668 14.1838C63.987 14.1838 62.6717 14.326 61.4275 14.1127C60.7877 14.006 59.8634 13.3306 59.7568 12.7974C59.5435 11.7309 60.4322 11.3044 61.4631 11.3399C62.7073 11.3399 63.9159 11.3399 65.3379 11.3399C65.3379 10.0246 65.3734 8.85153 65.3379 7.67843C65.2668 6.2565 65.8711 5.58108 67.3286 5.65218C68.5016 5.68773 69.6747 5.65218 71.0256 5.65218C71.0256 4.23025 70.8834 2.91496 71.0967 1.67077C71.2033 1.0309 71.9854 0.533225 72.4475 0C72.9096 0.568773 73.6917 1.06645 73.7984 1.70632C74.0116 2.91496 73.8694 4.15915 73.8694 5.54554C74.7937 5.54554 75.6469 5.54554 76.7133 5.54554C76.7133 4.2658 76.5711 2.98606 76.7844 1.74187C76.8911 1.102 77.6376 0.604321 78.0997 0.0355483C78.5974 0.604321 79.3439 1.102 79.4861 1.70632C79.6994 2.91496 79.5572 4.1947 79.5572 5.68773C80.8369 5.68773 82.0456 5.72328 83.2542 5.68773C84.7117 5.61663 85.316 6.29205 85.2449 7.71398C85.2094 8.88708 85.2449 10.0602 85.2449 11.3755C86.6313 11.3755 87.8755 11.3755 89.1197 11.3755C90.1506 11.3755 91.0393 11.7665 90.8615 12.8329C90.7549 13.3662 89.8306 14.0416 89.1908 14.1482C87.9821 14.3615 86.7379 14.2193 85.3871 14.2193C85.3871 15.1791 85.3871 16.0323 85.3871 17.0632C86.7024 17.0632 88.0177 16.921 89.2619 17.1343C89.8662 17.2409 90.3994 18.023 90.9326 18.5207C90.3639 18.9828 89.8306 19.7293 89.2263 19.836C88.0177 20.0492 86.7735 19.9071 85.2804 19.9071C85.2804 21.2223 85.2449 22.431 85.2804 23.6396C85.316 24.9549 84.7472 25.6303 83.3964 25.5948C82.2233 25.5592 81.0502 25.5948 79.5927 25.5948C79.5927 26.9456 79.7349 28.2609 79.5216 29.5051C79.415 30.145 78.7751 31.1048 78.2063 31.1759C77.1399 31.3892 76.7133 30.5004 76.7489 29.4695C76.7489 28.2254 76.7489 27.0167 76.7489 25.7014C75.7891 25.7014 74.9714 25.7014 73.905 25.7014C73.905 26.9456 73.905 28.2254 73.905 29.4695C73.905 30.5004 73.514 31.3892 72.4475 31.1759C71.9143 31.0692 71.2744 30.145 71.1322 29.5051C70.9189 28.2609 71.0967 27.0167 71.0967 25.5592ZM82.3299 22.6798C82.3299 17.8808 82.3299 13.224 82.3299 8.60269C77.602 8.60269 73.0163 8.60269 68.3595 8.60269C68.3595 13.3306 68.3595 17.9519 68.3595 22.6798C73.0163 22.6798 77.6376 22.6798 82.3299 22.6798Z" fill="url(#paint1_linear_18_824)"/>
<path d="M5.68773 71.0966C5.68773 69.7102 5.68773 68.4661 5.68773 67.2219C5.65218 65.9777 6.2565 65.3734 7.53624 65.3734C8.78043 65.4089 9.98907 65.3734 11.411 65.3734C11.411 64.0936 11.4466 62.9916 11.411 61.8896C11.3755 60.7876 11.4821 59.7212 12.8685 59.7567C14.2549 59.7923 14.2904 60.9298 14.2549 61.9963C14.2193 63.0627 14.2549 64.1292 14.2549 65.3023C15.2147 65.3023 16.0678 65.3023 17.0987 65.3023C17.0987 64.0225 16.9565 62.7072 17.1698 61.463C17.2765 60.8232 18.0585 60.3255 18.5207 59.7567C18.9828 60.3255 19.7649 60.8232 19.8715 61.463C20.0848 62.6717 19.9426 63.9159 19.9426 65.4445C20.6891 65.4445 21.4001 65.4445 22.0755 65.4445C25.6303 65.4445 25.6303 65.4444 25.6303 69.1059C25.6303 69.7102 25.6303 70.279 25.6303 71.1322C26.9812 71.1322 28.2609 71.1322 29.5051 71.1322C30.536 71.1322 31.4247 71.5588 31.2114 72.6252C31.1048 73.1584 30.145 73.7983 29.5051 73.9049C28.2965 74.1182 27.0523 73.976 25.7014 73.976C25.7014 74.9714 25.7014 75.8246 25.7014 76.8199C26.8034 76.8199 27.8699 76.8199 28.9008 76.8199C30.0028 76.8199 31.247 76.7844 31.2114 78.2774C31.1759 79.6638 30.0383 79.6638 28.9719 79.6638C27.9054 79.6282 26.8745 79.6638 25.5592 79.6638C25.5592 81.0502 25.5592 82.3299 25.5592 83.6096C25.5592 84.7827 24.9905 85.3515 23.8174 85.3515C22.5732 85.3515 21.329 85.3515 19.8715 85.3515C19.8715 86.1336 19.9426 86.8445 19.8715 87.5199C19.6938 88.7641 20.6536 90.9326 18.5207 90.9326C16.2456 90.9326 17.2765 88.7286 17.0632 87.4489C16.9565 86.8445 17.0632 86.1691 17.0632 85.4581C16.0678 85.4581 15.2858 85.4581 14.2193 85.4581C14.2193 86.7379 14.3615 88.0176 14.1482 89.2618C14.0416 89.9017 13.4017 90.8615 12.8685 90.9681C11.802 91.1814 11.3755 90.2927 11.3755 89.2618C11.3755 88.0176 11.3755 86.809 11.3755 85.387C10.2379 85.387 9.24256 85.387 8.28275 85.387C5.90102 85.387 5.72328 85.2093 5.68773 82.8987C5.68773 81.9033 5.68773 80.908 5.68773 79.6993C4.2658 79.6993 2.95051 79.8415 1.70632 79.6282C1.06645 79.5216 0.568773 78.7395 0 78.2774C0.568773 77.8153 1.06645 77.0332 1.70632 76.9266C2.91496 76.7133 4.15915 76.8555 5.54554 76.8555C5.54554 75.9312 5.54554 75.078 5.54554 74.0116C4.40799 74.0116 3.2349 73.976 2.09735 74.0116C1.06645 74.0471 0.0710966 73.8694 0.0355483 72.6252C0 71.381 0.959804 71.1322 2.02625 71.1677C3.12825 71.0966 4.2658 71.0966 5.68773 71.0966ZM8.63824 68.2528C8.63824 72.9451 8.63824 77.6375 8.63824 82.3299C13.3306 82.3299 17.9874 82.3299 22.5732 82.3299C22.5732 77.5664 22.5732 72.9451 22.5732 68.2528C17.9163 68.2528 13.3662 68.2528 8.63824 68.2528Z" fill="black"/>
<path d="M5.68773 71.0966C5.68773 69.7102 5.68773 68.4661 5.68773 67.2219C5.65218 65.9777 6.2565 65.3734 7.53624 65.3734C8.78043 65.4089 9.98907 65.3734 11.411 65.3734C11.411 64.0936 11.4466 62.9916 11.411 61.8896C11.3755 60.7876 11.4821 59.7212 12.8685 59.7567C14.2549 59.7923 14.2904 60.9298 14.2549 61.9963C14.2193 63.0627 14.2549 64.1292 14.2549 65.3023C15.2147 65.3023 16.0678 65.3023 17.0987 65.3023C17.0987 64.0225 16.9565 62.7072 17.1698 61.463C17.2765 60.8232 18.0585 60.3255 18.5207 59.7567C18.9828 60.3255 19.7649 60.8232 19.8715 61.463C20.0848 62.6717 19.9426 63.9159 19.9426 65.4445C20.6891 65.4445 21.4001 65.4445 22.0755 65.4445C25.6303 65.4445 25.6303 65.4444 25.6303 69.1059C25.6303 69.7102 25.6303 70.279 25.6303 71.1322C26.9812 71.1322 28.2609 71.1322 29.5051 71.1322C30.536 71.1322 31.4247 71.5588 31.2114 72.6252C31.1048 73.1584 30.145 73.7983 29.5051 73.9049C28.2965 74.1182 27.0523 73.976 25.7014 73.976C25.7014 74.9714 25.7014 75.8246 25.7014 76.8199C26.8034 76.8199 27.8699 76.8199 28.9008 76.8199C30.0028 76.8199 31.247 76.7844 31.2114 78.2774C31.1759 79.6638 30.0383 79.6638 28.9719 79.6638C27.9054 79.6282 26.8745 79.6638 25.5592 79.6638C25.5592 81.0502 25.5592 82.3299 25.5592 83.6096C25.5592 84.7827 24.9905 85.3515 23.8174 85.3515C22.5732 85.3515 21.329 85.3515 19.8715 85.3515C19.8715 86.1336 19.9426 86.8445 19.8715 87.5199C19.6938 88.7641 20.6536 90.9326 18.5207 90.9326C16.2456 90.9326 17.2765 88.7286 17.0632 87.4489C16.9565 86.8445 17.0632 86.1691 17.0632 85.4581C16.0678 85.4581 15.2858 85.4581 14.2193 85.4581C14.2193 86.7379 14.3615 88.0176 14.1482 89.2618C14.0416 89.9017 13.4017 90.8615 12.8685 90.9681C11.802 91.1814 11.3755 90.2927 11.3755 89.2618C11.3755 88.0176 11.3755 86.809 11.3755 85.387C10.2379 85.387 9.24256 85.387 8.28275 85.387C5.90102 85.387 5.72328 85.2093 5.68773 82.8987C5.68773 81.9033 5.68773 80.908 5.68773 79.6993C4.2658 79.6993 2.95051 79.8415 1.70632 79.6282C1.06645 79.5216 0.568773 78.7395 0 78.2774C0.568773 77.8153 1.06645 77.0332 1.70632 76.9266C2.91496 76.7133 4.15915 76.8555 5.54554 76.8555C5.54554 75.9312 5.54554 75.078 5.54554 74.0116C4.40799 74.0116 3.2349 73.976 2.09735 74.0116C1.06645 74.0471 0.0710966 73.8694 0.0355483 72.6252C0 71.381 0.959804 71.1322 2.02625 71.1677C3.12825 71.0966 4.2658 71.0966 5.68773 71.0966ZM8.63824 68.2528C8.63824 72.9451 8.63824 77.6375 8.63824 82.3299C13.3306 82.3299 17.9874 82.3299 22.5732 82.3299C22.5732 77.5664 22.5732 72.9451 22.5732 68.2528C17.9163 68.2528 13.3662 68.2528 8.63824 68.2528Z" fill="url(#paint2_linear_18_824)"/>
<path d="M85.3515 73.9046C85.3515 74.9 85.3515 75.7176 85.3515 76.7485C86.5246 76.7485 87.6977 76.784 88.8708 76.7485C89.9017 76.7129 90.897 76.8907 90.9326 78.1349C90.9681 79.5213 89.9017 79.6279 88.7997 79.5924C87.6977 79.5568 86.5957 79.5924 85.3159 79.5924C85.3159 80.9787 85.3159 82.2229 85.3159 83.4316C85.3515 84.6758 84.7471 85.2801 83.503 85.2801C82.2588 85.2445 81.0501 85.2801 79.6282 85.2801C79.6282 86.6665 79.8059 87.9107 79.5571 89.1193C79.4149 89.7947 78.6684 90.3635 78.1707 90.9678C77.7086 90.3279 76.9976 89.7592 76.8554 89.0482C76.6421 87.9107 76.7843 86.702 76.7843 85.4223C75.8245 85.4223 74.9714 85.4223 73.9405 85.4223C73.9405 86.702 74.0827 88.0173 73.8694 89.2615C73.7627 89.9014 72.9807 90.399 72.5185 90.9678C72.0564 90.399 71.2743 89.9014 71.1677 89.2615C70.9544 88.0529 71.0966 86.8087 71.0966 85.2801C70.3501 85.2801 69.6391 85.2801 68.9637 85.2801C65.4089 85.2801 65.4089 85.2801 65.4089 81.6186C65.4089 81.0143 65.4089 80.4455 65.4089 79.5568C64.058 79.5568 62.8138 79.5568 61.5341 79.5568C60.5032 79.5568 59.6145 79.1302 59.8278 78.0638C59.9344 77.5306 60.8587 76.8907 61.5341 76.784C62.7428 76.5708 63.9869 76.7129 65.3378 76.7129C65.3378 75.7176 65.3378 74.8644 65.3378 73.8691C64.2358 73.8691 63.1693 73.8691 62.1384 73.8691C61.0364 73.8691 59.7922 73.9046 59.8278 72.4116C59.8633 70.9186 61.1431 71.0252 62.2095 71.0252C63.2049 71.0252 64.2002 71.0252 65.4444 71.0252C65.4444 69.6388 65.4444 68.3591 65.4444 67.0794C65.4444 65.9063 66.0132 65.3375 67.1863 65.3375C68.4305 65.3375 69.6747 65.3375 71.1322 65.3375C71.1322 63.9511 70.99 62.6714 71.2032 61.4272C71.3099 60.7873 71.9853 59.8631 72.5185 59.7564C73.585 59.5431 74.0116 60.4318 73.976 61.4627C73.976 62.7069 73.976 63.9156 73.976 65.2308C74.9358 65.2308 75.7534 65.2308 76.8199 65.2308C76.8199 63.9867 76.8199 62.7069 76.8199 61.4272C76.8199 60.3963 77.2465 59.5076 78.3129 59.7209C78.8461 59.8275 79.486 60.7518 79.5926 61.4272C79.8059 62.6358 79.6637 63.88 79.6637 65.3019C80.9079 65.3019 82.0099 65.373 83.1119 65.3019C84.8182 65.1953 85.4937 65.9774 85.3515 67.6126C85.2804 68.679 85.3515 69.7099 85.3515 70.9897C86.7379 70.9897 88.0531 70.8475 89.2973 71.0608C89.9372 71.1674 90.4349 71.9139 91.0037 72.4116C90.4349 72.8737 89.9372 73.6558 89.3329 73.7624C88.0887 74.0824 86.809 73.9046 85.3515 73.9046ZM68.3594 68.288C68.3594 73.0515 68.3594 77.7083 68.3594 82.294C73.1229 82.294 77.7797 82.294 82.3654 82.294C82.3654 77.5661 82.3654 72.9448 82.3654 68.288C77.673 68.288 73.0873 68.288 68.3594 68.288Z" fill="black"/>
<path d="M85.3515 73.9046C85.3515 74.9 85.3515 75.7176 85.3515 76.7485C86.5246 76.7485 87.6977 76.784 88.8708 76.7485C89.9017 76.7129 90.897 76.8907 90.9326 78.1349C90.9681 79.5213 89.9017 79.6279 88.7997 79.5924C87.6977 79.5568 86.5957 79.5924 85.3159 79.5924C85.3159 80.9787 85.3159 82.2229 85.3159 83.4316C85.3515 84.6758 84.7471 85.2801 83.503 85.2801C82.2588 85.2445 81.0501 85.2801 79.6282 85.2801C79.6282 86.6665 79.8059 87.9107 79.5571 89.1193C79.4149 89.7947 78.6684 90.3635 78.1707 90.9678C77.7086 90.3279 76.9976 89.7592 76.8554 89.0482C76.6421 87.9107 76.7843 86.702 76.7843 85.4223C75.8245 85.4223 74.9714 85.4223 73.9405 85.4223C73.9405 86.702 74.0827 88.0173 73.8694 89.2615C73.7627 89.9014 72.9807 90.399 72.5185 90.9678C72.0564 90.399 71.2743 89.9014 71.1677 89.2615C70.9544 88.0529 71.0966 86.8087 71.0966 85.2801C70.3501 85.2801 69.6391 85.2801 68.9637 85.2801C65.4089 85.2801 65.4089 85.2801 65.4089 81.6186C65.4089 81.0143 65.4089 80.4455 65.4089 79.5568C64.058 79.5568 62.8138 79.5568 61.5341 79.5568C60.5032 79.5568 59.6145 79.1302 59.8278 78.0638C59.9344 77.5306 60.8587 76.8907 61.5341 76.784C62.7428 76.5708 63.9869 76.7129 65.3378 76.7129C65.3378 75.7176 65.3378 74.8644 65.3378 73.8691C64.2358 73.8691 63.1693 73.8691 62.1384 73.8691C61.0364 73.8691 59.7922 73.9046 59.8278 72.4116C59.8633 70.9186 61.1431 71.0252 62.2095 71.0252C63.2049 71.0252 64.2002 71.0252 65.4444 71.0252C65.4444 69.6388 65.4444 68.3591 65.4444 67.0794C65.4444 65.9063 66.0132 65.3375 67.1863 65.3375C68.4305 65.3375 69.6747 65.3375 71.1322 65.3375C71.1322 63.9511 70.99 62.6714 71.2032 61.4272C71.3099 60.7873 71.9853 59.8631 72.5185 59.7564C73.585 59.5431 74.0116 60.4318 73.976 61.4627C73.976 62.7069 73.976 63.9156 73.976 65.2308C74.9358 65.2308 75.7534 65.2308 76.8199 65.2308C76.8199 63.9867 76.8199 62.7069 76.8199 61.4272C76.8199 60.3963 77.2465 59.5076 78.3129 59.7209C78.8461 59.8275 79.486 60.7518 79.5926 61.4272C79.8059 62.6358 79.6637 63.88 79.6637 65.3019C80.9079 65.3019 82.0099 65.373 83.1119 65.3019C84.8182 65.1953 85.4937 65.9774 85.3515 67.6126C85.2804 68.679 85.3515 69.7099 85.3515 70.9897C86.7379 70.9897 88.0531 70.8475 89.2973 71.0608C89.9372 71.1674 90.4349 71.9139 91.0037 72.4116C90.4349 72.8737 89.9372 73.6558 89.3329 73.7624C88.0887 74.0824 86.809 73.9046 85.3515 73.9046ZM68.3594 68.288C68.3594 73.0515 68.3594 77.7083 68.3594 82.294C73.1229 82.294 77.7797 82.294 82.3654 82.294C82.3654 77.5661 82.3654 72.9448 82.3654 68.288C77.673 68.288 73.0873 68.288 68.3594 68.288Z" fill="url(#paint3_linear_18_824)"/>
<path d="M53.9979 76.998C53.9268 80.2329 52.3271 84.4276 49.0567 87.9469C48.3812 88.6934 47.5992 89.3689 46.6394 88.5157C45.6796 87.6625 46.2128 86.8805 46.9238 86.0984C52.5759 79.6286 52.647 71.3814 47.1015 64.8405C46.4261 64.0229 45.644 63.2409 46.7105 62.281C47.7769 61.3212 48.5234 62.2455 49.2344 62.992C52.256 66.1558 53.9979 70.8126 53.9979 76.998Z" fill="black"/>
<path d="M53.9979 76.998C53.9268 80.2329 52.3271 84.4276 49.0567 87.9469C48.3812 88.6934 47.5992 89.3689 46.6394 88.5157C45.6796 87.6625 46.2128 86.8805 46.9238 86.0984C52.5759 79.6286 52.647 71.3814 47.1015 64.8405C46.4261 64.0229 45.644 63.2409 46.7105 62.281C47.7769 61.3212 48.5234 62.2455 49.2344 62.992C52.256 66.1558 53.9979 70.8126 53.9979 76.998Z" fill="url(#paint4_linear_18_824)"/>
<path d="M36.9347 15.2857C37.0413 10.7711 38.6055 6.61195 41.8048 3.09267C42.4802 2.34615 43.2623 1.70628 44.2221 2.59499C45.1819 3.4837 44.542 4.23021 43.9022 5.01228C38.3922 11.4821 38.3922 19.6226 43.9022 26.1635C44.6131 26.9811 45.3241 27.7987 44.2221 28.723C43.1201 29.6472 42.3736 28.723 41.6982 27.9765C38.5344 24.4216 36.9702 20.2625 36.9347 15.2857Z" fill="black"/>
<path d="M36.9347 15.2857C37.0413 10.7711 38.6055 6.61195 41.8048 3.09267C42.4802 2.34615 43.2623 1.70628 44.2221 2.59499C45.1819 3.4837 44.542 4.23021 43.9022 5.01228C38.3922 11.4821 38.3922 19.6226 43.9022 26.1635C44.6131 26.9811 45.3241 27.7987 44.2221 28.723C43.1201 29.6472 42.3736 28.723 41.6982 27.9765C38.5344 24.4216 36.9702 20.2625 36.9347 15.2857Z" fill="url(#paint5_linear_18_824)"/>
<path d="M75.4692 36.9346C80.1971 37.0057 84.3207 38.6409 87.84 41.8047C88.551 42.4446 89.333 43.1911 88.4799 44.1864C87.5556 45.2884 86.738 44.5775 85.9204 43.8665C79.5928 38.3921 71.3456 38.3565 64.8758 43.7243C64.3426 44.1864 63.3828 44.613 62.7784 44.4708C61.5698 44.1509 61.6053 42.9422 62.814 41.8047C66.4044 38.6053 70.5991 36.9701 75.4692 36.9346Z" fill="black"/>
<path d="M75.4692 36.9346C80.1971 37.0057 84.3207 38.6409 87.84 41.8047C88.551 42.4446 89.333 43.1911 88.4799 44.1864C87.5556 45.2884 86.738 44.5775 85.9204 43.8665C79.5928 38.3921 71.3456 38.3565 64.8758 43.7243C64.3426 44.1864 63.3828 44.613 62.7784 44.4708C61.5698 44.1509 61.6053 42.9422 62.814 41.8047C66.4044 38.6053 70.5991 36.9701 75.4692 36.9346Z" fill="url(#paint6_linear_18_824)"/>
<path d="M15.2857 54.0337C10.7711 53.9271 6.61195 52.3274 3.09267 49.1281C2.3817 48.4882 1.59964 47.7417 2.4528 46.7463C3.4126 45.6443 4.19467 46.3908 5.01228 47.0663C11.3399 52.5407 19.5871 52.5763 26.0569 47.2085C26.5901 46.7463 27.5499 46.3198 28.1542 46.4619C29.3629 46.7819 29.2918 48.0261 28.0831 49.1281C24.5638 52.363 20.3336 53.9982 15.2857 54.0337Z" fill="black"/>
<path d="M15.2857 54.0337C10.7711 53.9271 6.61195 52.3274 3.09267 49.1281C2.3817 48.4882 1.59964 47.7417 2.4528 46.7463C3.4126 45.6443 4.19467 46.3908 5.01228 47.0663C11.3399 52.5407 19.5871 52.5763 26.0569 47.2085C26.5901 46.7463 27.5499 46.3198 28.1542 46.4619C29.3629 46.7819 29.2918 48.0261 28.0831 49.1281C24.5638 52.363 20.3336 53.9982 15.2857 54.0337Z" fill="url(#paint7_linear_18_824)"/>
<path d="M75.007 42.6226C78.6329 42.6226 81.5123 43.7601 84.0007 45.9996C84.7117 46.6395 85.316 47.5282 84.4273 48.2036C83.9651 48.5591 82.6854 48.488 82.1522 48.097C77.4954 44.5777 73.194 44.5777 68.5727 48.097C68.0395 48.488 67.0441 48.2392 66.2621 48.3103C66.4398 47.5282 66.3332 46.4973 66.7953 46.0352C69.1059 43.7246 72.0209 42.6937 75.007 42.6226Z" fill="black"/>
<path d="M75.007 42.6226C78.6329 42.6226 81.5123 43.7601 84.0007 45.9996C84.7117 46.6395 85.316 47.5282 84.4273 48.2036C83.9651 48.5591 82.6854 48.488 82.1522 48.097C77.4954 44.5777 73.194 44.5777 68.5727 48.097C68.0395 48.488 67.0441 48.2392 66.2621 48.3103C66.4398 47.5282 66.3332 46.4973 66.7953 46.0352C69.1059 43.7246 72.0209 42.6937 75.007 42.6226Z" fill="url(#paint8_linear_18_824)"/>
<path d="M42.6224 15.6058C42.658 12.2998 43.76 9.45593 45.9284 7.0031C46.5683 6.29213 47.3148 5.68781 48.2035 6.46987C49.1278 7.28748 48.7367 8.10509 48.0613 8.9227C44.542 13.2596 44.5776 17.8809 48.0258 22.3244C48.4524 22.8576 48.5946 24.1374 48.2391 24.564C47.457 25.4882 46.5683 24.8839 45.8929 24.1018C43.7244 21.6845 42.658 18.8051 42.6224 15.6058Z" fill="black"/>
<path d="M42.6224 15.6058C42.658 12.2998 43.76 9.45593 45.9284 7.0031C46.5683 6.29213 47.3148 5.68781 48.2035 6.46987C49.1278 7.28748 48.7367 8.10509 48.0613 8.9227C44.542 13.2596 44.5776 17.8809 48.0258 22.3244C48.4524 22.8576 48.5946 24.1374 48.2391 24.564C47.457 25.4882 46.5683 24.8839 45.8929 24.1018C43.7244 21.6845 42.658 18.8051 42.6224 15.6058Z" fill="url(#paint9_linear_18_824)"/>
<path d="M15.5701 48.3457C12.2997 48.3102 9.45581 47.2082 7.00297 45.0397C6.29201 44.3998 5.68769 43.6889 6.46975 42.7646C7.25181 41.8404 8.10497 42.2314 8.92258 42.9068C13.2595 46.4261 17.8808 46.3905 22.3243 42.9424C22.8575 42.5158 24.1373 42.3736 24.5638 42.7291C25.5236 43.5111 24.8838 44.3998 24.1017 45.0753C21.6844 47.2437 18.8406 48.3102 15.5701 48.3457Z" fill="black"/>
<path d="M15.5701 48.3457C12.2997 48.3102 9.45581 47.2082 7.00297 45.0397C6.29201 44.3998 5.68769 43.6889 6.46975 42.7646C7.25181 41.8404 8.10497 42.2314 8.92258 42.9068C13.2595 46.4261 17.8808 46.3905 22.3243 42.9424C22.8575 42.5158 24.1373 42.3736 24.5638 42.7291C25.5236 43.5111 24.8838 44.3998 24.1017 45.0753C21.6844 47.2437 18.8406 48.3102 15.5701 48.3457Z" fill="url(#paint10_linear_18_824)"/>
<path d="M48.3456 75.0777C48.3456 78.6325 47.2081 81.5475 44.9685 84.0003C44.3287 84.7113 43.4399 85.3156 42.729 84.3914C42.3735 83.9292 42.4446 82.6495 42.8356 82.1518C46.3549 77.495 46.3549 73.1936 42.8356 68.5724C42.4446 68.0391 42.6934 67.0438 42.6223 66.2617C43.4044 66.4395 44.4353 66.3328 44.8974 66.7949C47.2436 69.1056 48.2745 72.0205 48.3456 75.0777Z" fill="black"/>
<path d="M48.3456 75.0777C48.3456 78.6325 47.2081 81.5475 44.9685 84.0003C44.3287 84.7113 43.4399 85.3156 42.729 84.3914C42.3735 83.9292 42.4446 82.6495 42.8356 82.1518C46.3549 77.495 46.3549 73.1936 42.8356 68.5724C42.4446 68.0391 42.6934 67.0438 42.6223 66.2617C43.4044 66.4395 44.4353 66.3328 44.8974 66.7949C47.2436 69.1056 48.2745 72.0205 48.3456 75.0777Z" fill="url(#paint11_linear_18_824)"/>
<path d="M80.7302 51.118C80.8013 52.4333 79.6282 53.2509 78.7039 52.54C76.4644 50.7981 74.4026 50.6559 72.1275 52.4689C71.772 52.7533 70.7055 52.54 70.3145 52.1845C70.0301 51.9356 70.0657 50.9047 70.3501 50.4782C72.2341 47.7054 78.2418 47.6698 80.3391 50.3715C80.5524 50.6204 80.6591 50.9758 80.7302 51.118Z" fill="black"/>
<path d="M80.7302 51.118C80.8013 52.4333 79.6282 53.2509 78.7039 52.54C76.4644 50.7981 74.4026 50.6559 72.1275 52.4689C71.772 52.7533 70.7055 52.54 70.3145 52.1845C70.0301 51.9356 70.0657 50.9047 70.3501 50.4782C72.2341 47.7054 78.2418 47.6698 80.3391 50.3715C80.5524 50.6204 80.6591 50.9758 80.7302 51.118Z" fill="url(#paint12_linear_18_824)"/>
<path d="M43.1201 75.4694C42.3025 77.1757 41.6627 78.7398 40.7384 80.1262C40.454 80.5172 39.352 80.375 38.6055 80.4461C38.6055 79.7707 38.3211 78.882 38.641 78.4199C40.0985 76.3581 40.1696 74.474 38.641 72.4122C38.3211 71.9501 38.6766 70.9903 38.7121 70.2793C39.4231 70.457 40.5251 70.3859 40.8095 70.8125C41.7338 72.1634 42.3381 73.763 43.1201 75.4694Z" fill="black"/>
<path d="M43.1201 75.4694C42.3025 77.1757 41.6627 78.7398 40.7384 80.1262C40.454 80.5172 39.352 80.375 38.6055 80.4461C38.6055 79.7707 38.3211 78.882 38.641 78.4199C40.0985 76.3581 40.1696 74.474 38.641 72.4122C38.3211 71.9501 38.6766 70.9903 38.7121 70.2793C39.4231 70.457 40.5251 70.3859 40.8095 70.8125C41.7338 72.1634 42.3381 73.763 43.1201 75.4694Z" fill="url(#paint13_linear_18_824)"/>
<path d="M47.8479 15.6056C48.6655 13.8637 49.2698 12.3351 50.123 11.0198C50.3718 10.6288 51.4027 10.6999 52.0781 10.5933C52.1492 11.2687 52.5758 12.1929 52.2914 12.584C50.7984 14.7169 50.834 16.672 52.4336 18.7694C52.718 19.1604 52.327 20.0847 52.2203 20.7601C51.5449 20.6179 50.4785 20.7245 50.2296 20.3335C49.3054 18.876 48.63 17.2408 47.8479 15.6056Z" fill="black"/>
<path d="M47.8479 15.6056C48.6655 13.8637 49.2698 12.3351 50.123 11.0198C50.3718 10.6288 51.4027 10.6999 52.0781 10.5933C52.1492 11.2687 52.5758 12.1929 52.2914 12.584C50.7984 14.7169 50.834 16.672 52.4336 18.7694C52.718 19.1604 52.327 20.0847 52.2203 20.7601C51.5449 20.6179 50.4785 20.7245 50.2296 20.3335C49.3054 18.876 48.63 17.2408 47.8479 15.6056Z" fill="url(#paint14_linear_18_824)"/>
<path d="M15.5701 43.1203C13.8638 42.3026 12.2997 41.6628 10.9133 40.7741C10.5578 40.5252 10.7 39.4943 10.5934 38.8189C11.2333 38.7478 12.0864 38.3568 12.4774 38.6412C14.6103 40.1697 16.53 40.2053 18.6273 38.6056C19.0183 38.2857 19.9781 38.6412 20.6536 38.7123C20.5114 39.4232 20.618 40.5252 20.1914 40.8096C18.8406 41.6983 17.2765 42.3026 15.5701 43.1203Z" fill="black"/>
<path d="M15.5701 43.1203C13.8638 42.3026 12.2997 41.6628 10.9133 40.7741C10.5578 40.5252 10.7 39.4943 10.5934 38.8189C11.2333 38.7478 12.0864 38.3568 12.4774 38.6412C14.6103 40.1697 16.53 40.2053 18.6273 38.6056C19.0183 38.2857 19.9781 38.6412 20.6536 38.7123C20.5114 39.4232 20.618 40.5252 20.1914 40.8096C18.8406 41.6983 17.2765 42.3026 15.5701 43.1203Z" fill="url(#paint15_linear_18_824)"/>
<defs>
<linearGradient id="paint0_linear_18_824" x1="-5.71635" y1="-1.20469e-05" x2="26.4522" y2="0.78511" gradientUnits="userSpaceOnUse">
<stop stop-color="#37DADA"/>
<stop offset="1" stop-color="#254DB5"/>
</linearGradient>
<linearGradient id="paint1_linear_18_824" x1="53.9162" y1="-1.20606e-05" x2="86.1618" y2="0.78798" gradientUnits="userSpaceOnUse">
<stop stop-color="#37DADA"/>
<stop offset="1" stop-color="#254DB5"/>
</linearGradient>
<linearGradient id="paint2_linear_18_824" x1="-5.76878" y1="59.7558" x2="26.4731" y2="60.5427" gradientUnits="userSpaceOnUse">
<stop stop-color="#37DADA"/>
<stop offset="1" stop-color="#254DB5"/>
</linearGradient>
<linearGradient id="paint3_linear_18_824" x1="54.0337" y1="59.689" x2="86.239" y2="60.4732" gradientUnits="userSpaceOnUse">
<stop stop-color="#37DADA"/>
<stop offset="1" stop-color="#254DB5"/>
</linearGradient>
<linearGradient id="paint4_linear_18_824" x1="44.665" y1="61.8701" x2="52.7995" y2="61.9279" gradientUnits="userSpaceOnUse">
<stop stop-color="#37DADA"/>
<stop offset="1" stop-color="#254DB5"/>
</linearGradient>
<linearGradient id="paint5_linear_18_824" x1="35.4838" y1="2.16259" x2="43.5973" y2="2.22033" gradientUnits="userSpaceOnUse">
<stop stop-color="#37DADA"/>
<stop offset="1" stop-color="#254DB5"/>
</linearGradient>
<linearGradient id="paint6_linear_18_824" x1="56.911" y1="36.9346" x2="84.5569" y2="39.2603" gradientUnits="userSpaceOnUse">
<stop stop-color="#37DADA"/>
<stop offset="1" stop-color="#254DB5"/>
</linearGradient>
<linearGradient id="paint7_linear_18_824" x1="-2.89536" y1="46.1851" x2="24.7344" y2="48.5002" gradientUnits="userSpaceOnUse">
<stop stop-color="#37DADA"/>
<stop offset="1" stop-color="#254DB5"/>
</linearGradient>
<linearGradient id="paint8_linear_18_824" x1="62.8261" y1="42.6226" x2="81.9249" y2="44.1151" gradientUnits="userSpaceOnUse">
<stop stop-color="#37DADA"/>
<stop offset="1" stop-color="#254DB5"/>
</linearGradient>
<linearGradient id="paint9_linear_18_824" x1="41.4913" y1="6.10253" x2="47.8165" y2="6.15249" gradientUnits="userSpaceOnUse">
<stop stop-color="#37DADA"/>
<stop offset="1" stop-color="#254DB5"/>
</linearGradient>
<linearGradient id="paint10_linear_18_824" x1="2.60458" y1="42.2197" x2="22.055" y2="43.6877" gradientUnits="userSpaceOnUse">
<stop stop-color="#37DADA"/>
<stop offset="1" stop-color="#254DB5"/>
</linearGradient>
<linearGradient id="paint11_linear_18_824" x1="41.4188" y1="66.2617" x2="47.4561" y2="66.308" gradientUnits="userSpaceOnUse">
<stop stop-color="#37DADA"/>
<stop offset="1" stop-color="#254DB5"/>
</linearGradient>
<linearGradient id="paint12_linear_18_824" x1="68.1582" y1="48.3716" x2="79.0817" y2="49.0102" gradientUnits="userSpaceOnUse">
<stop stop-color="#37DADA"/>
<stop offset="1" stop-color="#254DB5"/>
</linearGradient>
<linearGradient id="paint13_linear_18_824" x1="37.6339" y1="70.2793" x2="42.4153" y2="70.3325" gradientUnits="userSpaceOnUse">
<stop stop-color="#37DADA"/>
<stop offset="1" stop-color="#254DB5"/>
</linearGradient>
<linearGradient id="paint14_linear_18_824" x1="46.9824" y1="10.5933" x2="51.8219" y2="10.6477" gradientUnits="userSpaceOnUse">
<stop stop-color="#37DADA"/>
<stop offset="1" stop-color="#254DB5"/>
</linearGradient>
<linearGradient id="paint15_linear_18_824" x1="8.73587" y1="38.4741" x2="19.0948" y2="39.0216" gradientUnits="userSpaceOnUse">
<stop stop-color="#37DADA"/>
<stop offset="1" stop-color="#254DB5"/>
</linearGradient>
</defs>
</svg>
