<svg width="122" height="91" viewBox="0 0 122 91" fill="none" xmlns="http://www.w3.org/2000/svg">
<path d="M88.3738 76.1446C87.7263 78.3249 86.1539 79.4846 84.0727 80.2268C82.0841 80.9226 80.1878 81.804 78.2454 82.5927C76.1643 83.474 74.2681 83.2421 72.5569 81.7577C72.3257 81.5721 71.817 81.5721 71.4932 81.7113C67.1459 83.6132 62.8448 85.5616 58.4975 87.4635C54.474 89.2263 50.4041 88.3913 47.6755 85.2832C46.288 83.6596 45.7793 81.7113 45.3631 79.6701C43.4207 69.5573 41.4783 59.4445 39.5358 49.3317C38.2409 42.6052 36.9922 35.8788 35.651 29.1524C35.5585 28.6421 35.2348 28.0854 34.8186 27.7607C32.2749 25.5804 29.685 23.4001 27.0489 21.2662C26.4476 20.7559 25.7077 20.3848 24.9677 20.1529C18.0305 18.0654 11.0471 16.0243 4.10986 13.9831C0.82625 13.009 -0.653709 10.3184 0.271251 7.02477C0.548739 5.95782 0.872476 4.93726 1.19621 3.87031C2.12117 0.855012 4.89605 -0.62944 7.90218 0.251954C12.7582 1.64363 17.568 3.08169 22.4241 4.51975C24.6902 5.1692 26.9101 5.95782 29.1763 6.51449C31.5812 7.07116 33.5698 8.27727 35.466 9.90089C39.9983 13.7512 44.6231 17.4623 49.2017 21.2198C49.2479 21.2662 49.3404 21.3126 49.4792 21.4054C50.1729 20.6168 50.8666 19.8282 51.5603 18.9932C53.9652 16.1634 56.9714 15.9315 59.7925 18.3901C64.6948 22.6579 69.597 26.9257 74.5456 31.1935C77.1817 33.513 77.4592 36.5283 75.1468 39.1724C74.5456 39.8219 74.4994 40.3322 74.8231 41.1208C79.1242 51.6047 83.4252 62.0887 87.68 72.619C87.865 73.1293 88.0963 73.5932 88.3275 74.1034C88.3738 74.7529 88.3738 75.4487 88.3738 76.1446ZM37.5934 25.766C37.9172 26.4154 38.3334 26.8793 38.4259 27.436C40.1371 36.2035 41.802 45.0175 43.4669 53.785C45.1319 62.5526 46.843 71.3665 48.508 80.134C48.7855 81.4793 49.2942 82.7318 50.3117 83.6596C52.3466 85.5152 54.7052 85.7935 57.2026 84.6802C62.1049 82.5463 66.9609 80.366 71.8632 78.1857C73.0194 77.6754 73.5744 77.861 74.2219 78.9279C74.8693 79.9949 75.7018 80.2732 76.858 79.8093C79.1241 78.8815 81.3903 77.9537 83.6102 77.026C85.3677 76.2837 85.6914 75.4487 84.9977 73.6859C83.2403 69.4181 81.5291 65.1503 79.7716 60.9289C76.9967 54.1561 74.2681 47.3833 71.4932 40.6569C71.1232 39.7291 71.1695 38.9869 71.8632 38.291C72.2332 37.9199 72.5569 37.5024 72.8807 37.1313C74.0369 35.7396 73.9906 34.5799 72.6494 33.3738C67.6546 29.0132 62.6136 24.6526 57.5726 20.2921C56.3239 19.2251 55.1214 19.3179 54.0577 20.5704C53.0865 21.6837 52.1153 22.8435 51.0978 23.9568C50.0804 25.1165 49.4792 25.1629 48.2767 24.1424C46.5193 22.7043 44.8081 21.2198 43.0044 19.7818C41.1545 21.9157 39.3046 23.9104 37.5934 25.766ZM40.7845 17.9726C40.5995 17.8798 40.5071 17.787 40.4146 17.7407C37.5009 15.3748 34.6335 13.009 31.7199 10.6431C31.3499 10.3184 30.8412 10.0864 30.3325 9.94728C27.9276 9.20505 25.5689 8.50922 23.164 7.81338C17.8918 6.23615 12.6195 4.70531 7.30099 3.12808C5.58981 2.6178 4.57235 3.17447 4.06362 4.84448C3.73989 5.81865 3.46239 6.83921 3.1849 7.81338C2.72242 9.48339 3.32361 10.5503 4.94229 11.0606C11.972 13.1481 19.048 15.1893 26.0777 17.3232C27.0489 17.6015 28.0201 18.1582 28.8526 18.8076C30.98 20.4776 33.0149 22.2404 35.096 24.0032C35.1885 23.9104 35.281 23.864 35.3735 23.7712C37.1309 21.8693 38.8883 19.9673 40.7845 17.9726Z" fill="black"/>
<path d="M88.3738 76.1446C87.7263 78.3249 86.1539 79.4846 84.0727 80.2268C82.0841 80.9226 80.1878 81.804 78.2454 82.5927C76.1643 83.474 74.2681 83.2421 72.5569 81.7577C72.3257 81.5721 71.817 81.5721 71.4932 81.7113C67.1459 83.6132 62.8448 85.5616 58.4975 87.4635C54.474 89.2263 50.4041 88.3913 47.6755 85.2832C46.288 83.6596 45.7793 81.7113 45.3631 79.6701C43.4207 69.5573 41.4783 59.4445 39.5358 49.3317C38.2409 42.6052 36.9922 35.8788 35.651 29.1524C35.5585 28.6421 35.2348 28.0854 34.8186 27.7607C32.2749 25.5804 29.685 23.4001 27.0489 21.2662C26.4476 20.7559 25.7077 20.3848 24.9677 20.1529C18.0305 18.0654 11.0471 16.0243 4.10986 13.9831C0.82625 13.009 -0.653709 10.3184 0.271251 7.02477C0.548739 5.95782 0.872476 4.93726 1.19621 3.87031C2.12117 0.855012 4.89605 -0.62944 7.90218 0.251954C12.7582 1.64363 17.568 3.08169 22.4241 4.51975C24.6902 5.1692 26.9101 5.95782 29.1763 6.51449C31.5812 7.07116 33.5698 8.27727 35.466 9.90089C39.9983 13.7512 44.6231 17.4623 49.2017 21.2198C49.2479 21.2662 49.3404 21.3126 49.4792 21.4054C50.1729 20.6168 50.8666 19.8282 51.5603 18.9932C53.9652 16.1634 56.9714 15.9315 59.7925 18.3901C64.6948 22.6579 69.597 26.9257 74.5456 31.1935C77.1817 33.513 77.4592 36.5283 75.1468 39.1724C74.5456 39.8219 74.4994 40.3322 74.8231 41.1208C79.1242 51.6047 83.4252 62.0887 87.68 72.619C87.865 73.1293 88.0963 73.5932 88.3275 74.1034C88.3738 74.7529 88.3738 75.4487 88.3738 76.1446ZM37.5934 25.766C37.9172 26.4154 38.3334 26.8793 38.4259 27.436C40.1371 36.2035 41.802 45.0175 43.4669 53.785C45.1319 62.5526 46.843 71.3665 48.508 80.134C48.7855 81.4793 49.2942 82.7318 50.3117 83.6596C52.3466 85.5152 54.7052 85.7935 57.2026 84.6802C62.1049 82.5463 66.9609 80.366 71.8632 78.1857C73.0194 77.6754 73.5744 77.861 74.2219 78.9279C74.8693 79.9949 75.7018 80.2732 76.858 79.8093C79.1241 78.8815 81.3903 77.9537 83.6102 77.026C85.3677 76.2837 85.6914 75.4487 84.9977 73.6859C83.2403 69.4181 81.5291 65.1503 79.7716 60.9289C76.9967 54.1561 74.2681 47.3833 71.4932 40.6569C71.1232 39.7291 71.1695 38.9869 71.8632 38.291C72.2332 37.9199 72.5569 37.5024 72.8807 37.1313C74.0369 35.7396 73.9906 34.5799 72.6494 33.3738C67.6546 29.0132 62.6136 24.6526 57.5726 20.2921C56.3239 19.2251 55.1214 19.3179 54.0577 20.5704C53.0865 21.6837 52.1153 22.8435 51.0978 23.9568C50.0804 25.1165 49.4792 25.1629 48.2767 24.1424C46.5193 22.7043 44.8081 21.2198 43.0044 19.7818C41.1545 21.9157 39.3046 23.9104 37.5934 25.766ZM40.7845 17.9726C40.5995 17.8798 40.5071 17.787 40.4146 17.7407C37.5009 15.3748 34.6335 13.009 31.7199 10.6431C31.3499 10.3184 30.8412 10.0864 30.3325 9.94728C27.9276 9.20505 25.5689 8.50922 23.164 7.81338C17.8918 6.23615 12.6195 4.70531 7.30099 3.12808C5.58981 2.6178 4.57235 3.17447 4.06362 4.84448C3.73989 5.81865 3.46239 6.83921 3.1849 7.81338C2.72242 9.48339 3.32361 10.5503 4.94229 11.0606C11.972 13.1481 19.048 15.1893 26.0777 17.3232C27.0489 17.6015 28.0201 18.1582 28.8526 18.8076C30.98 20.4776 33.0149 22.2404 35.096 24.0032C35.1885 23.9104 35.281 23.864 35.3735 23.7712C37.1309 21.8693 38.8883 19.9673 40.7845 17.9726Z" fill="url(#paint0_linear_18_822)"/>
<path d="M10.3534 50.8155C4.24868 50.7691 -0.376157 45.991 0.0863231 39.8677C0.225067 38.244 0.872585 36.574 1.52006 34.9968C3.04624 31.3784 5.17364 28.1312 7.57854 25.0695C9.33596 22.8428 11.3709 22.8429 13.1283 25.1159C15.9494 28.7807 18.4468 32.631 19.973 37.0379C22.1466 43.2077 18.7706 49.1919 12.4346 50.5835C11.6946 50.7227 11.0009 50.7227 10.3534 50.8155ZM10.3997 26.322C7.85602 29.1518 4.66489 34.5793 3.50869 37.8265C2.95371 39.3574 2.76874 40.8882 3.18498 42.4654C4.10994 45.8982 6.93107 47.8002 10.8159 47.7538C15.117 47.661 18.4468 43.4396 17.4756 39.2182C16.8744 36.6204 15.6257 34.2546 14.2383 32.0279C13.0358 30.1259 11.7408 28.2704 10.3997 26.322Z" fill="black"/>
<path d="M10.3534 50.8155C4.24868 50.7691 -0.376157 45.991 0.0863231 39.8677C0.225067 38.244 0.872585 36.574 1.52006 34.9968C3.04624 31.3784 5.17364 28.1312 7.57854 25.0695C9.33596 22.8428 11.3709 22.8429 13.1283 25.1159C15.9494 28.7807 18.4468 32.631 19.973 37.0379C22.1466 43.2077 18.7706 49.1919 12.4346 50.5835C11.6946 50.7227 11.0009 50.7227 10.3534 50.8155ZM10.3997 26.322C7.85602 29.1518 4.66489 34.5793 3.50869 37.8265C2.95371 39.3574 2.76874 40.8882 3.18498 42.4654C4.10994 45.8982 6.93107 47.8002 10.8159 47.7538C15.117 47.661 18.4468 43.4396 17.4756 39.2182C16.8744 36.6204 15.6257 34.2546 14.2383 32.0279C13.0358 30.1259 11.7408 28.2704 10.3997 26.322Z" fill="url(#paint1_linear_18_822)"/>
<path d="M57.2489 46.1772C60.9025 46.1772 63.5386 48.0792 64.5561 51.0481C66.1285 55.6406 67.6547 60.2795 69.2271 64.8721C69.9671 67.0987 70.7533 69.3254 71.4933 71.5985C71.9558 72.9902 71.7246 73.5468 70.4296 74.1499C65.9898 76.1446 61.5037 78.093 57.0639 80.0877C54.659 81.1546 52.4854 79.9485 52.0691 77.3507C51.0979 71.0418 50.173 64.7793 49.248 58.4704C49.063 57.2179 48.878 55.9654 48.693 54.7128C48.1843 51.1873 50.3117 47.8009 53.734 46.8731C55.029 46.5484 56.4165 46.3628 57.2489 46.1772ZM62.0587 74.6138C60.3013 69.3718 58.4976 64.3154 56.9252 59.2126C56.0465 56.3365 54.0116 54.6665 51.5142 52.9501C51.5604 53.7851 51.5604 54.4809 51.6529 55.1303C52.4853 60.697 53.3178 66.2637 54.1503 71.8768C54.3815 73.5004 54.6128 75.1241 54.8902 76.7477C54.9365 77.1188 54.9365 77.7682 55.6303 77.4435C57.7577 76.4693 59.885 75.5416 62.0587 74.6138ZM53.2716 50.3987C54.0578 51.0017 54.7515 51.6048 55.4453 52.1614C57.4802 53.6923 58.8214 55.6406 59.6076 58.0529C60.9025 62.0887 62.2899 66.1246 63.6774 70.1604C64.0474 71.2274 64.4173 72.2943 64.7873 73.4077C66.036 72.851 67.1923 72.3407 68.3485 71.8304C68.256 71.5521 68.2097 71.3665 68.1635 71.1346C66.0823 64.9184 63.9549 58.6559 61.8737 52.4398C61.0413 49.9812 59.3763 48.9606 56.8327 49.3781C55.6302 49.5173 54.3353 49.5173 53.2716 50.3987Z" fill="black"/>
<path d="M57.2489 46.1772C60.9025 46.1772 63.5386 48.0792 64.5561 51.0481C66.1285 55.6406 67.6547 60.2795 69.2271 64.8721C69.9671 67.0987 70.7533 69.3254 71.4933 71.5985C71.9558 72.9902 71.7246 73.5468 70.4296 74.1499C65.9898 76.1446 61.5037 78.093 57.0639 80.0877C54.659 81.1546 52.4854 79.9485 52.0691 77.3507C51.0979 71.0418 50.173 64.7793 49.248 58.4704C49.063 57.2179 48.878 55.9654 48.693 54.7128C48.1843 51.1873 50.3117 47.8009 53.734 46.8731C55.029 46.5484 56.4165 46.3628 57.2489 46.1772ZM62.0587 74.6138C60.3013 69.3718 58.4976 64.3154 56.9252 59.2126C56.0465 56.3365 54.0116 54.6665 51.5142 52.9501C51.5604 53.7851 51.5604 54.4809 51.6529 55.1303C52.4853 60.697 53.3178 66.2637 54.1503 71.8768C54.3815 73.5004 54.6128 75.1241 54.8902 76.7477C54.9365 77.1188 54.9365 77.7682 55.6303 77.4435C57.7577 76.4693 59.885 75.5416 62.0587 74.6138ZM53.2716 50.3987C54.0578 51.0017 54.7515 51.6048 55.4453 52.1614C57.4802 53.6923 58.8214 55.6406 59.6076 58.0529C60.9025 62.0887 62.2899 66.1246 63.6774 70.1604C64.0474 71.2274 64.4173 72.2943 64.7873 73.4077C66.036 72.851 67.1923 72.3407 68.3485 71.8304C68.256 71.5521 68.2097 71.3665 68.1635 71.1346C66.0823 64.9184 63.9549 58.6559 61.8737 52.4398C61.0413 49.9812 59.3763 48.9606 56.8327 49.3781C55.6302 49.5173 54.3353 49.5173 53.2716 50.3987Z" fill="url(#paint2_linear_18_822)"/>
<path d="M45.085 35.2295C45.6862 35.2295 46.195 35.6934 46.38 36.4356C47.0737 39.3581 47.7674 42.2806 48.4611 45.2495C48.6461 46.0382 48.1374 46.7804 47.4436 47.0123C46.6574 47.2443 45.8249 46.8268 45.6399 45.9918C44.9 43.0229 44.2063 40.054 43.5588 37.0851C43.2813 36.0181 43.9288 35.2759 45.085 35.2295Z" fill="black"/>
<path d="M45.085 35.2295C45.6862 35.2295 46.195 35.6934 46.38 36.4356C47.0737 39.3581 47.7674 42.2806 48.4611 45.2495C48.6461 46.0382 48.1374 46.7804 47.4436 47.0123C46.6574 47.2443 45.8249 46.8268 45.6399 45.9918C44.9 43.0229 44.2063 40.054 43.5588 37.0851C43.2813 36.0181 43.9288 35.2759 45.085 35.2295Z" fill="url(#paint3_linear_18_822)"/>
<path d="M43.1897 33.3271C42.5884 33.2344 42.0797 32.9096 41.8947 32.2138C41.6172 31.2396 41.3397 30.2191 41.1085 29.2449C40.9235 28.5027 41.4322 27.7141 42.1722 27.5285C42.9121 27.3429 43.6984 27.7141 43.9758 28.5027C44.2996 29.5232 44.5771 30.5902 44.7621 31.6571C44.9471 32.5385 44.1609 33.3735 43.1897 33.3271Z" fill="black"/>
<path d="M43.1897 33.3271C42.5884 33.2344 42.0797 32.9096 41.8947 32.2138C41.6172 31.2396 41.3397 30.2191 41.1085 29.2449C40.9235 28.5027 41.4322 27.7141 42.1722 27.5285C42.9121 27.3429 43.6984 27.7141 43.9758 28.5027C44.2996 29.5232 44.5771 30.5902 44.7621 31.6571C44.9471 32.5385 44.1609 33.3735 43.1897 33.3271Z" fill="url(#paint4_linear_18_822)"/>
<path d="M81.3502 91.0001C84.6327 90.9557 87.9162 90.9616 91.2254 90.9683L94.7142 90.9723C94.8349 90.5939 94.9517 90.2201 95.0674 89.8497C95.431 88.6846 95.784 87.5534 96.2137 86.4414C96.4136 85.9415 96.9135 85.5087 97.38 85.2086C99.9125 83.4766 102.378 83.843 104.711 85.6421C104.877 85.7749 105.111 85.9083 105.277 85.9083C105.378 85.8997 105.492 85.8977 105.609 85.8957C105.956 85.889 106.336 85.8824 106.51 85.7085C109.676 82.6102 112.841 79.4456 115.94 76.2809C116.174 76.0479 116.24 75.3814 116.107 75.0481C115.744 74.2362 115.325 73.4376 114.905 72.6356C114.67 72.1875 114.435 71.7381 114.208 71.284C113.774 70.4847 115.507 66.3203 116.374 66.0202C116.393 66.0103 116.412 66.0023 116.431 65.995C116.454 65.9857 116.477 65.9784 116.499 65.9724C116.526 65.9651 116.552 65.9591 116.578 65.9538L116.624 65.9452L116.672 65.9352L116.705 65.9293L116.74 65.9206C117.688 65.59 118.65 65.274 119.627 64.9534C120.127 64.7894 120.631 64.6241 121.139 64.4548C121.139 59.6577 121.139 54.927 121.105 50.197C121.072 49.8969 120.672 49.4641 120.339 49.3306C119.774 49.1282 119.203 48.9503 118.634 48.7737L118.622 48.7697L118.611 48.7657L118.601 48.7617L118.591 48.7577L118.581 48.7557C117.859 48.5314 117.139 48.3076 116.44 48.0315C116.04 47.898 115.607 47.4984 115.441 47.0987C115.375 46.956 115.305 46.8126 115.233 46.6685L115.083 46.3745L114.987 46.1906C114.494 45.2392 113.991 44.2673 114.041 43.3346C114.109 42.4676 114.632 41.6159 115.157 40.7582L115.163 40.7502C115.294 40.5351 115.426 40.3193 115.551 40.1036C115.653 39.9263 115.751 39.7484 115.84 39.5698C115.85 39.5473 115.861 39.5254 115.872 39.5035C115.902 39.445 115.936 39.3879 115.971 39.3322C116.057 39.1914 116.14 39.0547 116.14 38.904C116.14 38.5707 116.14 38.0708 115.94 37.871C112.808 34.6732 109.609 31.4747 106.41 28.3432C106.177 28.1102 105.511 28.0438 105.177 28.2104C104.423 28.5364 103.68 28.9248 102.935 29.3151L102.929 29.3191C102.459 29.5647 101.988 29.8104 101.512 30.0427C101.179 30.1755 100.712 30.2757 100.379 30.1423C96.4255 28.7136 96.4137 28.6765 95.1587 24.7145L95.1474 24.6787L95.1171 24.593L95.0733 24.4795L95.027 24.358L95.0047 24.2943C94.988 24.2458 94.9732 24.1974 94.9616 24.1489C94.9561 24.1257 94.9513 24.1024 94.9475 24.0792C94.8475 23.3131 94.4476 23.1133 93.6812 23.1133C90.9582 23.1631 88.2539 23.1571 85.5402 23.1505C84.6343 23.1485 83.7273 23.1465 82.8182 23.1465H82.7165C79.7793 23.1465 79.556 23.1458 78.8567 25.8378C79.8631 27.2146 80.8104 28.6499 81.694 30.139C81.932 29.4585 82.1401 28.7674 82.3184 28.077C82.485 27.4105 82.7849 27.1443 83.518 27.1443C85.9172 27.1775 88.3497 27.1775 90.7489 27.1443C91.482 27.1443 91.8152 27.3773 91.9152 28.077C92.2817 30.8752 93.7146 32.6072 96.6136 33.0407C97.4133 33.1403 98.2464 33.5399 98.8795 34.0398C100.212 35.0396 101.345 34.8059 102.712 34.0066C105.023 32.653 105.109 32.7393 106.928 34.557L106.977 34.6061C107.519 35.1339 108.055 35.6736 108.592 36.2153L108.602 36.2253L108.607 36.2306C109.321 36.9496 110.037 37.6705 110.775 38.3709C111.309 38.8701 111.575 39.3368 111.075 39.9695C109.343 42.2014 109.209 44.4672 110.909 46.7987C111.275 47.2986 111.542 47.9983 111.608 48.6309C111.875 50.6962 113.108 51.629 115.007 51.8958C115.107 51.9124 115.207 51.9542 115.307 51.9961C115.354 52.0153 115.4 52.0346 115.446 52.0512C115.5 52.0704 115.554 52.087 115.607 52.0956C116.773 52.2623 117.207 52.8617 117.14 54.0945C117.026 55.9507 117.058 57.8062 117.091 59.6624L117.107 60.5905C117.107 61.3234 116.973 61.7901 116.174 61.8897C113.308 62.2229 111.609 63.7551 111.175 66.6867C111.075 67.3194 110.775 67.9859 110.376 68.4858C109.176 70.018 109.476 71.4174 110.409 72.9828C111.596 74.9612 111.51 75.0468 109.958 76.5983L109.909 76.6474C109.243 77.3298 108.568 78.0043 107.893 78.6788C107.219 79.354 106.544 80.0284 105.877 80.7116C105.377 81.2115 104.911 81.4777 104.278 80.9778C102.045 79.2457 99.7792 79.1123 97.4466 80.8118C97.0134 81.1112 96.447 81.3442 95.9471 81.4113C93.6146 81.7107 92.4816 83.0769 92.2151 85.2756C92.0151 86.8078 91.1487 87.1079 89.7492 87.0409C87.7267 86.9698 85.6873 86.9838 83.74 86.997H83.65L83.5692 86.9977C82.88 88.3712 82.1393 89.7063 81.3502 91.0001Z" fill="black"/>
<path d="M81.3502 91.0001C84.6327 90.9557 87.9162 90.9616 91.2254 90.9683L94.7142 90.9723C94.8349 90.5939 94.9517 90.2201 95.0674 89.8497C95.431 88.6846 95.784 87.5534 96.2137 86.4414C96.4136 85.9415 96.9135 85.5087 97.38 85.2086C99.9125 83.4766 102.378 83.843 104.711 85.6421C104.877 85.7749 105.111 85.9083 105.277 85.9083C105.378 85.8997 105.492 85.8977 105.609 85.8957C105.956 85.889 106.336 85.8824 106.51 85.7085C109.676 82.6102 112.841 79.4456 115.94 76.2809C116.174 76.0479 116.24 75.3814 116.107 75.0481C115.744 74.2362 115.325 73.4376 114.905 72.6356C114.67 72.1875 114.435 71.7381 114.208 71.284C113.774 70.4847 115.507 66.3203 116.374 66.0202C116.393 66.0103 116.412 66.0023 116.431 65.995C116.454 65.9857 116.477 65.9784 116.499 65.9724C116.526 65.9651 116.552 65.9591 116.578 65.9538L116.624 65.9452L116.672 65.9352L116.705 65.9293L116.74 65.9206C117.688 65.59 118.65 65.274 119.627 64.9534C120.127 64.7894 120.631 64.6241 121.139 64.4548C121.139 59.6577 121.139 54.927 121.105 50.197C121.072 49.8969 120.672 49.4641 120.339 49.3306C119.774 49.1282 119.203 48.9503 118.634 48.7737L118.622 48.7697L118.611 48.7657L118.601 48.7617L118.591 48.7577L118.581 48.7557C117.859 48.5314 117.139 48.3076 116.44 48.0315C116.04 47.898 115.607 47.4984 115.441 47.0987C115.375 46.956 115.305 46.8126 115.233 46.6685L115.083 46.3745L114.987 46.1906C114.494 45.2392 113.991 44.2673 114.041 43.3346C114.109 42.4676 114.632 41.6159 115.157 40.7582L115.163 40.7502C115.294 40.5351 115.426 40.3193 115.551 40.1036C115.653 39.9263 115.751 39.7484 115.84 39.5698C115.85 39.5473 115.861 39.5254 115.872 39.5035C115.902 39.445 115.936 39.3879 115.971 39.3322C116.057 39.1914 116.14 39.0547 116.14 38.904C116.14 38.5707 116.14 38.0708 115.94 37.871C112.808 34.6732 109.609 31.4747 106.41 28.3432C106.177 28.1102 105.511 28.0438 105.177 28.2104C104.423 28.5364 103.68 28.9248 102.935 29.3151L102.929 29.3191C102.459 29.5647 101.988 29.8104 101.512 30.0427C101.179 30.1755 100.712 30.2757 100.379 30.1423C96.4255 28.7136 96.4137 28.6765 95.1587 24.7145L95.1474 24.6787L95.1171 24.593L95.0733 24.4795L95.027 24.358L95.0047 24.2943C94.988 24.2458 94.9732 24.1974 94.9616 24.1489C94.9561 24.1257 94.9513 24.1024 94.9475 24.0792C94.8475 23.3131 94.4476 23.1133 93.6812 23.1133C90.9582 23.1631 88.2539 23.1571 85.5402 23.1505C84.6343 23.1485 83.7273 23.1465 82.8182 23.1465H82.7165C79.7793 23.1465 79.556 23.1458 78.8567 25.8378C79.8631 27.2146 80.8104 28.6499 81.694 30.139C81.932 29.4585 82.1401 28.7674 82.3184 28.077C82.485 27.4105 82.7849 27.1443 83.518 27.1443C85.9172 27.1775 88.3497 27.1775 90.7489 27.1443C91.482 27.1443 91.8152 27.3773 91.9152 28.077C92.2817 30.8752 93.7146 32.6072 96.6136 33.0407C97.4133 33.1403 98.2464 33.5399 98.8795 34.0398C100.212 35.0396 101.345 34.8059 102.712 34.0066C105.023 32.653 105.109 32.7393 106.928 34.557L106.977 34.6061C107.519 35.1339 108.055 35.6736 108.592 36.2153L108.602 36.2253L108.607 36.2306C109.321 36.9496 110.037 37.6705 110.775 38.3709C111.309 38.8701 111.575 39.3368 111.075 39.9695C109.343 42.2014 109.209 44.4672 110.909 46.7987C111.275 47.2986 111.542 47.9983 111.608 48.6309C111.875 50.6962 113.108 51.629 115.007 51.8958C115.107 51.9124 115.207 51.9542 115.307 51.9961C115.354 52.0153 115.4 52.0346 115.446 52.0512C115.5 52.0704 115.554 52.087 115.607 52.0956C116.773 52.2623 117.207 52.8617 117.14 54.0945C117.026 55.9507 117.058 57.8062 117.091 59.6624L117.107 60.5905C117.107 61.3234 116.973 61.7901 116.174 61.8897C113.308 62.2229 111.609 63.7551 111.175 66.6867C111.075 67.3194 110.775 67.9859 110.376 68.4858C109.176 70.018 109.476 71.4174 110.409 72.9828C111.596 74.9612 111.51 75.0468 109.958 76.5983L109.909 76.6474C109.243 77.3298 108.568 78.0043 107.893 78.6788C107.219 79.354 106.544 80.0284 105.877 80.7116C105.377 81.2115 104.911 81.4777 104.278 80.9778C102.045 79.2457 99.7792 79.1123 97.4466 80.8118C97.0134 81.1112 96.447 81.3442 95.9471 81.4113C93.6146 81.7107 92.4816 83.0769 92.2151 85.2756C92.0151 86.8078 91.1487 87.1079 89.7492 87.0409C87.7267 86.9698 85.6873 86.9838 83.74 86.997H83.65L83.5692 86.9977C82.88 88.3712 82.1393 89.7063 81.3502 91.0001Z" fill="url(#paint5_linear_18_822)"/>
<path d="M86.8327 79.0459H87.0835C100.046 79.0127 110.109 68.0523 109.043 55.1607C107.96 42.2519 96.1022 33.8201 84.3782 35.2514C84.954 36.5001 85.488 37.7781 85.9782 39.0832C95.6174 38.4652 104.741 45.7956 105.111 56.426C105.474 66.1464 97.7646 74.4885 88.0068 74.9399C87.6625 76.3327 87.2704 77.7016 86.8327 79.0459Z" fill="black"/>
<path d="M86.8327 79.0459H87.0835C100.046 79.0127 110.109 68.0523 109.043 55.1607C107.96 42.2519 96.1022 33.8201 84.3782 35.2514C84.954 36.5001 85.488 37.7781 85.9782 39.0832C95.6174 38.4652 104.741 45.7956 105.111 56.426C105.474 66.1464 97.7646 74.4885 88.0068 74.9399C87.6625 76.3327 87.2704 77.7016 86.8327 79.0459Z" fill="url(#paint6_linear_18_822)"/>
<defs>
<linearGradient id="paint0_linear_18_822" x1="-16.3174" y1="-3.41531e-05" x2="74.881" y2="2.2258" gradientUnits="userSpaceOnUse">
<stop stop-color="#37DADA"/>
<stop offset="1" stop-color="#254DB5"/>
</linearGradient>
<linearGradient id="paint1_linear_18_822" x1="-3.74508" y1="23.4053" x2="17.4961" y2="23.7945" gradientUnits="userSpaceOnUse">
<stop stop-color="#37DADA"/>
<stop offset="1" stop-color="#254DB5"/>
</linearGradient>
<linearGradient id="paint2_linear_18_822" x1="44.354" y1="46.1772" x2="68.1942" y2="46.569" gradientUnits="userSpaceOnUse">
<stop stop-color="#37DADA"/>
<stop offset="1" stop-color="#254DB5"/>
</linearGradient>
<linearGradient id="paint3_linear_18_822" x1="42.5708" y1="35.2295" x2="47.7379" y2="35.2828" gradientUnits="userSpaceOnUse">
<stop stop-color="#37DADA"/>
<stop offset="1" stop-color="#254DB5"/>
</linearGradient>
<linearGradient id="paint4_linear_18_822" x1="40.3836" y1="27.4814" x2="44.2228" y2="27.541" gradientUnits="userSpaceOnUse">
<stop stop-color="#37DADA"/>
<stop offset="1" stop-color="#254DB5"/>
</linearGradient>
<linearGradient id="paint5_linear_18_822" x1="-25.5394" y1="-24.691" x2="102.234" y2="-21.5701" gradientUnits="userSpaceOnUse">
<stop stop-color="#37DADA"/>
<stop offset="1" stop-color="#254DB5"/>
</linearGradient>
<linearGradient id="paint6_linear_18_822" x1="-25.5394" y1="-24.691" x2="102.234" y2="-21.5701" gradientUnits="userSpaceOnUse">
<stop stop-color="#37DADA"/>
<stop offset="1" stop-color="#254DB5"/>
</linearGradient>
</defs>
</svg>
