<svg width="91" height="91" viewBox="0 0 91 91" fill="none" xmlns="http://www.w3.org/2000/svg">
<path d="M0.036683 28.4371C0.421854 27.7402 0.715319 26.9882 1.1922 26.3829C1.96254 25.4108 3.04469 24.9156 4.29191 24.8972C4.80547 24.8972 5.0806 24.7505 5.31903 24.292C7.26323 20.3485 9.24412 16.4235 11.225 12.48C11.4268 12.0949 11.5001 11.8014 11.1883 11.3612C9.90441 9.58208 10.0511 7.3811 11.4818 5.82207C12.8391 4.33641 15.0584 3.96958 16.8375 4.96002C18.69 5.98715 19.4787 8.00471 18.9101 10.114C18.8367 10.3891 18.8917 10.8293 19.0752 11.0494C20.7626 13.232 22.4683 15.378 24.1924 17.5239C24.3392 17.7074 24.6693 17.8908 24.8711 17.8541C26.7052 17.5056 26.7052 17.4873 28.3376 17.9458C28.4843 17.7074 28.6678 17.4322 28.8145 17.1571C29.7499 15.5431 30.6486 13.9107 31.6207 12.3333C32.2627 11.3062 32.6112 10.3524 32.3361 9.05018C31.9142 7.05095 33.73 4.84997 35.8026 4.4648C38.0953 4.04295 40.3696 5.38188 40.8649 7.6012C41.0666 8.55496 41.4885 8.92179 42.3689 9.08686C43.2126 9.25193 44.0563 9.47203 44.8266 9.82052C45.6887 10.2057 46.1656 9.93057 46.7158 9.23359C50.7693 4.22636 56.0333 1.14499 62.4161 0.264598C70.8165 -0.872575 78.0981 1.65855 83.9857 7.80295C88.8279 12.8469 91.1573 18.9913 90.7904 25.9794C90.2952 35.0768 85.9483 41.9365 78.0981 46.5769C75.9155 47.8608 73.5678 48.7228 71.0733 49.2181C70.5414 49.3281 70.3213 49.5299 70.358 50.0985C70.413 50.9238 70.3763 51.7492 70.3763 52.6663C71.3484 52.6663 72.2655 52.6663 73.2009 52.6663C73.2193 53.0331 73.256 53.2899 73.256 53.5467C73.256 63.3777 73.2743 73.2087 73.256 83.0398C73.256 86.8365 71.2751 89.5143 67.8085 90.5231C63.535 91.7703 58.8946 88.5239 58.6928 84.0669C58.5644 81.4624 58.6194 78.8579 58.6194 76.2534C58.6194 68.7701 58.6194 61.2684 58.6194 53.7851C58.6194 53.455 58.6194 53.1431 58.6194 52.7213C59.6099 52.7213 60.5086 52.7213 61.4807 52.7213C61.4807 51.5658 61.4807 50.5203 61.4807 49.4198C53.3004 47.6774 47.101 43.147 43.4877 35.5536C39.8744 27.9603 40.2779 20.3302 44.1847 12.7552C42.8824 12.3516 41.6169 11.9665 40.3696 11.5996C40.2229 11.563 39.9845 11.6914 39.8377 11.8014C38.0586 13.2687 37.0315 13.4705 34.7571 12.7918C34.2069 13.7639 33.62 14.7544 33.0514 15.7265C32.2994 17.0287 31.5107 18.3126 30.7954 19.6516C30.6303 19.9634 30.5753 20.4402 30.6486 20.8071C31.1072 22.6963 30.4285 24.5671 28.8328 25.6309C27.3472 26.6213 25.2562 26.5846 23.8256 25.5392C22.2666 24.3837 21.6797 22.5679 22.2116 20.642C22.2849 20.3669 22.2299 19.9267 22.0465 19.7066C20.3591 17.5239 18.6533 15.3597 16.9292 13.232C16.7641 13.0303 16.379 12.9936 16.0855 12.9569C15.9021 12.9386 15.682 13.1403 15.4986 13.1036C14.233 12.8469 13.8662 13.7273 13.426 14.626C11.6469 18.2576 9.8127 21.8892 7.99689 25.5025C7.75845 25.9794 7.70343 26.3279 8.05192 26.8414C9.11573 28.3638 9.11573 29.9778 8.18031 31.5919C8.05192 31.8303 7.92353 32.2338 8.03358 32.4356C9.5926 35.1868 11.1883 37.9014 12.7657 40.6159C23.4404 36.0672 33.0514 37.4245 41.085 45.9349C46.6424 51.8226 48.1464 59.0308 46.6057 66.991C39.5076 65.7621 32.4828 64.5699 25.2929 63.3227C26.5218 70.4575 27.714 77.4823 28.9429 84.6355C27.9158 84.8006 26.907 85.0023 25.8982 85.094C20.2857 85.5893 15.0584 84.342 10.418 81.1506C5.11728 77.5007 1.77913 72.4934 0.49522 66.1473C0.293464 65.1935 0.183415 64.2397 0.0183415 63.2677C0.0183415 62.1488 0.0183415 61.0116 0.0183415 59.8928C0.073366 59.6911 0.165073 59.5076 0.183415 59.3059C0.788684 53.565 3.19142 48.6862 7.3366 44.6694C8.23533 43.789 9.24412 43.0003 10.2346 42.1566C8.7489 39.6071 7.28158 37.0943 5.81426 34.5632C5.48411 33.9946 5.20899 33.6461 4.36528 33.6278C3.42986 33.5911 2.36605 33.1876 1.65073 32.5823C0.917075 31.9587 0.531904 30.9132 0 30.0512C0.036683 29.5009 0.036683 28.969 0.036683 28.4371ZM49.9439 14.4609C49.1919 14.2408 48.4949 14.0757 47.8346 13.819C47.3027 13.5989 47.0459 13.7456 46.7892 14.2225C43.3776 20.5686 42.9191 27.1532 45.9088 33.6828C49.6504 41.9181 56.235 46.3384 65.3141 46.7603C70.8349 47.0171 75.7871 45.2746 79.9689 41.698C88.0209 34.82 90.2035 24.2003 85.343 14.7911C81.7114 7.76627 75.7137 3.84119 67.8452 3.05251C62.1777 2.48392 57.0054 4.06129 52.4934 7.6012C51.2278 8.59164 50.1273 9.76549 48.8067 11.0127C49.7788 11.3062 50.4941 11.4896 51.1728 11.7464C51.7597 11.9848 52.1265 11.8381 52.5667 11.3979C55.373 8.60998 58.7111 6.81251 62.6179 6.17056C69.3676 5.07007 75.1818 6.99593 79.8406 11.9665C84.0224 16.4235 85.5998 21.7975 84.7194 27.8502C84.2058 31.3351 82.7569 34.4532 80.4091 37.2044C79.6571 36.5624 78.9418 35.9572 78.2265 35.3519C84.7928 27.2449 82.0048 16.827 75.5853 12.0398C69.0741 7.19768 60.2151 8.18813 55.318 12.9386C55.5197 13.0119 55.7031 13.1036 55.9049 13.1587C59.2614 14.1675 62.6362 15.1762 65.9927 16.2034C66.543 16.3684 66.8914 16.3501 67.3133 15.8916C68.157 14.9745 69.2942 14.571 70.5231 14.6443C72.3205 14.7544 73.6961 15.6531 74.3748 17.3405C75.0351 18.9729 74.8333 20.5503 73.6228 21.8892C72.3939 23.2832 70.8532 23.705 69.0374 23.2282C68.7256 23.1548 68.212 23.2648 67.9919 23.4849C66.3045 25.099 64.6538 26.7681 63.0214 28.4371C62.8196 28.6389 62.783 29.0791 62.783 29.4092C62.7646 30.253 62.9847 31.1333 62.783 31.922C62.196 34.2881 59.7016 35.6087 57.3722 34.93C55.1162 34.2697 53.7589 31.867 54.3642 29.6293C55.0245 27.1899 57.3906 25.796 59.7933 26.5113C60.3435 26.6764 60.6553 26.603 61.0405 26.2178C62.6362 24.5854 64.2686 22.9897 65.8643 21.3757C66.543 20.697 66.1761 19.3031 65.2591 19.028C61.444 17.8908 57.6107 16.7536 53.814 15.5798C53.1904 15.378 52.8602 15.488 52.5117 16.0383C50.2557 19.5599 49.467 23.3565 50.0906 27.4834C51.5396 36.9476 61.444 43.1287 70.5598 40.2674C72.669 39.6071 74.5765 38.5616 76.3373 37.131C76.9793 37.883 77.5845 38.5983 78.1898 39.3137C72.614 44.3942 62.9847 45.7699 55.2813 40.6526C47.963 35.7921 43.6711 24.6771 49.9439 14.4609ZM11.8119 44.8344C2.43942 51.4374 0.60527 64.0197 6.21777 72.4751C6.47455 72.2733 6.73133 72.0716 6.98811 71.8698C11.7936 67.8714 16.5807 63.8729 21.3862 59.8928C21.8631 59.4893 22.0648 59.1041 22.0648 58.4805C22.0465 52.9964 22.0465 47.5306 22.0465 42.0465C22.0465 41.7531 22.0465 41.4779 22.0465 41.1478C19.2769 41.3312 16.7825 42.0649 14.3614 43.2938C14.9116 44.2659 15.4435 45.1646 15.9938 46.1367C15.1134 46.6503 14.3064 47.1271 13.4627 47.6224C12.8757 46.6503 12.3622 45.7699 11.8119 44.8344ZM25.0178 60.2413C31.364 61.3418 37.7285 62.4239 44.0746 63.5244C45.4319 52.1527 36.2061 41.588 25.0178 41.1845C25.0178 47.5123 25.0178 53.8218 25.0178 60.2413ZM70.3213 61.5436C67.35 61.5436 64.5071 61.5436 61.6091 61.5436C61.5908 61.8187 61.5724 62.0571 61.5724 62.2956C61.5724 69.192 61.5724 76.0884 61.5724 82.9664C61.5724 83.4433 61.6091 83.9202 61.7008 84.3787C62.1227 86.7081 64.6354 88.2855 66.9465 87.6985C69.1475 87.1299 70.3213 85.4976 70.3213 82.9297C70.3213 76.4002 70.3213 69.8523 70.3213 63.3227C70.3213 62.7541 70.3213 62.1855 70.3213 61.5436ZM22.2482 62.9925C17.4244 67.0093 12.6923 70.9527 7.97855 74.8778C12.2338 80.4353 20.3957 83.0214 25.513 81.976C24.4492 75.7032 23.3671 69.4304 22.2482 62.9925ZM70.2479 58.4805C70.2479 57.4901 70.2479 56.5913 70.2479 55.6926C67.3316 55.6926 64.4887 55.6926 61.6458 55.6926C61.6458 56.6647 61.6458 57.5634 61.6458 58.4805C64.5254 58.4805 67.35 58.4805 70.2479 58.4805ZM67.3316 52.6296C67.3316 51.6575 67.3316 50.7404 67.3316 49.805C66.3779 49.805 65.4792 49.805 64.5804 49.805C64.5804 50.7771 64.5804 51.7125 64.5804 52.6296C65.5525 52.6296 66.4329 52.6296 67.3316 52.6296ZM58.6561 32.1788C59.4081 32.1605 60.0684 31.5002 60.0684 30.7482C60.0684 29.9962 59.4081 29.3359 58.6561 29.3175C57.8491 29.2992 57.2071 29.9595 57.2255 30.7849C57.2438 31.5735 57.8674 32.1971 58.6561 32.1788ZM5.90596 29.2442C5.88762 28.4738 5.24567 27.8686 4.45698 27.8686C3.63162 27.8686 3.00801 28.5288 3.06303 29.3542C3.09971 30.1246 3.79669 30.7482 4.54869 30.7115C5.26401 30.6931 5.9243 29.9778 5.90596 29.2442ZM36.7013 10.1873C37.49 10.169 38.0953 9.56374 38.0953 8.77505C38.0953 8.00471 37.4717 7.36276 36.7013 7.34442C35.931 7.32608 35.2157 8.05974 35.234 8.81174C35.2524 9.60042 35.9127 10.2057 36.7013 10.1873ZM71.7703 19.0096C71.7519 18.2576 71.0733 17.5973 70.3397 17.5973C69.551 17.5973 68.909 18.276 68.9274 19.1013C68.9457 19.89 69.5877 20.4769 70.3763 20.4586C71.1467 20.4402 71.7886 19.78 71.7703 19.0096ZM16.1405 8.7934C16.1405 8.04139 15.4986 7.3811 14.7282 7.36276C13.9212 7.34442 13.2792 8.00471 13.2976 8.83008C13.3159 9.61876 13.9212 10.2057 14.7282 10.1873C15.5169 10.1873 16.1405 9.56374 16.1405 8.7934ZM26.4668 20.5686C25.6598 20.5503 25.0361 21.1189 25.0178 21.9076C24.9811 22.7146 25.6414 23.4116 26.4301 23.4116C27.2004 23.4116 27.8241 22.7696 27.8424 21.9993C27.8424 21.1922 27.2555 20.587 26.4668 20.5686Z" fill="black"/>
<path d="M0.036683 28.4371C0.421854 27.7402 0.715319 26.9882 1.1922 26.3829C1.96254 25.4108 3.04469 24.9156 4.29191 24.8972C4.80547 24.8972 5.0806 24.7505 5.31903 24.292C7.26323 20.3485 9.24412 16.4235 11.225 12.48C11.4268 12.0949 11.5001 11.8014 11.1883 11.3612C9.90441 9.58208 10.0511 7.3811 11.4818 5.82207C12.8391 4.33641 15.0584 3.96958 16.8375 4.96002C18.69 5.98715 19.4787 8.00471 18.9101 10.114C18.8367 10.3891 18.8917 10.8293 19.0752 11.0494C20.7626 13.232 22.4683 15.378 24.1924 17.5239C24.3392 17.7074 24.6693 17.8908 24.8711 17.8541C26.7052 17.5056 26.7052 17.4873 28.3376 17.9458C28.4843 17.7074 28.6678 17.4322 28.8145 17.1571C29.7499 15.5431 30.6486 13.9107 31.6207 12.3333C32.2627 11.3062 32.6112 10.3524 32.3361 9.05018C31.9142 7.05095 33.73 4.84997 35.8026 4.4648C38.0953 4.04295 40.3696 5.38188 40.8649 7.6012C41.0666 8.55496 41.4885 8.92179 42.3689 9.08686C43.2126 9.25193 44.0563 9.47203 44.8266 9.82052C45.6887 10.2057 46.1656 9.93057 46.7158 9.23359C50.7693 4.22636 56.0333 1.14499 62.4161 0.264598C70.8165 -0.872575 78.0981 1.65855 83.9857 7.80295C88.8279 12.8469 91.1573 18.9913 90.7904 25.9794C90.2952 35.0768 85.9483 41.9365 78.0981 46.5769C75.9155 47.8608 73.5678 48.7228 71.0733 49.2181C70.5414 49.3281 70.3213 49.5299 70.358 50.0985C70.413 50.9238 70.3763 51.7492 70.3763 52.6663C71.3484 52.6663 72.2655 52.6663 73.2009 52.6663C73.2193 53.0331 73.256 53.2899 73.256 53.5467C73.256 63.3777 73.2743 73.2087 73.256 83.0398C73.256 86.8365 71.2751 89.5143 67.8085 90.5231C63.535 91.7703 58.8946 88.5239 58.6928 84.0669C58.5644 81.4624 58.6194 78.8579 58.6194 76.2534C58.6194 68.7701 58.6194 61.2684 58.6194 53.7851C58.6194 53.455 58.6194 53.1431 58.6194 52.7213C59.6099 52.7213 60.5086 52.7213 61.4807 52.7213C61.4807 51.5658 61.4807 50.5203 61.4807 49.4198C53.3004 47.6774 47.101 43.147 43.4877 35.5536C39.8744 27.9603 40.2779 20.3302 44.1847 12.7552C42.8824 12.3516 41.6169 11.9665 40.3696 11.5996C40.2229 11.563 39.9845 11.6914 39.8377 11.8014C38.0586 13.2687 37.0315 13.4705 34.7571 12.7918C34.2069 13.7639 33.62 14.7544 33.0514 15.7265C32.2994 17.0287 31.5107 18.3126 30.7954 19.6516C30.6303 19.9634 30.5753 20.4402 30.6486 20.8071C31.1072 22.6963 30.4285 24.5671 28.8328 25.6309C27.3472 26.6213 25.2562 26.5846 23.8256 25.5392C22.2666 24.3837 21.6797 22.5679 22.2116 20.642C22.2849 20.3669 22.2299 19.9267 22.0465 19.7066C20.3591 17.5239 18.6533 15.3597 16.9292 13.232C16.7641 13.0303 16.379 12.9936 16.0855 12.9569C15.9021 12.9386 15.682 13.1403 15.4986 13.1036C14.233 12.8469 13.8662 13.7273 13.426 14.626C11.6469 18.2576 9.8127 21.8892 7.99689 25.5025C7.75845 25.9794 7.70343 26.3279 8.05192 26.8414C9.11573 28.3638 9.11573 29.9778 8.18031 31.5919C8.05192 31.8303 7.92353 32.2338 8.03358 32.4356C9.5926 35.1868 11.1883 37.9014 12.7657 40.6159C23.4404 36.0672 33.0514 37.4245 41.085 45.9349C46.6424 51.8226 48.1464 59.0308 46.6057 66.991C39.5076 65.7621 32.4828 64.5699 25.2929 63.3227C26.5218 70.4575 27.714 77.4823 28.9429 84.6355C27.9158 84.8006 26.907 85.0023 25.8982 85.094C20.2857 85.5893 15.0584 84.342 10.418 81.1506C5.11728 77.5007 1.77913 72.4934 0.49522 66.1473C0.293464 65.1935 0.183415 64.2397 0.0183415 63.2677C0.0183415 62.1488 0.0183415 61.0116 0.0183415 59.8928C0.073366 59.6911 0.165073 59.5076 0.183415 59.3059C0.788684 53.565 3.19142 48.6862 7.3366 44.6694C8.23533 43.789 9.24412 43.0003 10.2346 42.1566C8.7489 39.6071 7.28158 37.0943 5.81426 34.5632C5.48411 33.9946 5.20899 33.6461 4.36528 33.6278C3.42986 33.5911 2.36605 33.1876 1.65073 32.5823C0.917075 31.9587 0.531904 30.9132 0 30.0512C0.036683 29.5009 0.036683 28.969 0.036683 28.4371ZM49.9439 14.4609C49.1919 14.2408 48.4949 14.0757 47.8346 13.819C47.3027 13.5989 47.0459 13.7456 46.7892 14.2225C43.3776 20.5686 42.9191 27.1532 45.9088 33.6828C49.6504 41.9181 56.235 46.3384 65.3141 46.7603C70.8349 47.0171 75.7871 45.2746 79.9689 41.698C88.0209 34.82 90.2035 24.2003 85.343 14.7911C81.7114 7.76627 75.7137 3.84119 67.8452 3.05251C62.1777 2.48392 57.0054 4.06129 52.4934 7.6012C51.2278 8.59164 50.1273 9.76549 48.8067 11.0127C49.7788 11.3062 50.4941 11.4896 51.1728 11.7464C51.7597 11.9848 52.1265 11.8381 52.5667 11.3979C55.373 8.60998 58.7111 6.81251 62.6179 6.17056C69.3676 5.07007 75.1818 6.99593 79.8406 11.9665C84.0224 16.4235 85.5998 21.7975 84.7194 27.8502C84.2058 31.3351 82.7569 34.4532 80.4091 37.2044C79.6571 36.5624 78.9418 35.9572 78.2265 35.3519C84.7928 27.2449 82.0048 16.827 75.5853 12.0398C69.0741 7.19768 60.2151 8.18813 55.318 12.9386C55.5197 13.0119 55.7031 13.1036 55.9049 13.1587C59.2614 14.1675 62.6362 15.1762 65.9927 16.2034C66.543 16.3684 66.8914 16.3501 67.3133 15.8916C68.157 14.9745 69.2942 14.571 70.5231 14.6443C72.3205 14.7544 73.6961 15.6531 74.3748 17.3405C75.0351 18.9729 74.8333 20.5503 73.6228 21.8892C72.3939 23.2832 70.8532 23.705 69.0374 23.2282C68.7256 23.1548 68.212 23.2648 67.9919 23.4849C66.3045 25.099 64.6538 26.7681 63.0214 28.4371C62.8196 28.6389 62.783 29.0791 62.783 29.4092C62.7646 30.253 62.9847 31.1333 62.783 31.922C62.196 34.2881 59.7016 35.6087 57.3722 34.93C55.1162 34.2697 53.7589 31.867 54.3642 29.6293C55.0245 27.1899 57.3906 25.796 59.7933 26.5113C60.3435 26.6764 60.6553 26.603 61.0405 26.2178C62.6362 24.5854 64.2686 22.9897 65.8643 21.3757C66.543 20.697 66.1761 19.3031 65.2591 19.028C61.444 17.8908 57.6107 16.7536 53.814 15.5798C53.1904 15.378 52.8602 15.488 52.5117 16.0383C50.2557 19.5599 49.467 23.3565 50.0906 27.4834C51.5396 36.9476 61.444 43.1287 70.5598 40.2674C72.669 39.6071 74.5765 38.5616 76.3373 37.131C76.9793 37.883 77.5845 38.5983 78.1898 39.3137C72.614 44.3942 62.9847 45.7699 55.2813 40.6526C47.963 35.7921 43.6711 24.6771 49.9439 14.4609ZM11.8119 44.8344C2.43942 51.4374 0.60527 64.0197 6.21777 72.4751C6.47455 72.2733 6.73133 72.0716 6.98811 71.8698C11.7936 67.8714 16.5807 63.8729 21.3862 59.8928C21.8631 59.4893 22.0648 59.1041 22.0648 58.4805C22.0465 52.9964 22.0465 47.5306 22.0465 42.0465C22.0465 41.7531 22.0465 41.4779 22.0465 41.1478C19.2769 41.3312 16.7825 42.0649 14.3614 43.2938C14.9116 44.2659 15.4435 45.1646 15.9938 46.1367C15.1134 46.6503 14.3064 47.1271 13.4627 47.6224C12.8757 46.6503 12.3622 45.7699 11.8119 44.8344ZM25.0178 60.2413C31.364 61.3418 37.7285 62.4239 44.0746 63.5244C45.4319 52.1527 36.2061 41.588 25.0178 41.1845C25.0178 47.5123 25.0178 53.8218 25.0178 60.2413ZM70.3213 61.5436C67.35 61.5436 64.5071 61.5436 61.6091 61.5436C61.5908 61.8187 61.5724 62.0571 61.5724 62.2956C61.5724 69.192 61.5724 76.0884 61.5724 82.9664C61.5724 83.4433 61.6091 83.9202 61.7008 84.3787C62.1227 86.7081 64.6354 88.2855 66.9465 87.6985C69.1475 87.1299 70.3213 85.4976 70.3213 82.9297C70.3213 76.4002 70.3213 69.8523 70.3213 63.3227C70.3213 62.7541 70.3213 62.1855 70.3213 61.5436ZM22.2482 62.9925C17.4244 67.0093 12.6923 70.9527 7.97855 74.8778C12.2338 80.4353 20.3957 83.0214 25.513 81.976C24.4492 75.7032 23.3671 69.4304 22.2482 62.9925ZM70.2479 58.4805C70.2479 57.4901 70.2479 56.5913 70.2479 55.6926C67.3316 55.6926 64.4887 55.6926 61.6458 55.6926C61.6458 56.6647 61.6458 57.5634 61.6458 58.4805C64.5254 58.4805 67.35 58.4805 70.2479 58.4805ZM67.3316 52.6296C67.3316 51.6575 67.3316 50.7404 67.3316 49.805C66.3779 49.805 65.4792 49.805 64.5804 49.805C64.5804 50.7771 64.5804 51.7125 64.5804 52.6296C65.5525 52.6296 66.4329 52.6296 67.3316 52.6296ZM58.6561 32.1788C59.4081 32.1605 60.0684 31.5002 60.0684 30.7482C60.0684 29.9962 59.4081 29.3359 58.6561 29.3175C57.8491 29.2992 57.2071 29.9595 57.2255 30.7849C57.2438 31.5735 57.8674 32.1971 58.6561 32.1788ZM5.90596 29.2442C5.88762 28.4738 5.24567 27.8686 4.45698 27.8686C3.63162 27.8686 3.00801 28.5288 3.06303 29.3542C3.09971 30.1246 3.79669 30.7482 4.54869 30.7115C5.26401 30.6931 5.9243 29.9778 5.90596 29.2442ZM36.7013 10.1873C37.49 10.169 38.0953 9.56374 38.0953 8.77505C38.0953 8.00471 37.4717 7.36276 36.7013 7.34442C35.931 7.32608 35.2157 8.05974 35.234 8.81174C35.2524 9.60042 35.9127 10.2057 36.7013 10.1873ZM71.7703 19.0096C71.7519 18.2576 71.0733 17.5973 70.3397 17.5973C69.551 17.5973 68.909 18.276 68.9274 19.1013C68.9457 19.89 69.5877 20.4769 70.3763 20.4586C71.1467 20.4402 71.7886 19.78 71.7703 19.0096ZM16.1405 8.7934C16.1405 8.04139 15.4986 7.3811 14.7282 7.36276C13.9212 7.34442 13.2792 8.00471 13.2976 8.83008C13.3159 9.61876 13.9212 10.2057 14.7282 10.1873C15.5169 10.1873 16.1405 9.56374 16.1405 8.7934ZM26.4668 20.5686C25.6598 20.5503 25.0361 21.1189 25.0178 21.9076C24.9811 22.7146 25.6414 23.4116 26.4301 23.4116C27.2004 23.4116 27.8241 22.7696 27.8424 21.9993C27.8424 21.1922 27.2555 20.587 26.4668 20.5686Z" fill="url(#paint0_linear_18_791)"/>
<path d="M31.8408 90.9999C31.5106 88.8723 31.2172 86.7447 30.8687 84.6171C29.8416 78.3809 28.7961 72.1448 27.7323 65.7437C36.1877 67.1559 44.5515 68.5499 52.9885 69.9439C52.6767 72.4016 52.1265 74.7493 51.1177 76.9687C47.5044 84.7088 41.4884 89.3308 33.0513 90.8165C32.8863 90.8532 32.7212 90.9265 32.5561 90.9816C32.3177 90.9999 32.0792 90.9999 31.8408 90.9999ZM49.4853 72.3466C43.4143 71.3378 37.4166 70.3474 31.3456 69.3202C32.3727 75.4646 33.3631 81.444 34.3719 87.4416C41.2683 86.1577 47.9813 79.7932 49.4853 72.3466Z" fill="black"/>
<path d="M31.8408 90.9999C31.5106 88.8723 31.2172 86.7447 30.8687 84.6171C29.8416 78.3809 28.7961 72.1448 27.7323 65.7437C36.1877 67.1559 44.5515 68.5499 52.9885 69.9439C52.6767 72.4016 52.1265 74.7493 51.1177 76.9687C47.5044 84.7088 41.4884 89.3308 33.0513 90.8165C32.8863 90.8532 32.7212 90.9265 32.5561 90.9816C32.3177 90.9999 32.0792 90.9999 31.8408 90.9999ZM49.4853 72.3466C43.4143 71.3378 37.4166 70.3474 31.3456 69.3202C32.3727 75.4646 33.3631 81.444 34.3719 87.4416C41.2683 86.1577 47.9813 79.7932 49.4853 72.3466Z" fill="url(#paint1_linear_18_791)"/>
<path d="M67.3867 83.48C67.3684 84.287 66.7081 84.9473 65.9194 84.9289C65.1307 84.9106 64.4888 84.232 64.5071 83.4249C64.5254 82.6179 65.2041 81.9576 65.9744 81.976C66.7631 81.9943 67.4051 82.6729 67.3867 83.48Z" fill="black"/>
<path d="M67.3867 83.48C67.3684 84.287 66.7081 84.9473 65.9194 84.9289C65.1307 84.9106 64.4888 84.232 64.5071 83.4249C64.5254 82.6179 65.2041 81.9576 65.9744 81.976C66.7631 81.9943 67.4051 82.6729 67.3867 83.48Z" fill="url(#paint2_linear_18_791)"/>
<defs>
<linearGradient id="paint0_linear_18_791" x1="-16.7705" y1="-3.50877e-05" x2="76.9604" y2="2.28851" gradientUnits="userSpaceOnUse">
<stop stop-color="#37DADA"/>
<stop offset="1" stop-color="#254DB5"/>
</linearGradient>
<linearGradient id="paint1_linear_18_791" x1="23.069" y1="65.7436" x2="49.1325" y2="66.3798" gradientUnits="userSpaceOnUse">
<stop stop-color="#37DADA"/>
<stop offset="1" stop-color="#254DB5"/>
</linearGradient>
<linearGradient id="paint2_linear_18_791" x1="63.9749" y1="81.9756" x2="66.9474" y2="82.0463" gradientUnits="userSpaceOnUse">
<stop stop-color="#37DADA"/>
<stop offset="1" stop-color="#254DB5"/>
</linearGradient>
</defs>
</svg>
