<svg width="92" height="91" viewBox="0 0 92 91" fill="none" xmlns="http://www.w3.org/2000/svg">
<path d="M3.25354 55.816C2.76337 55.718 2.34672 55.669 1.95458 55.522C0.778154 55.1054 0.0428904 54.0763 0.0183816 52.8022C-0.0061272 51.8221 -0.0061272 50.842 0.0183816 49.8619C0.0428904 48.1468 1.26833 46.9217 2.95944 46.8972C5.53286 46.8727 8.10628 46.8972 10.6552 46.8972C10.9738 46.8972 11.3169 46.8972 11.7336 46.8972C11.7336 46.4806 11.7336 46.1621 11.7336 45.8436C11.7336 39.9141 11.7336 33.9845 11.7336 28.055C11.7336 25.2373 13.5717 23.4241 16.3903 23.4241C20.1891 23.4241 23.9635 23.4241 27.8849 23.4241C27.8849 22.9585 27.8849 22.542 27.8849 22.1255C27.8849 20.9249 27.8113 19.7243 27.9094 18.5482C28.0074 16.98 27.9339 15.8284 26.1202 14.9708C23.8654 13.9172 23.0566 11.1485 23.6694 8.72278C24.2821 6.37057 26.3408 4.58191 28.6692 4.36139C31.2426 4.11637 33.5954 5.41498 34.6493 7.71819C34.7963 8.03672 34.9434 8.37975 35.0905 8.72278C38.056 8.72278 40.9726 8.72278 44.0117 8.72278C44.0117 5.80702 44.0117 2.94026 44.0117 0C50.8986 0 57.663 0 64.55 0C64.55 2.86676 64.55 5.75801 64.55 8.69828C66.5597 8.69828 68.4714 8.69828 70.4321 8.69828C70.4321 5.83152 70.4321 2.96476 70.4321 0.0245022C77.2946 0.0245022 84.0835 0.0245022 90.946 0.0245022C90.946 6.81161 90.946 13.6232 90.946 20.4593C84.1325 20.4593 77.3681 20.4593 70.4811 20.4593C70.4811 17.5681 70.4811 14.6768 70.4811 11.7365C68.4959 11.7365 66.6088 11.7365 64.6235 11.7365C64.6235 14.6033 64.6235 17.4946 64.6235 20.4348C57.7366 20.4348 50.9231 20.4348 44.0607 20.4348C44.0607 17.5436 44.0607 14.6768 44.0607 11.6875C43.4234 11.6875 42.8597 11.6875 42.296 11.6875C40.0902 11.6875 37.8845 11.6875 35.7032 11.6875C35.2375 11.6875 35.0169 11.8101 34.8454 12.2756C34.2326 13.9417 33.0562 15.0688 31.4141 15.7549C31.1936 15.8529 30.8749 16.1224 30.8749 16.3185C30.8259 18.6707 30.8504 21.0229 30.8504 23.4486C31.2671 23.4486 31.5857 23.4486 31.9043 23.4486C35.4091 23.4486 38.9383 23.4486 42.4431 23.4486C45.1145 23.4486 46.9772 25.3108 46.9772 28.006C46.9772 33.078 46.9772 38.1499 46.9772 43.2464C46.9772 43.5649 46.9772 43.9079 46.9772 44.496C48.0311 43.2954 48.9379 42.2908 49.8202 41.2617C50.482 40.5021 51.1437 39.718 51.8545 39.032C52.026 38.8605 52.5162 38.7625 52.7613 38.885C53.7171 39.3015 54.5994 39.8406 55.5553 40.2816C55.8249 40.4041 56.2415 40.3796 56.5601 40.2816C56.9278 40.1836 57.2709 39.8896 57.6385 39.8161C59.011 39.5465 59.5747 38.6645 59.9179 37.3658C60.4816 35.1606 60.5796 35.1851 62.8834 35.1851C65.5549 35.1851 68.2018 35.2096 70.8733 35.1606C71.437 35.1606 71.7311 35.3076 71.8046 35.8712C71.8291 36.0182 71.9027 36.1652 71.9517 36.3122C72.883 39.2525 72.883 39.277 75.7996 40.3306C76.0446 40.4286 76.3878 40.3551 76.6329 40.2571C77.5397 39.8161 78.422 39.3015 79.3288 38.9095C79.5739 38.787 80.0641 38.836 80.2356 39.0075C82.5885 41.3107 84.9413 43.6629 87.2452 46.0151C87.3922 46.1621 87.3922 46.5297 87.3922 46.7747C87.3922 46.9462 87.2452 47.0932 87.1716 47.2647C86.706 48.1958 85.9217 49.1024 85.8482 50.0335C85.7991 50.94 86.4609 51.8956 86.8775 52.8022C87.0001 53.0962 87.3187 53.3903 87.6128 53.4883C88.5441 53.8558 89.5245 54.1008 90.4803 54.4439C90.7254 54.5419 91.0195 54.8604 91.044 55.0809C91.0685 58.5602 91.0685 62.0395 91.0685 65.5679C89.9656 65.9354 88.8872 66.2784 87.8334 66.6459C87.7353 66.6704 87.6618 66.6704 87.5638 66.7195C86.9265 66.94 85.6521 70.0027 85.9707 70.5908C86.4364 71.5219 86.951 72.4285 87.3677 73.3595C87.4657 73.6046 87.4167 74.0946 87.2452 74.2661C84.9658 76.5938 82.6375 78.9215 80.3092 81.2002C80.1376 81.3718 79.6964 81.3228 79.4023 81.3473C79.2798 81.3473 79.1082 81.2493 78.9857 81.1512C77.2701 79.8281 75.4564 79.5586 73.5938 80.8327C73.2506 81.0532 72.883 81.3718 72.736 81.7393C72.3193 82.8174 72.0007 83.92 71.6331 85.0716C68.2263 85.0716 64.8686 85.0471 61.5109 85.0961C61.1678 85.0961 60.6776 85.3166 60.5061 85.6106C58.1777 89.4575 54.1093 91.5402 50.1143 90.8786C45.4332 90.119 42.2715 87.0073 41.2912 82.2048C35.3846 82.2048 29.4779 82.2048 23.5468 82.2048C23.3507 82.8909 23.1792 83.6015 22.9096 84.2875C21.4146 88.3059 17.6157 90.9276 13.4002 90.9521C9.06212 90.9521 5.26326 88.3794 3.71921 84.361C2.17515 80.3427 3.27805 75.8588 6.46419 72.992C6.68477 72.796 6.95437 72.3795 6.90535 72.1344C5.6554 66.6949 4.45447 61.2555 3.25354 55.816ZM23.4488 79.1666C29.3554 79.1666 35.262 79.1666 41.1686 79.1666C42.3696 73.8741 45.6537 70.9828 51.0457 70.3458C51.5849 65.4943 52.1241 60.6674 52.6633 55.767C37.1737 55.767 21.7577 55.767 6.26812 55.767C7.39553 60.8634 8.52293 65.9109 9.65033 70.9583C16.5128 68.8511 22.3459 73.1145 23.4488 79.1666ZM55.6533 55.8405C55.1141 60.7899 54.5504 65.7394 54.0357 70.3948C55.6043 71.3749 56.9768 72.2569 58.3493 73.09C58.5699 73.2125 58.8395 73.3105 59.1091 73.3105C61.5845 73.335 64.0598 73.384 66.5352 73.286C73.7898 73.041 79.5494 66.8665 79.2798 59.6628C78.9367 49.7884 68.3244 43.7854 59.6483 48.5388C58.962 48.9309 58.5944 49.3229 58.7169 50.1805C58.815 50.7685 58.7414 51.4056 58.7414 52.0181C58.7169 54.4684 58.0307 55.3504 55.6533 55.8405ZM61.8786 82.1558C63.7902 82.1558 65.898 82.1068 67.9812 82.1803C69.0106 82.2293 69.6478 82.0088 69.7949 80.8817C69.991 79.2646 70.8243 78.26 72.5399 78.0395C72.9075 77.9905 73.3242 77.8189 73.6428 77.5984C75.3584 76.3488 77.025 76.4468 78.6671 77.7209C79.1327 78.0885 79.4759 77.8924 79.8435 77.5249C80.8239 76.5203 81.8287 75.5402 82.8091 74.5357C83.9855 73.3595 84.059 73.3105 83.1767 71.8404C82.4904 70.6888 82.2699 69.6597 83.1522 68.5326C83.4463 68.1651 83.6669 67.675 83.7404 67.2095C84.059 65.0533 85.309 63.9262 87.4167 63.6812C88.0049 63.6077 88.103 63.2646 88.103 62.7256C88.0785 61.133 88.0294 59.5403 88.1275 57.9477C88.1765 57.0411 87.8579 56.6001 87.0001 56.4775C86.853 56.453 86.706 56.355 86.5589 56.3305C85.1619 56.1345 84.2551 55.4484 84.059 53.9293C84.01 53.4638 83.8139 52.9492 83.5443 52.5817C82.2944 50.8665 82.3924 49.2004 83.6669 47.5587C84.0345 47.0932 83.8384 46.7502 83.4463 46.3826C82.4904 45.4761 81.5836 44.5205 80.6523 43.6139C79.2798 42.2418 79.2308 42.1683 77.5152 43.1729C76.5103 43.7609 75.677 43.9324 74.6967 43.1974C74.231 42.8298 73.6183 42.5358 73.0301 42.4623C70.8978 42.1438 69.8439 40.8696 69.5743 38.8115C69.5008 38.2969 69.2557 38.1254 68.7165 38.1254C66.9519 38.1499 65.1627 38.1499 63.3981 38.1254C62.8589 38.1254 62.6383 38.3214 62.5158 38.8115C62.3197 39.571 62.0746 40.3306 61.7805 41.0657C61.658 41.3597 61.3639 41.6292 61.0698 41.7762C59.5992 42.4133 58.1042 43.0258 56.5847 43.6139C56.266 43.7364 55.8249 43.7609 55.5063 43.6139C54.624 43.2219 53.7661 42.7563 52.9083 42.2908C51.5359 43.8344 50.2369 45.3045 48.7909 46.9462C49.281 46.9462 49.5751 46.9462 49.8693 46.9462C51.8545 46.9462 53.8397 46.9707 55.8249 46.9217C56.3641 46.8972 56.9768 46.7747 57.418 46.4806C67.5401 40.0121 81.167 46.7502 82.1718 58.7317C82.9561 68.2141 75.5545 76.2753 66.0205 76.2998C64.2804 76.2998 62.5403 76.2998 60.9717 76.2998C61.2903 78.211 61.5845 80.1221 61.8786 82.1558ZM14.7482 46.8727C24.5762 46.8727 34.2817 46.8727 44.0117 46.8727C44.0117 43.9324 44.0117 41.0657 44.0117 38.1744C34.2326 38.1744 24.4782 38.1744 14.7482 38.1744C14.7482 41.0902 14.7482 43.9569 14.7482 46.8727ZM44.0607 35.1361C44.0607 32.7104 44.0852 30.3827 44.0607 28.055C44.0607 26.9524 43.4725 26.3644 42.3451 26.3644C33.718 26.3644 25.0909 26.3644 16.4883 26.3644C15.2874 26.3644 14.7237 26.9524 14.7237 28.202C14.7237 30.3092 14.7237 32.4164 14.7237 34.5236C14.7237 34.7196 14.7727 34.9156 14.7972 35.1361C24.5517 35.1361 34.2572 35.1361 44.0607 35.1361ZM61.6335 2.94026C56.7072 2.94026 51.879 2.94026 47.0753 2.94026C47.0753 7.8407 47.0753 12.6921 47.0753 17.5191C51.977 17.5191 56.7807 17.5191 61.6335 17.5191C61.6335 12.6431 61.6335 7.8162 61.6335 2.94026ZM88.0294 17.5191C88.0294 12.5941 88.0294 7.76719 88.0294 2.91576C83.1522 2.91576 78.324 2.91576 73.4712 2.91576C73.4712 7.7917 73.4712 12.6431 73.4712 17.5191C78.324 17.5191 83.1522 17.5191 88.0294 17.5191ZM55.7514 49.911C38.105 49.911 20.5567 49.911 3.03296 49.911C3.03296 50.9155 3.03296 51.8221 3.03296 52.7287C20.6548 52.7287 38.1786 52.7287 55.7514 52.7287C55.7514 51.7976 55.7514 50.891 55.7514 49.911ZM13.2041 88.0119C17.199 88.0364 20.5567 84.6796 20.5813 80.6857C20.5813 76.7163 17.2971 73.384 13.3267 73.335C9.33172 73.286 5.94951 76.6183 5.90049 80.6122C5.85147 84.6306 9.18467 87.9874 13.2041 88.0119ZM44.0607 80.6367C44.0362 84.6306 47.3939 88.0119 51.3888 88.0119C55.3592 88.0119 58.6924 84.7286 58.7414 80.7592C58.7905 76.7654 55.4573 73.384 51.4623 73.335C47.4429 73.3105 44.0852 76.6428 44.0607 80.6367ZM32.321 10.2419C32.3455 8.67377 30.973 7.30165 29.4044 7.30165C27.8604 7.27715 26.4634 8.64927 26.4634 10.2174C26.4389 11.7856 27.8113 13.1577 29.3799 13.1822C30.924 13.1577 32.2965 11.8101 32.321 10.2419Z" fill="black"/>
<path d="M3.25354 55.816C2.76337 55.718 2.34672 55.669 1.95458 55.522C0.778154 55.1054 0.0428904 54.0763 0.0183816 52.8022C-0.0061272 51.8221 -0.0061272 50.842 0.0183816 49.8619C0.0428904 48.1468 1.26833 46.9217 2.95944 46.8972C5.53286 46.8727 8.10628 46.8972 10.6552 46.8972C10.9738 46.8972 11.3169 46.8972 11.7336 46.8972C11.7336 46.4806 11.7336 46.1621 11.7336 45.8436C11.7336 39.9141 11.7336 33.9845 11.7336 28.055C11.7336 25.2373 13.5717 23.4241 16.3903 23.4241C20.1891 23.4241 23.9635 23.4241 27.8849 23.4241C27.8849 22.9585 27.8849 22.542 27.8849 22.1255C27.8849 20.9249 27.8113 19.7243 27.9094 18.5482C28.0074 16.98 27.9339 15.8284 26.1202 14.9708C23.8654 13.9172 23.0566 11.1485 23.6694 8.72278C24.2821 6.37057 26.3408 4.58191 28.6692 4.36139C31.2426 4.11637 33.5954 5.41498 34.6493 7.71819C34.7963 8.03672 34.9434 8.37975 35.0905 8.72278C38.056 8.72278 40.9726 8.72278 44.0117 8.72278C44.0117 5.80702 44.0117 2.94026 44.0117 0C50.8986 0 57.663 0 64.55 0C64.55 2.86676 64.55 5.75801 64.55 8.69828C66.5597 8.69828 68.4714 8.69828 70.4321 8.69828C70.4321 5.83152 70.4321 2.96476 70.4321 0.0245022C77.2946 0.0245022 84.0835 0.0245022 90.946 0.0245022C90.946 6.81161 90.946 13.6232 90.946 20.4593C84.1325 20.4593 77.3681 20.4593 70.4811 20.4593C70.4811 17.5681 70.4811 14.6768 70.4811 11.7365C68.4959 11.7365 66.6088 11.7365 64.6235 11.7365C64.6235 14.6033 64.6235 17.4946 64.6235 20.4348C57.7366 20.4348 50.9231 20.4348 44.0607 20.4348C44.0607 17.5436 44.0607 14.6768 44.0607 11.6875C43.4234 11.6875 42.8597 11.6875 42.296 11.6875C40.0902 11.6875 37.8845 11.6875 35.7032 11.6875C35.2375 11.6875 35.0169 11.8101 34.8454 12.2756C34.2326 13.9417 33.0562 15.0688 31.4141 15.7549C31.1936 15.8529 30.8749 16.1224 30.8749 16.3185C30.8259 18.6707 30.8504 21.0229 30.8504 23.4486C31.2671 23.4486 31.5857 23.4486 31.9043 23.4486C35.4091 23.4486 38.9383 23.4486 42.4431 23.4486C45.1145 23.4486 46.9772 25.3108 46.9772 28.006C46.9772 33.078 46.9772 38.1499 46.9772 43.2464C46.9772 43.5649 46.9772 43.9079 46.9772 44.496C48.0311 43.2954 48.9379 42.2908 49.8202 41.2617C50.482 40.5021 51.1437 39.718 51.8545 39.032C52.026 38.8605 52.5162 38.7625 52.7613 38.885C53.7171 39.3015 54.5994 39.8406 55.5553 40.2816C55.8249 40.4041 56.2415 40.3796 56.5601 40.2816C56.9278 40.1836 57.2709 39.8896 57.6385 39.8161C59.011 39.5465 59.5747 38.6645 59.9179 37.3658C60.4816 35.1606 60.5796 35.1851 62.8834 35.1851C65.5549 35.1851 68.2018 35.2096 70.8733 35.1606C71.437 35.1606 71.7311 35.3076 71.8046 35.8712C71.8291 36.0182 71.9027 36.1652 71.9517 36.3122C72.883 39.2525 72.883 39.277 75.7996 40.3306C76.0446 40.4286 76.3878 40.3551 76.6329 40.2571C77.5397 39.8161 78.422 39.3015 79.3288 38.9095C79.5739 38.787 80.0641 38.836 80.2356 39.0075C82.5885 41.3107 84.9413 43.6629 87.2452 46.0151C87.3922 46.1621 87.3922 46.5297 87.3922 46.7747C87.3922 46.9462 87.2452 47.0932 87.1716 47.2647C86.706 48.1958 85.9217 49.1024 85.8482 50.0335C85.7991 50.94 86.4609 51.8956 86.8775 52.8022C87.0001 53.0962 87.3187 53.3903 87.6128 53.4883C88.5441 53.8558 89.5245 54.1008 90.4803 54.4439C90.7254 54.5419 91.0195 54.8604 91.044 55.0809C91.0685 58.5602 91.0685 62.0395 91.0685 65.5679C89.9656 65.9354 88.8872 66.2784 87.8334 66.6459C87.7353 66.6704 87.6618 66.6704 87.5638 66.7195C86.9265 66.94 85.6521 70.0027 85.9707 70.5908C86.4364 71.5219 86.951 72.4285 87.3677 73.3595C87.4657 73.6046 87.4167 74.0946 87.2452 74.2661C84.9658 76.5938 82.6375 78.9215 80.3092 81.2002C80.1376 81.3718 79.6964 81.3228 79.4023 81.3473C79.2798 81.3473 79.1082 81.2493 78.9857 81.1512C77.2701 79.8281 75.4564 79.5586 73.5938 80.8327C73.2506 81.0532 72.883 81.3718 72.736 81.7393C72.3193 82.8174 72.0007 83.92 71.6331 85.0716C68.2263 85.0716 64.8686 85.0471 61.5109 85.0961C61.1678 85.0961 60.6776 85.3166 60.5061 85.6106C58.1777 89.4575 54.1093 91.5402 50.1143 90.8786C45.4332 90.119 42.2715 87.0073 41.2912 82.2048C35.3846 82.2048 29.4779 82.2048 23.5468 82.2048C23.3507 82.8909 23.1792 83.6015 22.9096 84.2875C21.4146 88.3059 17.6157 90.9276 13.4002 90.9521C9.06212 90.9521 5.26326 88.3794 3.71921 84.361C2.17515 80.3427 3.27805 75.8588 6.46419 72.992C6.68477 72.796 6.95437 72.3795 6.90535 72.1344C5.6554 66.6949 4.45447 61.2555 3.25354 55.816ZM23.4488 79.1666C29.3554 79.1666 35.262 79.1666 41.1686 79.1666C42.3696 73.8741 45.6537 70.9828 51.0457 70.3458C51.5849 65.4943 52.1241 60.6674 52.6633 55.767C37.1737 55.767 21.7577 55.767 6.26812 55.767C7.39553 60.8634 8.52293 65.9109 9.65033 70.9583C16.5128 68.8511 22.3459 73.1145 23.4488 79.1666ZM55.6533 55.8405C55.1141 60.7899 54.5504 65.7394 54.0357 70.3948C55.6043 71.3749 56.9768 72.2569 58.3493 73.09C58.5699 73.2125 58.8395 73.3105 59.1091 73.3105C61.5845 73.335 64.0598 73.384 66.5352 73.286C73.7898 73.041 79.5494 66.8665 79.2798 59.6628C78.9367 49.7884 68.3244 43.7854 59.6483 48.5388C58.962 48.9309 58.5944 49.3229 58.7169 50.1805C58.815 50.7685 58.7414 51.4056 58.7414 52.0181C58.7169 54.4684 58.0307 55.3504 55.6533 55.8405ZM61.8786 82.1558C63.7902 82.1558 65.898 82.1068 67.9812 82.1803C69.0106 82.2293 69.6478 82.0088 69.7949 80.8817C69.991 79.2646 70.8243 78.26 72.5399 78.0395C72.9075 77.9905 73.3242 77.8189 73.6428 77.5984C75.3584 76.3488 77.025 76.4468 78.6671 77.7209C79.1327 78.0885 79.4759 77.8924 79.8435 77.5249C80.8239 76.5203 81.8287 75.5402 82.8091 74.5357C83.9855 73.3595 84.059 73.3105 83.1767 71.8404C82.4904 70.6888 82.2699 69.6597 83.1522 68.5326C83.4463 68.1651 83.6669 67.675 83.7404 67.2095C84.059 65.0533 85.309 63.9262 87.4167 63.6812C88.0049 63.6077 88.103 63.2646 88.103 62.7256C88.0785 61.133 88.0294 59.5403 88.1275 57.9477C88.1765 57.0411 87.8579 56.6001 87.0001 56.4775C86.853 56.453 86.706 56.355 86.5589 56.3305C85.1619 56.1345 84.2551 55.4484 84.059 53.9293C84.01 53.4638 83.8139 52.9492 83.5443 52.5817C82.2944 50.8665 82.3924 49.2004 83.6669 47.5587C84.0345 47.0932 83.8384 46.7502 83.4463 46.3826C82.4904 45.4761 81.5836 44.5205 80.6523 43.6139C79.2798 42.2418 79.2308 42.1683 77.5152 43.1729C76.5103 43.7609 75.677 43.9324 74.6967 43.1974C74.231 42.8298 73.6183 42.5358 73.0301 42.4623C70.8978 42.1438 69.8439 40.8696 69.5743 38.8115C69.5008 38.2969 69.2557 38.1254 68.7165 38.1254C66.9519 38.1499 65.1627 38.1499 63.3981 38.1254C62.8589 38.1254 62.6383 38.3214 62.5158 38.8115C62.3197 39.571 62.0746 40.3306 61.7805 41.0657C61.658 41.3597 61.3639 41.6292 61.0698 41.7762C59.5992 42.4133 58.1042 43.0258 56.5847 43.6139C56.266 43.7364 55.8249 43.7609 55.5063 43.6139C54.624 43.2219 53.7661 42.7563 52.9083 42.2908C51.5359 43.8344 50.2369 45.3045 48.7909 46.9462C49.281 46.9462 49.5751 46.9462 49.8693 46.9462C51.8545 46.9462 53.8397 46.9707 55.8249 46.9217C56.3641 46.8972 56.9768 46.7747 57.418 46.4806C67.5401 40.0121 81.167 46.7502 82.1718 58.7317C82.9561 68.2141 75.5545 76.2753 66.0205 76.2998C64.2804 76.2998 62.5403 76.2998 60.9717 76.2998C61.2903 78.211 61.5845 80.1221 61.8786 82.1558ZM14.7482 46.8727C24.5762 46.8727 34.2817 46.8727 44.0117 46.8727C44.0117 43.9324 44.0117 41.0657 44.0117 38.1744C34.2326 38.1744 24.4782 38.1744 14.7482 38.1744C14.7482 41.0902 14.7482 43.9569 14.7482 46.8727ZM44.0607 35.1361C44.0607 32.7104 44.0852 30.3827 44.0607 28.055C44.0607 26.9524 43.4725 26.3644 42.3451 26.3644C33.718 26.3644 25.0909 26.3644 16.4883 26.3644C15.2874 26.3644 14.7237 26.9524 14.7237 28.202C14.7237 30.3092 14.7237 32.4164 14.7237 34.5236C14.7237 34.7196 14.7727 34.9156 14.7972 35.1361C24.5517 35.1361 34.2572 35.1361 44.0607 35.1361ZM61.6335 2.94026C56.7072 2.94026 51.879 2.94026 47.0753 2.94026C47.0753 7.8407 47.0753 12.6921 47.0753 17.5191C51.977 17.5191 56.7807 17.5191 61.6335 17.5191C61.6335 12.6431 61.6335 7.8162 61.6335 2.94026ZM88.0294 17.5191C88.0294 12.5941 88.0294 7.76719 88.0294 2.91576C83.1522 2.91576 78.324 2.91576 73.4712 2.91576C73.4712 7.7917 73.4712 12.6431 73.4712 17.5191C78.324 17.5191 83.1522 17.5191 88.0294 17.5191ZM55.7514 49.911C38.105 49.911 20.5567 49.911 3.03296 49.911C3.03296 50.9155 3.03296 51.8221 3.03296 52.7287C20.6548 52.7287 38.1786 52.7287 55.7514 52.7287C55.7514 51.7976 55.7514 50.891 55.7514 49.911ZM13.2041 88.0119C17.199 88.0364 20.5567 84.6796 20.5813 80.6857C20.5813 76.7163 17.2971 73.384 13.3267 73.335C9.33172 73.286 5.94951 76.6183 5.90049 80.6122C5.85147 84.6306 9.18467 87.9874 13.2041 88.0119ZM44.0607 80.6367C44.0362 84.6306 47.3939 88.0119 51.3888 88.0119C55.3592 88.0119 58.6924 84.7286 58.7414 80.7592C58.7905 76.7654 55.4573 73.384 51.4623 73.335C47.4429 73.3105 44.0852 76.6428 44.0607 80.6367ZM32.321 10.2419C32.3455 8.67377 30.973 7.30165 29.4044 7.30165C27.8604 7.27715 26.4634 8.64927 26.4634 10.2174C26.4389 11.7856 27.8113 13.1577 29.3799 13.1822C30.924 13.1577 32.2965 11.8101 32.321 10.2419Z" fill="url(#paint0_linear_18_761)"/>
<path d="M64.5253 61.5495C63.5695 61.5495 62.6626 61.5495 61.7068 61.5495C61.7068 60.5939 61.7068 59.6629 61.7068 58.7073C62.6381 58.7073 63.5449 58.7073 64.5253 58.7073C64.5253 59.6384 64.5253 60.5449 64.5253 61.5495Z" fill="black"/>
<path d="M64.5253 61.5495C63.5695 61.5495 62.6626 61.5495 61.7068 61.5495C61.7068 60.5939 61.7068 59.6629 61.7068 58.7073C62.6381 58.7073 63.5449 58.7073 64.5253 58.7073C64.5253 59.6384 64.5253 60.5449 64.5253 61.5495Z" fill="url(#paint1_linear_18_761)"/>
<path d="M70.4076 61.5497C69.4763 61.5497 68.5695 61.5497 67.5891 61.5497C67.5891 60.6186 67.5891 59.712 67.5891 58.7319C68.4959 58.7319 69.4273 58.7319 70.4076 58.7319C70.4076 59.6385 70.4076 60.5451 70.4076 61.5497Z" fill="black"/>
<path d="M70.4076 61.5497C69.4763 61.5497 68.5695 61.5497 67.5891 61.5497C67.5891 60.6186 67.5891 59.712 67.5891 58.7319C68.4959 58.7319 69.4273 58.7319 70.4076 58.7319C70.4076 59.6385 70.4076 60.5451 70.4076 61.5497Z" fill="url(#paint2_linear_18_761)"/>
<path d="M73.4468 61.525C73.4468 60.5449 73.4468 59.6629 73.4468 58.7073C74.3781 58.7073 75.2849 58.7073 76.2653 58.7073C76.2653 59.6139 76.2653 60.5449 76.2653 61.525C75.3585 61.525 74.4516 61.525 73.4468 61.525Z" fill="black"/>
<path d="M73.4468 61.525C73.4468 60.5449 73.4468 59.6629 73.4468 58.7073C74.3781 58.7073 75.2849 58.7073 76.2653 58.7073C76.2653 59.6139 76.2653 60.5449 76.2653 61.525C75.3585 61.525 74.4516 61.525 73.4468 61.525Z" fill="url(#paint3_linear_18_761)"/>
<path d="M26.5122 41.0903C27.468 41.0903 28.3749 41.0903 29.3307 41.0903C29.3307 42.0459 29.3307 42.977 29.3307 43.9326C28.3994 43.9326 27.4926 43.9326 26.5122 43.9326C26.5122 43.026 26.5122 42.0949 26.5122 41.0903Z" fill="black"/>
<path d="M26.5122 41.0903C27.468 41.0903 28.3749 41.0903 29.3307 41.0903C29.3307 42.0459 29.3307 42.977 29.3307 43.9326C28.3994 43.9326 27.4926 43.9326 26.5122 43.9326C26.5122 43.026 26.5122 42.0949 26.5122 41.0903Z" fill="url(#paint4_linear_18_761)"/>
<path d="M32.3699 41.0903C33.3257 41.0903 34.2325 41.0903 35.1884 41.0903C35.1884 42.0214 35.1884 42.9525 35.1884 43.9326C34.257 43.9326 33.3257 43.9326 32.3699 43.9326C32.3699 43.0015 32.3699 42.0949 32.3699 41.0903Z" fill="black"/>
<path d="M32.3699 41.0903C33.3257 41.0903 34.2325 41.0903 35.1884 41.0903C35.1884 42.0214 35.1884 42.9525 35.1884 43.9326C34.257 43.9326 33.3257 43.9326 32.3699 43.9326C32.3699 43.0015 32.3699 42.0949 32.3699 41.0903Z" fill="url(#paint5_linear_18_761)"/>
<path d="M38.2278 43.9081C38.2278 42.928 38.2278 42.0214 38.2278 41.0903C39.1591 41.0903 40.0659 41.0903 41.0463 41.0903C41.0463 41.9969 41.0463 42.928 41.0463 43.9081C40.1395 43.9081 39.2081 43.9081 38.2278 43.9081Z" fill="black"/>
<path d="M38.2278 43.9081C38.2278 42.928 38.2278 42.0214 38.2278 41.0903C39.1591 41.0903 40.0659 41.0903 41.0463 41.0903C41.0463 41.9969 41.0463 42.928 41.0463 43.9081C40.1395 43.9081 39.2081 43.9081 38.2278 43.9081Z" fill="url(#paint6_linear_18_761)"/>
<path d="M17.7136 29.3291C18.645 29.3291 19.5518 29.3291 20.5076 29.3291C20.5076 30.2847 20.5076 31.2158 20.5076 32.1714C19.5763 32.1714 18.694 32.1714 17.7136 32.1714C17.7136 31.2893 17.7136 30.3582 17.7136 29.3291Z" fill="black"/>
<path d="M17.7136 29.3291C18.645 29.3291 19.5518 29.3291 20.5076 29.3291C20.5076 30.2847 20.5076 31.2158 20.5076 32.1714C19.5763 32.1714 18.694 32.1714 17.7136 32.1714C17.7136 31.2893 17.7136 30.3582 17.7136 29.3291Z" fill="url(#paint7_linear_18_761)"/>
<path d="M26.3897 32.2204C25.4094 32.2204 24.5515 32.2204 23.5957 32.2204C23.5957 31.2893 23.5957 30.3583 23.5957 29.3782C24.5025 29.3782 25.4094 29.3782 26.3897 29.3782C26.3897 30.2848 26.3897 31.2158 26.3897 32.2204Z" fill="black"/>
<path d="M26.3897 32.2204C25.4094 32.2204 24.5515 32.2204 23.5957 32.2204C23.5957 31.2893 23.5957 30.3583 23.5957 29.3782C24.5025 29.3782 25.4094 29.3782 26.3897 29.3782C26.3897 30.2848 26.3897 31.2158 26.3897 32.2204Z" fill="url(#paint8_linear_18_761)"/>
<path d="M29.429 29.3535C30.3603 29.3535 31.2671 29.3535 32.2475 29.3535C32.2475 30.2846 32.2475 31.1912 32.2475 32.1713C31.3406 32.1713 30.4093 32.1713 29.429 32.1713C29.429 31.2647 29.429 30.3581 29.429 29.3535Z" fill="black"/>
<path d="M29.429 29.3535C30.3603 29.3535 31.2671 29.3535 32.2475 29.3535C32.2475 30.2846 32.2475 31.1912 32.2475 32.1713C31.3406 32.1713 30.4093 32.1713 29.429 32.1713C29.429 31.2647 29.429 30.3581 29.429 29.3535Z" fill="url(#paint9_linear_18_761)"/>
<path d="M58.6925 5.88062C58.6925 6.8362 58.6925 7.74278 58.6925 8.69837C55.8004 8.69837 52.9329 8.69837 50.0164 8.69837C50.0164 7.79179 50.0164 6.8607 50.0164 5.88062C52.8594 5.88062 55.7269 5.88062 58.6925 5.88062Z" fill="black"/>
<path d="M58.6925 5.88062C58.6925 6.8362 58.6925 7.74278 58.6925 8.69837C55.8004 8.69837 52.9329 8.69837 50.0164 8.69837C50.0164 7.79179 50.0164 6.8607 50.0164 5.88062C52.8594 5.88062 55.7269 5.88062 58.6925 5.88062Z" fill="url(#paint10_linear_18_761)"/>
<path d="M58.6678 14.5788C55.7758 14.5788 52.9082 14.5788 49.9917 14.5788C49.9917 13.6477 49.9917 12.7412 49.9917 11.7366C52.8592 11.7366 55.7513 11.7366 58.6678 11.7366C58.6678 12.6677 58.6678 13.5742 58.6678 14.5788Z" fill="black"/>
<path d="M58.6678 14.5788C55.7758 14.5788 52.9082 14.5788 49.9917 14.5788C49.9917 13.6477 49.9917 12.7412 49.9917 11.7366C52.8592 11.7366 55.7513 11.7366 58.6678 11.7366C58.6678 12.6677 58.6678 13.5742 58.6678 14.5788Z" fill="url(#paint11_linear_18_761)"/>
<path d="M76.3877 8.67395C76.3877 7.69387 76.3877 6.81179 76.3877 5.8562C79.2797 5.8562 82.1473 5.8562 85.0638 5.8562C85.0638 6.76278 85.0638 7.69387 85.0638 8.67395C82.2208 8.67395 79.3287 8.67395 76.3877 8.67395Z" fill="black"/>
<path d="M76.3877 8.67395C76.3877 7.69387 76.3877 6.81179 76.3877 5.8562C79.2797 5.8562 82.1473 5.8562 85.0638 5.8562C85.0638 6.76278 85.0638 7.69387 85.0638 8.67395C82.2208 8.67395 79.3287 8.67395 76.3877 8.67395Z" fill="url(#paint12_linear_18_761)"/>
<path d="M85.1126 11.761C85.1126 12.7166 85.1126 13.6232 85.1126 14.5787C82.2206 14.5787 79.3531 14.5787 76.4365 14.5787C76.4365 13.6722 76.4365 12.7411 76.4365 11.761C79.2795 11.761 82.1471 11.761 85.1126 11.761Z" fill="black"/>
<path d="M85.1126 11.761C85.1126 12.7166 85.1126 13.6232 85.1126 14.5787C82.2206 14.5787 79.3531 14.5787 76.4365 14.5787C76.4365 13.6722 76.4365 12.7411 76.4365 11.761C79.2795 11.761 82.1471 11.761 85.1126 11.761Z" fill="url(#paint13_linear_18_761)"/>
<path d="M13.2286 76.2751C15.704 76.2751 17.6402 78.2108 17.6402 80.6855C17.6402 83.1358 15.6795 85.0959 13.2041 85.0714C10.7777 85.0714 8.84154 83.1113 8.84154 80.71C8.81703 78.2353 10.7532 76.2751 13.2286 76.2751ZM14.6991 80.661C14.6746 79.9015 13.9639 79.2154 13.2041 79.2154C12.4443 79.2399 11.7581 79.9505 11.7826 80.71C11.8071 81.4696 12.5179 82.1557 13.2776 82.1557C14.0129 82.1312 14.6991 81.3961 14.6991 80.661Z" fill="black"/>
<path d="M13.2286 76.2751C15.704 76.2751 17.6402 78.2108 17.6402 80.6855C17.6402 83.1358 15.6795 85.0959 13.2041 85.0714C10.7777 85.0714 8.84154 83.1113 8.84154 80.71C8.81703 78.2353 10.7532 76.2751 13.2286 76.2751ZM14.6991 80.661C14.6746 79.9015 13.9639 79.2154 13.2041 79.2154C12.4443 79.2399 11.7581 79.9505 11.7826 80.71C11.8071 81.4696 12.5179 82.1557 13.2776 82.1557C14.0129 82.1312 14.6991 81.3961 14.6991 80.661Z" fill="url(#paint14_linear_18_761)"/>
<path d="M51.389 76.2751C53.8644 76.2751 55.8006 78.2108 55.8006 80.6855C55.8006 83.1358 53.8399 85.0959 51.3645 85.0714C48.9381 85.0714 47.0019 83.1113 47.0019 80.71C46.9774 78.2353 48.9136 76.2751 51.389 76.2751ZM52.8595 80.7591C52.9086 80.024 52.2223 79.2644 51.4625 79.2399C50.7273 79.1909 49.9675 79.877 49.943 80.6365C49.894 81.3716 50.5802 82.1312 51.34 82.1557C52.0753 82.1802 52.8105 81.5186 52.8595 80.7591Z" fill="black"/>
<path d="M51.389 76.2751C53.8644 76.2751 55.8006 78.2108 55.8006 80.6855C55.8006 83.1358 53.8399 85.0959 51.3645 85.0714C48.9381 85.0714 47.0019 83.1113 47.0019 80.71C46.9774 78.2353 48.9136 76.2751 51.389 76.2751ZM52.8595 80.7591C52.9086 80.024 52.2223 79.2644 51.4625 79.2399C50.7273 79.1909 49.9675 79.877 49.943 80.6365C49.894 81.3716 50.5802 82.1312 51.34 82.1557C52.0753 82.1802 52.8105 81.5186 52.8595 80.7591Z" fill="url(#paint15_linear_18_761)"/>
<defs>
<linearGradient id="paint0_linear_18_761" x1="-16.8149" y1="-3.5168e-05" x2="77.1642" y2="2.2954" gradientUnits="userSpaceOnUse">
<stop stop-color="#37DADA"/>
<stop offset="1" stop-color="#254DB5"/>
</linearGradient>
<linearGradient id="paint1_linear_18_761" x1="61.1864" y1="58.7073" x2="64.095" y2="58.7777" gradientUnits="userSpaceOnUse">
<stop stop-color="#37DADA"/>
<stop offset="1" stop-color="#254DB5"/>
</linearGradient>
<linearGradient id="paint2_linear_18_761" x1="67.0687" y1="58.7319" x2="69.9773" y2="58.8029" gradientUnits="userSpaceOnUse">
<stop stop-color="#37DADA"/>
<stop offset="1" stop-color="#254DB5"/>
</linearGradient>
<linearGradient id="paint3_linear_18_761" x1="72.9264" y1="58.7073" x2="75.835" y2="58.7783" gradientUnits="userSpaceOnUse">
<stop stop-color="#37DADA"/>
<stop offset="1" stop-color="#254DB5"/>
</linearGradient>
<linearGradient id="paint4_linear_18_761" x1="25.9918" y1="41.0903" x2="28.9004" y2="41.1607" gradientUnits="userSpaceOnUse">
<stop stop-color="#37DADA"/>
<stop offset="1" stop-color="#254DB5"/>
</linearGradient>
<linearGradient id="paint5_linear_18_761" x1="31.8495" y1="41.0903" x2="34.7581" y2="41.1607" gradientUnits="userSpaceOnUse">
<stop stop-color="#37DADA"/>
<stop offset="1" stop-color="#254DB5"/>
</linearGradient>
<linearGradient id="paint6_linear_18_761" x1="37.7074" y1="41.0903" x2="40.616" y2="41.1613" gradientUnits="userSpaceOnUse">
<stop stop-color="#37DADA"/>
<stop offset="1" stop-color="#254DB5"/>
</linearGradient>
<linearGradient id="paint7_linear_18_761" x1="17.1977" y1="29.3291" x2="20.0811" y2="29.3983" gradientUnits="userSpaceOnUse">
<stop stop-color="#37DADA"/>
<stop offset="1" stop-color="#254DB5"/>
</linearGradient>
<linearGradient id="paint8_linear_18_761" x1="23.0798" y1="29.3782" x2="25.9632" y2="29.4474" gradientUnits="userSpaceOnUse">
<stop stop-color="#37DADA"/>
<stop offset="1" stop-color="#254DB5"/>
</linearGradient>
<linearGradient id="paint9_linear_18_761" x1="28.9085" y1="29.3535" x2="31.8171" y2="29.4245" gradientUnits="userSpaceOnUse">
<stop stop-color="#37DADA"/>
<stop offset="1" stop-color="#254DB5"/>
</linearGradient>
<linearGradient id="paint10_linear_18_761" x1="48.4144" y1="5.88061" x2="57.3228" y2="6.55008" gradientUnits="userSpaceOnUse">
<stop stop-color="#37DADA"/>
<stop offset="1" stop-color="#254DB5"/>
</linearGradient>
<linearGradient id="paint11_linear_18_761" x1="48.3897" y1="11.7366" x2="57.299" y2="12.4003" gradientUnits="userSpaceOnUse">
<stop stop-color="#37DADA"/>
<stop offset="1" stop-color="#254DB5"/>
</linearGradient>
<linearGradient id="paint12_linear_18_761" x1="74.7857" y1="5.8562" x2="83.6942" y2="6.52567" gradientUnits="userSpaceOnUse">
<stop stop-color="#37DADA"/>
<stop offset="1" stop-color="#254DB5"/>
</linearGradient>
<linearGradient id="paint13_linear_18_761" x1="74.8346" y1="11.761" x2="83.743" y2="12.4305" gradientUnits="userSpaceOnUse">
<stop stop-color="#37DADA"/>
<stop offset="1" stop-color="#254DB5"/>
</linearGradient>
<linearGradient id="paint14_linear_18_761" x1="7.21668" y1="76.2751" x2="16.2968" y2="76.4968" gradientUnits="userSpaceOnUse">
<stop stop-color="#37DADA"/>
<stop offset="1" stop-color="#254DB5"/>
</linearGradient>
<linearGradient id="paint15_linear_18_761" x1="45.3771" y1="76.2751" x2="54.4572" y2="76.4968" gradientUnits="userSpaceOnUse">
<stop stop-color="#37DADA"/>
<stop offset="1" stop-color="#254DB5"/>
</linearGradient>
</defs>
</svg>
