<svg width="88" height="91" viewBox="0 0 88 91" fill="none" xmlns="http://www.w3.org/2000/svg">
<path d="M46.1436 0C47.7904 0.284886 49.4372 0.522291 51.037 0.902139C63.5057 3.79848 73.2454 14.268 75.3863 26.9929C75.5039 27.6814 75.6451 28.3936 75.6921 29.1058C75.7862 30.0792 75.3392 30.6965 74.5393 30.7914C73.7395 30.8864 73.1748 30.4116 73.0572 29.4145C72.4691 24.5477 70.9399 20.0132 68.1638 15.9774C63.1528 8.64154 56.3068 4.17833 47.5552 2.9913C32.381 0.94962 18.5713 10.3034 14.7366 25.1174C11.2312 38.6495 17.442 52.8463 29.7931 59.2563C32.3339 60.5857 33.5573 62.4612 33.4632 65.3338C33.3926 67.4705 33.4396 67.4705 35.604 67.4705C37.7449 67.4705 39.8857 67.4705 42.0972 67.4705C42.1207 67.0906 42.1442 66.7583 42.1442 66.4496C42.1442 60.2059 42.1442 53.9621 42.1677 47.6947C42.1677 47.0537 41.956 46.7213 41.4384 46.3652C40.0269 45.3681 38.78 45.2019 37.0156 45.8429C28.758 48.763 19.8181 42.8516 18.9006 34.0676C18.736 32.477 19.5594 31.0763 21.018 30.4353C28.8756 26.9692 38.4977 32.1921 39.9798 40.7387C40.0034 40.8811 40.0269 41.0236 40.0504 41.166C40.3562 42.8279 40.3562 42.8279 42.0736 43.5638C42.0972 43.3027 42.1442 43.0415 42.1442 42.8041C42.1442 40.2876 42.1207 37.7711 42.1677 35.2546C42.1677 34.6849 41.9795 34.3525 41.5325 34.0201C35.3217 29.272 35.2746 19.6096 41.462 14.8853C42.85 13.817 44.191 13.817 45.5555 14.8853C51.6957 19.5859 51.6957 29.2245 45.5319 33.9726C45.0379 34.3525 44.8262 34.7323 44.8497 35.3496C44.8967 37.7711 44.8732 40.2164 44.8732 42.6379C44.8732 42.9228 44.8732 43.2077 44.8732 43.6588C45.5555 43.2789 46.1201 42.9703 46.6612 42.6379C46.7788 42.543 46.8494 42.3056 46.8729 42.1156C47.7904 32.7856 57.2243 26.9217 65.7877 30.3404C67.6227 31.0763 68.3991 32.5245 68.0932 34.4949C67.6227 37.5812 66.3288 40.2401 64.1409 42.448C63.3646 43.2314 62.3765 43.2314 61.8824 42.4243C61.4119 41.6408 61.7413 41.0473 62.3059 40.4538C64.0703 38.6495 65.1055 36.4654 65.4348 33.9489C65.5054 33.3791 65.3643 33.023 64.8467 32.8331C58.5888 30.3641 51.6251 33.9014 49.8607 40.4063C49.8372 40.4775 49.8842 40.5725 49.9077 40.7624C50.2606 40.5725 50.5429 40.4063 50.8488 40.2401C53.7189 38.5783 56.5891 36.9165 59.4828 35.2546C60.2827 34.8036 61.059 35.0172 61.4354 35.7057C61.8118 36.3942 61.5766 37.0827 60.8002 37.5812C60.6591 37.6762 60.4944 37.7474 60.3297 37.8423C57.5066 39.4804 54.6835 41.1185 51.8604 42.7329C51.6016 42.8753 51.3663 43.0178 51.084 43.4214C51.9074 43.5638 52.7544 43.8012 53.5778 43.8012C54.66 43.8012 55.7186 43.635 56.8008 43.5401C56.9655 43.5163 57.1537 43.4688 57.3184 43.4451C58.1653 43.3501 58.73 43.7537 58.8711 44.5134C58.9887 45.2019 58.6123 45.8666 57.8595 46.0566C54.66 46.84 51.531 46.6738 48.4962 45.2731C48.2139 45.1307 47.7669 45.1307 47.4846 45.2731C46.5906 45.7242 45.4614 46.0803 44.9908 46.84C44.5438 47.5522 44.8262 48.7392 44.8262 49.7126C44.8262 55.2204 44.8262 60.7282 44.8262 66.236C44.8262 66.5921 44.8262 66.9482 44.8262 67.3518C45.1085 67.3755 45.3437 67.423 45.5555 67.423C47.7669 67.423 49.9548 67.423 52.1662 67.423C53.2955 67.423 53.5072 67.1856 53.5307 66.0935C53.5307 65.3338 53.4837 64.5504 53.5778 63.7907C53.8601 61.844 54.9188 60.4433 56.6597 59.5174C65.2231 55.0305 70.5399 48.0033 72.6102 38.5071C72.822 37.5812 72.9161 36.6316 73.0572 35.7057C73.1748 34.8273 73.7159 34.2575 74.4688 34.305C75.2451 34.3525 75.7862 34.9697 75.6921 35.9194C75.3627 39.7891 74.3041 43.4688 72.6102 46.935C69.4342 53.4636 64.6114 58.4254 58.1889 61.749C56.7773 62.485 56.1186 63.5058 56.2127 65.0727C56.2362 65.6899 56.2127 66.3072 56.1656 66.9482C56.1186 67.9216 55.6951 68.7762 54.9188 69.2985C54.3071 69.7021 54.1895 70.1769 54.1895 70.8416C54.213 73.2632 54.213 75.7084 54.1895 78.13C54.1659 80.5752 53.0837 82.4507 50.9194 83.614C50.4724 83.8514 50.3312 84.1363 50.2842 84.6111C49.9313 88.0298 47.3905 90.6887 44.191 90.9736C40.8032 91.2585 37.8154 89.2168 36.8979 85.9643C36.7333 85.4183 35.3217 83.2579 34.8747 82.8543C33.4867 81.6436 32.7574 80.1004 32.7574 78.2487C32.7339 75.7084 32.7339 73.1445 32.7574 70.6042C32.7574 70.0819 32.6633 69.7496 32.1928 69.4409C31.2988 68.8237 30.8047 67.9453 30.7577 66.8295C30.7342 66.236 30.7106 65.6425 30.7342 65.049C30.8047 63.5296 30.1695 62.5325 28.7815 61.7965C20.5945 57.4995 15.0894 50.8996 12.4075 41.9732C6.97302 23.8117 18.2654 4.60566 36.7097 0.712215C38.0742 0.427329 39.4623 0.237405 40.8503 0C42.6147 0 44.3792 0 46.1436 0ZM36.1451 43.3501C33.4161 41.7833 30.8988 40.3351 28.4051 38.8632C27.6287 38.4121 26.8053 37.9848 26.0525 37.4862C25.3938 37.0589 25.2526 36.323 25.629 35.7057C25.9819 35.0884 26.7112 34.8748 27.3935 35.1834C27.6523 35.3021 27.911 35.4683 28.1698 35.6107C30.9694 37.2251 33.769 38.8394 36.5686 40.4538C36.7568 40.5488 36.9685 40.62 37.1802 40.7149C37.2038 40.5725 37.2273 40.525 37.2273 40.4775C35.8393 34.1626 28.1934 30.2691 22.2884 32.8568C21.7237 33.0942 21.5591 33.4266 21.6532 34.0439C22.3119 38.3172 24.5939 41.3085 28.4992 43.0178C30.8518 44.0861 33.3455 44.2048 36.1451 43.3501ZM35.5099 70.2244C35.5099 71.6251 35.5099 73.0258 35.5099 74.4502C40.8503 74.4502 46.1436 74.4502 51.5075 74.4502C51.5075 73.0258 51.5075 71.6488 51.5075 70.2244C46.1907 70.2244 40.9209 70.2244 35.5099 70.2244ZM51.4605 77.2991C46.1201 77.2991 40.8268 77.2991 35.5334 77.2991C35.157 79.8393 36.5686 81.5723 38.9917 81.5723C41.9795 81.5723 44.9673 81.5723 47.9551 81.5723C50.4018 81.5723 51.8369 79.863 51.4605 77.2991ZM44.8732 30.7202C44.9673 30.7677 45.0379 30.8152 45.132 30.8626C45.2026 30.7439 45.2496 30.6015 45.3437 30.4828C48.6609 26.5656 48.0963 20.488 44.1674 17.2119C43.6734 16.8083 43.3676 16.8083 42.8735 17.2119C39.6975 19.8471 38.5918 24.4764 40.3562 28.2987C40.7562 29.2008 41.3914 30.008 41.9089 30.8626C42.003 30.8152 42.0736 30.7677 42.1677 30.7202C42.1677 30.3878 42.1677 30.0792 42.1677 29.7468C42.1677 27.7052 42.1442 25.6635 42.1677 23.6218C42.1677 22.4585 42.897 21.77 43.8616 22.0549C44.685 22.2923 44.8732 22.9571 44.8732 23.7168C44.8497 26.0433 44.8732 28.3936 44.8732 30.7202ZM47.5552 84.3262C44.8262 84.3262 42.1442 84.3262 39.4858 84.3262C39.3917 86.3917 41.2267 88.2434 43.4146 88.3146C45.6025 88.3859 47.5552 86.5578 47.5552 84.3262Z" fill="black"/>
<path d="M46.1436 0C47.7904 0.284886 49.4372 0.522291 51.037 0.902139C63.5057 3.79848 73.2454 14.268 75.3863 26.9929C75.5039 27.6814 75.6451 28.3936 75.6921 29.1058C75.7862 30.0792 75.3392 30.6965 74.5393 30.7914C73.7395 30.8864 73.1748 30.4116 73.0572 29.4145C72.4691 24.5477 70.9399 20.0132 68.1638 15.9774C63.1528 8.64154 56.3068 4.17833 47.5552 2.9913C32.381 0.94962 18.5713 10.3034 14.7366 25.1174C11.2312 38.6495 17.442 52.8463 29.7931 59.2563C32.3339 60.5857 33.5573 62.4612 33.4632 65.3338C33.3926 67.4705 33.4396 67.4705 35.604 67.4705C37.7449 67.4705 39.8857 67.4705 42.0972 67.4705C42.1207 67.0906 42.1442 66.7583 42.1442 66.4496C42.1442 60.2059 42.1442 53.9621 42.1677 47.6947C42.1677 47.0537 41.956 46.7213 41.4384 46.3652C40.0269 45.3681 38.78 45.2019 37.0156 45.8429C28.758 48.763 19.8181 42.8516 18.9006 34.0676C18.736 32.477 19.5594 31.0763 21.018 30.4353C28.8756 26.9692 38.4977 32.1921 39.9798 40.7387C40.0034 40.8811 40.0269 41.0236 40.0504 41.166C40.3562 42.8279 40.3562 42.8279 42.0736 43.5638C42.0972 43.3027 42.1442 43.0415 42.1442 42.8041C42.1442 40.2876 42.1207 37.7711 42.1677 35.2546C42.1677 34.6849 41.9795 34.3525 41.5325 34.0201C35.3217 29.272 35.2746 19.6096 41.462 14.8853C42.85 13.817 44.191 13.817 45.5555 14.8853C51.6957 19.5859 51.6957 29.2245 45.5319 33.9726C45.0379 34.3525 44.8262 34.7323 44.8497 35.3496C44.8967 37.7711 44.8732 40.2164 44.8732 42.6379C44.8732 42.9228 44.8732 43.2077 44.8732 43.6588C45.5555 43.2789 46.1201 42.9703 46.6612 42.6379C46.7788 42.543 46.8494 42.3056 46.8729 42.1156C47.7904 32.7856 57.2243 26.9217 65.7877 30.3404C67.6227 31.0763 68.3991 32.5245 68.0932 34.4949C67.6227 37.5812 66.3288 40.2401 64.1409 42.448C63.3646 43.2314 62.3765 43.2314 61.8824 42.4243C61.4119 41.6408 61.7413 41.0473 62.3059 40.4538C64.0703 38.6495 65.1055 36.4654 65.4348 33.9489C65.5054 33.3791 65.3643 33.023 64.8467 32.8331C58.5888 30.3641 51.6251 33.9014 49.8607 40.4063C49.8372 40.4775 49.8842 40.5725 49.9077 40.7624C50.2606 40.5725 50.5429 40.4063 50.8488 40.2401C53.7189 38.5783 56.5891 36.9165 59.4828 35.2546C60.2827 34.8036 61.059 35.0172 61.4354 35.7057C61.8118 36.3942 61.5766 37.0827 60.8002 37.5812C60.6591 37.6762 60.4944 37.7474 60.3297 37.8423C57.5066 39.4804 54.6835 41.1185 51.8604 42.7329C51.6016 42.8753 51.3663 43.0178 51.084 43.4214C51.9074 43.5638 52.7544 43.8012 53.5778 43.8012C54.66 43.8012 55.7186 43.635 56.8008 43.5401C56.9655 43.5163 57.1537 43.4688 57.3184 43.4451C58.1653 43.3501 58.73 43.7537 58.8711 44.5134C58.9887 45.2019 58.6123 45.8666 57.8595 46.0566C54.66 46.84 51.531 46.6738 48.4962 45.2731C48.2139 45.1307 47.7669 45.1307 47.4846 45.2731C46.5906 45.7242 45.4614 46.0803 44.9908 46.84C44.5438 47.5522 44.8262 48.7392 44.8262 49.7126C44.8262 55.2204 44.8262 60.7282 44.8262 66.236C44.8262 66.5921 44.8262 66.9482 44.8262 67.3518C45.1085 67.3755 45.3437 67.423 45.5555 67.423C47.7669 67.423 49.9548 67.423 52.1662 67.423C53.2955 67.423 53.5072 67.1856 53.5307 66.0935C53.5307 65.3338 53.4837 64.5504 53.5778 63.7907C53.8601 61.844 54.9188 60.4433 56.6597 59.5174C65.2231 55.0305 70.5399 48.0033 72.6102 38.5071C72.822 37.5812 72.9161 36.6316 73.0572 35.7057C73.1748 34.8273 73.7159 34.2575 74.4688 34.305C75.2451 34.3525 75.7862 34.9697 75.6921 35.9194C75.3627 39.7891 74.3041 43.4688 72.6102 46.935C69.4342 53.4636 64.6114 58.4254 58.1889 61.749C56.7773 62.485 56.1186 63.5058 56.2127 65.0727C56.2362 65.6899 56.2127 66.3072 56.1656 66.9482C56.1186 67.9216 55.6951 68.7762 54.9188 69.2985C54.3071 69.7021 54.1895 70.1769 54.1895 70.8416C54.213 73.2632 54.213 75.7084 54.1895 78.13C54.1659 80.5752 53.0837 82.4507 50.9194 83.614C50.4724 83.8514 50.3312 84.1363 50.2842 84.6111C49.9313 88.0298 47.3905 90.6887 44.191 90.9736C40.8032 91.2585 37.8154 89.2168 36.8979 85.9643C36.7333 85.4183 35.3217 83.2579 34.8747 82.8543C33.4867 81.6436 32.7574 80.1004 32.7574 78.2487C32.7339 75.7084 32.7339 73.1445 32.7574 70.6042C32.7574 70.0819 32.6633 69.7496 32.1928 69.4409C31.2988 68.8237 30.8047 67.9453 30.7577 66.8295C30.7342 66.236 30.7106 65.6425 30.7342 65.049C30.8047 63.5296 30.1695 62.5325 28.7815 61.7965C20.5945 57.4995 15.0894 50.8996 12.4075 41.9732C6.97302 23.8117 18.2654 4.60566 36.7097 0.712215C38.0742 0.427329 39.4623 0.237405 40.8503 0C42.6147 0 44.3792 0 46.1436 0ZM36.1451 43.3501C33.4161 41.7833 30.8988 40.3351 28.4051 38.8632C27.6287 38.4121 26.8053 37.9848 26.0525 37.4862C25.3938 37.0589 25.2526 36.323 25.629 35.7057C25.9819 35.0884 26.7112 34.8748 27.3935 35.1834C27.6523 35.3021 27.911 35.4683 28.1698 35.6107C30.9694 37.2251 33.769 38.8394 36.5686 40.4538C36.7568 40.5488 36.9685 40.62 37.1802 40.7149C37.2038 40.5725 37.2273 40.525 37.2273 40.4775C35.8393 34.1626 28.1934 30.2691 22.2884 32.8568C21.7237 33.0942 21.5591 33.4266 21.6532 34.0439C22.3119 38.3172 24.5939 41.3085 28.4992 43.0178C30.8518 44.0861 33.3455 44.2048 36.1451 43.3501ZM35.5099 70.2244C35.5099 71.6251 35.5099 73.0258 35.5099 74.4502C40.8503 74.4502 46.1436 74.4502 51.5075 74.4502C51.5075 73.0258 51.5075 71.6488 51.5075 70.2244C46.1907 70.2244 40.9209 70.2244 35.5099 70.2244ZM51.4605 77.2991C46.1201 77.2991 40.8268 77.2991 35.5334 77.2991C35.157 79.8393 36.5686 81.5723 38.9917 81.5723C41.9795 81.5723 44.9673 81.5723 47.9551 81.5723C50.4018 81.5723 51.8369 79.863 51.4605 77.2991ZM44.8732 30.7202C44.9673 30.7677 45.0379 30.8152 45.132 30.8626C45.2026 30.7439 45.2496 30.6015 45.3437 30.4828C48.6609 26.5656 48.0963 20.488 44.1674 17.2119C43.6734 16.8083 43.3676 16.8083 42.8735 17.2119C39.6975 19.8471 38.5918 24.4764 40.3562 28.2987C40.7562 29.2008 41.3914 30.008 41.9089 30.8626C42.003 30.8152 42.0736 30.7677 42.1677 30.7202C42.1677 30.3878 42.1677 30.0792 42.1677 29.7468C42.1677 27.7052 42.1442 25.6635 42.1677 23.6218C42.1677 22.4585 42.897 21.77 43.8616 22.0549C44.685 22.2923 44.8732 22.9571 44.8732 23.7168C44.8497 26.0433 44.8732 28.3936 44.8732 30.7202ZM47.5552 84.3262C44.8262 84.3262 42.1442 84.3262 39.4858 84.3262C39.3917 86.3917 41.2267 88.2434 43.4146 88.3146C45.6025 88.3859 47.5552 86.5578 47.5552 84.3262Z" fill="url(#paint0_linear_18_842)"/>
<path d="M4.14995 31.3133C5.02041 31.3133 5.91439 31.2895 6.78485 31.3133C7.74941 31.337 8.29051 31.8356 8.31404 32.6665C8.31404 33.4974 7.79647 34.0197 6.8319 34.0434C5.04394 34.0672 3.25597 34.0672 1.49153 34.0434C0.526969 34.0197 0.00939941 33.4974 0.00939941 32.6665C0.0329253 31.8593 0.574021 31.3608 1.53858 31.337C2.38551 31.2895 3.2795 31.3133 4.14995 31.3133Z" fill="black"/>
<path d="M4.14995 31.3133C5.02041 31.3133 5.91439 31.2895 6.78485 31.3133C7.74941 31.337 8.29051 31.8356 8.31404 32.6665C8.31404 33.4974 7.79647 34.0197 6.8319 34.0434C5.04394 34.0672 3.25597 34.0672 1.49153 34.0434C0.526969 34.0197 0.00939941 33.4974 0.00939941 32.6665C0.0329253 31.8593 0.574021 31.3608 1.53858 31.337C2.38551 31.2895 3.2795 31.3133 4.14995 31.3133Z" fill="url(#paint1_linear_18_842)"/>
<path d="M82.8675 34.0434C81.997 34.0434 81.103 34.0671 80.2326 34.0434C79.1974 34.0196 78.6799 33.4973 78.7034 32.6189C78.7269 31.8118 79.2915 31.337 80.2796 31.3132C81.997 31.2895 83.7379 31.2895 85.4553 31.3132C86.4669 31.3132 87.0316 31.8355 87.0316 32.6902C87.0316 33.5211 86.514 33.9959 85.5024 34.0196C84.6084 34.0671 83.7379 34.0434 82.8675 34.0434Z" fill="black"/>
<path d="M82.8675 34.0434C81.997 34.0434 81.103 34.0671 80.2326 34.0434C79.1974 34.0196 78.6799 33.4973 78.7034 32.6189C78.7269 31.8118 79.2915 31.337 80.2796 31.3132C81.997 31.2895 83.7379 31.2895 85.4553 31.3132C86.4669 31.3132 87.0316 31.8355 87.0316 32.6902C87.0316 33.5211 86.514 33.9959 85.5024 34.0196C84.6084 34.0671 83.7379 34.0434 82.8675 34.0434Z" fill="url(#paint2_linear_18_842)"/>
<path d="M81.3619 11.7041C81.2207 11.8702 80.9855 12.3451 80.609 12.5825C79.0328 13.5558 77.433 14.4817 75.8333 15.3838C75.0805 15.8112 74.3276 15.5975 73.9512 14.909C73.5983 14.2443 73.763 13.5321 74.4923 13.081C76.0921 12.1077 77.7154 11.158 79.3622 10.2559C80.3503 9.70986 81.3619 10.3271 81.3619 11.7041Z" fill="black"/>
<path d="M81.3619 11.7041C81.2207 11.8702 80.9855 12.3451 80.609 12.5825C79.0328 13.5558 77.433 14.4817 75.8333 15.3838C75.0805 15.8112 74.3276 15.5975 73.9512 14.909C73.5983 14.2443 73.763 13.5321 74.4923 13.081C76.0921 12.1077 77.7154 11.158 79.3622 10.2559C80.3503 9.70986 81.3619 10.3271 81.3619 11.7041Z" fill="url(#paint3_linear_18_842)"/>
<path d="M12.0781 15.7638C11.5605 15.5502 11.2312 15.4315 10.9253 15.2653C9.44322 14.4106 7.98461 13.556 6.52601 12.7013C5.63202 12.179 5.37324 11.4668 5.7967 10.7308C6.19664 10.0186 6.973 9.87619 7.86698 10.3747C9.41969 11.2769 10.9724 12.179 12.5016 13.0812C13.0897 13.4373 13.4191 14.0308 13.1368 14.648C12.925 15.0991 12.431 15.4077 12.0781 15.7638Z" fill="black"/>
<path d="M12.0781 15.7638C11.5605 15.5502 11.2312 15.4315 10.9253 15.2653C9.44322 14.4106 7.98461 13.556 6.52601 12.7013C5.63202 12.179 5.37324 11.4668 5.7967 10.7308C6.19664 10.0186 6.973 9.87619 7.86698 10.3747C9.41969 11.2769 10.9724 12.179 12.5016 13.0812C13.0897 13.4373 13.4191 14.0308 13.1368 14.648C12.925 15.0991 12.431 15.4077 12.0781 15.7638Z" fill="url(#paint4_linear_18_842)"/>
<path d="M75.2923 49.7603C75.4334 49.8315 75.7157 49.9027 75.9745 50.0451C77.4802 50.8998 78.9623 51.7782 80.4679 52.6566C81.3855 53.2026 81.6442 53.8911 81.2443 54.6271C80.8444 55.3868 80.0445 55.5055 79.1034 54.9832C77.5743 54.1048 76.0686 53.2264 74.5394 52.3242C73.9513 51.9681 73.669 51.4458 73.8572 50.7574C74.0219 50.1164 74.4688 49.7603 75.2923 49.7603Z" fill="black"/>
<path d="M75.2923 49.7603C75.4334 49.8315 75.7157 49.9027 75.9745 50.0451C77.4802 50.8998 78.9623 51.7782 80.4679 52.6566C81.3855 53.2026 81.6442 53.8911 81.2443 54.6271C80.8444 55.3868 80.0445 55.5055 79.1034 54.9832C77.5743 54.1048 76.0686 53.2264 74.5394 52.3242C73.9513 51.9681 73.669 51.4458 73.8572 50.7574C74.0219 50.1164 74.4688 49.7603 75.2923 49.7603Z" fill="url(#paint5_linear_18_842)"/>
<path d="M13.2074 51.4218C13.0662 51.588 12.831 52.0628 12.431 52.3002C10.8783 53.2499 9.30208 54.152 7.72584 55.0541C6.94949 55.4815 6.19666 55.3153 5.79672 54.6505C5.37325 53.9383 5.58499 53.2024 6.40839 52.7276C7.9611 51.8017 9.53733 50.8758 11.1136 49.9737C12.1487 49.4276 13.2309 50.0449 13.2074 51.4218Z" fill="black"/>
<path d="M13.2074 51.4218C13.0662 51.588 12.831 52.0628 12.431 52.3002C10.8783 53.2499 9.30208 54.152 7.72584 55.0541C6.94949 55.4815 6.19666 55.3153 5.79672 54.6505C5.37325 53.9383 5.58499 53.2024 6.40839 52.7276C7.9611 51.8017 9.53733 50.8758 11.1136 49.9737C12.1487 49.4276 13.2309 50.0449 13.2074 51.4218Z" fill="url(#paint6_linear_18_842)"/>
<defs>
<linearGradient id="paint0_linear_18_842" x1="-0.900798" y1="-3.5168e-05" x2="65.8511" y2="1.15768" gradientUnits="userSpaceOnUse">
<stop stop-color="#37DADA"/>
<stop offset="1" stop-color="#254DB5"/>
</linearGradient>
<linearGradient id="paint1_linear_18_842" x1="-1.52397" y1="31.3027" x2="7.00515" y2="31.9294" gradientUnits="userSpaceOnUse">
<stop stop-color="#37DADA"/>
<stop offset="1" stop-color="#254DB5"/>
</linearGradient>
<linearGradient id="paint2_linear_18_842" x1="77.1648" y1="31.2954" x2="85.7186" y2="31.9258" gradientUnits="userSpaceOnUse">
<stop stop-color="#37DADA"/>
<stop offset="1" stop-color="#254DB5"/>
</linearGradient>
<linearGradient id="paint3_linear_18_842" x1="72.3713" y1="10.0581" x2="80.1991" y2="10.3195" gradientUnits="userSpaceOnUse">
<stop stop-color="#37DADA"/>
<stop offset="1" stop-color="#254DB5"/>
</linearGradient>
<linearGradient id="paint4_linear_18_842" x1="4.18727" y1="10.0796" x2="12.0689" y2="10.3382" gradientUnits="userSpaceOnUse">
<stop stop-color="#37DADA"/>
<stop offset="1" stop-color="#254DB5"/>
</linearGradient>
<linearGradient id="paint5_linear_18_842" x1="72.391" y1="49.7603" x2="80.2577" y2="50.0245" gradientUnits="userSpaceOnUse">
<stop stop-color="#37DADA"/>
<stop offset="1" stop-color="#254DB5"/>
</linearGradient>
<linearGradient id="paint6_linear_18_842" x1="4.17647" y1="49.7759" x2="12.0395" y2="50.0412" gradientUnits="userSpaceOnUse">
<stop stop-color="#37DADA"/>
<stop offset="1" stop-color="#254DB5"/>
</linearGradient>
</defs>
</svg>
