<?xml version="1.0" encoding="utf-8"?>
<!-- Generator: Adobe Illustrator 25.2.0, SVG Export Plug-In . SVG Version: 6.00 Build 0)  -->
<svg version="1.1" id="Layer_1" xmlns="http://www.w3.org/2000/svg" xmlns:xlink="http://www.w3.org/1999/xlink" x="0px" y="0px"
	 viewBox="0 0 60 60" style="enable-background:new 0 0 60 60;" xml:space="preserve">
<style type="text/css">
	.st0{fill:#FFFFFF;}
</style>
<g id="call-calling-2_2_">
	<g id="Vector_28_">
		<path class="st0" d="M41.5,57.2c0,0-0.1,0-0.1,0c-2.9-0.1-5.8-0.7-8.5-1.9c-3-1.3-5.9-2.9-8.5-4.9c-2.8-2.1-5.5-4.4-8-6.8
			c-2.5-2.5-4.8-5.2-6.8-8c-1.9-2.6-3.6-5.5-4.9-8.4c-1.2-2.7-1.8-5.5-1.9-8.5c0-1.8,0.3-3.6,1-5.3c0.7-1.8,1.8-3.3,3.2-4.6
			c1.5-1.6,3.8-2.7,6.1-2.7c1,0,1.9,0.2,2.7,0.6c0.9,0.4,1.7,1.1,2.3,1.9l5.5,7.8c0.4,0.6,0.8,1.3,1.1,2c0.3,0.6,0.5,1.4,0.5,2.1
			c0,1-0.3,1.9-0.8,2.7c-0.4,0.7-1,1.4-1.6,2l-1.6,1.7c0,0.1,0,0.1,0.1,0.2c0.6,0.9,1.2,1.8,1.9,2.6c1.2,1.4,2.3,2.6,3.4,3.7
			c1.4,1.4,2.6,2.5,3.7,3.4c0.9,0.8,1.8,1.4,2.7,2l0.1,0l1.6-1.6c0.6-0.6,1.3-1.2,2.1-1.6c0.7-0.5,1.6-0.7,2.6-0.7
			c0.8,0,1.5,0.2,2.2,0.5c0.7,0.3,1.4,0.7,2,1.1l7.9,5.6c0.8,0.5,1.5,1.3,1.9,2.2c0.4,0.8,0.5,1.7,0.5,2.6v0c0,1.2-0.3,2.3-0.8,3.4
			c-0.5,1-1.1,2-1.9,2.9c-1.2,1.4-2.8,2.5-4.5,3.2C45,56.9,43.3,57.2,41.5,57.2z M13.2,9.7C13.2,9.7,13.2,9.7,13.2,9.7
			c-1.4,0-2.7,0.6-3.7,1.7c-1.1,1-1.9,2.2-2.4,3.4c-0.5,1.2-0.7,2.6-0.7,3.9c0,2.4,0.6,4.8,1.6,7.1c1.2,2.8,2.7,5.4,4.5,7.8
			c1.9,2.7,4.1,5.2,6.5,7.6c2.4,2.3,4.9,4.5,7.6,6.5c2.4,1.8,5.1,3.3,7.8,4.5c2.3,1,4.6,1.5,7.1,1.6c1.4,0,2.7-0.2,3.9-0.8
			c1.2-0.5,2.4-1.3,3.2-2.3c0.6-0.6,1-1.3,1.3-2c0.3-0.6,0.4-1.2,0.4-1.8c0-0.4-0.1-0.8-0.2-1.2c-0.1-0.3-0.4-0.5-0.6-0.7l-7.9-5.6
			c-0.4-0.3-0.9-0.5-1.3-0.7c-0.2-0.1-0.5-0.2-0.8-0.2c-0.2,0-0.5,0.1-0.7,0.2c-0.6,0.3-1,0.7-1.4,1.1l-1.8,1.8
			c-0.6,0.6-1.4,1-2.3,0.9c-0.3,0-0.8-0.1-1.2-0.2l-0.7-0.3c-1.2-0.7-2.3-1.5-3.4-2.4c-1.1-1-2.3-2.1-3.9-3.6
			c-1.2-1.2-2.3-2.4-3.5-3.9c-0.9-1-1.7-2.1-2.4-3.3l-0.3-0.8c-0.1-0.5-0.2-0.8-0.2-1.2c0-0.8,0.3-1.6,0.9-2.2l1.8-1.8
			c0.4-0.4,0.8-0.9,1.1-1.4c0.2-0.3,0.2-0.5,0.3-0.8c0-0.2-0.1-0.5-0.2-0.7c-0.2-0.5-0.5-0.9-0.8-1.3l-5.5-7.8
			c-0.2-0.3-0.5-0.6-0.9-0.7C14,9.8,13.6,9.7,13.2,9.7z"/>
	</g>
	<g id="Vector-2_38_">
		<path class="st0" d="M43.9,26.3c-0.9,0-1.6-0.6-1.8-1.5c-0.2-1.7-1-3.2-2.3-4.4c-1.2-1.4-2.8-2.3-4.5-2.4c-1-0.1-1.7-1-1.6-1.9
			c0.1-1,0.9-1.7,1.9-1.6c2.6,0.2,5.1,1.5,6.8,3.6c1.6,1.6,2.8,3.8,3.2,6.3c0.1,1-0.5,1.9-1.5,2C44.1,26.3,44,26.3,43.9,26.3z"/>
	</g>
	<g id="Vector-3_28_">
		<path class="st0" d="M52.2,26.3c-1,0-1.8-0.8-1.8-1.8c0-8.2-6.7-14.9-14.9-14.9c-1,0-1.8-0.8-1.8-1.8s0.8-1.8,1.8-1.8
			C45.7,6.1,54,14.4,54,24.5C54,25.5,53.2,26.3,52.2,26.3z"/>
	</g>
</g>
</svg>
