<?xml version="1.0" encoding="utf-8"?>
<!-- Generator: Adobe Illustrator 25.2.0, SVG Export Plug-In . SVG Version: 6.00 Build 0)  -->
<svg version="1.1" id="Layer_1" xmlns="http://www.w3.org/2000/svg" xmlns:xlink="http://www.w3.org/1999/xlink" x="0px" y="0px"
	 viewBox="0 0 60 60" style="enable-background:new 0 0 60 60;" xml:space="preserve">
<style type="text/css">
	.st0{fill:#FFFFFF;}
</style>
<path class="st0" d="M50.9,11.1H8.7c-4.2,0-7.1,2.9-7.1,7v25.1c0,3.9,3.2,7,7.1,7h42.2c3.9,0,7.1-3.1,7.1-7V18.1
	C58,14.6,55.6,11.1,50.9,11.1z M6.9,15.2c0.4-0.9,1.2-1.5,2.2-1.5h41.9c1.2,0,2.2,0.6,2.6,1.5c0.4,0.9,0.2,2-0.5,2.8L33.3,36.5
	c-0.1,0.1-1.7,1.7-3.8,1.7c-1.3,0-2.4-0.6-3.5-1.8L7.5,18C6.7,17.3,6.5,16.2,6.9,15.2z M55.1,43.2c0,2.3-1.9,4.2-4.2,4.2H8.7
	c-2.3,0-4.2-1.9-4.2-4.2V25.9c0-1.2,0.7-2.2,1.7-2.6c1.1-0.5,2.3-0.2,3.1,0.6l16.5,15.9c1.1,1.1,2.5,1.6,4,1.6c1.5,0,2.9-0.6,4-1.6
	l16.8-16.1c0.8-0.8,1.9-1,2.9-0.5c1,0.4,1.6,1.4,1.6,2.5V43.2z"/>
</svg>
