<svg width="24" height="24" viewBox="0 0 24 24" fill="none" xmlns="http://www.w3.org/2000/svg">
<circle cx="12" cy="12" r="12" fill="white"/>
<g clip-path="url(#clip0_556_1251)">
<path d="M15.7188 5H8.28125C6.46907 5 5 6.46907 5 8.28125V15.7188C5 17.5309 6.46907 19 8.28125 19H15.7188C17.5309 19 19 17.5309 19 15.7188V8.28125C19 6.46907 17.5309 5 15.7188 5Z" fill="url(#paint0_radial_556_1251)"/>
<path d="M15.7188 5H8.28125C6.46907 5 5 6.46907 5 8.28125V15.7188C5 17.5309 6.46907 19 8.28125 19H15.7188C17.5309 19 19 17.5309 19 15.7188V8.28125C19 6.46907 17.5309 5 15.7188 5Z" fill="url(#paint1_radial_556_1251)"/>
<path d="M12.0005 6.53125C10.5153 6.53125 10.3289 6.53776 9.74556 6.56428C9.16336 6.59097 8.76595 6.68312 8.41824 6.81836C8.05851 6.95803 7.75341 7.1449 7.44945 7.44896C7.14523 7.75297 6.95836 8.05807 6.81825 8.41764C6.68263 8.76545 6.59037 9.16303 6.56417 9.74496C6.53809 10.3283 6.53125 10.5148 6.53125 12.0001C6.53125 13.4853 6.53781 13.6711 6.56428 14.2544C6.59108 14.8366 6.68323 15.2341 6.81836 15.5818C6.95814 15.9415 7.14501 16.2466 7.44907 16.5505C7.75297 16.8548 8.05807 17.0421 8.41753 17.1817C8.76551 17.317 9.16298 17.4091 9.74507 17.4358C10.3284 17.4624 10.5147 17.4689 11.9998 17.4689C13.4852 17.4689 13.671 17.4624 14.2543 17.4358C14.8365 17.4091 15.2344 17.317 15.5824 17.1817C15.9419 17.0421 16.2466 16.8548 16.5504 16.5505C16.8547 16.2466 17.0415 15.9415 17.1816 15.5819C17.3161 15.2341 17.4084 14.8365 17.4357 14.2545C17.4619 13.6712 17.4688 13.4853 17.4688 12.0001C17.4688 10.5148 17.4619 10.3284 17.4357 9.74507C17.4084 9.16287 17.3161 8.76551 17.1816 8.4178C17.0415 8.05807 16.8547 7.75297 16.5504 7.44896C16.2463 7.14479 15.942 6.95792 15.582 6.81841C15.2334 6.68312 14.8358 6.59091 14.2536 6.56428C13.6702 6.53776 13.4845 6.53125 11.9988 6.53125H12.0005ZM11.5099 7.51677C11.6555 7.51655 11.818 7.51677 12.0005 7.51677C13.4607 7.51677 13.6337 7.52202 14.2104 7.54822C14.7436 7.57261 15.033 7.6617 15.2257 7.73656C15.481 7.83566 15.6629 7.95416 15.8542 8.14562C16.0456 8.33703 16.1641 8.5193 16.2634 8.77453C16.3383 8.96703 16.4275 9.25644 16.4518 9.78964C16.478 10.3662 16.4837 10.5393 16.4837 11.9988C16.4837 13.4583 16.478 13.6315 16.4518 14.208C16.4274 14.7412 16.3383 15.0306 16.2634 15.2231C16.1643 15.4783 16.0456 15.6601 15.8542 15.8514C15.6628 16.0428 15.4811 16.1612 15.2257 16.2604C15.0332 16.3356 14.7436 16.4244 14.2104 16.4488C13.6338 16.475 13.4607 16.4807 12.0005 16.4807C10.5402 16.4807 10.3671 16.475 9.79068 16.4488C9.25748 16.4242 8.96807 16.3351 8.77513 16.2603C8.51996 16.1611 8.33763 16.0427 8.14623 15.8513C7.95482 15.6599 7.83637 15.478 7.737 15.2227C7.66213 15.0301 7.57294 14.7407 7.54866 14.2075C7.52246 13.631 7.51721 13.4579 7.51721 11.9974C7.51721 10.5371 7.52246 10.3648 7.54866 9.78827C7.57305 9.25507 7.66213 8.96566 7.737 8.77289C7.83615 8.51766 7.95482 8.33539 8.14628 8.14398C8.33769 7.95258 8.51996 7.83407 8.77519 7.73476C8.96796 7.65956 9.25748 7.5707 9.79068 7.5462C10.2952 7.52339 10.4907 7.51655 11.5099 7.51541V7.51677ZM14.9197 8.4248C14.5574 8.4248 14.2635 8.71848 14.2635 9.08084C14.2635 9.44314 14.5574 9.73709 14.9197 9.73709C15.282 9.73709 15.576 9.44314 15.576 9.08084C15.576 8.71853 15.282 8.42459 14.9197 8.42459V8.4248ZM12.0005 9.19158C10.4496 9.19158 9.19207 10.4491 9.19207 12.0001C9.19207 13.551 10.4496 14.8079 12.0005 14.8079C13.5515 14.8079 14.8085 13.551 14.8085 12.0001C14.8085 10.4491 13.5514 9.19158 12.0004 9.19158H12.0005ZM12.0005 10.1771C13.0072 10.1771 13.8234 10.9932 13.8234 12.0001C13.8234 13.0068 13.0072 13.823 12.0005 13.823C10.9937 13.823 10.1776 13.0068 10.1776 12.0001C10.1776 10.9932 10.9937 10.1771 12.0005 10.1771Z" fill="white"/>
</g>
<defs>
<radialGradient id="paint0_radial_556_1251" cx="0" cy="0" r="1" gradientUnits="userSpaceOnUse" gradientTransform="translate(8.71875 20.0783) rotate(-90) scale(13.875 12.9049)">
<stop stop-color="#FFDD55"/>
<stop offset="0.1" stop-color="#FFDD55"/>
<stop offset="0.5" stop-color="#FF543E"/>
<stop offset="1" stop-color="#C837AB"/>
</radialGradient>
<radialGradient id="paint1_radial_556_1251" cx="0" cy="0" r="1" gradientUnits="userSpaceOnUse" gradientTransform="translate(2.65495 6.00849) rotate(78.681) scale(6.20222 25.5657)">
<stop stop-color="#3771C8"/>
<stop offset="0.128" stop-color="#3771C8"/>
<stop offset="1" stop-color="#6600FF" stop-opacity="0"/>
</radialGradient>
<clipPath id="clip0_556_1251">
<rect width="14" height="14" fill="white" transform="translate(5 5)"/>
</clipPath>
</defs>
</svg>
