<svg width="24" height="24" viewBox="0 0 24 24" fill="none" xmlns="http://www.w3.org/2000/svg">
<circle cx="12" cy="12" r="12" fill="white"/>
<g clip-path="url(#clip0_556_1294)">
<path d="M16.9287 16.9289H14.8543V13.6803C14.8543 12.9056 14.8405 11.9084 13.7754 11.9084C12.695 11.9084 12.5297 12.7524 12.5297 13.6239V16.9286H10.4554V10.2482H12.4467V11.1612H12.4746C12.6739 10.8204 12.9619 10.5401 13.3079 10.3501C13.6539 10.16 14.045 10.0674 14.4394 10.082C16.5419 10.082 16.9295 11.465 16.9295 13.2641L16.9287 16.9289ZM8.11478 9.33511C7.44995 9.33522 6.91089 8.79633 6.91078 8.1315C6.91067 7.46666 7.44951 6.9276 8.11434 6.9275C8.77918 6.92733 9.31823 7.46622 9.31834 8.13106C9.3184 8.45033 9.19163 8.75654 8.96592 8.98234C8.74021 9.20815 8.43405 9.33504 8.11478 9.33511ZM9.15198 16.9289H7.07545V10.2482H9.15193V16.9289L9.15198 16.9289ZM17.9628 5.00102H6.0331C5.46927 4.99468 5.00689 5.44634 5 6.01017V17.9896C5.00667 18.5537 5.469 19.0058 6.03305 18.9999H17.9628C18.528 19.0069 18.9922 18.5548 19 17.9896V6.00924C18.992 5.44432 18.5278 4.99271 17.9628 5.00009" fill="#0A66C2"/>
</g>
<defs>
<clipPath id="clip0_556_1294">
<rect width="14" height="14" fill="white" transform="translate(5 5)"/>
</clipPath>
</defs>
</svg>
