<?xml version="1.0" encoding="utf-8"?>
<!-- Generator: Adobe Illustrator 25.2.0, SVG Export Plug-In . SVG Version: 6.00 Build 0)  -->
<svg version="1.1" id="Layer_1" xmlns="http://www.w3.org/2000/svg" xmlns:xlink="http://www.w3.org/1999/xlink" x="0px" y="0px"
	 viewBox="0 0 60 60" style="enable-background:new 0 0 60 60;" xml:space="preserve">
<style type="text/css">
	.st0{fill:#FFFFFF;}
</style>
<g>
	<path class="st0" d="M30.3,58.4c-0.1,0-0.1,0-0.2,0c-1,0-3-1.3-5.7-3.9C17.1,47.6,8.6,35.5,8.6,24c0-10.3,5.8-18.6,14.9-21
		c2.2-0.6,4.6-0.9,6.9-0.9c2.2,0,4.6,0.3,6.8,0.9C46.2,5.4,52,13.7,52,24c0,11.5-8.5,23.6-15.8,30.4C33.4,57,31.4,58.4,30.3,58.4z
		 M30,4.5c-2,0-4,0.3-5.9,0.8C16.1,7.5,11,14.8,11,24C11,39.9,28,55.4,30.3,56c2.2-0.6,19.2-16.1,19.2-32c0-9.2-5.1-16.5-13.1-18.7
		l0,0c-2-0.6-4.1-0.8-6.2-0.8C30.2,4.5,30.1,4.5,30,4.5z M30.4,36.4h-0.3c-3.1,0-6.1-1.2-8.3-3.4c-2.2-2.2-3.4-5.2-3.4-8.2
		s1.2-6.1,3.4-8.3c2.1-2.1,5.2-3.3,8.4-3.3c3.2,0.1,6.3,1.2,8.4,3.3c2.2,2.2,3.4,5.2,3.4,8.3c0,3.1-1.2,6.1-3.4,8.3
		C36.5,35.1,33.5,36.4,30.4,36.4z M30.2,15.6c-2.6,0-4.9,0.9-6.6,2.6c-1.7,1.7-2.7,4.1-2.7,6.6c0,2.4,1,4.8,2.7,6.5
		c1.7,1.7,4.1,2.7,6.6,2.7l0.3,0c0,0,0,0,0,0c2.4,0,4.8-1,6.5-2.7l0,0c1.7-1.7,2.7-4.1,2.7-6.5c0-2.4-1-4.8-2.7-6.6
		c-1.7-1.7-4.1-2.6-6.7-2.6C30.2,15.6,30.2,15.6,30.2,15.6z"/>
</g>
</svg>
