<svg id="Layer_1" data-name="Layer 1" xmlns="http://www.w3.org/2000/svg" viewBox="0 0 86 26.64"><defs><style>.cls-1{fill:#20abb1;}.cls-1,.cls-2,.cls-5{fill-rule:evenodd;}.cls-2,.cls-3{fill:#2a3478;}.cls-4{fill:#203468;}.cls-5{fill:#231f20;}</style></defs><path class="cls-1" d="M125.28,18.46H128a.49.49,0,0,1,.42.29l.54,1.1a.22.22,0,0,0,.36.1l1.47-1.39a.39.39,0,0,1,.23-.1h1.41c.13,0,.13.13.06.2L130,20.92a.4.4,0,0,0-.07.42l1.48,2.81c.06.13,0,.26-.13.26h-2.69a.4.4,0,0,1-.39-.26l-.51-1a.23.23,0,0,0-.36-.09l-1.41,1.29a.3.3,0,0,1-.22.1h-1.45c-.09,0-.16-.17-.06-.26l2.5-2.17a.39.39,0,0,0,.07-.45l-1.54-2.85A.15.15,0,0,1,125.28,18.46Z" transform="translate(-92.3 -4.46)"/><path class="cls-1" d="M139.37,18.46h-6c-.16,0-.13.13-.13.13l.1.36a.48.48,0,0,1,0,.29l-1.22,5.08c0,.09.06.19.16.19h2.5a.17.17,0,0,0,.16-.1l.22-.77a.45.45,0,0,1,.42-.33h2.7a1.54,1.54,0,0,0,1.57-1.22l.58-2.27A1.05,1.05,0,0,0,139.37,18.46Zm-2.89,4.21h-.61a.41.41,0,0,1-.38-.52l.67-2.81a.38.38,0,0,1,.39-.33h.61a.41.41,0,0,1,.38.52l-.67,2.81A.38.38,0,0,1,136.48,22.67Z" transform="translate(-92.3 -4.46)"/><path class="cls-1" d="M141.07,18.66a1.24,1.24,0,0,1,.19,1l-.86,4.46c0,.19.06.39.22.39H143a.22.22,0,0,0,.22-.23l.93-4.69c0-.19.16-.32.32-.32h.81c.22,0,.35.26.32.52l-.39,2a.37.37,0,0,0,.32.49h1.8c.71,0,.61-.16.71-1,0-.16.32-1.23.35-1.42.06-.59,0-1.39-1.12-1.39h-6.1C141,18.5,141.07,18.66,141.07,18.66Z" transform="translate(-92.3 -4.46)"/><path class="cls-1" d="M155.1,18.59h-4.82A1.4,1.4,0,0,0,149,19.82c-.13.65-.68,3.27-.68,3.27s-.32,1.36.87,1.36h5.17a.26.26,0,0,0,.16-.07l.54-.45c.07,0,.07-.13,0-.13h-3.85c-.32,0-.48-.78.22-.78h2.92c.77,0,1.19-.29,1.42-1.26.19-.74.25-1.26.41-1.91S156.16,18.59,155.1,18.59Zm-2.57,3.66h-.74c-.22,0-.35-.26-.32-.49l.42-2.1a.31.31,0,0,1,.32-.29H153c.22,0,.35.26.32.48L152.85,22A.4.4,0,0,1,152.53,22.25Z" transform="translate(-92.3 -4.46)"/><path class="cls-1" d="M164.05,18.46h-5.81c-.54,0-1.06.13-1.31,1.14-.13.45-.2.84-.36,1.68a.74.74,0,0,0,.71.93h3.05c.16,0,.29.2.26.39-.1.49-.33,1.23-1.1,1.23h-2.6a.4.4,0,0,0-.19.07l-.61.42a.07.07,0,0,0,0,.13h5.62c.83,0,1.25-.3,1.41-1,.07-.23.16-1,.2-1.27,0,0,.25-1.45-1.19-1.45h-2.83a.31.31,0,0,1-.25-.39c.06-.42.16-1.1.9-1.1h3.14A.83.83,0,0,0,164.05,18.46Z" transform="translate(-92.3 -4.46)"/><path class="cls-1" d="M172,18.46h-5.81c-.54,0-1.06.13-1.31,1.14-.13.45-.19.84-.36,1.68a.74.74,0,0,0,.71.93h3c.16,0,.29.2.26.39-.1.49-.32,1.23-1.09,1.23h-2.6a.4.4,0,0,0-.2.07l-.61.42a.07.07,0,0,0,0,.13h5.61c.84,0,1.25-.3,1.41-1,.07-.23.16-1,.2-1.27,0,0,.25-1.45-1.19-1.45h-2.83c-.16,0-.28-.19-.25-.39.06-.42.16-1.1.9-1.1h3.14A.83.83,0,0,0,172,18.46Z" transform="translate(-92.3 -4.46)"/><path class="cls-2" d="M123.13,12.26a9.22,9.22,0,0,0-9.59-7.8,10.45,10.45,0,0,0-2.57.42c-1.22.39-2.22.72-3.47,1.07-.7.19-2,.65-2.89.91-.13,0-.09.19,0,.22l2.4.2c.26,0,.39.29,0,.38-3.14,1-5.16,1.65-9.4,2.72-.35.1-.32.36,0,.39,1,0,2.54.06,4,.06a.28.28,0,0,1,0,.55c-2.56.49-6.57,1.17-9.21,1.59a.26.26,0,0,0,0,.51l2,.1,6.57.32c1,0,1.8.13,1.87.68s-.65.78-1.09.81c-.71.07-2.51.33-3.82.45a.18.18,0,0,0,0,.36c1.38.23,3,.45,4,.58,2.7.36,2.41,1.13,2.41,1.26,0,.68-1,.78-1.38.84a43.61,43.61,0,0,1-6.84,0c-.22,0-.29.35-.06.38a68.19,68.19,0,0,1,12.55,3.21,13,13,0,0,0,6.16.74A9.35,9.35,0,0,0,123.13,12.26Zm-9.59,8.82a7.18,7.18,0,1,1,7.12-7.18A7.16,7.16,0,0,1,113.54,21.08Z" transform="translate(-92.3 -4.46)"/><path class="cls-3" d="M113.54,18.46A4.59,4.59,0,1,0,109,13.87,4.57,4.57,0,0,0,113.54,18.46Z" transform="translate(-92.3 -4.46)"/><path class="cls-1" d="M114.15,16a.86.86,0,0,1-1-.2c-.22-.29-1.28-1.87-1.64-2.42a.57.57,0,0,1,.13-.75l1.19-.84a.52.52,0,0,1,.83.36c-.41.29-1.15.77-1.28.87a.45.45,0,0,0,.45.78c.26-.16.77-.52.93-.65a.54.54,0,0,1,.87.36l-1.19.84a.46.46,0,0,0,.51.77c.1-.06.77-.51.84-.58a.5.5,0,0,1,.83.36C115.43,15,114.5,15.75,114.15,16Z" transform="translate(-92.3 -4.46)"/><path class="cls-3" d="M131.38,9.51h-.06l-2.51,6.79h-2.34l-.71-9.38h1.93l.29,7H128l2.57-7h2.25l.19,7h.06l2.7-7h2.08L134,16.3H131.6Z" transform="translate(-92.3 -4.46)"/><path class="cls-3" d="M143.7,14.94l-.22,1.39a2.88,2.88,0,0,1-.84.06,2.09,2.09,0,0,1-.93-.19.93.93,0,0,1-.45-.61h-.06a3.37,3.37,0,0,1-.93.68,3.79,3.79,0,0,1-1.22.22,2.32,2.32,0,0,1-1.06-.22,2.24,2.24,0,0,1-.77-.65,1.75,1.75,0,0,1-.29-1,2.06,2.06,0,0,1,.8-1.84,4.43,4.43,0,0,1,2.31-.65,3.52,3.52,0,0,0,1.38-.29.72.72,0,0,0,.49-.71c0-.42-.32-.62-1-.62a1.53,1.53,0,0,0-.9.29,1.93,1.93,0,0,0-.64.81l-1.67-.32A2.93,2.93,0,0,1,139,9.8a3.89,3.89,0,0,1,2.11-.52A3,3,0,0,1,143,9.8a1.65,1.65,0,0,1,.67,1.36,2.13,2.13,0,0,1,0,.42l-.54,3.13v.13a.32.32,0,0,0,.06.2.26.26,0,0,0,.16.06A2.12,2.12,0,0,1,143.7,14.94Zm-3.49-1.68a2.18,2.18,0,0,0-1,.39,1,1,0,0,0-.39.8.69.69,0,0,0,.26.55,1,1,0,0,0,.64.2,1.71,1.71,0,0,0,1.13-.42,2,2,0,0,0,.67-1.23l.13-.62A3.26,3.26,0,0,1,140.21,13.26Z" transform="translate(-92.3 -4.46)"/><path class="cls-3" d="M148.61,14.91l-.25,1.42a3.72,3.72,0,0,1-1.19.13,2.65,2.65,0,0,1-1.35-.29,1.18,1.18,0,0,1-.45-1,2.92,2.92,0,0,1,0-.48l.71-4H145l.19-1.23h1.09l.36-1.94h1.83l-.36,1.94h1.45l-.16,1.23H148l-.64,3.78a.9.9,0,0,0,0,.23c0,.16,0,.25.13.29a1.27,1.27,0,0,0,.41.06A2.1,2.1,0,0,0,148.61,14.91Z" transform="translate(-92.3 -4.46)"/><path class="cls-3" d="M154.46,10.7a1.3,1.3,0,0,0-.87-.25,1.66,1.66,0,0,0-.9.25.72.72,0,0,0-.39.62.45.45,0,0,0,.26.42,3.29,3.29,0,0,0,.87.29l.67.16a9.57,9.57,0,0,1,1.13.36,2.1,2.1,0,0,1,.73.55,1.56,1.56,0,0,1,.29,1,2,2,0,0,1-1,1.78,4.33,4.33,0,0,1-2.44.61,3.68,3.68,0,0,1-2.18-.58,2,2,0,0,1-.9-1.62l1.7-.22a1.21,1.21,0,0,0,.45.93,1.69,1.69,0,0,0,1.06.3,2,2,0,0,0,1-.26.79.79,0,0,0,.42-.71.53.53,0,0,0-.29-.46,4.38,4.38,0,0,0-.9-.32l-.7-.16a6.59,6.59,0,0,1-1-.33,2,2,0,0,1-.71-.55,1.57,1.57,0,0,1-.28-1,1.88,1.88,0,0,1,.44-1.22,2.84,2.84,0,0,1,1.19-.81,4,4,0,0,1,1.57-.26,4.16,4.16,0,0,1,1.45.26,2.44,2.44,0,0,1,1,.74,1.94,1.94,0,0,1,.41,1.07l-1.67.22A1.32,1.32,0,0,0,154.46,10.7Z" transform="translate(-92.3 -4.46)"/><path class="cls-3" d="M160.55,16.49a3.1,3.1,0,0,1-2.21-.77,2.71,2.71,0,0,1-.84-2.07,4.9,4.9,0,0,1,.49-2.2,3.71,3.71,0,0,1,1.44-1.62,4.26,4.26,0,0,1,2.28-.61,3.1,3.1,0,0,1,2.21.77,2.71,2.71,0,0,1,.84,2.07,5.16,5.16,0,0,1-.48,2.23,4,4,0,0,1-1.45,1.62A4.64,4.64,0,0,1,160.55,16.49Zm1.09-5.92a1.71,1.71,0,0,0-1.28.55,3.21,3.21,0,0,0-.74,1.26,4.11,4.11,0,0,0-.22,1.3,1.39,1.39,0,0,0,.32,1,1.15,1.15,0,0,0,.93.36,1.81,1.81,0,0,0,1.32-.55,3.19,3.19,0,0,0,.73-1.26,4.15,4.15,0,0,0,.23-1.3,1.46,1.46,0,0,0-.36-1A1.25,1.25,0,0,0,161.64,10.57Z" transform="translate(-92.3 -4.46)"/><path class="cls-3" d="M168.8,16.49a3.1,3.1,0,0,1-2.21-.77,2.71,2.71,0,0,1-.84-2.07,5,5,0,0,1,.48-2.2,3.73,3.73,0,0,1,1.45-1.62A4.26,4.26,0,0,1,170,9.22a3.1,3.1,0,0,1,2.21.77,2.71,2.71,0,0,1,.84,2.07,5.17,5.17,0,0,1-.49,2.23,3.88,3.88,0,0,1-1.44,1.62A4.64,4.64,0,0,1,168.8,16.49Zm1.09-5.92a1.71,1.71,0,0,0-1.28.55,3.21,3.21,0,0,0-.74,1.26,4.11,4.11,0,0,0-.22,1.3,1.39,1.39,0,0,0,.32,1,1.15,1.15,0,0,0,.93.36,1.77,1.77,0,0,0,1.31-.55,3.1,3.1,0,0,0,.74-1.26,4.15,4.15,0,0,0,.23-1.3,1.46,1.46,0,0,0-.36-1A1.25,1.25,0,0,0,169.89,10.57Z" transform="translate(-92.3 -4.46)"/><path class="cls-4" d="M173.9,7.6h.55V9.15h.32V7.6h.55V7.28H173.9Z" transform="translate(-92.3 -4.46)"/><path class="cls-4" d="M176.92,7.28l-.42,1.26s0,.09,0,.13,0-.07,0-.1L176,7.28h-.41V9.15h.32V7.92l.38,1.23h.29L177,8V9.15h.32V7.28Z" transform="translate(-92.3 -4.46)"/><path class="cls-4" d="M175.77,10.67a2.56,2.56,0,1,1,2.53-2.55A2.55,2.55,0,0,1,175.77,10.67Zm0-4.75A2.23,2.23,0,1,0,178,8.15,2.2,2.2,0,0,0,175.77,5.92Z" transform="translate(-92.3 -4.46)"/><path class="cls-5" d="M171.14,28.36a.51.51,0,0,0-.35.16.85.85,0,0,0-.22.42h.89v0a.46.46,0,0,0,0-.39C171.4,28.39,171.3,28.36,171.14,28.36Zm-.28,1.94a.86.86,0,0,1-.71-.29,1,1,0,0,1-.16-.78l0-.1a1.42,1.42,0,0,1,.42-.8,1.11,1.11,0,0,1,.77-.3.73.73,0,0,1,.61.26A1,1,0,0,1,172,29l0,.23H170.5a1.06,1.06,0,0,0,0,.55c.07.13.2.19.42.19a1.16,1.16,0,0,0,.35-.06,1.66,1.66,0,0,0,.33-.16l.12.26a1.9,1.9,0,0,1-.38.19A1.32,1.32,0,0,1,170.86,30.3ZM168.64,30a.39.39,0,0,0,.32-.13.5.5,0,0,0,.19-.32h.45a.73.73,0,0,1-.35.52,1.17,1.17,0,0,1-.67.19.7.7,0,0,1-.68-.32.91.91,0,0,1-.13-.78v-.06a1.42,1.42,0,0,1,.42-.78A1.19,1.19,0,0,1,169,28a.69.69,0,0,1,.58.23.73.73,0,0,1,.16.58h-.45a.47.47,0,0,0-.06-.36.33.33,0,0,0-.29-.12.47.47,0,0,0-.42.22,1,1,0,0,0-.22.55v.07a1.22,1.22,0,0,0,0,.58C168.32,29.91,168.45,30,168.64,30ZM166,28.39a1.35,1.35,0,0,1,.32-.26.94.94,0,0,1,.39-.1.52.52,0,0,1,.48.23,1,1,0,0,1,.09.65l-.25,1.32h-.48l.25-1.32c0-.23,0-.36,0-.46a.41.41,0,0,0-.29-.12,1.07,1.07,0,0,0-.29.06,1.44,1.44,0,0,0-.22.19l-.29,1.62h-.48l.38-2.17h.45Zm-1.8,0a.51.51,0,0,0-.35.16.85.85,0,0,0-.22.42h.89v0a.46.46,0,0,0,0-.39A.28.28,0,0,0,164.24,28.36Zm-.32,1.94a.85.85,0,0,1-.7-.29,1,1,0,0,1-.16-.78l0-.1a1.42,1.42,0,0,1,.42-.8,1.11,1.11,0,0,1,.77-.3.75.75,0,0,1,.61.26A1,1,0,0,1,165,29l0,.23h-1.41a1.06,1.06,0,0,0,0,.55c.07.13.19.19.42.19a1.16,1.16,0,0,0,.35-.06,1.37,1.37,0,0,0,.32-.16l.13.26a1.9,1.9,0,0,1-.38.19A1.24,1.24,0,0,1,163.92,30.3Zm-1-2.78h-.49l.07-.39H163Zm-.52,2.71h-.48l.39-2.16h.48Zm-.58-1.81h-.22a.35.35,0,0,0-.26.1.43.43,0,0,0-.19.23l-.29,1.52h-.48l.39-2.17h.44l0,.29a1.07,1.07,0,0,1,.26-.26.66.66,0,0,1,.32-.1h.1s.06,0,.06,0Zm-2.47-.06a.51.51,0,0,0-.35.16.85.85,0,0,0-.22.42h.89v0a.46.46,0,0,0,0-.39C159.59,28.39,159.49,28.36,159.33,28.36ZM159,30.3a.85.85,0,0,1-.7-.29,1,1,0,0,1-.16-.78l0-.1a1.42,1.42,0,0,1,.42-.8,1.11,1.11,0,0,1,.77-.3.73.73,0,0,1,.61.26,1,1,0,0,1,.13.71l0,.23h-1.41a1.06,1.06,0,0,0,0,.55c.07.13.2.19.42.19a1.16,1.16,0,0,0,.35-.06,1.37,1.37,0,0,0,.32-.16l.13.26a1.9,1.9,0,0,1-.38.19A1.34,1.34,0,0,1,159,30.3Zm-1.7-1.1a1.13,1.13,0,0,0,0-.62.32.32,0,0,0-.35-.22,1,1,0,0,0-.29.06,1.57,1.57,0,0,0-.23.2l-.19,1.1c0,.09.07.12.16.19a.66.66,0,0,0,.26.06.57.57,0,0,0,.42-.19.92.92,0,0,0,.22-.55Zm.48,0a1.76,1.76,0,0,1-.35.78,1,1,0,0,1-.7.29.84.84,0,0,1-.33-.07.4.4,0,0,1-.22-.19L156,31.11h-.52l.55-3h.42v.26a1.54,1.54,0,0,1,.29-.23.71.71,0,0,1,.38-.06.6.6,0,0,1,.58.32A1.15,1.15,0,0,1,157.82,29.23Zm-3.27-.36.58-.8h.58l-.9,1.06.54,1.1h-.54l-.29-.81-.58.81h-.54l.93-1.1-.52-1.06h.55Zm-1.47,0h-1.19l-.19,1h1.41l-.07.33h-1.89l.51-2.91h1.9l-.07.32h-1.38l-.16.94h1.19ZM150,28.42h-.22a.34.34,0,0,0-.26.1.39.39,0,0,0-.19.23L149,30.27h-.48l.38-2.17h.45l0,.29a.92.92,0,0,1,.26-.26.63.63,0,0,1,.32-.1H150s.07,0,.07,0Zm-2.47-.06a.48.48,0,0,0-.35.16,1,1,0,0,0-.23.42h.9v0a.55.55,0,0,0,0-.39C147.75,28.39,147.65,28.36,147.49,28.36Zm-.29,1.94a.85.85,0,0,1-.7-.29,1,1,0,0,1-.16-.78l0-.1a1.47,1.47,0,0,1,.41-.8,1.15,1.15,0,0,1,.77-.3.72.72,0,0,1,.61.26.94.94,0,0,1,.13.71l0,.23h-1.41a1.06,1.06,0,0,0,0,.55c.07.13.19.19.42.19a1.22,1.22,0,0,0,.35-.06,1.37,1.37,0,0,0,.32-.16l.13.26a2.23,2.23,0,0,1-.38.19A1.41,1.41,0,0,1,147.2,30.3Zm-3.85-1.94a.71.71,0,0,1,.32-.23,1,1,0,0,1,.42-.1.65.65,0,0,1,.35.1.46.46,0,0,1,.19.29,1,1,0,0,1,.33-.29.89.89,0,0,1,.41-.1.5.5,0,0,1,.48.23,1,1,0,0,1,.07.71l-.23,1.3h-.48l.23-1.3a1.24,1.24,0,0,0,0-.48.28.28,0,0,0-.29-.13.46.46,0,0,0-.29.09.8.8,0,0,0-.23.3v.16l-.25,1.36h-.48l.22-1.3a.78.78,0,0,0,0-.48.28.28,0,0,0-.29-.13,1,1,0,0,0-.29.06,1.09,1.09,0,0,0-.22.2L143,30.23h-.48l.38-2.16h.45Zm-2.66.84a1,1,0,0,0,0,.58.4.4,0,0,0,.38.23.57.57,0,0,0,.45-.23,1.34,1.34,0,0,0,.26-.55v-.06a1.26,1.26,0,0,0,0-.59.35.35,0,0,0-.36-.22.53.53,0,0,0-.44.22,1.08,1.08,0,0,0-.23.55Zm-.48-.07a1.37,1.37,0,0,1,.41-.8,1.15,1.15,0,0,1,.8-.3.7.7,0,0,1,.68.33.91.91,0,0,1,.13.77v.07a1.51,1.51,0,0,1-.42.81,1.17,1.17,0,0,1-.8.29.79.79,0,0,1-.71-.33.89.89,0,0,1-.13-.77Zm-.49-1.58-.09.55H140l-.06.29h-.42l-.22,1.29a.37.37,0,0,0,0,.26.26.26,0,0,0,.16.07h.06a.1.1,0,0,0,.1,0v.3a.3.3,0,0,1-.16,0l-.19,0a.54.54,0,0,1-.42-.16.46.46,0,0,1-.06-.49l.22-1.29h-.35l.06-.29h.35l.1-.55Zm-1.95,2.17c0-.1,0-.17-.07-.23a.92.92,0,0,0-.35-.19,2,2,0,0,1-.55-.26.36.36,0,0,1-.12-.39.57.57,0,0,1,.32-.42,1.08,1.08,0,0,1,.67-.16.91.91,0,0,1,.61.19.44.44,0,0,1,.16.45H138a.26.26,0,0,0-.07-.26.39.39,0,0,0-.28-.09.6.6,0,0,0-.33.09.24.24,0,0,0-.12.2c0,.1,0,.16.06.19l.35.2a1.17,1.17,0,0,1,.58.29.35.35,0,0,1,.13.39.64.64,0,0,1-.32.45,1.45,1.45,0,0,1-.68.16,1,1,0,0,1-.64-.19.48.48,0,0,1-.16-.49h.45a.24.24,0,0,0,.1.29.44.44,0,0,0,.32.1.51.51,0,0,0,.32-.1C137.7,29.84,137.77,29.78,137.77,29.72Zm-2.31.51v-.29a.81.81,0,0,1-.33.26.75.75,0,0,1-.38.1.55.55,0,0,1-.51-.23,1,1,0,0,1-.07-.71l.23-1.26h.48l-.23,1.26a1.2,1.2,0,0,0,0,.48c0,.1.13.13.26.13a1,1,0,0,0,.32-.06.84.84,0,0,0,.23-.23l.28-1.61h.49l-.39,2.16Zm-1.77-.87a.84.84,0,0,1-.42.68,1.43,1.43,0,0,1-.86.23,1.06,1.06,0,0,1-.81-.3.85.85,0,0,1-.19-.8l.16-.81a1.29,1.29,0,0,1,.45-.81,1.47,1.47,0,0,1,.9-.29,1.19,1.19,0,0,1,.8.22.7.7,0,0,1,.19.68h-.48a.57.57,0,0,0-.06-.45.66.66,0,0,0-.48-.13.89.89,0,0,0-.55.2.85.85,0,0,0-.29.58l-.16.81a.68.68,0,0,0,.07.58.54.54,0,0,0,.48.19.71.71,0,0,0,.48-.16.75.75,0,0,0,.26-.45h.51Zm-4.81.13v.13l.8-1.59h.54l-1.38,2.53a1.1,1.1,0,0,1-.32.38.78.78,0,0,1-.48.17h-.13a.15.15,0,0,1-.12,0l.09-.29H128a.45.45,0,0,0,.26-.09,2.11,2.11,0,0,1,.19-.23l.13-.23-.45-2.16h.54Zm-1.61-.29a2.12,2.12,0,0,0,0-.62.32.32,0,0,0-.35-.22.55.55,0,0,0-.29.09.84.84,0,0,0-.23.23l-.19,1a.54.54,0,0,0,.13.22c.06.07.16.07.29.07a.53.53,0,0,0,.42-.2,1.27,1.27,0,0,0,.22-.55Zm.48,0a1.76,1.76,0,0,1-.35.78,1,1,0,0,1-.71.29.62.62,0,0,1-.35-.1.61.61,0,0,1-.22-.23l-.1.3h-.42l.58-3.14h.48l-.22,1.2a.66.66,0,0,1,.29-.2,1.16,1.16,0,0,1,.35-.06.6.6,0,0,1,.58.32A1.15,1.15,0,0,1,127.75,29.23Zm-4.84-.84a1.18,1.18,0,0,1,.32-.26.9.9,0,0,1,.38-.1.5.5,0,0,1,.48.23,1,1,0,0,1,.1.65l-.26,1.32h-.48l.26-1.32a.71.71,0,0,0,0-.46.43.43,0,0,0-.29-.12,1,1,0,0,0-.29.06,1.55,1.55,0,0,0-.23.19l-.28,1.62h-.49l.39-2.17h.45Zm-1.83,0a.52.52,0,0,0-.36.16.94.94,0,0,0-.22.42h.9v0a.55.55,0,0,0,0-.39C121.33,28.39,121.24,28.36,121.08,28.36Zm-.29,1.94a.87.87,0,0,1-.71-.29,1,1,0,0,1-.16-.78l0-.1a1.55,1.55,0,0,1,.42-.8,1.13,1.13,0,0,1,.77-.3.73.73,0,0,1,.61.26,1,1,0,0,1,.13.71l0,.23h-1.41a.89.89,0,0,0,0,.55c.06.13.19.19.41.19a1.29,1.29,0,0,0,.36-.06,1.91,1.91,0,0,0,.32-.16l.13.26a2.37,2.37,0,0,1-.39.19A1.44,1.44,0,0,1,120.79,30.3Zm-2.22-.71v.16l.07-.16.74-1.52h.51l-1.19,2.16h-.41l-.42-2.16h.51Zm-1-2.07h-.48l.06-.39h.48Zm-.48,2.71h-.48l.38-2.16h.48Zm-.61-1.81h-.23a.33.33,0,0,0-.25.1.45.45,0,0,0-.2.23l-.28,1.52H115l.39-2.17h.45v.29a1,1,0,0,1,.25-.26.7.7,0,0,1,.33-.1h.09s.07,0,.07,0Zm-3.31-.77-.41,2.29h.51a.89.89,0,0,0,.61-.26,1.2,1.2,0,0,0,.35-.68l.07-.42a.8.8,0,0,0-.1-.68.61.61,0,0,0-.55-.25Zm-1,2.58.51-2.91h1a1.15,1.15,0,0,1,.86.36,1.06,1.06,0,0,1,.23.9l-.07.42a1.48,1.48,0,0,1-.51.91,1.51,1.51,0,0,1-1,.32Z" transform="translate(-92.3 -4.46)"/></svg>