<svg width="44" height="44" viewBox="0 0 44 44" fill="none" xmlns="http://www.w3.org/2000/svg">
<path d="M43.5612 32.9013C40.862 34.316 38.1639 35.733 35.4624 37.1443C31.6113 39.1571 27.7579 41.1677 23.9056 43.1782C23.7957 43.2359 23.6825 43.2858 23.5148 43.3662C23.5035 43.1884 23.4888 43.0558 23.4888 42.9245C23.499 36.2552 23.5114 29.5859 23.5137 22.9166C23.5137 22.6051 23.6054 22.4443 23.8886 22.305C30.3064 19.147 36.7186 15.9778 43.133 12.813C43.2712 12.7451 43.4185 12.6952 43.5612 12.6375V32.9013Z" fill="#3E1A51"/>
<path d="M20.161 43.4149C18.9694 42.7783 17.7823 42.1338 16.5851 41.5074C11.4597 38.8286 6.33197 36.1532 1.20088 33.4823C0.524667 33.1301 0.150879 32.6079 0.150879 31.8343C0.150879 25.5195 0.150879 19.2048 0.150879 12.8912C0.150879 12.8209 0.156542 12.7507 0.162206 12.634C0.278873 12.6748 0.381948 12.6997 0.473696 12.745C2.97921 13.9785 5.48245 15.2177 7.99249 16.4421C8.24169 16.5645 8.29379 16.7162 8.29266 16.9677C8.28473 19.1855 8.28473 21.4033 8.29039 23.6211C8.29266 24.3415 8.63699 24.8727 9.29169 25.1571C9.90108 25.4221 10.4855 25.3122 10.9873 24.8716C11.3962 24.5126 11.5412 24.0436 11.5378 23.5056C11.5288 21.9232 11.5344 20.3409 11.5344 18.7596C11.5344 18.609 11.5344 18.4572 11.5344 18.2454C11.7292 18.3303 11.8686 18.3847 12.0022 18.4504C14.6221 19.7394 17.2386 21.0341 19.8642 22.3129C20.1576 22.4556 20.2629 22.613 20.2618 22.9483C20.2471 29.7716 20.2471 36.5938 20.2437 43.4172H20.1587L20.161 43.4149Z" fill="#3E1A51"/>
<path d="M41.9056 9.73091C40.6257 10.3652 39.4148 10.9655 38.204 11.5647C32.8951 14.1948 27.5862 16.8215 22.2818 19.4596C21.9873 19.6057 21.763 19.6136 21.464 19.4641C18.929 18.1955 16.3838 16.9461 13.8421 15.6911C13.679 15.6107 13.5193 15.5235 13.3086 15.4136C13.4626 15.3253 13.5725 15.255 13.688 15.1961C19.9926 11.9714 26.2983 8.75 32.5994 5.51957C32.8713 5.38024 33.0808 5.35419 33.3753 5.50144C36.0621 6.84595 38.759 8.16893 41.4525 9.49871C41.5783 9.561 41.7029 9.6267 41.9056 9.73091Z" fill="#3E1A51"/>
<path d="M29.3162 3.49092C27.8075 4.26228 26.3916 4.98721 24.9758 5.71213C19.9795 8.27088 14.9821 10.8285 9.98916 13.3952C9.72751 13.53 9.52702 13.5469 9.25178 13.4099C6.8029 12.19 4.3461 10.9871 1.82812 9.74904C1.94139 9.67428 2.01502 9.61425 2.09884 9.57347C8.42151 6.44951 14.7453 3.32668 21.0669 0.201591C21.5097 -0.0170185 21.9708 -0.091776 22.4148 0.123435C24.6869 1.21988 26.9489 2.33331 29.3162 3.49092Z" fill="#3E1A51"/>
</svg>
