<svg width="24" height="32" viewBox="0 0 24 32" fill="none" xmlns="http://www.w3.org/2000/svg">
<path d="M15.3639 18.6679C15.3639 18.7403 15.3709 18.7935 15.3631 18.8433C15.2374 19.6052 15.5655 20.141 16.2253 20.4718C16.7682 20.7441 17.3302 20.9806 17.8931 21.2092C19.3977 21.821 20.8795 22.4747 22.1668 23.4896C22.9488 24.1066 23.6461 24.8188 23.8101 25.8442C23.9096 26.4682 23.9088 27.1245 23.8389 27.7537C23.763 28.4371 23.3013 28.9276 22.748 29.3142C21.8282 29.9582 20.7739 30.2628 19.6935 30.4836C17.4751 30.9383 15.2243 31.0177 12.9692 31.0256C10.8354 31.0334 8.70073 31.0387 6.58002 30.748C5.27269 30.5691 3.98019 30.3265 2.77671 29.7575C1.86559 29.3264 1.07665 28.7408 0.80087 27.7127C0.460509 26.4438 0.743271 25.2988 1.63432 24.3213C2.35606 23.5298 3.241 22.9468 4.17481 22.4546C5.4132 21.8018 6.68562 21.2118 7.94234 20.5931C8.18583 20.4735 8.43979 20.367 8.66233 20.2152C9.32473 19.7649 9.53069 19.0082 9.16502 18.2908C8.99397 17.9548 8.75833 17.6485 8.52706 17.3474C7.33492 15.794 6.47617 14.0896 6.1969 12.1338C5.95952 10.4695 6.00926 8.82444 6.75893 7.27711C7.69885 5.33705 9.28371 4.28717 11.4035 4.01488C12.5774 3.8639 13.7337 3.94071 14.8403 4.37881C16.9235 5.20353 18.0327 6.81719 18.4377 8.95884C18.8339 11.0542 18.4534 13.0493 17.5711 14.9632C17.5213 15.0722 17.3904 15.1805 17.2752 15.2154C16.9636 15.3088 16.6425 15.3733 16.3213 15.4257C16.2279 15.4414 16.1215 15.3812 16.0211 15.3533C15.6694 15.2573 15.3238 15.1176 14.966 15.074C14.5689 15.026 14.1613 15.0548 13.759 15.067C12.7641 15.0967 11.9795 15.9066 11.99 16.8823C12.0005 17.8519 12.7737 18.6399 13.7547 18.6644C14.2844 18.6775 14.8159 18.667 15.3657 18.667L15.3639 18.6679Z" fill="#612F7B"/>
<path d="M1.91527 12.9655C1.91527 12.4646 1.91265 11.9636 1.91527 11.4627C1.91876 10.8771 2.15527 10.4163 2.63875 10.0751C2.72777 10.0122 2.80981 9.87871 2.81941 9.77224C3.17809 5.44093 6.16454 2.02947 10.4129 1.11136C15.5541 -0.000481904 20.8201 3.60036 21.6475 8.79304C21.6745 8.96497 21.7059 9.1369 21.719 9.3097C21.7478 9.70068 21.7984 10.0375 22.1903 10.295C22.5691 10.5428 22.679 11.0002 22.6799 11.4548C22.6825 12.4672 22.6904 13.4804 22.6781 14.4928C22.6633 15.6963 21.5113 16.4311 20.3951 15.972C20.2886 15.9284 20.1141 15.9188 20.0268 15.9773C18.8434 16.7557 17.5239 17.1179 16.1362 17.2899C16.0036 17.3064 15.8832 17.4129 15.7549 17.4749C15.5175 17.5883 15.2871 17.7646 15.0392 17.7978C14.6325 17.8519 14.2136 17.8205 13.8 17.8109C13.2833 17.7986 12.9011 17.4347 12.8688 16.9451C12.8347 16.4285 13.1638 15.9965 13.6935 15.952C14.1796 15.911 14.6718 15.931 15.1605 15.9502C15.3028 15.9563 15.4878 16.0148 15.5733 16.116C15.7933 16.3787 16.0498 16.3525 16.3343 16.3089C17.386 16.1466 18.3905 15.8516 19.3077 15.2931C19.4823 15.1866 19.5992 15.0915 19.5032 14.8584C19.4561 14.7441 19.4709 14.601 19.47 14.4701C19.4674 13.4787 19.4744 12.4881 19.4665 11.4967C19.4622 10.8954 19.6891 10.4277 20.1822 10.0733C20.2677 10.0122 20.3253 9.83681 20.3113 9.72511C19.8916 6.31801 18.0938 3.93548 14.856 2.80618C10.145 1.1646 5.15917 4.23134 4.34317 9.17617C4.32397 9.29399 4.32921 9.41791 4.29954 9.53224C4.22361 9.8246 4.28907 10.0201 4.56135 10.2086C4.94622 10.4756 5.12251 10.8937 5.12426 11.3684C5.12775 12.4358 5.1391 13.5031 5.12164 14.5696C5.1068 15.4484 4.4191 16.0986 3.54114 16.1047C2.65272 16.1108 1.95018 15.4528 1.92138 14.567C1.90392 14.0337 1.91789 13.4996 1.91789 12.9664H1.91614L1.91527 12.9655Z" fill="#612F7B"/>
</svg>
