<svg width="45" height="26" viewBox="0 0 45 26" fill="none" xmlns="http://www.w3.org/2000/svg">
<path d="M44.0133 21.2053C43.6761 21.9373 43.0966 22.1991 42.3087 22.144C41.7343 22.1033 41.1548 22.1364 40.571 22.1364C39.8314 24.5764 38.2598 26.0446 35.6681 25.9981C33.1798 25.9531 31.6692 24.5018 30.9702 22.1491H18.1542C17.4324 24.5468 15.887 26.0116 13.3352 25.9997C10.807 25.9879 9.26763 24.534 8.55596 22.1372C7.76296 22.1372 6.97418 22.1398 6.18541 22.1372C5.28396 22.1338 4.77478 21.6238 4.77309 20.719C4.7697 19.5218 4.77309 18.3247 4.77309 17.0632C4.25628 17.0632 3.75557 17.0632 3.25401 17.0632C2.8736 17.0632 2.4932 17.0657 2.11194 17.0632C1.29013 17.0573 0.717407 16.5379 0.714018 15.8C0.710629 15.0612 1.28505 14.5283 2.10178 14.5274C5.8228 14.5249 9.54383 14.524 13.2649 14.5283C13.8376 14.5283 14.2849 14.3232 14.5408 13.798C14.9542 12.9516 14.3468 12.0044 13.3733 11.9925C12.1897 11.9781 11.0053 11.9891 9.82172 11.9883C7.24276 11.9883 4.66295 11.9917 2.08398 11.9866C1.05206 11.984 0.414095 11.0428 0.847876 10.1701C1.09866 9.66518 1.52905 9.44914 2.08737 9.44999C4.56806 9.45338 7.04874 9.45422 9.52943 9.44999C10.3911 9.44829 10.9773 8.8366 10.8994 8.0402C10.8333 7.36496 10.4207 7.00743 9.65228 7.00235C8.22893 6.99218 6.80474 6.99896 5.3814 6.99811C4.6909 6.99811 4.00042 7.00404 3.30908 6.99641C2.53471 6.9871 1.96876 6.42962 1.98232 5.70609C1.99502 4.9995 2.55504 4.47252 3.31331 4.46235C3.77759 4.45558 4.24187 4.46151 4.74513 4.46151C4.75445 4.3268 4.7697 4.20649 4.77055 4.08618C4.77309 3.29657 4.76461 2.50695 4.77393 1.71818C4.78325 0.947204 5.30938 0.422769 6.07528 0.402436C6.17355 0.399894 6.27268 0.402436 6.37096 0.402436C13.7427 0.402436 21.1144 0.402436 28.4862 0.402436C28.6531 0.402436 28.8208 0.402436 29.0436 0.402436V0.875189C29.0436 3.18728 29.0436 5.49936 29.0436 7.81145C29.0436 8.79593 29.5359 9.28308 30.5297 9.28393C33.6449 9.28478 36.7602 9.24665 39.8746 9.30003C41.3971 9.32629 42.7094 9.92105 43.5228 11.2978C43.7524 11.6867 43.8532 12.1526 44.0133 12.583V21.2112V21.2053ZM11.0307 21.1621C11.0307 22.4482 12.0796 23.4877 13.3784 23.4877C14.6382 23.4877 15.6812 22.4346 15.6812 21.1629C15.6812 19.8912 14.6399 18.839 13.3792 18.8373C12.0821 18.8356 11.0316 19.876 11.0316 21.1621H11.0307ZM33.4424 21.1739C33.4475 22.4583 34.5023 23.4928 35.8011 23.4877C37.0601 23.4826 38.0971 22.4244 38.092 21.1511C38.087 19.8794 37.0406 18.8339 35.7783 18.8373C34.482 18.8415 33.4374 19.8861 33.4424 21.1739Z" fill="#F7C531"/>
<path d="M31.6104 0.687073C35.0874 1.35977 36.9394 3.85147 38.5288 6.71256H31.6104V0.687073Z" fill="#F7C531"/>
</svg>
