<svg width="24" height="24" viewBox="0 0 24 24" fill="none" xmlns="http://www.w3.org/2000/svg">
<circle cx="12" cy="12" r="12" fill="white"/>
<g clip-path="url(#clip0_556_1270)">
<path d="M18.6687 8.55972C18.5827 8.25825 18.4149 7.98341 18.1819 7.76257C17.949 7.54173 17.6592 7.38259 17.3412 7.301C16.1772 7 11.4924 7 11.4924 7C11.4924 7 6.80735 7.00911 5.64333 7.31011C5.32537 7.39171 5.03551 7.55085 4.8026 7.77171C4.56969 7.99256 4.40186 8.26741 4.31583 8.56889C3.96374 10.5299 3.82716 13.518 4.3255 15.4006C4.41154 15.702 4.57937 15.9769 4.81228 16.1977C5.04519 16.4185 5.33505 16.5777 5.653 16.6593C6.81702 16.9603 11.5019 16.9603 11.5019 16.9603C11.5019 16.9603 16.1868 16.9603 17.3508 16.6593C17.6687 16.5777 17.9586 16.4186 18.1915 16.1977C18.4245 15.9769 18.5923 15.702 18.6783 15.4006C19.0497 13.4368 19.1641 10.4505 18.6687 8.55972Z" fill="#FF0000"/>
<path d="M10 14.1144L13.8864 11.98L10 9.8457V14.1144Z" fill="white"/>
</g>
<defs>
<clipPath id="clip0_556_1270">
<rect width="15" height="10" fill="white" transform="translate(4 7)"/>
</clipPath>
</defs>
</svg>
